0
SECTION
2
HEADER
9
$INSUNITS
70
1
9
$ACADVER
1
AC1014
9
$HANDSEED
5
FFFF
0
ENDSEC
0
SECTION
2
TABLES
0
TABLE
2
VPORT
5
8
100
AcDbSymbolTable
0
ENDTAB
0
TABLE
2
LTYPE
5
5
100
AcDbSymbolTable
0
LTYPE
5
14
100
AcDbSymbolTableRecord
100
AcDbLinetypeTableRecord
2
BYBLOCK
70
0
0
LTYPE
5
15
100
AcDbSymbolTableRecord
100
AcDbLinetypeTableRecord
2
BYLAYER
70
0
0
ENDTAB
0
TABLE
2
LAYER
5
2
100
AcDbSymbolTable
70
2
0
LAYER
5
50
100
AcDbSymbolTableRecord
100
AcDbLayerTableRecord
2
0
70
0
6
CONTINUOUS
0
ENDTAB
0
TABLE
2
STYLE
5
3
100
AcDbSymbolTable
70
1
0
STYLE
5
11
100
AcDbSymbolTableRecord
100
AcDbTextStyleTableRecord
2
STANDARD
70
0
0
ENDTAB
0
TABLE
2
VIEW
5
6
100
AcDbSymbolTable
70
0
0
ENDTAB
0
TABLE
2
UCS
5
7
100
AcDbSymbolTable
70
0
0
ENDTAB
0
TABLE
2
APPID
5
9
100
AcDbSymbolTable
70
2
0
APPID
5
12
100
AcDbSymbolTableRecord
100
AcDbRegAppTableRecord
2
ACAD
70
0
0
ENDTAB
0
TABLE
2
DIMSTYLE
5
A
100
AcDbSymbolTable
70
1
0
ENDTAB
0
TABLE
2
BLOCK_RECORD
5
1
100
AcDbSymbolTable
70
1
0
BLOCK_RECORD
5
1F
100
AcDbSymbolTableRecord
100
AcDbBlockTableRecord
2
*MODEL_SPACE
0
BLOCK_RECORD
5
1B
100
AcDbSymbolTableRecord
100
AcDbBlockTableRecord
2
*PAPER_SPACE
0
ENDTAB
0
ENDSEC
0
SECTION
2
BLOCKS
0
BLOCK
5
20
100
AcDbEntity
100
AcDbBlockBegin
2
*MODEL_SPACE
0
ENDBLK
5
21
100
AcDbEntity
100
AcDbBlockEnd
0
BLOCK
5
1C
100
AcDbEntity
100
AcDbBlockBegin
2
*PAPER_SPACE
0
ENDBLK
5
1D
100
AcDbEntity
100
AcDbBlockEnd
0
ENDSEC
0
SECTION
2
ENTITIES
0
LWPOLYLINE
5
100
100
AcDbEntity
8
OUTER_PROFILES
100
AcDbPolyline
90
24
70
1
43
0.0
10
34.052851130906383
20
15.422659202431316
42
0.41421356237309287
10
33.671851130906383
20
15.803659202431312
10
28.235775040954909
20
15.80365920243136
10
28.235775040954909
20
15.991060777234509
10
28.692526487539503
20
15.991060777234482
42
0.16654892612961064
10
28.264939149742609
20
16.864319374211171
10
20.512149154760763
20
24.617109369193027
42
-0.19891236737965801
10
20.365702545354036
20
24.9706627597863
10
20.365702545354033
20
25.991210200195898
42
0.41421356237309176
10
19.865702545354036
20
26.491210200195891
10
-3.5841553590130477e-15
20
26.491210200195891
42
0.4142135623730947
10
-0.75000000000000289
20
25.741210200195891
10
-0.75
20
0.74999999999996814
42
0.41421356237308243
10
0
20
4.3709567898628207e-16
10
25.374822262826868
20
-3.3568948146146463e-14
42
0.41421356237309254
10
25.874822262826864
20
0.49999999999996064
10
25.874822262826882
20
6.0473296751807553
42
-0.19891236737966561
10
26.021268872233595
20
6.4008830657740337
10
28.264939149742602
20
8.6445533432830679
42
0.16654892612960503
10
28.692526487539499
20
9.5178119402597225
10
28.235775040954909
20
9.5178119402597492
10
28.235775040954909
20
9.7052135150628995
10
33.671851130906383
20
9.7052135150628498
42
0.41421356237309503
10
34.052851130906376
20
10.086213515062852
0
LWPOLYLINE
5
101
100
AcDbEntity
8
INTERIOR_PROFILES
100
AcDbPolyline
90
32
70
1
43
0.0
10
17.983100159302765
20
12.202977264081051
10
17.983100159302776
20
14.294578048196083
42
-0.4142135623730992
10
18.17995055300354
20
14.491428441896851
10
18.531590813963255
20
14.491428441896842
42
-0.41421356237286089
10
18.563086876955381
20
14.459932378904714
10
18.563086876955381
20
13.942937694687002
42
0.41421356237309503
10
18.594582939947507
20
13.911441631694871
10
20.27155124456921
20
13.911441631694871
42
0.41421356237288692
10
20.303047307561339
20
13.942937694686981
10
20.303047307561329
20
14.459932378904728
42
-0.41421356237309503
10
20.334543370553458
20
14.49142844189686
10
20.686183724062527
20
14.491428441896874
42
-0.41421356237314499
10
20.883034117763319
20
14.294578048196055
10
20.883034117763337
20
13.362950884484992
42
-0.41421356237309503
10
20.851538054771193
20
13.33145482149285
10
18.594582939947518
20
13.331454821492864
42
0.41421356237319906
10
18.563086876955389
20
13.299958758500722
10
18.563086876955392
20
12.78296407428301
42
0.41421356237312101
10
18.594582939947522
20
12.751468011290886
10
20.851538054771179
20
12.751468011290871
42
-0.41421356237309503
10
20.883034117763305
20
12.719971948298745
10
20.883034117763305
20
11.208357974385732
42
-0.41421356237304924
10
20.686183724062527
20
11.011507580684986
10
18.179950553003536
20
11.011507580684976
42
-0.41421356237309087
10
17.983100159302751
20
11.208357974385761
10
17.983100159302754
20
11.559998327894828
42
-0.41421356237309503
10
18.014596222294877
20
11.591494390886949
10
20.271551244569199
20
11.591494390886933
42
0.41421356237321211
10
20.303047307561329
20
11.622990453879076
10
20.303047307561322
20
12.139985138096787
42
0.41421356237309503
10
20.271551244569199
20
12.171481201088918
10
18.014596222294891
20
12.17148120108895
42
-0.41421356237287393
0
LWPOLYLINE
5
102
100
AcDbEntity
8
INTERIOR_PROFILES
100
AcDbPolyline
90
6
70
1
43
0.0
10
12.233724946488925
20
11.011507580684974
10
12.123945638144175
20
11.011507580684961
10
12.123945638144175
20
14.49115257175988
10
12.233724946488927
20
14.491152571759907
42
-0.41421356237303009
10
12.37238636381176
20
14.35249115443707
10
12.372386363811767
20
11.150168998007814
42
-0.41421356237310392
0
LWPOLYLINE
5
103
100
AcDbEntity
8
INTERIOR_PROFILES
100
AcDbPolyline
90
12
70
1
43
0.0
10
16.801681920922757
20
11.011507580684935
10
15.971455627025048
20
11.011507580684935
10
15.971455627025049
20
11.591480994258344
10
16.637678728426199
20
11.591480994258342
42
0.41421356237309803
10
16.776335468785135
20
11.73013773461728
10
16.776335468785142
20
13.7727982879645
42
0.41421356237309503
10
16.637678728426199
20
13.911455028323445
10
15.971455627025048
20
13.911455028323459
10
15.971455627025048
20
14.491428441896845
10
16.801681920922757
20
14.491428441896851
42
-0.41421356237308909
10
17.356308882358537
20
13.936801480461094
10
17.356308882358526
20
11.566134542120734
42
-0.4142135623731113
0
LWPOLYLINE
5
104
100
AcDbEntity
8
INTERIOR_PROFILES
100
AcDbPolyline
90
13
70
1
43
0.0
10
12.608606836252706
20
11.150164321043894
42
0.41421356237309209
10
12.747263576611651
20
11.011507580684951
10
13.039045432822075
20
11.011507580684963
10
13.092195448580739
20
11.166109482159603
42
-0.24620758484911803
10
13.450960622394504
20
11.504957487160137
10
13.855910148294335
20
11.618795226741248
10
13.855910148294335
20
11.896108707459133
42
0.41421356237304774
10
13.717253407935392
20
12.034765447818049
10
13.182767557461126
20
12.034765447818081
10
13.182767557461132
20
14.352771701537948
42
0.41421356237308909
10
13.04411081710221
20
14.491428441896867
10
12.747263576611655
20
14.491428441896845
42
0.41421356237310092
10
12.608606836252715
20
14.352771701537909
0
LWPOLYLINE
5
105
100
AcDbEntity
8
INTERIOR_PROFILES
100
AcDbPolyline
90
12
70
1
43
0.0
10
15.860530234737892
20
13.911455028323456
10
15.194307133336743
20
13.911455028323459
42
0.41421356237310092
10
15.055650392977784
20
13.772798287964498
10
15.055650392977798
20
11.73013773461728
42
0.41421356237310392
10
15.194307133336748
20
11.591480994258339
10
15.860530234737896
20
11.591480994258342
10
15.860530234737892
20
11.011507580684933
10
15.030303940840183
20
11.011507580684922
42
-0.41421356237309581
10
14.475676979404406
20
11.566134542120706
10
14.475676979404417
20
13.936801480461069
42
-0.41421356237309209
10
15.030303940840184
20
14.491428441896831
10
15.860530234737892
20
14.491428441896842
0
LWPOLYLINE
5
106
100
AcDbEntity
8
INTERIOR_PROFILES
100
AcDbPolyline
90
6
70
1
43
0.0
10
21.257837267369613
20
14.491152571759903
10
21.367695315871849
20
14.491152571759907
10
21.367695315871849
20
11.011507580684974
10
21.257837267369613
20
11.011507580684953
42
-0.41421356237309209
10
21.11925459020426
20
11.150090257850305
10
21.119254590204253
20
14.352569894594522
42
-0.4142135623731128
0
LINE
5
107
100
AcDbEntity
8
BEND
100
AcDbLine
10
31.215708092670457
20
15.803659202431307
30
2.6361417505215038e-14
11
31.215708092670457
21
9.705213515062848
31
2.6361417505215009e-14
0
LINE
5
108
100
AcDbEntity
8
BEND
100
AcDbLine
10
28.54142201619867
20
15.803659202431326
30
2.6444994890445427e-15
11
28.54142201619867
21
9.7052135150628676
31
5.4419118345567704e-15
0
LINE
5
109
100
AcDbEntity
8
BEND_EXTENT
100
AcDbLine
10
31.427654280512677
20
15.803659202431323
30
3.5565817000861293e-14
11
31.427654280512677
21
9.705213515062864
31
3.55658170008613e-14
0
LINE
5
110
100
AcDbEntity
8
BEND_EXTENT
100
AcDbLine
10
31.003761904828245
20
9.705213515062848
30
2.7979385254626713e-14
11
31.003761904828245
21
15.803659202431307
31
2.5181972909114509e-14
0
LINE
5
111
100
AcDbEntity
8
BEND_EXTENT
100
AcDbLine
10
28.753368204040854
20
15.803659202431321
30
2.4524469301062907e-15
11
28.753368204040854
21
9.7052135150628498
31
2.4524469301062907e-15
0
LINE
5
112
100
AcDbEntity
8
BEND_EXTENT
100
AcDbLine
10
28.329475828356482
20
9.7052135150628676
30
4.6083987489621424e-16
11
28.329475828356482
21
15.803659202431326
31
4.6083987489621424e-16
0
ENDSEC
0
SECTION
2
OBJECTS
0
DICTIONARY
5
C
100
AcDbDictionary
3
ACAD_GROUP
350
D
3
ACAD_MLINESTYLE
350
17
0
DICTIONARY
5
D
100
AcDbDictionary
0
DICTIONARY
5
1A
330
C
100
AcDbDictionary
0
DICTIONARY
5
17
100
AcDbDictionary
0
ENDSEC
0
EOF
