0
SECTION
2
HEADER
9
$INSUNITS
70
1
9
$ACADVER
1
AC1014
9
$HANDSEED
5
FFFF
0
ENDSEC
0
SECTION
2
TABLES
0
TABLE
2
VPORT
5
8
100
AcDbSymbolTable
0
ENDTAB
0
TABLE
2
LTYPE
5
5
100
AcDbSymbolTable
0
LTYPE
5
14
100
AcDbSymbolTableRecord
100
AcDbLinetypeTableRecord
2
BYBLOCK
70
0
0
LTYPE
5
15
100
AcDbSymbolTableRecord
100
AcDbLinetypeTableRecord
2
BYLAYER
70
0
0
ENDTAB
0
TABLE
2
LAYER
5
2
100
AcDbSymbolTable
70
2
0
LAYER
5
50
100
AcDbSymbolTableRecord
100
AcDbLayerTableRecord
2
0
70
0
6
CONTINUOUS
0
ENDTAB
0
TABLE
2
STYLE
5
3
100
AcDbSymbolTable
70
1
0
STYLE
5
11
100
AcDbSymbolTableRecord
100
AcDbTextStyleTableRecord
2
STANDARD
70
0
0
ENDTAB
0
TABLE
2
VIEW
5
6
100
AcDbSymbolTable
70
0
0
ENDTAB
0
TABLE
2
UCS
5
7
100
AcDbSymbolTable
70
0
0
ENDTAB
0
TABLE
2
APPID
5
9
100
AcDbSymbolTable
70
2
0
APPID
5
12
100
AcDbSymbolTableRecord
100
AcDbRegAppTableRecord
2
ACAD
70
0
0
ENDTAB
0
TABLE
2
DIMSTYLE
5
A
100
AcDbSymbolTable
70
1
0
ENDTAB
0
TABLE
2
BLOCK_RECORD
5
1
100
AcDbSymbolTable
70
1
0
BLOCK_RECORD
5
1F
100
AcDbSymbolTableRecord
100
AcDbBlockTableRecord
2
*MODEL_SPACE
0
BLOCK_RECORD
5
1B
100
AcDbSymbolTableRecord
100
AcDbBlockTableRecord
2
*PAPER_SPACE
0
ENDTAB
0
ENDSEC
0
SECTION
2
BLOCKS
0
BLOCK
5
20
100
AcDbEntity
100
AcDbBlockBegin
2
*MODEL_SPACE
0
ENDBLK
5
21
100
AcDbEntity
100
AcDbBlockEnd
0
BLOCK
5
1C
100
AcDbEntity
100
AcDbBlockBegin
2
*PAPER_SPACE
0
ENDBLK
5
1D
100
AcDbEntity
100
AcDbBlockEnd
0
ENDSEC
0
SECTION
2
ENTITIES
0
LWPOLYLINE
5
100
100
AcDbEntity
8
OUTER_PROFILES
100
AcDbPolyline
90
96
70
1
43
0.0
10
24.062381497897206
20
3.967065735214288
42
0.41421356237309914
10
23.812381497897206
20
4.2170657352142884
10
22.339006195347036
20
4.2170657352142848
42
-0.99999999999999989
10
22.339006195347036
20
4.4044673100174343
10
22.818368207281864
20
4.4044673100174343
10
23.097692821436514
20
4.6837919241720858
42
0.19891236737965859
10
23.244139430843241
20
5.0373453147653597
10
23.244139430843241
20
8.3302385335788056
42
0.41421356237309503
10
21.744139430843241
20
9.8302385335788074
10
18.451246212029794
20
9.8302385335788074
42
0.19891236737966009
10
18.097692821436517
20
9.6837919241720787
10
17.772387988716027
20
9.3584870914515896
42
-0.19891236737966053
10
17.630966632478717
20
9.2999084476888996
10
8.3220256943601481
20
9.2999084476888871
42
-0.19891236737965465
10
8.1806043381228406
20
9.3584870914515754
10
7.5017461148090145
20
10.037345314765366
42
0.19891236737965143
10
7.1481927242157512
20
10.183791924172082
10
3.5768071162129882
20
10.183791924172086
42
0.19891236737965118
10
3.223253725619724
20
10.037345314765368
10
2.5903757208717439
20
9.4044673100174183
10
2.5903757208717431
20
8.92510529808259
42
-0.99999999999999989
10
2.4029741460685936
20
8.92510529808259
10
2.4029741460684502
20
10.398480600632364
42
0.41421356237309503
10
2.1529741460684497
20
10.648480600632364
10
-6.6559667920501582
20
10.64848060063237
42
0.41421356237309503
10
-6.9059667920501573
20
10.39848060063237
10
-6.9059667920499779
20
8.9251052980826007
42
-0.99999999999999989
10
-7.0933683668531273
20
8.9251052980826007
10
-7.0933683668531273
20
9.404467310017429
10
-7.3726929810077744
20
9.6837919241720805
42
0.19891236737965962
10
-7.7262463716010501
20
9.8302385335788092
10
-11.019139590414506
20
9.8302385335788074
42
0.41421356237309503
10
-12.519139590414506
20
8.3302385335788056
10
-12.519139590414504
20
5.0373453147653606
42
0.19891236737965834
10
-12.372692981007777
20
4.683791924172084
10
-12.04738814828729
20
4.3584870914515959
42
-0.1989123673796625
10
-11.988809504524598
20
4.2170657352142848
10
-11.988809504524598
20
-0.45467883983646967
42
-0.19891236737965293
10
-12.047388148287284
20
-0.59610019607377551
10
-12.72624637160105
20
-1.2749584193875556
42
0.19891236737965881
10
-12.872692981007779
20
-1.6285118099808316
10
-12.872692981007784
20
-5.2142904397856862
42
0.19891236737965556
10
-12.726246371601059
20
-5.5678438303789619
10
-12.09336836685314
20
-6.2007218351268873
10
-11.614006354918299
20
-6.2007218351268873
42
-0.99999999999999989
10
-11.614006354918299
20
-6.3881234099300368
10
-13.087381657468043
20
-6.3881234099300563
42
0.41421356237309837
10
-13.337381657468045
20
-6.6381234099300555
10
-13.337381657468049
20
-10.809867984980805
42
0.41421356237309664
10
-13.087381657468049
20
-11.059867984980807
10
-11.614006354918299
20
-11.059867984980803
42
-0.99999999999999989
10
-11.614006354918299
20
-11.247269559783952
10
-12.093368366853127
20
-11.247269559783952
10
-12.372692981007784
20
-11.526594173938594
42
0.19891236737965384
10
-12.519139590414506
20
-11.880147564531866
10
-12.519139590414506
20
-15.173040783345323
42
0.41421356237309503
10
-11.019139590414506
20
-16.673040783345325
10
-7.7262463716010537
20
-16.673040783345325
42
0.19891236737965812
10
-7.372692981007777
20
-16.526594173938598
10
-7.0473881482873066
20
-16.201289341218107
42
-0.19891236737965026
10
-6.905966792050001
20
-16.142710697455421
10
2.4029741460685994
20
-16.142710697455421
42
-0.19891236737965118
10
2.5443955023059059
20
-16.201289341218107
10
3.2232537256197129
20
-16.880147564531875
42
0.19891236737965465
10
3.5768071162129829
20
-17.026594173938598
10
7.1481927242157504
20
-17.026594173938594
42
0.19891236737965107
10
7.5017461148090145
20
-16.880147564531882
10
8.1346241195569906
20
-16.247269559783934
10
8.1346241195569906
20
-15.767907547849108
42
-0.99999999999999989
10
8.3220256943601409
20
-15.767907547849108
10
8.322025694360045
20
-17.241282850398825
42
0.41421356237309503
10
8.5720256943600415
20
-17.491282850398822
10
17.380966632478486
20
-17.491282850398846
42
0.41421356237309503
10
17.630966632478486
20
-17.241282850398846
10
17.630966632478724
20
-15.767907547849108
42
-0.99999999999999989
10
17.818368207281875
20
-15.767907547849108
10
17.818368207281875
20
-16.247269559783948
10
18.097692821436517
20
-16.526594173938594
42
0.19891236737965753
10
18.45124621202979
20
-16.673040783345321
10
21.744139430843241
20
-16.673040783345325
42
0.41421356237309503
10
23.244139430843241
20
-15.173040783345323
10
23.244139430843248
20
-11.880147564531876
42
0.19891236737965801
10
23.097692821436517
20
-11.526594173938602
10
22.772387988716027
20
-11.201289341218127
42
-0.19891236737965926
10
22.713809344953333
20
-11.059867984980814
10
22.713809344953333
20
-6.3881234099300475
42
-0.19891236737965293
10
22.772387988716019
20
-6.2467020536927418
10
23.45124621202979
20
-5.567843830378961
42
0.19891236737965651
10
23.597692821436517
20
-5.2142904397856862
10
23.597692821436521
20
-1.6285118099808298
42
0.19891236737965742
10
23.451246212029794
20
-1.2749584193875552
10
22.818368207281875
20
-0.64208041463963017
10
22.339006195347036
20
-0.64208041463963017
42
-0.99999999999999989
10
22.339006195347036
20
-0.45467883983648094
10
23.812381497897249
20
-0.45467883983646135
42
0.41421356237309587
10
24.062381497897245
20
-0.20467883983646146
0
LWPOLYLINE
5
101
100
AcDbEntity
8
INTERIOR_PROFILES
100
AcDbPolyline
90
16
70
1
43
0.0
10
1.9841843888335386
20
-5.1635915529747809
42
-0.70020753820996762
10
2.0398078358609011
20
-5.143346273929537
10
2.8345160623179306
20
-6.0904426578738571
10
3.0148310229478175
20
-6.0904426578738571
42
0.41421356237309503
10
3.1723113379084498
20
-5.9329623429132248
10
3.1723113379084573
20
-4.7278442326770129
42
0.41421356237309764
10
3.0148310229478232
20
-4.5703639177163806
10
2.8345160623179027
20
-4.5703639177163806
10
2.8345160623179013
20
-5.4972150226154461
42
-0.70020753820959625
10
2.7788926152905331
20
-5.5174603016606785
10
1.9841843888335338
20
-4.5703639177163806
10
1.8038694282036123
20
-4.5703639177163806
42
0.41421356237309503
10
1.6463891132429802
20
-4.7278442326770129
10
1.6463891132429822
20
-5.9329623429132363
42
0.41421356237309243
10
1.803869428203611
20
-6.090442657873866
10
1.9841843888335338
20
-6.0904426578738571
0
LWPOLYLINE
5
102
100
AcDbEntity
8
INTERIOR_PROFILES
100
AcDbPolyline
90
12
70
1
43
0.0
10
8.9572834645669293
20
-0.84583428807753203
10
8.9572834645669293
20
-1.52142483925866
10
8.2194881889763742
20
-1.52142483925866
42
0.41421356237307838
10
8.0226377952755854
20
-1.7182752329594362
10
8.0226377952755854
20
-3.3513460991011668
42
0.41421356237307838
10
8.2194881889763742
20
-3.5481964928019423
10
8.9572834645669275
20
-3.5481964928019427
10
8.9572834645669275
20
-4.2237870439830596
10
8.1344488188976385
20
-4.2237870439830623
42
-0.41421356237310231
10
7.3470472440944894
20
-3.4363854691799101
10
7.3470472440944921
20
-1.6332358628806811
42
-0.4142135623731022
10
8.1344488188976385
20
-0.84583428807753203
0
LWPOLYLINE
5
103
100
AcDbEntity
8
INTERIOR_PROFILES
100
AcDbPolyline
90
14
70
1
43
0.0
10
0
20
-1.6025171281892261
10
6.9935308637805131e-15
20
-1.3542887817325395
42
-0.41421356237309426
10
0.51181102362204611
20
-0.84247775811049908
10
2.5283464566929137
20
-0.84247775811049241
42
-0.41421356237309503
10
3.0401574803149609
20
-1.3542887817325395
10
3.040157480314988
20
-3.7086194903939518
42
-0.4142135623730957
10
2.5283464566929132
20
-4.2204305140160265
10
0.51181102362204756
20
-4.2204305140159999
42
-0.41421356237309509
10
0
20
-3.7086194903939527
10
0
20
-3.460391143937255
10
2.2486220472440954
20
-3.4603911439372661
42
0.41421356237309503
10
2.2801181102362373
20
-3.4288950809451242
10
2.2801181102362214
20
-1.6340131911813569
42
0.41421356237286089
10
2.248622047244095
20
-1.6025171281892261
0
LWPOLYLINE
5
104
100
AcDbEntity
8
INTERIOR_PROFILES
100
AcDbPolyline
90
6
70
1
43
0.0
10
10.725
20
0
10
10.725
20
-0.22539370078740917
42
-0.41421356237309709
10
10.528149606299211
20
-0.42224409448819655
10
0.19685039370078813
20
-0.42224409448819378
42
-0.41421356237310025
10
0
20
-0.2253937007874092
10
0
20
0
0
LWPOLYLINE
5
105
100
AcDbEntity
8
INTERIOR_PROFILES
100
AcDbPolyline
90
6
70
1
43
0.0
10
8.1379934414288897
20
-4.7135536883737581
42
0.72046860982864391
10
7.9489910423712278
20
-4.7135536883737563
10
7.7919431952977867
20
-5.1840971129546629
42
0.51203900383889756
10
7.9039781069408281
20
-5.3395999483518635
10
8.1830063768592787
20
-5.3395999483518626
42
0.51203900383886947
10
8.2950412885023237
20
-5.1840971129546523
0
LWPOLYLINE
5
106
100
AcDbEntity
8
INTERIOR_PROFILES
100
AcDbPolyline
90
12
70
1
43
0.0
10
9.1147637795275571
20
-4.2237870439830596
10
9.1147637795275571
20
-3.5481964928019427
10
9.8525590551181104
20
-3.5481964928019427
42
0.41421356237307838
10
10.049409448818897
20
-3.3513460991011668
10
10.049409448818899
20
-1.7182752329594473
42
0.4142135623730992
10
9.8525590551181104
20
-1.52142483925866
10
9.1147637795275571
20
-1.52142483925866
10
9.1147637795275571
20
-0.84583428807754324
10
9.9375984251968497
20
-0.84583428807752925
42
-0.41421356237310231
10
10.725
20
-1.6332358628806816
10
10.724999999999998
20
-3.4363854691799101
42
-0.41421356237310231
10
9.9375984251968497
20
-4.2237870439830596
0
LWPOLYLINE
5
107
100
AcDbEntity
8
INTERIOR_PROFILES
100
AcDbPolyline
90
14
70
1
43
0.0
10
5.6805205014305526
20
-4.9081591933069335
10
5.6805205198708766
20
-4.8065843901573233
42
-0.41421356237309503
10
5.9167409923118193
20
-4.5703639177163806
10
6.6535316037927705
20
-4.5703639177163806
42
-0.41421356237309814
10
7.0472323911943491
20
-4.9640647051179556
10
7.0472323911943491
20
-5.6967418704722821
42
-0.41421356237309764
10
6.6535316037927714
20
-6.0904426578738571
10
5.9167409923118104
20
-6.0904426578738553
42
-0.41421358523750529
10
5.6805205014305589
20
-5.8542221854329144
10
5.6805205014305589
20
-5.7526473822832935
10
6.6779410526116685
20
-5.7526473822832935
42
0.41421356237309503
10
6.7094371156037997
20
-5.7211513192911623
10
6.7094371156037909
20
-4.9396552562990648
42
0.41421356237280887
10
6.6779410526116685
20
-4.9081591933069335
0
LWPOLYLINE
5
108
100
AcDbEntity
8
INTERIOR_PROFILES
100
AcDbPolyline
90
14
70
1
43
0.0
10
1.0408773022193687
20
-4.9081591933069291
42
-0.41421356237280238
10
1.0723733652114946
20
-4.9396552562990648
10
1.0723733652115106
20
-5.7211513192911623
42
-0.41421356237310153
10
1.0408773022193678
20
-5.7526473822833042
10
0
20
-5.7526473822832935
10
0
20
-5.9329623429132363
42
0.41421356237309642
10
0.15748031496063075
20
-6.090442657873866
10
1.2526883258414068
20
-6.0904426578738686
42
0.41421356237309503
10
1.4101686408020391
20
-5.9329623429132363
10
1.4101686408020375
20
-4.7278442326770245
42
0.41421356237311585
10
1.2526883258414068
20
-4.5703639177163824
10
0.15748031496063775
20
-4.5703639177163806
42
0.41421356237311585
10
5.5948246910244104e-15
20
-4.7278442326770245
10
0
20
-4.9081591933069335
0
LWPOLYLINE
5
109
100
AcDbEntity
8
INTERIOR_PROFILES
100
AcDbPolyline
90
6
70
1
43
0.0
10
3.7463079214456911
20
-6.0904426578738571
10
3.5659929608157706
20
-6.0904426578738571
42
-0.41421356237309503
10
3.4085126458551405
20
-5.9329623429132248
10
3.4085126458551396
20
-4.5703639177163806
10
3.5888276064850548
20
-4.5703639177163833
42
-0.41421356237311585
10
3.7463079214456845
20
-4.7278442326770245
0
LWPOLYLINE
5
110
100
AcDbEntity
8
INTERIOR_PROFILES
100
AcDbPolyline
90
14
70
1
43
0.0
10
7.4409331785959196
20
-4.5703639177163806
42
0.41421356237309503
10
7.2834528636352873
20
-4.7278442326770129
10
7.2834528636352793
20
-5.6967418704722821
42
0.41421356237309814
10
7.6771536510368588
20
-6.0904426578738571
10
8.4098308163911906
20
-6.0904426578738571
42
0.41421356237309659
10
8.8035316037927682
20
-5.696741870472283
10
8.8035316037927647
20
-4.7278442326770129
42
0.41421356237309503
10
8.6460512888321333
20
-4.5703639177163806
10
8.4657363282022118
20
-4.5703639177163806
10
8.46573632820221
20
-5.634537146062816
42
-0.4142135623730257
10
8.3476260919817378
20
-5.7526473822832935
10
7.739358375446308
20
-5.7526473822832891
42
-0.41421356237309503
10
7.6212481392258349
20
-5.634537146062816
10
7.6212481392258331
20
-4.5703639177163806
0
LWPOLYLINE
5
111
100
AcDbEntity
8
INTERIOR_PROFILES
100
AcDbPolyline
90
16
70
1
43
0.0
10
6.1145831278503895
20
-4.2237870439830596
10
4.3278212823282791
20
-2.0944071954718386
42
0.70020753820972859
10
4.2721978353009105
20
-2.114652474517082
10
4.2721978353009096
20
-4.2237870439830596
10
4.0239694888442159
20
-4.2237870439830552
42
-0.41421356237309503
10
3.5121584652221691
20
-3.7119760203610079
10
3.5121584652221642
20
-1.3576453116995837
42
-0.41421356237309503
10
4.0239694888442159
20
-0.84583428807753203
10
4.2721978353009096
20
-0.84583428807753203
10
6.0589596808230199
20
-2.9752141365887641
42
0.70020753820996551
10
6.1145831278503815
20
-2.9549688575435207
10
6.1145831278503895
20
-0.84583428807753203
10
6.3628114743070814
20
-0.84583428807753203
42
-0.41421356237309348
10
6.8746224979291304
20
-1.3576453116995837
10
6.8746224979291348
20
-3.7119760203610079
42
-0.41421356237309503
10
6.3628114743070832
20
-4.2237870439830596
0
LWPOLYLINE
5
112
100
AcDbEntity
8
INTERIOR_PROFILES
100
AcDbPolyline
90
5
70
1
43
0.0
10
1.6425441488677575
20
-2.8653643758043428
10
0.70653028167539733
20
-2.8653643758043428
42
-0.41421356237309265
10
0.19471925805334986
20
-2.3535533521822911
10
0.19471925805334986
20
-2.1975438963221494
10
1.6425441488677575
20
-2.1975438963221494
0
LWPOLYLINE
5
113
100
AcDbEntity
8
INTERIOR_PROFILES
100
AcDbPolyline
90
6
70
1
43
0.0
10
0.19685039370078738
20
-6.3369401027477608
10
10.528149606299209
20
-6.3369401027477608
42
-0.41421356237310336
10
10.725
20
-6.5337904964485478
10
10.725
20
-6.7591841972359461
10
0
20
-6.7591841972359461
10
-1.3987061727561026e-15
20
-6.5337904964485478
42
-0.41421356237309709
0
LWPOLYLINE
5
114
100
AcDbEntity
8
INTERIOR_PROFILES
100
AcDbPolyline
90
22
70
1
43
0.0
10
10.377764195749174
20
-6.0791918739269919
10
9.9065034221520953
20
-5.5175651539439565
42
0.46630765815504965
10
9.858248654081617
20
-5.5175651539439441
10
9.3869878804845417
20
-6.0791918739269697
42
-0.22169466264250012
10
9.3628604964492972
20
-6.0904426578738571
10
9.1972323911943423
20
-6.0904426578738553
42
-0.41421356237311585
10
9.0397520762337127
20
-5.9329623429132141
10
9.0397520762337109
20
-4.7278442326770245
42
-0.41421356237311585
10
9.1972323911943423
20
-4.5703639177163806
10
9.3775474480907448
20
-4.5703639177163806
10
9.3775473600897499
20
-5.4916815455073316
42
0.70020757379656373
10
9.4331708071171203
20
-5.511926827560969
10
9.8582486540816117
20
-5.0053387763088217
42
-0.46630765815548636
10
9.9065034221520936
20
-5.0053387763088226
10
10.331581269116588
20
-5.5119268275609796
42
0.70020757379669618
10
10.387204716143959
20
-5.4916815455073316
10
10.38720462814296
20
-4.5703639177163806
10
10.56751968503937
20
-4.5703639177163833
42
-0.41421356237309764
10
10.725
20
-4.7278442326770129
10
10.725
20
-5.9329623429132363
42
-0.41421356237309503
10
10.567519685039368
20
-6.0904426578738686
10
10.401891579784417
20
-6.0904426578738686
42
-0.22169466264287391
0
LWPOLYLINE
5
115
100
AcDbEntity
8
INTERIOR_PROFILES
100
AcDbPolyline
90
5
70
1
43
0.0
10
0.086823103143978481
20
-5.3257974856804378
42
0.41421356237309764
10
0.24430341810461204
20
-5.4832778006410701
10
0.78653399101842458
20
-5.4832778006410701
10
0.78653399101842458
20
-5.1877069300949756
10
0.086823103143981978
20
-5.1877069300949756
0
LWPOLYLINE
5
116
100
AcDbEntity
8
INTERIOR_PROFILES
100
AcDbPolyline
90
16
70
1
43
0.0
10
5.4443000289896188
20
-4.7278442326770129
42
0.41421352807648421
10
5.2868197324692989
20
-4.5703639177163859
10
5.1065047718393783
20
-4.5703639177163806
10
5.1065047718393783
20
-5.1615056499998202
10
4.3203236694771743
20
-5.1615056499998202
10
4.3203236694771743
20
-4.5703639177163806
10
4.140008708847259
20
-4.5703639177163806
42
0.41421356237309503
10
3.9825283938866272
20
-4.7278442326770129
10
3.9825283938866294
20
-5.9329623429132363
42
0.41421356237309503
10
4.140008708847259
20
-6.090442657873866
10
4.3203236694771743
20
-6.0904426578738571
10
4.3203236694771743
20
-5.4993009255904175
10
5.1065047718393792
20
-5.4993009255904175
10
5.1065047718393792
20
-6.0904426578738571
10
5.2868197324692936
20
-6.0904426578738571
42
0.41421356237307422
10
5.4443000474299259
20
-5.9329623429132363
0
LINE
5
117
100
AcDbEntity
8
BEND
100
AcDbLine
10
-12.500238619232103
20
-6.388123409930059
30
2.476706451686285e-13
11
-12.500238619232103
21
-11.059867984980803
31
2.4567924770318878e-13
0
LINE
5
118
100
AcDbEntity
8
BEND
100
AcDbLine
10
8.3220256943600432
20
-16.654139812162871
30
1.27370157800758e-13
11
17.630966632478483
21
-16.654139812162896
31
3.6878794238794298e-14
0
LINE
5
119
100
AcDbEntity
8
BEND
100
AcDbLine
10
23.225238459660851
20
-0.45467883983645857
30
3.9744803707121444e-14
11
23.225238459660851
21
4.2170657352142848
31
4.3784180547157233e-14
0
LINE
5
120
100
AcDbEntity
8
BEND
100
AcDbLine
10
2.4029741460684471
20
9.8113375623964298
30
1.4619535535302985e-13
11
-6.90596679205016
21
9.8113375623964405
31
1.8353802075072093e-13
0
LINE
5
121
100
AcDbEntity
8
BEND
100
AcDbLine
10
17.630966632478714
20
-15.979853735691266
30
3.2572564313652421e-14
11
8.3220256943601285
21
-15.97985373569125
31
1.2208975937004191e-13
0
LINE
5
122
100
AcDbEntity
8
BEND
100
AcDbLine
10
-11.825952542760476
20
-11.059867984980803
30
1.980480521486844e-13
11
-11.825952542760476
21
-6.3881234099300368
31
1.980480521486844e-13
0
LINE
5
123
100
AcDbEntity
8
BEND
100
AcDbLine
10
22.550952383189205
20
4.2170657352142848
30
2.2728975307286668e-15
11
22.550952383189205
21
-0.45467883983648094
31
2.2728975307286668e-15
0
LINE
5
124
100
AcDbEntity
8
BEND
100
AcDbLine
10
-6.9059667920499921
20
9.1370514859247809
30
1.6452281357043656e-13
11
2.402974146068583
21
9.1370514859247685
31
1.1416939135121688e-13
0
LINE
5
125
100
AcDbEntity
8
BEND_EXTENT
100
AcDbLine
10
23.437184647503027
20
4.2170657352142848
30
2.7974123455122052e-14
11
23.437184647503027
21
-0.45467883983645857
31
2.5176711109609849e-14
0
LINE
5
126
100
AcDbEntity
8
BEND_EXTENT
100
AcDbLine
10
23.013292271818678
20
-0.45467883983648094
30
1.1189649382048821e-14
11
23.013292271818678
21
4.2170657352142848
31
1.1189649382048821e-14
0
LINE
5
127
100
AcDbEntity
8
BEND_EXTENT
100
AcDbLine
10
-12.712184807074285
20
-11.059867984980803
30
2.3778004936853742e-13
11
-12.712184807074285
21
-6.388123409930059
31
2.3778004936853742e-13
0
LINE
5
128
100
AcDbEntity
8
BEND_EXTENT
100
AcDbLine
10
-12.288292431389936
20
-6.3881234099300368
30
2.0700851356790319e-13
11
-12.288292431389936
21
-11.059867984980803
31
2.0700851356790319e-13
0
LINE
5
129
100
AcDbEntity
8
BEND_EXTENT
100
AcDbLine
10
17.630966632478486
20
-16.866086000005069
30
1.9581886418585435e-14
11
8.3220256943600432
21
-16.866086000005033
31
1.2028873085702482e-13
0
LINE
5
130
100
AcDbEntity
8
BEND_EXTENT
100
AcDbLine
10
8.3220256943600148
20
-16.442193624320716
30
1.2308614320253702e-13
11
17.630966632478597
21
-16.442193624320744
31
4.4758597528195284e-14
0
LINE
5
131
100
AcDbEntity
8
BEND_EXTENT
100
AcDbLine
10
-6.9059667920501573
20
10.023283750238596
30
1.6224991603970791e-13
11
2.4029741460684488
21
10.023283750238583
31
1.2308614320253702e-13
0
LINE
5
132
100
AcDbEntity
8
BEND_EXTENT
100
AcDbLine
10
2.4029741460684675
20
9.5993913745542496
30
1.1189649382048821e-13
11
-6.905966792050104
21
9.5993913745542621
31
1.5665509134868348e-13
0
LINE
5
133
100
AcDbEntity
8
BEND_EXTENT
100
AcDbLine
10
22.762898571031396
20
4.2170657352142848
30
5.5948246910244104e-15
11
22.762898571031396
21
-0.45467883983648094
31
5.5948246910244104e-15
0
LINE
5
134
100
AcDbEntity
8
BEND_EXTENT
100
AcDbLine
10
-6.9059667920499894
20
9.3489976737669789
30
1.6224991603970791e-13
11
2.4029741460685847
21
9.3489976737669682
31
1.1749131851151262e-13
0
LINE
5
135
100
AcDbEntity
8
BEND_EXTENT
100
AcDbLine
10
-12.037898730602652
20
-11.059867984980803
30
1.9861627653136656e-13
11
-12.037898730602652
21
-6.3881234099300368
31
1.9861627653136656e-13
0
LINE
5
136
100
AcDbEntity
8
BEND_EXTENT
100
AcDbLine
10
17.630966632478714
20
-16.191799923533438
30
4.4758597528195284e-14
11
8.3220256943601285
21
-16.191799923533431
31
1.3427579258458585e-13
0
LINE
5
137
100
AcDbEntity
8
BEND_EXTENT
100
AcDbLine
10
2.4029741460685936
20
8.92510529808259
30
1.1749131851151262e-13
11
-6.9059667920499779
21
8.9251052980826007
31
1.7064215307624451e-13
0
LINE
5
138
100
AcDbEntity
8
BEND_EXTENT
100
AcDbLine
10
22.339006195347036
20
-0.45467883983648094
30
2.7974123455122052e-15
11
22.339006195347036
21
4.2170657352142848
31
2.7974123455122052e-15
0
LINE
5
139
100
AcDbEntity
8
BEND_EXTENT
100
AcDbLine
10
-11.614006354918299
20
-6.3881234099300368
30
1.9861627653136656e-13
11
-11.614006354918299
21
-11.059867984980803
31
1.9861627653136656e-13
0
LINE
5
140
100
AcDbEntity
8
BEND_EXTENT
100
AcDbLine
10
8.3220256943601409
20
-15.767907547849108
30
8.3922370365366153e-14
11
17.630966632478724
21
-15.767907547849108
31
3.0771535800634256e-14
0
ENDSEC
0
SECTION
2
OBJECTS
0
DICTIONARY
5
C
100
AcDbDictionary
3
ACAD_GROUP
350
D
3
ACAD_MLINESTYLE
350
17
0
DICTIONARY
5
D
100
AcDbDictionary
0
DICTIONARY
5
1A
330
C
100
AcDbDictionary
0
DICTIONARY
5
17
100
AcDbDictionary
0
ENDSEC
0
EOF
