0
SECTION
2
HEADER
9
$INSUNITS
70
4
9
$ACADVER
1
AC1014
9
$HANDSEED
5
FFFF
0
ENDSEC
0
SECTION
2
TABLES
0
TABLE
2
VPORT
5
8
100
AcDbSymbolTable
0
ENDTAB
0
TABLE
2
LTYPE
5
5
100
AcDbSymbolTable
0
LTYPE
5
14
100
AcDbSymbolTableRecord
100
AcDbLinetypeTableRecord
2
BYBLOCK
70
0
0
LTYPE
5
15
100
AcDbSymbolTableRecord
100
AcDbLinetypeTableRecord
2
BYLAYER
70
0
0
ENDTAB
0
TABLE
2
LAYER
5
2
100
AcDbSymbolTable
70
2
0
LAYER
5
50
100
AcDbSymbolTableRecord
100
AcDbLayerTableRecord
2
0
70
0
6
CONTINUOUS
0
ENDTAB
0
TABLE
2
STYLE
5
3
100
AcDbSymbolTable
70
1
0
STYLE
5
11
100
AcDbSymbolTableRecord
100
AcDbTextStyleTableRecord
2
STANDARD
70
0
0
ENDTAB
0
TABLE
2
VIEW
5
6
100
AcDbSymbolTable
70
0
0
ENDTAB
0
TABLE
2
UCS
5
7
100
AcDbSymbolTable
70
0
0
ENDTAB
0
TABLE
2
APPID
5
9
100
AcDbSymbolTable
70
2
0
APPID
5
12
100
AcDbSymbolTableRecord
100
AcDbRegAppTableRecord
2
ACAD
70
0
0
ENDTAB
0
TABLE
2
DIMSTYLE
5
A
100
AcDbSymbolTable
70
1
0
ENDTAB
0
TABLE
2
BLOCK_RECORD
5
1
100
AcDbSymbolTable
70
1
0
BLOCK_RECORD
5
1F
100
AcDbSymbolTableRecord
100
AcDbBlockTableRecord
2
*MODEL_SPACE
0
BLOCK_RECORD
5
1B
100
AcDbSymbolTableRecord
100
AcDbBlockTableRecord
2
*PAPER_SPACE
0
ENDTAB
0
ENDSEC
0
SECTION
2
BLOCKS
0
BLOCK
5
20
100
AcDbEntity
100
AcDbBlockBegin
2
*MODEL_SPACE
0
ENDBLK
5
21
100
AcDbEntity
100
AcDbBlockEnd
0
BLOCK
5
1C
100
AcDbEntity
100
AcDbBlockBegin
2
*PAPER_SPACE
0
ENDBLK
5
1D
100
AcDbEntity
100
AcDbBlockEnd
0
ENDSEC
0
SECTION
2
ENTITIES
0
LWPOLYLINE
5
100
100
AcDbEntity
8
0
100
AcDbPolyline
90
20
70
1
43
0.0
10
-383.29482671235638
20
-835.74774428254045
10
-688.44201296997062
20
-835.74774428254045
42
-0.41421356237309503
10
-697.44201295506946
20
-826.74774429744161
10
-697.44201295506923
20
-673.3162867923653
42
-0.19891236737966378
10
-694.80597399011253
20
-666.95232577222305
10
-566.77296540112161
20
-538.91931718323224
42
0.1989123673796532
10
-547.44201295506946
20
-492.25026961438346
10
-547.44201295506923
20
-404.49747468305793
42
0.19891236737965376
10
-566.77296540112161
20
-357.82842711420938
10
-694.80597399011288
20
-229.7954185252182
42
-0.19891236737965581
10
-697.44201295506946
20
-223.43145750507603
10
-697.44201295506946
20
-70
42
-0.41421356237309503
10
-688.44201296997062
20
-61.000000014901161
10
-383.29482671235638
20
-61.000000014901104
42
-0.19891236737965845
10
-362.78873006848312
20
-69.493903356126836
10
-247.93591632609747
20
-184.34671709851258
42
-0.19891236737965892
10
-239.44201298487172
20
-204.85281374238582
10
-239.44201298487172
20
-691.89493055505579
42
-0.19891236737965706
10
-247.93591632609733
20
-712.40102719892889
10
-362.78873006848323
20
-827.25384094131471
42
-0.19891236737965812
0
LWPOLYLINE
5
101
100
AcDbEntity
8
0
100
AcDbPolyline
90
32
70
1
43
0.0
10
-450.5229283982797
20
-477.16258403807905
42
-0.4142135623731143
10
-451.60350397733481
20
-478.24315961713421
10
-469.3406995883052
20
-478.2431596171341
42
-0.41421356237309503
10
-470.42127516736002
20
-477.16258403807927
10
-470.42127516736173
20
-399.73035129507605
42
0.41421356237305651
10
-471.50185074641655
20
-398.64977571602128
10
-483.56602456734976
20
-398.64977571602185
42
0.41421356237308893
10
-490.31962193644148
20
-405.40337308511357
10
-490.31962193644074
20
-491.38790901712292
42
0.41421356237309198
10
-483.56602456734862
20
-498.14150638621499
10
-431.70515720825478
20
-498.14150638621442
42
0.41421356237309503
10
-430.62458162919967
20
-497.06093080715931
10
-430.62458162920109
20
-419.62869488894768
42
-0.41421356237309503
10
-429.54400605014627
20
-418.54811930989285
10
-411.80681043917593
20
-418.54811930989229
42
-0.4142135623732684
10
-410.7262348601202
20
-419.62869488894739
10
-410.72623486011929
20
-497.06093080715937
42
0.41421356237305651
10
-409.64565928106452
20
-498.14150638621413
10
-377.68313869105009
20
-498.14150638621402
42
0.41421356237309814
10
-370.92954132195786
20
-491.38790901712139
10
-370.92954132195757
20
-479.32373519618795
42
0.41421356237305651
10
-372.0101169010124
20
-478.24315961713307
10
-389.74731251198392
20
-478.24315961713341
42
-0.41421356237294094
10
-390.82788809103818
20
-477.16258403807853
10
-390.82788809103903
20
-419.62869488894682
42
-0.41421356237309503
10
-389.74731251198392
20
-418.54811930989172
10
-372.0101169010141
20
-418.54811930989172
42
0.41421356237297946
10
-370.92954132195899
20
-417.46754373083706
10
-370.92954132195916
20
-405.40337308511221
42
0.41421356237309198
10
-377.68313869105128
20
-398.64977571602014
10
-449.44235281922681
20
-398.64977571602168
42
0.41421356237299878
10
-450.52292839828084
20
-399.73035129507622
0
LWPOLYLINE
5
102
100
AcDbEntity
8
0
100
AcDbPolyline
90
257
70
1
43
0.0
10
-678.10661490667655
20
-572.19516444701173
10
-682.2112274487049
20
-568.09055190498327
10
-635.78350274315142
20
-521.66282719942967
10
-631.67889020112329
20
-525.76743974145825
42
0.41421356237315388
10
-630.26467663874996
20
-525.76743974145813
10
-628.49690968578352
20
-523.99967278849192
42
0.41421356237315388
10
-628.49690968578352
20
-522.5854592261187
10
-632.60152222781187
20
-518.48084668409024
10
-609.90647906403808
20
-495.78580352031634
42
0.19891236737963844
10
-608.44201296997062
20
-492.25026961438346
10
-608.44201296997062
20
-462.61418032350491
10
-602.63721424474738
20
-462.6141803235048
42
0.41421356237309503
10
-601.63721424474738
20
-461.6141803235048
10
-601.63721424474727
20
-459.11418032350491
42
0.41421356237303258
10
-602.63721424474738
20
-458.11418032350491
10
-608.44201296997062
20
-458.11418032350491
10
-608.44201296997039
20
-404.4974746830585
42
0.1989123673796275
10
-609.90647906403774
20
-400.96194077712539
10
-615.64466578999941
20
-395.22375405116395
10
-611.54005324797106
20
-391.11914150913555
42
0.41421356237312451
10
-611.54005324797117
20
-389.70492794676233
10
-613.30782020093693
20
-387.93716099379606
42
0.41421356237315388
10
-614.72203376331038
20
-387.93716099379606
10
-618.82664630533873
20
-392.04177353582452
10
-665.2543710108921
20
-345.61404883027109
10
-661.14975846886387
20
-341.50943628824274
42
0.41421356237319806
10
-661.14975846886387
20
-340.09522272586963
10
-662.91752542182962
20
-338.32745577290336
42
0.41421356237312451
10
-664.33173898420307
20
-338.32745577290325
10
-668.43635152623142
20
-342.43206831493183
10
-714.86407623178502
20
-296.00434360937811
10
-710.75946368975701
20
-291.89973106734993
42
0.41421356237317603
10
-710.75946368975701
20
-290.48551750497666
10
-712.52723064272288
20
-288.71775055201044
42
0.41421356237316864
10
-713.94144420509633
20
-288.71775055201044
10
-718.04605674712457
20
-292.82236309403868
10
-737.93948765302844
20
-272.92893218813333
42
-0.13482518469561916
10
-756.27747029066632
20
-240.70428964378635
10
-750.64435463227801
20
-239.4612752967636
42
0.41421356237302959
10
-749.88332431373033
20
-238.26928836132666
10
-750.42202008484207
20
-235.82801679384664
42
0.41421356237316836
10
-751.61400702027913
20
-235.0669864752993
10
-757.24712267866744
20
-236.31000082232248
42
-0.046291329184972217
10
-758.44201296997062
20
-223.43145750507603
10
-758.44201296997062
20
-170.72545283472374
10
-752.63721424474738
20
-170.72545283472365
42
0.4142135623730222
10
-751.63721424474738
20
-169.72545283472371
10
-751.63721424474727
20
-167.22545283472371
42
0.41421356237307422
10
-752.63721424474738
20
-166.22545283472377
10
-758.44201296997062
20
-166.22545283472377
10
-758.44201296997062
20
-100.56673488600573
10
-752.63721424474738
20
-100.56673488600566
42
0.4142135623730222
10
-751.63721424474738
20
-99.566734886005719
10
-751.63721424474738
20
-97.066734886005719
42
0.41421356237310542
10
-752.63721424474738
20
-96.066734886005776
10
-758.44201296997062
20
-96.066734886005776
10
-758.44201296997073
20
-70
42
-0.14234850614024067
10
-747.54093370332589
20
-32.485768458455908
10
-742.77253837024796
20
-35.732225394127397
42
0.41421356237307866
10
-741.3831523076974
20
-35.468395204061096
10
-739.97620746709208
20
-33.401874888290116
42
0.4142135623730257
10
-740.24003765715838
20
-32.012488825739496
10
-745.00843299023632
20
-28.766031890068039
42
-0.23888880057364975
10
-688.64705483418311
20
-0.0003003018304092997
10
-688.64705483418322
20
-5.804798725223181
42
0.41421356237303031
10
-687.64705483418311
20
-6.8047987252232662
10
-685.14705483418334
20
-6.8047987252234083
42
0.41421356237310314
10
-684.14705483418311
20
-5.8047987252231801
10
-684.14705483418311
20
-1.1658637527882954e-15
10
-618.48833688546529
20
-2.2204460492503131e-15
10
-618.48833688546517
20
-5.804798725223181
42
0.41421356237306123
10
-617.48833688546506
20
-6.8047987252232662
10
-614.98833688546506
20
-6.8047987252231241
42
0.41421356237309664
10
-613.98833688546517
20
-5.8047987252231801
10
-613.98833688546517
20
-1.1658637527882954e-15
10
-548.32961893674701
20
-2.2204460492503131e-15
10
-548.32961893674724
20
-5.804798725223181
42
0.41421356237306123
10
-547.32961893674712
20
-6.8047987252232662
10
-544.82961893674747
20
-6.8047987252234083
42
0.41421356237310314
10
-543.82961893674724
20
-5.8047987252231801
10
-543.82961893674724
20
-1.1658637527882954e-15
10
-478.17090098802936
20
-2.2204460492503131e-15
10
-478.17090098802919
20
-5.804798725223181
42
0.41421356237306123
10
-477.17090098802913
20
-6.8047987252232662
10
-474.67090098802913
20
-6.8047987252231241
42
0.41421356237309664
10
-473.67090098802919
20
-5.8047987252231801
10
-473.67090098802919
20
-1.1658637527882954e-15
10
-408.01218303931165
20
-2.2204460492503131e-15
10
-408.01218303931148
20
-5.804798725223181
42
0.41421356237306123
10
-407.01218303931142
20
-6.8047987252232662
10
-404.51218303931142
20
-6.8047987252231241
42
0.41421356237309664
10
-403.51218303931148
20
-5.8047987252231801
10
-403.51218303931148
20
-1.1658637527882954e-15
10
-383.29482671235638
20
-1.7763568394002505e-13
42
-0.12690002952119359
10
-339.75992255965321
20
-11.230004948489807
10
-342.67974310459073
20
-16.214436362968847
42
0.41421356237302542
10
-342.32233804090413
20
-17.582742476545548
10
-340.16519906932501
20
-18.846368788908041
42
0.41421356237309331
10
-338.79689295574838
20
-18.488963725221339
10
-335.87707241081102
20
-13.504532310742288
42
-0.057686746889039867
10
-319.65521640556716
20
-26.360389693210706
10
-287.8960492898571
20
-58.11955680892062
10
-292.00066183188545
20
-62.224169350948912
42
0.41421356237313917
10
-292.0006618318854
20
-63.638382913322289
10
-290.2328948789189
20
-65.406149866288501
42
0.41421356237304352
10
-288.81868131654585
20
-65.406149866288388
10
-284.71406877451756
20
-61.301537324260096
10
-238.28634406896427
20
-107.72926202981346
10
-242.39095661099265
20
-111.83387457184175
42
0.41421356237313917
10
-242.39095661099256
20
-113.24808813421512
10
-240.62318965802606
20
-115.01585508718134
42
0.41421356237304352
10
-239.20897609565301
20
-115.01585508718122
10
-235.10436355362472
20
-110.91124254515293
10
-204.80240266318134
20
-141.21320343559651
42
-0.063432203214037225
10
-190.88093127244449
20
-159.19891351568344
10
-195.93090763979265
20
-162.00384617610669
42
0.41421356237310919
10
-196.31954745608454
20
-163.36361052818873
10
-195.10564178634712
20
-165.54911573865581
42
0.41421356237311829
10
-193.74587743426503
20
-165.93775555494767
10
-188.69590106691686
20
-163.13282289452422
42
-0.12108755741348533
10
-178.44201296997042
20
-204.85281374238582
10
-178.44201296997056
20
-227.13097087628697
10
-184.24681169519374
20
-227.13097087628697
42
0.41421356237309503
10
-185.24681169519383
20
-228.13097087628705
10
-185.2468116951938
20
-230.63097087628699
42
0.41421356237309503
10
-184.24681169519374
20
-231.63097087628699
10
-178.44201296997056
20
-231.63097087628699
10
-178.44201296997056
20
-290.34256732799759
10
-184.24681169519374
20
-290.34256732799759
42
0.41421356237309503
10
-185.24681169519383
20
-291.3425673279977
10
-185.2468116951938
20
-293.84256732799764
42
0.41421356237309503
10
-184.24681169519374
20
-294.84256732799764
10
-178.44201296997056
20
-294.84256732799764
10
-178.44201296997056
20
-360.50128527671529
10
-184.24681169519374
20
-360.50128527671529
42
0.4142135623730846
10
-185.24681169519383
20
-361.50128527671541
10
-185.2468116951938
20
-364.00128527671535
42
0.41421356237306384
10
-184.24681169519374
20
-365.00128527671535
10
-178.44201296997056
20
-365.00128527671535
10
-178.44201296997056
20
-430.66000322543357
10
-184.24681169519374
20
-430.66000322543357
42
0.4142135623730846
10
-185.24681169519383
20
-431.66000322543368
10
-185.2468116951938
20
-434.16000322543363
42
0.41421356237306384
10
-184.24681169519374
20
-435.16000322543363
10
-178.44201296997056
20
-435.16000322543363
10
-178.44201296997056
20
-500.81872117415128
10
-184.24681169519374
20
-500.81872117415116
42
0.4142135623730846
10
-185.24681169519383
20
-501.81872117415128
10
-185.2468116951938
20
-504.31872117415134
42
0.41421356237306384
10
-184.24681169519374
20
-505.31872117415134
10
-178.44201296997056
20
-505.31872117415134
10
-178.44201296997056
20
-570.97743912286876
10
-184.24681169519374
20
-570.97743912286876
42
0.4142135623730846
10
-185.24681169519383
20
-571.97743912286887
10
-185.2468116951938
20
-574.47743912286876
42
0.41421356237306384
10
-184.24681169519374
20
-575.47743912286876
10
-178.44201296997056
20
-575.47743912286876
10
-178.44201296997056
20
-641.13615707158692
10
-184.24681169519374
20
-641.13615707158692
42
0.41421356237309503
10
-185.24681169519383
20
-642.13615707158692
10
-185.2468116951938
20
-644.63615707158692
42
0.41421356237298057
10
-184.24681169519374
20
-645.63615707158692
10
-178.44201296997056
20
-645.63615707158692
10
-178.44201296997053
20
-691.89493055505579
42
-0.053940306389455052
10
-180.52475640884424
20
-711.14476169107093
10
-186.13509183021208
20
-709.76851861660043
42
0.41421356237310264
10
-187.34453936780625
20
-710.50148290891468
10
-187.94014342440585
20
-712.92949769630013
42
0.41421356237307477
10
-187.20717913209143
20
-714.13894523389422
10
-181.59684371072345
20
-715.5151883083646
42
-0.13069679217380364
10
-204.8024026631812
20
-755.53454086184502
10
-218.1475071158124
20
-768.87964531447642
10
-222.25211965784064
20
-764.77503277244807
42
0.41421356237308032
10
-223.66633322021386
20
-764.77503277244796
10
-225.4341001731801
20
-766.5427997254144
42
0.41421356237308032
10
-225.43410017318024
20
-767.9570132877875
10
-221.32948763115195
20
-772.06162582981597
10
-267.75721233670509
20
-818.48935053536889
10
-271.86182487873333
20
-814.38473799334065
42
0.41421356237302148
10
-273.27603844110655
20
-814.38473799334042
10
-275.04380539407288
20
-816.15250494630709
42
0.4142135623730141
10
-275.04380539407293
20
-817.56671850867997
10
-270.93919285204447
20
-821.67133105070832
10
-317.36691755759819
20
-868.09905575626203
10
-321.47153009962642
20
-863.99444321423357
42
0.41421356237302148
10
-322.88574366199964
20
-863.99444321423346
10
-324.65351061496597
20
-865.76221016720024
42
0.41421356237308032
10
-324.65351061496591
20
-867.176423729573
10
-320.55517330228957
20
-871.27476104224957
42
-0.18443412390909594
10
-379.53242897849975
20
-896.66906748216945
10
-379.62955332155627
20
-890.89321469645256
42
0.41421356237311624
10
-380.64622517759744
20
-889.91016925643771
10
-383.14587179766733
20
-889.95220227647053
42
0.41421356237315715
10
-384.12891723768212
20
-890.96887413251147
10
-384.03174215562927
20
-896.74774429744161
10
-449.69028463846172
20
-896.74774429744161
10
-449.69028463846155
20
-890.94294557221838
42
0.41421356237301177
10
-450.69028463846166
20
-889.94294557221849
10
-453.19028463846138
20
-889.94294557221815
42
0.41421356237311585
10
-454.19028463846161
20
-890.94294557221838
10
-454.19028463846161
20
-896.74774429744161
10
-519.84900258717948
20
-896.74774429744161
10
-519.84900258717926
20
-890.94294557221838
42
0.41421356237301177
10
-520.84900258717937
20
-889.94294557221849
10
-523.34900258717903
20
-889.94294557221815
42
0.41421356237311585
10
-524.34900258717926
20
-890.94294557221838
10
-524.34900258717926
20
-896.74774429744161
10
-590.00772053589708
20
-896.74774429744161
10
-590.00772053589696
20
-890.94294557221838
42
0.41421356237301177
10
-591.00772053589708
20
-889.94294557221849
10
-593.50772053589685
20
-889.94294557221815
42
0.41421356237311585
10
-594.50772053589708
20
-890.94294557221838
10
-594.50772053589708
20
-896.74774429744161
10
-660.16643848461536
20
-896.74774429744161
10
-660.16643848461524
20
-890.94294557221838
42
0.41421356237301177
10
-661.16643848461536
20
-889.94294557221849
10
-663.66643848461513
20
-889.94294557221815
42
0.41421356237309503
10
-664.66643848461536
20
-890.94294557221838
10
-664.66643848461536
20
-896.74774429744161
10
-688.44201296997062
20
-896.74774429744218
42
-0.15070695146833554
10
-727.87016493708904
20
-884.5873573014876
10
-724.46940099803385
20
-879.92775631873087
42
0.41421356237309503
10
-724.68762219349628
20
-878.53048057291289
10
-726.70699337009682
20
-877.0566623849686
42
0.4142135623729451
10
-728.10426911591458
20
-877.27488358043104
10
-731.50503305496977
20
-881.93448456318811
42
-0.23102704568873481
10
-758.44201296997062
20
-826.74774429744161
10
-758.44201296997062
20
-824.66162576100351
10
-752.63721424474738
20
-824.66162576100351
42
0.41421356237292856
10
-751.63721424474738
20
-823.66162576100351
10
-751.63721424474738
20
-821.16162576100339
42
0.4142135623730534
10
-752.63721424474738
20
-820.16162576100351
10
-758.44201296997062
20
-820.16162576100351
10
-758.44201296997062
20
-754.50290781228568
10
-752.63721424474738
20
-754.50290781228568
42
0.41421356237292856
10
-751.63721424474738
20
-753.5029078122858
10
-751.63721424474727
20
-751.00290781228568
42
0.41421356237297013
10
-752.63721424474738
20
-750.00290781228591
10
-758.44201296997062
20
-750.00290781228591
10
-758.44201296997062
20
-684.34418986356764
10
-752.63721424474738
20
-684.34418986356764
42
0.41421356237292856
10
-751.63721424474738
20
-683.34418986356764
10
-751.63721424474727
20
-680.84418986356752
42
0.41421356237297013
10
-752.63721424474738
20
-679.84418986356764
10
-758.44201296997062
20
-679.84418986356764
10
-758.44201296997062
20
-673.3162867923653
42
-0.19891236737965834
10
-737.93948765302866
20
-623.81881210930692
10
-735.00291318493714
20
-620.8822376412154
10
-730.89830064290845
20
-624.98685018324375
42
0.41421356237308032
10
-729.48408708053557
20
-624.98685018324386
10
-727.71632012756936
20
-623.21908323027765
42
0.41421356237303619
10
-727.71632012756925
20
-621.80486966790443
10
-731.8209326695976
20
-617.70025712587596
10
-685.39320796404445
20
-571.2725324203227
10
-681.28859542201576
20
-575.37714496235105
42
0.41421356237308032
10
-679.87438185964288
20
-575.37714496235117
10
-678.10661490667667
20
-573.60937800938495
42
0.41421356237303619
0
CIRCLE
5
103
100
AcDbEntity
8
0
100
AcDbCircle
10
-742.94201296252004
20
-826.74774429744161
30
0
40
2.0000000000000284
210
0
220
-0
230
1
0
CIRCLE
5
104
100
AcDbEntity
8
0
100
AcDbCircle
10
-193.94201297742114
20
-570.1344013518883
30
0
40
2.0000000000000284
210
0
220
-0
230
1
0
CIRCLE
5
105
100
AcDbEntity
8
0
100
AcDbCircle
10
-193.94201297742114
20
-448.37387214872081
30
0
40
2.0000000000000187
210
0
220
2.4651903288156624e-32
230
1
0
CIRCLE
5
106
100
AcDbEntity
8
0
100
AcDbCircle
10
-215.76255777684111
20
-744.57438574818525
30
0
40
1.9999999999999929
210
0
220
-0
230
1
0
CIRCLE
5
107
100
AcDbEntity
8
0
100
AcDbCircle
10
-662.96282824487344
20
-570.76246292847145
30
0
40
1.9999999999999929
210
0
220
-0
230
1
0
CIRCLE
5
108
100
AcDbEntity
8
0
100
AcDbCircle
10
-383.29482671235638
20
-881.24774428999103
30
0
40
2.0000000000000284
210
0
220
-0
230
1
0
CIRCLE
5
109
100
AcDbEntity
8
0
100
AcDbCircle
10
-726.9793325393689
20
-865.28506386684001
30
0
40
2.0000000000000284
210
0
220
-0
230
1
0
CIRCLE
5
110
100
AcDbEntity
8
0
100
AcDbCircle
10
-535.86841984116347
20
-15.500000007450581
30
0
40
1.9999999999999574
210
0
220
-0
230
1
0
CIRCLE
5
111
100
AcDbEntity
8
0
100
AcDbCircle
10
-354.78491100400845
20
-21.170974834792418
30
0
40
2.0000000000000284
210
0
220
-0
230
1
0
CIRCLE
5
112
100
AcDbEntity
8
0
100
AcDbCircle
10
-688.44201296997062
20
-15.500000007450581
30
0
40
2.0000000000000284
210
0
220
-0
230
1
0
CIRCLE
5
113
100
AcDbEntity
8
0
100
AcDbCircle
10
-592.94201296252004
20
-448.37387214872092
30
0
40
2.0000000000000111
210
0
220
2.4651903288156624e-32
230
1
0
CIRCLE
5
114
100
AcDbEntity
8
0
100
AcDbCircle
10
-726.9793325393689
20
-31.462680430601537
30
0
40
1.9999999999999574
210
0
220
-0
230
1
0
CIRCLE
5
115
100
AcDbEntity
8
0
100
AcDbCircle
10
-330.61537151922693
20
-37.320544806870473
30
0
40
1.9999999999999574
210
0
220
-0
230
1
0
CIRCLE
5
116
100
AcDbEntity
8
0
100
AcDbCircle
10
-742.94201296252004
20
-750.03201554490352
30
0
40
1.9999999999999574
210
0
220
-0
230
1
0
CIRCLE
5
117
100
AcDbEntity
8
0
100
AcDbCircle
10
-354.78491100400834
20
-875.57676946264905
30
0
40
2.0000000000000284
210
0
220
-0
230
1
0
CIRCLE
5
118
100
AcDbEntity
8
0
100
AcDbCircle
10
-742.94201296252004
20
-673.3162867923653
30
0
40
1.9999999999999929
210
0
220
-0
230
1
0
CIRCLE
5
119
100
AcDbEntity
8
0
100
AcDbCircle
10
-193.94201297742114
20
-691.89493055505579
30
0
40
1.9999999999999929
210
0
220
-0
230
1
0
CIRCLE
5
120
100
AcDbEntity
8
0
100
AcDbCircle
10
-199.61298780476312
20
-720.4048462634039
30
0
40
1.9999999999999574
210
0
220
-0
230
1
0
CIRCLE
5
121
100
AcDbEntity
8
0
100
AcDbCircle
10
-598.94632395037797
20
-506.7459586339761
30
0
40
2.0000000000000373
210
0
220
-0
230
1
0
CIRCLE
5
122
100
AcDbEntity
8
0
100
AcDbCircle
10
-598.94632395037797
20
-390.00178566346563
30
0
40
2.0000000000000551
210
0
220
-0
230
1
0
CIRCLE
5
123
100
AcDbEntity
8
0
100
AcDbCircle
10
-193.94201297742114
20
-204.85281374238582
30
0
40
2.0000000000000284
210
0
220
-0
230
1
0
CIRCLE
5
124
100
AcDbEntity
8
0
100
AcDbCircle
10
-199.61298780476312
20
-176.34289803403783
30
0
40
1.9999999999999574
210
0
220
-0
230
1
0
CIRCLE
5
125
100
AcDbEntity
8
0
100
AcDbCircle
10
-273.18896464803402
20
-94.746951678063382
30
0
40
2.0000000000000284
210
0
220
-0
230
1
0
CIRCLE
5
126
100
AcDbEntity
8
0
100
AcDbCircle
10
-726.9793325393689
20
-634.77896722296691
30
0
40
2.0000000000000639
210
0
220
-0
230
1
0
CIRCLE
5
127
100
AcDbEntity
8
0
100
AcDbCircle
10
-535.86841984116347
20
-881.24774428999103
30
0
40
1.9999999999999574
210
0
220
-0
230
1
0
CIRCLE
5
128
100
AcDbEntity
8
0
100
AcDbCircle
10
-742.94201296252004
20
-146.71572875253801
30
0
40
2.0000000000000995
210
0
220
-0
230
1
0
CIRCLE
5
129
100
AcDbEntity
8
0
100
AcDbCircle
10
-742.94201296252004
20
-223.43145750507603
30
0
40
1.9999999999999929
210
0
220
-0
230
1
0
CIRCLE
5
130
100
AcDbEntity
8
0
100
AcDbCircle
10
-726.97933253936958
20
-261.96877707447413
30
0
40
1.9999999999999574
210
0
220
-0
230
1
0
CIRCLE
5
131
100
AcDbEntity
8
0
100
AcDbCircle
10
-688.44201296997062
20
-881.24774428999103
30
0
40
1.9999999999998863
210
0
220
-0
230
1
0
CIRCLE
5
132
100
AcDbEntity
8
0
100
AcDbCircle
10
-662.96282824487344
20
-325.98528136896988
30
0
40
2.0000000000000462
210
0
220
-0
230
1
0
CIRCLE
5
133
100
AcDbEntity
8
0
100
AcDbCircle
10
-742.94201296252004
20
-70
30
0
40
1.9999999999999574
210
0
220
-0
230
1
0
CIRCLE
5
134
100
AcDbEntity
8
0
100
AcDbCircle
10
-383.29482671235638
20
-15.500000007450581
30
0
40
1.9999999999998863
210
0
220
-0
230
1
0
CIRCLE
5
135
100
AcDbEntity
8
0
100
AcDbCircle
10
-459.58162327675979
20
-881.24774428999103
30
0
40
1.9999999999998863
210
0
220
-0
230
1
0
CIRCLE
5
136
100
AcDbEntity
8
0
100
AcDbCircle
10
-330.61537151922693
20
-859.42719949057107
30
0
40
1.9999999999999574
210
0
220
-0
230
1
0
CIRCLE
5
137
100
AcDbEntity
8
0
100
AcDbCircle
10
-612.15521640556722
20
-881.24774428999103
30
0
40
1.9999999999998863
210
0
220
-0
230
1
0
CIRCLE
5
138
100
AcDbEntity
8
0
100
AcDbCircle
10
-193.94201297742114
20
-326.61334294555331
30
0
40
1.9999999999999929
210
0
220
-0
230
1
0
CIRCLE
5
139
100
AcDbEntity
8
0
100
AcDbCircle
10
-273.18896464803402
20
-802.00079261937822
30
0
40
2.0000000000000284
210
0
220
-0
230
1
0
CIRCLE
5
140
100
AcDbEntity
8
0
100
AcDbCircle
10
-215.76255777684111
20
-152.17335854925636
30
0
40
2.0000000000000639
210
0
220
-0
230
1
0
CIRCLE
5
141
100
AcDbEntity
8
0
100
AcDbCircle
10
-535.86841984116347
20
-853.24774428254045
30
0
40
2.0000000000000284
210
0
220
-0
230
1
0
CIRCLE
5
142
100
AcDbEntity
8
0
100
AcDbCircle
10
-225.48161472196256
20
-187.05803414311148
30
0
40
1.9999999999999929
210
0
220
-0
230
1
0
CIRCLE
5
143
100
AcDbEntity
8
0
100
AcDbCircle
10
-712.92482056775293
20
-233.57256845704825
30
0
40
1.9999999999998863
210
0
220
-0
230
1
0
CIRCLE
5
144
100
AcDbEntity
8
0
100
AcDbCircle
10
-707.18034266087727
20
-845.48607398834838
30
0
40
2.0000000000000995
210
0
220
-0
230
1
0
CIRCLE
5
145
100
AcDbEntity
8
0
100
AcDbCircle
10
-568.6338556294063
20
-385.93732820764887
30
0
40
1.999999999999913
210
0
220
-0
230
1
0
CIRCLE
5
146
100
AcDbEntity
8
0
100
AcDbCircle
10
-365.50004711308219
20
-47.039601751991995
30
0
40
2.0000000000000284
210
0
220
-0
230
1
0
CIRCLE
5
147
100
AcDbEntity
8
0
100
AcDbCircle
10
-365.50004711308219
20
-849.70814254544962
30
0
40
2.0000000000000284
210
0
220
-0
230
1
0
CIRCLE
5
148
100
AcDbEntity
8
0
100
AcDbCircle
10
-221.94201298487172
20
-448.37387214872081
30
0
40
2.0000000000000262
210
0
220
2.4651903288156624e-32
230
1
0
CIRCLE
5
149
100
AcDbEntity
8
0
100
AcDbCircle
10
-707.18034266087727
20
-51.261670309093219
30
0
40
2.0000000000000284
210
0
220
-0
230
1
0
CIRCLE
5
150
100
AcDbEntity
8
0
100
AcDbCircle
10
-712.92482056775293
20
-663.17517584039297
30
0
40
2.0000000000000995
210
0
220
-0
230
1
0
CIRCLE
5
151
100
AcDbEntity
8
0
100
AcDbCircle
10
-568.6338556294063
20
-510.81041608979274
30
0
40
2.0000000000000995
210
0
220
-0
230
1
0
CIRCLE
5
152
100
AcDbEntity
8
0
100
AcDbCircle
10
-535.86841984116347
20
-43.500000014901161
30
0
40
2.0000000000000284
210
0
220
-0
230
1
0
CIRCLE
5
153
100
AcDbEntity
8
0
100
AcDbCircle
10
-225.48161472196256
20
-709.68971015432999
30
0
40
2.0000000000000284
210
0
220
-0
230
1
0
LWPOLYLINE
5
154
100
AcDbEntity
8
0
100
AcDbPolyline
90
20
70
1
43
0.0
10
-359.25319616255052
20
-830.78937484724747
10
-244.40038242016456
20
-715.93656110486165
42
0.19891236737965953
10
-234.44201298487172
20
-691.89493055505579
10
-234.44201298487172
20
-204.85281374238582
42
0.19891236737966178
10
-244.4003824201647
20
-180.81118319257982
10
-359.25319616255052
20
-65.95836945019407
42
0.19891236737966275
10
-383.29482671235638
20
-56.000000014901161
10
-688.44201296997062
20
-56.000000014901161
42
0.41421356237308432
10
-702.44201295506946
20
-70
10
-702.44201295506957
20
-223.43145750507603
42
0.19891236737973261
10
-698.34150789604564
20
-233.33095243115082
10
-570.30849930705449
20
-361.36396102014214
42
-0.19891236737965315
10
-552.44201295506946
20
-404.49747468305804
10
-552.44201295506923
20
-492.25026961438346
42
-0.19891236737965512
10
-570.30849930705449
20
-535.38378327729959
10
-698.34150789604541
20
-663.41679186629017
42
0.19891236737965987
10
-702.44201295506946
20
-673.3162867923653
10
-702.44201295506946
20
-826.74774429744161
42
0.41421356237306234
10
-688.44201296997062
20
-840.74774428254045
10
-383.29482671235638
20
-840.74774428254045
42
0.1989123673796557
0
ENDSEC
0
SECTION
2
OBJECTS
0
DICTIONARY
5
C
100
AcDbDictionary
3
ACAD_GROUP
350
D
3
ACAD_MLINESTYLE
350
17
0
DICTIONARY
5
D
100
AcDbDictionary
0
DICTIONARY
5
1A
330
C
100
AcDbDictionary
0
DICTIONARY
5
17
100
AcDbDictionary
0
ENDSEC
0
EOF
