0
SECTION
2
HEADER
9
$INSUNITS
70
1
9
$ACADVER
1
AC1014
9
$HANDSEED
5
FFFF
0
ENDSEC
0
SECTION
2
TABLES
0
TABLE
2
VPORT
5
8
100
AcDbSymbolTable
0
ENDTAB
0
TABLE
2
LTYPE
5
5
100
AcDbSymbolTable
0
LTYPE
5
14
100
AcDbSymbolTableRecord
100
AcDbLinetypeTableRecord
2
BYBLOCK
70
0
0
LTYPE
5
15
100
AcDbSymbolTableRecord
100
AcDbLinetypeTableRecord
2
BYLAYER
70
0
0
ENDTAB
0
TABLE
2
LAYER
5
2
100
AcDbSymbolTable
70
2
0
LAYER
5
50
100
AcDbSymbolTableRecord
100
AcDbLayerTableRecord
2
0
70
0
6
CONTINUOUS
0
ENDTAB
0
TABLE
2
STYLE
5
3
100
AcDbSymbolTable
70
1
0
STYLE
5
11
100
AcDbSymbolTableRecord
100
AcDbTextStyleTableRecord
2
STANDARD
70
0
0
ENDTAB
0
TABLE
2
VIEW
5
6
100
AcDbSymbolTable
70
0
0
ENDTAB
0
TABLE
2
UCS
5
7
100
AcDbSymbolTable
70
0
0
ENDTAB
0
TABLE
2
APPID
5
9
100
AcDbSymbolTable
70
2
0
APPID
5
12
100
AcDbSymbolTableRecord
100
AcDbRegAppTableRecord
2
ACAD
70
0
0
ENDTAB
0
TABLE
2
DIMSTYLE
5
A
100
AcDbSymbolTable
70
1
0
ENDTAB
0
TABLE
2
BLOCK_RECORD
5
1
100
AcDbSymbolTable
70
1
0
BLOCK_RECORD
5
1F
100
AcDbSymbolTableRecord
100
AcDbBlockTableRecord
2
*MODEL_SPACE
0
BLOCK_RECORD
5
1B
100
AcDbSymbolTableRecord
100
AcDbBlockTableRecord
2
*PAPER_SPACE
0
ENDTAB
0
ENDSEC
0
SECTION
2
BLOCKS
0
BLOCK
5
20
100
AcDbEntity
100
AcDbBlockBegin
2
*MODEL_SPACE
0
ENDBLK
5
21
100
AcDbEntity
100
AcDbBlockEnd
0
BLOCK
5
1C
100
AcDbEntity
100
AcDbBlockBegin
2
*PAPER_SPACE
0
ENDBLK
5
1D
100
AcDbEntity
100
AcDbBlockEnd
0
ENDSEC
0
SECTION
2
ENTITIES
0
LWPOLYLINE
5
100
100
AcDbEntity
8
OUTER_PROFILES
100
AcDbPolyline
90
10
70
1
43
0.0
10
41.294128253391783
20
32.038365113836157
10
0.97270330545738393
20
32.038365113836299
42
0.41421356237309392
10
0.22270330545738634
20
31.288365113836299
10
0.22270330545728709
20
12.091653880951895
42
-0.19891236737965706
10
0.076256696050560152
20
11.738100490358622
10
-0.53033008588984765
20
11.131513708418202
42
0.19891236737965592
10
-0.74999999999993583
20
10.601183622528298
10
-0.74999999999999756
20
0.75000000000000555
42
0.41421356237309592
10
0
20
0
10
41.294128253391762
20
-1.3987061727561025e-13
0
LWPOLYLINE
5
101
100
AcDbEntity
8
INTERIOR_PROFILES
100
AcDbPolyline
90
8
70
1
43
0.0
10
36.083841681761101
20
8.6458072151976353
10
36.083841681761108
20
8.0881800047727381
42
-0.4142135623731053
10
35.883841681761105
20
7.8881800047727388
10
27.482325472862588
20
7.8881800047727682
42
-0.41421356237309709
10
27.282325472862592
20
8.0881800047727701
10
27.282325472862592
20
8.6458072151976637
42
-0.41421356237309304
10
27.482325472862584
20
8.8458072151976648
10
35.883841681761112
20
8.8458072151976364
42
-0.41421356237309914
0
LWPOLYLINE
5
102
100
AcDbEntity
8
INTERIOR_PROFILES
100
AcDbPolyline
90
8
70
1
43
0.0
10
30.782325420297934
20
27.888179711912137
42
0.41421356237309503
10
31.28232542029793
20
27.388179711912137
10
32.282325390260944
20
27.38817971191213
42
0.41421356237309503
10
32.782325390260944
20
27.888179711912123
10
32.782325390260951
20
28.888179681875148
42
0.41421356237309176
10
32.282325390260958
20
29.388179681875144
10
31.282325420297937
20
29.388179681875151
42
0.41421356237309503
10
30.782325420297937
20
28.888179681875151
0
LWPOLYLINE
5
103
100
AcDbEntity
8
INTERIOR_PROFILES
100
AcDbPolyline
90
8
70
1
43
0.0
10
20.382325577992049
20
10.398679095580418
42
0.41421356237307866
10
20.282325577992051
20
10.29867909558042
10
20.282325577992051
20
9.9986791030896676
42
0.41421356237307866
10
20.382325577992049
20
9.8986791030896661
10
23.182325532936567
20
9.8986791030896573
42
0.41421356237308682
10
23.282325532936568
20
9.9986791030896587
10
23.282325532936571
20
10.298679095580409
42
0.41421356237308271
10
23.18232553293657
20
10.398679095580409
0
LWPOLYLINE
5
104
100
AcDbEntity
8
INTERIOR_PROFILES
100
AcDbPolyline
90
8
70
1
43
0.0
10
35.282325360223943
20
24.388179756967599
10
36.282325330186957
20
24.388179756967599
42
-0.41421356237309664
10
36.782325330186957
20
23.888179756967599
10
36.782325330186957
20
22.888179787004585
42
-0.41421356237309503
10
36.282325330186957
20
22.388179787004585
10
35.282325360223943
20
22.388179787004592
42
-0.41421356237309503
10
34.782325360223943
20
22.888179787004592
10
34.78232536022395
20
23.888179756967602
42
-0.41421356237309503
0
LWPOLYLINE
5
105
100
AcDbEntity
8
INTERIOR_PROFILES
100
AcDbPolyline
90
4
70
1
43
0.0
10
11.126268281928297
20
30.388179666856725
10
11.126268281928237
20
13.25817966685673
10
6.2862682819282361
20
13.258179666856746
10
6.2862682819282973
20
30.388179666856747
0
LWPOLYLINE
5
106
100
AcDbEntity
8
INTERIOR_PROFILES
100
AcDbPolyline
90
8
70
1
43
0.0
10
38.082325887936193
20
8.0881795279355746
10
38.082325887936172
20
3.5881793651726519
42
-0.41421356237309365
10
37.782325887936175
20
3.2881793651726534
10
37.172869930568922
20
3.2881793651726547
42
-0.41421356237309503
10
36.872869930568925
20
3.588179365172655
10
36.872869930568939
20
8.0881795279355764
42
-0.41421356237309503
10
37.172869930568943
20
8.3881795279355771
10
37.782325887936196
20
8.3881795279355753
42
-0.41421356237309642
0
LWPOLYLINE
5
107
100
AcDbEntity
8
INTERIOR_PROFILES
100
AcDbPolyline
90
8
70
1
43
0.0
10
20.282325577992115
20
28.988179689384438
10
20.282325577992118
20
29.288179681875189
42
-0.41421356237308682
10
20.382325577992116
20
29.388179681875183
10
23.182325532936634
20
29.388179681875179
42
-0.41421356237309503
10
23.282325532936635
20
29.288179681875178
10
23.282325532936635
20
28.988179689384427
42
-0.41421356237308682
10
23.182325532936634
20
28.888179689384426
10
20.382325577992116
20
28.88817968938443
42
-0.41421356237311141
0
LWPOLYLINE
5
108
100
AcDbEntity
8
INTERIOR_PROFILES
100
AcDbPolyline
90
8
70
1
43
0.0
10
30.00692922226531
20
15.589573387423448
10
30.266865800420248
20
15.589573387423446
42
-0.41421356237309503
10
30.466865800420248
20
15.389573387423447
10
30.46686580042023
20
9.6312471607161001
42
-0.4142135623731012
10
30.266865800420234
20
9.4312471607160973
10
30.006929222265292
20
9.431247160716099
42
-0.41421356237310325
10
29.806929222265289
20
9.6312471607160965
10
29.80692922226531
20
15.389573387423447
42
-0.41421356237309503
0
LWPOLYLINE
5
109
100
AcDbEntity
8
INTERIOR_PROFILES
100
AcDbPolyline
90
8
70
1
43
0.0
10
37.434369088207653
20
15.935636419169317
42
0.41421356237310325
10
37.634369088207656
20
16.135636419169316
10
37.634369088207656
20
16.688179799207109
42
0.41421356237310325
10
37.434369088207653
20
16.888179799207109
10
31.282325664536135
20
16.88817979920713
42
0.41421356237309503
10
31.082325664536139
20
16.688179799207131
10
31.082325664536139
20
16.135636419169337
42
0.41421356237309503
10
31.282325664536135
20
15.93563641916934
0
LWPOLYLINE
5
110
100
AcDbEntity
8
INTERIOR_PROFILES
100
AcDbPolyline
90
8
70
1
43
0.0
10
18.882325600519852
20
28.294030905529691
10
19.05064635988801
20
28.294030905529691
42
-0.41421356237308682
10
19.150646359888007
20
28.194030905529686
10
19.150646359887947
20
11.381103853475368
42
-0.41421356237309914
10
19.050646359887949
20
11.281103853475368
10
18.882325600519795
20
11.281103853475368
42
-0.41421356237308271
10
18.782325600519794
20
11.381103853475368
10
18.782325600519851
20
28.194030905529694
42
-0.41421356237307866
0
LWPOLYLINE
5
111
100
AcDbEntity
8
INTERIOR_PROFILES
100
AcDbPolyline
90
8
70
1
43
0.0
10
37.429501453222144
20
15.589573387423419
42
0.41421356237307866
10
37.329501453222143
20
15.489573387423423
10
37.329501453222122
20
9.5312471607160738
42
0.41421356237307044
10
37.429501453222123
20
9.4312471607160724
10
37.534369088207626
20
9.4312471607160688
42
0.41421356237308682
10
37.634369088207634
20
9.5312471607160738
10
37.634369088207649
20
15.489573387423421
42
0.41421356237308682
10
37.534369088207647
20
15.589573387423419
0
CIRCLE
5
112
100
AcDbEntity
8
INTERIOR_PROFILES
100
AcDbCircle
10
-40.082535795766262
20
6.6881794736812203
30
0
40
0.78499999999999992
210
0
220
0
230
-1
0
CIRCLE
5
113
100
AcDbEntity
8
INTERIOR_PROFILES
100
AcDbCircle
10
-40.082535795766262
20
4.2222969036301965
30
0
40
0.78499999999999859
210
0
220
0
230
-1
0
LINE
5
114
100
AcDbEntity
8
BEND
100
AcDbLine
10
2.6346991386800087
20
-5.5948246910244104e-15
30
7.7726891185727386e-13
11
2.6346991386801206
21
32.038365113836292
31
7.797603891170733e-13
0
LINE
5
115
100
AcDbEntity
8
BEND
100
AcDbLine
10
38.609985215153799
20
32.038365113836157
30
8.9412117061924455e-12
11
38.609985215153742
21
-1.3987061727561025e-13
31
8.9412117061924326e-12
0
LINE
5
116
100
AcDbEntity
8
BEND_EXTENT
100
AcDbLine
10
2.4227529508380083
20
-5.5948246910244104e-15
30
7.2794534351810557e-13
11
2.4227529508381203
21
32.038365113836292
31
7.2794534351813102e-13
0
LINE
5
117
100
AcDbEntity
8
BEND_EXTENT
100
AcDbLine
10
38.821931402998118
20
32.038365113836157
30
8.9775884222289795e-12
11
38.821931402998061
21
-1.3987061727561025e-13
31
8.9775884222289666e-12
0
LINE
5
118
100
AcDbEntity
8
BEND_EXTENT
100
AcDbLine
10
38.398039027309437
20
-1.3987061727561025e-13
30
8.9342106488047928e-12
11
38.398039027309494
21
32.038365113836157
31
8.9342106488048057e-12
0
LINE
5
119
100
AcDbEntity
8
BEND_EXTENT
100
AcDbLine
10
2.846645326522093
20
32.038365113836285
30
8.3846101323353989e-13
11
2.8466453265219811
21
-1.6784474073073231e-14
31
8.3846101323351445e-13
0
ENDSEC
0
SECTION
2
OBJECTS
0
DICTIONARY
5
C
100
AcDbDictionary
3
ACAD_GROUP
350
D
3
ACAD_MLINESTYLE
350
17
0
DICTIONARY
5
D
100
AcDbDictionary
0
DICTIONARY
5
1A
330
C
100
AcDbDictionary
0
DICTIONARY
5
17
100
AcDbDictionary
0
ENDSEC
0
EOF
