0
SECTION
2
HEADER
9
$INSUNITS
70
4
9
$ACADVER
1
AC1014
9
$HANDSEED
5
FFFF
0
ENDSEC
0
SECTION
2
TABLES
0
TABLE
2
VPORT
5
8
100
AcDbSymbolTable
0
ENDTAB
0
TABLE
2
LTYPE
5
5
100
AcDbSymbolTable
0
LTYPE
5
14
100
AcDbSymbolTableRecord
100
AcDbLinetypeTableRecord
2
BYBLOCK
70
0
0
LTYPE
5
15
100
AcDbSymbolTableRecord
100
AcDbLinetypeTableRecord
2
BYLAYER
70
0
0
ENDTAB
0
TABLE
2
LAYER
5
2
100
AcDbSymbolTable
70
2
0
LAYER
5
50
100
AcDbSymbolTableRecord
100
AcDbLayerTableRecord
2
0
70
0
6
CONTINUOUS
0
ENDTAB
0
TABLE
2
STYLE
5
3
100
AcDbSymbolTable
70
1
0
STYLE
5
11
100
AcDbSymbolTableRecord
100
AcDbTextStyleTableRecord
2
STANDARD
70
0
0
ENDTAB
0
TABLE
2
VIEW
5
6
100
AcDbSymbolTable
70
0
0
ENDTAB
0
TABLE
2
UCS
5
7
100
AcDbSymbolTable
70
0
0
ENDTAB
0
TABLE
2
APPID
5
9
100
AcDbSymbolTable
70
2
0
APPID
5
12
100
AcDbSymbolTableRecord
100
AcDbRegAppTableRecord
2
ACAD
70
0
0
ENDTAB
0
TABLE
2
DIMSTYLE
5
A
100
AcDbSymbolTable
70
1
0
ENDTAB
0
TABLE
2
BLOCK_RECORD
5
1
100
AcDbSymbolTable
70
1
0
BLOCK_RECORD
5
1F
100
AcDbSymbolTableRecord
100
AcDbBlockTableRecord
2
*MODEL_SPACE
0
BLOCK_RECORD
5
1B
100
AcDbSymbolTableRecord
100
AcDbBlockTableRecord
2
*PAPER_SPACE
0
ENDTAB
0
ENDSEC
0
SECTION
2
BLOCKS
0
BLOCK
5
20
100
AcDbEntity
100
AcDbBlockBegin
2
*MODEL_SPACE
0
ENDBLK
5
21
100
AcDbEntity
100
AcDbBlockEnd
0
BLOCK
5
1C
100
AcDbEntity
100
AcDbBlockBegin
2
*PAPER_SPACE
0
ENDBLK
5
1D
100
AcDbEntity
100
AcDbBlockEnd
0
ENDSEC
0
SECTION
2
ENTITIES
0
LWPOLYLINE
5
100
100
AcDbEntity
8
0
100
AcDbPolyline
90
6
70
1
43
0.0
10
48.862311121257349
20
-247.35296171184856
10
48.862311121255999
20
-235.6941289628098
42
0.51203900383886825
10
42.364827728526677
20
-231.01289613546513
10
22.703783742007886
20
-237.57493582829156
42
0.72046860982865901
10
22.703783742007886
20
-245.47215484636595
10
42.364827728526393
20
-252.03419453919366
42
0.51203900383894496
0
LWPOLYLINE
5
101
100
AcDbEntity
8
0
100
AcDbPolyline
90
16
70
1
43
0.0
10
16.720785718347599
20
-494.70383009660281
10
16.720785718347599
20
-502.23805581770364
42
0.41421356237309503
10
23.300895518435709
20
-508.81816561779175
10
73.655185763607776
20
-508.81816561779146
42
0.41421356237309026
10
80.235295563696383
20
-502.23805581770364
10
80.235295563695459
20
-494.70383009660281
10
41.508029618784263
20
-494.7038300966035
42
-0.70020753820986903
10
40.662107008809798
20
-492.37967682709098
10
80.235295563695459
20
-459.17382890617716
10
80.235295563695459
20
-451.63960318507804
42
0.41421356237309626
10
73.655185763607776
20
-445.05949338499022
10
23.300895518435709
20
-445.05949338498965
42
0.41421356237309104
10
16.720785718347884
20
-451.63960318507748
10
16.720785718347599
20
-459.1738289061783
10
55.448051663258369
20
-459.17382890617864
42
-0.70020753820976578
10
56.293974273232834
20
-461.49798217569014
0
LWPOLYLINE
5
102
100
AcDbEntity
8
0
100
AcDbPolyline
90
5
70
1
43
0.0
10
54.865703000045585
20
-567.40248979474984
10
54.865703000045585
20
-544.74609170696681
10
42.515659234975445
20
-544.74609170696681
10
42.515659234975445
20
-573.98259959483767
10
48.285593199957972
20
-573.98259959483767
42
0.41421356237309026
0
LWPOLYLINE
5
103
100
AcDbEntity
8
0
100
AcDbPolyline
90
14
70
1
43
0.0
10
66.120960042506667
20
-340.25724110547117
10
70.36513086356365
20
-340.25724110547117
42
0.41421358523750734
10
80.235295563695104
20
-330.38707563483541
10
80.235295563695317
20
-299.60123980239644
42
0.4142135623730947
10
63.78502106347554
20
-283.15096530217716
10
33.171060218566879
20
-283.15096530217716
42
0.4142135623731063
10
16.720785718347599
20
-299.601239802397
10
16.720785718347457
20
-330.38707563483484
42
0.41421356237309581
10
26.590950418479196
20
-340.25724033496658
10
30.835121239535681
20
-340.25724110547117
10
30.835121239535326
20
-298.5813227833836
42
-0.41421356237296852
10
32.151143199553687
20
-297.26530082336581
10
64.804938082488732
20
-297.26530082336569
42
-0.41421356237309503
10
66.120960042506667
20
-298.5813227833836
0
LWPOLYLINE
5
104
100
AcDbEntity
8
0
100
AcDbPolyline
90
14
70
1
43
0.0
10
23.300895518435638
20
-273.28080060204599
10
63.78502106347554
20
-273.2808006020457
42
0.41421356237310009
10
80.235295563695317
20
-256.83052610182585
10
80.235295563695317
20
-226.21656525691719
42
0.41421356237310009
10
63.78502106347554
20
-209.76629075669706
10
23.300895518435638
20
-209.76629075669734
42
0.41421356237309703
10
16.720785718347457
20
-216.3464005567856
10
16.720785718347457
20
-223.88062627788585
10
61.185877692440442
20
-223.88062627788662
42
-0.41421356237303597
10
66.120960042506667
20
-228.81570862795186
10
66.120960042506169
20
-254.23138273079132
42
-0.41421356237309503
10
61.185877692440442
20
-259.16646508085705
10
16.720785718347457
20
-259.16646508085705
10
16.720785718347457
20
-266.70069080195788
42
0.41421356237309154
0
LWPOLYLINE
5
105
100
AcDbEntity
8
0
100
AcDbPolyline
90
6
70
1
43
0.0
10
16.720785718348466
20
-427.65590372718293
42
-0.41421356237310075
10
23.300895518435709
20
-421.07579392709567
10
80.235295563695459
20
-421.07579392709511
10
80.235295563695644
20
-428.61001964819593
42
-0.41421356237309026
10
73.655185763607776
20
-435.19012944828376
10
16.720785718347599
20
-435.19012944828376
0
LWPOLYLINE
5
106
100
AcDbEntity
8
0
100
AcDbPolyline
90
14
70
1
43
0.0
10
66.120960042506738
20
-577.61038984922322
10
73.655185763607776
20
-577.61038984922322
42
0.41421356237309026
10
80.235295563695601
20
-571.0302800491354
10
80.235295563696383
20
-525.26844011801074
42
0.41421356237309465
10
73.655185763607776
20
-518.68833031792201
10
23.300895518435709
20
-518.68833031792349
42
0.41421356237310075
10
16.720785718348452
20
-525.26844011801074
10
16.720785718347599
20
-571.03028004913483
42
0.41421356237309503
10
23.300895518435709
20
-577.61038984922288
10
30.835121239535823
20
-577.61038984922322
10
30.835121239534899
20
-534.11868779912879
42
-0.41421356237284207
10
32.151143199553829
20
-532.802665839111
10
64.804938082488874
20
-532.80266583911089
42
-0.41421356237309503
10
66.120960042506738
20
-534.11868779912879
0
LINE
5
107
100
AcDbEntity
8
0
100
AcDbLine
10
73.655185763607776
20
-411.20562922696365
30
0
11
23.300895518435709
21
-411.20562922696394
31
0
0
ARC
5
108
100
AcDbEntity
8
0
100
AcDbCircle
10
23.300895518435709
20
-404.62551942687583
30
0
40
6.5801098000881098
210
0
220
0
230
1
100
AcDbArc
50
180
51
270
0
LINE
5
109
100
AcDbEntity
8
0
100
AcDbLine
10
16.720785718347599
20
-404.62551942687583
30
0
11
16.720785718347599
21
-397.09129370577557
31
0
0
LINE
5
110
100
AcDbEntity
8
0
100
AcDbLine
10
16.720785718347599
20
-397.09129370577557
30
0
11
41.420872880426529
21
-397.09129370577557
31
0
0
LINE
5
111
100
AcDbEntity
8
0
100
AcDbLine
10
41.420872880426529
20
-397.09129370577557
30
0
11
41.420872880426458
21
-364.24174055628669
31
0
0
LINE
5
112
100
AcDbEntity
8
0
100
AcDbLine
10
41.420872880426458
20
-364.24174055628669
30
0
11
16.720785718347457
21
-364.24174055628669
31
0
0
LINE
5
113
100
AcDbEntity
8
0
100
AcDbLine
10
16.720785718347457
20
-364.24174055628669
30
0
11
16.720785718347884
21
-356.70751483518615
31
0
0
ARC
5
114
100
AcDbEntity
8
0
100
AcDbCircle
10
23.300895518435638
20
-356.7075156056905
30
0
40
6.5801098000878966
210
0
220
-0
230
1
100
AcDbArc
50
90
51
179.99999327737959
0
LINE
5
115
100
AcDbEntity
8
0
100
AcDbLine
10
23.300895518435638
20
-350.12740580560262
30
0
11
73.655185763607633
21
-350.1274058056029
31
0
0
ARC
5
116
100
AcDbEntity
8
0
100
AcDbCircle
10
73.655185763607662
20
-356.70751483518643
30
0
40
6.5801098000876568
210
0
220
0
230
1
100
AcDbArc
50
0
51
90.000000000000256
0
LINE
5
117
100
AcDbEntity
8
0
100
AcDbLine
10
80.235295563695317
20
-356.70751483518643
30
0
11
80.235295563695317
21
-364.24174055628669
31
0
0
LINE
5
118
100
AcDbEntity
8
0
100
AcDbLine
10
80.235295563695317
20
-364.24174055628669
30
0
11
55.535208401616885
21
-364.24174055628669
31
0
0
LINE
5
119
100
AcDbEntity
8
0
100
AcDbLine
10
55.535208401616885
20
-364.24174055628669
30
0
11
55.535208401617027
21
-397.09129370577557
31
0
0
LINE
5
120
100
AcDbEntity
8
0
100
AcDbLine
10
55.535208401617027
20
-397.09129370577557
30
0
11
80.235295563695459
21
-397.09129370577557
31
0
0
LINE
5
121
100
AcDbEntity
8
0
100
AcDbLine
10
80.235295563695459
20
-397.09129370577557
30
0
11
80.235295563695601
21
-404.62551942687583
31
0
0
ARC
5
122
100
AcDbEntity
8
0
100
AcDbCircle
10
73.655185763607733
20
-404.62551942687577
30
0
40
6.5801098000878966
210
0
220
0
230
1
100
AcDbArc
50
270.00000000000034
51
360
0
LWPOLYLINE
5
123
100
AcDbEntity
8
0
100
AcDbPolyline
90
22
70
1
43
0.0
10
73.655185763607633
20
-129.4802370514887
10
23.300895518435638
20
-129.4802370514887
42
0.41421356237309387
10
16.72078571834767
20
-136.06034685157667
10
16.720785718347457
20
-143.59457659504699
10
55.216842531140102
20
-143.5945729180398
42
-0.70020757379669019
10
56.062765266817536
20
-145.91872618755133
10
34.895643512678589
20
-163.68005024453339
42
0.46630765815552599
10
34.895643512678589
20
-165.6963128635212
10
56.062765266816797
20
-183.45763692050303
42
-0.70020757379664655
10
55.216842531140102
20
-185.78179019001482
10
16.720785718347457
20
-185.78178651300789
10
16.720785718347457
20
-193.31601625647778
42
0.41421356237309154
10
23.300895518435638
20
-199.89612605656561
10
73.655185763606354
20
-199.89612605656589
42
0.41421356237315238
10
80.235295563695317
20
-193.31601625647778
10
80.235295563695317
20
-186.39546165363367
42
0.22169466264247556
10
79.765196213652274
20
-185.3873303441398
10
56.298355389290144
20
-165.69631286352023
42
-0.46630765815502778
10
56.298355389291288
20
-163.68005024453339
10
79.765196213652771
20
-143.98903276391465
42
0.22169466264295637
10
80.235295563695743
20
-142.9809014544206
10
80.235295563696241
20
-136.06034685157667
42
0.41421356237309626
0
LWPOLYLINE
5
124
100
AcDbEntity
8
0
100
AcDbPolyline
90
16
70
1
43
0.0
10
131.56795031582703
20
-8.8817841970012523e-15
42
-0.41421356237309515
10
150.61795031582702
20
-19.050000000000011
10
150.61795031582736
20
-678.98862181084382
42
-0.41421356237309093
10
131.56795031582732
20
-698.03862181084378
10
-104.51471763410765
20
-698.03862181084367
42
-0.41421356237310075
10
-117.21471763410761
20
-685.33862181084373
10
-117.2147176341077
20
-534.50586770051984
42
-0.19891236737966009
10
-113.49497375517679
20
-525.5256115794507
10
-56.505748706447761
20
-468.53638653072153
42
0.19891236737965673
10
-45.346517069655334
20
-441.5956181675142
10
-45.346517069655292
20
-285.03824345886329
42
0.19891236737965834
10
-56.505748706447747
20
-258.09747509565568
10
-253.42661457898663
20
-61.176609223116401
42
-0.19891236737965881
10
-257.14635845791753
20
-52.196353102047226
10
-257.14635845791736
20
-12.699999999999825
42
-0.41421356237309442
10
-244.4463584579176
20
-5.8293187639412454e-16
0
ENDSEC
0
SECTION
2
OBJECTS
0
DICTIONARY
5
C
100
AcDbDictionary
3
ACAD_GROUP
350
D
3
ACAD_MLINESTYLE
350
17
0
DICTIONARY
5
D
100
AcDbDictionary
0
DICTIONARY
5
1A
330
C
100
AcDbDictionary
0
DICTIONARY
5
17
100
AcDbDictionary
0
ENDSEC
0
EOF
