0
SECTION
2
HEADER
9
$INSUNITS
70
4
9
$ACADVER
1
AC1014
9
$HANDSEED
5
FFFF
0
ENDSEC
0
SECTION
2
TABLES
0
TABLE
2
VPORT
5
8
100
AcDbSymbolTable
0
ENDTAB
0
TABLE
2
LTYPE
5
5
100
AcDbSymbolTable
0
LTYPE
5
14
100
AcDbSymbolTableRecord
100
AcDbLinetypeTableRecord
2
BYBLOCK
70
0
0
LTYPE
5
15
100
AcDbSymbolTableRecord
100
AcDbLinetypeTableRecord
2
BYLAYER
70
0
0
ENDTAB
0
TABLE
2
LAYER
5
2
100
AcDbSymbolTable
70
2
0
LAYER
5
50
100
AcDbSymbolTableRecord
100
AcDbLayerTableRecord
2
0
70
0
6
CONTINUOUS
0
ENDTAB
0
TABLE
2
STYLE
5
3
100
AcDbSymbolTable
70
1
0
STYLE
5
11
100
AcDbSymbolTableRecord
100
AcDbTextStyleTableRecord
2
STANDARD
70
0
0
ENDTAB
0
TABLE
2
VIEW
5
6
100
AcDbSymbolTable
70
0
0
ENDTAB
0
TABLE
2
UCS
5
7
100
AcDbSymbolTable
70
0
0
ENDTAB
0
TABLE
2
APPID
5
9
100
AcDbSymbolTable
70
2
0
APPID
5
12
100
AcDbSymbolTableRecord
100
AcDbRegAppTableRecord
2
ACAD
70
0
0
ENDTAB
0
TABLE
2
DIMSTYLE
5
A
100
AcDbSymbolTable
70
1
0
ENDTAB
0
TABLE
2
BLOCK_RECORD
5
1
100
AcDbSymbolTable
70
1
0
BLOCK_RECORD
5
1F
100
AcDbSymbolTableRecord
100
AcDbBlockTableRecord
2
*MODEL_SPACE
0
BLOCK_RECORD
5
1B
100
AcDbSymbolTableRecord
100
AcDbBlockTableRecord
2
*PAPER_SPACE
0
ENDTAB
0
ENDSEC
0
SECTION
2
BLOCKS
0
BLOCK
5
20
100
AcDbEntity
100
AcDbBlockBegin
2
*MODEL_SPACE
0
ENDBLK
5
21
100
AcDbEntity
100
AcDbBlockEnd
0
BLOCK
5
1C
100
AcDbEntity
100
AcDbBlockBegin
2
*PAPER_SPACE
0
ENDBLK
5
1D
100
AcDbEntity
100
AcDbBlockEnd
0
ENDSEC
0
SECTION
2
ENTITIES
0
LWPOLYLINE
5
100
100
AcDbEntity
8
0
100
AcDbPolyline
90
12
70
1
43
0.0
10
-688.23200156269593
20
-549.27048738315068
10
-430.15577360459162
20
-549.27048738315079
42
0.19891236737965715
10
-399.17388998690313
20
-536.43737100083945
10
-287.68012481146229
20
-424.94360582539866
42
0.19891236737965831
10
-274.84700842915095
20
-393.96172220771007
10
-274.84700842915066
20
-161.28549348666627
42
0.41421356237309531
10
-318.66200842915072
20
-117.47049348666629
10
-577.90637388841856
20
-117.4704934866661
42
0.19891236737965801
10
-608.88825750610704
20
-130.30360986897762
10
-719.21388518038395
20
-240.62923754325465
42
0.19891236737965873
10
-732.04700156269564
20
-271.6111211609433
10
-732.04700156269598
20
-505.45548738315068
42
0.41421356237309503
0
LWPOLYLINE
5
101
100
AcDbEntity
8
0
100
AcDbPolyline
90
24
70
1
43
0.0
10
-438.69674457560882
20
-861.2328907657286
42
-0.41421356237308432
10
-448.37414457560885
20
-870.91029076572863
10
-583.91986503476789
20
-870.91029076572852
42
-0.41421356237307999
10
-593.59726503476782
20
-861.23289076572871
10
-593.59726503476804
20
-725.99868604025482
10
-598.35726503476803
20
-725.99868604025482
10
-598.35726503476803
20
-747.84017278350359
42
-0.16654892612961461
10
-620.53803339797537
20
-736.97945440346246
10
-677.52725844670431
20
-679.99022935473351
42
0.19891236737966012
10
-686.50751456777357
20
-676.27048547580262
10
-838.08781939356425
20
-676.27048547580239
42
-0.41421356237310819
10
-850.78781939356406
20
-663.57048547580257
10
-850.78781939356406
20
-19.05000000000015
42
-0.41421356237309093
10
-831.73781939356388
20
0
10
-172.30835838427868
20
4.4408920985006262e-15
42
-0.41421356237309509
10
-153.25835838427867
20
-19.050000000000011
10
-153.25835838427867
20
-523.63884465199271
42
-0.41421356237309426
10
-165.9583583842786
20
-536.33884465199276
10
-205.85485421879312
20
-536.33884465199264
42
0.19891236737965695
10
-214.83511033986233
20
-540.05858853092343
10
-411.75597621240161
20
-736.97945440346234
42
-0.16654892612960412
10
-433.93674457560917
20
-747.84017278350348
10
-433.93674457560911
20
-725.99868604025482
10
-438.6967445756091
20
-725.99868604025482
0
ENDSEC
0
SECTION
2
OBJECTS
0
DICTIONARY
5
C
100
AcDbDictionary
3
ACAD_GROUP
350
D
3
ACAD_MLINESTYLE
350
17
0
DICTIONARY
5
D
100
AcDbDictionary
0
DICTIONARY
5
1A
330
C
100
AcDbDictionary
0
DICTIONARY
5
17
100
AcDbDictionary
0
ENDSEC
0
EOF
