0
SECTION
2
HEADER
9
$INSUNITS
70
4
9
$ACADVER
1
AC1014
9
$HANDSEED
5
FFFF
0
ENDSEC
0
SECTION
2
TABLES
0
TABLE
2
VPORT
5
8
100
AcDbSymbolTable
0
ENDTAB
0
TABLE
2
LTYPE
5
5
100
AcDbSymbolTable
0
LTYPE
5
14
100
AcDbSymbolTableRecord
100
AcDbLinetypeTableRecord
2
BYBLOCK
70
0
0
LTYPE
5
15
100
AcDbSymbolTableRecord
100
AcDbLinetypeTableRecord
2
BYLAYER
70
0
0
ENDTAB
0
TABLE
2
LAYER
5
2
100
AcDbSymbolTable
70
2
0
LAYER
5
50
100
AcDbSymbolTableRecord
100
AcDbLayerTableRecord
2
0
70
0
6
CONTINUOUS
0
ENDTAB
0
TABLE
2
STYLE
5
3
100
AcDbSymbolTable
70
1
0
STYLE
5
11
100
AcDbSymbolTableRecord
100
AcDbTextStyleTableRecord
2
STANDARD
70
0
0
ENDTAB
0
TABLE
2
VIEW
5
6
100
AcDbSymbolTable
70
0
0
ENDTAB
0
TABLE
2
UCS
5
7
100
AcDbSymbolTable
70
0
0
ENDTAB
0
TABLE
2
APPID
5
9
100
AcDbSymbolTable
70
2
0
APPID
5
12
100
AcDbSymbolTableRecord
100
AcDbRegAppTableRecord
2
ACAD
70
0
0
ENDTAB
0
TABLE
2
DIMSTYLE
5
A
100
AcDbSymbolTable
70
1
0
ENDTAB
0
TABLE
2
BLOCK_RECORD
5
1
100
AcDbSymbolTable
70
1
0
BLOCK_RECORD
5
1F
100
AcDbSymbolTableRecord
100
AcDbBlockTableRecord
2
*MODEL_SPACE
0
BLOCK_RECORD
5
1B
100
AcDbSymbolTableRecord
100
AcDbBlockTableRecord
2
*PAPER_SPACE
0
ENDTAB
0
ENDSEC
0
SECTION
2
BLOCKS
0
BLOCK
5
20
100
AcDbEntity
100
AcDbBlockBegin
2
*MODEL_SPACE
0
ENDBLK
5
21
100
AcDbEntity
100
AcDbBlockEnd
0
BLOCK
5
1C
100
AcDbEntity
100
AcDbBlockBegin
2
*PAPER_SPACE
0
ENDBLK
5
1D
100
AcDbEntity
100
AcDbBlockEnd
0
ENDSEC
0
SECTION
2
ENTITIES
0
LWPOLYLINE
5
100
100
AcDbEntity
8
0
100
AcDbPolyline
90
252
70
1
43
0.0
10
5.3115298577327721
20
254.42379535467168
10
5.3115298577326708
20
260.30000000000018
10
55.228452934655749
20
260.30000000000041
10
55.228452934655785
20
254.42379535467197
42
0.41421356237313406
10
56.228452934655778
20
253.42379535467202
10
58.728452934655792
20
253.42379535467231
42
0.41421356237310802
10
59.728452934655849
20
254.42379535467197
10
59.728452934655778
20
260.30000000000041
10
75.849199227585643
20
260.30000000000041
42
-0.094154374655120374
10
108.85647224890042
20
254.02884764342858
10
106.57636113278684
20
248.64358280118708
42
0.41421356237314555
10
107.1073313398536
20
247.33283086462265
10
109.40948401939274
20
246.35810370275053
42
0.41421356237308216
10
110.72023595595722
20
246.88907390981726
10
113.0003470720707
20
252.27433875205887
42
-0.090214171505749535
10
139.48880953437515
20
233.93961030678966
10
151.88245758123333
20
221.5459622599316
10
147.7273534288822
20
217.39085810758027
42
0.41421356237309875
10
147.72735342888228
20
215.97664454520739
10
149.49512038184847
20
214.20887759224073
42
0.41421356237306561
10
150.90933394422171
20
214.20887759224073
10
155.06443809657281
20
218.36398174459205
10
190.36103290023254
20
183.06738694093283
10
186.2059287478815
20
178.91228278858176
42
0.41421356237308771
10
186.20592874788167
20
177.49806922620891
10
187.97369570084786
20
175.73030227324222
42
0.414213562373073
10
189.3879092632211
20
175.73030227324224
10
193.54301341557203
20
179.88540642559329
10
228.83960821923193
20
144.58881162193379
10
224.68450406688075
20
140.43370746958243
42
0.4142135623730766
10
224.68450406688089
20
139.01949390720958
10
226.4522710198471
20
137.25172695424288
42
0.41421356237303986
10
227.86648458222032
20
137.25172695424291
10
232.02158873457142
20
141.40683110659424
10
267.31818353823098
20
106.11023630293502
10
263.16307938587994
20
101.95513215058396
42
0.4142135623730766
10
263.16307938588005
20
100.5409185882111
10
264.93084633884627
20
98.773151635244417
42
0.41421356237304724
10
266.34505990121954
20
98.773151635244432
10
270.50016405357047
20
102.92825578759576
10
305.79675885723037
20
67.631660983936257
10
301.64165470487916
20
63.476556831584631
42
0.4142135623730766
10
301.64165470487933
20
62.062343269211766
10
303.40942165784548
20
60.294576316245369
42
0.41421356237305829
10
304.82363522021876
20
60.294576316245383
10
308.97873937256986
20
64.449680468596711
10
344.27533417622942
20
29.153085664937208
10
340.12023002387832
20
24.997981512586129
42
0.41421356237311713
10
340.12023002387849
20
23.583767950213286
10
341.88799697684476
20
21.816000997246583
42
0.41421356237308216
10
343.30221053921787
20
21.816000997246618
10
347.45731469156885
20
25.971105149597946
10
354.34162327676205
20
19.086796564405041
42
-0.11207914732169912
10
375.58155734464668
20
-14.628526837801559
10
370.01931505496236
20
-16.434473911710221
42
0.41421356237314211
10
369.37700197663003
20
-17.694408001019184
10
370.14902824035084
20
-20.072216960571041
42
0.4142135623731909
10
371.4089623296602
20
-20.714530038903689
10
376.97120461934435
20
-18.908582964994984
42
-0.072360788629930478
10
380.70201296997283
20
-44.552813742383961
10
380.70201296997288
20
-68.46494262171845
10
374.82580832464532
20
-68.46494262171845
42
0.41421356237309764
10
373.82580832464549
20
-69.464942621718393
10
373.82580832464544
20
-71.964942621718677
42
0.41421356237315488
10
374.82580832464544
20
-72.96494262171862
10
380.70201296997288
20
-72.96494262171862
10
380.70201296997311
20
-122.88186569864152
10
374.82580832464527
20
-122.88186569864138
42
0.41421356237316787
10
373.82580832464544
20
-123.88186569864146
10
373.82580832464544
20
-126.38186569864146
42
0.41421356237314705
10
374.82580832464527
20
-127.38186569864155
10
380.70201296997317
20
-127.38186569864155
10
380.7020129699734
20
-177.29878877556459
10
374.82580832464555
20
-177.29878877556445
42
0.41421356237313667
10
373.82580832464566
20
-178.29878877556453
10
373.82580832464561
20
-180.79878877556453
42
0.41421356237311585
10
374.82580832464549
20
-181.79878877556462
10
380.7020129699734
20
-181.79878877556462
10
380.7020129699734
20
-190.29999999999831
42
-0.14900006434992094
10
368.80361968864429
20
-229.34104630653209
10
364.06345600532114
20
-225.92976323066321
42
0.41421356237316398
10
362.66766859364952
20
-226.1573099322851
10
361.20736770608698
20
-228.18647757390181
42
0.414213562373141
10
361.43491440770879
20
-229.58226498557352
10
366.17507809103188
20
-232.99354806144237
42
-0.18018482450681855
10
324.72987829395203
20
-258.88001891551301
10
323.74405883407979
20
-253.12379063990178
42
0.41421356237312401
10
322.5896054424208
20
-252.30694465289631
10
320.12548121909015
20
-252.72895390871327
42
0.41421356237310858
10
319.30863523208444
20
-253.88340730037214
10
320.29445469195696
20
-259.63963557598322
42
-0.034380394729571793
10
310.70201296997379
20
-260.29999999999859
10
270.40819783928151
20
-260.2999999999987
10
270.40819783928146
20
-254.42379535467083
42
0.41421356237312623
10
269.40819783928146
20
-253.42379535467089
10
266.90819783928146
20
-253.42379535467089
42
0.41421356237311585
10
265.90819783928134
20
-254.42379535467083
10
265.90819783928146
20
-260.2999999999987
10
215.99127476235847
20
-260.29999999999905
10
215.99127476235836
20
-254.42379535467111
42
0.41421356237312623
10
214.99127476235839
20
-253.42379535467117
10
212.49127476235839
20
-253.42379535467117
42
0.41421356237311585
10
211.4912747623583
20
-254.42379535467111
10
211.49127476235844
20
-260.29999999999905
10
161.5743516854354
20
-260.29999999999916
10
161.57435168543529
20
-254.42379535467126
42
0.41421356237312623
10
160.57435168543532
20
-253.42379535467131
10
158.07435168543529
20
-253.42379535467131
42
0.41421356237314183
10
157.07435168543523
20
-254.42379535467126
10
157.07435168543532
20
-260.29999999999916
10
107.15742860851211
20
-260.29999999999944
10
107.15742860851209
20
-254.42379535467154
42
0.41421356237313145
10
106.15742860851208
20
-253.4237953546716
10
103.65742860851211
20
-253.4237953546716
42
0.41421356237312623
10
102.65742860851203
20
-254.42379535467154
10
102.65742860851205
20
-260.29999999999944
10
52.740505531589051
20
-260.29999999999961
10
52.740505531589022
20
-254.42379535467168
42
0.41421356237314705
10
51.740505531589029
20
-253.42379535467174
10
49.240505531589022
20
-253.42379535467188
42
0.41421356237312623
10
48.240505531588965
20
-254.42379535467182
10
48.240505531589022
20
-260.29999999999973
10
-1.6764175453341612
20
-260.29999999999984
10
-1.6764175453341883
20
-254.42379535467197
42
0.41421356237313534
10
-2.6764175453341887
20
-253.42379535467202
10
-5.1764175453341945
20
-253.42379535467202
42
0.4142135623731279
10
-6.1764175453342514
20
-254.42379535467197
10
-6.1764175453341874
20
-260.29999999999984
10
-54.363565247053948
20
-260.30000000000018
10
-54.363565247054012
20
-254.42379535467225
42
0.41421356237314705
10
-55.363565247054005
20
-253.42379535467231
10
-57.863565247054012
20
-253.42379535467231
42
0.41421356237312623
10
-58.863565247054069
20
-254.42379535467225
10
-58.863565247053977
20
-260.30000000000018
10
-75.849199227585871
20
-260.3000000000003
42
-0.091731154362501705
10
-108.0503377715148
20
-254.34217201188204
10
-105.82208279998801
20
-248.93524461226036
42
0.41421356237312984
10
-106.36562444275481
20
-247.62965567136888
10
-108.67703767232776
20
-246.67709654871274
42
0.41421356237309986
10
-109.98262661321932
20
-247.22063819147948
10
-112.21088158474601
20
-252.62756559110116
42
-0.092636719720349009
10
-139.48880953437526
20
-233.9396103067898
10
-151.27088963236514
20
-222.15753020880001
10
-147.11578548001373
20
-218.00242605644837
42
0.41421356237314655
10
-147.11578548001381
20
-216.58821249407538
10
-148.88355243298017
20
-214.820445541109
42
0.41421356237312079
10
-150.29776599535325
20
-214.820445541109
10
-154.45287014770472
20
-218.97554969346061
10
-189.74946495136433
20
-183.67895488980125
10
-185.59436079901289
20
-179.52385073744949
42
0.41421356237312451
10
-185.59436079901303
20
-178.10963717507647
10
-187.36212775197939
20
-176.3418702221102
42
0.41421356237313184
10
-188.77634131435246
20
-176.34187022211023
10
-192.93144546670388
20
-180.4969743744617
10
-228.22804027036352
20
-145.20037957080234
10
-224.07293611801208
20
-141.04527541845073
42
0.41421356237312451
10
-224.07293611801222
20
-139.63106185607771
10
-225.84070307097858
20
-137.8632949031113
42
0.41421356237312812
10
-227.25491663335166
20
-137.86329490311132
10
-231.41002078570307
20
-142.01839905546265
10
-266.70661558936263
20
-106.72180425180343
10
-262.55151143701119
20
-102.56670009945182
42
0.41421356237313917
10
-262.5515114370113
20
-101.1524865370788
10
-264.31927838997763
20
-99.384719584112403
42
0.41421356237314283
10
-265.73349195235073
20
-99.384719584112418
10
-269.88859610470223
20
-103.53982373646389
10
-305.18519090836213
20
-68.243228932804101
10
-301.03008675601052
20
-64.088124780452773
42
0.41421356237310974
10
-301.03008675601063
20
-62.673911218079894
10
-302.79785370897696
20
-60.906144265113213
42
0.41421356237309137
10
-304.21206727135012
20
-60.906144265112943
10
-308.36717142370162
20
-65.061248417464839
10
-343.66376622736118
20
-29.764653613805621
10
-339.50866207500974
20
-25.609549461453689
42
0.41421356237311713
10
-339.50866207500985
20
-24.195335899080845
10
-341.27642902797629
20
-22.427568946114427
42
0.4142135623730932
10
-342.69064259034934
20
-22.427568946114178
10
-346.84574674270067
20
-26.582673098466074
10
-354.34162327676199
20
-19.086796564404732
42
-0.10964715255870176
10
-375.2900742070446
20
13.814240318209414
10
-369.74544338764963
20
15.673555568383087
42
0.4142135623731158
10
-369.1152675756021
20
16.939603926823423
10
-369.91010825859291
20
19.30988413993402
42
0.41421356237302637
10
-371.17615661703348
20
19.940059951981794
10
-376.7207874364284
20
18.080744701807756
42
-0.074776258503865545
10
-380.702012969973
20
44.552813742384245
10
-380.70201296997305
20
67.6000549341164
10
-374.82580832464475
20
67.6000549341164
42
0.41421356237309764
10
-373.82580832464492
20
68.600054934116343
10
-373.82580832464487
20
71.100054934116628
42
0.41421356237315488
10
-374.82580832464487
20
72.100054934116571
10
-380.70201296997305
20
72.100054934116571
10
-380.70201296997323
20
122.01697801103947
10
-374.82580832464527
20
122.01697801103947
42
0.41421356237312101
10
-373.82580832464544
20
123.01697801103941
10
-373.82580832464532
20
125.51697801103941
42
0.41421356237323032
10
-374.82580832464532
20
126.51697801103964
10
-380.70201296997323
20
126.51697801103964
10
-380.70201296997345
20
176.43390108796254
10
-374.82580832464549
20
176.43390108796254
42
0.41421356237309503
10
-373.82580832464561
20
177.43390108796248
10
-373.82580832464561
20
179.93390108796277
42
0.41421356237315748
10
-374.82580832464566
20
180.93390108796271
10
-380.70201296997357
20
180.93390108796271
10
-380.70201296997374
20
190.29999999999842
42
-0.14584404586630645
10
-369.28154574247594
20
228.62020798684753
10
-364.49959670301416
20
225.26775107401406
42
0.41421356237310186
10
-363.10672722044842
20
225.51252567346538
10
-361.67160861655532
20
227.55958077598748
42
0.41421356237306611
10
-361.91638321600681
20
228.95245025855317
10
-366.69833225546847
20
232.30490717138628
42
-0.18018482450681866
10
-325.57612906314
20
258.70146687350211
10
-324.51926535965458
20
252.95785798355621
42
0.41421356237309315
10
-323.35480777074542
20
252.1553378756262
10
-320.8960856496966
20
252.60775972684982
42
0.41421356237305035
10
-320.09356554176634
20
253.77221731575858
10
-321.15042924525176
20
259.5158262057048
42
-0.037473268716146028
10
-310.70201296997379
20
260.2999999999987
10
-271.27308552688265
20
260.29999999999905
10
-271.2730855268826
20
254.42379535467055
42
0.41421356237312623
10
-270.2730855268826
20
253.4237953546706
10
-267.7730855268826
20
253.42379535467089
42
0.41421356237310542
10
-266.77308552688254
20
254.42379535467055
10
-266.77308552688265
20
260.29999999999905
10
-216.85616244995958
20
260.29999999999927
10
-216.85616244995953
20
254.42379535467083
42
0.41421356237312623
10
-215.85616244995953
20
253.42379535467089
10
-213.35616244995953
20
253.42379535467117
42
0.41421356237310542
10
-212.3561624499595
20
254.42379535467083
10
-212.35616244995956
20
260.29999999999927
10
-162.43923937303651
20
260.29999999999961
10
-162.43923937303651
20
254.42379535467111
42
0.41421356237312623
10
-161.43923937303654
20
253.42379535467117
10
-158.93923937303654
20
253.42379535467146
42
0.41421356237311063
10
-157.93923937303649
20
254.42379535467111
10
-157.93923937303654
20
260.29999999999961
10
-108.02231629611347
20
260.29999999999961
10
-108.02231629611342
20
254.42379535467111
42
0.41421356237314705
10
-107.02231629611342
20
253.42379535467117
10
-104.52231629611342
20
253.42379535467146
42
0.41421356237310542
10
-103.52231629611337
20
254.42379535467111
10
-103.52231629611344
20
260.29999999999961
10
-53.605393219190354
20
260.29999999999984
10
-53.605393219190319
20
254.4237953546714
42
0.41421356237313406
10
-52.605393219190326
20
253.42379535467146
10
-50.105393219190319
20
253.42379535467174
42
0.41421356237310802
10
-49.105393219190255
20
254.4237953546714
10
-49.105393219190361
20
260.29999999999984
10
0.81152985773267572
20
260.30000000000018
10
0.81152985773270681
20
254.42379535467168
42
0.41421356237313556
10
1.8115298577327077
20
253.42379535467174
10
4.3115298577327135
20
253.42379535467202
42
0.41421356237311113
0
CIRCLE
5
101
100
AcDbEntity
8
0
100
AcDbCircle
10
-214.06420992058389
20
244.79999999254872
30
0
40
2.0000000000000995
210
-0
220
0
230
1
0
CIRCLE
5
102
100
AcDbEntity
8
0
100
AcDbCircle
10
104.35911493593369
20
239.12902516520816
30
0
40
2.0000000000000462
210
-0
220
0
230
1
0
CIRCLE
5
103
100
AcDbEntity
8
0
100
AcDbCircle
10
289.6682647275054
20
61.83984488634124
30
0
40
2.0000000000000639
210
-0
220
0
230
1
0
CIRCLE
5
104
100
AcDbEntity
8
0
100
AcDbCircle
10
365.20201296252242
20
-80.989610306787796
30
0
40
1.9999999999998863
210
-0
220
0
230
1
0
CIRCLE
5
105
100
AcDbEntity
8
0
100
AcDbCircle
10
349.23933253937207
20
-228.83731956939698
30
0
40
1.9999999999999574
210
-0
220
0
230
1
0
CIRCLE
5
106
100
AcDbEntity
8
0
100
AcDbCircle
10
20.78860382180396
20
-244.79999999254915
30
0
40
2.0000000000000062
210
-0
220
0
230
1
0
CIRCLE
5
107
100
AcDbEntity
8
0
100
AcDbCircle
10
-182.24185785631218
20
-169.26625175753358
30
0
40
2.0000000000000639
210
-0
220
0
230
1
0
CIRCLE
5
108
100
AcDbEntity
8
0
100
AcDbCircle
10
-365.20201296252242
20
44.552813742384529
30
0
40
1.9999999999998863
210
-0
220
0
230
1
0
CIRCLE
5
109
100
AcDbEntity
8
0
100
AcDbCircle
10
-365.20201296252299
20
190.29999999999873
30
0
40
2.0000000000000284
210
-0
220
0
230
1
0
CIRCLE
5
110
100
AcDbEntity
8
0
100
AcDbCircle
10
-349.23933253937213
20
228.83731956939712
30
0
40
2.0000000000000284
210
-0
220
0
230
1
0
CIRCLE
5
111
100
AcDbEntity
8
0
100
AcDbCircle
10
-365.20201296252253
20
80.98961030678808
30
0
40
2.0000000000000284
210
-0
220
0
230
1
0
CIRCLE
5
112
100
AcDbEntity
8
0
100
AcDbCircle
10
-235.95506129190883
20
-115.55304832193741
30
0
40
2.0000000000000284
210
-0
220
0
230
1
0
CIRCLE
5
113
100
AcDbEntity
8
0
100
AcDbCircle
10
-75.849199227585942
20
-244.79999999254957
30
0
40
2.0000000000000018
210
-0
220
0
230
1
0
CIRCLE
5
114
100
AcDbEntity
8
0
100
AcDbCircle
10
310.70201296997368
20
-244.79999999254801
30
0
40
2.0000000000000284
210
-0
220
0
230
1
0
CIRCLE
5
115
100
AcDbEntity
8
0
100
AcDbCircle
10
365.20201296252253
20
-117.4264068711912
30
0
40
1.9999999999999574
210
-0
220
0
230
1
0
CIRCLE
5
116
100
AcDbEntity
8
0
100
AcDbCircle
10
343.38146816310206
20
8.1266414507452112
30
0
40
2.0000000000000995
210
-0
220
0
230
1
0
CIRCLE
5
117
100
AcDbEntity
8
0
100
AcDbCircle
10
128.5286544207153
20
222.97945519312989
30
0
40
2.0000000000000995
210
-0
220
0
230
1
0
CIRCLE
5
118
100
AcDbEntity
8
0
100
AcDbCircle
10
-117.42640687119405
20
244.799999992549
30
0
40
1.9999999999999929
210
-0
220
0
230
1
0
CIRCLE
5
119
100
AcDbEntity
8
0
100
AcDbCircle
10
75.849199227585657
20
244.79999999254986
30
0
40
2.0000000000000462
210
-0
220
0
230
1
0
CIRCLE
5
120
100
AcDbEntity
8
0
100
AcDbCircle
10
235.95506129190869
20
115.55304832193727
30
0
40
1.9999999999999929
210
-0
220
0
230
1
0
CIRCLE
5
121
100
AcDbEntity
8
0
100
AcDbCircle
10
365.20201296252225
20
-44.552813742384245
30
0
40
1.9999999999998863
210
-0
220
0
230
1
0
CIRCLE
5
122
100
AcDbEntity
8
0
100
AcDbCircle
10
365.20201296252282
20
-190.29999999999831
30
0
40
2.0000000000000284
210
-0
220
0
230
1
0
CIRCLE
5
123
100
AcDbEntity
8
0
100
AcDbCircle
10
117.42640687119385
20
-244.79999999254886
30
0
40
2.0000000000000284
210
-0
220
0
230
1
0
CIRCLE
5
124
100
AcDbEntity
8
0
100
AcDbCircle
10
-128.5286544207155
20
-222.97945519312989
30
0
40
1.9999999999999751
210
-0
220
0
230
1
0
CIRCLE
5
125
100
AcDbEntity
8
0
100
AcDbCircle
10
-343.02791476724059
20
-8.4801948466063948
30
0
40
1.9999999999999574
210
-0
220
0
230
1
0
CIRCLE
5
126
100
AcDbEntity
8
0
100
AcDbCircle
10
-365.20201296252282
20
153.86320343559518
30
0
40
2.0000000000000284
210
-0
220
0
230
1
0
CIRCLE
5
127
100
AcDbEntity
8
0
100
AcDbCircle
10
-310.70201296997374
20
244.79999999254815
30
0
40
1.9999999999999929
210
-0
220
0
230
1
0
CIRCLE
5
128
100
AcDbEntity
8
0
100
AcDbCircle
10
-365.20201296252264
20
117.42640687119163
30
0
40
2.0000000000000284
210
-0
220
0
230
1
0
CIRCLE
5
129
100
AcDbEntity
8
0
100
AcDbCircle
10
-289.49148802957473
20
-62.016621584271689
30
0
40
1.9999999999999929
210
-0
220
0
230
1
0
CIRCLE
5
130
100
AcDbEntity
8
0
100
AcDbCircle
10
-104.35911493593395
20
-239.12902516520774
30
0
40
1.9999999999999574
210
-0
220
0
230
1
0
CIRCLE
5
131
100
AcDbEntity
8
0
100
AcDbCircle
10
214.06420992058378
20
-244.79999999254844
30
0
40
1.9999999999999574
210
-0
220
0
230
1
0
CIRCLE
5
132
100
AcDbEntity
8
0
100
AcDbCircle
10
365.20201296252264
20
-153.86320343559476
30
0
40
2.0000000000000284
210
-0
220
0
230
1
0
CIRCLE
5
133
100
AcDbEntity
8
0
100
AcDbCircle
10
359.5310381351801
20
-16.042898034036313
30
0
40
1.9999999999999574
210
-0
220
0
230
1
0
CIRCLE
5
134
100
AcDbEntity
8
0
100
AcDbCircle
10
182.24185785631198
20
169.26625175753387
30
0
40
2.0000000000000639
210
-0
220
0
230
1
0
CIRCLE
5
135
100
AcDbEntity
8
0
100
AcDbCircle
10
-20.788603821804195
20
244.79999999254957
30
0
40
1.9999999999999996
210
-0
220
0
230
1
0
CIRCLE
5
136
100
AcDbEntity
8
0
100
AcDbCircle
10
-334.00025114235609
20
26.566165110816229
30
0
40
1.9999999999999574
210
-0
220
0
230
1
0
CIRCLE
5
137
100
AcDbEntity
8
0
100
AcDbCircle
10
329.44034266088022
20
-209.0383296909053
30
0
40
2.0000000000000284
210
-0
220
0
230
1
0
CIRCLE
5
138
100
AcDbEntity
8
0
100
AcDbCircle
10
-117.42640687119393
20
216.79999998509842
30
0
40
1.9999999999999929
210
-0
220
0
230
1
0
CIRCLE
5
139
100
AcDbEntity
8
0
100
AcDbCircle
10
93.643978826860092
20
213.26039824800844
30
0
40
2.0000000000000817
210
-0
220
0
230
1
0
CIRCLE
5
140
100
AcDbEntity
8
0
100
AcDbCircle
10
117.42640687119375
20
-216.79999998509828
30
0
40
1.9999999999999929
210
-0
220
0
230
1
0
CIRCLE
5
141
100
AcDbEntity
8
0
100
AcDbCircle
10
-216.15607141341724
20
-95.754058443445587
30
0
40
1.9999999999999929
210
-0
220
0
230
1
0
CIRCLE
5
142
100
AcDbEntity
8
0
100
AcDbCircle
10
333.66241121798083
20
-26.758034143110052
30
0
40
2.0000000000000284
210
-0
220
0
230
1
0
CIRCLE
5
143
100
AcDbEntity
8
0
100
AcDbCircle
10
-329.44034266088039
20
209.03832969090544
30
0
40
1.9999999999999574
210
-0
220
0
230
1
0
CIRCLE
5
144
100
AcDbEntity
8
0
100
AcDbCircle
10
216.1560714134171
20
95.754058443445871
30
0
40
1.9999999999999929
210
-0
220
0
230
1
0
CIRCLE
5
145
100
AcDbEntity
8
0
100
AcDbCircle
10
-93.643978826860319
20
-213.2603982480083
30
0
40
1.9999999999999574
210
-0
220
0
230
1
0
LWPOLYLINE
5
146
100
AcDbEntity
8
0
100
AcDbPolyline
90
12
70
1
43
0.0
10
314.74364351977874
20
-20.511183192578386
10
99.890829777391815
20
194.3416305498063
42
0.1989123673796582
10
75.849199227585899
20
204.29999998509928
10
-310.70201296997351
20
204.29999998509757
42
0.41421356237309431
10
-324.70201295507241
20
190.29999999999873
10
-324.70201295507167
20
44.552813742384707
42
0.19891236737965898
10
-314.74364351977869
20
20.51118319257867
10
-99.890829777392028
20
-194.34163054980641
42
0.19891236737965712
10
-75.849199227586041
20
-204.29999998509928
10
310.70201296997357
20
-204.29999998509757
42
0.41421356237309354
10
324.70201295507223
20
-190.29999999999859
10
324.70201295507172
20
-44.552813742384423
42
0.19891236737965862
0
LWPOLYLINE
5
147
100
AcDbEntity
8
0
100
AcDbPolyline
90
12
70
1
43
0.0
10
-30.874816077826146
20
59.968912953758178
10
-30.874816077826047
20
36.07102579989018
10
-12.017850946781767
20
36.071025799890755
42
-0.41421356237309492
10
-7.260777418554528
20
31.31395227166351
10
-7.2607774185539853
20
-30.766206978629906
42
-0.41421356237309492
10
-12.017850946781488
20
-35.523280506857446
10
-30.874816077825749
20
-35.523280506857446
10
-30.874816077825646
20
-59.421167660724876
10
-2.3911843775945929
20
-59.421167660724308
42
0.41421356237309365
10
16.637109735313143
20
-40.392873547817054
10
16.637109735312801
20
40.940618840851009
42
0.41421356237309459
10
-2.3911843775950903
20
59.968912953758178
0
LWPOLYLINE
5
148
100
AcDbEntity
8
0
100
AcDbPolyline
90
13
70
1
43
0.0
10
33.900240386693305
20
39.133921610424096
10
33.900240386693341
20
29.619774553970473
42
0.41421356237309614
10
38.657313914920316
20
24.862701025743519
10
56.994601261506801
20
24.862701025743235
10
56.994601261507142
20
-54.664094132498221
42
0.41421356237311147
10
61.751674789733258
20
-59.421167660724024
10
75.935991441121729
20
-59.421167660724592
42
0.4142135623730967
10
80.693064969348683
20
-54.664094132497922
10
80.693064969348214
20
55.211839425531238
42
0.4142135623730967
10
75.935991441121246
20
59.968912953758746
10
61.925459384747342
20
59.968912953758746
10
60.101974047245164
20
54.66478845887557
42
-0.24620758484913158
10
47.793359934573132
20
43.039498043798261
0
LWPOLYLINE
5
149
100
AcDbEntity
8
0
100
AcDbPolyline
90
12
70
1
43
0.0
10
-34.680474900407724
20
36.071025799889895
10
-34.680474900407823
20
59.968912953757894
10
-63.164106600638881
20
59.968912953757894
42
0.41421356237309354
10
-82.192400713546618
20
40.94061884085064
10
-82.192400713546277
20
-40.392873547817423
42
0.41421356237310392
10
-63.164106600638384
20
-59.421167660725729
10
-34.680474900407326
20
-59.42116766072516
10
-34.680474900407425
20
-35.523280506857731
10
-53.537440031451709
20
-35.523280506857162
42
-0.41421356237309503
10
-58.294513559678663
20
-30.766206978630208
10
-58.294513559678634
20
31.313952271663208
42
-0.41421356237309503
10
-53.537440031451986
20
36.071025799889895
0
LWPOLYLINE
5
150
100
AcDbEntity
8
0
100
AcDbPolyline
90
12
70
1
43
0.0
10
-310.70201296997351
20
199.29999998509757
10
75.849199227585899
20
199.29999998509928
42
-0.19891236737965859
10
96.355295871459106
20
190.80609664387353
10
311.20810961384598
20
-24.046717098511397
42
-0.19891236737965556
10
319.70201295507167
20
-44.552813742384245
10
319.70201295507241
20
-190.2999999999987
42
-0.41421356237309387
10
310.70201296997362
20
-199.29999998509757
10
-75.84919922758607
20
-199.29999998509925
42
-0.19891236737965753
10
-96.355295871459319
20
-190.80609664387367
10
-311.20810961384598
20
24.046717098511632
42
-0.19891236737965556
10
-319.70201295507167
20
44.552813742384529
10
-319.70201295507229
20
190.2999999999987
42
-0.41421356237309387
0
ENDSEC
0
SECTION
2
OBJECTS
0
DICTIONARY
5
C
100
AcDbDictionary
3
ACAD_GROUP
350
D
3
ACAD_MLINESTYLE
350
17
0
DICTIONARY
5
D
100
AcDbDictionary
0
DICTIONARY
5
1A
330
C
100
AcDbDictionary
0
DICTIONARY
5
17
100
AcDbDictionary
0
ENDSEC
0
EOF
