0
SECTION
2
HEADER
9
$INSUNITS
70
4
9
$ACADVER
1
AC1014
9
$HANDSEED
5
FFFF
0
ENDSEC
0
SECTION
2
TABLES
0
TABLE
2
VPORT
5
8
100
AcDbSymbolTable
0
ENDTAB
0
TABLE
2
LTYPE
5
5
100
AcDbSymbolTable
0
LTYPE
5
14
100
AcDbSymbolTableRecord
100
AcDbLinetypeTableRecord
2
BYBLOCK
70
0
0
LTYPE
5
15
100
AcDbSymbolTableRecord
100
AcDbLinetypeTableRecord
2
BYLAYER
70
0
0
ENDTAB
0
TABLE
2
LAYER
5
2
100
AcDbSymbolTable
70
2
0
LAYER
5
50
100
AcDbSymbolTableRecord
100
AcDbLayerTableRecord
2
0
70
0
6
CONTINUOUS
0
ENDTAB
0
TABLE
2
STYLE
5
3
100
AcDbSymbolTable
70
1
0
STYLE
5
11
100
AcDbSymbolTableRecord
100
AcDbTextStyleTableRecord
2
STANDARD
70
0
0
ENDTAB
0
TABLE
2
VIEW
5
6
100
AcDbSymbolTable
70
0
0
ENDTAB
0
TABLE
2
UCS
5
7
100
AcDbSymbolTable
70
0
0
ENDTAB
0
TABLE
2
APPID
5
9
100
AcDbSymbolTable
70
2
0
APPID
5
12
100
AcDbSymbolTableRecord
100
AcDbRegAppTableRecord
2
ACAD
70
0
0
ENDTAB
0
TABLE
2
DIMSTYLE
5
A
100
AcDbSymbolTable
70
1
0
ENDTAB
0
TABLE
2
BLOCK_RECORD
5
1
100
AcDbSymbolTable
70
1
0
BLOCK_RECORD
5
1F
100
AcDbSymbolTableRecord
100
AcDbBlockTableRecord
2
*MODEL_SPACE
0
BLOCK_RECORD
5
1B
100
AcDbSymbolTableRecord
100
AcDbBlockTableRecord
2
*PAPER_SPACE
0
ENDTAB
0
ENDSEC
0
SECTION
2
BLOCKS
0
BLOCK
5
20
100
AcDbEntity
100
AcDbBlockBegin
2
*MODEL_SPACE
0
ENDBLK
5
21
100
AcDbEntity
100
AcDbBlockEnd
0
BLOCK
5
1C
100
AcDbEntity
100
AcDbBlockBegin
2
*PAPER_SPACE
0
ENDBLK
5
1D
100
AcDbEntity
100
AcDbBlockEnd
0
ENDSEC
0
SECTION
2
ENTITIES
0
LWPOLYLINE
5
100
100
AcDbEntity
8
0
100
AcDbPolyline
90
22
70
1
43
0.0
10
-108.98290395377281
20
88.134155153868576
42
-0.41421356237309503
10
-102.9027941536846
20
94.214264953956786
10
-95.868564457972951
20
94.214264953956786
10
-95.868568087221604
20
56.218208188922318
42
0.70020757379662568
10
-92.661392596150307
20
55.050891600644221
10
-74.900068539168444
20
76.218013354782443
42
-0.46630765815565484
10
-73.649850363299976
20
76.21801335478267
10
-55.88852630631763
20
55.050891600643439
42
0.70020757379670406
10
-52.681350815246617
20
56.218208188922603
10
-52.681354444495554
20
94.214264953956786
10
-45.647124748783483
20
94.214264953956572
42
-0.41421356237309331
10
-39.567014948695487
20
88.134155153868576
10
-39.56701494869484
20
37.779864908696581
42
-0.4142135623730957
10
-45.647124748783483
20
31.699755108607945
10
-52.567679351627419
20
31.699755108608446
42
-0.22169466264298132
10
-53.19278843956198
20
31.991248263494683
10
-72.88380592018072
20
55.458089087856237
42
0.4663076581549887
10
-75.666112982286506
20
55.458089087857516
10
-95.357130462906326
20
31.99124826349529
42
-0.22169466264242071
10
-95.982239550841086
20
31.699755108608869
10
-102.9027941536846
20
31.69975510860845
42
-0.41421356237315277
10
-108.98290395377273
20
37.779864908697789
0
LWPOLYLINE
5
101
100
AcDbEntity
8
0
100
AcDbPolyline
90
14
70
1
43
0.0
10
-182.36757849925289
20
88.134155153868576
42
-0.41421356237309165
10
-176.28746869916469
20
94.214264953956786
10
-169.25324297806398
20
94.214264953956786
10
-169.25324297806398
20
50.249172979863772
42
0.41421356237309503
10
-163.81816062799814
20
44.814090629798073
10
-138.40248652515868
20
44.814090629797576
42
0.41421356237304147
10
-132.96740417509341
20
50.249172979863772
10
-132.9674041750927
20
94.214264953956786
10
-125.93317845399241
20
94.214264953956857
42
-0.41421356237309681
10
-119.85306865390413
20
88.134155153868576
10
-119.85306865390392
20
47.650029608828675
42
-0.41421356237310042
10
-135.80334315412401
20
31.699755108608869
10
-166.41730399903267
20
31.699755108609232
42
-0.41421356237310009
10
-182.3675784992524
20
47.650029608828675
0
LWPOLYLINE
5
102
100
AcDbEntity
8
0
100
AcDbPolyline
90
6
70
1
43
0.0
10
-156.93973960905535
20
63.072739551046851
42
-0.51203900383895984
10
-161.14669131044494
20
68.911927607262982
10
-154.58465161761725
20
88.572971593781418
42
-0.72046860982866601
10
-147.63599485145392
20
88.572971593781489
10
-141.07395515862746
20
68.911927607262712
42
-0.51203900383886691
10
-145.28090686001661
20
63.072739551048187
0
LWPOLYLINE
5
103
100
AcDbEntity
8
0
100
AcDbPolyline
90
14
70
1
43
0.0
10
-249.34401900267787
20
44.814090629797576
10
-208.16810068059041
20
44.814090629797576
42
0.41421356237309503
10
-206.35207872057251
20
46.630112589815482
10
-206.35207872057251
20
79.283907472750528
42
0.41421356237300339
10
-208.16810068059041
20
81.099929432769002
10
-249.34401900267787
20
81.099929432768505
10
-249.34401823217343
20
84.844100253825019
42
-0.4142135623730967
10
-239.97385353204166
20
94.214264953956786
10
-209.18801769960382
20
94.214264953956473
42
-0.4142135623731063
10
-193.23774319938408
20
78.263990453737335
10
-193.23774319938343
20
47.650029608828675
42
-0.41421356237309392
10
-209.18801769960325
20
31.699755108608869
10
-239.9738535710743
20
31.699755108609267
42
-0.41421358523750251
10
-249.34401900267787
20
41.069919808740565
0
LWPOLYLINE
5
104
100
AcDbEntity
8
0
100
AcDbPolyline
90
16
70
1
43
0.0
10
-273.32851845349342
20
69.514177791877785
10
-273.32851845349342
20
94.214264953956786
10
-266.29429279094091
20
94.214264953956231
42
-0.41421352807648043
10
-260.21418370280958
20
88.134155153868576
10
-260.21418293230556
20
37.779864908696581
42
-0.41421356237309781
10
-266.29429273239327
20
31.699755108608869
10
-273.32851845349342
20
31.699755108608869
10
-273.32851845349342
20
56.399842270687301
10
-307.17807160298253
20
56.399842270687159
10
-307.17807160298253
20
31.699755108608656
10
-314.21229732408267
20
31.699755108608741
42
-0.41421356237309781
10
-320.29240712417038
20
37.779864908696439
10
-320.29240712417078
20
88.134155153868505
42
-0.41421356237309503
10
-314.21229732408267
20
94.214264953956643
10
-307.17807160298253
20
94.214264953956643
10
-307.17807160298253
20
69.514177791877714
0
LWPOLYLINE
5
105
100
AcDbEntity
8
0
100
AcDbPolyline
90
6
70
1
43
0.0
10
-338.19679754540277
20
31.699755108608766
42
-0.41421356237309315
10
-344.27690734549049
20
37.779864908696439
10
-344.27690734549049
20
94.214264953956643
10
-337.24268162438977
20
94.214264953955649
42
-0.41421356237310192
10
-331.16257182430263
20
88.134155153868505
10
-331.16257182430206
20
31.699755108608727
0
LWPOLYLINE
5
106
100
AcDbEntity
8
0
100
AcDbPolyline
90
16
70
1
43
0.0
10
-368.52745297430647
20
31.699755108608727
10
-401.58343250273833
20
71.094337468337656
42
0.70020753820982951
10
-404.79060799381034
20
69.927021053519951
10
-404.79060799380977
20
31.699755108608656
10
-411.82483371491048
20
31.699755108608766
42
-0.41421356237309315
10
-417.90494351499819
20
37.779864908696439
10
-417.90494351499859
20
88.134155153868505
42
-0.41421356237310103
10
-411.82483371491048
20
94.214264953956643
10
-404.5237618228872
20
94.214264953956643
10
-371.46778229445647
20
54.819682594228141
42
0.70020753820975468
10
-368.2606068033856
20
55.986999009045846
10
-368.26060680338503
20
94.214264953956643
10
-361.22638108228432
20
94.21426495395616
42
-0.41421356237309248
10
-355.14627128219661
20
88.134155153868505
10
-355.14627128219706
20
37.779864908696439
42
-0.41421356237309315
10
-361.22638108228489
20
31.699755108608727
0
LWPOLYLINE
5
107
100
AcDbEntity
8
0
100
AcDbPolyline
90
14
70
1
43
0.0
10
-486.69716774642995
20
44.814090629797505
10
-443.70546569633564
20
44.814090629797505
42
0.41421356237309503
10
-441.88944373631773
20
46.63011258981534
10
-441.88944373631773
20
79.283907472750386
42
0.41421356237281998
10
-443.70546569633507
20
81.099929432769287
10
-486.69716774642995
20
81.099929432768363
10
-486.69716774642978
20
88.134155153868434
42
-0.41421356237309931
10
-480.61705794634167
20
94.214264953956643
10
-434.85521801521759
20
94.214264953955649
42
-0.41421356237310192
10
-428.77510821513044
20
88.134155153868505
10
-428.77510821512897
20
37.779864908696439
42
-0.41421356237308987
10
-434.85521801521759
20
31.699755108607803
10
-480.61705794634224
20
31.699755108608766
42
-0.41421356237309315
10
-486.69716774642995
20
37.779864908696439
0
LINE
5
108
100
AcDbEntity
8
0
100
AcDbLine
10
-454.83286960417377
20
57.069347672258601
30
0
11
-476.98926769195668
21
57.069347672258388
31
0
0
LWPOLYLINE
5
109
100
AcDbEntity
8
0
100
AcDbPolyline
90
5
70
1
43
0.0
10
-476.98926769195668
20
57.069347672258566
42
-0.41421356237309331
10
-483.0693774920444
20
63.149457472346242
10
-483.0693774920444
20
68.419391437328798
10
-454.83286960417377
20
68.419391437328798
10
-454.83286960417377
20
57.069347672258601
0
ENDSEC
0
SECTION
2
OBJECTS
0
DICTIONARY
5
C
100
AcDbDictionary
3
ACAD_GROUP
350
D
3
ACAD_MLINESTYLE
350
17
0
DICTIONARY
5
D
100
AcDbDictionary
0
DICTIONARY
5
1A
330
C
100
AcDbDictionary
0
DICTIONARY
5
17
100
AcDbDictionary
0
ENDSEC
0
EOF
