0
SECTION
2
HEADER
9
$INSUNITS
70
1
9
$ACADVER
1
AC1014
9
$HANDSEED
5
FFFF
0
ENDSEC
0
SECTION
2
TABLES
0
TABLE
2
VPORT
5
8
100
AcDbSymbolTable
0
ENDTAB
0
TABLE
2
LTYPE
5
5
100
AcDbSymbolTable
0
LTYPE
5
14
100
AcDbSymbolTableRecord
100
AcDbLinetypeTableRecord
2
BYBLOCK
70
0
0
LTYPE
5
15
100
AcDbSymbolTableRecord
100
AcDbLinetypeTableRecord
2
BYLAYER
70
0
0
ENDTAB
0
TABLE
2
LAYER
5
2
100
AcDbSymbolTable
70
2
0
LAYER
5
50
100
AcDbSymbolTableRecord
100
AcDbLayerTableRecord
2
0
70
0
6
CONTINUOUS
0
ENDTAB
0
TABLE
2
STYLE
5
3
100
AcDbSymbolTable
70
1
0
STYLE
5
11
100
AcDbSymbolTableRecord
100
AcDbTextStyleTableRecord
2
STANDARD
70
0
0
ENDTAB
0
TABLE
2
VIEW
5
6
100
AcDbSymbolTable
70
0
0
ENDTAB
0
TABLE
2
UCS
5
7
100
AcDbSymbolTable
70
0
0
ENDTAB
0
TABLE
2
APPID
5
9
100
AcDbSymbolTable
70
2
0
APPID
5
12
100
AcDbSymbolTableRecord
100
AcDbRegAppTableRecord
2
ACAD
70
0
0
ENDTAB
0
TABLE
2
DIMSTYLE
5
A
100
AcDbSymbolTable
70
1
0
ENDTAB
0
TABLE
2
BLOCK_RECORD
5
1
100
AcDbSymbolTable
70
1
0
BLOCK_RECORD
5
1F
100
AcDbSymbolTableRecord
100
AcDbBlockTableRecord
2
*MODEL_SPACE
0
BLOCK_RECORD
5
1B
100
AcDbSymbolTableRecord
100
AcDbBlockTableRecord
2
*PAPER_SPACE
0
ENDTAB
0
ENDSEC
0
SECTION
2
BLOCKS
0
BLOCK
5
20
100
AcDbEntity
100
AcDbBlockBegin
2
*MODEL_SPACE
0
ENDBLK
5
21
100
AcDbEntity
100
AcDbBlockEnd
0
BLOCK
5
1C
100
AcDbEntity
100
AcDbBlockBegin
2
*PAPER_SPACE
0
ENDBLK
5
1D
100
AcDbEntity
100
AcDbBlockEnd
0
ENDSEC
0
SECTION
2
ENTITIES
0
LWPOLYLINE
5
100
100
AcDbEntity
8
OUTER_PROFILES
100
AcDbPolyline
90
34
70
1
43
0.0
10
0.14644660940675908
20
40.281397869615489
10
0.85355339059330515
20
40.988504650802035
42
-0.19891236737966017
10
1.2071067811865834
20
41.134951260208759
10
34.043286919600888
20
41.134951260208467
42
-0.19891236737966012
10
34.396840310194165
20
40.988504650801737
10
35.103947091380718
20
40.281397869615184
42
-0.19891236737965884
10
35.250393700787441
20
39.927844479021907
10
35.250393700787413
20
31.662232374941745
10
35.674286076471773
20
31.662232374941745
10
35.67428607647178
20
31.801266469454916
42
-0.19891236737965845
10
35.950777275031676
20
32.468775270895016
10
37.092418845992697
20
33.610416841856036
42
-0.1989123673796564
10
37.357583888937654
20
33.720251798911072
10
39.677269832673495
20
33.720251798911065
10
39.677269832673453
20
9.3949157753351589
10
35.957665802148732
20
5.6753117448104407
42
-0.66817863791930643
10
35.674286076471766
20
5.7926914704874042
10
35.674286076471766
20
5.9219837165268538
10
35.250393700787399
20
5.9219837165268556
10
35.250393700787399
20
-1.1889002468426873e-14
10
1.4597032498184076e-29
20
0
10
-7.8677222217530777e-16
20
5.9219837165268672
10
-0.42389237568436511
20
5.9219837165268663
10
-0.42389237568436378
20
5.7926914704874166
42
-0.66817863791929433
10
-0.70727210136132812
20
5.6753117448104495
10
-4.4268761318860497
20
9.3949157753351731
10
-4.4268761318860745
20
33.720251798911079
10
-2.1071901881502235
20
33.720251798911086
42
-0.19891236737965959
10
-1.8420251452052665
20
33.610416841856036
10
-0.7003835742442508
20
32.46877527089503
42
-0.19891236737965773
10
-0.42389237568435534
20
31.801266469454927
10
-0.42389237568435617
20
31.662232374941755
10
8.186105168665503e-15
20
31.662232374941755
10
3.1733146294404079e-14
20
39.92784447902222
42
-0.19891236737965903
0
LINE
5
101
100
AcDbEntity
8
BEND
100
AcDbLine
10
35.250393700787413
20
36.623522145500921
30
-1.5288065498037939e-12
11
-5.5948246910244104e-15
21
36.623522145501035
31
-1.7042384139483023e-12
0
LINE
5
102
100
AcDbEntity
8
BEND
100
AcDbLine
10
1.090593878025017e-14
20
34.360654561130886
30
-7.5223219360566614e-13
11
35.250393700787413
21
34.360654561131
31
-6.9991236711951387e-13
0
LINE
5
103
100
AcDbEntity
8
BEND
100
AcDbLine
10
8.2228668637769098e-15
20
31.768205468862881
30
-1.0553373189771063e-13
11
35.250393700787413
21
31.76820546886287
31
-1.153128779490806e-13
0
LINE
5
104
100
AcDbEntity
8
BEND
100
AcDbLine
10
-0.21194618784217439
20
31.662232374941745
30
-7.1331692793296306e-14
11
-0.2119461878421833
21
5.9219837165268761
31
-7.1681369336485328e-14
0
LINE
5
105
100
AcDbEntity
8
BEND
100
AcDbLine
10
35.462339888629579
20
5.9219837165268583
30
-7.8549385476285267e-14
11
35.462339888629593
21
31.662232374941734
31
-7.8199708933096245e-14
0
LINE
5
106
100
AcDbEntity
8
BEND
100
AcDbLine
10
35.250393700787406
20
5.6040644347635764
30
-7.6483584796592933e-14
11
0
21
5.6040644347635897
31
-6.9080602679947992e-14
0
LINE
5
107
100
AcDbEntity
8
BEND
100
AcDbLine
10
35.250393700787434
20
39.297808221972659
30
-3.5683547154285454e-12
11
2.7974123455122052e-14
21
39.297808221972872
31
-3.7255392580692623e-12
0
LINE
5
108
100
AcDbEntity
8
BEND_EXTENT
100
AcDbLine
10
3.0490269495271053e-14
20
39.509754409815102
30
-3.840847150388258e-12
11
35.250393700787441
21
39.509754409814889
31
-3.6828396256760819e-12
0
LINE
5
109
100
AcDbEntity
8
BEND_EXTENT
100
AcDbLine
10
35.250393700787441
20
39.085862034130436
30
-3.4590466380351059e-12
11
2.2379298764097642e-14
21
39.085862034130642
31
-3.6310412244748422e-12
0
LINE
5
110
100
AcDbEntity
8
BEND_EXTENT
100
AcDbLine
10
-1.2089667786274988e-15
20
36.835468333343272
30
-1.8686714468021533e-12
11
35.250393700787413
21
36.835468333343165
31
-1.6966768603624165e-12
0
LINE
5
111
100
AcDbEntity
8
BEND_EXTENT
100
AcDbLine
10
35.250393700787413
20
36.411575957658684
30
-1.4001511517381227e-12
11
0
21
36.411575957658798
31
-1.4826285431214688e-12
0
LINE
5
112
100
AcDbEntity
8
BEND_EXTENT
100
AcDbLine
10
9.1589400689658795e-15
20
34.466627655052008
30
-7.8047804439790527e-13
11
35.250393700787406
21
34.466627655052029
31
-6.980006530145593e-13
0
LINE
5
113
100
AcDbEntity
8
BEND_EXTENT
100
AcDbLine
10
35.674286076471766
20
5.9219837165268538
30
-7.70597672264415e-14
11
35.674286076471773
21
31.662232374941745
31
-7.70597672264415e-14
0
LWPOLYLINE
5
114
100
AcDbEntity
8
BEND_EXTENT
100
AcDbPolyline
90
4
70
1
43
0.0
10
35.250393700787399
20
5.9219837165268538
10
35.250393700787413
20
31.662232374941745
10
8.186105168665503e-15
20
31.662232374941755
10
0
20
5.9219837165268672
0
LINE
5
115
100
AcDbEntity
8
BEND_EXTENT
100
AcDbLine
10
-0.42389237568436511
20
5.9219837165268663
30
-7.2648066067725519e-14
11
-0.42389237568435617
21
31.662232374941755
31
-7.2648066067725519e-14
0
LINE
5
116
100
AcDbEntity
8
BEND_EXTENT
100
AcDbLine
10
-9.6366710661316244e-16
20
5.2861451530003123
30
-6.7137896292292925e-14
11
35.250393700787406
21
5.2861451530003016
31
-7.417769996533748e-14
0
LINE
5
117
100
AcDbEntity
8
BEND_EXTENT
100
AcDbLine
10
35.250393700787413
20
34.254681467209785
30
-7.2247801103779098e-13
11
1.1189649382048821e-14
21
34.254681467209792
31
-7.1264079501923427e-13
0
LINE
5
118
100
AcDbEntity
8
BEND_EXTENT
100
AcDbLine
10
5.462216213376113e-15
20
31.874178562784017
30
-1.2798161480718338e-13
11
35.250393700787413
21
31.874178562784007
31
-1.3502141848022792e-13
0
ENDSEC
0
SECTION
2
OBJECTS
0
DICTIONARY
5
C
100
AcDbDictionary
3
ACAD_GROUP
350
D
3
ACAD_MLINESTYLE
350
17
0
DICTIONARY
5
D
100
AcDbDictionary
0
DICTIONARY
5
1A
330
C
100
AcDbDictionary
0
DICTIONARY
5
17
100
AcDbDictionary
0
ENDSEC
0
EOF
