0
SECTION
2
HEADER
9
$INSUNITS
70
4
9
$ACADVER
1
AC1014
9
$HANDSEED
5
FFFF
0
ENDSEC
0
SECTION
2
TABLES
0
TABLE
2
VPORT
5
8
100
AcDbSymbolTable
0
ENDTAB
0
TABLE
2
LTYPE
5
5
100
AcDbSymbolTable
0
LTYPE
5
14
100
AcDbSymbolTableRecord
100
AcDbLinetypeTableRecord
2
BYBLOCK
70
0
0
LTYPE
5
15
100
AcDbSymbolTableRecord
100
AcDbLinetypeTableRecord
2
BYLAYER
70
0
0
ENDTAB
0
TABLE
2
LAYER
5
2
100
AcDbSymbolTable
70
2
0
LAYER
5
50
100
AcDbSymbolTableRecord
100
AcDbLayerTableRecord
2
0
70
0
6
CONTINUOUS
0
ENDTAB
0
TABLE
2
STYLE
5
3
100
AcDbSymbolTable
70
1
0
STYLE
5
11
100
AcDbSymbolTableRecord
100
AcDbTextStyleTableRecord
2
STANDARD
70
0
0
ENDTAB
0
TABLE
2
VIEW
5
6
100
AcDbSymbolTable
70
0
0
ENDTAB
0
TABLE
2
UCS
5
7
100
AcDbSymbolTable
70
0
0
ENDTAB
0
TABLE
2
APPID
5
9
100
AcDbSymbolTable
70
2
0
APPID
5
12
100
AcDbSymbolTableRecord
100
AcDbRegAppTableRecord
2
ACAD
70
0
0
ENDTAB
0
TABLE
2
DIMSTYLE
5
A
100
AcDbSymbolTable
70
1
0
ENDTAB
0
TABLE
2
BLOCK_RECORD
5
1
100
AcDbSymbolTable
70
1
0
BLOCK_RECORD
5
1F
100
AcDbSymbolTableRecord
100
AcDbBlockTableRecord
2
*MODEL_SPACE
0
BLOCK_RECORD
5
1B
100
AcDbSymbolTableRecord
100
AcDbBlockTableRecord
2
*PAPER_SPACE
0
ENDTAB
0
ENDSEC
0
SECTION
2
BLOCKS
0
BLOCK
5
20
100
AcDbEntity
100
AcDbBlockBegin
2
*MODEL_SPACE
0
ENDBLK
5
21
100
AcDbEntity
100
AcDbBlockEnd
0
BLOCK
5
1C
100
AcDbEntity
100
AcDbBlockBegin
2
*PAPER_SPACE
0
ENDBLK
5
1D
100
AcDbEntity
100
AcDbBlockEnd
0
ENDSEC
0
SECTION
2
ENTITIES
0
CIRCLE
5
100
100
AcDbEntity
8
0
100
AcDbCircle
10
138.03926136350239
20
-566.81786970062853
30
0
40
1.5000000000000568
210
0
220
-0
230
1
0
CIRCLE
5
101
100
AcDbEntity
8
0
100
AcDbCircle
10
-194.17093072729929
20
-474.74680188876334
30
0
40
1.4999999999999503
210
0
220
-0
230
1
0
CIRCLE
5
102
100
AcDbEntity
8
0
100
AcDbCircle
10
167.32052126616981
20
-1021.9569939795642
30
0
40
1.4999999999999858
210
0
220
-0
230
1
0
CIRCLE
5
103
100
AcDbEntity
8
0
100
AcDbCircle
10
-289.88967082463211
20
-1024.746801888763
30
0
40
1.4999999999999858
210
0
220
-0
230
1
0
CIRCLE
5
104
100
AcDbEntity
8
0
100
AcDbCircle
10
-134.88967082463199
20
-1024.746801888763
30
0
40
1.5000000000000036
210
0
220
-0
230
1
0
LWPOLYLINE
5
105
100
AcDbEntity
8
0
100
AcDbPolyline
90
8
70
1
43
0.0
10
-429.88967082463171
20
-484.74680188876289
10
-429.88967082463205
20
-1014.746801888763
10
160.11032917536789
20
-1014.746801888763
10
160.11032917536784
20
-932.6375702519706
42
-0.19891236737965315
10
171.5478093700338
20
-905.02505044663599
10
220.11032917536784
20
-856.46253064130087
10
220.11032917536801
20
-663.03107313622513
10
41.826057927906177
20
-484.74680188876334
0
CIRCLE
5
106
100
AcDbEntity
8
0
100
AcDbCircle
10
-437.0998629154335
20
-477.53660979796109
30
0
40
1.5000000000000568
210
0
220
-0
230
1
0
CIRCLE
5
107
100
AcDbEntity
8
0
100
AcDbCircle
10
229.38528172253791
20
-860.304341776706
30
0
40
1.5000000000000213
210
0
220
-0
230
1
0
CIRCLE
5
108
100
AcDbEntity
8
0
100
AcDbCircle
10
-439.88967082463176
20
-749.746801888763
30
0
40
1.5000000000000568
210
0
220
-0
230
1
0
CIRCLE
5
109
100
AcDbEntity
8
0
100
AcDbCircle
10
-69.889670824632034
20
-474.74680188876334
30
0
40
1.5000000000000036
210
0
220
-0
230
1
0
CIRCLE
5
110
100
AcDbEntity
8
0
100
AcDbCircle
10
20.110329175367937
20
-1024.746801888763
30
0
40
1.4999999999999991
210
0
220
-0
230
1
0
CIRCLE
5
111
100
AcDbEntity
8
0
100
AcDbCircle
10
229.385281722538
20
-659.18926200082046
30
0
40
1.4999999999999147
210
0
220
-0
230
1
0
CIRCLE
5
112
100
AcDbEntity
8
0
100
AcDbCircle
10
172.3216287559151
20
-921.52061654176521
30
0
40
1.5000000000000568
210
0
220
-0
230
1
0
CIRCLE
5
113
100
AcDbEntity
8
0
100
AcDbCircle
10
-439.88967082463176
20
-614.74680188876334
30
0
40
1.4999999999999858
210
0
220
-0
230
1
0
CIRCLE
5
114
100
AcDbEntity
8
0
100
AcDbCircle
10
230.11032917536789
20
-759.746801888763
30
0
40
1.5000000000000568
210
0
220
-0
230
1
0
CIRCLE
5
115
100
AcDbEntity
8
0
100
AcDbCircle
10
-439.88967082463205
20
-884.746801888763
30
0
40
1.5000000000000568
210
0
220
-0
230
1
0
CIRCLE
5
116
100
AcDbEntity
8
0
100
AcDbCircle
10
45.667869063310683
20
-475.47184934159316
30
0
40
1.5000000000000213
210
0
220
-0
230
1
0
CIRCLE
5
117
100
AcDbEntity
8
0
100
AcDbCircle
10
-437.09986291543368
20
-1021.9569939795642
30
0
40
1.4999999999999858
210
0
220
-0
230
1
0
CIRCLE
5
118
100
AcDbEntity
8
0
100
AcDbCircle
10
-319.88967082463211
20
-474.74680188876277
30
0
40
1.4999999999999858
210
0
220
-0
230
1
0
LWPOLYLINE
5
119
100
AcDbEntity
8
0
100
AcDbPolyline
90
14
70
1
43
0.0
10
180.11032917536789
20
-1015.6968018887633
42
-0.41421356237307155
10
161.06032917536794
20
-1034.7468018887625
10
-430.83967082463204
20
-1034.7468018887628
42
-0.41421356237309837
10
-449.88967082463199
20
-1015.696801888763
10
-449.88967082463159
20
-483.79680188876279
42
-0.4142135623730841
10
-430.83967082463175
20
-464.74680188876306
10
42.21956081216036
20
-464.74680188876312
42
-0.19891236737965881
10
55.689944993763945
20
-470.32641770715929
10
234.53071335697166
20
-649.16718607036705
42
-0.19891236737966284
10
240.11032917536807
20
-662.6375702519706
10
240.11032917536767
20
-856.85603352555586
42
-0.19891236737967266
10
234.53071335697138
20
-870.32641770715884
10
185.68994499376444
20
-919.16718607036614
42
0.19891236737965209
10
180.11032917536801
20
-932.6375702519706
0
CIRCLE
5
120
100
AcDbEntity
8
0
100
AcDbCircle
10
-319.88967082463211
20
-1099.8770484887061
30
0
40
1.4999999999999858
210
0
220
-0
230
1
0
CIRCLE
5
121
100
AcDbEntity
8
0
100
AcDbCircle
10
20.110329175367937
20
-1649.8770484887061
30
0
40
1.4999999999999991
210
0
220
-0
230
1
0
CIRCLE
5
122
100
AcDbEntity
8
0
100
AcDbCircle
10
-289.88967082463211
20
-1649.8770484887061
30
0
40
1.4999999999999858
210
0
220
-0
230
1
0
CIRCLE
5
123
100
AcDbEntity
8
0
100
AcDbCircle
10
-439.88967082463205
20
-1509.8770484887061
30
0
40
1.5000000000000568
210
0
220
-0
230
1
0
CIRCLE
5
124
100
AcDbEntity
8
0
100
AcDbCircle
10
-194.17093072729929
20
-1099.8770484887061
30
0
40
1.4999999999999503
210
0
220
-0
230
1
0
CIRCLE
5
125
100
AcDbEntity
8
0
100
AcDbCircle
10
229.38528172253791
20
-1485.4345883766491
30
0
40
1.5000000000000213
210
0
220
-0
230
1
0
CIRCLE
5
126
100
AcDbEntity
8
0
100
AcDbCircle
10
172.3216287559151
20
-1546.6508631417082
30
0
40
1.5000000000000568
210
0
220
-0
230
1
0
CIRCLE
5
127
100
AcDbEntity
8
0
100
AcDbCircle
10
-437.09986291543368
20
-1647.0872405795083
30
0
40
1.4999999999999858
210
0
220
-0
230
1
0
CIRCLE
5
128
100
AcDbEntity
8
0
100
AcDbCircle
10
230.11032917536789
20
-1384.8770484887061
30
0
40
1.5000000000000568
210
0
220
-0
230
1
0
CIRCLE
5
129
100
AcDbEntity
8
0
100
AcDbCircle
10
-439.88967082463176
20
-1374.8770484887061
30
0
40
1.5000000000000568
210
0
220
-0
230
1
0
CIRCLE
5
130
100
AcDbEntity
8
0
100
AcDbCircle
10
167.32052126616981
20
-1647.0872405795083
30
0
40
1.4999999999999858
210
0
220
-0
230
1
0
CIRCLE
5
131
100
AcDbEntity
8
0
100
AcDbCircle
10
-134.88967082463199
20
-1649.8770484887061
30
0
40
1.5000000000000036
210
0
220
-0
230
1
0
LWPOLYLINE
5
132
100
AcDbEntity
8
0
100
AcDbPolyline
90
8
70
1
43
0.0
10
171.54780937003352
20
-1530.1552970465796
10
220.11032917536781
20
-1481.5927772412442
10
220.11032917536801
20
-1288.161319736168
10
41.826057927906177
20
-1109.8770484887061
10
-429.88967082463171
20
-1109.8770484887061
10
-429.88967082463205
20
-1639.8770484887061
10
160.11032917536789
20
-1639.8770484887061
10
160.11032917536781
20
-1557.7678168519139
42
-0.19891236737965037
0
CIRCLE
5
133
100
AcDbEntity
8
0
100
AcDbCircle
10
138.03926136350239
20
-1191.9481163005721
30
0
40
1.5000000000000568
210
0
220
-0
230
1
0
CIRCLE
5
134
100
AcDbEntity
8
0
100
AcDbCircle
10
45.667869063310683
20
-1100.6020959415359
30
0
40
1.5000000000000213
210
0
220
-0
230
1
0
CIRCLE
5
135
100
AcDbEntity
8
0
100
AcDbCircle
10
-69.889670824632034
20
-1099.8770484887061
30
0
40
1.5000000000000036
210
0
220
-0
230
1
0
CIRCLE
5
136
100
AcDbEntity
8
0
100
AcDbCircle
10
-437.0998629154335
20
-1102.666856397904
30
0
40
1.5000000000000568
210
0
220
-0
230
1
0
CIRCLE
5
137
100
AcDbEntity
8
0
100
AcDbCircle
10
-439.88967082463176
20
-1239.8770484887061
30
0
40
1.4999999999999858
210
0
220
-0
230
1
0
CIRCLE
5
138
100
AcDbEntity
8
0
100
AcDbCircle
10
229.385281722538
20
-1284.3195086007629
30
0
40
1.4999999999999147
210
0
220
-0
230
1
0
LWPOLYLINE
5
139
100
AcDbEntity
8
0
100
AcDbPolyline
90
14
70
1
43
0.0
10
180.11032917536707
20
-1557.7678168519133
42
-0.19891236737963883
10
185.68994499376416
20
-1544.2974326703097
10
234.53071335697132
20
-1495.4566643071021
42
0.1989123673796741
10
240.11032917536778
20
-1481.986280125499
10
240.11032917536809
20
-1287.7678168519139
42
0.19891236737966558
10
234.53071335697155
20
-1274.2974326703102
10
55.689944993764229
20
-1095.4566643071028
42
0.19891236737966406
10
42.219560812160353
20
-1089.8770484887064
10
-430.8396708246317
20
-1089.8770484887059
42
0.41421356237309176
10
-449.88967082463171
20
-1108.9270484887061
10
-449.88967082463199
20
-1640.8270484887062
42
0.41421356237309936
10
-430.83967082463198
20
-1659.8770484887059
10
161.060329175368
20
-1659.8770484887064
42
0.4142135623730841
10
180.11032917536789
20
-1640.8270484887064
0
LWPOLYLINE
5
140
100
AcDbEntity
8
0
100
AcDbPolyline
90
19
70
1
43
0.0
10
302.54177410288708
20
-1554.6604889724847
42
-0.19891236737965523
10
306.26151798181763
20
-1545.6802328514166
10
363.25074303054691
20
-1488.6910078026867
42
0.19891236737965526
10
374.40997466733933
20
-1461.7502394394792
10
374.40997466733938
20
-1306.8497189803204
42
0.19891236737979029
10
363.25074303054117
20
-1279.9089506171185
10
166.3298771580078
20
-1082.9880847445738
42
-0.030841697287909038
10
165.29337530416271
20
-1081.8151687385498
10
148.05145181253363
20
-1081.8151687385498
42
0.66817863791927767
10
146.25540058831973
20
-1086.1512199627637
10
334.26429709056094
20
-1274.1601164650044
42
-0.19887745010675614
10
339.84391273702153
20
-1287.6279412000422
10
339.87011247211035
20
-1482.5993084189222
42
-0.19890875920534926
10
334.29249217021544
20
-1496.0702582803899
10
285.44218302426719
20
-1544.935046076911
42
0.19887384198063798
10
279.86456387455547
20
-1558.4034332938268
10
279.8645638745557
20
-1665.4156014153773
42
0.41421356237300078
10
282.40456387455572
20
-1667.9556014153768
10
302.54177410288696
20
-1667.9556014153768
0
CIRCLE
5
141
100
AcDbEntity
8
0
100
AcDbCircle
10
264.77346276964005
20
-1093.4067076545593
30
0
40
1.5000000000000213
210
0
220
-0
230
1
0
CIRCLE
5
142
100
AcDbEntity
8
0
100
AcDbCircle
10
384.61015299462144
20
-1654.3789342933733
30
0
40
1.5000000000000568
210
0
220
-0
230
1
0
CIRCLE
5
143
100
AcDbEntity
8
0
100
AcDbCircle
10
456.60625340787135
20
-1385
30
0
40
1.5000000000000568
210
0
220
-0
230
1
0
CIRCLE
5
144
100
AcDbEntity
8
0
100
AcDbCircle
10
357.33790932204192
20
-1184.6270273757975
30
0
40
1.4999999999999858
210
0
220
-0
230
1
0
CIRCLE
5
145
100
AcDbEntity
8
0
100
AcDbCircle
10
384.61015299462144
20
-1556.6085171169073
30
0
40
1.5000000000000568
210
0
220
-0
230
1
0
CIRCLE
5
146
100
AcDbEntity
8
0
100
AcDbCircle
10
452.04172320533996
20
-1280
30
0
40
1.5000000000000568
210
0
220
-0
230
1
0
CIRCLE
5
147
100
AcDbEntity
8
0
100
AcDbCircle
10
452.04172320533996
20
-1490
30
0
40
1.4999999999999858
210
0
220
-0
230
1
0
LWPOLYLINE
5
148
100
AcDbEntity
8
0
100
AcDbPolyline
90
18
70
1
43
0.0
10
444.77907945893867
20
-1461.7502394394794
42
-0.19891236737964449
10
433.03406138451965
20
-1490.1052213650598
10
376.04483633579036
20
-1547.0944464137892
42
0.19891236737965723
10
372.91087889448647
20
-1554.6604889724847
10
372.91087889448647
20
-1667.9733981426289
10
393.77087889448592
20
-1667.9733981426284
42
0.41421356237304247
10
399.31087889448577
20
-1662.4333981426287
10
399.31087889448582
20
-1565.1815134567616
42
-0.19891236737967588
10
402.15194311697616
20
-1558.3225776792519
10
454.33369193062509
20
-1506.1408288656035
42
0.19891236737966322
10
466.37160322385796
20
-1477.0787401588364
10
466.3716032238579
20
-1291.5150564355733
42
0.1988617201941586
10
454.33984278887834
20
-1262.4598098528031
10
275.41253379798542
20
-1083.4627485398687
42
0.19896301554682574
10
271.49439888701573
20
-1081.8393566156712
10
236.3786809454507
20
-1081.839356615671
10
433.03406138451942
20
-1278.4947370547393
42
-0.19891236737978657
10
444.77907945894674
20
-1306.8497189803206
0
ENDSEC
0
SECTION
2
OBJECTS
0
DICTIONARY
5
C
100
AcDbDictionary
3
ACAD_GROUP
350
D
3
ACAD_MLINESTYLE
350
17
0
DICTIONARY
5
D
100
AcDbDictionary
0
DICTIONARY
5
1A
330
C
100
AcDbDictionary
0
DICTIONARY
5
17
100
AcDbDictionary
0
ENDSEC
0
EOF
