0
SECTION
2
HEADER
9
$INSUNITS
70
4
9
$ACADVER
1
AC1014
9
$HANDSEED
5
FFFF
0
ENDSEC
0
SECTION
2
TABLES
0
TABLE
2
VPORT
5
8
100
AcDbSymbolTable
0
ENDTAB
0
TABLE
2
LTYPE
5
5
100
AcDbSymbolTable
0
LTYPE
5
14
100
AcDbSymbolTableRecord
100
AcDbLinetypeTableRecord
2
BYBLOCK
70
0
0
LTYPE
5
15
100
AcDbSymbolTableRecord
100
AcDbLinetypeTableRecord
2
BYLAYER
70
0
0
ENDTAB
0
TABLE
2
LAYER
5
2
100
AcDbSymbolTable
70
2
0
LAYER
5
50
100
AcDbSymbolTableRecord
100
AcDbLayerTableRecord
2
0
70
0
6
CONTINUOUS
0
ENDTAB
0
TABLE
2
STYLE
5
3
100
AcDbSymbolTable
70
1
0
STYLE
5
11
100
AcDbSymbolTableRecord
100
AcDbTextStyleTableRecord
2
STANDARD
70
0
0
ENDTAB
0
TABLE
2
VIEW
5
6
100
AcDbSymbolTable
70
0
0
ENDTAB
0
TABLE
2
UCS
5
7
100
AcDbSymbolTable
70
0
0
ENDTAB
0
TABLE
2
APPID
5
9
100
AcDbSymbolTable
70
2
0
APPID
5
12
100
AcDbSymbolTableRecord
100
AcDbRegAppTableRecord
2
ACAD
70
0
0
ENDTAB
0
TABLE
2
DIMSTYLE
5
A
100
AcDbSymbolTable
70
1
0
ENDTAB
0
TABLE
2
BLOCK_RECORD
5
1
100
AcDbSymbolTable
70
1
0
BLOCK_RECORD
5
1F
100
AcDbSymbolTableRecord
100
AcDbBlockTableRecord
2
*MODEL_SPACE
0
BLOCK_RECORD
5
1B
100
AcDbSymbolTableRecord
100
AcDbBlockTableRecord
2
*PAPER_SPACE
0
ENDTAB
0
ENDSEC
0
SECTION
2
BLOCKS
0
BLOCK
5
20
100
AcDbEntity
100
AcDbBlockBegin
2
*MODEL_SPACE
0
ENDBLK
5
21
100
AcDbEntity
100
AcDbBlockEnd
0
BLOCK
5
1C
100
AcDbEntity
100
AcDbBlockBegin
2
*PAPER_SPACE
0
ENDBLK
5
1D
100
AcDbEntity
100
AcDbBlockEnd
0
ENDSEC
0
SECTION
2
ENTITIES
0
LWPOLYLINE
5
100
100
AcDbEntity
8
0
100
AcDbPolyline
90
16
70
1
43
0.0
10
1571.9475665899201
20
-514.38417423357419
42
-0.19891236737966861
10
1580.7343631543233
20
-535.59737766917033
10
1580.7343631543233
20
-1065.7445639267844
42
-0.19891236737964554
10
1571.9475665899197
20
-1086.9577673623803
10
1509.5211597187272
20
-1149.384174233573
42
-0.19891236737966653
10
1488.307956283131
20
-1158.1709707979767
10
728.16077002551663
20
-1158.1709707979776
42
-0.19891236737967047
10
706.94756658992048
20
-1149.3841742335735
10
644.52115971872786
20
-1086.9577673623808
42
-0.19891236737965337
10
635.73436315432423
20
-1065.7445639267844
10
635.73436315432411
20
-535.59737766917021
42
-0.19891236737966111
10
644.52115971872774
20
-514.38417423357373
10
706.94756658992037
20
-451.95776736238088
42
-0.19891236737965315
10
728.16077002551708
20
-443.17097079797742
10
1488.307956283131
20
-443.17097079797742
42
-0.19891236737966145
10
1509.5211597187267
20
-451.95776736238088
0
LWPOLYLINE
5
101
100
AcDbEntity
8
0
100
AcDbPolyline
90
12
70
1
43
0.0
10
989.95875705554397
20
-587.94456392678433
42
-0.19891236737965501
10
1032.3851639267368
20
-570.37097079797718
10
1418.9363761242962
20
-570.37097079797707
42
-0.41421356237309137
10
1458.9363761242962
20
-610.37097079797718
10
1458.9363761242957
20
-756.11815705559138
42
-0.1989123673796557
10
1441.3627829954894
20
-798.54456392678401
10
1226.5099692531035
20
-1013.3973776691698
42
-0.19891236737965742
10
1184.0835623819107
20
-1030.9709707979773
10
797.53235018435134
20
-1030.9709707979766
42
-0.41421356237309398
10
757.53235018435134
20
-990.97097079797732
10
757.53235018435123
20
-845.223784540363
42
-0.19891236737965026
10
775.10594331315872
20
-802.79737766916992
0
LWPOLYLINE
5
102
100
AcDbEntity
8
0
100
AcDbPolyline
90
16
70
1
43
0.0
10
-430.07359312880692
20
-1176.7768573198846
42
-0.19891236737965926
10
-451.2867965644034
20
-1167.990060755481
10
-513.7132034355966
20
-1105.5636538842882
42
-0.19891236737966123
10
-522.49999999999989
20
-1084.3504504486916
10
-522.50000000000023
20
-554.20326419107744
42
-0.19891236737966031
10
-513.71320343559648
20
-532.99006075548095
10
-451.28679656440346
20
-470.56365388428816
42
-0.19891236737966297
10
-430.07359312880715
20
-461.77685731988447
10
430.07359312880686
20
-461.77685731988436
42
-0.19891236737966378
10
451.28679656440363
20
-470.56365388428816
10
513.71320343559648
20
-532.99006075548141
42
-0.19891236737965834
10
522.49999999999989
20
-554.20326419107766
10
522.49999999999989
20
-1084.3504504486916
42
-0.19891236737965881
10
513.71320343559648
20
-1105.5636538842878
10
451.28679656440335
20
-1167.990060755481
42
-0.19891236737965973
10
430.07359312880692
20
-1176.7768573198846
0
LWPOLYLINE
5
103
100
AcDbEntity
8
0
100
AcDbPolyline
90
20
70
1
43
0.0
10
418.37387214872081
20
-1039.2768573198848
42
-0.41421356237308982
10
378.37387214872081
20
-1079.2768573198846
10
224.94241464364444
20
-1079.2768573198846
42
-0.19891236737966239
10
196.65814339618265
20
-1067.5611285673463
10
68.625134807191728
20
-939.52811997835522
42
0.19891236737965787
10
43.876397465662691
20
-929.27685731988447
10
-43.876397465662649
20
-929.27685731988436
42
0.19891236737965676
10
-68.625134807191799
20
-939.52811997835522
10
-196.65814339618282
20
-1067.5611285673469
42
-0.19891236737965731
10
-224.94241464364484
20
-1079.2768573198846
10
-378.37387214872081
20
-1079.2768573198846
42
-0.41421356237309709
10
-418.37387214872081
20
-1039.2768573198846
10
-418.37387214872081
20
-734.1296710622704
42
-0.19891236737966214
10
-400.80027901991372
20
-691.70326419107732
10
-285.9474652775279
20
-576.85045044869162
42
-0.19891236737965995
10
-243.52105840633504
20
-559.27685731988458
10
243.52105840633493
20
-559.27685731988458
42
-0.19891236737965926
10
285.9474652775279
20
-576.85045044869162
10
400.80027901991372
20
-691.70326419107721
42
-0.19891236737965523
10
418.37387214872081
20
-734.1296710622704
0
LWPOLYLINE
5
104
100
AcDbEntity
8
0
100
AcDbPolyline
90
14
70
1
43
0.0
10
-603.83066600374673
20
-557.47506514645556
42
-0.66817863791929843
10
-582.61746256815036
20
-608.68826858205182
10
-715.82464331415679
20
-741.89544932805848
42
0.19891236737965473
10
-721.40425913255297
20
-755.36583350966214
10
-721.40425913255274
20
-949.58429678324649
42
0.19891236737964146
10
-715.82464331415645
20
-963.05468096484992
10
-656.98387495094948
20
-1021.895449328057
42
-0.19891236737965118
10
-651.40425913255342
20
-1035.3658335096609
10
-651.40425913255308
20
-1108.4250651464529
42
-0.41421356237309287
10
-670.45425913255303
20
-1127.4750651464528
10
-870.48783099879813
20
-1127.4750651464535
42
-0.41421356237310158
10
-889.5378309987982
20
-1108.4250651464536
10
-889.53783099879865
20
-576.52506514645597
42
-0.41421356237309503
10
-870.48783099879881
20
-557.47506514645613
0
LWPOLYLINE
5
105
100
AcDbEntity
8
0
100
AcDbPolyline
90
14
70
1
43
0.0
10
-974.04226042455684
20
-550.66105420096608
42
-0.41421356237309392
10
-954.99226042455712
20
-569.71105420096592
10
-954.992260424557
20
-1101.6110542009653
42
-0.41421356237309725
10
-974.04226042455662
20
-1120.6610542009653
10
-1565.9422604245558
20
-1120.6610542009653
42
-0.41421356237310381
10
-1584.9922604245558
20
-1101.6110542009653
10
-1584.9922604245562
20
-1018.5518225641733
42
0.1989123673797201
10
-1590.5718762429524
20
-1005.081438382569
10
-1639.4126446061593
20
-956.24067001936237
42
-0.19891236737966861
10
-1644.9922604245558
20
-942.77028583775859
10
-1644.992260424556
20
-748.55182256417311
42
-0.198912367379667
10
-1639.4126446061603
20
-735.08143838256944
10
-1460.5718762429522
20
-556.2406700193626
42
-0.19891236737966284
10
-1447.1014920613488
20
-550.6610542009663
0
LWPOLYLINE
5
106
100
AcDbEntity
8
0
100
AcDbPolyline
90
12
70
1
43
0.0
10
-1049.3922653836628
20
-906.72040249409531
10
-1049.3922653836628
20
-647.4760370348281
42
0.41421356237309598
10
-1093.2072653836631
20
-603.66103703482793
10
-1325.8834941047066
20
-603.66103703482827
42
0.19891236737966864
10
-1356.8653777223954
20
-616.49415341713973
10
-1468.3591428978355
20
-727.98791859258006
42
0.19891236737966425
10
-1481.192259280147
20
-758.96980221026854
10
-1481.1922592801468
20
-1017.0460301683728
42
0.41421356237309886
10
-1437.3772592801472
20
-1060.861030168373
10
-1203.5328930579401
20
-1060.8610301683723
42
0.19891236737965715
10
-1172.5510094402514
20
-1048.0279137860607
10
-1062.2253817659739
20
-937.70228611178368
42
0.19891236737966889
0
LWPOLYLINE
5
107
100
AcDbEntity
8
0
100
AcDbPolyline
90
28
70
1
43
0.0
10
-858.18311776983035
20
-348.88605309955096
42
-0.16654892612960537
10
-880.36388613303814
20
-359.74677147959227
10
-880.36388613303814
20
-348.14528473634368
10
-885.12388613303813
20
-348.14528473634368
10
-885.12388613303801
20
-431.79248563272637
42
-0.1989123673796617
10
-889.86612023884641
20
-443.24125152691806
10
-915.38165202722939
20
-468.75678331530025
42
-0.19891236737967138
10
-926.8304179214208
20
-473.49901742110893
10
-998.31787480381468
20
-473.49901742110899
42
-0.19891236737965431
10
-1009.7666406980061
20
-468.75678331530025
10
-1035.2821724863884
20
-443.24125152691806
42
-0.19891236737967197
10
-1040.024406592197
20
-431.79248563272637
10
-1040.024406592197
20
-348.14528473634368
10
-1044.784406592197
20
-348.14528473634368
10
-1044.7844065921968
20
-359.74677147959227
42
-0.16654892612960709
10
-1066.9651749554043
20
-348.88605309955119
10
-1123.9544000041333
20
-291.89682805082225
42
0.1989123673796741
10
-1132.9346561252028
20
-288.17708417189118
10
-1284.5149609509926
20
-288.17708417189118
42
-0.41421356237309503
10
-1297.2149609509925
20
-275.47708417189142
10
-1297.2149609509927
20
369.0434013039112
42
-0.41421356237309176
10
-1278.1649609509932
20
388.09340130391126
10
-618.73549994170753
20
388.09340130391121
42
-0.41421356237309176
10
-599.68549994170758
20
369.04340130391125
10
-599.68549994170758
20
-135.54544334808142
42
-0.41421356237309837
10
-612.38549994170751
20
-148.24544334808138
10
-652.28199577622217
20
-148.24544334808138
42
0.19891236737966742
10
-661.26225189729121
20
-151.96518722701205
0
LWPOLYLINE
5
108
100
AcDbEntity
8
0
100
AcDbPolyline
90
12
70
1
43
0.0
10
-1134.659143120125
20
-161.1770860792393
10
-876.58291516202053
20
-161.17708607923956
42
0.19891236737966297
10
-845.60103154433182
20
-148.34396969692796
10
-734.10726636889149
20
-36.850204521487342
42
0.1989123673796527
10
-721.27414998657991
20
-5.8683209037988604
10
-721.27414998657957
20
226.80790781724511
42
0.41421356237309415
10
-765.08914998657974
20
270.62290781724494
10
-1024.3335154458473
20
270.62290781724528
42
0.19891236737966106
10
-1055.315399063536
20
257.78979143493382
10
-1165.6410267378128
20
147.46416376065662
42
0.19891236737966522
10
-1178.4741431201248
20
116.48228014296798
10
-1178.4741431201253
20
-117.36208607923928
42
0.41421356237309515
0
LWPOLYLINE
5
109
100
AcDbEntity
8
0
100
AcDbPolyline
90
8
70
1
43
0.0
10
464.63992605135286
20
145.67445274719901
10
464.63992605135286
20
-394.32554725280113
42
-0.41421356237309503
10
444.63992605135286
20
-414.32554725280085
10
-435.36007394864714
20
-414.32554725280113
42
-0.41421356237309398
10
-455.36007394864714
20
-394.32554725280119
10
-455.3600739486472
20
145.67445274719887
42
-0.41421356237309293
10
-435.3600739486472
20
165.67445274719887
10
444.6399260513528
20
165.67445274719915
42
-0.41421356237309009
0
LWPOLYLINE
5
110
100
AcDbEntity
8
0
100
AcDbPolyline
90
20
70
1
43
0.0
10
-39.236471414309761
20
-234.32554725280113
10
48.516323517015401
20
-234.32554725280099
42
-0.19891236737965684
10
73.265060858544615
20
-244.57680991127191
10
201.29806944753602
20
-372.6098185002632
42
0.19891236737965615
10
229.58234069499784
20
-384.32554725280113
10
383.01379820007378
20
-384.32554725280113
42
0.41421356237309553
10
423.01379820007378
20
-344.32554725280107
10
423.01379820007378
20
-39.178360995186807
42
0.19891236737965959
10
405.44020507126663
20
3.2480458760060493
10
290.58739132888064
20
118.10085961839178
42
0.19891236737965828
10
248.16098445768787
20
135.67445274719896
10
-238.8811323549821
20
135.67445274719887
42
0.19891236737965723
10
-281.30753922617498
20
118.10085961839178
10
-396.16035296856091
20
3.2480458760058628
42
0.19891236737965662
10
-413.73394609736806
20
-39.178360995186949
10
-413.73394609736806
20
-344.32554725280119
42
0.4142135623730987
10
-373.73394609736795
20
-384.32554725280113
10
-220.30248859229158
20
-384.32554725280119
42
0.19891236737965445
10
-192.01821734482976
20
-372.6098185002632
10
-63.985208755838833
20
-244.57680991127205
42
-0.1989123673796595
0
LWPOLYLINE
5
111
100
AcDbEntity
8
0
100
AcDbPolyline
90
16
70
1
43
0.0
10
1490.7767649197706
20
308.46449787144638
42
-0.19891236737966111
10
1511.989968355367
20
299.67770130704298
10
1574.4163752265604
20
237.25129443584996
42
-0.19891236737965604
10
1583.2031717909631
20
216.03809100025347
10
1583.2031717909631
20
-314.10909525736093
42
-0.19891236737965431
10
1574.4163752265595
20
-335.32229869295747
10
1511.9899683553672
20
-397.74870556415016
42
-0.19891236737965662
10
1490.7767649197706
20
-406.5355021285535
10
730.62957866215595
20
-406.5355021285535
42
-0.1989123673796602
10
709.41637522655947
20
-397.74870556414982
10
646.98996835536707
20
-335.32229869295742
42
-0.1989123673796542
10
638.20317179096332
20
-314.10909525736088
10
638.2031717909631
20
216.03809100025359
42
-0.19891236737965765
10
646.9899683553665
20
237.25129443585001
10
709.41637522655947
20
299.67770130704287
42
-0.19891236737965765
10
730.62957866215606
20
308.46449787144655
0
LWPOLYLINE
5
112
100
AcDbEntity
8
0
100
AcDbPolyline
90
12
70
1
43
0.0
10
760.00115882099055
20
-93.588315870939397
42
-0.19891236737965706
10
777.5747519497977
20
-51.161908999746295
10
992.42756569218329
20
163.6909047426393
42
-0.19891236737965962
10
1034.8539725633764
20
181.26449787144648
10
1421.405184760936
20
181.26449787144662
42
-0.41421356237308515
10
1461.4051847609358
20
141.26449787144654
10
1461.4051847609358
20
-4.4826883861676592
42
-0.19891236737966331
10
1443.8315916321287
20
-46.909095257360391
10
1228.978777889743
20
-261.76190899974648
42
-0.19891236737965615
10
1186.55237101855
20
-279.33550212855368
10
800.00115882099055
20
-279.33550212855357
42
-0.41421356237309165
10
760.00115882099055
20
-239.33550212855349
0
LWPOLYLINE
5
113
100
AcDbEntity
8
0
100
AcDbPolyline
90
8
70
1
43
0.0
10
1717.6152159056678
20
1157.1595283206739
42
-0.4142135623730776
10
1736.6652159056673
20
1138.1095283206744
10
1736.6652159056664
20
356.20952832067582
42
-0.41421356237307977
10
1717.6152159056678
20
337.15952832067643
10
1175.7152159056679
20
337.15952832067671
42
-0.41421356237309287
10
1156.6652159056684
20
356.20952832067644
10
1156.6652159056689
20
1138.1095283206744
42
-0.41421356237309725
10
1175.7152159056693
20
1157.1595283206752
0
LWPOLYLINE
5
114
100
AcDbEntity
8
0
100
AcDbPolyline
90
12
70
1
43
0.0
10
1659.6916227768606
20
864.73312144948204
42
-0.19891236737965753
10
1677.2652159056677
20
822.3067145782893
10
1677.2652159056674
20
435.75550238073049
42
-0.41421356237309398
10
1637.2652159056677
20
395.75550238073043
10
1491.5180296480537
20
395.7555023807306
42
-0.19891236737965268
10
1449.0916227768607
20
413.32909550953781
10
1234.2388090344753
20
628.18190925192368
42
-0.19891236737965337
10
1216.6652159056682
20
670.60831612311631
10
1216.6652159056689
20
1057.159528320675
42
-0.41421356237309709
10
1256.6652159056689
20
1097.1595283206748
10
1402.4124021632824
20
1097.1595283206748
42
-0.19891236737966908
10
1444.8388090344747
20
1079.5859351918677
0
LWPOLYLINE
5
115
100
AcDbEntity
8
0
100
AcDbPolyline
90
8
70
1
43
0.0
10
580.06852928183446
20
337.87998864268411
42
-0.41421356237309837
10
561.01852928183439
20
356.92998864268446
10
561.01852928183507
20
1138.829988642683
42
-0.41421356237309287
10
580.06852928183491
20
1157.8799886426832
10
1121.9685292818344
20
1157.879988642683
42
-0.41421356237309503
10
1141.0185292818348
20
1138.829988642683
10
1141.0185292818335
20
356.92998864268372
42
-0.41421356237308848
10
1121.9685292818338
20
337.87998864268388
0
LWPOLYLINE
5
116
100
AcDbEntity
8
0
100
AcDbPolyline
90
12
70
1
43
0.0
10
1064.044936153027
20
865.45358177149046
10
849.19212241064201
20
1080.3063955138762
42
0.19891236737965692
10
806.76571553944939
20
1097.8799886426832
10
661.0185292818353
20
1097.8799886426832
42
0.41421356237308776
10
621.01852928183473
20
1057.8799886426832
10
621.01852928183473
20
671.3287764451245
42
0.19891236737965856
10
638.59212241064176
20
628.90236957393131
10
853.44493615302713
20
414.04955583154549
42
0.19891236737965592
10
895.87134302421987
20
396.47596270273834
10
1041.6185292818341
20
396.47596270273829
42
0.41421356237309037
10
1081.6185292818338
20
436.47596270273812
10
1081.6185292818343
20
823.02717490029738
42
0.19891236737966309
0
LWPOLYLINE
5
117
100
AcDbEntity
8
0
100
AcDbPolyline
90
16
70
1
43
0.0
10
-227.57359312880692
20
304.39252458285586
42
-0.19891236737965812
10
-248.78679656440343
20
313.17932114725932
10
-456.21320343559648
20
520.6057280184524
42
-0.19891236737965962
10
-464.99999999999994
20
541.81893145404865
10
-465
20
1091.9661177116629
42
-0.19891236737965812
10
-456.21320343559637
20
1113.1793211472593
10
-248.78679656440355
20
1320.6057280184521
42
-0.19891236737966239
10
-227.57359312880712
20
1329.3925245828559
10
227.57359312880686
20
1329.3925245828559
42
-0.19891236737965801
10
248.78679656440343
20
1320.6057280184523
10
456.21320343559637
20
1113.1793211472593
42
-0.1989123673796564
10
465
20
1091.9661177116629
10
464.99999999999994
20
541.81893145404865
42
-0.19891236737965731
10
456.21320343559631
20
520.60572801845228
10
248.7867965644034
20
313.17932114725926
42
-0.19891236737965859
10
227.57359312880706
20
304.3925245828558
0
LWPOLYLINE
5
118
100
AcDbEntity
8
0
100
AcDbPolyline
90
4
70
1
43
0.0
10
-24.999999999999929
20
353.42015185486531
10
-24.999999999999929
20
503.42015185486531
10
-43.99999999999995
20
503.42015185486531
10
-43.99999999999995
20
353.42015185486531
0
LWPOLYLINE
5
119
100
AcDbEntity
8
0
100
AcDbPolyline
90
4
70
1
43
0.0
10
-300.00000000000006
20
863.36489731084623
10
-300.00000000000011
20
844.36489731084635
10
299.99999999999989
20
844.36489731084635
10
299.99999999999994
20
863.36489731084623
0
LWPOLYLINE
5
120
100
AcDbEntity
8
0
100
AcDbPolyline
90
4
70
1
43
0.0
10
-300.00000000000006
20
937.36489731084635
10
-300.00000000000011
20
918.36489731084623
10
299.99999999999989
20
918.36489731084623
10
299.99999999999994
20
937.36489731084635
0
LWPOLYLINE
5
121
100
AcDbEntity
8
0
100
AcDbPolyline
90
4
70
1
43
0.0
10
-181.99999999999991
20
353.42015185486531
10
-162.99999999999994
20
353.42015185486531
10
-162.99999999999994
20
503.42015185486531
10
-181.99999999999991
20
503.42015185486531
0
LWPOLYLINE
5
122
100
AcDbEntity
8
0
100
AcDbPolyline
90
4
70
1
43
0.0
10
299.99999999999994
20
715.36489731084635
10
-300.00000000000006
20
715.36489731084635
10
-300.00000000000011
20
696.36489731084623
10
299.99999999999989
20
696.36489731084623
0
LWPOLYLINE
5
123
100
AcDbEntity
8
0
100
AcDbPolyline
90
4
70
1
43
0.0
10
113.00000000000009
20
353.42015185486531
10
113.00000000000009
20
503.42015185486531
10
94.000000000000085
20
503.42015185486531
10
94.000000000000085
20
353.42015185486531
0
LWPOLYLINE
5
124
100
AcDbEntity
8
0
100
AcDbPolyline
90
4
70
1
43
0.0
10
-300.00000000000006
20
567.36489731084635
10
-300.00000000000011
20
548.36489731084635
10
299.99999999999989
20
548.36489731084635
10
299.99999999999994
20
567.36489731084635
0
LWPOLYLINE
5
125
100
AcDbEntity
8
0
100
AcDbPolyline
90
4
70
1
43
0.0
10
-300.00000000000011
20
770.36489731084635
10
299.99999999999989
20
770.36489731084635
10
299.99999999999994
20
789.36489731084635
10
-300.00000000000006
20
789.36489731084635
0
LWPOLYLINE
5
126
100
AcDbEntity
8
0
100
AcDbPolyline
90
4
70
1
43
0.0
10
-300.00000000000011
20
622.36489731084635
10
299.99999999999989
20
622.36489731084635
10
299.99999999999994
20
641.36489731084623
10
-300.00000000000006
20
641.36489731084623
0
LWPOLYLINE
5
127
100
AcDbEntity
8
0
100
AcDbPolyline
90
4
70
1
43
0.0
10
182.00000000000006
20
503.42015185486531
10
163.00000000000009
20
503.42015185486531
10
163.00000000000009
20
353.42015185486531
10
182.00000000000006
20
353.42015185486531
0
LWPOLYLINE
5
128
100
AcDbEntity
8
0
100
AcDbPolyline
90
4
70
1
43
0.0
10
181.99999999999991
20
1130.3648973108463
10
181.99999999999991
20
1280.3648973108463
10
162.99999999999994
20
1280.3648973108463
10
162.99999999999994
20
1130.3648973108463
0
LWPOLYLINE
5
129
100
AcDbEntity
8
0
100
AcDbPolyline
90
4
70
1
43
0.0
10
-94.000000000000071
20
1280.3648973108463
10
-113.00000000000009
20
1280.3648973108463
10
-113.00000000000009
20
1130.3648973108463
10
-94.000000000000071
20
1130.3648973108463
0
LWPOLYLINE
5
130
100
AcDbEntity
8
0
100
AcDbPolyline
90
4
70
1
43
0.0
10
25.000000000000071
20
503.42015185486531
10
25.000000000000071
20
353.42015185486531
10
44.000000000000057
20
353.42015185486531
10
44.000000000000057
20
503.42015185486531
0
LWPOLYLINE
5
131
100
AcDbEntity
8
0
100
AcDbPolyline
90
4
70
1
43
0.0
10
-93.999999999999943
20
503.42015185486531
10
-112.99999999999996
20
503.42015185486531
10
-112.99999999999996
20
353.42015185486531
10
-93.999999999999943
20
353.42015185486531
0
LWPOLYLINE
5
132
100
AcDbEntity
8
0
100
AcDbPolyline
90
4
70
1
43
0.0
10
-25.000000000000071
20
1280.3648973108463
10
-44.000000000000057
20
1280.3648973108463
10
-44.000000000000057
20
1130.3648973108463
10
-25.000000000000071
20
1130.3648973108463
0
LWPOLYLINE
5
133
100
AcDbEntity
8
0
100
AcDbPolyline
90
4
70
1
43
0.0
10
-300.00000000000006
20
1011.3648973108462
10
-300.00000000000011
20
992.36489731084635
10
299.99999999999989
20
992.36489731084635
10
299.99999999999994
20
1011.3648973108462
0
LWPOLYLINE
5
134
100
AcDbEntity
8
0
100
AcDbPolyline
90
4
70
1
43
0.0
10
-300.00000000000006
20
1085.3648973108463
10
-300.00000000000011
20
1066.3648973108461
10
299.99999999999989
20
1066.3648973108461
10
299.99999999999994
20
1085.3648973108463
0
LWPOLYLINE
5
135
100
AcDbEntity
8
0
100
AcDbPolyline
90
4
70
1
43
0.0
10
112.99999999999994
20
1280.3648973108463
10
93.999999999999943
20
1280.3648973108463
10
93.999999999999943
20
1130.3648973108463
10
112.99999999999994
20
1130.3648973108463
0
LWPOLYLINE
5
136
100
AcDbEntity
8
0
100
AcDbPolyline
90
4
70
1
43
0.0
10
-182.00000000000011
20
1280.3648973108463
10
-182.00000000000011
20
1130.3648973108463
10
-163.00000000000009
20
1130.3648973108463
10
-163.00000000000009
20
1280.3648973108463
0
LWPOLYLINE
5
137
100
AcDbEntity
8
0
100
AcDbPolyline
90
4
70
1
43
0.0
10
43.99999999999995
20
1130.3648973108463
10
43.99999999999995
20
1280.3648973108463
10
24.999999999999929
20
1280.3648973108463
10
24.999999999999929
20
1130.3648973108463
0
LWPOLYLINE
5
138
100
AcDbEntity
8
0
100
AcDbPolyline
90
6
70
1
43
0.0
10
439.39339828220164
20
1154.9991263006543
10
290.60660171779818
20
1303.7859228650577
42
-0.66817863791929599
10
301.21320343559637
20
1329.3925245828559
10
450.00000000000006
20
1329.3925245828561
42
-0.41421356237310064
10
465
20
1314.3925245828559
10
465
20
1165.6057280184523
42
-0.66817863791931542
0
LWPOLYLINE
5
139
100
AcDbEntity
8
0
100
AcDbPolyline
90
6
70
1
43
0.0
10
465
20
319.3925245828558
42
-0.41421356237309781
10
450
20
304.3925245828558
10
301.21320343559648
20
304.39252458285586
42
-0.66817863791929888
10
290.60660171779824
20
329.9991263006541
10
439.39339828220159
20
478.7859228650575
42
-0.66817863791929599
10
465
20
468.17932114725926
0
LWPOLYLINE
5
140
100
AcDbEntity
8
0
100
AcDbPolyline
90
6
70
1
43
0.0
10
-464.99999999999994
20
468.17932114725943
42
-0.66817863791930854
10
-439.39339828220164
20
478.78592286505756
10
-290.60660171779807
20
329.99912630065404
42
-0.66817863791929355
10
-301.21320343559637
20
304.3925245828558
10
-450
20
304.39252458285569
42
-0.41421356237310064
10
-465
20
319.3925245828558
0
LWPOLYLINE
5
141
100
AcDbEntity
8
0
100
AcDbPolyline
90
6
70
1
43
0.0
10
-301.21320343559643
20
1329.3925245828559
42
-0.6681786379192991
10
-290.6066017177983
20
1303.7859228650575
10
-439.39339828220164
20
1154.9991263006539
42
-0.66817863791929644
10
-465
20
1165.6057280184523
10
-465.00000000000006
20
1314.3925245828555
42
-0.41421356237310197
10
-450
20
1329.3925245828559
0
LWPOLYLINE
5
142
100
AcDbEntity
8
0
100
AcDbPolyline
90
6
70
1
43
0.0
10
-1669.5546830626315
20
372.09839682319512
42
-0.41421356237309503
10
-1688.6046830626319
20
391.14839682319541
10
-1688.6046830626321
20
1051.087018634038
42
-0.41421356237308632
10
-1669.5546830626322
20
1070.1370186340378
10
-1645.3904608589719
20
1070.1370186340378
10
-1645.3904608589712
20
372.09839682319512
0
LWPOLYLINE
5
143
100
AcDbEntity
8
0
100
AcDbPolyline
90
6
70
1
43
0.0
10
-1596.4586738747448
20
369.53423885297212
42
-0.41421356237308632
10
-1615.5086738747448
20
388.58423885297213
10
-1615.5086738747455
20
1048.5228606638148
42
-0.41421356237309065
10
-1596.4586738747453
20
1067.5728606638152
10
-1572.294451671085
20
1067.5728606638149
10
-1572.2944516710845
20
369.53423885297212
0
LWPOLYLINE
5
144
100
AcDbEntity
8
0
100
AcDbPolyline
90
8
70
1
43
0.0
10
-1532.0454447264033
20
586.93827590918772
10
-1542.0454447264033
20
586.9382759091875
42
-0.41421356237308399
10
-1557.0454447264033
20
601.9382759091875
10
-1557.0454447264028
20
1055.666507719101
42
-0.41421356237308399
10
-1542.0454447264035
20
1070.6665077191003
10
-1532.0454447264035
20
1070.666507719101
42
-0.41421356237308948
10
-1517.0454447264037
20
1055.666507719101
10
-1517.0454447264035
20
601.9382759091875
42
-0.41421356237309503
0
LWPOLYLINE
5
145
100
AcDbEntity
8
0
100
AcDbPolyline
90
8
70
1
43
0.0
10
-1473.0416637938865
20
1071.2576609118082
42
-0.41421356237309503
10
-1458.0416637938868
20
1056.2576609118084
10
-1458.0416637938865
20
602.52942910189518
42
-0.41421356237309503
10
-1473.0416637938861
20
587.5294291018954
10
-1483.0416637938861
20
587.52942910189518
42
-0.41421356237308948
10
-1498.0416637938858
20
602.52942910189518
10
-1498.0416637938856
20
1056.2576609118084
42
-0.41421356237309503
10
-1483.0416637938865
20
1071.2576609118078
0
LWPOLYLINE
5
146
100
AcDbEntity
8
0
100
AcDbPolyline
90
16
70
1
43
0.0
10
-1218.0104333625557
20
944.4684779524157
42
-0.19891236737965684
10
-1154.3708230557661
20
970.82886764562636
10
-850.5230599472643
20
970.82886764562591
42
-0.19891236737966228
10
-786.88344964047485
20
944.46847795241501
10
-696.6185878133831
20
854.20361612532338
42
0.41421356237309898
10
-675.4053843777865
20
854.20361612532338
10
-668.33431656592222
20
861.27468393718777
42
0.41421356237309898
10
-668.33431656592211
20
882.48788737278392
10
-758.59917839301306
20
972.7527491998768
42
0.19891236737965995
10
-850.5230599472643
20
1010.8288676456257
10
-1154.3708230557661
20
1010.828867645626
42
0.19891236737965742
10
-1246.2947046100173
20
972.75274919987737
10
-1336.559566437106
20
882.48788737278915
42
0.41421356237308721
10
-1336.559566437106
20
861.27468393719255
10
-1329.4884986252407
20
854.20361612532747
42
0.41421356237308721
10
-1308.2752951896441
20
854.20361612532747
0
LWPOLYLINE
5
147
100
AcDbEntity
8
0
100
AcDbPolyline
90
16
70
1
43
0.0
10
-1222.6783128181812
20
848.39786793884605
10
-1312.9431746452692
20
758.13300611175748
42
-0.41421356237309115
10
-1334.156378080866
20
758.13300611175748
10
-1341.2274458927313
20
765.20407392362256
42
-0.41421356237309309
10
-1341.2274458927313
20
786.41727735921961
10
-1250.9625840656429
20
876.68213918630772
42
-0.19891236737965939
10
-1159.0387025113914
20
914.75825763205637
10
-855.19093940288985
20
914.75825763205603
42
-0.1989123673796587
10
-763.2670578486385
20
876.68213918630715
10
-673.00219602154755
20
786.41727735921438
42
-0.41421356237310486
10
-673.00219602154755
20
765.20407392361801
10
-680.07326383341194
20
758.13300611175362
42
-0.41421356237309898
10
-701.28646726900854
20
758.13300611175362
10
-791.55132909610029
20
848.39786793884514
42
0.19891236737966048
10
-855.19093940288963
20
874.75825763205626
10
-1159.0387025113914
20
874.75825763205637
42
0.19891236737965862
0
LWPOLYLINE
5
148
100
AcDbEntity
8
0
100
AcDbPolyline
90
16
70
1
43
0.0
10
-851.99378558618503
20
821.54222968496174
42
-0.19891236737965776
10
-760.0699040319339
20
783.46611123921252
10
-669.8050422048434
20
693.20124941211975
42
-0.41421356237309115
10
-669.80504220484318
20
671.98804597652361
10
-676.87611001670746
20
664.91697816465899
42
-0.41421356237309115
10
-698.08931345230405
20
664.91697816465899
10
-788.35417527939558
20
755.18183999175051
42
0.19891236737965831
10
-851.99378558618503
20
781.5422296849614
10
-1155.8415486946869
20
781.54222968496174
42
0.19891236737965584
10
-1219.4811590014767
20
755.1818399917513
10
-1309.7460208285652
20
664.91697816466296
42
-0.41421356237308132
10
-1330.9592242641613
20
664.91697816466331
10
-1338.0302920760269
20
671.98804597652838
42
-0.41421356237309503
10
-1338.0302920760269
20
693.20124941212498
10
-1247.7654302489384
20
783.46611123921309
42
-0.1989123673796587
10
-1155.8415486946869
20
821.54222968496174
0
LWPOLYLINE
5
149
100
AcDbEntity
8
0
100
AcDbPolyline
90
16
70
1
43
0.0
10
-672.4100627041305
20
567.80014214447408
42
-0.41421356237309803
10
-693.62326613972698
20
567.80014214447397
10
-783.88812796681907
20
658.06500397156526
42
0.19891236737966037
10
-847.52773827360829
20
684.42539366477615
10
-1151.3755013821103
20
684.42539366477661
42
0.19891236737965723
10
-1215.0151116888997
20
658.06500397156628
10
-1305.2799735159879
20
567.80014214447783
42
-0.41421356237308721
10
-1326.4931769515847
20
567.80014214447783
10
-1333.56424476345
20
574.87120995634314
42
-0.41421356237308721
10
-1333.56424476345
20
596.08441339193973
10
-1243.2993829363618
20
686.34927521902807
42
-0.19891236737965753
10
-1151.3755013821103
20
724.42539366477672
10
-847.52773827360852
20
724.42539366477592
42
-0.19891236737966042
10
-755.60385671935705
20
686.34927521902705
10
-665.3389948922661
20
596.08441339193462
42
-0.41421356237308815
10
-665.3389948922661
20
574.87120995633836
0
LWPOLYLINE
5
150
100
AcDbEntity
8
0
100
AcDbPolyline
90
16
70
1
43
0.0
10
-1770.5586941148786
20
328.04155093810976
10
-1394.5443853411339
20
328.04155093810976
42
-0.41421356237309503
10
-1375.4943853411339
20
308.99155093810981
10
-1375.4943853411339
20
-350.947070872734
42
-0.41421356237308743
10
-1394.5443853411336
20
-369.99707087273396
10
-1630.6270532910689
20
-369.99707087273396
42
-0.41421356237309837
10
-1643.3270532910688
20
-357.29707087273397
10
-1643.3270532910688
20
-206.46431676241014
42
-0.19891236737965304
10
-1639.607309412138
20
-197.48406064134093
10
-1582.6180843634086
20
-140.49483559261168
42
0.19891236737964549
10
-1571.4588527266164
20
-113.55406722940444
10
-1571.4588527266164
20
43.003307479246402
42
0.1989123673796557
10
-1582.6180843634088
20
69.944075842454083
10
-1779.5389502359478
20
266.86494171499339
42
-0.19891236737966159
10
-1783.2586941148788
20
275.84519783606254
10
-1783.2586941148784
20
315.34155093810995
42
-0.41421356237309342
0
LWPOLYLINE
5
151
100
AcDbEntity
8
0
100
AcDbPolyline
90
6
70
1
43
0.0
10
-1503.408551914953
20
82.569396091743812
42
-0.72046860982865901
10
-1503.408551914953
20
90.466615109818207
10
-1483.7475079284343
20
97.028654802644624
42
-0.51203900383888801
10
-1477.2500245357051
20
92.347421975299966
10
-1477.2500245357032
20
80.688589226261215
42
-0.51203900383893031
10
-1483.7475079284345
20
76.007356398916102
0
LWPOLYLINE
5
152
100
AcDbEntity
8
0
100
AcDbPolyline
90
16
70
1
43
0.0
10
-1452.4571498933533
20
-117.01794244688057
42
-0.41421356237308871
10
-1445.8770400932656
20
-123.59805224696825
10
-1445.8770400932656
20
-131.13227796806734
10
-1485.4502286481513
20
-164.33812588898127
42
0.7002075382098536
10
-1484.6043060381769
20
-166.66227915849385
10
-1445.8770400932656
20
-166.66227915849299
10
-1445.8770400932644
20
-174.19650487959387
42
-0.41421356237309193
10
-1452.4571498933533
20
-180.7766146796817
10
-1502.8114401385253
20
-180.77661467968176
42
-0.41421356237310453
10
-1509.3915499386135
20
-174.19650487959402
10
-1509.3915499386135
20
-166.66227915849299
10
-1469.8183613837282
20
-133.45643123758052
42
0.70020753820976334
10
-1470.6642839937026
20
-131.13227796806896
10
-1509.3915499386135
20
-131.13227796806848
10
-1509.391549938613
20
-123.59805224696771
42
-0.41421356237307527
10
-1502.8114401385253
20
-117.01794244687989
0
LWPOLYLINE
5
153
100
AcDbEntity
8
0
100
AcDbPolyline
90
5
70
1
43
0.0
10
-1471.2466326569154
20
-216.7045407688569
10
-1483.5966764219856
20
-216.7045407688569
10
-1483.5966764219856
20
-245.9410486567279
10
-1477.8267424570029
20
-245.9410486567279
42
0.41421356237310142
10
-1471.2466326569154
20
-239.36093885664008
0
LWPOLYLINE
5
154
100
AcDbEntity
8
0
100
AcDbPolyline
90
14
70
1
43
0.0
10
-1509.3915499386137
20
68.875085857252685
10
-1509.3915499386137
20
61.340860136151889
42
0.41421356237308476
10
-1502.8114401385255
20
54.760750336063744
10
-1462.3273145934854
20
54.760750336064028
42
0.41421356237308776
10
-1445.8770400932656
20
71.211024836283912
10
-1445.8770400932656
20
101.8249856811926
42
0.41421356237310197
10
-1462.3273145934854
20
118.2752601814127
10
-1502.8114401385255
20
118.27526018141242
42
0.41421356237308077
10
-1509.3915499386137
20
111.6951503813242
10
-1509.3915499386137
20
104.16092466022388
10
-1464.9264579645205
20
104.16092466022317
42
-0.41421356237303392
10
-1459.9913756144542
20
99.225842310157901
10
-1459.9913756144547
20
73.810168207318412
42
-0.41421356237309293
10
-1464.9264579645205
20
68.875085857252685
0
LWPOLYLINE
5
155
100
AcDbEntity
8
0
100
AcDbPolyline
90
14
70
1
43
0.0
10
-1502.8114401385253
20
-249.56883891111295
42
-0.41421356237310453
10
-1509.3915499386135
20
-242.98872911102521
10
-1509.3915499386121
20
-197.22688917990098
42
-0.41421356237309975
10
-1502.8114401385253
20
-190.64677937981386
10
-1452.4571498933533
20
-190.64677937981256
42
-0.41421356237308243
10
-1445.8770400932647
20
-197.22688917990095
10
-1445.8770400932656
20
-242.98872911102563
42
-0.41421356237310453
10
-1452.4571498933533
20
-249.5688389111136
10
-1459.9913756144542
20
-249.5688389111136
10
-1459.9913756144542
20
-206.07713686101903
42
0.41421356237307921
10
-1461.3073975744719
20
-204.76111490100124
10
-1493.9611924574072
20
-204.76111490100118
42
0.41421356237285784
10
-1495.2772144174262
20
-206.07713686101903
10
-1495.2772144174253
20
-249.5688389111136
0
LWPOLYLINE
5
156
100
AcDbEntity
8
0
100
AcDbPolyline
90
14
70
1
43
0.0
10
-1499.5213852384818
20
-12.215689396856817
10
-1495.2772144174253
20
-12.215690167361402
10
-1495.277214417426
20
29.460228154726185
42
-0.41421356237298035
10
-1493.9611924574074
20
30.776250114743959
10
-1461.3073975744724
20
30.776250114744244
42
-0.41421356237307921
10
-1459.9913756144542
20
29.460228154726238
10
-1459.9913756144542
20
-12.215690167361402
10
-1455.7472047933973
20
-12.215690167361402
42
0.41421358523751528
10
-1445.8770400932658
20
-2.3455246967257182
10
-1445.8770400932656
20
28.440311135713458
42
0.41421356237309453
10
-1462.3273145934854
20
44.89058563593268
10
-1492.9412754383941
20
44.89058563593268
42
0.41421356237310525
10
-1509.3915499386135
20
28.440311135712761
10
-1509.3915499386137
20
-2.3455246967251493
42
0.41421356237308149
0
LWPOLYLINE
5
157
100
AcDbEntity
8
0
100
AcDbPolyline
90
6
70
1
43
0.0
10
-1509.3915499386135
20
-107.14857851017406
10
-1452.4571498933533
20
-107.14857851017406
42
0.41421356237308554
10
-1445.8770400932654
20
-100.56846871008617
10
-1445.8770400932656
20
-93.03424298898527
10
-1502.8114401385255
20
-93.034242988985838
42
0.41421356237310142
10
-1509.3915499386126
20
-99.614352789073237
0
LINE
5
158
100
AcDbEntity
8
0
100
AcDbLine
10
-1445.8770400932656
20
-28.665963897076594
30
0
11
-1445.8770400932656
21
-36.200189618176992
31
0
0
LINE
5
159
100
AcDbEntity
8
0
100
AcDbLine
10
-1445.8770400932656
20
-36.200189618176992
30
0
11
-1468.877127255344
21
-36.20018961817685
31
0
0
ARC
5
160
100
AcDbEntity
8
0
100
AcDbCircle
10
-1468.877127255344
20
-37.900189618177009
30
0
40
1.7000000000001592
210
0
220
-0
230
1
100
AcDbArc
50
90
51
180
0
LINE
5
161
100
AcDbEntity
8
0
100
AcDbLine
10
-1470.5771272553443
20
-37.900189618176938
30
0
11
-1470.5771272553441
21
-67.349742767665646
31
0
0
ARC
5
162
100
AcDbEntity
8
0
100
AcDbCircle
10
-1468.8771272553438
20
-67.349742767665646
30
0
40
1.7000000000001592
210
0
220
0
230
1
100
AcDbArc
50
180
51
270
0
LINE
5
163
100
AcDbEntity
8
0
100
AcDbLine
10
-1468.8771272553438
20
-69.049742767665734
30
0
11
-1445.8770400932656
21
-69.049742767665805
31
0
0
LINE
5
164
100
AcDbEntity
8
0
100
AcDbLine
10
-1445.8770400932656
20
-69.049742767665805
30
0
11
-1445.8770400932654
21
-76.583968488766203
31
0
0
ARC
5
165
100
AcDbEntity
8
0
100
AcDbCircle
10
-1452.4571498933533
20
-76.583968488766232
30
0
40
6.5801098000877278
210
0
220
0
230
1
100
AcDbArc
50
-89.99999999999801
51
0
0
LINE
5
166
100
AcDbEntity
8
0
100
AcDbLine
10
-1452.4571498933531
20
-83.164078288853958
30
0
11
-1502.8114401385253
21
-83.164078288854242
31
0
0
ARC
5
167
100
AcDbEntity
8
0
100
AcDbCircle
10
-1502.8114401385255
20
-76.583968488766203
30
0
40
6.5801098000878255
210
0
220
0
230
1
100
AcDbArc
50
180
51
270.00000000000199
0
LINE
5
168
100
AcDbEntity
8
0
100
AcDbLine
10
-1509.3915499386135
20
-76.583968488766132
30
0
11
-1509.3915499386135
21
-69.049742767665805
31
0
0
LINE
5
169
100
AcDbEntity
8
0
100
AcDbLine
10
-1509.3915499386135
20
-69.049742767665805
30
0
11
-1486.3914627765346
21
-69.049742767665805
31
0
0
ARC
5
170
100
AcDbEntity
8
0
100
AcDbCircle
10
-1486.3914627765346
20
-67.349742767665646
30
0
40
1.7000000000001592
210
-0
220
0
230
1
100
AcDbArc
50
270
51
360
0
LINE
5
171
100
AcDbEntity
8
0
100
AcDbLine
10
-1484.6914627765343
20
-67.349742767666157
30
0
11
-1484.6914627765345
21
-37.900189618176867
31
0
0
ARC
5
172
100
AcDbEntity
8
0
100
AcDbCircle
10
-1486.3914627765346
20
-37.900189618176867
30
0
40
1.6999999999998749
210
0
220
-0
230
1
100
AcDbArc
50
0
51
90
0
LINE
5
173
100
AcDbEntity
8
0
100
AcDbLine
10
-1486.3914627765346
20
-36.200189618176921
30
0
11
-1509.3915499386137
21
-36.200189618176992
31
0
0
LINE
5
174
100
AcDbEntity
8
0
100
AcDbLine
10
-1509.3915499386137
20
-36.200189618176992
30
0
11
-1509.391549938613
21
-28.665963897076452
31
0
0
ARC
5
175
100
AcDbEntity
8
0
100
AcDbCircle
10
-1502.8114401385253
20
-28.665964667580894
30
0
40
6.5801098000880387
210
0
220
0
230
1
100
AcDbArc
50
90.00000000000199
51
179.99999327737959
0
LINE
5
176
100
AcDbEntity
8
0
100
AcDbLine
10
-1502.8114401385255
20
-22.085854867492856
30
0
11
-1452.4571498933533
21
-22.08585486749314
31
0
0
ARC
5
177
100
AcDbEntity
8
0
100
AcDbCircle
10
-1452.4571498933533
20
-28.665963897076352
30
0
40
6.5801098000878255
210
0
220
0
230
1
100
AcDbArc
50
0
51
90
0
LWPOLYLINE
5
178
100
AcDbEntity
8
0
100
AcDbPolyline
90
22
70
1
43
0.0
10
-1445.8770400932658
20
134.72553468163198
42
-0.41421356237313378
10
-1452.4571498933549
20
128.14542488154385
10
-1502.8114401385255
20
128.14542488154419
42
-0.41421356237307605
10
-1509.3915499386137
20
134.72553468163187
10
-1509.3915499386137
20
142.25976442510188
10
-1470.8954931258208
20
142.25976074809492
42
0.70020757379661125
10
-1470.0495703901445
20
144.58391401760673
10
-1491.2166921442824
20
162.34523807458856
42
-0.4663076581554253
10
-1491.2166921442824
20
164.36150069357637
10
-1470.0495703901436
20
182.12282475055844
42
0.70020757379674581
10
-1470.8954931258211
20
184.44697802006996
10
-1509.3915499386137
20
184.44697434306278
10
-1509.3915499386135
20
191.9812040865331
42
-0.41421356237311246
10
-1502.8114401385253
20
198.56131388662106
10
-1452.4571498933533
20
198.56131388662112
42
-0.41421356237309503
10
-1445.8770400932647
20
191.98120408653301
10
-1445.8770400932654
20
185.06064948368916
42
-0.22169466264284529
10
-1446.3471394433079
20
184.05251817419509
10
-1469.8139802676699
20
164.36150069357637
42
0.46630765815507602
10
-1469.813980267671
20
162.34523807458956
10
-1446.3471394433088
20
142.65422059396994
42
-0.22169466264265869
10
-1445.8770400932658
20
141.64608928447612
0
LWPOLYLINE
5
179
100
AcDbEntity
8
0
100
AcDbPolyline
90
16
70
1
43
0.0
10
1571.9475665899201
20
-514.38417423357419
42
-0.19891236737966861
10
1580.7343631543233
20
-535.59737766917033
10
1580.7343631543233
20
-1065.7445639267844
42
-0.19891236737964554
10
1571.9475665899197
20
-1086.9577673623803
10
1509.5211597187272
20
-1149.384174233573
42
-0.19891236737966653
10
1488.307956283131
20
-1158.1709707979767
10
728.16077002551663
20
-1158.1709707979776
42
-0.19891236737967047
10
706.94756658992048
20
-1149.3841742335735
10
644.52115971872786
20
-1086.9577673623808
42
-0.19891236737965337
10
635.73436315432423
20
-1065.7445639267844
10
635.73436315432423
20
-535.59737766917021
42
-0.19891236737966053
10
644.52115971872774
20
-514.38417423357373
10
706.94756658992037
20
-451.95776736238088
42
-0.19891236737965315
10
728.16077002551708
20
-443.17097079797742
10
1488.307956283131
20
-443.17097079797742
42
-0.19891236737966145
10
1509.5211597187267
20
-451.95776736238088
0
LWPOLYLINE
5
180
100
AcDbEntity
8
0
100
AcDbPolyline
90
12
70
1
43
0.0
10
989.95875705554397
20
-587.94456392678421
42
-0.19891236737965615
10
1032.3851639267368
20
-570.37097079797718
10
1418.9363761242962
20
-570.37097079797684
42
-0.41421356237308932
10
1458.9363761242962
20
-610.37097079797718
10
1458.9363761242957
20
-756.11815705559138
42
-0.19891236737965892
10
1441.3627829954894
20
-798.54456392678389
10
1226.5099692531035
20
-1013.3973776691698
42
-0.19891236737965742
10
1184.0835623819107
20
-1030.9709707979773
10
797.53235018435134
20
-1030.9709707979766
42
-0.41421356237309398
10
757.53235018435134
20
-990.97097079797732
10
757.53235018435123
20
-845.223784540363
42
-0.19891236737965026
10
775.10594331315872
20
-802.79737766916992
0
ENDSEC
0
SECTION
2
OBJECTS
0
DICTIONARY
5
C
100
AcDbDictionary
3
ACAD_GROUP
350
D
3
ACAD_MLINESTYLE
350
17
0
DICTIONARY
5
D
100
AcDbDictionary
0
DICTIONARY
5
1A
330
C
100
AcDbDictionary
0
DICTIONARY
5
17
100
AcDbDictionary
0
ENDSEC
0
EOF
