0
SECTION
2
HEADER
9
$INSUNITS
70
4
9
$ACADVER
1
AC1014
9
$HANDSEED
5
FFFF
0
ENDSEC
0
SECTION
2
TABLES
0
TABLE
2
VPORT
5
8
100
AcDbSymbolTable
0
ENDTAB
0
TABLE
2
LTYPE
5
5
100
AcDbSymbolTable
0
LTYPE
5
14
100
AcDbSymbolTableRecord
100
AcDbLinetypeTableRecord
2
BYBLOCK
70
0
0
LTYPE
5
15
100
AcDbSymbolTableRecord
100
AcDbLinetypeTableRecord
2
BYLAYER
70
0
0
ENDTAB
0
TABLE
2
LAYER
5
2
100
AcDbSymbolTable
70
2
0
LAYER
5
50
100
AcDbSymbolTableRecord
100
AcDbLayerTableRecord
2
0
70
0
6
CONTINUOUS
0
ENDTAB
0
TABLE
2
STYLE
5
3
100
AcDbSymbolTable
70
1
0
STYLE
5
11
100
AcDbSymbolTableRecord
100
AcDbTextStyleTableRecord
2
STANDARD
70
0
0
ENDTAB
0
TABLE
2
VIEW
5
6
100
AcDbSymbolTable
70
0
0
ENDTAB
0
TABLE
2
UCS
5
7
100
AcDbSymbolTable
70
0
0
ENDTAB
0
TABLE
2
APPID
5
9
100
AcDbSymbolTable
70
2
0
APPID
5
12
100
AcDbSymbolTableRecord
100
AcDbRegAppTableRecord
2
ACAD
70
0
0
ENDTAB
0
TABLE
2
DIMSTYLE
5
A
100
AcDbSymbolTable
70
1
0
ENDTAB
0
TABLE
2
BLOCK_RECORD
5
1
100
AcDbSymbolTable
70
1
0
BLOCK_RECORD
5
1F
100
AcDbSymbolTableRecord
100
AcDbBlockTableRecord
2
*MODEL_SPACE
0
BLOCK_RECORD
5
1B
100
AcDbSymbolTableRecord
100
AcDbBlockTableRecord
2
*PAPER_SPACE
0
ENDTAB
0
ENDSEC
0
SECTION
2
BLOCKS
0
BLOCK
5
20
100
AcDbEntity
100
AcDbBlockBegin
2
*MODEL_SPACE
0
ENDBLK
5
21
100
AcDbEntity
100
AcDbBlockEnd
0
BLOCK
5
1C
100
AcDbEntity
100
AcDbBlockBegin
2
*PAPER_SPACE
0
ENDBLK
5
1D
100
AcDbEntity
100
AcDbBlockEnd
0
ENDSEC
0
SECTION
2
ENTITIES
0
LWPOLYLINE
5
100
100
AcDbEntity
8
0
100
AcDbPolyline
90
16
70
1
43
0.0
10
-513.71320343559648
20
-643.7867965644034
42
-0.19891236737965834
10
-522.5
20
-622.57359312880703
10
-522.50000000000011
20
-92.426406871192896
42
-0.19891236737966053
10
-513.71320343559648
20
-71.213203435596455
10
-451.28679656440346
20
-8.7867965644036126
42
-0.19891236737965903
10
-430.07359312880709
20
0
10
430.07359312880692
20
1.6209256159527285e-13
42
-0.19891236737965801
10
451.28679656440352
20
-8.7867965644035451
10
513.71320343559648
20
-71.213203435596668
42
-0.19891236737965545
10
522.5
20
-92.426406871193052
10
522.5
20
-622.57359312880703
42
-0.19891236737965834
10
513.71320343559648
20
-643.7867965644034
10
451.28679656440335
20
-706.21320343559648
42
-0.19891236737966031
10
430.07359312880686
20
-715
10
-430.07359312880703
20
-715.00000000000011
42
-0.19891236737966583
10
-451.2867965644034
20
-706.2132034355966
0
LWPOLYLINE
5
101
100
AcDbEntity
8
0
100
AcDbPolyline
90
20
70
1
43
0.0
10
-68.625134807191785
20
-477.75126265847086
42
-0.19891236737965859
10
-43.876397465662613
20
-467.5
10
43.876397465662613
20
-467.50000000000006
42
-0.19891236737965903
10
68.625134807191728
20
-477.75126265847092
10
196.65814339618262
20
-605.7842712474619
42
0.19891236737965848
10
224.94241464364455
20
-617.5
10
378.37387214872081
20
-617.5
42
0.41421356237309503
10
418.37387214872081
20
-577.5
10
418.37387214872081
20
-272.35281374238582
42
0.19891236737965801
10
400.80027901991372
20
-229.92640687119291
10
285.9474652775279
20
-115.07359312880712
42
0.19891236737965792
10
243.52105840633504
20
-97.5
10
-243.52105840633504
20
-97.5
42
0.19891236737965778
10
-285.9474652775279
20
-115.07359312880709
10
-400.80027901991366
20
-229.92640687119297
42
0.19891236737965801
10
-418.37387214872081
20
-272.35281374238582
10
-418.37387214872081
20
-577.5
42
0.41421356237309503
10
-378.37387214872081
20
-617.5
10
-224.94241464364484
20
-617.5
42
0.19891236737965717
10
-196.65814339618291
20
-605.78427124746213
0
ENDSEC
0
SECTION
2
OBJECTS
0
DICTIONARY
5
C
100
AcDbDictionary
3
ACAD_GROUP
350
D
3
ACAD_MLINESTYLE
350
17
0
DICTIONARY
5
D
100
AcDbDictionary
0
DICTIONARY
5
1A
330
C
100
AcDbDictionary
0
DICTIONARY
5
17
100
AcDbDictionary
0
ENDSEC
0
EOF
