0
SECTION
2
HEADER
9
$INSUNITS
70
4
9
$ACADVER
1
AC1014
9
$HANDSEED
5
FFFF
0
ENDSEC
0
SECTION
2
TABLES
0
TABLE
2
VPORT
5
8
100
AcDbSymbolTable
0
ENDTAB
0
TABLE
2
LTYPE
5
5
100
AcDbSymbolTable
0
LTYPE
5
14
100
AcDbSymbolTableRecord
100
AcDbLinetypeTableRecord
2
BYBLOCK
70
0
0
LTYPE
5
15
100
AcDbSymbolTableRecord
100
AcDbLinetypeTableRecord
2
BYLAYER
70
0
0
ENDTAB
0
TABLE
2
LAYER
5
2
100
AcDbSymbolTable
70
2
0
LAYER
5
50
100
AcDbSymbolTableRecord
100
AcDbLayerTableRecord
2
0
70
0
6
CONTINUOUS
0
ENDTAB
0
TABLE
2
STYLE
5
3
100
AcDbSymbolTable
70
1
0
STYLE
5
11
100
AcDbSymbolTableRecord
100
AcDbTextStyleTableRecord
2
STANDARD
70
0
0
ENDTAB
0
TABLE
2
VIEW
5
6
100
AcDbSymbolTable
70
0
0
ENDTAB
0
TABLE
2
UCS
5
7
100
AcDbSymbolTable
70
0
0
ENDTAB
0
TABLE
2
APPID
5
9
100
AcDbSymbolTable
70
2
0
APPID
5
12
100
AcDbSymbolTableRecord
100
AcDbRegAppTableRecord
2
ACAD
70
0
0
ENDTAB
0
TABLE
2
DIMSTYLE
5
A
100
AcDbSymbolTable
70
1
0
ENDTAB
0
TABLE
2
BLOCK_RECORD
5
1
100
AcDbSymbolTable
70
1
0
BLOCK_RECORD
5
1F
100
AcDbSymbolTableRecord
100
AcDbBlockTableRecord
2
*MODEL_SPACE
0
BLOCK_RECORD
5
1B
100
AcDbSymbolTableRecord
100
AcDbBlockTableRecord
2
*PAPER_SPACE
0
ENDTAB
0
ENDSEC
0
SECTION
2
BLOCKS
0
BLOCK
5
20
100
AcDbEntity
100
AcDbBlockBegin
2
*MODEL_SPACE
0
ENDBLK
5
21
100
AcDbEntity
100
AcDbBlockEnd
0
BLOCK
5
1C
100
AcDbEntity
100
AcDbBlockBegin
2
*PAPER_SPACE
0
ENDBLK
5
1D
100
AcDbEntity
100
AcDbBlockEnd
0
ENDSEC
0
SECTION
2
ENTITIES
0
LWPOLYLINE
5
100
100
AcDbEntity
8
0
100
AcDbPolyline
90
12
70
1
43
0.0
10
-515.92364317841725
20
-549.27048738315057
10
-257.847415220313
20
-549.27048738315068
42
0.19891236737965742
10
-226.86553160262449
20
-536.43737100083922
10
-115.37176642718373
20
-424.94360582539855
42
0.19891236737965839
10
-102.53865004487238
20
-393.96172220770995
10
-102.53865004487213
20
-161.2854934866661
42
0.41421356237309503
10
-146.35365004487213
20
-117.47049348666614
10
-405.59801550413977
20
-117.47049348666594
42
0.19891236737965801
10
-436.57989912182825
20
-130.30360986897747
10
-546.90552679610551
20
-240.62923754325453
42
0.19891236737965831
10
-559.73864317841719
20
-271.61112116094318
10
-559.73864317841731
20
-505.45548738315051
42
0.41421356237309503
0
LWPOLYLINE
5
101
100
AcDbEntity
8
0
100
AcDbPolyline
90
28
70
1
43
0.0
10
-296.64615208552186
20
-856.85018461921163
42
-0.19891236737966009
10
-308.09491797971316
20
-861.59241872502025
10
-379.5823748621068
20
-861.59241872502025
42
-0.19891236737965604
10
-391.03114075629821
20
-856.85018461921163
10
-416.54667254468058
20
-831.33465283082899
42
-0.19891236737966747
10
-421.28890665048925
20
-819.88588693663746
10
-421.28890665048925
20
-736.23868604025472
10
-426.04890665048924
20
-736.23868604025472
10
-426.04890665048924
20
-747.84017278350336
42
-0.16654892612960459
10
-448.22967501369658
20
-736.97945440346234
10
-505.21890006242563
20
-679.9902293547334
42
0.19891236737966114
10
-514.19915618349489
20
-676.27048547580239
10
-665.77946100928546
20
-676.27048547580227
42
-0.41421356237310819
10
-678.47946100928527
20
-663.57048547580246
10
-678.47946100928527
20
-19.050000000000018
42
-0.41421356237309087
10
-659.42946100928521
20
0
10
-4.9745410506521454e-15
20
0
42
-0.4142135623730952
10
19.050000000000011
20
-19.050000000000011
10
19.049999999999958
20
-523.6388446519926
42
-0.41421356237309381
10
6.3500000000000512
20
-536.33884465199253
10
-33.546495834514467
20
-536.33884465199253
42
0.19891236737965712
10
-42.526751955583677
20
-540.05858853092332
10
-239.44761782812293
20
-736.97945440346211
42
-0.166548926129608
10
-261.62838619133038
20
-747.84017278350336
10
-261.62838619133038
20
-736.23868604025472
10
-266.38838619133037
20
-736.23868604025472
10
-266.38838619133031
20
-819.88588693663746
42
-0.19891236737965881
10
-271.13062029713899
20
-831.33465283082899
0
ENDSEC
0
SECTION
2
OBJECTS
0
DICTIONARY
5
C
100
AcDbDictionary
3
ACAD_GROUP
350
D
3
ACAD_MLINESTYLE
350
17
0
DICTIONARY
5
D
100
AcDbDictionary
0
DICTIONARY
5
1A
330
C
100
AcDbDictionary
0
DICTIONARY
5
17
100
AcDbDictionary
0
ENDSEC
0
EOF
