0
SECTION
2
HEADER
9
$INSUNITS
70
4
9
$ACADVER
1
AC1014
9
$HANDSEED
5
FFFF
0
ENDSEC
0
SECTION
2
TABLES
0
TABLE
2
VPORT
5
8
100
AcDbSymbolTable
0
ENDTAB
0
TABLE
2
LTYPE
5
5
100
AcDbSymbolTable
0
LTYPE
5
14
100
AcDbSymbolTableRecord
100
AcDbLinetypeTableRecord
2
BYBLOCK
70
0
0
LTYPE
5
15
100
AcDbSymbolTableRecord
100
AcDbLinetypeTableRecord
2
BYLAYER
70
0
0
ENDTAB
0
TABLE
2
LAYER
5
2
100
AcDbSymbolTable
70
2
0
LAYER
5
50
100
AcDbSymbolTableRecord
100
AcDbLayerTableRecord
2
0
70
0
6
CONTINUOUS
0
ENDTAB
0
TABLE
2
STYLE
5
3
100
AcDbSymbolTable
70
1
0
STYLE
5
11
100
AcDbSymbolTableRecord
100
AcDbTextStyleTableRecord
2
STANDARD
70
0
0
ENDTAB
0
TABLE
2
VIEW
5
6
100
AcDbSymbolTable
70
0
0
ENDTAB
0
TABLE
2
UCS
5
7
100
AcDbSymbolTable
70
0
0
ENDTAB
0
TABLE
2
APPID
5
9
100
AcDbSymbolTable
70
2
0
APPID
5
12
100
AcDbSymbolTableRecord
100
AcDbRegAppTableRecord
2
ACAD
70
0
0
ENDTAB
0
TABLE
2
DIMSTYLE
5
A
100
AcDbSymbolTable
70
1
0
ENDTAB
0
TABLE
2
BLOCK_RECORD
5
1
100
AcDbSymbolTable
70
1
0
BLOCK_RECORD
5
1F
100
AcDbSymbolTableRecord
100
AcDbBlockTableRecord
2
*MODEL_SPACE
0
BLOCK_RECORD
5
1B
100
AcDbSymbolTableRecord
100
AcDbBlockTableRecord
2
*PAPER_SPACE
0
ENDTAB
0
ENDSEC
0
SECTION
2
BLOCKS
0
BLOCK
5
20
100
AcDbEntity
100
AcDbBlockBegin
2
*MODEL_SPACE
0
ENDBLK
5
21
100
AcDbEntity
100
AcDbBlockEnd
0
BLOCK
5
1C
100
AcDbEntity
100
AcDbBlockBegin
2
*PAPER_SPACE
0
ENDBLK
5
1D
100
AcDbEntity
100
AcDbBlockEnd
0
ENDSEC
0
SECTION
2
ENTITIES
0
LWPOLYLINE
5
100
100
AcDbEntity
8
0
100
AcDbPolyline
90
6
70
1
43
0.0
10
101.75563919456977
20
247.35296171184871
10
101.75563919457112
20
235.69412896280994
42
0.51203900383886825
10
108.25312258730044
20
231.01289613546527
10
127.91416657381923
20
237.5749358282917
42
0.72046860982865901
10
127.91416657381923
20
245.4721548463661
10
108.25312258730072
20
252.03419453919381
42
0.51203900383894552
0
LWPOLYLINE
5
101
100
AcDbEntity
8
0
100
AcDbPolyline
90
16
70
1
43
0.0
10
133.8971645974795
20
494.70383009660293
10
133.8971645974795
20
502.23805581770375
42
0.41421356237309503
10
127.31705479739141
20
508.81816561779192
10
76.96276455221934
20
508.81816561779158
42
0.41421356237309026
10
70.382654752130733
20
502.23805581770375
10
70.382654752131657
20
494.70383009660293
10
109.10992069704285
20
494.70383009660367
42
-0.70020753820986903
10
109.95584330701732
20
492.37967682709109
10
70.382654752131657
20
459.17382890617728
10
70.382654752131657
20
451.63960318507816
42
0.41421356237309626
10
76.96276455221934
20
445.05949338499033
10
127.31705479739141
20
445.05949338498976
42
0.41421356237309104
10
133.89716459747922
20
451.63960318507759
10
133.8971645974795
20
459.17382890617841
10
95.169898652568747
20
459.17382890617881
42
-0.70020753820976578
10
94.323976042594282
20
461.49798217569025
0
LWPOLYLINE
5
102
100
AcDbEntity
8
0
100
AcDbPolyline
90
5
70
1
43
0.0
10
95.752247315781531
20
567.40248979474995
10
95.752247315781531
20
544.74609170696692
10
108.10229108085167
20
544.74609170696692
10
108.10229108085167
20
573.98259959483778
10
102.33235711586914
20
573.98259959483778
42
0.41421356237309104
0
LWPOLYLINE
5
103
100
AcDbEntity
8
0
100
AcDbPolyline
90
14
70
1
43
0.0
10
84.496990273320449
20
340.25724110547128
10
80.252819452263466
20
340.25724110547128
42
0.41421358523750446
10
70.382654752132012
20
330.38707563483558
10
70.382654752131799
20
299.60123980239655
42
0.4142135623730947
10
86.832929252351576
20
283.15096530217727
10
117.44689009726024
20
283.15096530217727
42
0.41421356237310641
10
133.8971645974795
20
299.60123980239712
10
133.89716459747967
20
330.38707563483501
42
0.41421356237309609
10
124.02699989734792
20
340.2572403349667
10
119.78282907629143
20
340.25724110547128
10
119.78282907629179
20
298.58132278338371
42
-0.41421356237296852
10
118.46680711627343
20
297.26530082336592
10
85.813012233338384
20
297.26530082336581
42
-0.41421356237309503
10
84.496990273320449
20
298.58132278338371
0
LWPOLYLINE
5
104
100
AcDbEntity
8
0
100
AcDbPolyline
90
14
70
1
43
0.0
10
127.31705479739148
20
273.28080060204616
10
86.832929252351576
20
273.28080060204582
42
0.41421356237310009
10
70.382654752131799
20
256.83052610182597
10
70.382654752131799
20
226.21656525691733
42
0.41421356237310009
10
86.832929252351576
20
209.7662907566972
10
127.31705479739148
20
209.76629075669749
42
0.41421356237309742
10
133.89716459747967
20
216.34640055678574
10
133.89716459747967
20
223.88062627788599
10
89.432072623386674
20
223.88062627788679
42
-0.41421356237303597
10
84.496990273320449
20
228.81570862795201
10
84.496990273320947
20
254.23138273079147
42
-0.41421356237309503
10
89.432072623386674
20
259.16646508085717
10
133.89716459747967
20
259.16646508085717
10
133.89716459747967
20
266.70069080195799
42
0.41421356237309193
0
LWPOLYLINE
5
105
100
AcDbEntity
8
0
100
AcDbPolyline
90
6
70
1
43
0.0
10
133.89716459747865
20
427.65590372718304
42
-0.41421356237310053
10
127.31705479739141
20
421.07579392709579
10
70.382654752131657
20
421.07579392709522
10
70.382654752131486
20
428.61001964819604
42
-0.41421356237309026
10
76.96276455221934
20
435.19012944828387
10
133.8971645974795
20
435.19012944828387
0
LWPOLYLINE
5
106
100
AcDbEntity
8
0
100
AcDbPolyline
90
14
70
1
43
0.0
10
84.496990273320378
20
577.61038984922334
10
76.96276455221934
20
577.61038984922334
42
0.41421356237309026
10
70.382654752131515
20
571.03028004913551
10
70.382654752130733
20
525.26844011801086
42
0.41421356237309465
10
76.96276455221934
20
518.68833031792224
10
127.31705479739141
20
518.6883303179236
42
0.41421356237310053
10
133.89716459747865
20
525.26844011801086
10
133.8971645974795
20
571.03028004913494
42
0.41421356237309503
10
127.31705479739141
20
577.61038984922311
10
119.78282907629129
20
577.61038984922334
10
119.78282907629222
20
534.11868779912891
42
-0.41421356237284207
10
118.46680711627329
20
532.80266583911111
10
85.813012233338242
20
532.80266583911111
42
-0.41421356237309503
10
84.496990273320378
20
534.11868779912891
0
LINE
5
107
100
AcDbEntity
8
0
100
AcDbLine
10
70.382654752131799
20
356.70751483518654
30
0
11
70.382654752131799
21
364.2417405562868
31
0
0
LINE
5
108
100
AcDbEntity
8
0
100
AcDbLine
10
70.382654752131799
20
364.2417405562868
30
0
11
93.382741914210214
21
364.2417405562868
31
0
0
ARC
5
109
100
AcDbEntity
8
0
100
AcDbCircle
10
93.382741914210143
20
365.94174055628696
30
0
40
1.7000000000001592
210
-0
220
0
230
1
100
AcDbArc
50
270.00000000000239
51
360
0
LINE
5
110
100
AcDbEntity
8
0
100
AcDbLine
10
95.082741914210303
20
365.94174055628673
30
0
11
95.082741914210089
21
395.39129370577587
31
0
0
ARC
5
111
100
AcDbEntity
8
0
100
AcDbCircle
10
93.382741914210001
20
395.39129370577552
30
0
40
1.7000000000000881
210
0
220
-0
230
1
100
AcDbArc
50
0
51
89.999999999997613
0
LINE
5
112
100
AcDbEntity
8
0
100
AcDbLine
10
93.382741914210072
20
397.09129370577563
30
0
11
70.382654752131657
21
397.09129370577568
31
0
0
LINE
5
113
100
AcDbEntity
8
0
100
AcDbLine
10
70.382654752131657
20
397.09129370577568
30
0
11
70.382654752131515
21
404.62551942687594
31
0
0
ARC
5
114
100
AcDbEntity
8
0
100
AcDbCircle
10
76.962764552219369
20
404.62551942687588
30
0
40
6.5801098000878966
210
0
220
0
230
1
100
AcDbArc
50
90.000000000000256
51
180
0
LINE
5
115
100
AcDbEntity
8
0
100
AcDbLine
10
76.96276455221934
20
411.20562922696377
30
0
11
127.31705479739141
21
411.20562922696411
31
0
0
ARC
5
116
100
AcDbEntity
8
0
100
AcDbCircle
10
127.31705479739141
20
404.62551942687594
30
0
40
6.5801098000881098
210
0
220
0
230
1
100
AcDbArc
50
0
51
90
0
LINE
5
117
100
AcDbEntity
8
0
100
AcDbLine
10
133.8971645974795
20
404.62551942687594
30
0
11
133.8971645974795
21
397.09129370577568
31
0
0
LINE
5
118
100
AcDbEntity
8
0
100
AcDbLine
10
133.8971645974795
20
397.09129370577568
30
0
11
110.8970774354006
21
397.09129370577568
31
0
0
ARC
5
119
100
AcDbEntity
8
0
100
AcDbCircle
10
110.89707743540067
20
395.39129370577552
30
0
40
1.7000000000001592
210
0
220
0
230
1
100
AcDbArc
50
90.000000000002416
51
180
0
LINE
5
120
100
AcDbEntity
8
0
100
AcDbLine
10
109.19707743540052
20
395.39129370577587
30
0
11
109.19707743540066
21
365.94174055628673
31
0
0
ARC
5
121
100
AcDbEntity
8
0
100
AcDbCircle
10
110.8970774354006
20
365.94174055628673
30
0
40
1.699999999999946
210
0
220
0
230
1
100
AcDbArc
50
180
51
270.00000000000239
0
LINE
5
122
100
AcDbEntity
8
0
100
AcDbLine
10
110.89707743540067
20
364.24174055628674
30
0
11
133.89716459747967
21
364.2417405562868
31
0
0
LINE
5
123
100
AcDbEntity
8
0
100
AcDbLine
10
133.89716459747967
20
364.2417405562868
30
0
11
133.89716459747922
21
356.70751483518632
31
0
0
ARC
5
124
100
AcDbEntity
8
0
100
AcDbCircle
10
127.31705479739148
20
356.70751560569056
30
0
40
6.5801098000878255
210
0
220
0
230
1
100
AcDbArc
50
270
51
359.99999327737953
0
LINE
5
125
100
AcDbEntity
8
0
100
AcDbLine
10
127.31705479739148
20
350.12740580560273
30
0
11
76.962764552219483
21
350.12740580560308
31
0
0
ARC
5
126
100
AcDbEntity
8
0
100
AcDbCircle
10
76.962764552219454
20
356.70751483518654
30
0
40
6.5801098000876568
210
0
220
0
230
1
100
AcDbArc
50
180
51
270.00000000000023
0
LWPOLYLINE
5
127
100
AcDbEntity
8
0
100
AcDbPolyline
90
22
70
1
43
0.0
10
76.962764552219483
20
129.48023705148884
10
127.31705479739148
20
129.48023705148884
42
0.41421356237309348
10
133.89716459747945
20
136.06034685157681
10
133.89716459747967
20
143.59457659504713
10
95.401107784687014
20
143.59457291803994
42
-0.70020757379669019
10
94.55518504900958
20
145.91872618755147
10
115.72230680314853
20
163.68005024453353
42
0.46630765815551972
10
115.72230680314853
20
165.69631286352134
10
94.555185049010333
20
183.45763692050315
42
-0.70020757379664844
10
95.401107784687014
20
185.78179019001496
10
133.89716459747967
20
185.78178651300803
10
133.89716459747967
20
193.31601625647792
42
0.41421356237309193
10
127.31705479739148
20
199.89612605656575
10
76.962764552220762
20
199.89612605656603
42
0.41421356237315238
10
70.382654752131799
20
193.31601625647792
10
70.382654752131799
20
186.39546165363382
42
0.22169466264248894
10
70.852754102174842
20
185.38733034413994
10
94.319594926536979
20
165.69631286352038
42
-0.46630765815502778
10
94.319594926535828
20
163.68005024453353
10
70.852754102174345
20
143.98903276391479
42
0.22169466264295376
10
70.382654752131373
20
142.98090145442075
10
70.382654752130875
20
136.06034685157681
42
0.41421356237309626
0
LWPOLYLINE
5
128
100
AcDbEntity
8
0
100
AcDbPolyline
90
16
70
1
43
0.0
10
19.050000000000015
20
1.532107773982716e-13
42
-0.4142135623730952
10
1.1102230246251565e-14
20
19.050000000000153
10
-1.5987211554602254e-13
20
678.98862181084394
42
-0.41421356237309093
10
19.049999999999869
20
698.03862181084401
10
255.13266794993478
20
698.03862181084378
42
-0.41421356237310158
10
267.83266794993477
20
685.33862181084385
10
267.83266794993477
20
534.50586770051996
42
-0.19891236737965859
10
264.11292407100393
20
525.52561157945081
10
207.12369902227482
20
468.53638653072164
42
0.19891236737965665
10
195.96446738548249
20
441.59561816751432
10
195.96446738548241
20
285.03824345886346
42
0.19891236737965834
10
207.12369902227488
20
258.0974750956558
10
404.04456489481379
20
61.176609223116543
42
-0.19891236737965834
10
407.76430877374469
20
52.196353102047368
10
407.76430877374457
20
12.699999999999964
42
-0.41421356237309381
10
395.0643087737447
20
1.4210854715202004e-13
0
ENDSEC
0
SECTION
2
OBJECTS
0
DICTIONARY
5
C
100
AcDbDictionary
3
ACAD_GROUP
350
D
3
ACAD_MLINESTYLE
350
17
0
DICTIONARY
5
D
100
AcDbDictionary
0
DICTIONARY
5
1A
330
C
100
AcDbDictionary
0
DICTIONARY
5
17
100
AcDbDictionary
0
ENDSEC
0
EOF
