0
SECTION
2
HEADER
9
$INSUNITS
70
4
9
$ACADVER
1
AC1014
9
$HANDSEED
5
FFFF
0
ENDSEC
0
SECTION
2
TABLES
0
TABLE
2
VPORT
5
8
100
AcDbSymbolTable
0
ENDTAB
0
TABLE
2
LTYPE
5
5
100
AcDbSymbolTable
0
LTYPE
5
14
100
AcDbSymbolTableRecord
100
AcDbLinetypeTableRecord
2
BYBLOCK
70
0
0
LTYPE
5
15
100
AcDbSymbolTableRecord
100
AcDbLinetypeTableRecord
2
BYLAYER
70
0
0
ENDTAB
0
TABLE
2
LAYER
5
2
100
AcDbSymbolTable
70
2
0
LAYER
5
50
100
AcDbSymbolTableRecord
100
AcDbLayerTableRecord
2
0
70
0
6
CONTINUOUS
0
ENDTAB
0
TABLE
2
STYLE
5
3
100
AcDbSymbolTable
70
1
0
STYLE
5
11
100
AcDbSymbolTableRecord
100
AcDbTextStyleTableRecord
2
STANDARD
70
0
0
ENDTAB
0
TABLE
2
VIEW
5
6
100
AcDbSymbolTable
70
0
0
ENDTAB
0
TABLE
2
UCS
5
7
100
AcDbSymbolTable
70
0
0
ENDTAB
0
TABLE
2
APPID
5
9
100
AcDbSymbolTable
70
2
0
APPID
5
12
100
AcDbSymbolTableRecord
100
AcDbRegAppTableRecord
2
ACAD
70
0
0
ENDTAB
0
TABLE
2
DIMSTYLE
5
A
100
AcDbSymbolTable
70
1
0
ENDTAB
0
TABLE
2
BLOCK_RECORD
5
1
100
AcDbSymbolTable
70
1
0
BLOCK_RECORD
5
1F
100
AcDbSymbolTableRecord
100
AcDbBlockTableRecord
2
*MODEL_SPACE
0
BLOCK_RECORD
5
1B
100
AcDbSymbolTableRecord
100
AcDbBlockTableRecord
2
*PAPER_SPACE
0
ENDTAB
0
ENDSEC
0
SECTION
2
BLOCKS
0
BLOCK
5
20
100
AcDbEntity
100
AcDbBlockBegin
2
*MODEL_SPACE
0
ENDBLK
5
21
100
AcDbEntity
100
AcDbBlockEnd
0
BLOCK
5
1C
100
AcDbEntity
100
AcDbBlockBegin
2
*PAPER_SPACE
0
ENDBLK
5
1D
100
AcDbEntity
100
AcDbBlockEnd
0
ENDSEC
0
SECTION
2
ENTITIES
0
LWPOLYLINE
5
100
100
AcDbEntity
8
0
100
AcDbPolyline
90
6
70
1
43
0.0
10
439.39339828220164
20
338.10660171779841
10
290.60660171779807
20
486.89339828220176
42
-0.66817863791929355
10
301.21320343559637
20
512.5
10
450
20
512.50000000000011
42
-0.41421356237310064
10
465
20
497.5
10
465.00000000000006
20
348.71320343559654
42
-0.66817863791931076
0
LWPOLYLINE
5
101
100
AcDbEntity
8
0
100
AcDbPolyline
90
6
70
1
43
0.0
10
450
20
-512.5
10
301.21320343559648
20
-512.49999999999989
42
-0.66817863791929888
10
290.60660171779824
20
-486.8933982822017
10
439.39339828220159
20
-338.1066017177983
42
-0.66817863791929599
10
465
20
-348.71320343559654
10
465
20
-497.5
42
-0.41421356237309781
0
LWPOLYLINE
5
102
100
AcDbEntity
8
0
100
AcDbPolyline
90
4
70
1
43
0.0
10
299.99999999999994
20
-249.52762727200948
10
-300.00000000000006
20
-249.52762727200948
10
-300.00000000000006
20
-268.52762727200945
10
299.99999999999994
20
-268.52762727200945
0
LWPOLYLINE
5
103
100
AcDbEntity
8
0
100
AcDbPolyline
90
4
70
1
43
0.0
10
-25.000000000000071
20
313.47237272799049
10
-25.000000000000071
20
463.47237272799049
10
-44.000000000000057
20
463.47237272799049
10
-44.000000000000057
20
313.47237272799049
0
LWPOLYLINE
5
104
100
AcDbEntity
8
0
100
AcDbPolyline
90
4
70
1
43
0.0
10
24.999999999999964
20
463.47237272799049
10
24.999999999999964
20
313.47237272799049
10
43.99999999999995
20
313.47237272799049
10
43.99999999999995
20
463.47237272799049
0
LWPOLYLINE
5
105
100
AcDbEntity
8
0
100
AcDbPolyline
90
4
70
1
43
0.0
10
-112.99999999999994
20
-463.47237272799049
10
-93.999999999999943
20
-463.47237272799049
10
-93.999999999999943
20
-313.47237272799049
10
-112.99999999999994
20
-313.47237272799049
0
LWPOLYLINE
5
106
100
AcDbEntity
8
0
100
AcDbPolyline
90
4
70
1
43
0.0
10
-181.99999999999991
20
-463.47237272799049
10
-162.99999999999994
20
-463.47237272799049
10
-162.99999999999994
20
-313.47237272799049
10
-181.99999999999991
20
-313.47237272799049
0
LWPOLYLINE
5
107
100
AcDbEntity
8
0
100
AcDbPolyline
90
4
70
1
43
0.0
10
299.99999999999994
20
-120.52762727200951
10
299.99999999999994
20
-101.52762727200951
10
-300.00000000000006
20
-101.52762727200951
10
-300.00000000000006
20
-120.52762727200951
0
LWPOLYLINE
5
108
100
AcDbEntity
8
0
100
AcDbPolyline
90
4
70
1
43
0.0
10
182.00000000000014
20
-313.47237272799049
10
163.00000000000009
20
-313.47237272799049
10
163.00000000000009
20
-463.47237272799049
10
182.00000000000014
20
-463.47237272799049
0
LWPOLYLINE
5
109
100
AcDbEntity
8
0
100
AcDbPolyline
90
4
70
1
43
0.0
10
-182.00000000000011
20
463.47237272799049
10
-182.00000000000011
20
313.47237272799049
10
-163.00000000000009
20
313.47237272799049
10
-163.00000000000009
20
463.47237272799049
0
LWPOLYLINE
5
110
100
AcDbEntity
8
0
100
AcDbPolyline
90
4
70
1
43
0.0
10
25.000000000000107
20
-463.47237272799049
10
44.000000000000092
20
-463.47237272799049
10
44.000000000000092
20
-313.47237272799049
10
25.000000000000107
20
-313.47237272799049
0
LWPOLYLINE
5
111
100
AcDbEntity
8
0
100
AcDbPolyline
90
4
70
1
43
0.0
10
299.99999999999994
20
27.472372727990475
10
299.99999999999994
20
46.472372727990496
10
-300.00000000000006
20
46.472372727990496
10
-300.00000000000006
20
27.472372727990475
0
LWPOLYLINE
5
112
100
AcDbEntity
8
0
100
AcDbPolyline
90
4
70
1
43
0.0
10
162.99999999999994
20
463.47237272799049
10
162.99999999999994
20
313.47237272799049
10
181.99999999999991
20
313.47237272799049
10
181.99999999999991
20
463.47237272799049
0
LWPOLYLINE
5
113
100
AcDbEntity
8
0
100
AcDbPolyline
90
4
70
1
43
0.0
10
-113.00000000000009
20
463.47237272799049
10
-113.00000000000009
20
313.47237272799049
10
-94.000000000000085
20
313.47237272799049
10
-94.000000000000085
20
463.47237272799049
0
LWPOLYLINE
5
114
100
AcDbEntity
8
0
100
AcDbPolyline
90
4
70
1
43
0.0
10
-300.00000000000006
20
194.47237272799043
10
-300.00000000000006
20
175.47237272799052
10
299.99999999999994
20
175.47237272799052
10
299.99999999999994
20
194.47237272799043
0
LWPOLYLINE
5
115
100
AcDbEntity
8
0
100
AcDbPolyline
90
4
70
1
43
0.0
10
-300.00000000000006
20
120.47237272799052
10
-300.00000000000006
20
101.47237272799046
10
299.99999999999994
20
101.47237272799046
10
299.99999999999994
20
120.47237272799052
0
LWPOLYLINE
5
116
100
AcDbEntity
8
0
100
AcDbPolyline
90
4
70
1
43
0.0
10
-300.00000000000006
20
268.47237272799049
10
-300.00000000000006
20
249.47237272799043
10
299.99999999999994
20
249.47237272799043
10
299.99999999999994
20
268.47237272799049
0
LWPOLYLINE
5
117
100
AcDbEntity
8
0
100
AcDbPolyline
90
4
70
1
43
0.0
10
-24.999999999999929
20
-463.47237272799049
10
-24.999999999999929
20
-313.47237272799049
10
-43.99999999999995
20
-313.47237272799049
10
-43.99999999999995
20
-463.47237272799049
0
LWPOLYLINE
5
118
100
AcDbEntity
8
0
100
AcDbPolyline
90
4
70
1
43
0.0
10
-300.00000000000006
20
-194.52762727200948
10
299.99999999999994
20
-194.52762727200948
10
299.99999999999994
20
-175.52762727200954
10
-300.00000000000006
20
-175.52762727200954
0
LWPOLYLINE
5
119
100
AcDbEntity
8
0
100
AcDbPolyline
90
4
70
1
43
0.0
10
299.99999999999994
20
-46.527627272009511
10
299.99999999999994
20
-27.527627272009525
10
-300.00000000000006
20
-27.527627272009525
10
-300.00000000000006
20
-46.527627272009511
0
LWPOLYLINE
5
120
100
AcDbEntity
8
0
100
AcDbPolyline
90
4
70
1
43
0.0
10
112.99999999999994
20
463.47237272799049
10
93.999999999999943
20
463.47237272799049
10
93.999999999999943
20
313.47237272799049
10
112.99999999999994
20
313.47237272799049
0
LWPOLYLINE
5
121
100
AcDbEntity
8
0
100
AcDbPolyline
90
4
70
1
43
0.0
10
94.000000000000085
20
-463.47237272799049
10
113.00000000000009
20
-463.47237272799049
10
113.00000000000009
20
-313.47237272799049
10
94.000000000000085
20
-313.47237272799049
0
LWPOLYLINE
5
122
100
AcDbEntity
8
0
100
AcDbPolyline
90
16
70
1
43
0.0
10
248.7867965644034
20
-503.71320343559654
42
-0.19891236737965859
10
227.57359312880706
20
-512.5
10
-227.57359312880692
20
-512.5
42
-0.19891236737965834
10
-248.78679656440343
20
-503.71320343559648
10
-456.21320343559648
20
-296.28679656440335
42
-0.19891236737965995
10
-464.99999999999994
20
-275.07359312880715
10
-465
20
275.0735931288072
42
-0.19891236737965845
10
-456.21320343559637
20
296.28679656440352
10
-248.78679656440357
20
503.71320343559631
42
-0.19891236737966145
10
-227.57359312880712
20
512.5
10
227.57359312880692
20
512.49999999999989
42
-0.1989123673796579
10
248.78679656440337
20
503.71320343559648
10
456.21320343559637
20
296.28679656440352
42
-0.1989123673796564
10
465
20
275.07359312880709
10
465
20
-275.07359312880709
42
-0.19891236737965695
10
456.21320343559648
20
-296.28679656440352
0
LWPOLYLINE
5
123
100
AcDbEntity
8
0
100
AcDbPolyline
90
6
70
1
43
0.0
10
-465
20
-497.5
10
-465
20
-348.71320343559637
42
-0.66817863791930965
10
-439.39339828220159
20
-338.10660171779824
10
-290.60660171779807
20
-486.89339828220176
42
-0.66817863791929355
10
-301.21320343559637
20
-512.5
10
-450
20
-512.50000000000011
42
-0.41421356237310064
0
LWPOLYLINE
5
124
100
AcDbEntity
8
0
100
AcDbPolyline
90
6
70
1
43
0.0
10
-290.60660171779824
20
486.8933982822017
10
-439.39339828220159
20
338.1066017177983
42
-0.66817863791929599
10
-465
20
348.71320343559654
10
-465
20
497.5
42
-0.41421356237309781
10
-450
20
512.5
10
-301.21320343559648
20
512.49999999999989
42
-0.66817863791929888
0
ENDSEC
0
SECTION
2
OBJECTS
0
DICTIONARY
5
C
100
AcDbDictionary
3
ACAD_GROUP
350
D
3
ACAD_MLINESTYLE
350
17
0
DICTIONARY
5
D
100
AcDbDictionary
0
DICTIONARY
5
1A
330
C
100
AcDbDictionary
0
DICTIONARY
5
17
100
AcDbDictionary
0
ENDSEC
0
EOF
