0
SECTION
2
HEADER
9
$INSUNITS
70
5
9
$ACADVER
1
AC1014
9
$HANDSEED
5
FFFF
0
ENDSEC
0
SECTION
2
TABLES
0
TABLE
2
VPORT
5
8
100
AcDbSymbolTable
0
ENDTAB
0
TABLE
2
LTYPE
5
5
100
AcDbSymbolTable
0
LTYPE
5
14
100
AcDbSymbolTableRecord
100
AcDbLinetypeTableRecord
2
BYBLOCK
70
0
0
LTYPE
5
15
100
AcDbSymbolTableRecord
100
AcDbLinetypeTableRecord
2
BYLAYER
70
0
0
ENDTAB
0
TABLE
2
LAYER
5
2
100
AcDbSymbolTable
70
2
0
LAYER
5
50
100
AcDbSymbolTableRecord
100
AcDbLayerTableRecord
2
0
70
0
6
CONTINUOUS
0
ENDTAB
0
TABLE
2
STYLE
5
3
100
AcDbSymbolTable
70
1
0
STYLE
5
11
100
AcDbSymbolTableRecord
100
AcDbTextStyleTableRecord
2
STANDARD
70
0
0
ENDTAB
0
TABLE
2
VIEW
5
6
100
AcDbSymbolTable
70
0
0
ENDTAB
0
TABLE
2
UCS
5
7
100
AcDbSymbolTable
70
0
0
ENDTAB
0
TABLE
2
APPID
5
9
100
AcDbSymbolTable
70
2
0
APPID
5
12
100
AcDbSymbolTableRecord
100
AcDbRegAppTableRecord
2
ACAD
70
0
0
ENDTAB
0
TABLE
2
DIMSTYLE
5
A
100
AcDbSymbolTable
70
1
0
ENDTAB
0
TABLE
2
BLOCK_RECORD
5
1
100
AcDbSymbolTable
70
1
0
BLOCK_RECORD
5
1F
100
AcDbSymbolTableRecord
100
AcDbBlockTableRecord
2
*MODEL_SPACE
0
BLOCK_RECORD
5
1B
100
AcDbSymbolTableRecord
100
AcDbBlockTableRecord
2
*PAPER_SPACE
0
ENDTAB
0
ENDSEC
0
SECTION
2
BLOCKS
0
BLOCK
5
20
100
AcDbEntity
100
AcDbBlockBegin
2
*MODEL_SPACE
0
ENDBLK
5
21
100
AcDbEntity
100
AcDbBlockEnd
0
BLOCK
5
1C
100
AcDbEntity
100
AcDbBlockBegin
2
*PAPER_SPACE
0
ENDBLK
5
1D
100
AcDbEntity
100
AcDbBlockEnd
0
ENDSEC
0
SECTION
2
ENTITIES
0
LWPOLYLINE
5
100
100
AcDbEntity
8
OUTER_PROFILES
100
AcDbPolyline
90
252
70
1
43
0.0
10
30.539048311223905
20
-46.872379533977046
10
30.539048311223912
20
-47.459999998509893
10
25.547356003531604
20
-47.459999998509886
10
25.547356003531611
20
-46.872379533977032
42
0.41421356237311585
10
25.447356003531603
20
-46.772379533977045
10
25.197356003531603
20
-46.772379533977052
42
0.41421356237312623
10
25.097356003531598
20
-46.872379533977046
10
25.097356003531601
20
-47.459999998509893
10
23.485281374238621
20
-47.459999998509872
42
-0.094154374655120596
10
20.18455407210714
20
-46.832884762852672
10
20.412565183718499
20
-46.294358278628522
42
0.41421356237314555
10
20.359468163011819
20
-46.163283084972079
10
20.12925289505791
20
-46.065810368784867
42
0.41421356237311424
10
19.99817770140146
20
-46.11890738949154
10
19.770166589790115
20
-46.657433873715718
42
-0.090214171505749535
10
17.121320343559674
20
-44.823961029188787
10
15.881955538873861
20
-43.58459622450296
10
16.297465954108976
20
-43.169085809267848
42
0.41421356237309503
10
16.297465954108965
20
-43.027664453030567
10
16.120689258812355
20
-42.850887757733901
42
0.41421356237311341
10
15.979267902575026
20
-42.850887757733872
10
15.563757487339915
20
-43.266398172969012
10
12.034098006973956
20
-39.736738692603069
10
12.449608422209057
20
-39.321228277367965
42
0.41421356237309137
10
12.449608422209057
20
-39.179806921130677
10
12.272831726912433
20
-39.00303022583401
42
0.41421356237306561
10
12.131410370675095
20
-39.003030225834003
10
11.715899955440012
20
-39.418540641069114
10
8.1862404750740332
20
-35.888881160703178
10
8.6017508903091482
20
-35.473370745468031
42
0.41421356237310608
10
8.6017508903091446
20
-35.331949389230751
10
8.4249741950125117
20
-35.155172693934091
42
0.414213562373073
10
8.2835528387751971
20
-35.155172693934091
10
7.8680424235400857
20
-35.570683109169224
10
4.3383829431741461
20
-32.041023628803252
10
4.7538933584092451
20
-31.625513213568144
42
0.41421356237311713
10
4.7538933584092362
20
-31.484091857330856
10
4.5771166631126192
20
-31.307315162034193
42
0.41421356237305096
10
4.4356953068752851
20
-31.307315162034183
10
4.020184891640195
20
-31.722825577269333
10
0.49052541127422344
20
-28.193166096903362
10
0.90603582650933856
20
-27.777655681668222
42
0.41421356237310908
10
0.90603582650933134
20
-27.636234325430934
10
0.7292591312127088
20
-27.459457630134278
42
0.4142135623730574
10
0.58783777497539091
20
-27.459457630134271
10
0.17232735974027946
20
-27.87496804536941
10
-3.3573321206256743
20
-24.345308565003439
10
-2.94182170539057
20
-23.929798149768352
42
0.41421356237312357
10
-2.9418217053905771
20
-23.788376793531071
10
-3.1185984006871923
20
-23.611600098234401
42
0.41421356237311624
10
-3.2600197569245175
20
-23.61160009823438
10
-3.6755301721596148
20
-24.027110513469516
10
-4.3639610306789169
20
-23.338679654950234
42
-0.11207914732169991
10
-6.4879544374673834
20
-19.967147314729537
10
-5.9317302084989443
20
-19.786552607338667
42
0.41421356237300644
10
-5.8674989006657192
20
-19.660559198407825
10
-5.9447015270377959
20
-19.422778302452613
42
0.41421356237324147
10
-6.0706949359687403
20
-19.358546994619335
10
-6.6269191649371404
20
-19.539141702010216
42
-0.072360788629930922
10
-6.9999999999999822
20
-16.974718624271301
10
-6.9999999999999822
20
-14.583505736337855
10
-6.4123795354672266
20
-14.583505736337841
42
0.41421356237309243
10
-6.3123795354672403
20
-14.483505736337854
10
-6.3123795354672261
20
-14.233505736337822
42
0.41421356237312623
10
-6.4123795354672346
20
-14.133505736337831
10
-6.9999999999999822
20
-14.133505736337838
10
-6.9999999999999822
20
-9.1418134286455626
10
-6.4123795354671982
20
-9.1418134286455768
42
0.41421356237313406
10
-6.3123795354672119
20
-9.0418134286455754
10
-6.3123795354671977
20
-8.7918134286455718
42
0.41421356237312623
10
-6.412379535467192
20
-8.6918134286455668
10
-6.9999999999999822
20
-8.6918134286455597
10
-6.9999999999999822
20
-3.7001211209532556
10
-6.4123795354671982
20
-3.7001211209532769
42
0.41421356237313667
10
-6.3123795354672048
20
-3.6001211209532675
10
-6.3123795354671977
20
-3.3501211209532675
42
0.41421356237311324
10
-6.4123795354671849
20
-3.2501211209532599
10
-6.9999999999999751
20
-3.2501211209532528
10
-6.9999999999999698
20
-2.3999999985098892
42
-0.14900006434992116
10
-5.8101606718670418
20
1.5041046321434948
10
-5.3361443035347342
20
1.1629763245566149
42
0.41421356237312124
10
-5.1965655623675779
20
1.1857309947187886
10
-5.0505354736113182
20
1.3886477588804624
42
0.41421356237310986
10
-5.0732901437734945
20
1.5282265000476301
10
-5.5473065121058012
20
1.8693548076345221
42
-0.18018482450681833
10
-1.4027865323978073
20
4.4580018930415672
10
-1.3042045864105938
20
3.8823790654804555
42
0.4142135623731335
10
-1.1887592472446897
20
3.800694466779909
10
-0.94234682491162136
20
3.8428953923615676
42
0.41421356237312934
10
-0.86066222621105481
20
3.9583407315274641
10
-0.95924417219829616
20
4.5339635590885807
42
-0.034380394729571793
10
1.7763568394002505e-14
20
4.6000000014901161
10
4.0293815130692465
20
4.6000000014901161
10
4.0293815130692465
20
4.012379536957325
42
0.41421356237311324
10
4.1293815130692479
20
3.9123795369573315
10
4.3793815130692488
20
3.9123795369573386
42
0.41421356237310281
10
4.47938151306926
20
4.0123795369573187
10
4.4793815130692494
20
4.600000001490109
10
9.4710738207615499
20
4.6000000014901161
10
9.4710738207615606
20
4.012379536957325
42
0.41421356237311846
10
9.5710738207615567
20
3.9123795369573386
10
9.8210738207615584
20
3.9123795369573386
42
0.41421356237309503
10
9.921073820761567
20
4.0123795369573187
10
9.9210738207615528
20
4.600000001490109
10
14.912766128453857
20
4.6000000014901161
10
14.91276612845386
20
4.012379536957325
42
0.41421356237311324
10
15.012766128453862
20
3.9123795369573315
10
15.262766128453869
20
3.9123795369573386
42
0.41421356237311846
10
15.36276612845387
20
4.0123795369573338
10
15.362766128453865
20
4.6000000014901232
10
20.354458436146185
20
4.6000000014901161
10
20.354458436146189
20
4.012379536957325
42
0.41421356237312362
10
20.454458436146187
20
3.9123795369573369
10
20.704458436146183
20
3.9123795369573386
42
0.41421356237313667
10
20.804458436146192
20
4.012379536957333
10
20.804458436146192
20
4.6000000014901232
10
25.796150743838492
20
4.6000000014901161
10
25.796150743838485
20
4.012379536957325
42
0.41421356237313406
10
25.896150743838493
20
3.9123795369573315
10
26.146150743838497
20
3.9123795369573386
42
0.41421356237311585
10
26.246150743838498
20
4.012379536957333
10
26.246150743838495
20
4.6000000014901232
10
31.237843051530813
20
4.6000000014901161
10
31.237843051530806
20
4.012379536957325
42
0.41421356237313406
10
31.337843051530815
20
3.9123795369573315
10
31.587843051530818
20
3.9123795369573386
42
0.41421356237312101
10
31.68784305153082
20
4.0123795369573347
10
31.687843051530816
20
4.6000000014901232
10
36.506557821702792
20
4.6000000014901161
10
36.506557821702792
20
4.012379536957325
42
0.41421356237311324
10
36.606557821702793
20
3.9123795369573315
10
36.856557821702793
20
3.9123795369573315
42
0.41421356237313667
10
36.956557821702802
20
4.0123795369573259
10
36.956557821702795
20
4.6000000014901161
10
38.655121219755991
20
4.6000000014901303
42
-0.091731154362501593
10
41.875235074148875
20
4.0042172026782907
10
41.652409576996192
20
3.4635244627161135
42
0.4142135623731335
10
41.706763741272873
20
3.3329655686269675
10
41.937905064230165
20
3.237709656361357
42
0.41421356237312223
10
42.068463958319327
20
3.2920638206380346
10
42.29128945547199
20
3.8327565606001985
42
-0.09263671972034912
10
45.019082250434913
20
1.9639610321690526
10
46.197290260233899
20
0.7857530223700735
10
45.781779844998752
20
0.37024260713490703
42
0.41421356237313195
10
45.781779844998759
20
0.22882125089760758
10
45.95855654029539
20
0.05204455560097275
42
0.41421356237312806
10
46.0999778965327
20
0.052044555600966436
10
46.515488311767854
20
0.46755497083611886
10
50.045147792133804
20
-3.0621045095298385
10
49.629637376898664
20
-3.4776149247649997
42
0.41421356237312357
10
49.629637376898664
20
-3.6190362810022876
10
49.806414072195295
20
-3.7958129762989405
42
0.41421356237315204
10
49.947835428432612
20
-3.7958129762989405
10
50.363345843667751
20
-3.380302561063786
10
53.893005324033702
20
-6.9099620414297434
10
53.477494908798555
20
-7.3254724566648859
42
0.41421356237314105
10
53.477494908798569
20
-7.4668938129021996
10
53.654271604095193
20
-7.6436705081988379
42
0.41421356237312451
10
53.795692960332516
20
-7.643670508198845
10
54.211203375567656
20
-7.2281600929637051
10
57.740862855933599
20
-10.757819573329634
10
57.325352440698452
20
-11.173329988564806
42
0.41421356237313917
10
57.325352440698467
20
-11.314751344802104
10
57.502129135995091
20
-11.491528040098737
42
0.41421356237317231
10
57.643550492232407
20
-11.491528040098736
10
58.059060907467554
20
-11.076017624863603
10
61.588720387833526
20
-14.605677105229574
10
61.173209972598364
20
-15.021187520464707
42
0.41421356237309503
10
61.173209972598372
20
-15.162608876702002
10
61.34998666789501
20
-15.33938557199866
42
0.41421356237309875
10
61.491408024132312
20
-15.339385571998676
10
61.906918439367473
20
-14.923875156763522
10
65.436577919733423
20
-18.453534637129465
10
65.021067504498276
20
-18.869045052364637
42
0.41421356237311713
10
65.021067504498291
20
-19.010466408601918
10
65.197844199794901
20
-19.18724310389857
42
0.41421356237309503
10
65.339265556032231
20
-19.187243103898581
10
65.754775971267364
20
-18.771732688663416
10
66.504363624673488
20
-19.521320342069551
42
-0.10964715255870244
10
68.599208717701742
20
-22.811424030330993
10
68.04474563576224
20
-22.99735555534831
42
0.41421356237310158
10
67.981728054557493
20
-23.123960391192348
10
68.061212122856574
20
-23.360988412503403
42
0.41421356237305224
10
68.187816958700623
20
-23.424005993708182
10
68.742280040640125
20
-23.238074468690808
42
-0.074776258503865989
10
69.140402593994565
20
-25.885281372748473
10
69.140402593994551
20
-28.190005491921685
10
68.552782129461733
20
-28.190005491921692
42
0.41421356237309503
10
68.452782129461738
20
-28.290005491921686
10
68.452782129461738
20
-28.540005491921715
42
0.41421356237313667
10
68.552782129461747
20
-28.640005491921709
10
69.140402593994565
20
-28.640005491921702
10
69.140402593994551
20
-33.631697799613995
10
68.552782129461761
20
-33.631697799614003
42
0.41421356237309503
10
68.452782129461767
20
-33.731697799613997
10
68.452782129461767
20
-33.981697799613997
42
0.4142135623731783
10
68.552782129461761
20
-34.08169779961402
10
69.140402593994551
20
-34.081697799614012
10
69.140402593994565
20
-39.073390107306302
10
68.552782129461761
20
-39.073390107306309
42
0.41421356237309503
10
68.452782129461767
20
-39.173390107306304
10
68.452782129461767
20
-39.423390107306332
42
0.41421356237313667
10
68.552782129461775
20
-39.523390107306327
10
69.140402593994551
20
-39.523390107306319
10
69.140402593994565
20
-40.459999998509893
42
-0.14584404586630498
10
67.998355871244783
20
-44.292020797194752
10
67.520160967298608
20
-43.956775105911412
42
0.41421356237311208
10
67.380874019042039
20
-43.981252565856551
10
67.237362158652729
20
-44.185958076108754
42
0.41421356237309503
10
67.261839618597861
20
-44.325245024365323
10
67.740034522544036
20
-44.660490715648663
42
-0.18018482450681902
10
63.627814203311175
20
-47.300146685860234
10
63.522127832962639
20
-46.725785796865644
42
0.41421356237313223
10
63.40568207407172
20
-46.64553378607264
10
63.159809861966835
20
-46.690775971195002
42
0.41421356237307461
10
63.079557851173817
20
-46.807221730085885
10
63.18524422152236
20
-47.381582619080483
42
-0.03747326871614625
10
62.140402593994558
20
-47.459999998509879
10
58.197509849685446
20
-47.459999998509893
10
58.197509849685446
20
-46.872379533977046
42
0.41421356237311585
10
58.097509849685444
20
-46.772379533977052
10
57.847509849685437
20
-46.772379533977052
42
0.41421356237311585
10
57.747509849685436
20
-46.872379533977046
10
57.747509849685443
20
-47.459999998509893
10
52.755817541993139
20
-47.459999998509893
10
52.755817541993139
20
-46.872379533977046
42
0.41421356237311585
10
52.655817541993137
20
-46.772379533977052
10
52.40581754199313
20
-46.772379533977052
42
0.41421356237311585
10
52.305817541993129
20
-46.872379533977046
10
52.305817541993136
20
-47.459999998509893
10
47.314125234300832
20
-47.459999998509893
10
47.314125234300839
20
-46.872379533977046
42
0.41421356237311585
10
47.214125234300838
20
-46.772379533977052
10
46.964125234300838
20
-46.772379533977052
42
0.41421356237313667
10
46.864125234300829
20
-46.872379533977046
10
46.864125234300829
20
-47.459999998509893
10
41.872432926608525
20
-47.459999998509886
10
41.872432926608532
20
-46.872379533977046
42
0.41421356237313667
10
41.772432926608523
20
-46.772379533977052
10
41.522432926608531
20
-46.772379533977052
42
0.41421356237313667
10
41.422432926608522
20
-46.872379533977046
10
41.422432926608522
20
-47.459999998509893
10
36.430740618916218
20
-47.459999998509886
10
36.430740618916218
20
-46.872379533977046
42
0.41421356237311585
10
36.330740618916217
20
-46.772379533977052
10
36.080740618916217
20
-46.772379533977052
42
0.41421356237313667
10
35.980740618916208
20
-46.872379533977046
10
35.980740618916215
20
-47.459999998509893
10
30.989048311223911
20
-47.459999998509886
10
30.989048311223918
20
-46.872379533977032
42
0.41421356237311585
10
30.88904831122391
20
-46.772379533977045
10
30.63904831122391
20
-46.772379533977052
42
0.41421356237312623
0
CIRCLE
5
101
100
AcDbEntity
8
INTERIOR_PROFILES
100
AcDbCircle
10
-38.655121219755983
20
3.0500000007450652
30
0
40
0.20000000000000284
210
0
220
0
230
-1
0
CIRCLE
5
102
100
AcDbEntity
8
INTERIOR_PROFILES
100
AcDbCircle
10
-54.66570742618822
20
-9.8746951663162292
30
0
40
0.20000000000000284
210
0
220
0
230
-1
0
CIRCLE
5
103
100
AcDbEntity
8
INTERIOR_PROFILES
100
AcDbCircle
10
5.4499999992549242
20
-13.331038967830956
30
0
40
0.19999999999998863
210
0
220
0
230
-1
0
CIRCLE
5
104
100
AcDbEntity
8
INTERIOR_PROFILES
100
AcDbCircle
10
-52.47662228905557
20
-45.909999997764835
30
0
40
0.20000000000000995
210
0
220
0
230
-1
0
CIRCLE
5
105
100
AcDbEntity
8
INTERIOR_PROFILES
100
AcDbCircle
10
-67.590402593249507
20
-25.885281372748459
30
0
40
0.19999999999998863
210
0
220
0
230
-1
0
CIRCLE
5
106
100
AcDbEntity
8
INTERIOR_PROFILES
100
AcDbCircle
10
-67.590402593249507
20
-40.459999998509879
30
0
40
0.20000000000000284
210
0
220
0
230
-1
0
CIRCLE
5
107
100
AcDbEntity
8
INTERIOR_PROFILES
100
AcDbCircle
10
-28.991340914816995
20
3.0500000007450652
30
0
40
0.19999999999999929
210
0
220
0
230
-1
0
CIRCLE
5
108
100
AcDbEntity
8
INTERIOR_PROFILES
100
AcDbCircle
10
-49.294387082628575
20
-4.5033748227565837
30
0
40
0.20000000000000284
210
0
220
0
230
-1
0
CIRCLE
5
109
100
AcDbEntity
8
INTERIOR_PROFILES
100
AcDbCircle
10
-67.590402593249493
20
-29.528961029188814
30
0
40
0.20000000000000284
210
0
220
0
230
-1
0
CIRCLE
5
110
100
AcDbEntity
8
INTERIOR_PROFILES
100
AcDbCircle
10
-20.634289803403817
20
-45.342902515030623
30
0
40
0.20000000000000284
210
0
220
0
230
-1
0
CIRCLE
5
111
100
AcDbEntity
8
INTERIOR_PROFILES
100
AcDbCircle
10
-2.1033748242467212
20
-27.61398448714387
30
0
40
0.20000000000000639
210
0
220
0
230
-1
0
CIRCLE
5
112
100
AcDbEntity
8
INTERIOR_PROFILES
100
AcDbCircle
10
3.8537319569398214
20
1.4537319584299766
30
0
40
0.19999999999999574
210
0
220
0
230
-1
0
CIRCLE
5
113
100
AcDbEntity
8
INTERIOR_PROFILES
100
AcDbCircle
10
-65.994134550934405
20
-44.313731955449732
30
0
40
0.20000000000000284
210
0
220
0
230
-1
0
CIRCLE
5
114
100
AcDbEntity
8
INTERIOR_PROFILES
100
AcDbCircle
10
-2.4868995751603507e-14
20
3.0500000007450581
30
0
40
0.20000000000000284
210
0
220
0
230
-1
0
CIRCLE
5
115
100
AcDbEntity
8
INTERIOR_PROFILES
100
AcDbCircle
10
-18.217335854925665
20
-43.727945517822796
30
0
40
0.20000000000000995
210
0
220
0
230
-1
0
CIRCLE
5
116
100
AcDbEntity
8
INTERIOR_PROFILES
100
AcDbCircle
10
5.4499999992549242
20
-9.6873593113905869
30
0
40
0.19999999999999574
210
0
220
0
230
-1
0
CIRCLE
5
117
100
AcDbEntity
8
INTERIOR_PROFILES
100
AcDbCircle
10
-42.812841984116588
20
-45.909999997764821
30
0
40
0.20000000000000284
210
0
220
0
230
-1
0
CIRCLE
5
118
100
AcDbEntity
8
INTERIOR_PROFILES
100
AcDbCircle
10
3.2679455193129279
20
-22.242664143584239
30
0
40
0.20000000000000995
210
0
220
0
230
-1
0
CIRCLE
5
119
100
AcDbEntity
8
INTERIOR_PROFILES
100
AcDbCircle
10
-23.485281374238618
20
-45.909999997764821
30
0
40
0.20000000000000284
210
0
220
0
230
-1
0
CIRCLE
5
120
100
AcDbEntity
8
INTERIOR_PROFILES
100
AcDbCircle
10
5.4499999992549171
20
-6.0436796549502318
30
0
40
0.20000000000000284
210
0
220
0
230
-1
0
CIRCLE
5
121
100
AcDbEntity
8
INTERIOR_PROFILES
100
AcDbCircle
10
-12.846015511366016
20
-38.356625174263165
30
0
40
0.20000000000000639
210
0
220
0
230
-1
0
CIRCLE
5
122
100
AcDbEntity
8
INTERIOR_PROFILES
100
AcDbCircle
10
-62.140402593994558
20
-45.909999997764821
30
0
40
0.19999999999999574
210
0
220
0
230
-1
0
CIRCLE
5
123
100
AcDbEntity
8
INTERIOR_PROFILES
100
AcDbCircle
10
-43.923066739068929
20
0.86794552080306886
30
0
40
0.19999999999999574
210
0
220
0
230
-1
0
CIRCLE
5
124
100
AcDbEntity
8
INTERIOR_PROFILES
100
AcDbCircle
10
5.4499999992549171
20
-16.974718624271315
30
0
40
0.19999999999998863
210
0
220
0
230
-1
0
CIRCLE
5
125
100
AcDbEntity
8
INTERIOR_PROFILES
100
AcDbCircle
10
5.4499999992549242
20
-2.3999999985098768
30
0
40
0.20000000000000284
210
0
220
0
230
-1
0
CIRCLE
5
126
100
AcDbEntity
8
INTERIOR_PROFILES
100
AcDbCircle
10
-67.590402593249493
20
-33.172640685629169
30
0
40
0.20000000000000284
210
0
220
0
230
-1
0
CIRCLE
5
127
100
AcDbEntity
8
INTERIOR_PROFILES
100
AcDbCircle
10
-9.6637803049390136
20
3.0500000007450652
30
0
40
0.19999999999999574
210
0
220
0
230
-1
0
CIRCLE
5
128
100
AcDbEntity
8
INTERIOR_PROFILES
100
AcDbCircle
10
-7.4746951678063738
20
-32.985304830703505
30
0
40
0.19999999999999929
210
0
220
0
230
-1
0
CIRCLE
5
129
100
AcDbEntity
8
INTERIOR_PROFILES
100
AcDbCircle
10
-67.590402593249493
20
-36.816320342069524
30
0
40
0.20000000000000284
210
0
220
0
230
-1
0
CIRCLE
5
130
100
AcDbEntity
8
INTERIOR_PROFILES
100
AcDbCircle
10
-65.37299277372135
20
-20.581980513849359
30
0
40
0.20000000000000284
210
0
220
0
230
-1
0
CIRCLE
5
131
100
AcDbEntity
8
INTERIOR_PROFILES
100
AcDbCircle
10
-33.149061679177606
20
-45.909999997764835
30
0
40
0.20000000000000284
210
0
220
0
230
-1
0
CIRCLE
5
132
100
AcDbEntity
8
INTERIOR_PROFILES
100
AcDbCircle
10
4.8829025165207192
20
-19.825710195106101
30
0
40
0.19999999999999574
210
0
220
0
230
-1
0
CIRCLE
5
133
100
AcDbEntity
8
INTERIOR_PROFILES
100
AcDbCircle
10
-60.019350099954792
20
-15.22833784008283
30
0
40
0.20000000000000284
210
0
220
0
230
-1
0
CIRCLE
5
134
100
AcDbEntity
8
INTERIOR_PROFILES
100
AcDbCircle
10
-19.327560609878006
20
3.0500000007450652
30
0
40
0.20000000000000284
210
0
220
0
230
-1
0
CIRCLE
5
135
100
AcDbEntity
8
INTERIOR_PROFILES
100
AcDbCircle
10
-41.506112790590784
20
2.482902518010853
30
0
40
0.19999999999999574
210
0
220
0
230
-1
0
ENDSEC
0
SECTION
2
OBJECTS
0
DICTIONARY
5
C
100
AcDbDictionary
3
ACAD_GROUP
350
D
3
ACAD_MLINESTYLE
350
17
0
DICTIONARY
5
D
100
AcDbDictionary
0
DICTIONARY
5
1A
330
C
100
AcDbDictionary
0
DICTIONARY
5
17
100
AcDbDictionary
0
ENDSEC
0
EOF
