0
SECTION
2
HEADER
9
$INSUNITS
70
1
9
$ACADVER
1
AC1014
9
$HANDSEED
5
FFFF
0
ENDSEC
0
SECTION
2
TABLES
0
TABLE
2
VPORT
5
8
100
AcDbSymbolTable
0
ENDTAB
0
TABLE
2
LTYPE
5
5
100
AcDbSymbolTable
0
LTYPE
5
14
100
AcDbSymbolTableRecord
100
AcDbLinetypeTableRecord
2
BYBLOCK
70
0
0
LTYPE
5
15
100
AcDbSymbolTableRecord
100
AcDbLinetypeTableRecord
2
BYLAYER
70
0
0
ENDTAB
0
TABLE
2
LAYER
5
2
100
AcDbSymbolTable
70
2
0
LAYER
5
50
100
AcDbSymbolTableRecord
100
AcDbLayerTableRecord
2
0
70
0
6
CONTINUOUS
0
ENDTAB
0
TABLE
2
STYLE
5
3
100
AcDbSymbolTable
70
1
0
STYLE
5
11
100
AcDbSymbolTableRecord
100
AcDbTextStyleTableRecord
2
STANDARD
70
0
0
ENDTAB
0
TABLE
2
VIEW
5
6
100
AcDbSymbolTable
70
0
0
ENDTAB
0
TABLE
2
UCS
5
7
100
AcDbSymbolTable
70
0
0
ENDTAB
0
TABLE
2
APPID
5
9
100
AcDbSymbolTable
70
2
0
APPID
5
12
100
AcDbSymbolTableRecord
100
AcDbRegAppTableRecord
2
ACAD
70
0
0
ENDTAB
0
TABLE
2
DIMSTYLE
5
A
100
AcDbSymbolTable
70
1
0
ENDTAB
0
TABLE
2
BLOCK_RECORD
5
1
100
AcDbSymbolTable
70
1
0
BLOCK_RECORD
5
1F
100
AcDbSymbolTableRecord
100
AcDbBlockTableRecord
2
*MODEL_SPACE
0
BLOCK_RECORD
5
1B
100
AcDbSymbolTableRecord
100
AcDbBlockTableRecord
2
*PAPER_SPACE
0
ENDTAB
0
ENDSEC
0
SECTION
2
BLOCKS
0
BLOCK
5
20
100
AcDbEntity
100
AcDbBlockBegin
2
*MODEL_SPACE
0
ENDBLK
5
21
100
AcDbEntity
100
AcDbBlockEnd
0
BLOCK
5
1C
100
AcDbEntity
100
AcDbBlockBegin
2
*PAPER_SPACE
0
ENDBLK
5
1D
100
AcDbEntity
100
AcDbBlockEnd
0
ENDSEC
0
SECTION
2
ENTITIES
0
LWPOLYLINE
5
100
100
AcDbEntity
8
OUTER_PROFILES
100
AcDbPolyline
90
24
70
1
43
0.0
10
35.552851130906703
20
15.422659202431324
42
0.4142135623730886
10
35.171851130906717
20
15.803659202431321
10
28.235775040954909
20
15.80365920243136
10
28.235775040954909
20
15.991060777234509
10
28.692526487539503
20
15.991060777234482
42
0.16654892612961064
10
28.264939149742609
20
16.864319374211171
10
20.51214915476076
20
24.617109369193024
42
-0.19891236737965801
10
20.365702545354033
20
24.9706627597863
10
20.365702545354033
20
25.991210200195891
42
0.41421356237309503
10
19.865702545354036
20
26.491210200195891
10
-7.8674301350084222e-16
20
26.491210200195891
42
0.4142135623730947
10
-0.75000000000000033
20
25.741210200195891
10
-0.75
20
0.74999999999996814
42
0.41421356237308243
10
0
20
4.3709567898628207e-16
10
25.374822262826868
20
-3.3568948146146463e-14
42
0.41421356237309176
10
25.874822262826864
20
0.49999999999995925
10
25.874822262826882
20
6.0473296751807553
42
-0.19891236737966561
10
26.021268872233595
20
6.4008830657740337
10
28.264939149742595
20
8.6445533432830644
42
0.16654892612960617
10
28.692526487539499
20
9.5178119402597225
10
28.235775040954909
20
9.5178119402597492
10
28.235775040954902
20
9.7052135150628995
10
35.17185113090671
20
9.7052135150628587
42
0.41421356237309931
10
35.552851130906703
20
10.086213515062861
0
LWPOLYLINE
5
101
100
AcDbEntity
8
INTERIOR_PROFILES
100
AcDbPolyline
90
6
70
1
43
0.0
10
21.25783726736967
20
14.491152571759903
10
21.367695315871902
20
14.491152571759907
10
21.367695315871906
20
11.011507580684974
10
21.25783726736967
20
11.011507580684953
42
-0.41421356237309209
10
21.119254590204314
20
11.150090257850305
10
21.11925459020431
20
14.352569894594522
42
-0.4142135623731128
0
LWPOLYLINE
5
102
100
AcDbEntity
8
INTERIOR_PROFILES
100
AcDbPolyline
90
13
70
1
43
0.0
10
13.855910148294392
20
11.618795226741248
10
13.450960622394563
20
11.504957487160135
42
0.24620758484911656
10
13.092195448580798
20
11.166109482159605
10
13.039045432822132
20
11.011507580684963
10
12.747263576611706
20
11.011507580684951
42
-0.41421356237308909
10
12.608606836252763
20
11.150164321043892
10
12.608606836252768
20
14.352771701537906
42
-0.41421356237310686
10
12.747263576611706
20
14.491428441896845
10
13.044110817102263
20
14.491428441896867
42
-0.41421356237308909
10
13.182767557461185
20
14.352771701537948
10
13.182767557461181
20
12.034765447818081
10
13.717253407935447
20
12.034765447818049
42
-0.41421356237305074
10
13.855910148294392
20
11.896108707459131
0
LWPOLYLINE
5
103
100
AcDbEntity
8
INTERIOR_PROFILES
100
AcDbPolyline
90
12
70
1
43
0.0
10
15.030303940840238
20
14.491428441896831
10
15.860530234737949
20
14.491428441896842
10
15.860530234737949
20
13.911455028323456
10
15.194307133336796
20
13.911455028323459
42
0.41421356237309503
10
15.055650392977839
20
13.772798287964498
10
15.055650392977853
20
11.73013773461728
42
0.41421356237310392
10
15.194307133336803
20
11.591480994258339
10
15.860530234737951
20
11.591480994258342
10
15.860530234737949
20
11.011507580684933
10
15.030303940840238
20
11.011507580684922
42
-0.41421356237309581
10
14.475676979404462
20
11.566134542120706
10
14.475676979404472
20
13.936801480461069
42
-0.41421356237309059
0
LWPOLYLINE
5
104
100
AcDbEntity
8
INTERIOR_PROFILES
100
AcDbPolyline
90
32
70
1
43
0.0
10
18.594582939947564
20
13.911441631694878
42
-0.414213562373069
10
18.563086876955442
20
13.942937694687002
10
18.563086876955438
20
14.459932378904714
42
0.41421356237288692
10
18.531590813963309
20
14.491428441896842
10
18.179950553003597
20
14.491428441896851
42
0.4142135623730992
10
17.983100159302833
20
14.294578048196083
10
17.983100159302818
20
12.202977264081051
42
0.41421356237287393
10
18.014596222294944
20
12.17148120108895
10
20.271551244569253
20
12.171481201088911
42
-0.41421356237309503
10
20.303047307561378
20
12.139985138096787
10
20.303047307561386
20
11.622990453879074
42
-0.41421356237319906
10
20.271551244569253
20
11.591494390886933
10
18.01459622229493
20
11.591494390886949
42
0.41421356237309503
10
17.983100159302811
20
11.559998327894828
10
17.983100159302808
20
11.208357974385761
42
0.41421356237309087
10
18.179950553003593
20
11.011507580684976
10
20.686183724062584
20
11.011507580684986
42
0.41421356237304924
10
20.883034117763362
20
11.208357974385732
10
20.883034117763362
20
12.719971948298745
42
0.41421356237309503
10
20.851538054771236
20
12.751468011290871
10
18.594582939947575
20
12.751468011290886
42
-0.41421356237309503
10
18.563086876955449
20
12.78296407428301
10
18.563086876955445
20
13.299958758500722
42
-0.41421356237319906
10
18.594582939947575
20
13.331454821492864
10
20.85153805477125
20
13.33145482149285
42
0.41421356237309503
10
20.88303411776339
20
13.362950884484992
10
20.883034117763376
20
14.294578048196055
42
0.41421356237314499
10
20.686183724062584
20
14.491428441896874
10
20.334543370553515
20
14.49142844189686
42
0.41421356237309503
10
20.303047307561386
20
14.459932378904728
10
20.303047307561396
20
13.942937694686981
42
-0.41421356237288692
10
20.271551244569263
20
13.911441631694871
0
LWPOLYLINE
5
105
100
AcDbEntity
8
INTERIOR_PROFILES
100
AcDbPolyline
90
12
70
1
43
0.0
10
15.971455627025103
20
11.011507580684935
10
15.971455627025106
20
11.591480994258344
10
16.637678728426259
20
11.591480994258342
42
0.41421356237309209
10
16.776335468785192
20
11.73013773461728
10
16.776335468785199
20
13.7727982879645
42
0.41421356237309503
10
16.637678728426252
20
13.911455028323445
10
15.971455627025103
20
13.911455028323459
10
15.971455627025103
20
14.491428441896845
10
16.801681920922814
20
14.491428441896851
42
-0.41421356237308909
10
17.356308882358594
20
13.936801480461094
10
17.356308882358579
20
11.566134542120734
42
-0.4142135623731113
10
16.801681920922814
20
11.011507580684935
0
LWPOLYLINE
5
106
100
AcDbEntity
8
INTERIOR_PROFILES
100
AcDbPolyline
90
6
70
1
43
0.0
10
12.23372494648898
20
11.011507580684974
42
0.41421356237309803
10
12.37238636381182
20
11.150168998007812
10
12.372386363811817
20
14.352491154437066
42
0.41421356237303297
10
12.233724946488982
20
14.491152571759907
10
12.123945638144232
20
14.49115257175988
10
12.123945638144232
20
11.011507580684961
0
LINE
5
107
100
AcDbEntity
8
BEND
100
AcDbLine
10
29.715708092670617
20
15.803659202431311
30
2.6198152553332462e-14
11
29.715708092670617
21
9.7052135150628498
31
2.839523507176292e-14
0
LINE
5
108
100
AcDbEntity
8
BEND
100
AcDbLine
10
28.54142201619867
20
15.803659202431326
30
5.2966261001917959e-15
11
28.54142201619867
21
9.7052135150628676
31
5.2966261001917754e-15
0
LINE
5
109
100
AcDbEntity
8
BEND_EXTENT
100
AcDbLine
10
29.927654280513
20
15.803659202431326
30
3.0670345396215378e-14
11
29.927654280513
21
9.7052135150628676
31
3.0670345396215378e-14
0
LINE
5
110
100
AcDbEntity
8
BEND_EXTENT
100
AcDbLine
10
29.503761904828256
20
9.7052135150628498
30
2.3083913649980369e-14
11
29.503761904828256
21
15.803659202431311
31
2.0286501304468159e-14
0
LINE
5
111
100
AcDbEntity
8
BEND_EXTENT
100
AcDbLine
10
28.753368204040854
20
15.803659202431321
30
8.0472716211307027e-15
11
28.753368204040854
21
9.7052135150628498
31
1.0844683966642908e-14
0
LINE
5
112
100
AcDbEntity
8
BEND_EXTENT
100
AcDbLine
10
28.329475828356479
20
9.7052135150628676
30
4.6083987489621177e-16
11
28.329475828356482
21
15.803659202431326
31
4.6083987489621424e-16
0
ENDSEC
0
SECTION
2
OBJECTS
0
DICTIONARY
5
C
100
AcDbDictionary
3
ACAD_GROUP
350
D
3
ACAD_MLINESTYLE
350
17
0
DICTIONARY
5
D
100
AcDbDictionary
0
DICTIONARY
5
1A
330
C
100
AcDbDictionary
0
DICTIONARY
5
17
100
AcDbDictionary
0
ENDSEC
0
EOF
