0
SECTION
2
HEADER
9
$INSUNITS
70
4
9
$ACADVER
1
AC1014
9
$HANDSEED
5
FFFF
0
ENDSEC
0
SECTION
2
TABLES
0
TABLE
2
VPORT
5
8
100
AcDbSymbolTable
0
ENDTAB
0
TABLE
2
LTYPE
5
5
100
AcDbSymbolTable
0
LTYPE
5
14
100
AcDbSymbolTableRecord
100
AcDbLinetypeTableRecord
2
BYBLOCK
70
0
0
LTYPE
5
15
100
AcDbSymbolTableRecord
100
AcDbLinetypeTableRecord
2
BYLAYER
70
0
0
ENDTAB
0
TABLE
2
LAYER
5
2
100
AcDbSymbolTable
70
2
0
LAYER
5
50
100
AcDbSymbolTableRecord
100
AcDbLayerTableRecord
2
0
70
0
6
CONTINUOUS
0
ENDTAB
0
TABLE
2
STYLE
5
3
100
AcDbSymbolTable
70
1
0
STYLE
5
11
100
AcDbSymbolTableRecord
100
AcDbTextStyleTableRecord
2
STANDARD
70
0
0
ENDTAB
0
TABLE
2
VIEW
5
6
100
AcDbSymbolTable
70
0
0
ENDTAB
0
TABLE
2
UCS
5
7
100
AcDbSymbolTable
70
0
0
ENDTAB
0
TABLE
2
APPID
5
9
100
AcDbSymbolTable
70
2
0
APPID
5
12
100
AcDbSymbolTableRecord
100
AcDbRegAppTableRecord
2
ACAD
70
0
0
ENDTAB
0
TABLE
2
DIMSTYLE
5
A
100
AcDbSymbolTable
70
1
0
ENDTAB
0
TABLE
2
BLOCK_RECORD
5
1
100
AcDbSymbolTable
70
1
0
BLOCK_RECORD
5
1F
100
AcDbSymbolTableRecord
100
AcDbBlockTableRecord
2
*MODEL_SPACE
0
BLOCK_RECORD
5
1B
100
AcDbSymbolTableRecord
100
AcDbBlockTableRecord
2
*PAPER_SPACE
0
ENDTAB
0
ENDSEC
0
SECTION
2
BLOCKS
0
BLOCK
5
20
100
AcDbEntity
100
AcDbBlockBegin
2
*MODEL_SPACE
0
ENDBLK
5
21
100
AcDbEntity
100
AcDbBlockEnd
0
BLOCK
5
1C
100
AcDbEntity
100
AcDbBlockBegin
2
*PAPER_SPACE
0
ENDBLK
5
1D
100
AcDbEntity
100
AcDbBlockEnd
0
ENDSEC
0
SECTION
2
ENTITIES
0
CIRCLE
5
100
100
AcDbEntity
8
0
100
AcDbCircle
10
432.76354296590227
20
1361.0166587954955
30
0
40
1.9999999999998863
210
4.6460895847922991e-35
220
3.9135193370645061e-70
230
1
0
CIRCLE
5
101
100
AcDbEntity
8
0
100
AcDbCircle
10
432.76354296590227
20
1284.7298622310923
30
0
40
2.0000000000000284
210
4.6461084541169003e-35
220
3.9135193370642282e-70
230
1
0
CIRCLE
5
102
100
AcDbEntity
8
0
100
AcDbCircle
10
-58.482415660623133
20
1500.3813594691137
30
0
40
2.0000000000000551
210
4.6461120055677283e-35
220
3.9135193370641754e-70
230
1
0
CIRCLE
5
103
100
AcDbEntity
8
0
100
AcDbCircle
10
378.26354297335286
20
1644.3770484812558
30
0
40
2.0000000000000284
210
4.6461084541169003e-35
220
3.9135193370642282e-70
230
1
0
CIRCLE
5
104
100
AcDbEntity
8
0
100
AcDbCircle
10
301.54781422081476
20
1644.3770484812558
30
0
40
1.9999999999999574
210
4.6460990194545997e-35
220
3.9135193370643672e-70
230
1
0
CIRCLE
5
105
100
AcDbEntity
8
0
100
AcDbCircle
10
-432.98420131663818
20
1589.8770484887064
30
0
40
2.0000000000000284
210
4.6461084541169003e-35
220
3.9135193370642282e-70
230
1
0
CIRCLE
5
106
100
AcDbEntity
8
0
100
AcDbCircle
10
432.76354296590227
20
1589.8770484887064
30
0
40
1.9999999999998863
210
4.6460895847922991e-35
220
3.9135193370645061e-70
230
1
0
CIRCLE
5
107
100
AcDbEntity
8
0
100
AcDbCircle
10
-243.631387581703
20
1095.3770484961569
30
0
40
2.0000000000000284
210
4.6461084541169003e-35
220
3.9135193370642282e-70
230
1
0
CIRCLE
5
108
100
AcDbEntity
8
0
100
AcDbCircle
10
432.76354296590227
20
1513.5902519243029
30
0
40
1.9999999999998863
210
4.6460895847922991e-35
220
3.9135193370645061e-70
230
1
0
CIRCLE
5
109
100
AcDbEntity
8
0
100
AcDbCircle
10
-301.76847257155077
20
1644.3770484812558
30
0
40
2.0000000000000995
210
4.6461178887792009e-35
220
3.9135193370640885e-70
230
1
0
CIRCLE
5
110
100
AcDbEntity
8
0
100
AcDbCircle
10
186.29476589887815
20
1628.4143680581046
30
0
40
2.0000000000000639
210
4.6461131893846709e-35
220
3.913519337064158e-70
230
1
0
CIRCLE
5
111
100
AcDbEntity
8
0
100
AcDbCircle
10
-0.11032917536786258
20
1494.3770484812558
30
0
40
2.0000000000000111
210
4.6461061582294969e-35
220
3.9135193370642629e-70
230
1
0
CIRCLE
5
112
100
AcDbEntity
8
0
100
AcDbCircle
10
224.8320854682766
20
1644.3770484812558
30
0
40
1.9999999999999929
210
4.6461037547223703e-35
220
3.9135193370642977e-70
230
1
0
CIRCLE
5
113
100
AcDbEntity
8
0
100
AcDbCircle
10
-417.02152089348715
20
1628.4143680581046
30
0
40
1.9999999999999574
210
4.6460990194545997e-35
220
3.9135193370643672e-70
230
1
0
CIRCLE
5
114
100
AcDbEntity
8
0
100
AcDbCircle
10
-272.14130329005093
20
1101.0480233234989
30
0
40
1.9999999999999574
210
4.6460990194545997e-35
220
3.9135193370643672e-70
230
1
0
CIRCLE
5
115
100
AcDbEntity
8
0
100
AcDbCircle
10
416.80086254275136
20
1628.4143680581046
30
0
40
2.0000000000000284
210
4.6461084541169003e-35
220
3.9135193370642282e-70
230
1
0
CIRCLE
5
116
100
AcDbEntity
8
0
100
AcDbCircle
10
58.2617573098874
20
1500.3813594691137
30
0
40
2.0000000000000373
210
4.6461096379338429e-35
220
3.9135193370642102e-70
230
1
0
CIRCLE
5
117
100
AcDbEntity
8
0
100
AcDbCircle
10
432.76354296590227
20
1437.3034553598993
30
0
40
1.9999999999999574
210
4.6460990194545997e-35
220
3.9135193370643672e-70
230
1
0
CIRCLE
5
118
100
AcDbEntity
8
0
100
AcDbCircle
10
122.27826160438276
20
1564.3978637636092
30
0
40
1.9999999999999929
210
4.6461037547223703e-35
220
3.9135193370642977e-70
230
1
0
CIRCLE
5
119
100
AcDbEntity
8
0
100
AcDbCircle
10
-225.05274381901279
20
1644.3770484812558
30
0
40
1.9999999999999929
210
4.6461037547223703e-35
220
3.9135193370642977e-70
230
1
0
CIRCLE
5
120
100
AcDbEntity
8
0
100
AcDbCircle
10
-378.48420132408876
20
1644.3770484812558
30
0
40
1.9999999999999574
210
4.6460990194545997e-35
220
3.9135193370643672e-70
230
1
0
CIRCLE
5
121
100
AcDbEntity
8
0
100
AcDbCircle
10
427.0925681385603
20
1256.2199465227441
30
0
40
2.0000000000000284
210
4.6461084541169003e-35
220
3.9135193370642282e-70
230
1
0
CIRCLE
5
122
100
AcDbEntity
8
0
100
AcDbCircle
10
-121.87085837853547
20
1095.3770484961569
30
0
40
1.9999999999999929
210
4.6461037547223703e-35
220
3.9135193370642977e-70
230
1
0
CIRCLE
5
123
100
AcDbEntity
8
0
100
AcDbCircle
10
-0.11032917536795139
20
1095.3770484961569
30
0
40
2.0000000000000187
210
4.6461071626802361e-35
220
3.9135193370642481e-70
230
1
0
CIRCLE
5
124
100
AcDbEntity
8
0
100
AcDbCircle
10
121.65020002779957
20
1095.3770484961569
30
0
40
2.0000000000000284
210
4.6461084541169003e-35
220
3.9135193370642282e-70
230
1
0
CIRCLE
5
125
100
AcDbEntity
8
0
100
AcDbCircle
10
243.41072923096709
20
1095.3770484961569
30
0
40
1.9999999999999929
210
4.6461037547223703e-35
220
3.9135193370642977e-70
230
1
0
CIRCLE
5
126
100
AcDbEntity
8
0
100
AcDbCircle
10
271.92064493931508
20
1101.0480233234989
30
0
40
1.9999999999999574
210
4.6460990194545997e-35
220
3.9135193370643672e-70
230
1
0
CIRCLE
5
127
100
AcDbEntity
8
0
100
AcDbCircle
10
296.09018442409655
20
1117.197593295577
30
0
40
1.9999999999999929
210
4.6461037547223703e-35
220
3.9135193370642977e-70
230
1
0
CIRCLE
5
128
100
AcDbEntity
8
0
100
AcDbCircle
10
353.5165912952894
20
1174.6240001667697
30
0
40
2.0000000000000284
210
4.6461084541169003e-35
220
3.9135193370642282e-70
230
1
0
CIRCLE
5
129
100
AcDbEntity
8
0
100
AcDbCircle
10
410.9429981664822
20
1232.0504070379627
30
0
40
1.9999999999999574
210
4.6460990194545997e-35
220
3.9135193370643672e-70
230
1
0
CIRCLE
5
130
100
AcDbEntity
8
0
100
AcDbCircle
10
-411.16365651721821
20
1232.0504070379627
30
0
40
1.9999999999999574
210
4.6460990194545997e-35
220
3.9135193370643672e-70
230
1
0
CIRCLE
5
131
100
AcDbEntity
8
0
100
AcDbCircle
10
-427.31322648929631
20
1256.2199465227443
30
0
40
2.0000000000000284
210
4.6461084541169003e-35
220
3.9135193370642282e-70
230
1
0
CIRCLE
5
132
100
AcDbEntity
8
0
100
AcDbCircle
10
-432.98420131663818
20
1284.7298622310923
30
0
40
1.9999999999998863
210
4.6460895847922991e-35
220
3.9135193370645061e-70
230
1
0
CIRCLE
5
133
100
AcDbEntity
8
0
100
AcDbCircle
10
-432.98420131663818
20
1437.3034553598993
30
0
40
1.9999999999999574
210
4.6460990194545997e-35
220
3.9135193370643672e-70
230
1
0
LWPOLYLINE
5
134
100
AcDbEntity
8
0
100
AcDbPolyline
90
20
70
1
43
0.0
10
-418.4842013240887
20
1589.8770484887064
42
-0.41421356237309453
10
-378.48420132408876
20
1629.8770484887064
10
-225.05274381901273
20
1629.8770484887061
42
-0.19891236737966517
10
-196.76847257155106
20
1618.1613197361685
10
-68.735463982559679
20
1490.1283111471773
42
0.19891236737965451
10
-43.986726641030558
20
1479.8770484887064
10
43.766068290294626
20
1479.8770484887064
42
0.19891236737965379
10
68.51480563182389
20
1490.1283111471773
10
196.54781422081464
20
1618.1613197361683
42
-0.19891236737965706
10
224.8320854682766
20
1629.8770484887064
10
378.26354297335286
20
1629.8770484887064
42
-0.41421356237309453
10
418.26354297335286
20
1589.8770484887064
10
418.2635429733528
20
1284.7298622310923
42
-0.19891236737965776
10
400.68994984454559
20
1242.3034553598993
10
285.83713610215989
20
1127.4506416175134
42
-0.19891236737966078
10
243.41072923096709
20
1109.8770484887064
10
-243.63138758170294
20
1109.8770484887064
42
-0.19891236737966078
10
-286.05779445289585
20
1127.4506416175134
10
-400.91060819528167
20
1242.3034553598993
42
-0.19891236737965476
10
-418.48420132408876
20
1284.7298622310923
0
CIRCLE
5
135
100
AcDbEntity
8
0
100
AcDbCircle
10
-186.51542424961457
20
1628.4143680581053
30
0
40
1.9999999999999574
210
4.6460990194545997e-35
220
3.9135193370643672e-70
230
1
0
CIRCLE
5
136
100
AcDbEntity
8
0
100
AcDbCircle
10
-122.49891995511885
20
1564.3978637636092
30
0
40
2.0000000000000462
210
4.6461108217507856e-35
220
3.9135193370641928e-70
230
1
0
CIRCLE
5
137
100
AcDbEntity
8
0
100
AcDbCircle
10
-296.31084277483239
20
1117.197593295577
30
0
40
2.0000000000000639
210
4.6461131893846709e-35
220
3.913519337064158e-70
230
1
0
CIRCLE
5
138
100
AcDbEntity
8
0
100
AcDbCircle
10
-353.7372496460253
20
1174.6240001667697
30
0
40
2.0000000000000284
210
4.6461084541169003e-35
220
3.9135193370642282e-70
230
1
0
LWPOLYLINE
5
139
100
AcDbEntity
8
0
100
AcDbPolyline
90
20
70
1
43
0.0
10
448.2635429733528
20
1284.7298622310923
42
-0.19891236737965801
10
421.90315328014202
20
1221.0902519243027
10
307.05033953775632
20
1106.237438181917
42
-0.19891236737965984
10
243.41072923096706
20
1079.8770484887064
10
-243.63138758170305
20
1079.8770484887064
42
-0.1989123673796595
10
-307.27099788849227
20
1106.237438181917
10
-422.12381163087809
20
1221.0902519243027
42
-0.19891236737965556
10
-448.48420132408876
20
1284.7298622310923
10
-448.4842013240887
20
1589.8770484887064
42
-0.41421356237309476
10
-378.48420132408876
20
1659.8770484887064
10
-225.05274381901285
20
1659.8770484887064
42
-0.19891236737966159
10
-175.5552691359548
20
1639.3745231717651
10
-47.522260546963295
20
1511.3415145827735
42
0.1989123673796469
10
-43.986726641030238
20
1509.8770484887064
10
43.766068290294669
20
1509.8770484887064
42
0.19891236737963763
10
47.301602196227606
20
1511.3415145827739
10
175.3346107852181
20
1639.3745231717644
42
-0.19891236737965801
10
224.8320854682766
20
1659.8770484887064
10
378.26354297335286
20
1659.8770484887064
42
-0.41421356237309476
10
448.26354297335286
20
1589.8770484887064
0
ENDSEC
0
SECTION
2
OBJECTS
0
DICTIONARY
5
C
100
AcDbDictionary
3
ACAD_GROUP
350
D
3
ACAD_MLINESTYLE
350
17
0
DICTIONARY
5
D
100
AcDbDictionary
0
DICTIONARY
5
1A
330
C
100
AcDbDictionary
0
DICTIONARY
5
17
100
AcDbDictionary
0
ENDSEC
0
EOF
