0
SECTION
2
HEADER
9
$INSUNITS
70
4
9
$ACADVER
1
AC1014
9
$HANDSEED
5
FFFF
0
ENDSEC
0
SECTION
2
TABLES
0
TABLE
2
VPORT
5
8
100
AcDbSymbolTable
0
ENDTAB
0
TABLE
2
LTYPE
5
5
100
AcDbSymbolTable
0
LTYPE
5
14
100
AcDbSymbolTableRecord
100
AcDbLinetypeTableRecord
2
BYBLOCK
70
0
0
LTYPE
5
15
100
AcDbSymbolTableRecord
100
AcDbLinetypeTableRecord
2
BYLAYER
70
0
0
ENDTAB
0
TABLE
2
LAYER
5
2
100
AcDbSymbolTable
70
2
0
LAYER
5
50
100
AcDbSymbolTableRecord
100
AcDbLayerTableRecord
2
0
70
0
6
CONTINUOUS
0
ENDTAB
0
TABLE
2
STYLE
5
3
100
AcDbSymbolTable
70
1
0
STYLE
5
11
100
AcDbSymbolTableRecord
100
AcDbTextStyleTableRecord
2
STANDARD
70
0
0
ENDTAB
0
TABLE
2
VIEW
5
6
100
AcDbSymbolTable
70
0
0
ENDTAB
0
TABLE
2
UCS
5
7
100
AcDbSymbolTable
70
0
0
ENDTAB
0
TABLE
2
APPID
5
9
100
AcDbSymbolTable
70
2
0
APPID
5
12
100
AcDbSymbolTableRecord
100
AcDbRegAppTableRecord
2
ACAD
70
0
0
ENDTAB
0
TABLE
2
DIMSTYLE
5
A
100
AcDbSymbolTable
70
1
0
ENDTAB
0
TABLE
2
BLOCK_RECORD
5
1
100
AcDbSymbolTable
70
1
0
BLOCK_RECORD
5
1F
100
AcDbSymbolTableRecord
100
AcDbBlockTableRecord
2
*MODEL_SPACE
0
BLOCK_RECORD
5
1B
100
AcDbSymbolTableRecord
100
AcDbBlockTableRecord
2
*PAPER_SPACE
0
ENDTAB
0
ENDSEC
0
SECTION
2
BLOCKS
0
BLOCK
5
20
100
AcDbEntity
100
AcDbBlockBegin
2
*MODEL_SPACE
0
ENDBLK
5
21
100
AcDbEntity
100
AcDbBlockEnd
0
BLOCK
5
1C
100
AcDbEntity
100
AcDbBlockBegin
2
*PAPER_SPACE
0
ENDBLK
5
1D
100
AcDbEntity
100
AcDbBlockEnd
0
ENDSEC
0
SECTION
2
ENTITIES
0
LWPOLYLINE
5
100
100
AcDbEntity
8
0
100
AcDbPolyline
90
12
70
1
43
0.0
10
76.3103280309589
20
1298.1857964980095
42
-0.19891236737965731
10
63.477211648647568
20
1267.2039128803208
10
-48.016553526793196
20
1155.71014770488
42
-0.19891236737965626
10
-78.998437144481741
20
1142.8770313225687
10
-311.67466586552558
20
1142.8770313225684
42
-0.41421356237309359
10
-355.48966586552569
20
1186.6920313225685
10
-355.48966586552569
20
1445.9363967818363
42
-0.19891236737965973
10
-342.65654948321441
20
1476.9182803995247
10
-232.33092180893706
20
1587.2439080738018
42
-0.19891236737965662
10
-201.34903819124858
20
1600.0770244561133
10
32.495328030958774
20
1600.0770244561138
42
-0.4142135623731022
10
76.310328030958786
20
1556.2620244561137
0
CIRCLE
5
101
100
AcDbEntity
8
0
100
AcDbCircle
10
-352.90959781041914
20
1145.4570993776749
30
0
40
2.0000000000000284
210
4.6461084541169003e-35
220
-3.9135193370642282e-70
230
1
0
CIRCLE
5
102
100
AcDbEntity
8
0
100
AcDbCircle
10
-137.16749432474273
20
1128.3770313225687
30
0
40
1.9999999999999396
210
4.6460966518207144e-35
220
-3.9135193370644019e-70
230
1
0
CIRCLE
5
103
100
AcDbEntity
8
0
100
AcDbCircle
10
-253.50560868526463
20
1128.3770313225684
30
0
40
2.0000000000000284
210
4.6461084541169003e-35
220
-3.9135193370642282e-70
230
1
0
CIRCLE
5
104
100
AcDbEntity
8
0
100
AcDbCircle
10
-365.55070080392147
20
1468.2525811402061
30
0
40
1.9999999999999574
210
4.6460990194545997e-35
220
-3.9135193370643672e-70
230
1
0
CIRCLE
5
105
100
AcDbEntity
8
0
100
AcDbCircle
10
45.856818681992365
20
1229.0774232592557
30
0
40
2.0000000000000018
210
4.646104938539313e-35
220
-3.9135193370642796e-70
230
1
0
CIRCLE
5
106
100
AcDbEntity
8
0
100
AcDbCircle
10
-369.98966586552564
20
1316.3142140522023
30
0
40
1.9999999999998863
210
4.6460895847922991e-35
220
-3.9135193370645061e-70
230
1
0
CIRCLE
5
107
100
AcDbEntity
8
0
100
AcDbCircle
10
-25.965763524593086
20
1614.5770244561136
30
0
40
2.0000000000000773
210
4.6461149113002239e-35
220
-3.9135193370641329e-70
230
1
0
CIRCLE
5
108
100
AcDbEntity
8
0
100
AcDbCircle
10
-311.67466586552558
20
1128.3770313225684
30
0
40
2.0000000000000284
210
4.6461084541169003e-35
220
-3.9135193370642282e-70
230
1
0
CIRCLE
5
109
100
AcDbEntity
8
0
100
AcDbCircle
10
-9.890063905728006
20
1173.3305406715353
30
0
40
1.9999999999999596
210
4.6460993064405252e-35
220
-3.9135193370643626e-70
230
1
0
CIRCLE
5
110
100
AcDbEntity
8
0
100
AcDbCircle
10
-369.98966586552564
20
1186.6920313225685
30
0
40
2.0000000000000284
210
4.6461084541169003e-35
220
-3.9135193370642282e-70
230
1
0
CIRCLE
5
111
100
AcDbEntity
8
0
100
AcDbCircle
10
90.810328030958871
20
1362.7048534875353
30
0
40
1.9999999999998863
210
4.6460895847922991e-35
220
-3.9135193370645061e-70
230
1
0
CIRCLE
5
112
100
AcDbEntity
8
0
100
AcDbCircle
10
-369.98966586552564
20
1381.1253054170193
30
0
40
2.0000000000000995
210
4.6461178887792009e-35
220
-3.9135193370640885e-70
230
1
0
CIRCLE
5
113
100
AcDbEntity
8
0
100
AcDbCircle
10
-223.76208352941148
20
1610.2387270434879
30
0
40
2.0000000000000284
210
4.6461084541169003e-35
220
-3.9135193370642282e-70
230
1
0
CIRCLE
5
114
100
AcDbEntity
8
0
100
AcDbCircle
10
-142.88794663569678
20
1614.5770244561136
30
0
40
2.0000000000000284
210
4.6461084541169003e-35
220
-3.9135193370642282e-70
230
1
0
CIRCLE
5
115
100
AcDbEntity
8
0
100
AcDbCircle
10
86.371362969354649
20
1275.8696121396392
30
0
40
1.9999999999999574
210
4.6460990194545997e-35
220
-3.9135193370643672e-70
230
1
0
CIRCLE
5
116
100
AcDbEntity
8
0
100
AcDbCircle
10
-297.74678397328069
20
1542.3341425638682
30
0
40
1.9999999999999929
210
4.6461037547223703e-35
220
-3.9135193370642977e-70
230
1
0
CIRCLE
5
117
100
AcDbEntity
8
0
100
AcDbCircle
10
-195.33655150500368
20
1128.3770313225687
30
0
40
2.0000000000000284
210
4.6461084541169003e-35
220
-3.9135193370642282e-70
230
1
0
CIRCLE
5
118
100
AcDbEntity
8
0
100
AcDbCircle
10
17.983377388132183
20
1201.2039819653955
30
0
40
1.9999999999999729
210
4.6461011001025595e-35
220
-3.9135193370643356e-70
230
1
0
CIRCLE
5
119
100
AcDbEntity
8
0
100
AcDbCircle
10
90.810328030958829
20
1491.7429674665873
30
0
40
2.0000000000000995
210
4.6461178887792009e-35
220
-3.9135193370640885e-70
230
1
0
CIRCLE
5
120
100
AcDbEntity
8
0
100
AcDbCircle
10
-56.682252786111526
20
1132.8159963841729
30
0
40
1.9999999999999662
210
4.6461002032715423e-35
220
-3.9135193370643498e-70
230
1
0
CIRCLE
5
121
100
AcDbEntity
8
0
100
AcDbCircle
10
90.8103280309588
20
1556.2620244561137
30
0
40
2.0000000000000462
210
4.6461108217507856e-35
220
-3.9135193370641928e-70
230
1
0
CIRCLE
5
122
100
AcDbEntity
8
0
100
AcDbCircle
10
90.810328030958857
20
1427.2239104770615
30
0
40
2.0000000000000995
210
4.6461178887792009e-35
220
-3.9135193370640885e-70
230
1
0
CIRCLE
5
123
100
AcDbEntity
8
0
100
AcDbCircle
10
-84.426855080144932
20
1614.5770244561136
30
0
40
1.9999999999999929
210
4.6461037547223703e-35
220
-3.9135193370642977e-70
230
1
0
CIRCLE
5
124
100
AcDbEntity
8
0
100
AcDbCircle
10
-325.32819089185006
20
1514.7527356452988
30
0
40
1.9999999999998863
210
4.6460895847922991e-35
220
-3.9135193370645061e-70
230
1
0
CIRCLE
5
125
100
AcDbEntity
8
0
100
AcDbCircle
10
73.730259975852306
20
1597.4969564010073
30
0
40
2.0000000000000551
210
4.6461120055677283e-35
220
-3.9135193370641754e-70
230
1
0
CIRCLE
5
126
100
AcDbEntity
8
0
100
AcDbCircle
10
-369.98966586552564
20
1251.5031226873855
30
0
40
2.0000000000000284
210
4.6461084541169003e-35
220
-3.9135193370642282e-70
230
1
0
CIRCLE
5
127
100
AcDbEntity
8
0
100
AcDbCircle
10
32.49532803095876
20
1614.5770244561136
30
0
40
2.0000000000000018
210
4.646104938539313e-35
220
-3.9135193370642796e-70
230
1
0
CIRCLE
5
128
100
AcDbEntity
8
0
100
AcDbCircle
10
-270.34215375000804
20
1570.0923261777343
30
0
40
1.9999999999999929
210
4.6461037547223703e-35
220
-3.9135193370642977e-70
230
1
0
LWPOLYLINE
5
129
100
AcDbEntity
8
0
100
AcDbPolyline
90
12
70
1
43
0.0
10
32.495328030958731
20
1630.0770244561138
42
-0.41421356237309948
10
106.31032803095879
20
1556.2620244561137
10
106.31032803095889
20
1298.1857964980095
42
-0.19891236737965706
10
84.69041508424408
20
1245.9907094447246
10
-26.80335009119667
20
1134.4969442692836
42
-0.19891236737965753
10
-78.998437144481784
20
1112.8770313225687
10
-311.67466586552558
20
1112.8770313225684
42
-0.4142135623730942
10
-385.48966586552569
20
1186.6920313225685
10
-385.48966586552569
20
1445.9363967818363
42
-0.19891236737965845
10
-363.86975291881095
20
1498.1314838351209
10
-253.54412524453363
20
1608.4571115093986
42
-0.19891236737965742
10
-201.34903819124867
20
1630.0770244561133
0
ENDSEC
0
SECTION
2
OBJECTS
0
DICTIONARY
5
C
100
AcDbDictionary
3
ACAD_GROUP
350
D
3
ACAD_MLINESTYLE
350
17
0
DICTIONARY
5
D
100
AcDbDictionary
0
DICTIONARY
5
1A
330
C
100
AcDbDictionary
0
DICTIONARY
5
17
100
AcDbDictionary
0
ENDSEC
0
EOF
