0
SECTION
2
HEADER
9
$INSUNITS
70
4
9
$ACADVER
1
AC1014
9
$HANDSEED
5
FFFF
0
ENDSEC
0
SECTION
2
TABLES
0
TABLE
2
VPORT
5
8
100
AcDbSymbolTable
0
ENDTAB
0
TABLE
2
LTYPE
5
5
100
AcDbSymbolTable
0
LTYPE
5
14
100
AcDbSymbolTableRecord
100
AcDbLinetypeTableRecord
2
BYBLOCK
70
0
0
LTYPE
5
15
100
AcDbSymbolTableRecord
100
AcDbLinetypeTableRecord
2
BYLAYER
70
0
0
ENDTAB
0
TABLE
2
LAYER
5
2
100
AcDbSymbolTable
70
2
0
LAYER
5
50
100
AcDbSymbolTableRecord
100
AcDbLayerTableRecord
2
0
70
0
6
CONTINUOUS
0
ENDTAB
0
TABLE
2
STYLE
5
3
100
AcDbSymbolTable
70
1
0
STYLE
5
11
100
AcDbSymbolTableRecord
100
AcDbTextStyleTableRecord
2
STANDARD
70
0
0
ENDTAB
0
TABLE
2
VIEW
5
6
100
AcDbSymbolTable
70
0
0
ENDTAB
0
TABLE
2
UCS
5
7
100
AcDbSymbolTable
70
0
0
ENDTAB
0
TABLE
2
APPID
5
9
100
AcDbSymbolTable
70
2
0
APPID
5
12
100
AcDbSymbolTableRecord
100
AcDbRegAppTableRecord
2
ACAD
70
0
0
ENDTAB
0
TABLE
2
DIMSTYLE
5
A
100
AcDbSymbolTable
70
1
0
ENDTAB
0
TABLE
2
BLOCK_RECORD
5
1
100
AcDbSymbolTable
70
1
0
BLOCK_RECORD
5
1F
100
AcDbSymbolTableRecord
100
AcDbBlockTableRecord
2
*MODEL_SPACE
0
BLOCK_RECORD
5
1B
100
AcDbSymbolTableRecord
100
AcDbBlockTableRecord
2
*PAPER_SPACE
0
ENDTAB
0
ENDSEC
0
SECTION
2
BLOCKS
0
BLOCK
5
20
100
AcDbEntity
100
AcDbBlockBegin
2
*MODEL_SPACE
0
ENDBLK
5
21
100
AcDbEntity
100
AcDbBlockEnd
0
BLOCK
5
1C
100
AcDbEntity
100
AcDbBlockBegin
2
*PAPER_SPACE
0
ENDBLK
5
1D
100
AcDbEntity
100
AcDbBlockEnd
0
ENDSEC
0
SECTION
2
ENTITIES
0
CIRCLE
5
100
100
AcDbEntity
8
0
100
AcDbCircle
10
-134.88967082463202
20
1649.8770484887064
30
0
40
1.5000000000000036
210
-1.3724257789383922e-35
220
-3.9135194257724948e-70
230
1
0
CIRCLE
5
101
100
AcDbEntity
8
0
100
AcDbCircle
10
-439.88967082463182
20
1374.8770484887064
30
0
40
1.5000000000000568
210
-1.3724163084028509e-35
220
-3.9135194257723551e-70
230
1
0
CIRCLE
5
102
100
AcDbEntity
8
0
100
AcDbCircle
10
-194.17093072729926
20
1099.8770484887066
30
0
40
1.4999999999999503
210
-1.3724352136006928e-35
220
-3.9135194257726344e-70
230
1
0
CIRCLE
5
103
100
AcDbEntity
8
0
100
AcDbCircle
10
229.38528172253797
20
1284.3195086007636
30
0
40
1.4999999999999147
210
-1.3724414555445723e-35
220
-3.9135194257727258e-70
230
1
0
CIRCLE
5
104
100
AcDbEntity
8
0
100
AcDbCircle
10
172.32162875591513
20
1546.6508631417082
30
0
40
1.5000000000000568
210
-1.3724163084028509e-35
220
-3.9135194257723551e-70
230
1
0
CIRCLE
5
105
100
AcDbEntity
8
0
100
AcDbCircle
10
138.03926136350245
20
1191.9481163005719
30
0
40
1.5000000000000568
210
-1.3724163084028509e-35
220
-3.9135194257723551e-70
230
1
0
CIRCLE
5
106
100
AcDbEntity
8
0
100
AcDbCircle
10
-319.88967082463205
20
1099.8770484887064
30
0
40
1.4999999999999858
210
-1.3724288999103319e-35
220
-3.9135194257725404e-70
230
1
0
CIRCLE
5
107
100
AcDbEntity
8
0
100
AcDbCircle
10
-439.88967082463199
20
1509.8770484887064
30
0
40
1.5000000000000568
210
-1.3724163084028509e-35
220
-3.9135194257723551e-70
230
1
0
CIRCLE
5
108
100
AcDbEntity
8
0
100
AcDbCircle
10
20.110329175367948
20
1649.8770484887064
30
0
40
1.4999999999999991
210
-1.3724265322764466e-35
220
-3.9135194257725057e-70
230
1
0
CIRCLE
5
109
100
AcDbEntity
8
0
100
AcDbCircle
10
-289.88967082463205
20
1649.8770484887064
30
0
40
1.4999999999999858
210
-1.3724288999103319e-35
220
-3.9135194257725404e-70
230
1
0
CIRCLE
5
110
100
AcDbEntity
8
0
100
AcDbCircle
10
-439.88967082463182
20
1239.8770484887064
30
0
40
1.4999999999999858
210
-1.3724288999103319e-35
220
-3.9135194257725404e-70
230
1
0
CIRCLE
5
111
100
AcDbEntity
8
0
100
AcDbCircle
10
-69.889670824632049
20
1099.8770484887066
30
0
40
1.5000000000000036
210
-1.3724257789383922e-35
220
-3.9135194257724948e-70
230
1
0
CIRCLE
5
112
100
AcDbEntity
8
0
100
AcDbCircle
10
230.11032917536789
20
1384.8770484887064
30
0
40
1.5000000000000568
210
-1.3724163084028509e-35
220
-3.9135194257723551e-70
230
1
0
CIRCLE
5
113
100
AcDbEntity
8
0
100
AcDbCircle
10
229.38528172253785
20
1485.4345883766493
30
0
40
1.5000000000000213
210
-1.3724226220932118e-35
220
-3.9135194257724484e-70
230
1
0
CIRCLE
5
114
100
AcDbEntity
8
0
100
AcDbCircle
10
45.667869063310683
20
1100.6020959415366
30
0
40
1.5000000000000213
210
-1.3724226220932118e-35
220
-3.9135194257724484e-70
230
1
0
CIRCLE
5
115
100
AcDbEntity
8
0
100
AcDbCircle
10
-437.0998629154335
20
1102.6668563979044
30
0
40
1.5000000000000568
210
-1.3724163084028509e-35
220
-3.9135194257723551e-70
230
1
0
CIRCLE
5
116
100
AcDbEntity
8
0
100
AcDbCircle
10
-437.09986291543368
20
1647.087240579508
30
0
40
1.4999999999999858
210
-1.3724288999103319e-35
220
-3.9135194257725404e-70
230
1
0
CIRCLE
5
117
100
AcDbEntity
8
0
100
AcDbCircle
10
167.32052126616981
20
1647.087240579508
30
0
40
1.4999999999999858
210
-1.3724288999103319e-35
220
-3.9135194257725404e-70
230
1
0
LWPOLYLINE
5
118
100
AcDbEntity
8
0
100
AcDbPolyline
90
8
70
1
43
0.0
10
160.11032917536795
20
1557.7678168519139
10
160.11032917536795
20
1639.8770484887064
10
-429.88967082463193
20
1639.8770484887061
10
-429.88967082463176
20
1109.8770484887064
10
41.826057927906106
20
1109.8770484887066
10
220.11032917536795
20
1288.1613197361683
10
220.11032917536784
20
1481.5927772412444
10
171.54780937003329
20
1530.1552970465791
42
-0.19891236737965845
0
LWPOLYLINE
5
119
100
AcDbEntity
8
0
100
AcDbPolyline
90
14
70
1
43
0.0
10
180.11032917536795
20
1640.8270484887064
10
180.11032917536795
20
1557.7678168519139
42
0.19891236737966139
10
185.68994499376436
20
1544.2974326703099
10
234.53071335697166
20
1495.4566643071028
42
-0.19891236737965903
10
240.11032917536784
20
1481.9862801254994
10
240.11032917536801
20
1287.7678168519139
42
-0.19891236737965834
10
234.53071335697172
20
1274.2974326703102
10
55.689944993764023
20
1095.4566643071028
42
-0.19891236737965662
10
42.219560812160424
20
1089.8770484887066
10
-430.8396708246317
20
1089.8770484887064
42
-0.41421356237309065
10
-449.88967082463176
20
1108.9270484887063
10
-449.88967082463171
20
1640.8270484887064
42
-0.41421356237309392
10
-430.83967082463204
20
1659.8770484887061
10
161.06032917536794
20
1659.8770484887064
42
-0.41421356237309392
0
ENDSEC
0
SECTION
2
OBJECTS
0
DICTIONARY
5
C
100
AcDbDictionary
3
ACAD_GROUP
350
D
3
ACAD_MLINESTYLE
350
17
0
DICTIONARY
5
D
100
AcDbDictionary
0
DICTIONARY
5
1A
330
C
100
AcDbDictionary
0
DICTIONARY
5
17
100
AcDbDictionary
0
ENDSEC
0
EOF
