0
SECTION
2
HEADER
9
$INSUNITS
70
4
9
$ACADVER
1
AC1014
9
$HANDSEED
5
FFFF
0
ENDSEC
0
SECTION
2
TABLES
0
TABLE
2
VPORT
5
8
100
AcDbSymbolTable
0
ENDTAB
0
TABLE
2
LTYPE
5
5
100
AcDbSymbolTable
0
LTYPE
5
14
100
AcDbSymbolTableRecord
100
AcDbLinetypeTableRecord
2
BYBLOCK
70
0
0
LTYPE
5
15
100
AcDbSymbolTableRecord
100
AcDbLinetypeTableRecord
2
BYLAYER
70
0
0
ENDTAB
0
TABLE
2
LAYER
5
2
100
AcDbSymbolTable
70
2
0
LAYER
5
50
100
AcDbSymbolTableRecord
100
AcDbLayerTableRecord
2
0
70
0
6
CONTINUOUS
0
ENDTAB
0
TABLE
2
STYLE
5
3
100
AcDbSymbolTable
70
1
0
STYLE
5
11
100
AcDbSymbolTableRecord
100
AcDbTextStyleTableRecord
2
STANDARD
70
0
0
ENDTAB
0
TABLE
2
VIEW
5
6
100
AcDbSymbolTable
70
0
0
ENDTAB
0
TABLE
2
UCS
5
7
100
AcDbSymbolTable
70
0
0
ENDTAB
0
TABLE
2
APPID
5
9
100
AcDbSymbolTable
70
2
0
APPID
5
12
100
AcDbSymbolTableRecord
100
AcDbRegAppTableRecord
2
ACAD
70
0
0
ENDTAB
0
TABLE
2
DIMSTYLE
5
A
100
AcDbSymbolTable
70
1
0
ENDTAB
0
TABLE
2
BLOCK_RECORD
5
1
100
AcDbSymbolTable
70
1
0
BLOCK_RECORD
5
1F
100
AcDbSymbolTableRecord
100
AcDbBlockTableRecord
2
*MODEL_SPACE
0
BLOCK_RECORD
5
1B
100
AcDbSymbolTableRecord
100
AcDbBlockTableRecord
2
*PAPER_SPACE
0
ENDTAB
0
ENDSEC
0
SECTION
2
BLOCKS
0
BLOCK
5
20
100
AcDbEntity
100
AcDbBlockBegin
2
*MODEL_SPACE
0
ENDBLK
5
21
100
AcDbEntity
100
AcDbBlockEnd
0
BLOCK
5
1C
100
AcDbEntity
100
AcDbBlockBegin
2
*PAPER_SPACE
0
ENDBLK
5
1D
100
AcDbEntity
100
AcDbBlockEnd
0
ENDSEC
0
SECTION
2
ENTITIES
0
LWPOLYLINE
5
100
100
AcDbEntity
8
0
100
AcDbPolyline
90
12
70
1
43
0.0
10
350.03540227913322
20
1414.1298622310921
42
-0.19891236737965706
10
332.46180915032608
20
1371.7034553598992
10
117.60899540794054
20
1156.8506416175135
42
-0.19891236737965984
10
75.182588536747588
20
1139.2770484887064
10
-311.36862366081203
20
1139.2770484887064
42
-0.41421356237309476
10
-351.36862366081203
20
1179.2770484887064
10
-351.36862366081198
20
1325.0242347463204
42
-0.19891236737965706
10
-333.79503053200489
20
1367.4506416175134
10
-118.94221678961905
20
1582.3034553598991
42
-0.19891236737965443
10
-76.515809918426143
20
1599.8770484887064
10
310.03540227913322
20
1599.8770484887064
42
-0.41421356237309531
10
350.03540227913328
20
1559.8770484887064
0
CIRCLE
5
101
100
AcDbEntity
8
0
100
AcDbCircle
10
364.5354022716827
20
1559.8770484887064
30
0
40
2.0000000000000284
210
0
220
-0
230
1
0
CIRCLE
5
102
100
AcDbEntity
8
0
100
AcDbCircle
10
364.53540227168276
20
1450.5666587954956
30
0
40
2.0000000000000284
210
0
220
-0
230
1
0
CIRCLE
5
103
100
AcDbEntity
8
0
100
AcDbCircle
10
348.57272184853173
20
1598.4143680581046
30
0
40
2.0000000000000284
210
0
220
-0
230
1
0
CIRCLE
5
104
100
AcDbEntity
8
0
100
AcDbCircle
10
213.39759922974338
20
1614.3770484812558
30
0
40
2.0000000000000995
210
6.84227765783603e-49
220
-6.1629758220391547e-33
230
1
0
CIRCLE
5
105
100
AcDbEntity
8
0
100
AcDbCircle
10
310.03540227913322
20
1614.3770484812558
30
0
40
1.9999999999999929
210
0
220
-0
230
1
0
CIRCLE
5
106
100
AcDbEntity
8
0
100
AcDbCircle
10
116.75979618035356
20
1614.3770484812558
30
0
40
1.9999999999999929
210
0
220
-0
230
1
0
CIRCLE
5
107
100
AcDbEntity
8
0
100
AcDbCircle
10
-365.86862365336145
20
1179.2770484887064
30
0
40
2.0000000000000284
210
0
220
-0
230
1
0
CIRCLE
5
108
100
AcDbEntity
8
0
100
AcDbCircle
10
-365.86862365336145
20
1215.7138450531099
30
0
40
2.0000000000000284
210
0
220
-0
230
1
0
CIRCLE
5
109
100
AcDbEntity
8
0
100
AcDbCircle
10
75.182588536747602
20
1124.777048496157
30
0
40
2.0000000000000018
210
6.84227765783603e-49
220
-6.1629758220391547e-33
230
1
0
CIRCLE
5
110
100
AcDbEntity
8
0
100
AcDbCircle
10
-21.455214512642314
20
1124.777048496157
30
0
40
2.0000000000000062
210
6.84227765783603e-49
220
-6.1629758220391547e-33
230
1
0
CIRCLE
5
111
100
AcDbEntity
8
0
100
AcDbCircle
10
-118.09301756203223
20
1124.777048496157
30
0
40
2.0000000000000284
210
0
220
-0
230
1
0
CIRCLE
5
112
100
AcDbEntity
8
0
100
AcDbCircle
10
-214.73082061142213
20
1124.777048496157
30
0
40
1.9999999999999574
210
6.84227765783603e-49
220
-6.1629758220391547e-33
230
1
0
CIRCLE
5
113
100
AcDbEntity
8
0
100
AcDbCircle
10
364.53540227168276
20
1487.0034553598994
30
0
40
2.0000000000000284
210
0
220
-0
230
1
0
CIRCLE
5
114
100
AcDbEntity
8
0
100
AcDbCircle
10
-349.90594323021048
20
1140.7397289193077
30
0
40
1.9999999999999574
210
6.84227765783603e-49
220
-6.1629758220391547e-33
230
1
0
CIRCLE
5
115
100
AcDbEntity
8
0
100
AcDbCircle
10
-311.36862366081209
20
1124.777048496157
30
0
40
2.0000000000000284
210
0
220
-0
230
1
0
CIRCLE
5
116
100
AcDbEntity
8
0
100
AcDbCircle
10
127.86204372987703
20
1146.5975932955769
30
0
40
1.9999999999999751
210
6.84227765783603e-49
220
-6.1629758220391547e-33
230
1
0
CIRCLE
5
117
100
AcDbEntity
8
0
100
AcDbCircle
10
181.57524716547346
20
1200.3107967311732
30
0
40
2.0000000000000639
210
6.84227765783603e-49
220
-6.1629758220391547e-33
230
1
0
CIRCLE
5
118
100
AcDbEntity
8
0
100
AcDbCircle
10
364.5354022716827
20
1523.4402519243029
30
0
40
2.0000000000000284
210
0
220
-0
230
1
0
CIRCLE
5
119
100
AcDbEntity
8
0
100
AcDbCircle
10
235.28845060106991
20
1254.0240001667698
30
0
40
2.0000000000000284
210
0
220
-0
230
1
0
CIRCLE
5
120
100
AcDbEntity
8
0
100
AcDbCircle
10
288.82487733873558
20
1307.5604269044356
30
0
40
1.9999999999999929
210
0
220
-0
230
1
0
CIRCLE
5
121
100
AcDbEntity
8
0
100
AcDbCircle
10
342.36130407640127
20
1361.0968536421012
30
0
40
1.9999999999999574
210
6.84227765783603e-49
220
-6.1629758220391547e-33
230
1
0
CIRCLE
5
122
100
AcDbEntity
8
0
100
AcDbCircle
10
364.53540227168276
20
1414.1298622310921
30
0
40
1.9999999999998863
210
6.84227765783603e-49
220
-6.1629758220391547e-33
230
1
0
CIRCLE
5
123
100
AcDbEntity
8
0
100
AcDbCircle
10
103.69250424509556
20
1130.448023323499
30
0
40
1.9999999999999574
210
6.84227765783603e-49
220
-6.1629758220391547e-33
230
1
0
CIRCLE
5
124
100
AcDbEntity
8
0
100
AcDbCircle
10
-105.02572562677416
20
1608.7060736539138
30
0
40
2.0000000000000462
210
6.84227765783603e-49
220
-6.1629758220391547e-33
230
1
0
CIRCLE
5
125
100
AcDbEntity
8
0
100
AcDbCircle
10
-76.515809918426143
20
1614.3770484812558
30
0
40
2.0000000000000462
210
6.84227765783603e-49
220
-6.1629758220391547e-33
230
1
0
CIRCLE
5
126
100
AcDbEntity
8
0
100
AcDbCircle
10
-360.19764882601947
20
1353.5341504546684
30
0
40
1.9999999999999574
210
6.84227765783603e-49
220
-6.1629758220391547e-33
230
1
0
CIRCLE
5
127
100
AcDbEntity
8
0
100
AcDbCircle
10
-365.86862365336145
20
1325.0242347463204
30
0
40
1.9999999999998863
210
6.84227765783603e-49
220
-6.1629758220391547e-33
230
1
0
CIRCLE
5
128
100
AcDbEntity
8
0
100
AcDbCircle
10
-365.86862365336145
20
1288.5874381819169
30
0
40
1.9999999999998863
210
6.84227765783603e-49
220
-6.1629758220391547e-33
230
1
0
CIRCLE
5
129
100
AcDbEntity
8
0
100
AcDbCircle
10
-365.86862365336145
20
1252.1506416175134
30
0
40
1.9999999999999574
210
6.84227765783603e-49
220
-6.1629758220391547e-33
230
1
0
CIRCLE
5
130
100
AcDbEntity
8
0
100
AcDbCircle
10
-344.04807885394149
20
1377.70368993945
30
0
40
2.0000000000000995
210
6.84227765783603e-49
220
-6.1629758220391547e-33
230
1
0
CIRCLE
5
131
100
AcDbEntity
8
0
100
AcDbCircle
10
-290.33487541834512
20
1431.4168933750464
30
0
40
2.0000000000000639
210
6.84227765783603e-49
220
-6.1629758220391547e-33
230
1
0
CIRCLE
5
132
100
AcDbEntity
8
0
100
AcDbCircle
10
-236.62167198274861
20
1485.1300968106425
30
0
40
1.9999999999999929
210
0
220
-0
230
1
0
CIRCLE
5
133
100
AcDbEntity
8
0
100
AcDbCircle
10
-182.90846854715215
20
1538.8433002462393
30
0
40
2.0000000000000639
210
6.84227765783603e-49
220
-6.1629758220391547e-33
230
1
0
CIRCLE
5
134
100
AcDbEntity
8
0
100
AcDbCircle
10
-129.1952651115557
20
1592.5565036818355
30
0
40
2.0000000000000995
210
6.84227765783603e-49
220
-6.1629758220391547e-33
230
1
0
CIRCLE
5
135
100
AcDbEntity
8
0
100
AcDbCircle
10
20.121993130963702
20
1614.3770484812558
30
0
40
1.9999999999999996
210
0
220
-0
230
1
0
LWPOLYLINE
5
136
100
AcDbEntity
8
0
100
AcDbPolyline
90
12
70
1
43
0.0
10
-381.36862366081198
20
1325.0242347463202
42
-0.19891236737965695
10
-355.00823396760143
20
1388.6638450531098
10
-140.15542022521558
20
1603.5166587954952
42
-0.19891236737965604
10
-76.515809918426143
20
1629.8770484887064
10
310.03540227913328
20
1629.8770484887064
42
-0.41421356237309492
10
380.03540227913334
20
1559.8770484887064
10
380.03540227913328
20
1414.1298622310921
42
-0.19891236737965684
10
353.67501258592267
20
1350.4902519243028
10
138.822198843537
20
1135.6374381819169
42
-0.19891236737965903
10
75.182588536747545
20
1109.2770484887062
10
-311.36862366081209
20
1109.2770484887064
42
-0.41421356237309476
10
-381.36862366081203
20
1179.2770484887064
0
ENDSEC
0
SECTION
2
OBJECTS
0
DICTIONARY
5
C
100
AcDbDictionary
3
ACAD_GROUP
350
D
3
ACAD_MLINESTYLE
350
17
0
DICTIONARY
5
D
100
AcDbDictionary
0
DICTIONARY
5
1A
330
C
100
AcDbDictionary
0
DICTIONARY
5
17
100
AcDbDictionary
0
ENDSEC
0
EOF
