0
SECTION
2
HEADER
9
$INSUNITS
70
1
9
$ACADVER
1
AC1014
9
$HANDSEED
5
FFFF
0
ENDSEC
0
SECTION
2
TABLES
0
TABLE
2
VPORT
5
8
100
AcDbSymbolTable
0
ENDTAB
0
TABLE
2
LTYPE
5
5
100
AcDbSymbolTable
0
LTYPE
5
14
100
AcDbSymbolTableRecord
100
AcDbLinetypeTableRecord
2
BYBLOCK
70
0
0
LTYPE
5
15
100
AcDbSymbolTableRecord
100
AcDbLinetypeTableRecord
2
BYLAYER
70
0
0
ENDTAB
0
TABLE
2
LAYER
5
2
100
AcDbSymbolTable
70
2
0
LAYER
5
50
100
AcDbSymbolTableRecord
100
AcDbLayerTableRecord
2
0
70
0
6
CONTINUOUS
0
ENDTAB
0
TABLE
2
STYLE
5
3
100
AcDbSymbolTable
70
1
0
STYLE
5
11
100
AcDbSymbolTableRecord
100
AcDbTextStyleTableRecord
2
STANDARD
70
0
0
ENDTAB
0
TABLE
2
VIEW
5
6
100
AcDbSymbolTable
70
0
0
ENDTAB
0
TABLE
2
UCS
5
7
100
AcDbSymbolTable
70
0
0
ENDTAB
0
TABLE
2
APPID
5
9
100
AcDbSymbolTable
70
2
0
APPID
5
12
100
AcDbSymbolTableRecord
100
AcDbRegAppTableRecord
2
ACAD
70
0
0
ENDTAB
0
TABLE
2
DIMSTYLE
5
A
100
AcDbSymbolTable
70
1
0
ENDTAB
0
TABLE
2
BLOCK_RECORD
5
1
100
AcDbSymbolTable
70
1
0
BLOCK_RECORD
5
1F
100
AcDbSymbolTableRecord
100
AcDbBlockTableRecord
2
*MODEL_SPACE
0
BLOCK_RECORD
5
1B
100
AcDbSymbolTableRecord
100
AcDbBlockTableRecord
2
*PAPER_SPACE
0
ENDTAB
0
ENDSEC
0
SECTION
2
BLOCKS
0
BLOCK
5
20
100
AcDbEntity
100
AcDbBlockBegin
2
*MODEL_SPACE
0
ENDBLK
5
21
100
AcDbEntity
100
AcDbBlockEnd
0
BLOCK
5
1C
100
AcDbEntity
100
AcDbBlockBegin
2
*PAPER_SPACE
0
ENDBLK
5
1D
100
AcDbEntity
100
AcDbBlockEnd
0
ENDSEC
0
SECTION
2
ENTITIES
0
LWPOLYLINE
5
100
100
AcDbEntity
8
OUTER_PROFILES
100
AcDbPolyline
90
104
70
1
43
0.0
10
-0.18740157480312125
20
25.479074744729484
10
-0.18740157480312125
20
25.067823803360071
42
0.99999999999999989
10
2.7974123455122052e-14
20
25.067823803360071
10
2.998476357845895e-14
20
27.541199105909914
42
-0.41421356237308848
10
0.25000000000002998
20
27.791199105909911
10
10.817480821550781
20
27.7911991059099
42
-0.41421356237309503
10
11.067480821550781
20
27.541199105909897
10
11.067480821550783
20
25.067823803360049
42
0.99999999999999989
10
11.254882396353931
20
25.067823803360049
10
11.254882396353935
20
25.479074744729459
42
0.1006411676348743
10
11.421034212144047
20
25.58907356237307
10
12.012024469813834
20
26.180063820042829
42
-0.19891236737965234
10
12.3655778604071
20
26.326510429449549
10
15.936963468409862
20
26.326510429449542
42
-0.1989123673796529
10
16.29051685900313
20
26.180063820042825
10
16.881507116672918
20
25.589073562373063
42
0.19891236737965182
10
17.235060507266184
20
25.442626952966346
10
28.302541328816929
20
25.442626952966346
42
0.19891236737966012
10
28.656094719410202
20
25.589073562373077
10
28.89353158648666
20
25.826510429449527
42
-0.19891236737965595
10
29.247084977079929
20
25.972957038856251
10
32.539978195893383
20
25.972957038856251
42
-0.41421356237309503
10
34.039978195893383
20
24.472957038856247
10
34.039978195893376
20
21.1800638200428
42
-0.19891236737965801
10
33.893531586486652
20
20.826510429449527
10
33.656094719410206
20
20.589073562373073
42
0.1006411676348847
10
33.546095901766577
20
20.422921746582947
10
33.134844960397174
20
20.422921746582947
42
0.99999999999999989
10
33.134844960397174
20
20.2355201717798
10
35.608220262947
20
20.2355201717798
42
-0.41421356237309503
10
35.858220262947
20
19.985520171779804
10
35.858220262946993
20
16.062303734152898
42
-0.41421356237309503
10
35.608220262946986
20
15.8123037341529
10
33.134844960397174
20
15.8123037341529
42
0.99999999999999989
10
33.134844960397174
20
15.624902159349752
10
33.546095901766577
20
15.624902159349752
42
0.10064116763488355
10
33.656094719410198
20
15.458750343559625
10
34.247084977079915
20
14.867760085889898
42
-0.19891236737966012
10
34.393531586486645
20
14.514206695296622
10
34.393531586486645
20
10.928420257669696
42
-0.19891236737965801
10
34.247084977079929
20
10.574866867076421
10
33.656094719410184
20
9.9838766094066802
42
0.19891236737965695
10
33.509648110003461
20
9.6303232188134071
10
33.509648110003461
20
5.2071067811864982
42
0.19891236737965606
10
33.656094719410184
20
4.853553390593234
10
33.893531586486631
20
4.6161165235167809
42
-0.19891236737965978
10
34.039978195893369
20
4.2625631329235061
10
34.039978195893362
20
0.96966991411006032
42
-0.41421356237309609
10
32.539978195893354
20
-0.53033008588994013
10
29.247084977079908
20
-0.53033008588993336
42
-0.19891236737965851
10
28.893531586486631
20
-0.38388347648320764
10
28.656094719410188
20
-0.14644660940675444
42
0.10064116763487917
10
28.489942903620065
20
-0.036447791763138948
10
28.489942903620065
20
0.37480314960628169
42
0.99999999999999989
10
28.302541328816918
20
0.37480314960628169
10
28.302541328816922
20
-2.0985721529434551
42
-0.41421356237308771
10
28.052541328816925
20
-2.3485721529434547
10
17.485060507266144
20
-2.3485721529435022
42
-0.41421356237309837
10
17.235060507266144
20
-2.0985721529435022
10
17.235060507266152
20
0.37480314960629285
42
0.99999999999999989
10
17.047658932463001
20
0.37480314960629285
10
17.047658932463001
20
-0.036447791763115515
42
0.10064116763487946
10
16.881507116672886
20
-0.14644660940673379
10
16.290516859003102
20
-0.73743686707647893
42
-0.19891236737965093
10
15.936963468409838
20
-0.88388347648319898
10
12.365577860407068
20
-0.88388347648319221
42
-0.19891236737965465
10
12.012024469813799
20
-0.73743686707646949
10
11.421034212144027
20
-0.14644660940673393
42
0.19891236737965165
10
11.067480821550763
20
-1.5210929628722617e-14
10
5.9007916663148068e-16
20
-3.9338611108765382e-15
42
0.19891236737965726
10
-0.3535533905932729
20
-0.1464466094067283
10
-0.59099025766972357
20
-0.38388347648317672
42
-0.19891236737965778
10
-0.94454364826299719
20
-0.5303300858899066
10
-4.2374368670764451
20
-0.53033008588990305
42
-0.41421356237309503
10
-5.7374368670764442
20
0.9696699141100984
10
-5.7374368670764406
20
4.2625631329235549
42
-0.19891236737965518
10
-5.5909902576697137
20
4.61611652351682
10
-5.3535533905932633
20
4.8535533905932722
42
0.10064116763488298
10
-5.243554572949642
20
5.0197052063833985
10
-4.8323036315802357
20
5.0197052063833976
42
0.99999999999999989
10
-4.8323036315802357
20
5.207106781186547
10
-7.3056789341300572
20
5.2071067811865461
42
-0.41421356237309503
10
-7.5556789341300581
20
5.4571067811865461
10
-7.5556789341300492
20
9.3803232188134515
42
-0.41421356237309503
10
-7.3056789341300492
20
9.6303232188134515
10
-4.8323036315802304
20
9.6303232188134444
42
0.99999999999999989
10
-4.8323036315802304
20
9.8177247936165948
10
-5.2435545729496367
20
9.8177247936165948
42
0.10064116763488112
10
-5.3535533905932544
20
9.9838766094067193
10
-5.9445436482629868
20
10.574866867076464
42
-0.19891236737965648
10
-6.0909902576697093
20
10.928420257669735
10
-6.090990257669711
20
14.51420669529665
42
-0.19891236737965926
10
-5.9445436482629832
20
14.867760085889927
10
-5.3535533905932526
20
15.458750343559668
42
0.19891236737965751
10
-5.2071067811865275
20
15.812303734152939
10
-5.2071067811865213
20
20.235520171779839
42
0.19891236737965903
10
-5.3535533905932482
20
20.589073562373112
10
-5.5909902576696986
20
20.826510429449566
42
-0.19891236737965751
10
-5.7374368670764255
20
21.180063820042839
10
-5.737436867076422
20
24.472957038856286
42
-0.41421356237309503
10
-4.237436867076422
20
25.97295703885629
10
-0.94454364826297621
20
25.972957038856283
42
-0.19891236737965959
10
-0.59099025766970137
20
25.826510429449556
10
-0.35355339059324903
20
25.589073562373102
42
0.10064116763488398
0
LWPOLYLINE
5
101
100
AcDbEntity
8
INTERIOR_PROFILES
100
AcDbPolyline
90
32
70
1
43
0.0
10
14.989755770411289
20
13.378314853029163
10
13.312787465789588
20
13.378314853029169
42
-0.41421356237309503
10
13.281291402797462
20
13.409810916021293
10
13.281291402797466
20
13.926805600239005
42
0.41421356237288692
10
13.249795339805335
20
13.958301663231136
10
12.898155078845621
20
13.958301663231113
42
0.41421356237309503
10
12.701304685144855
20
13.761451269530349
10
12.701304685144844
20
11.669850485415319
42
0.41421356237288692
10
12.73280074813697
20
11.638354422423216
10
14.989755770411275
20
11.638354422423204
42
-0.41421356237309503
10
15.021251833403403
20
11.606858359431076
10
15.021251833403406
20
11.089863675213364
42
-0.41421356237319906
10
14.989755770411275
20
11.058367612221222
10
12.732800748136953
20
11.058367612221213
42
0.41421356237309503
10
12.701304685144834
20
11.026871549229094
10
12.701304685144828
20
10.675231195720027
42
0.41421356237309503
10
12.898155078845615
20
10.47838080201924
10
15.40438824990461
20
10.478380802019249
42
0.41421356237309293
10
15.601238643605383
20
10.675231195720025
10
15.601238643605384
20
12.186845169633038
42
0.41421356237309503
10
15.56974258061326
20
12.218341232625164
10
13.312787465789597
20
12.218341232625178
42
-0.41421356237309503
10
13.281291402797471
20
12.249837295617303
10
13.281291402797466
20
12.766831979835013
42
-0.41421356237319906
10
13.312787465789597
20
12.798328042827155
10
15.569742580613271
20
12.798328042827141
42
0.41421356237309503
10
15.601238643605413
20
12.829824105819284
10
15.601238643605399
20
13.761451269530346
42
0.4142135623730992
10
15.40438824990461
20
13.958301663231133
10
15.052747896395539
20
13.958301663231147
42
0.41421356237309503
10
15.02125183340341
20
13.926805600239016
10
15.02125183340342
20
13.409810916021272
42
-0.41421356237288692
0
LINE
5
102
100
AcDbEntity
8
BEND
100
AcDbLine
10
17.235060507266148
20
-1.0114291147076644
30
-1.2277164858368511e-14
11
28.302541328816918
21
-1.0114291147077021
31
-2.4450476299977939e-14
0
LINE
5
103
100
AcDbEntity
8
BEND
100
AcDbLine
10
34.521077224711114
20
15.8123037341529
30
-4.8664974080205872e-15
11
34.521077224711114
21
20.235520171779804
31
-6.4542806777240372e-15
0
LINE
5
104
100
AcDbEntity
8
BEND
100
AcDbLine
10
11.067480821550779
20
26.454056067674021
30
-4.7651515589103132e-14
11
2.5176711109609849e-14
21
26.454056067674021
31
-6.4192371466086069e-14
0
LINE
5
105
100
AcDbEntity
8
BEND
100
AcDbLine
10
-6.2185358958941803
20
9.6303232188134462
30
8.0956712668517254e-15
11
-6.2185358958941856
21
5.2071067811865479
31
6.5033244112902634e-15
0
LINE
5
106
100
AcDbEntity
8
BEND
100
AcDbLine
10
28.302541328816918
20
0.16285696176406875
30
-1.171416419683236e-14
11
17.235060507266148
21
0.16285696176409531
31
1.0665134567265021e-14
0
LINE
5
107
100
AcDbEntity
8
BEND
100
AcDbLine
10
33.346791148239348
20
20.235520171779783
30
-5.2451481478353848e-16
11
33.34679114823934
21
15.812303734152879
31
-5.2451481478353848e-16
0
LINE
5
108
100
AcDbEntity
8
BEND
100
AcDbLine
10
3.3568948146146463e-14
20
25.279769991202244
30
-2.9950769790138084e-16
11
11.067480821550783
21
25.279769991202226
31
-5.894332388925592e-15
0
LINE
5
109
100
AcDbEntity
8
BEND
100
AcDbLine
10
-5.0442498194224177
20
5.2071067811865701
30
-5.2451481478353848e-16
11
-5.0442498194224124
21
9.6303232188134675
31
-5.2451481478353848e-16
0
LINE
5
110
100
AcDbEntity
8
BEND_EXTENT
100
AcDbLine
10
2.7974123455122052e-14
20
26.666002255516197
30
-6.9935308637805126e-14
11
11.067480821550781
21
26.666002255516197
31
-6.9935308637805126e-14
0
LINE
5
111
100
AcDbEntity
8
BEND_EXTENT
100
AcDbLine
10
11.067480821550786
20
26.24210987983183
30
-3.916377283717087e-14
11
2.5176711109609849e-14
21
26.24210987983183
31
-4.4758597528195284e-14
0
LINE
5
112
100
AcDbEntity
8
BEND_EXTENT
100
AcDbLine
10
28.302541328816911
20
-1.2233753025498733
30
-3.3568948146146463e-14
11
17.235060507266144
21
-1.2233753025498284
31
-1.1189649382048821e-14
0
LINE
5
113
100
AcDbEntity
8
BEND_EXTENT
100
AcDbLine
10
17.235060507266148
20
-0.7994829268654613
30
0
11
28.302541328816911
21
-0.79948292686549771
31
-1.1189649382048821e-14
0
LINE
5
114
100
AcDbEntity
8
BEND_EXTENT
100
AcDbLine
10
-6.4304820837363597
20
5.2071067811865488
30
8.3922370365366157e-15
11
-6.4304820837363543
21
9.6303232188134462
31
1.1189649382048821e-14
0
LINE
5
115
100
AcDbEntity
8
BEND_EXTENT
100
AcDbLine
10
-6.006589708051993
20
9.6303232188134462
30
8.3922370365366157e-15
11
-6.0065897080519983
21
5.2071067811865479
31
8.3922370365366157e-15
0
LINE
5
116
100
AcDbEntity
8
BEND_EXTENT
100
AcDbLine
10
34.733023412553301
20
20.235520171779804
30
-1.1189649382048821e-14
11
34.733023412553294
21
15.8123037341529
31
-8.3922370365366157e-15
0
LINE
5
117
100
AcDbEntity
8
BEND_EXTENT
100
AcDbLine
10
34.309131036868926
20
15.8123037341529
30
0
11
34.309131036868926
21
20.2355201717798
31
0
0
LINE
5
118
100
AcDbEntity
8
BEND_EXTENT
100
AcDbLine
10
3.3568948146146463e-14
20
25.491716179044445
30
-5.5948246910244104e-15
11
11.067480821550783
21
25.491716179044417
31
-5.5948246910244104e-15
0
LINE
5
119
100
AcDbEntity
8
BEND_EXTENT
100
AcDbLine
10
33.558737336081528
20
20.235520171779783
30
-2.7974123455122052e-15
11
33.558737336081528
21
15.812303734152879
31
-2.7974123455122052e-15
0
LINE
5
120
100
AcDbEntity
8
BEND_EXTENT
100
AcDbLine
10
28.302541328816918
20
-0.049089226078074255
30
-2.2379298764097642e-14
11
17.235060507266152
21
-0.049089226078060266
31
1.1189649382048821e-14
0
LINE
5
121
100
AcDbEntity
8
BEND_EXTENT
100
AcDbLine
10
-5.256196007264597
20
5.2071067811865701
30
-2.7974123455122052e-15
11
-5.2561960072645917
21
9.6303232188134693
31
-2.7974123455122052e-15
0
LINE
5
122
100
AcDbEntity
8
BEND_EXTENT
100
AcDbLine
10
-4.8323036315802304
20
9.6303232188134444
30
0
11
-4.8323036315802357
21
5.207106781186547
31
0
0
LINE
5
123
100
AcDbEntity
8
BEND_EXTENT
100
AcDbLine
10
33.134844960397174
20
15.8123037341529
30
0
11
33.134844960397174
21
20.2355201717798
31
0
0
LINE
5
124
100
AcDbEntity
8
BEND_EXTENT
100
AcDbLine
10
17.235060507266152
20
0.37480314960629285
30
0
11
28.302541328816918
21
0.37480314960628169
31
0
0
LINE
5
125
100
AcDbEntity
8
BEND_EXTENT
100
AcDbLine
10
11.067480821550783
20
25.067823803360049
30
0
11
2.7974123455122052e-14
21
25.067823803360071
31
0
0
ENDSEC
0
SECTION
2
OBJECTS
0
DICTIONARY
5
C
100
AcDbDictionary
3
ACAD_GROUP
350
D
3
ACAD_MLINESTYLE
350
17
0
DICTIONARY
5
D
100
AcDbDictionary
0
DICTIONARY
5
1A
330
C
100
AcDbDictionary
0
DICTIONARY
5
17
100
AcDbDictionary
0
ENDSEC
0
EOF
