0
SECTION
2
HEADER
9
$INSUNITS
70
4
9
$ACADVER
1
AC1014
9
$HANDSEED
5
FFFF
0
ENDSEC
0
SECTION
2
TABLES
0
TABLE
2
VPORT
5
8
100
AcDbSymbolTable
0
ENDTAB
0
TABLE
2
LTYPE
5
5
100
AcDbSymbolTable
0
LTYPE
5
14
100
AcDbSymbolTableRecord
100
AcDbLinetypeTableRecord
2
BYBLOCK
70
0
0
LTYPE
5
15
100
AcDbSymbolTableRecord
100
AcDbLinetypeTableRecord
2
BYLAYER
70
0
0
ENDTAB
0
TABLE
2
LAYER
5
2
100
AcDbSymbolTable
70
2
0
LAYER
5
50
100
AcDbSymbolTableRecord
100
AcDbLayerTableRecord
2
0
70
0
6
CONTINUOUS
0
ENDTAB
0
TABLE
2
STYLE
5
3
100
AcDbSymbolTable
70
1
0
STYLE
5
11
100
AcDbSymbolTableRecord
100
AcDbTextStyleTableRecord
2
STANDARD
70
0
0
ENDTAB
0
TABLE
2
VIEW
5
6
100
AcDbSymbolTable
70
0
0
ENDTAB
0
TABLE
2
UCS
5
7
100
AcDbSymbolTable
70
0
0
ENDTAB
0
TABLE
2
APPID
5
9
100
AcDbSymbolTable
70
2
0
APPID
5
12
100
AcDbSymbolTableRecord
100
AcDbRegAppTableRecord
2
ACAD
70
0
0
ENDTAB
0
TABLE
2
DIMSTYLE
5
A
100
AcDbSymbolTable
70
1
0
ENDTAB
0
TABLE
2
BLOCK_RECORD
5
1
100
AcDbSymbolTable
70
1
0
BLOCK_RECORD
5
1F
100
AcDbSymbolTableRecord
100
AcDbBlockTableRecord
2
*MODEL_SPACE
0
BLOCK_RECORD
5
1B
100
AcDbSymbolTableRecord
100
AcDbBlockTableRecord
2
*PAPER_SPACE
0
ENDTAB
0
ENDSEC
0
SECTION
2
BLOCKS
0
BLOCK
5
20
100
AcDbEntity
100
AcDbBlockBegin
2
*MODEL_SPACE
0
ENDBLK
5
21
100
AcDbEntity
100
AcDbBlockEnd
0
BLOCK
5
1C
100
AcDbEntity
100
AcDbBlockBegin
2
*PAPER_SPACE
0
ENDBLK
5
1D
100
AcDbEntity
100
AcDbBlockEnd
0
ENDSEC
0
SECTION
2
ENTITIES
0
LWPOLYLINE
5
100
100
AcDbEntity
8
0
100
AcDbPolyline
90
12
70
1
43
0.0
10
-230.07622884467381
20
-277.4797818672626
42
-0.41421356237309503
10
-234.02117035720224
20
-273.53484035473417
10
-234.02117035720283
20
-222.05306361159745
42
-0.41421356237309503
10
-230.07622884467384
20
-218.10812209906845
10
-214.4385423333438
20
-218.10812209906842
10
-214.4385423333438
20
-198.29010445952363
10
-238.05942194663331
20
-198.29010445952377
42
0.41421356237309437
10
-253.83918799674748
20
-214.06987050963792
10
-253.83918799674703
20
-281.51803345669424
42
0.41421356237309309
10
-238.05942194663331
20
-297.29779950680796
10
-214.43854233334378
20
-297.29779950680791
10
-214.43854233334378
20
-277.47978186726255
0
LWPOLYLINE
5
101
100
AcDbEntity
8
0
100
AcDbPolyline
90
12
70
1
43
0.0
10
-195.64490261199086
20
-218.10812209906899
42
-0.41421356237309503
10
-191.69996109946243
20
-222.05306361159742
10
-191.6999610994624
20
-273.53484035473411
42
-0.41421356237310564
10
-195.64490261199097
20
-277.47978186726255
10
-211.28258912332086
20
-277.47978186726255
10
-211.28258912332086
20
-297.29779950680791
10
-187.66170951003133
20
-297.29779950680836
42
0.41421356237309503
10
-171.88194345991718
20
-281.51803345669418
10
-171.88194345991764
20
-214.06987050963792
42
0.4142135623731063
10
-187.66170951003136
20
-198.29010445952363
10
-211.28258912332089
20
-198.29010445952363
10
-211.28258912332089
20
-218.10812209906842
0
LWPOLYLINE
5
102
100
AcDbEntity
8
0
100
AcDbPolyline
90
13
70
1
43
0.0
10
-289.88369026124582
20
-292.89920007727983
42
-0.24620758484913274
10
-279.6764141940053
20
-283.25859005065041
10
-268.15514093267313
20
-280.01977725724896
10
-268.15514093267313
20
-272.1298942321921
42
0.41421356237310031
10
-272.10008244520156
20
-268.18495271966367
10
-287.3068110466146
20
-268.18495271966373
10
-287.30681104661431
20
-202.23504597205149
42
0.41421356237311618
10
-291.25175255914246
20
-198.29010445952363
10
-303.01450948372747
20
-198.2901044595236
42
0.41421356237308976
10
-306.95945099625601
20
-202.23504597205209
10
-306.95945099625646
20
-293.35285799427953
42
0.41421356237308976
10
-303.01450948372747
20
-297.29779950680853
10
-291.39586848651732
20
-297.29779950680853
0
CIRCLE
5
103
100
AcDbEntity
8
0
100
AcDbCircle
10
-167.36260755405004
20
-34.874761568360782
30
0
40
1.9999999999999574
210
-2.5407181807811912e-33
220
2.4651903288156619e-32
230
1
0
CIRCLE
5
104
100
AcDbEntity
8
0
100
AcDbCircle
10
-439.75486172848292
20
-333.7721399182725
30
0
40
2.0000000000000995
210
-2.5407181807811858e-33
220
-5.6415276467740251e-49
230
1
0
CIRCLE
5
105
100
AcDbEntity
8
0
100
AcDbCircle
10
-46.033947568376483
20
-453.88810618815921
30
0
40
2.0000000000000284
210
-2.5407181807811858e-33
220
-5.6415276467740251e-49
230
1
0
CIRCLE
5
106
100
AcDbEntity
8
0
100
AcDbCircle
10
-441.95488452724163
20
-192.50435232607424
30
5.5511151231257827e-16
40
2.0000000000000284
210
-2.5407181807811858e-33
220
-5.6415276467740251e-49
230
1
0
CIRCLE
5
107
100
AcDbEntity
8
0
100
AcDbCircle
10
-39.462482602677326
20
-162.77488651973343
30
0
40
1.9999999999998863
210
-2.5407181807811858e-33
220
-5.6415276467740251e-49
230
1
0
CIRCLE
5
108
100
AcDbEntity
8
0
100
AcDbCircle
10
-295.30177016671962
20
-32.56716959644038
30
0
40
2.0000000000000284
210
-2.5407181807811858e-33
220
-5.6415276467740251e-49
230
1
0
CIRCLE
5
109
100
AcDbEntity
8
0
100
AcDbCircle
10
-312.91530510511222
20
-460.45957075806473
30
0
40
2.0000000000000639
210
-2.5407181807811858e-33
220
-5.6415276467740251e-49
230
1
0
CIRCLE
5
110
100
AcDbEntity
8
0
100
AcDbCircle
10
-184.39207199264982
20
-462.7671627299851
30
0
40
1.9999999999999929
210
-2.5407181807811858e-33
220
-5.6415276467740251e-49
230
1
0
CIRCLE
5
111
100
AcDbEntity
8
0
100
AcDbCircle
10
-433.46422235536386
20
-41.057831768318167
30
0
40
2.0000000000000284
210
-2.5407181807811858e-33
220
-5.6415276467740251e-49
230
1
0
CIRCLE
5
112
100
AcDbEntity
8
0
100
AcDbCircle
10
-37.154890630757073
20
-303.41405078001242
30
0
40
1.9999999999998863
210
-2.5407181807811858e-33
220
-5.6415276467740251e-49
230
1
0
CIRCLE
5
113
100
AcDbEntity
8
0
100
AcDbCircle
10
-67.469890630757135
20
-490.76716272998522
30
0
40
2.0000000000000018
210
-2.5407181807811858e-33
220
-5.6415276467740251e-49
230
1
0
CIRCLE
5
114
100
AcDbEntity
8
0
100
AcDbCircle
10
-397.71200263499668
20
-418.52428083774009
30
5.5511151231257827e-16
40
1.9999999999999929
210
-2.5407181807811858e-33
220
-5.6415276467740251e-49
230
1
0
CIRCLE
5
115
100
AcDbEntity
8
0
100
AcDbCircle
10
-295.30177016671962
20
-4.5671695964404062
30
0
40
2.0000000000000284
210
-2.5407181807811858e-33
220
-5.6415276467740251e-49
230
1
0
CIRCLE
5
116
100
AcDbEntity
8
0
100
AcDbCircle
10
-237.13271298645873
20
-4.5671695964403929
30
0
40
1.9999999999999396
210
-2.5407181807811858e-33
220
-5.6415276467740251e-49
230
1
0
CIRCLE
5
117
100
AcDbEntity
8
0
100
AcDbCircle
10
-9.1548906307570768
20
-432.45216272998539
30
0
40
2.0000000000000462
210
-2.5407181807811912e-33
220
2.4651903288156619e-32
230
1
0
CIRCLE
5
118
100
AcDbEntity
8
0
100
AcDbCircle
10
-425.29340955356599
20
-390.94287391917072
30
0
40
1.9999999999998863
210
-2.5407181807811858e-33
220
-5.6415276467740251e-49
230
1
0
CIRCLE
5
119
100
AcDbEntity
8
0
100
AcDbCircle
10
-469.9548845272418
20
-127.69326096125735
30
0
40
2.0000000000000284
210
-2.5407181807811858e-33
220
-5.6415276467740251e-49
230
1
0
CIRCLE
5
120
100
AcDbEntity
8
0
100
AcDbCircle
10
-370.30737241172403
20
-446.28246445160596
30
5.5511151231257827e-16
40
1.9999999999999929
210
-2.5407181807811858e-33
220
-5.6415276467740251e-49
230
1
0
CIRCLE
5
121
100
AcDbEntity
8
0
100
AcDbCircle
10
-9.1548906307570359
20
-303.41404875093315
30
0
40
2.0000000000000995
210
-2.5407181807811858e-33
220
-5.6415276467740251e-49
230
1
0
CIRCLE
5
122
100
AcDbEntity
8
0
100
AcDbCircle
10
-13.593855692361277
20
-152.0597504135111
30
0
40
1.9999999999999574
210
-2.5407181807811912e-33
220
2.4651903288156619e-32
230
1
0
CIRCLE
5
123
100
AcDbEntity
8
0
100
AcDbCircle
10
-9.1548906307570501
20
-238.89499176140714
30
0
40
1.9999999999998863
210
-2.5407181807811858e-33
220
-5.6415276467740251e-49
230
1
0
CIRCLE
5
124
100
AcDbEntity
8
0
100
AcDbCircle
10
-465.51591946563747
20
-344.442719414078
30
0
40
1.9999999999999574
210
-2.5407181807811912e-33
220
2.4651903288156619e-32
230
1
0
CIRCLE
5
125
100
AcDbEntity
8
0
100
AcDbCircle
10
-469.95488452724146
20
-192.50435232607424
30
5.5511151231257827e-16
40
1.9999999999998863
210
-2.5407181807811858e-33
220
-5.6415276467740251e-49
230
1
0
CIRCLE
5
126
100
AcDbEntity
8
0
100
AcDbCircle
10
-469.95488452724146
20
-257.31544369089102
30
0
40
2.0000000000000995
210
-2.5407181807811858e-33
220
-5.6415276467740251e-49
230
1
0
CIRCLE
5
127
100
AcDbEntity
8
0
100
AcDbCircle
10
-125.93098218630897
20
-490.76716272998522
30
0
40
2.0000000000000773
210
-2.5407181807811967e-33
220
2.4651903288156619e-32
230
1
0
CIRCLE
5
128
100
AcDbEntity
8
0
100
AcDbCircle
10
-26.234958685863564
20
-473.68709467487906
30
0
40
2.0000000000000551
210
-2.5407181807811858e-33
220
-5.6415276467740251e-49
230
1
0
CIRCLE
5
129
100
AcDbEntity
8
0
100
AcDbCircle
10
-353.47082734698057
20
-4.5671695964402765
30
0
40
2.0000000000000284
210
-2.5407181807811858e-33
220
-5.6415276467740251e-49
230
1
0
CIRCLE
5
130
100
AcDbEntity
8
0
100
AcDbCircle
10
-156.64747144782757
20
-9.0061346580447239
30
0
40
1.9999999999999662
210
-2.5407181807811858e-33
220
-5.6415276467740251e-49
230
1
0
CIRCLE
5
131
100
AcDbEntity
8
0
100
AcDbCircle
10
-9.1548906307570181
20
-367.9331057404591
30
0
40
2.0000000000000995
210
-2.5407181807811858e-33
220
-5.6415276467740251e-49
230
1
0
CIRCLE
5
132
100
AcDbEntity
8
0
100
AcDbCircle
10
-452.87481647213519
20
-21.647237651546867
30
0
40
2.0000000000000284
210
-2.5407181807811858e-33
220
-5.6415276467740251e-49
230
1
0
CIRCLE
5
133
100
AcDbEntity
8
0
100
AcDbCircle
10
-411.63988452724163
20
-4.5671695964402899
30
0
40
2.0000000000000284
210
-2.5407181807811858e-33
220
-5.6415276467740251e-49
230
1
0
CIRCLE
5
134
100
AcDbEntity
8
0
100
AcDbCircle
10
-469.9548845272418
20
-62.882169596440427
30
0
40
2.0000000000000284
210
-2.5407181807811858e-33
220
-5.6415276467740251e-49
230
1
0
CIRCLE
5
135
100
AcDbEntity
8
0
100
AcDbCircle
10
-109.85528256744401
20
-49.520678945407212
30
0
40
1.9999999999999596
210
-2.5407181807811912e-33
220
-5.6415276467740381e-49
230
1
0
CIRCLE
5
136
100
AcDbEntity
8
0
100
AcDbCircle
10
-81.981841273583797
20
-77.394120239267338
30
0
40
1.9999999999999729
210
-2.5407181807811858e-33
220
-5.6415276467740251e-49
230
1
0
CIRCLE
5
137
100
AcDbEntity
8
0
100
AcDbCircle
10
-54.108399979723565
20
-105.26756153312762
30
0
40
2.0000000000000018
210
-2.5407181807811858e-33
220
-5.6415276467740251e-49
230
1
0
CIRCLE
5
138
100
AcDbEntity
8
0
100
AcDbCircle
10
-242.85316529741263
20
-490.76716272998522
30
5.5511151231257827e-16
40
2.0000000000000284
210
-2.5407181807811858e-33
220
-5.6415276467740251e-49
230
1
0
CIRCLE
5
139
100
AcDbEntity
8
0
100
AcDbCircle
10
-184.3920737418608
20
-490.76716272998522
30
5.5511151231257827e-16
40
1.9999999999999929
210
-2.5407181807811858e-33
220
-5.6415276467740251e-49
230
1
0
CIRCLE
5
140
100
AcDbEntity
8
0
100
AcDbCircle
10
-323.72730219112731
20
-486.42886531735951
30
0
40
2.0000000000000284
210
-2.5407181807811858e-33
220
-5.6415276467740251e-49
230
1
0
LWPOLYLINE
5
141
100
AcDbEntity
8
0
100
AcDbPolyline
90
282
70
1
43
0.0
10
-476.93100800682913
20
-341.04758164264916
10
-482.48379546594663
20
-342.85802096262807
42
-0.071292242755924995
10
-485.45488452724157
20
-322.12653505570808
10
-485.45488452724157
20
-308.41925903062725
10
-479.58011052901441
20
-308.41925903062725
42
0.41421356237312623
10
-478.58011052901418
20
-307.41925903062702
10
-478.58011052901429
20
-304.9192590306273
42
0.41421356237312623
10
-479.58011052901441
20
-303.91925903062736
10
-485.45488452724157
20
-303.91925903062707
10
-485.45488452724157
20
-269.19744084880926
10
-479.58011052901441
20
-269.19744084880926
42
0.41421356237312623
10
-478.58011052901418
20
-268.19744084880904
10
-478.58011052901429
20
-265.69744084880932
42
0.41421356237312623
10
-479.58011052901441
20
-264.69744084880938
10
-485.45488452724157
20
-264.69744084880909
10
-485.45488452724157
20
-229.97562266699072
10
-479.58011052901441
20
-229.975622666991
42
0.41421356237312623
10
-478.58011052901418
20
-228.97562266699077
10
-478.58011052901429
20
-226.47562266699106
42
0.41421356237312623
10
-479.58011052901441
20
-225.47562266699111
10
-485.45488452724157
20
-225.47562266699083
10
-485.45488452724157
20
-190.75380448517274
10
-479.58011052901441
20
-190.75380448517274
42
0.41421356237312623
10
-478.58011052901418
20
-189.75380448517251
10
-478.58011052901429
20
-187.25380448517279
42
0.41421356237312623
10
-479.58011052901441
20
-186.25380448517288
10
-485.45488452724157
20
-186.25380448517251
10
-485.45488452724163
20
-151.53198630335427
10
-479.58011052901446
20
-151.53198630335436
42
0.41421356237306384
10
-478.58011052901452
20
-150.53198630335442
10
-478.58011052901441
20
-148.03198630335442
42
0.41421356237310025
10
-479.58011052901446
20
-147.03198630335433
10
-485.45488452724163
20
-147.03198630335424
10
-485.45488452724163
20
-112.31016812153629
10
-479.58011052901446
20
-112.31016812153638
42
0.41421356237306384
10
-478.58011052901452
20
-111.31016812153644
10
-478.58011052901441
20
-108.81016812153644
42
0.41421356237310025
10
-479.58011052901446
20
-107.81016812153635
10
-485.45488452724163
20
-107.81016812153626
10
-485.45488452724163
20
-73.088349939718043
10
-479.58011052901446
20
-73.088349939718114
42
0.41421356237308721
10
-478.58011052901452
20
-72.088349939718171
10
-478.58011052901441
20
-69.588349939718171
42
0.41421356237310025
10
-479.58011052901446
20
-68.588349939718086
10
-485.45488452724163
20
-68.588349939718015
10
-485.45488452723657
20
-62.882169596440392
42
-0.098587862211494695
10
-479.82525305994136
20
-34.608334641487602
10
-474.50091070721237
20
-37.008859085935583
42
0.41421356237306961
10
-473.17826694437321
20
-36.508245985205114
10
-472.15072861673769
20
-34.2291749057432
42
0.41421356237305901
10
-472.65134171746814
20
-32.906531142904178
10
-477.97568407019304
20
-30.506006698458059
42
-0.11814014597562988
10
-456.09765428186569
20
-3.957124552377528
10
-452.72376616052759
20
-8.7245156672488715
42
0.41421356237306739
10
-451.32982468735713
20
-8.9631098192630159
10
-449.28915515587647
20
-7.5189256678175926
42
0.41421356237308543
10
-449.05056100386224
20
-6.1249841946471033
10
-452.42444912519966
20
-1.3575930797774438
42
-0.11814014597563495
10
-420.11058706674015
20
10.445188350558725
10
-419.61752092042906
20
4.625564232729368
42
0.41421356237309859
10
-418.53666857386804
20
3.7135564449699139
10
-416.04559340596768
20
3.9246121434719794
42
0.41421356237307444
10
-415.13358561820843
20
5.0054644900329954
10
-415.62665176451952
20
10.825088607862462
42
-0.013509959869670872
10
-411.63988452724163
20
10.932830403559613
10
-380.90712300561188
20
10.932830403559475
10
-380.90712300561194
20
5.0580564053321995
42
0.41421356237310708
10
-379.90712300561194
20
4.0580564053321497
10
-377.40712300561188
20
4.0580564053321497
42
0.41421356237300627
10
-376.40712300561199
20
5.0580564053320938
10
-376.40712300561199
20
10.932830403559477
10
-341.68530482379373
20
10.932830403559484
10
-341.68530482379367
20
5.0580564053322075
42
0.41421356237306545
10
-340.68530482379379
20
4.0580564053321586
10
-338.18530482379373
20
4.0580564053321586
42
0.41421356237300627
10
-337.18530482379373
20
5.0580564053321027
10
-337.18530482379373
20
10.932830403559485
10
-302.46348664197546
20
10.932830403559564
10
-302.46348664197558
20
5.0580564053322519
42
0.41421356237309342
10
-301.46348664197552
20
4.0580564053321675
10
-298.96348664197546
20
4.0580564053321675
42
0.41421356237303225
10
-297.96348664197558
20
5.0580564053321115
10
-297.96348664197558
20
10.932830403559565
10
-263.24166846015737
20
10.932830403559572
10
-263.24166846015731
20
5.0580564053322608
42
0.41421356237305179
10
-262.24166846015743
20
4.0580564053321764
10
-259.74166846015737
20
4.0580564053321764
42
0.41421356237303225
10
-258.74166846015731
20
5.0580564053321204
10
-258.74166846015731
20
10.932830403559574
10
-224.01985027833922
20
10.932830403559581
10
-224.01985027833919
20
5.0580564053322519
42
0.4142135623730287
10
-223.01985027833928
20
4.0580564053321853
10
-220.51985027833922
20
4.0580564053321844
42
0.41421356237303258
10
-219.51985027833922
20
5.0580564053321293
10
-219.51985027833922
20
10.932830403559583
10
-188.44534470281792
20
10.93283040355959
10
-188.44534470281803
20
5.0580564053322599
42
0.41421356237307033
10
-187.44534470281798
20
4.0580564053321924
10
-184.94534470281792
20
4.0580564053321933
42
0.41421356237303225
10
-183.94534470281803
20
5.0580564053321373
10
-183.94534470281803
20
10.93283040355959
10
-178.96365580619778
20
10.932830403559601
42
-0.10106605656792246
10
-150.02195661808935
20
5.0224125251294174
10
-152.47462281877716
20
-0.27811269464453647
42
0.41421356237315787
10
-151.98701532107685
20
-1.6056061704052045
10
-149.71813910425101
20
-2.6554636429803598
42
0.41421356237308266
10
-148.39064562849052
20
-2.1678561452799627
10
-145.93797942780282
20
3.1326690744941543
42
-0.080555906711203537
10
-126.76856875291271
20
-10.687082543155558
10
-118.99903356517534
20
-18.456617730892791
10
-123.15312609726028
20
-22.610710262977733
42
0.41421356237307388
10
-123.15312609726043
20
-24.0249238253509
10
-121.38535914429403
20
-25.792690778317279
42
0.41421356237306284
10
-119.97114558192088
20
-25.792690778317425
10
-115.81705304983586
20
-21.638598246232196
10
-91.265019958345789
20
-46.190631337722323
10
-95.419112490430734
20
-50.344723869807268
42
0.41421356237308771
10
-95.419112490430805
20
-51.758937432180431
10
-93.651345537464465
20
-53.5267043851468
42
0.41421356237305268
10
-92.237131975091401
20
-53.526704385146957
10
-88.083039443006314
20
-49.372611853061869
10
-63.531006351516396
20
-73.924644944551702
10
-67.685098883601341
20
-78.078737476636647
42
0.41421356237308032
10
-67.685098883601412
20
-79.49295103900981
10
-65.917331930635072
20
-81.260717991976193
42
0.41421356237305457
10
-64.503118368261937
20
-81.260717991976335
10
-60.349025836176921
20
-77.106625459891248
10
-35.796992744686989
20
-101.65865855138124
10
-39.951085276771934
20
-105.81275108346618
42
0.41421356237307572
10
-39.951085276772005
20
-107.22696464583935
10
-38.183318323805679
20
-108.99473159880573
42
0.41421356237307116
10
-36.76910476143253
20
-108.99473159880587
10
-32.615012229347514
20
-104.84063906672064
10
-15.274803577470834
20
-122.18084771859553
42
-0.034555203445940083
10
-8.5835531406132404
20
-129.86690779985139
10
-13.34800663778285
20
-133.24494302328603
42
0.41421356237305618
10
-13.585387751346083
20
-134.63909158313299
10
-12.13942844349118
20
-136.67850367489578
42
0.41421356237306195
10
-10.745279883644123
20
-136.91588478845915
10
-5.9808263864727458
20
-133.53784956502307
42
-0.1181401459755915
10
5.8500687131972464
20
-165.84142911537825
10
0.030875843627285321
20
-166.33955906248545
42
0.41421356237307749
10
-0.88019108747377561
20
-167.42120458993625
10
-0.66696784203702464
20
-169.91209516312597
42
0.41421356237306584
10
0.41467768541363914
20
-170.823162094227
10
6.2338705549836329
20
-170.32503214711997
42
-0.013727539529470846
10
6.3451093692429081
20
-174.37593477188116
10
6.3451093692429854
20
-205.04446563629142
10
0.47033537101567369
20
-205.04446563629142
42
0.41421356237311319
10
-0.52966462898441147
20
-206.04446563629165
10
-0.52966462898437583
20
-208.54446563629139
42
0.41421356237304463
10
0.4703353710156033
20
-209.54446563629131
10
6.3451093692429863
20
-209.54446563629159
10
6.3451093692429232
20
-244.2662838181094
10
0.47033537101568257
20
-244.2662838181094
42
0.41421356237311319
10
-0.52966462898440259
20
-245.26628381810963
10
-0.52966462898436695
20
-247.76628381810937
42
0.41421356237304463
10
0.47033537101561218
20
-248.76628381810929
10
6.3451093692429241
20
-248.76628381810957
10
6.3451093692429321
20
-283.48810199992795
10
0.47033537101569145
20
-283.48810199992766
42
0.41421356237311319
10
-0.52966462898432265
20
-284.48810199992789
10
-0.52966462898435807
20
-286.98810199992761
42
0.41421356237304463
10
0.47033537101562106
20
-287.98810199992755
10
6.345109369242933
20
-287.98810199992784
10
6.345109369242941
20
-322.70992018174587
10
0.47033537101555822
20
-322.70992018174587
42
0.41421356237310275
10
-0.52966462898452693
20
-323.7099201817461
10
-0.52966462898449129
20
-326.20992018174582
42
0.41421356237312695
10
0.47033537101548784
20
-327.20992018174576
10
6.3451093692429419
20
-327.20992018174604
10
6.3451093692429499
20
-361.93173836356385
10
0.47033537101556711
20
-361.93173836356385
42
0.41421356237310275
10
-0.52966462898444699
20
-362.93173836356408
10
-0.52966462898448241
20
-365.4317383635638
42
0.41421356237312695
10
0.47033537101549672
20
-366.43173836356374
10
6.3451093692429508
20
-366.43173836356402
10
6.3451093692429588
20
-401.1535565453824
10
0.47033537101557599
20
-401.15355654538212
42
0.41421356237310275
10
-0.52966462898443811
20
-402.15355654538234
10
-0.52966462898447353
20
-404.65355654538206
42
0.41421356237312695
10
0.4703353710155056
20
-405.653556545382
10
6.3451093692429597
20
-405.65355654538229
10
6.3451093692426896
20
-432.45216272998562
42
-0.02683995652082077
10
5.9203208844581532
20
-440.35982222897536
10
0.1352272479292253
20
-439.55743160462168
42
0.4142135623731546
10
-0.99267504465668954
20
-440.41056489923625
10
-1.3361362921213904
20
-442.8868593832363
42
0.41421356237310691
10
-0.48300299750696607
20
-444.01476167582223
10
5.3020906390210731
20
-444.81715230017642
42
-0.11814014597561535
10
-8.2053640930212488
20
-476.45636842964552
10
-12.78625092974532
20
-472.83330137443033
42
0.41421356237314855
10
-14.190923493129649
20
-472.99729829414434
10
-15.741768047717724
20
-474.95813514801671
42
0.41421356237303381
10
-15.577771128003764
20
-476.36280771140082
10
-10.996884291279855
20
-479.98587476661601
42
-0.11814014597561694
10
-38.673560099194781
20
-500.41851891388728
10
-40.787036023571446
20
-494.97385559881093
42
0.41421356237299728
10
-42.081132865135622
20
-494.40349311349723
10
-44.411707023733371
20
-495.3081610588099
42
0.41421356237309759
10
-44.98206950904725
20
-496.60225790037418
10
-42.868593584670691
20
-502.04692121545054
42
-0.085150834744406795
10
-67.469890630757135
20
-506.26716272998533
10
-77.110226311061496
20
-506.26716272998533
10
-77.110226311061538
20
-500.39238873175816
42
0.41421356237299095
10
-78.110226311061524
20
-499.39238873175827
10
-80.610226311061496
20
-499.39238873175827
42
0.41421356237308982
10
-81.610226311061524
20
-500.39238873175816
10
-81.610226311061524
20
-506.26716272998533
10
-116.33204449287956
20
-506.26716272998533
10
-116.33204449287959
20
-500.39238873175816
42
0.41421356237299617
10
-117.3320444928795
20
-499.39238873175827
10
-119.83204449287955
20
-499.39238873175827
42
0.41421356237308982
10
-120.83204449287959
20
-500.39238873175816
10
-120.83204449287959
20
-506.26716272998533
10
-155.55386267469783
20
-506.26716272998544
10
-155.55386267469785
20
-500.39238873175827
42
0.41421356237310542
10
-156.55386267469777
20
-499.39238873175833
10
-159.05386267469783
20
-499.39238873175827
42
0.41421356237308982
10
-160.05386267469785
20
-500.39238873175816
10
-160.05386267469785
20
-506.26716272998533
10
-194.77568085651609
20
-506.2671627299851
10
-194.77568085651598
20
-500.39238873175753
42
0.41421356237306384
10
-195.77568085651603
20
-499.39238873175771
10
-198.27568085651592
20
-499.39238873175771
42
0.4142135623730846
10
-199.27568085651598
20
-500.39238873175759
10
-199.27568085651598
20
-506.2671627299851
10
-233.99749903833435
20
-506.2671627299851
10
-233.99749903833424
20
-500.39238873175753
42
0.41421356237306384
10
-234.9974990383343
20
-499.39238873175771
10
-237.49749903833418
20
-499.39238873175771
42
0.4142135623730846
10
-238.49749903833424
20
-500.39238873175759
10
-238.49749903833424
20
-506.2671627299851
10
-273.21931722015216
20
-506.2671627299851
10
-273.21931722015228
20
-500.39238873175753
42
0.41421356237299095
10
-274.21931722015211
20
-499.39238873175771
10
-276.71931722015222
20
-499.39238873175771
42
0.41421356237312623
10
-277.71931722015222
20
-500.39238873175759
10
-277.71931722015222
20
-506.2671627299851
10
-301.31425685296455
20
-506.26716272997902
42
-0.037701685960548341
10
-312.39870008865302
20
-505.43016861638068
10
-311.34606333186582
20
-499.68533659484046
42
0.41421356237315271
10
-312.14945618819547
20
-498.52148096874271
10
-314.60851679122914
20
-498.07090250653278
42
0.41421356237317231
10
-315.77237241732655
20
-498.87429536286231
10
-316.82500917411181
20
-504.61912738439361
42
-0.11814014597571014
10
-347.84837403229864
20
-489.75164059270173
10
-344.0299647701687
20
-485.33226396196164
42
0.41421356237309931
10
-344.13286178608269
20
-483.92179871810879
10
-346.02456461079072
20
-482.28733843318571
42
0.41421356237303847
10
-347.43502985464323
20
-482.39023544909981
10
-351.25343911677328
20
-486.80961207984018
42
-0.010584694290858796
10
-353.50934390624934
20
-484.64724978327001
10
-375.85133688532994
20
-462.30525680418987
10
-371.69724435324486
20
-458.15116427210467
42
0.41421356237306561
10
-371.69724435324486
20
-456.73695070973156
10
-373.46501130621118
20
-454.96918375676512
42
0.41421356237302148
10
-374.87922486858423
20
-454.96918375676552
10
-379.03331740066932
20
-459.12327628885032
10
-403.58535049215948
20
-434.57124319736033
10
-399.4312579600745
20
-430.41715066527524
42
0.41421356237312451
10
-399.4312579600745
20
-429.00293710290208
10
-401.19902491304089
20
-427.23517014993558
42
0.41421356237302148
10
-402.61323847541394
20
-427.23517014993598
10
-406.76733100749902
20
-431.38926268202079
10
-431.31936409898884
20
-406.8372295905308
10
-427.16527156690393
20
-402.68313705844599
42
0.41421356237315388
10
-427.16527156690393
20
-401.26892349607255
10
-428.93303851987037
20
-399.50115654310639
42
0.41421356237300672
10
-430.34725208224347
20
-399.50115654310673
10
-434.5013446143281
20
-403.65524907519153
10
-459.05337770581838
20
-379.10321598370115
10
-454.89928517373346
20
-374.9491234516164
42
0.41421356237315388
10
-454.89928517373346
20
-373.53490988924295
10
-456.6670521266999
20
-371.76714293627674
42
0.41421356237300672
10
-458.08126568907301
20
-371.76714293627708
10
-462.23535822115764
20
-375.92123546836194
10
-463.83497158052683
20
-374.32162210899276
42
-0.11037957487504452
10
-481.08887843779826
20
-347.13636252035622
10
-475.5360909786807
20
-345.32592320037702
42
0.4142135623729436
10
-474.89532997210745
20
-344.0651990701823
10
-475.67028387663424
20
-341.68834264922214
42
0.41421356237310147
0
ENDSEC
0
SECTION
2
OBJECTS
0
DICTIONARY
5
C
100
AcDbDictionary
3
ACAD_GROUP
350
D
3
ACAD_MLINESTYLE
350
17
0
DICTIONARY
5
D
100
AcDbDictionary
0
DICTIONARY
5
1A
330
C
100
AcDbDictionary
0
DICTIONARY
5
17
100
AcDbDictionary
0
ENDSEC
0
EOF
