0
SECTION
2
HEADER
9
$INSUNITS
70
4
9
$ACADVER
1
AC1014
9
$HANDSEED
5
FFFF
0
ENDSEC
0
SECTION
2
TABLES
0
TABLE
2
VPORT
5
8
100
AcDbSymbolTable
0
ENDTAB
0
TABLE
2
LTYPE
5
5
100
AcDbSymbolTable
0
LTYPE
5
14
100
AcDbSymbolTableRecord
100
AcDbLinetypeTableRecord
2
BYBLOCK
70
0
0
LTYPE
5
15
100
AcDbSymbolTableRecord
100
AcDbLinetypeTableRecord
2
BYLAYER
70
0
0
ENDTAB
0
TABLE
2
LAYER
5
2
100
AcDbSymbolTable
70
2
0
LAYER
5
50
100
AcDbSymbolTableRecord
100
AcDbLayerTableRecord
2
0
70
0
6
CONTINUOUS
0
ENDTAB
0
TABLE
2
STYLE
5
3
100
AcDbSymbolTable
70
1
0
STYLE
5
11
100
AcDbSymbolTableRecord
100
AcDbTextStyleTableRecord
2
STANDARD
70
0
0
ENDTAB
0
TABLE
2
VIEW
5
6
100
AcDbSymbolTable
70
0
0
ENDTAB
0
TABLE
2
UCS
5
7
100
AcDbSymbolTable
70
0
0
ENDTAB
0
TABLE
2
APPID
5
9
100
AcDbSymbolTable
70
2
0
APPID
5
12
100
AcDbSymbolTableRecord
100
AcDbRegAppTableRecord
2
ACAD
70
0
0
ENDTAB
0
TABLE
2
DIMSTYLE
5
A
100
AcDbSymbolTable
70
1
0
ENDTAB
0
TABLE
2
BLOCK_RECORD
5
1
100
AcDbSymbolTable
70
1
0
BLOCK_RECORD
5
1F
100
AcDbSymbolTableRecord
100
AcDbBlockTableRecord
2
*MODEL_SPACE
0
BLOCK_RECORD
5
1B
100
AcDbSymbolTableRecord
100
AcDbBlockTableRecord
2
*PAPER_SPACE
0
ENDTAB
0
ENDSEC
0
SECTION
2
BLOCKS
0
BLOCK
5
20
100
AcDbEntity
100
AcDbBlockBegin
2
*MODEL_SPACE
0
ENDBLK
5
21
100
AcDbEntity
100
AcDbBlockEnd
0
BLOCK
5
1C
100
AcDbEntity
100
AcDbBlockBegin
2
*PAPER_SPACE
0
ENDBLK
5
1D
100
AcDbEntity
100
AcDbBlockEnd
0
ENDSEC
0
SECTION
2
ENTITIES
0
LWPOLYLINE
5
100
100
AcDbEntity
8
0
100
AcDbPolyline
90
12
70
1
43
0.0
10
33.978461930439259
20
483.14098960194656
10
33.978461930439259
20
459.24310244807856
10
62.462093630670317
20
459.24310244807856
42
0.41421356237309837
10
81.490387743578125
20
478.27139656098581
10
81.490387743578125
20
559.60488894965374
42
0.41421356237310231
10
62.462093630670317
20
578.63318306256224
10
33.978461930439259
20
578.63318306256156
10
33.978461930439259
20
554.73529590869418
10
52.835427061483522
20
554.73529590869362
42
-0.41421356237309503
10
57.592500589710475
20
549.9782223804666
10
57.592500589710191
20
487.89806313017323
42
-0.41421356237309503
10
52.835427061483522
20
483.14098960194656
0
LWPOLYLINE
5
101
100
AcDbEntity
8
0
100
AcDbPolyline
90
13
70
1
43
0.0
10
-34.602253356661784
20
480.07809379141293
10
-34.602253356661784
20
489.59224084786655
42
0.41421356237309476
10
-39.359326884888738
20
494.3493143760935
10
-57.696614231475223
20
494.34931437609379
10
-57.696614231475223
20
573.87610953433523
42
0.41421356237311147
10
-62.453687759701324
20
578.6331830625611
10
-76.63800441108981
20
578.63318306256156
42
0.41421356237309231
10
-81.395077939316778
20
573.876109534335
10
-81.395077939316778
20
464.0001759763058
42
0.41421356237309503
10
-76.63800441108981
20
459.24310244807828
10
-62.627472354715906
20
459.24310244807828
10
-60.803987017213707
20
464.54722694296152
42
-0.24620758484913158
10
-48.495372904541625
20
476.17251735803876
0
LWPOLYLINE
5
102
100
AcDbEntity
8
0
100
AcDbPolyline
90
12
70
1
43
0.0
10
30.172803107857579
20
459.24310244807856
10
30.172803107857579
20
483.14098960194656
10
11.315837976813318
20
483.14098960194599
42
-0.41421356237309503
10
6.5587644485860803
20
487.89806313017323
10
6.5587644485857961
20
549.9782223804666
42
-0.41421356237309503
10
11.315837976813318
20
554.73529590869418
10
30.172803107857579
20
554.73529590869418
10
30.172803107857579
20
578.63318306256156
10
1.6891714076265245
20
578.6331830625611
42
0.41421356237309692
10
-17.339122705281291
20
559.60488894965374
10
-17.339122705281291
20
478.27139656098581
42
0.41421356237309453
10
1.6891714076265218
20
459.24310244807856
0
LWPOLYLINE
5
103
100
AcDbEntity
8
0
100
AcDbPolyline
90
12
70
1
43
0.0
10
76.551212197557277
20
319.91201540183653
10
-310.00000000000227
20
319.91201540183664
42
-0.41421356237309503
10
-319.00000000000222
20
328.91201540183658
10
-319.00000000000227
20
474.65920165945079
42
-0.19891236737965776
10
-310.50609665441215
20
495.16529831386066
10
-95.653282912026555
20
710.01811205624654
42
-0.19891236737965823
10
-75.147186257616625
20
718.51201540183661
10
311.40402593994315
20
718.51201540183649
42
-0.41421356237309387
10
320.40402593994304
20
709.51201540183661
10
320.40402593994315
20
563.76482914422263
42
-0.19891236737966009
10
311.91012259435303
20
543.25873248981247
10
97.057308851967505
20
328.40591874742699
42
-0.19891236737966192
0
LWPOLYLINE
5
104
100
AcDbEntity
8
0
100
AcDbPolyline
90
252
70
1
43
0.0
10
-211.65414947999622
20
258.91201540183658
10
-211.65414947999619
20
264.78822004716562
42
0.41421356237310542
10
-212.65414947999625
20
265.78822004716528
10
-215.15414947999625
20
265.78822004716551
42
0.41421356237312623
10
-216.15414947999622
20
264.78822004716562
10
-216.15414947999625
20
258.91201540183658
10
-266.07107255691938
20
258.91201540183658
10
-266.07107255691955
20
264.78822004716562
42
0.41421356237310542
10
-267.07107255691932
20
265.78822004716528
10
-269.57107255691932
20
265.78822004716551
42
0.41421356237312623
10
-270.57107255691926
20
264.78822004716562
10
-270.57107255691932
20
258.91201540183658
10
-310.00000000000239
20
258.91201540183681
42
-0.037473268716175491
10
-320.44841627528848
20
259.69618919613197
10
-319.39155257180306
20
265.4397980860773
42
0.41421356237306056
10
-320.19407267973327
20
266.60425567498606
10
-322.65279480078215
20
267.05667752620957
42
0.41421356237310908
10
-323.81725238969125
20
266.25415741827965
10
-324.87411609317638
20
260.51054852833465
42
-0.18018482450680848
10
-365.99631928550031
20
286.90710823045293
10
-361.21437024604359
20
290.25956514328266
42
0.41421356237308904
10
-360.96959564659221
20
291.6524346258484
10
-362.40471425048531
20
293.69948972837045
42
0.41421356237309848
10
-363.797583733051
20
293.94426432782183
10
-368.57953277250726
20
290.59180741499233
42
-0.14584404586628627
10
-380.00000000000222
20
328.91201540183658
10
-380.00000000000222
20
338.27811431387289
10
-374.12379535468261
20
338.27811431387289
42
0.41421356237309503
10
-373.12379535468261
20
339.27811431387283
10
-373.12379535468261
20
341.77811431387312
42
0.41421356237311585
10
-374.12379535468256
20
342.77811431387306
10
-380.00000000000222
20
342.77811431387306
10
-380.00000000000222
20
392.69503739079596
10
-374.12379535468261
20
392.69503739079596
42
0.41421356237321988
10
-373.12379535468261
20
393.69503739079619
10
-373.12379535468261
20
396.19503739079619
42
0.41421356237311585
10
-374.12379535468256
20
397.19503739079613
10
-380.00000000000222
20
397.19503739079613
10
-380.00000000000227
20
447.11196046771903
10
-374.12379535468233
20
447.11196046771903
42
0.41421356237309503
10
-373.12379535468233
20
448.11196046771897
10
-373.12379535468233
20
450.61196046771926
42
0.41421356237311585
10
-374.12379535468227
20
451.6119604677192
10
-380.00000000000227
20
451.6119604677192
10
-380.00000000000227
20
474.65920165945073
42
-0.07477625850386041
10
-376.01877446645835
20
501.13127070002548
10
-370.47414364707117
20
499.27195544985403
42
0.41421356237303586
10
-369.20809528863066
20
499.90213126190184
10
-368.41325460563985
20
502.27241147501246
42
0.41421356237304896
10
-369.04343041768743
20
503.53845983345281
10
-374.58806123707473
20
505.39777508362363
42
-0.10964715255870851
10
-353.6396103067915
20
538.29881196624001
10
-346.14373377273415
20
545.79468850029741
10
-341.98862962038709
20
541.63958434795018
42
0.41421356237312451
10
-340.57441605801409
20
541.6395843479504
10
-338.80664910504771
20
543.40735130091673
42
0.41421356237312451
10
-338.80664910504771
20
544.82156486328961
10
-342.96175325739461
20
548.97666901563696
10
-307.66515845373527
20
584.27326381929618
10
-303.51005430138804
20
580.11815966694928
42
0.41421356237309503
10
-302.09584073901499
20
580.1181596669494
10
-300.32807378604861
20
581.88592661991595
42
0.41421356237309503
10
-300.32807378604855
20
583.30014018228894
10
-304.48317793839573
20
587.45524433463572
10
-269.18658313473605
20
622.75183913829551
10
-265.03147898238899
20
618.59673498594839
42
0.41421356237315388
10
-263.61726542001583
20
618.59673498594839
10
-261.8494984670495
20
620.36450193891483
42
0.41421356237310974
10
-261.84949846704933
20
621.77871550128782
10
-266.00460261939651
20
625.93381965363506
10
-230.70800781573709
20
661.2304144572945
10
-226.55290366339005
20
657.07531030494749
42
0.41421356237315388
10
-225.13869010101689
20
657.07531030494749
10
-223.37092314805059
20
658.84307725791359
42
0.41421356237303619
10
-223.37092314805045
20
660.2572908202867
10
-227.52602730039757
20
664.41239497263405
10
-192.22943249673813
20
699.70898977629361
10
-188.07432834439101
20
695.5538856239466
42
0.41421356237315388
10
-186.66011478201784
20
695.5538856239466
10
-184.89234782905154
20
697.32165257691258
42
0.41421356237303619
10
-184.8923478290514
20
698.7358661392858
10
-189.04745198139858
20
702.89097029163315
10
-153.75085717773902
20
738.18756509529271
10
-149.59575302539196
20
734.03246094294559
42
0.41421356237314655
10
-148.18153946301882
20
734.03246094294559
10
-146.41377251005255
20
735.8002278959118
42
0.41421356237309137
10
-146.41377251005241
20
737.21444145828491
10
-150.56887666239953
20
741.36954561063226
10
-138.78679656440571
20
753.15162570862583
42
-0.092636719720327845
10
-111.50886861478347
20
771.8395809929342
10
-109.28061364325815
20
766.43265359331599
42
0.41421356237316409
10
-107.97502470236657
20
765.88911195054948
10
-105.6636114727936
20
766.84167107320559
42
0.41421356237308454
10
-105.12006983002681
20
768.1472600140969
10
-107.34832480155239
20
773.55418741371545
42
-0.091731154362522535
10
-75.147186257616582
20
779.51201540183661
10
-58.161552277092866
20
779.51201540183661
10
-58.161552277092916
20
773.63581075650904
42
0.41421356237312362
10
-57.161552277092859
20
772.63581075650904
10
-54.661552277092852
20
772.63581075650904
42
0.4142135623730378
10
-53.661552277092852
20
773.63581075650904
10
-53.661552277092852
20
779.51201540183661
10
-5.4744045753730308
20
779.51201540183661
10
-5.474404575373093
20
773.63581075650904
42
0.41421356237312462
10
-4.4744045753730344
20
772.63581075650904
10
-1.9744045753730253
20
772.63581075650904
42
0.4142135623730348
10
-0.97440457537302894
20
773.63581075650904
10
-0.97440457537302905
20
779.51201540183661
10
48.942518501550182
20
779.51201540183661
10
48.942518501550119
20
773.63581075650904
42
0.41421356237312362
10
49.942518501550175
20
772.63581075650904
10
52.442518501550182
20
772.63581075650904
42
0.4142135623730378
10
53.442518501550182
20
773.63581075650904
10
53.442518501550175
20
779.51201540183661
10
103.35944157847325
20
779.51201540183661
10
103.3594415784732
20
773.63581075650904
42
0.41421356237312101
10
104.35944157847325
20
772.63581075650904
10
106.85944157847325
20
772.63581075650904
42
0.41421356237303258
10
107.85944157847325
20
773.63581075650904
10
107.85944157847325
20
779.51201540183661
10
157.77636465539646
20
779.51201540183661
10
157.77636465539641
20
773.63581075650904
42
0.41421356237312623
10
158.77636465539643
20
772.63581075650904
10
161.27636465539649
20
772.63581075650904
42
0.4142135623730222
10
162.27636465539646
20
773.63581075650904
10
162.27636465539655
20
779.51201540183661
10
212.19328773231953
20
779.51201540183661
10
212.19328773231948
20
773.63581075650904
42
0.41421356237307422
10
213.19328773231956
20
772.63581075650904
10
215.69328773231956
20
772.63581075650904
42
0.4142135623730222
10
216.69328773231953
20
773.63581075650904
10
216.69328773231956
20
779.51201540183661
10
266.61021080924257
20
779.51201540183661
10
266.61021080924252
20
773.63581075650904
42
0.41421356237307422
10
267.61021080924263
20
772.63581075650904
10
270.11021080924263
20
772.63581075650904
42
0.4142135623730222
10
271.11021080924263
20
773.63581075650904
10
271.11021080924252
20
779.51201540183661
10
311.40402593994327
20
779.51201540183649
42
-0.034380394729541783
10
320.99646766191813
20
778.85165097782215
10
320.01064820204567
20
773.09542270221061
42
0.4142135623730851
10
320.82749418905132
20
771.94096931055151
10
323.29161841238198
20
771.51896005473486
42
0.41421356237302998
10
324.44607180404097
20
772.33580604174017
10
325.43189126391337
20
778.09203431735273
42
-0.18018482450682979
10
366.87709106099817
20
752.20556346328465
10
362.13692737767008
20
748.79428038741207
42
0.41421356237311197
10
361.90938067604827
20
747.3984929757404
10
363.36968156361075
20
745.36932533412369
42
0.41421356237311197
10
364.76546897528237
20
745.14177863250188
10
369.50563265861086
20
748.5530617083748
42
-0.14900006434994023
10
381.4040259399431
20
709.51201540183661
10
381.4040259399431
20
701.0108041774032
10
375.52782129460695
20
701.0108041774032
42
0.41421356237311585
10
374.52782129460707
20
700.01080417740332
10
374.52782129460707
20
697.51080417740309
42
0.41421356237319906
10
375.52782129460701
20
696.51080417740309
10
381.4040259399431
20
696.51080417740332
10
381.4040259399431
20
646.59388110048008
10
375.52782129460695
20
646.59388110048008
42
0.41421356237311585
10
374.52782129460707
20
645.59388110048019
10
374.52782129460707
20
643.09388110048008
42
0.41421356237319906
10
375.52782129460701
20
642.09388110047996
10
381.4040259399431
20
642.0938811004803
10
381.40402593994315
20
592.17695802355763
10
375.52782129460741
20
592.17695802355763
42
0.41421356237309503
10
374.52782129460735
20
591.17695802355775
10
374.52782129460735
20
588.6769580235574
42
0.41421356237311585
10
375.52782129460729
20
587.67695802355752
10
381.40402593994315
20
587.67695802355752
10
381.40402593994304
20
563.7648291442224
42
-0.072360788629936057
10
377.67321758931416
20
538.12059836683147
10
372.11097529962245
20
539.92654544074253
42
0.41421356237327273
10
370.85104121031299
20
539.28423236240974
10
370.07901494659217
20
536.90642340285785
42
0.41421356237311485
10
370.72132802492445
20
535.64648931354895
10
376.28357031461638
20
533.8405422396379
42
-0.11207914732169361
10
355.04363624673249
20
500.12521883743318
10
348.15932766153566
20
493.24091025223623
10
344.00422350918035
20
497.39601440459217
42
0.41421356237300672
10
342.59000994680696
20
497.39601440459211
10
340.82224299384075
20
495.62824745162544
42
0.41421356237312451
10
340.82224299384075
20
494.21403388925256
10
344.97734714619617
20
490.05892973689697
10
309.68075234253672
20
454.76233493323747
10
305.52564819018136
20
458.9174390855934
42
0.41421356237300672
10
304.11143462780797
20
458.91743908559334
10
302.3436676748417
20
457.14967213262668
42
0.41421356237310236
10
302.3436676748417
20
455.7354585702538
10
306.49877182719729
20
451.58035441789792
10
271.20217702353756
20
416.28375961423814
10
267.04707287118231
20
420.43886376659407
42
0.41421356237300672
10
265.63285930880892
20
420.43886376659401
10
263.86509235584265
20
418.67109681362734
42
0.41421356237310236
10
263.86509235584265
20
417.25688325125446
10
268.02019650819807
20
413.10177909889887
10
232.72360170453865
20
377.80518429523937
10
228.56849755218323
20
381.9602884475953
42
0.41421356237300672
10
227.15428398980987
20
381.96028844759525
10
225.38651703684363
20
380.19252149462858
42
0.41421356237310236
10
225.3865170368436
20
378.7783079322557
10
229.54162118919919
20
374.62320377989982
10
194.24502638553946
20
339.32660897624032
10
190.08992223318418
20
343.48171312859597
42
0.41421356237300672
10
188.67570867081082
20
343.48171312859591
10
186.90794171784458
20
341.71394617562925
42
0.41421356237310236
10
186.90794171784455
20
340.29973261325637
10
191.06304587019994
20
336.14462846090078
10
155.76645106654053
20
300.84803365724127
10
151.61134691418494
20
305.00313780959726
42
0.41421356237306561
10
150.1971333518116
20
305.00313780959715
10
148.42936639884539
20
303.23537085663054
42
0.41421356237308404
10
148.42936639884533
20
301.8211572942576
10
152.58447055120101
20
297.66605314190173
10
140.19082250434673
20
285.27240509504742
42
-0.090214171505770352
10
113.70236004203551
20
266.93767664977514
10
111.42224892592051
20
272.32294149202062
42
0.41421356237309986
10
110.11149698935598
20
272.85391169908735
10
107.80934430981689
20
271.87918453721522
42
0.4142135623731299
10
107.27837410275012
20
270.56843260065079
10
109.55848521886517
20
265.18316775840583
42
-0.094154374655099654
10
76.551212197557291
20
258.91201540183658
10
60.430465904619069
20
258.91201540183658
10
60.430465904618849
20
264.78822004716562
42
0.41421356237310802
10
59.430465904619076
20
265.78822004716528
10
56.930465904619069
20
265.78822004716551
42
0.41421356237313406
10
55.930465904619069
20
264.78822004716562
10
55.930465904619069
20
258.91201540183658
10
6.0135428276960035
20
258.91201540183658
10
6.0135428276957814
20
264.78822004716562
42
0.4142135623731113
10
5.013542827696007
20
265.78822004716528
10
2.5135428276959981
20
265.78822004716551
42
0.414213562373135
10
1.5135428276960021
20
264.78822004716562
10
1.5135428276960017
20
258.91201540183658
10
-48.403380249227027
20
258.91201540183658
10
-48.403380249227254
20
264.78822004716562
42
0.41421356237310802
10
-49.403380249227027
20
265.78822004716528
10
-51.903380249227034
20
265.78822004716551
42
0.41421356237313406
10
-52.903380249227034
20
264.78822004716562
10
-52.903380249227041
20
258.91201540183658
10
-102.8203033261501
20
258.91201540183658
10
-102.82030332615035
20
264.78822004716562
42
0.41421356237310542
10
-103.82030332615011
20
265.78822004716528
10
-106.32030332615014
20
265.78822004716551
42
0.41421356237314183
10
-107.32030332615011
20
264.78822004716562
10
-107.3203033261501
20
258.91201540183658
10
-157.23722640307321
20
258.91201540183658
10
-157.23722640307346
20
264.78822004716568
42
0.41421356237312101
10
-158.23722640307324
20
265.78822004716528
10
-160.73722640307324
20
265.78822004716551
42
0.41421356237312623
10
-161.73722640307321
20
264.78822004716562
10
-161.73722640307318
20
258.91201540183658
0
CIRCLE
5
105
100
AcDbEntity
8
0
100
AcDbCircle
10
-213.36219695061675
20
274.41201540928716
30
0
40
2.0000000000000995
210
0
220
-0
230
1
0
CIRCLE
5
106
100
AcDbEntity
8
0
100
AcDbCircle
10
105.06112790590082
20
280.08299023662914
30
0
40
2.0000000000000462
210
0
220
-0
230
1
0
CIRCLE
5
107
100
AcDbEntity
8
0
100
AcDbCircle
10
290.37027769747175
20
457.37217051549663
30
0
40
2.0000000000000639
210
0
220
-0
230
1
0
CIRCLE
5
108
100
AcDbEntity
8
0
100
AcDbCircle
10
365.9040259324882
20
600.2016257086259
30
0
40
1.9999999999998863
210
0
220
-0
230
1
0
CIRCLE
5
109
100
AcDbEntity
8
0
100
AcDbCircle
10
349.94134550933722
20
748.049334971235
30
0
40
1.9999999999999574
210
0
220
-0
230
1
0
CIRCLE
5
110
100
AcDbEntity
8
0
100
AcDbCircle
10
21.490616791769057
20
764.01201539438603
30
0
40
2.0000000000000062
210
0
220
-0
230
1
0
CIRCLE
5
111
100
AcDbEntity
8
0
100
AcDbCircle
10
-181.53984488634677
20
688.47826715936947
30
0
40
2.0000000000000639
210
0
220
-0
230
1
0
CIRCLE
5
112
100
AcDbEntity
8
0
100
AcDbCircle
10
-364.49999999255601
20
474.65920165945079
30
0
40
1.9999999999998863
210
0
220
-0
230
1
0
CIRCLE
5
113
100
AcDbEntity
8
0
100
AcDbCircle
10
-364.49999999255601
20
328.91201540183658
30
0
40
2.0000000000000284
210
0
220
-0
230
1
0
CIRCLE
5
114
100
AcDbEntity
8
0
100
AcDbCircle
10
-348.5373195694051
20
290.37469583243819
30
0
40
2.0000000000000284
210
0
220
-0
230
1
0
CIRCLE
5
115
100
AcDbEntity
8
0
100
AcDbCircle
10
-364.49999999255601
20
438.22240509504724
30
0
40
2.0000000000000284
210
0
220
-0
230
1
0
CIRCLE
5
116
100
AcDbEntity
8
0
100
AcDbCircle
10
-235.25304832194323
20
634.76506372377321
30
0
40
2.0000000000000284
210
0
220
-0
230
1
0
CIRCLE
5
117
100
AcDbEntity
8
0
100
AcDbCircle
10
-75.147186257620859
20
764.01201539438603
30
0
40
2.0000000000000018
210
0
220
-0
230
1
0
CIRCLE
5
118
100
AcDbEntity
8
0
100
AcDbCircle
10
311.40402593993878
20
764.01201539438603
30
0
40
2.0000000000000284
210
0
220
-0
230
1
0
CIRCLE
5
119
100
AcDbEntity
8
0
100
AcDbCircle
10
365.9040259324882
20
636.63842227302951
30
0
40
1.9999999999999574
210
0
220
-0
230
1
0
CIRCLE
5
120
100
AcDbEntity
8
0
100
AcDbCircle
10
344.08348113306823
20
511.08537395109295
30
0
40
2.0000000000000995
210
0
220
-0
230
1
0
CIRCLE
5
121
100
AcDbEntity
8
0
100
AcDbCircle
10
129.23066739068236
20
296.23256020870741
30
0
40
2.0000000000000995
210
0
220
-0
230
1
0
CIRCLE
5
122
100
AcDbEntity
8
0
100
AcDbCircle
10
-116.7243939012269
20
274.41201540928716
30
0
40
1.9999999999999929
210
0
220
-0
230
1
0
CIRCLE
5
123
100
AcDbEntity
8
0
100
AcDbCircle
10
76.5512121975528
20
274.41201540928716
30
0
40
2.0000000000000462
210
0
220
-0
230
1
0
CIRCLE
5
124
100
AcDbEntity
8
0
100
AcDbCircle
10
236.65707426187527
20
403.65896707990032
30
0
40
1.9999999999999929
210
0
220
-0
230
1
0
CIRCLE
5
125
100
AcDbEntity
8
0
100
AcDbCircle
10
365.9040259324882
20
563.7648291442224
30
0
40
1.9999999999998863
210
0
220
-0
230
1
0
CIRCLE
5
126
100
AcDbEntity
8
0
100
AcDbCircle
10
365.9040259324882
20
709.51201540183661
30
0
40
2.0000000000000284
210
0
220
-0
230
1
0
CIRCLE
5
127
100
AcDbEntity
8
0
100
AcDbCircle
10
118.12841984115894
20
764.01201539438603
30
0
40
2.0000000000000284
210
0
220
-0
230
1
0
CIRCLE
5
128
100
AcDbEntity
8
0
100
AcDbCircle
10
-127.8266414507503
20
742.19147059496606
30
0
40
1.9999999999999751
210
0
220
-0
230
1
0
CIRCLE
5
129
100
AcDbEntity
8
0
100
AcDbCircle
10
-342.32590179727453
20
527.69221024844171
30
0
40
1.9999999999999574
210
0
220
-0
230
1
0
CIRCLE
5
130
100
AcDbEntity
8
0
100
AcDbCircle
10
-364.49999999255601
20
365.34881196624013
30
0
40
2.0000000000000284
210
0
220
-0
230
1
0
CIRCLE
5
131
100
AcDbEntity
8
0
100
AcDbCircle
10
-310.00000000000659
20
274.41201540928716
30
0
40
1.9999999999999929
210
0
220
-0
230
1
0
CIRCLE
5
132
100
AcDbEntity
8
0
100
AcDbCircle
10
-364.49999999255601
20
401.78560853064369
30
0
40
2.0000000000000284
210
0
220
-0
230
1
0
CIRCLE
5
133
100
AcDbEntity
8
0
100
AcDbCircle
10
-288.78947505960889
20
581.22863698610729
30
0
40
1.9999999999999929
210
0
220
-0
230
1
0
CIRCLE
5
134
100
AcDbEntity
8
0
100
AcDbCircle
10
-103.65710196596882
20
758.34104056704405
30
0
40
1.9999999999999574
210
0
220
-0
230
1
0
CIRCLE
5
135
100
AcDbEntity
8
0
100
AcDbCircle
10
214.76622289054887
20
764.01201539438603
30
0
40
1.9999999999999574
210
0
220
-0
230
1
0
CIRCLE
5
136
100
AcDbEntity
8
0
100
AcDbCircle
10
365.9040259324882
20
673.07521883743311
30
0
40
2.0000000000000284
210
0
220
-0
230
1
0
CIRCLE
5
137
100
AcDbEntity
8
0
100
AcDbCircle
10
360.23305110514622
20
535.25491343587441
30
0
40
1.9999999999999574
210
0
220
-0
230
1
0
CIRCLE
5
138
100
AcDbEntity
8
0
100
AcDbCircle
10
182.94387082627881
20
349.94576364430372
30
0
40
2.0000000000000639
210
0
220
-0
230
1
0
CIRCLE
5
139
100
AcDbEntity
8
0
100
AcDbCircle
10
-20.086590851837045
20
274.41201540928716
30
0
40
1.9999999999999996
210
0
220
-0
230
1
0
CIRCLE
5
140
100
AcDbEntity
8
0
100
AcDbCircle
10
-333.29823817238992
20
492.64585029101909
30
0
40
1.9999999999999574
210
0
220
-0
230
1
0
CIRCLE
5
141
100
AcDbEntity
8
0
100
AcDbCircle
10
330.14235563084554
20
728.25034509274337
30
0
40
2.0000000000000284
210
0
220
-0
230
1
0
CIRCLE
5
142
100
AcDbEntity
8
0
100
AcDbCircle
10
-116.7243939012269
20
302.41201541673774
30
0
40
1.9999999999999929
210
0
220
-0
230
1
0
CIRCLE
5
143
100
AcDbEntity
8
0
100
AcDbCircle
10
94.345991796827121
20
305.95161715382858
30
0
40
2.0000000000000817
210
0
220
-0
230
1
0
CIRCLE
5
144
100
AcDbEntity
8
0
100
AcDbCircle
10
118.12841984115894
20
736.01201538693545
30
0
40
1.9999999999999929
210
0
220
-0
230
1
0
CIRCLE
5
145
100
AcDbEntity
8
0
100
AcDbCircle
10
-215.45405844345154
20
614.96607384528147
30
0
40
1.9999999999999929
210
0
220
-0
230
1
0
CIRCLE
5
146
100
AcDbEntity
8
0
100
AcDbCircle
10
334.36442418794684
20
545.97004954494821
30
0
40
2.0000000000000284
210
0
220
-0
230
1
0
CIRCLE
5
147
100
AcDbEntity
8
0
100
AcDbCircle
10
-328.73832969091336
20
310.17368571092987
30
0
40
1.9999999999999574
210
0
220
-0
230
1
0
CIRCLE
5
148
100
AcDbEntity
8
0
100
AcDbCircle
10
216.85808438338358
20
423.45795695839172
30
0
40
1.9999999999999929
210
0
220
-0
230
1
0
CIRCLE
5
149
100
AcDbEntity
8
0
100
AcDbCircle
10
-92.941965856895081
20
732.47241364984461
30
0
40
1.9999999999999574
210
0
220
-0
230
1
0
LWPOLYLINE
5
150
100
AcDbEntity
8
0
100
AcDbPolyline
90
12
70
1
43
0.0
10
100.59284275790017
20
324.87038484149423
10
315.44565650028579
20
539.72319858387982
42
0.19891236737966017
10
325.40402593994315
20
563.76482914422263
10
325.40402593994304
20
709.51201540183661
42
0.41421356237309503
10
311.40402593994315
20
723.51201540183638
10
-75.147186257616625
20
723.51201540183661
42
0.19891236737965812
10
-99.188816817959307
20
713.55364596217919
10
-314.04163056034491
20
498.70083221979343
42
0.19891236737965778
10
-324.00000000000233
20
474.65920165945079
10
-324.00000000000216
20
328.91201540183658
42
0.41421356237309431
10
-310.00000000000227
20
314.91201540183653
10
76.551212197557263
20
314.91201540183658
42
0.19891236737966106
0
ENDSEC
0
SECTION
2
OBJECTS
0
DICTIONARY
5
C
100
AcDbDictionary
3
ACAD_GROUP
350
D
3
ACAD_MLINESTYLE
350
17
0
DICTIONARY
5
D
100
AcDbDictionary
0
DICTIONARY
5
1A
330
C
100
AcDbDictionary
0
DICTIONARY
5
17
100
AcDbDictionary
0
ENDSEC
0
EOF
