0
SECTION
2
HEADER
9
$INSUNITS
70
4
9
$ACADVER
1
AC1014
9
$HANDSEED
5
FFFF
0
ENDSEC
0
SECTION
2
TABLES
0
TABLE
2
VPORT
5
8
100
AcDbSymbolTable
0
ENDTAB
0
TABLE
2
LTYPE
5
5
100
AcDbSymbolTable
0
LTYPE
5
14
100
AcDbSymbolTableRecord
100
AcDbLinetypeTableRecord
2
BYBLOCK
70
0
0
LTYPE
5
15
100
AcDbSymbolTableRecord
100
AcDbLinetypeTableRecord
2
BYLAYER
70
0
0
ENDTAB
0
TABLE
2
LAYER
5
2
100
AcDbSymbolTable
70
2
0
LAYER
5
50
100
AcDbSymbolTableRecord
100
AcDbLayerTableRecord
2
0
70
0
6
CONTINUOUS
0
ENDTAB
0
TABLE
2
STYLE
5
3
100
AcDbSymbolTable
70
1
0
STYLE
5
11
100
AcDbSymbolTableRecord
100
AcDbTextStyleTableRecord
2
STANDARD
70
0
0
ENDTAB
0
TABLE
2
VIEW
5
6
100
AcDbSymbolTable
70
0
0
ENDTAB
0
TABLE
2
UCS
5
7
100
AcDbSymbolTable
70
0
0
ENDTAB
0
TABLE
2
APPID
5
9
100
AcDbSymbolTable
70
2
0
APPID
5
12
100
AcDbSymbolTableRecord
100
AcDbRegAppTableRecord
2
ACAD
70
0
0
ENDTAB
0
TABLE
2
DIMSTYLE
5
A
100
AcDbSymbolTable
70
1
0
ENDTAB
0
TABLE
2
BLOCK_RECORD
5
1
100
AcDbSymbolTable
70
1
0
BLOCK_RECORD
5
1F
100
AcDbSymbolTableRecord
100
AcDbBlockTableRecord
2
*MODEL_SPACE
0
BLOCK_RECORD
5
1B
100
AcDbSymbolTableRecord
100
AcDbBlockTableRecord
2
*PAPER_SPACE
0
ENDTAB
0
ENDSEC
0
SECTION
2
BLOCKS
0
BLOCK
5
20
100
AcDbEntity
100
AcDbBlockBegin
2
*MODEL_SPACE
0
ENDBLK
5
21
100
AcDbEntity
100
AcDbBlockEnd
0
BLOCK
5
1C
100
AcDbEntity
100
AcDbBlockBegin
2
*PAPER_SPACE
0
ENDBLK
5
1D
100
AcDbEntity
100
AcDbBlockEnd
0
ENDSEC
0
SECTION
2
ENTITIES
0
LWPOLYLINE
5
100
100
AcDbEntity
8
0
100
AcDbPolyline
90
12
70
1
43
0.0
10
33.978461930439252
20
483.14098960194656
10
52.835427061483514
20
483.14098960194656
42
0.41421356237309503
10
57.592500589710326
20
487.89806313017323
10
57.592500589710468
20
549.9782223804666
42
0.41421356237309503
10
52.835427061483514
20
554.73529590869362
10
33.978461930439252
20
554.73529590869418
10
33.978461930439252
20
578.63318306256156
10
62.46209363067031
20
578.63318306256224
42
-0.41421356237310186
10
81.490387743578125
20
559.60488894965374
10
81.490387743577543
20
478.27139656098581
42
-0.41421356237309698
10
62.46209363067031
20
459.24310244807856
10
33.978461930439252
20
459.24310244807856
0
LWPOLYLINE
5
101
100
AcDbEntity
8
0
100
AcDbPolyline
90
12
70
1
43
0.0
10
30.172803107857575
20
459.24310244807856
10
1.6891714076265201
20
459.24310244807799
42
-0.41421356237309453
10
-17.339122705281298
20
478.27139656098581
10
-17.339122705280708
20
559.60488894965374
42
-0.41421356237309692
10
1.6891714076265174
20
578.6331830625611
10
30.172803107857575
20
578.63318306256156
10
30.172803107857575
20
554.73529590869418
10
11.315837976813313
20
554.73529590869418
42
0.41421356237309503
10
6.5587644485859329
20
549.9782223804666
10
6.5587644485860741
20
487.89806313017323
42
0.41421356237309503
10
11.315837976813313
20
483.14098960194627
10
30.172803107857575
20
483.14098960194656
0
LWPOLYLINE
5
102
100
AcDbEntity
8
0
100
AcDbPolyline
90
13
70
1
43
0.0
10
-34.602253356661791
20
480.07809379141293
10
-48.49537290454164
20
476.17251735803876
42
0.24620758484913163
10
-60.803987017213707
20
464.54722694296152
10
-62.62747235471592
20
459.24310244807828
10
-76.638004411089824
20
459.24310244807884
42
-0.41421356237309392
10
-81.395077939316778
20
464.0001759763058
10
-81.395077939316451
20
573.876109534335
42
-0.41421356237309342
10
-76.638004411089824
20
578.63318306256156
10
-62.453687759701339
20
578.6331830625611
42
-0.41421356237311202
10
-57.696614231475237
20
573.87610953433523
10
-57.696614231475237
20
494.34931437609379
10
-39.359326884888745
20
494.3493143760935
42
-0.41421356237309453
10
-34.602253356661791
20
489.59224084786655
0
LWPOLYLINE
5
103
100
AcDbEntity
8
0
100
AcDbPolyline
90
12
70
1
43
0.0
10
97.057308851967449
20
328.40591874742694
42
-0.19891236737966145
10
76.551212197557248
20
319.91201540183653
10
-310.00000000000227
20
319.91201540183664
42
-0.41421356237309503
10
-319.00000000000222
20
328.91201540183658
10
-319.00000000000227
20
474.65920165945079
42
-0.19891236737965776
10
-310.5060966544122
20
495.16529831386066
10
-95.653282912026597
20
710.01811205624654
42
-0.1989123673796587
10
-75.147186257616625
20
718.51201540183661
10
311.4040259399431
20
718.51201540183649
42
-0.41421356237309503
10
320.40402593994304
20
709.51201540183661
10
320.40402593994315
20
563.76482914422263
42
-0.19891236737966009
10
311.91012259435303
20
543.25873248981247
0
LWPOLYLINE
5
104
100
AcDbEntity
8
0
100
AcDbPolyline
90
12
70
1
43
0.0
10
100.5928427579002
20
324.87038484149417
42
-0.19891236737966053
10
76.551212197557277
20
314.91201540183647
10
-310.00000000000227
20
314.91201540183658
42
-0.41421356237309503
10
-324.00000000000227
20
328.91201540183658
10
-324.00000000000233
20
474.65920165945079
42
-0.19891236737965801
10
-314.04163056034491
20
498.70083221979343
10
-99.188816817959307
20
713.55364596217919
42
-0.19891236737965801
10
-75.14718625761671
20
723.51201540183661
10
311.40402593994315
20
723.51201540183649
42
-0.41421356237309431
10
325.40402593994304
20
709.51201540183661
10
325.40402593994315
20
563.76482914422263
42
-0.1989123673796602
10
315.44565650028574
20
539.72319858387982
0
ENDSEC
0
SECTION
2
OBJECTS
0
DICTIONARY
5
C
100
AcDbDictionary
3
ACAD_GROUP
350
D
3
ACAD_MLINESTYLE
350
17
0
DICTIONARY
5
D
100
AcDbDictionary
0
DICTIONARY
5
1A
330
C
100
AcDbDictionary
0
DICTIONARY
5
17
100
AcDbDictionary
0
ENDSEC
0
EOF
