0
SECTION
2
HEADER
9
$INSUNITS
70
1
9
$ACADVER
1
AC1014
9
$HANDSEED
5
FFFF
0
ENDSEC
0
SECTION
2
TABLES
0
TABLE
2
VPORT
5
8
100
AcDbSymbolTable
0
ENDTAB
0
TABLE
2
LTYPE
5
5
100
AcDbSymbolTable
0
LTYPE
5
14
100
AcDbSymbolTableRecord
100
AcDbLinetypeTableRecord
2
BYBLOCK
70
0
0
LTYPE
5
15
100
AcDbSymbolTableRecord
100
AcDbLinetypeTableRecord
2
BYLAYER
70
0
0
ENDTAB
0
TABLE
2
LAYER
5
2
100
AcDbSymbolTable
70
2
0
LAYER
5
50
100
AcDbSymbolTableRecord
100
AcDbLayerTableRecord
2
0
70
0
6
CONTINUOUS
0
ENDTAB
0
TABLE
2
STYLE
5
3
100
AcDbSymbolTable
70
1
0
STYLE
5
11
100
AcDbSymbolTableRecord
100
AcDbTextStyleTableRecord
2
STANDARD
70
0
0
ENDTAB
0
TABLE
2
VIEW
5
6
100
AcDbSymbolTable
70
0
0
ENDTAB
0
TABLE
2
UCS
5
7
100
AcDbSymbolTable
70
0
0
ENDTAB
0
TABLE
2
APPID
5
9
100
AcDbSymbolTable
70
2
0
APPID
5
12
100
AcDbSymbolTableRecord
100
AcDbRegAppTableRecord
2
ACAD
70
0
0
ENDTAB
0
TABLE
2
DIMSTYLE
5
A
100
AcDbSymbolTable
70
1
0
ENDTAB
0
TABLE
2
BLOCK_RECORD
5
1
100
AcDbSymbolTable
70
1
0
BLOCK_RECORD
5
1F
100
AcDbSymbolTableRecord
100
AcDbBlockTableRecord
2
*MODEL_SPACE
0
BLOCK_RECORD
5
1B
100
AcDbSymbolTableRecord
100
AcDbBlockTableRecord
2
*PAPER_SPACE
0
ENDTAB
0
ENDSEC
0
SECTION
2
BLOCKS
0
BLOCK
5
20
100
AcDbEntity
100
AcDbBlockBegin
2
*MODEL_SPACE
0
ENDBLK
5
21
100
AcDbEntity
100
AcDbBlockEnd
0
BLOCK
5
1C
100
AcDbEntity
100
AcDbBlockBegin
2
*PAPER_SPACE
0
ENDBLK
5
1D
100
AcDbEntity
100
AcDbBlockEnd
0
ENDSEC
0
SECTION
2
ENTITIES
0
LWPOLYLINE
5
100
100
AcDbEntity
8
OUTER_PROFILES
100
AcDbPolyline
90
104
70
1
43
0.0
10
35.844082130101441
20
29.259912897915537
10
35.844082130101427
20
20.69950009722081
42
-0.41421356237309503
10
35.594082130101427
20
20.44950009722081
10
33.120706827551622
20
20.449500097220817
42
0.99999999999999989
10
33.120706827551622
20
20.262098522417666
10
33.531957768921032
20
20.262098522417666
42
0.10064116763487645
10
33.641956586564639
20
20.095946706627551
10
34.232946844234391
20
19.504956448957767
42
-0.19891236737965182
10
34.379393453641114
20
19.151403058364501
10
34.379393453641107
20
15.565616620737579
42
-0.19891236737965085
10
34.232946844234391
20
15.212063230144317
10
33.641956586564639
20
14.621072972474531
42
0.19891236737965182
10
33.495509977157923
20
14.267519581881267
10
33.49550997715793
20
5.2071067811865408
42
0.19891236737965959
10
33.64195658656466
20
4.8535533905932668
10
33.879393453641107
20
4.61611652351682
42
-0.19891236737966059
10
34.025840063047838
20
4.2625631329235425
10
34.025840063047838
20
0.9696699141100904
42
-0.41421356237309509
10
32.525840063047838
20
-0.53033008588991026
10
29.232946844234394
20
-0.53033008588990682
42
-0.19891236737965801
10
28.879393453641118
20
-0.38388347648318244
10
28.64195658656466
20
-0.14644660940672566
42
0.10064116763488018
10
28.475804770774541
20
-0.036447791763107737
10
28.475804770774541
20
0.37480314960629846
42
0.99999999999999989
10
28.288403195971391
20
0.37480314960629846
10
28.288403195971394
20
-2.0985721529435533
42
-0.41421356237309587
10
28.038403195971394
20
-2.3485721529435537
10
17.48519185565544
20
-2.348572152943551
42
-0.41421356237309664
10
17.23519185565544
20
-2.0985721529435524
10
17.235191855655437
20
0.37480314960629846
42
0.99999999999999989
10
17.047790280852286
20
0.37480314960629846
10
17.047790280852286
20
-0.036447791763108264
42
0.10064116763487997
10
16.881638465062167
20
-0.14644660940672549
10
16.290648207392429
20
-0.73743686707645451
42
-0.19891236737965731
10
15.937094816799158
20
-0.88388347648318089
10
12.351308379172234
20
-0.88388347648318544
42
-0.1989123673796577
10
11.997754988578961
20
-0.7374368670764615
10
11.40676473090922
20
-0.1464466094067266
42
0.19891236737965734
10
11.053211340315949
20
0
10
8.7419135797256413e-17
20
-1.1364487653643334e-15
42
0.19891236737965909
10
-0.35355339059327567
20
-0.1464466094067283
10
-0.59099025766972757
20
-0.38388347648317911
42
-0.19891236737965901
10
-0.94454364826300274
20
-0.53033008588990793
10
-4.2374368670764495
20
-0.53033008588990738
42
-0.41421356237309503
10
-5.7374368670764504
20
0.96966991411009285
10
-5.7374368670764522
20
4.2625631329235416
42
-0.19891236737966045
10
-5.5909902576697226
20
4.6161165235168182
10
-5.3535533905932713
20
4.8535533905932677
42
0.10064116763488161
10
-5.24355457294965
20
5.0197052063833905
10
-4.8323036315802437
20
5.0197052063833905
42
0.99999999999999989
10
-4.8323036315802437
20
5.2071067811865399
10
-7.3056789341300714
20
5.2071067811865488
42
-0.41421356237309342
10
-7.5556789341300714
20
5.457106781186547
10
-7.5556789341300608
20
14.017519581881272
42
-0.41421356237309664
10
-7.3056789341300616
20
14.267519581881276
10
-4.832303631580233
20
14.267519581881269
42
0.99999999999999989
10
-4.832303631580233
20
14.454921156684419
10
-5.2435545729496411
20
14.454921156684415
42
0.10064116763487825
10
-5.3535533905932535
20
14.621072972474536
10
-5.9445436482630107
20
15.212063230144315
42
-0.19891236737965515
10
-6.0909902576697261
20
15.565616620737584
10
-6.0909902576697279
20
19.151403058364508
42
-0.19891236737965101
10
-5.9445436482630107
20
19.50495644895777
10
-5.3535533905932526
20
20.095946706627554
42
0.19891236737965134
10
-5.2071067811865346
20
20.44950009722082
10
-5.207106781186547
20
29.509912897915541
42
0.19891236737965803
10
-5.3535533905932704
20
29.863466288508818
10
-5.5909902576697235
20
30.100903155585268
42
-0.19891236737965959
10
-5.7374368670764522
20
30.454456546178545
10
-5.7374368670764495
20
33.747349764991988
42
-0.41421356237309492
10
-4.2374368670764504
20
35.247349764991988
10
-0.94454364826300219
20
35.247349764991988
42
-0.1989123673796557
10
-0.59099025766973268
20
35.100903155585272
10
-0.35355339059327689
20
34.86346628850881
42
0.10064116763488133
10
-0.18740157480315192
20
34.753467470865196
10
-0.18740157480315484
20
34.342216529495786
42
0.99999999999999989
10
-5.5948246910244097e-15
20
34.342216529495786
10
-3.5841845676875132e-15
20
36.815591832045648
42
-0.41421356237309997
10
0.249999999999995
20
37.065591832045655
10
10.803211340315944
20
37.065591832045662
42
-0.41421356237308848
10
11.053211340315944
20
36.815591832045669
10
11.053211340315949
20
34.342216529495786
42
0.99999999999999989
10
11.240612915119097
20
34.342216529495786
10
11.240612915119094
20
34.753467470865189
42
0.10064116763488305
10
11.40676473090922
20
34.86346628850881
10
11.997754988578949
20
35.454456546178534
42
-0.19891236737965862
10
12.35130837917222
20
35.600903155585264
10
15.937094816799149
20
35.600903155585272
42
-0.19891236737965742
10
16.290648207392422
20
35.454456546178548
10
16.881638465062167
20
34.86346628850881
42
0.19891236737965598
10
17.235191855655437
20
34.71701967910208
10
28.288403195971391
20
34.717019679102087
42
0.19891236737965801
10
28.641956586564667
20
34.86346628850881
10
28.879393453641111
20
35.100903155585272
42
-0.19891236737965801
10
29.232946844234387
20
35.247349764991988
10
32.525840063047838
20
35.247349764991988
42
-0.41421356237309503
10
34.025840063047838
20
33.747349764991988
10
34.025840063047838
20
30.454456546178545
42
-0.19891236737966012
10
33.879393453641107
20
30.100903155585268
10
33.641956586564653
20
29.863466288508818
42
0.10064116763488211
10
33.531957768921039
20
29.697314472718691
10
33.120706827551636
20
29.697314472718695
42
0.99999999999999989
10
33.120706827551636
20
29.509912897915545
10
35.594082130101441
20
29.509912897915541
42
-0.41421356237309503
0
LINE
5
101
100
AcDbEntity
8
BEND
100
AcDbLine
10
34.506939091865554
20
20.44950009722081
30
6.5137718535816665e-15
11
34.506939091865569
21
29.509912897915541
31
8.3153757875524445e-15
0
LINE
5
102
100
AcDbEntity
8
BEND
100
AcDbLine
10
11.053211340315945
20
35.728448793809783
30
-2.385191574626577e-15
11
-5.5948246910244104e-15
21
35.728448793809768
31
1.3802285993569186e-14
0
LINE
5
103
100
AcDbEntity
8
BEND
100
AcDbLine
10
-6.2185358958941723
20
14.267519581881272
30
1.9455022302369634e-14
11
-6.218535895894183
21
5.2071067811865479
31
2.2450849188915605e-14
0
LINE
5
104
100
AcDbEntity
8
BEND
100
AcDbLine
10
17.23519185565544
20
-1.0114291147076586
30
2.2656536532167492e-14
11
28.288403195971391
21
-1.0114291147076586
31
2.1478522921947708e-14
0
LINE
5
105
100
AcDbEntity
8
BEND
100
AcDbLine
10
33.332653015393802
20
29.50991289791553
30
-5.2451481478353542e-16
11
33.332653015393788
21
20.449500097220799
31
-5.2451481478353542e-16
0
LINE
5
106
100
AcDbEntity
8
BEND
100
AcDbLine
10
-1.1189649382048821e-14
20
34.554162717337981
30
2.1494665803130346e-15
11
11.053211340315945
21
34.554162717337981
31
2.1494665803130346e-15
0
LINE
5
107
100
AcDbEntity
8
BEND
100
AcDbLine
10
-5.0442498194224266
20
5.2071067811865541
30
-5.2451481478353591e-16
11
-5.044249819422415
21
14.267519581881283
31
-5.2451481478353591e-16
0
LINE
5
108
100
AcDbEntity
8
BEND
100
AcDbLine
10
28.288403195971391
20
0.16285696176410638
30
2.1494665803130275e-15
11
17.23519185565544
21
0.16285696176410638
31
2.1494665803130275e-15
0
LINE
5
109
100
AcDbEntity
8
BEND_EXTENT
100
AcDbLine
10
34.718885279707742
20
29.509912897915541
30
3.3568948146146463e-14
11
34.718885279707727
21
20.44950009722081
31
2.2379298764097642e-14
0
LINE
5
110
100
AcDbEntity
8
BEND_EXTENT
100
AcDbLine
10
34.29499290402336
20
20.44950009722081
30
2.7974123455122052e-15
11
34.294992904023367
21
29.509912897915541
31
0
0
LINE
5
111
100
AcDbEntity
8
BEND_EXTENT
100
AcDbLine
10
-6.4304820837363712
20
5.207106781186547
30
2.2379298764097642e-14
11
-6.4304820837363597
21
14.267519581881276
31
3.3568948146146463e-14
0
LINE
5
112
100
AcDbEntity
8
BEND_EXTENT
100
AcDbLine
10
-6.006589708052001
20
14.267519581881272
30
1.6784474073073231e-14
11
-6.0065897080520125
21
5.2071067811865452
31
1.6784474073073231e-14
0
LINE
5
113
100
AcDbEntity
8
BEND_EXTENT
100
AcDbLine
10
28.288403195971391
20
-1.2233753025498479
30
1.1189649382048821e-14
11
17.23519185565544
21
-1.2233753025498479
31
1.1189649382048821e-14
0
LINE
5
114
100
AcDbEntity
8
BEND_EXTENT
100
AcDbLine
10
17.235191855655437
20
-0.79948292686548084
30
1.6784474073073231e-14
11
28.288403195971391
21
-0.79948292686548084
31
1.6784474073073231e-14
0
LINE
5
115
100
AcDbEntity
8
BEND_EXTENT
100
AcDbLine
10
0
20
35.940394981651963
30
2.2379298764097642e-14
11
11.053211340315945
21
35.94039498165197
31
1.1189649382048821e-14
0
LINE
5
116
100
AcDbEntity
8
BEND_EXTENT
100
AcDbLine
10
11.053211340315949
20
35.516502605967588
30
2.7974123455122052e-15
11
-5.5948246910244104e-15
21
35.516502605967567
31
2.7974123455122052e-15
0
LINE
5
117
100
AcDbEntity
8
BEND_EXTENT
100
AcDbLine
10
33.544599203235975
20
29.509912897915523
30
8.3922370365366157e-15
11
33.544599203235968
21
20.449500097220795
31
8.3922370365366157e-15
0
LINE
5
118
100
AcDbEntity
8
BEND_EXTENT
100
AcDbLine
10
-1.1189649382048821e-14
20
34.766108905180168
30
0
11
11.053211340315945
21
34.766108905180168
31
0
0
LINE
5
119
100
AcDbEntity
8
BEND_EXTENT
100
AcDbLine
10
-5.2561960072646192
20
5.2071067811865577
30
8.3922370365366157e-15
11
-5.2561960072646086
21
14.267519581881286
31
8.3922370365366157e-15
0
LINE
5
120
100
AcDbEntity
8
BEND_EXTENT
100
AcDbLine
10
28.288403195971391
20
-0.049089226078088237
30
8.3922370365366157e-15
11
17.23519185565544
21
-0.049089226078088237
31
8.3922370365366157e-15
0
LINE
5
121
100
AcDbEntity
8
BEND_EXTENT
100
AcDbLine
10
17.235191855655437
20
0.37480314960629846
30
0
11
28.288403195971391
21
0.37480314960629846
31
0
0
LINE
5
122
100
AcDbEntity
8
BEND_EXTENT
100
AcDbLine
10
11.053211340315949
20
34.342216529495786
30
0
11
-5.5948246910244104e-15
21
34.342216529495786
31
0
0
LINE
5
123
100
AcDbEntity
8
BEND_EXTENT
100
AcDbLine
10
33.120706827551622
20
20.449500097220817
30
0
11
33.120706827551636
21
29.509912897915545
31
0
0
LINE
5
124
100
AcDbEntity
8
BEND_EXTENT
100
AcDbLine
10
-4.832303631580233
20
14.267519581881269
30
0
11
-4.8323036315802437
21
5.2071067811865399
31
0
0
ENDSEC
0
SECTION
2
OBJECTS
0
DICTIONARY
5
C
100
AcDbDictionary
3
ACAD_GROUP
350
D
3
ACAD_MLINESTYLE
350
17
0
DICTIONARY
5
D
100
AcDbDictionary
0
DICTIONARY
5
1A
330
C
100
AcDbDictionary
0
DICTIONARY
5
17
100
AcDbDictionary
0
ENDSEC
0
EOF
