0
SECTION
2
HEADER
9
$INSUNITS
70
1
9
$ACADVER
1
AC1014
9
$HANDSEED
5
FFFF
0
ENDSEC
0
SECTION
2
TABLES
0
TABLE
2
VPORT
5
8
100
AcDbSymbolTable
0
ENDTAB
0
TABLE
2
LTYPE
5
5
100
AcDbSymbolTable
0
LTYPE
5
14
100
AcDbSymbolTableRecord
100
AcDbLinetypeTableRecord
2
BYBLOCK
70
0
0
LTYPE
5
15
100
AcDbSymbolTableRecord
100
AcDbLinetypeTableRecord
2
BYLAYER
70
0
0
ENDTAB
0
TABLE
2
LAYER
5
2
100
AcDbSymbolTable
70
2
0
LAYER
5
50
100
AcDbSymbolTableRecord
100
AcDbLayerTableRecord
2
0
70
0
6
CONTINUOUS
0
ENDTAB
0
TABLE
2
STYLE
5
3
100
AcDbSymbolTable
70
1
0
STYLE
5
11
100
AcDbSymbolTableRecord
100
AcDbTextStyleTableRecord
2
STANDARD
70
0
0
ENDTAB
0
TABLE
2
VIEW
5
6
100
AcDbSymbolTable
70
0
0
ENDTAB
0
TABLE
2
UCS
5
7
100
AcDbSymbolTable
70
0
0
ENDTAB
0
TABLE
2
APPID
5
9
100
AcDbSymbolTable
70
2
0
APPID
5
12
100
AcDbSymbolTableRecord
100
AcDbRegAppTableRecord
2
ACAD
70
0
0
ENDTAB
0
TABLE
2
DIMSTYLE
5
A
100
AcDbSymbolTable
70
1
0
ENDTAB
0
TABLE
2
BLOCK_RECORD
5
1
100
AcDbSymbolTable
70
1
0
BLOCK_RECORD
5
1F
100
AcDbSymbolTableRecord
100
AcDbBlockTableRecord
2
*MODEL_SPACE
0
BLOCK_RECORD
5
1B
100
AcDbSymbolTableRecord
100
AcDbBlockTableRecord
2
*PAPER_SPACE
0
ENDTAB
0
ENDSEC
0
SECTION
2
BLOCKS
0
BLOCK
5
20
100
AcDbEntity
100
AcDbBlockBegin
2
*MODEL_SPACE
0
ENDBLK
5
21
100
AcDbEntity
100
AcDbBlockEnd
0
BLOCK
5
1C
100
AcDbEntity
100
AcDbBlockBegin
2
*PAPER_SPACE
0
ENDBLK
5
1D
100
AcDbEntity
100
AcDbBlockEnd
0
ENDSEC
0
SECTION
2
ENTITIES
0
LWPOLYLINE
5
100
100
AcDbEntity
8
OUTER_PROFILES
100
AcDbPolyline
90
104
70
1
43
0.0
10
28.052541328816925
20
-1.3485721529433381
42
0.41421356237308932
10
28.302541328816922
20
-1.0985721529433354
10
28.302541328816918
20
0.37480314960628175
42
-0.99999999999999989
10
28.489942903620065
20
0.37480314960628164
10
28.489942903620065
20
-0.036447791763139073
42
-0.10064116763487919
10
28.656094719410188
20
-0.14644660940675444
10
28.893531586486631
20
-0.38388347648320581
42
0.19891236737965892
10
29.247084977079908
20
-0.53033008588993336
10
32.539978195893362
20
-0.53033008588994013
42
0.41421356237309503
10
34.039978195893362
20
0.96966991411006065
10
34.039978195893362
20
4.2625631329235052
42
0.1989123673796602
10
33.893531586486631
20
4.6161165235167809
10
33.656094719410177
20
4.8535533905932322
42
-0.19891236737965315
10
33.509648110003461
20
5.2071067811864982
10
33.509648110003468
20
9.6303232188134071
42
-0.19891236737965695
10
33.656094719410184
20
9.9838766094066802
10
34.247084977079922
20
10.574866867076421
42
0.19891236737966009
10
34.393531586486645
20
10.928420257669696
10
34.393531586486645
20
14.514206695296622
42
0.19891236737966009
10
34.247084977079915
20
14.867760085889898
10
33.656094719410198
20
15.458750343559625
42
-0.10064116763488357
10
33.546095901766577
20
15.624902159349752
10
33.134844960397174
20
15.624902159349752
42
-0.99999999999999989
10
33.134844960397174
20
15.8123037341529
10
34.608220262947007
20
15.812303734152895
42
0.41421356237309503
10
34.858220262947007
20
16.062303734152898
10
34.858220262947007
20
19.985520171779797
42
0.41421356237309503
10
34.608220262947015
20
20.235520171779797
10
33.134844960397174
20
20.2355201717798
42
-0.99999999999999989
10
33.134844960397174
20
20.422921746582947
10
33.546095901766584
20
20.422921746582947
42
-0.10064116763488469
10
33.656094719410206
20
20.589073562373073
10
33.893531586486652
20
20.826510429449527
42
0.19891236737966009
10
34.039978195893376
20
21.1800638200428
10
34.039978195893383
20
24.472957038856247
42
0.41421356237309503
10
32.539978195893383
20
25.972957038856251
10
29.247084977079929
20
25.972957038856251
42
0.19891236737965592
10
28.89353158648666
20
25.826510429449527
10
28.656094719410202
20
25.589073562373077
42
-0.19891236737966009
10
28.302541328816929
20
25.442626952966346
10
17.235060507266184
20
25.442626952966346
42
-0.19891236737965293
10
16.881507116672914
20
25.589073562373063
10
16.290516859003127
20
26.180063820042825
42
0.19891236737965176
10
15.936963468409862
20
26.326510429449542
10
12.3655778604071
20
26.326510429449549
42
0.19891236737965176
10
12.012024469813836
20
26.180063820042829
10
11.421034212144049
20
25.58907356237307
42
-0.1006411676348755
10
11.254882396353933
20
25.479074744729459
10
11.254882396353931
20
25.067823803360049
42
-0.99999999999999989
10
11.067480821550783
20
25.067823803360049
10
11.067480821550784
20
26.541199105909907
42
0.41421356237309342
10
10.817480821550779
20
26.791199105909914
10
0.25000000000003092
20
26.791199105909921
42
0.41421356237309453
10
3.138346975121505e-14
20
26.541199105909918
10
2.7974123455122052e-14
20
25.067823803360071
42
-0.99999999999999989
10
-0.18740157480312125
20
25.067823803360071
10
-0.18740157480312239
20
25.479074744729484
42
-0.10064116763488368
10
-0.35355339059324903
20
25.589073562373102
10
-0.5909902576697017
20
25.826510429449556
42
0.19891236737965962
10
-0.94454364826297621
20
25.972957038856283
10
-4.2374368670764202
20
25.97295703885629
42
0.41421356237309531
10
-5.737436867076422
20
24.472957038856286
10
-5.7374368670764238
20
21.180063820042839
42
0.19891236737965753
10
-5.5909902576696986
20
20.826510429449566
10
-5.3535533905932482
20
20.589073562373112
42
-0.19891236737965926
10
-5.2071067811865204
20
20.235520171779839
10
-5.2071067811865275
20
15.812303734152939
42
-0.19891236737965753
10
-5.3535533905932526
20
15.458750343559668
10
-5.9445436482629823
20
14.867760085889927
42
0.19891236737965926
10
-6.090990257669711
20
14.51420669529665
10
-6.090990257669711
20
10.928420257669737
42
0.1989123673796572
10
-5.9445436482629868
20
10.574866867076464
10
-5.3535533905932544
20
9.9838766094067193
42
-0.10064116763488122
10
-5.2435545729496367
20
9.8177247936165948
10
-4.8323036315802304
20
9.8177247936165948
42
-0.99999999999999989
10
-4.8323036315802304
20
9.6303232188134444
10
-6.3056789341300634
20
9.6303232188134498
42
0.41421356237309503
10
-6.5556789341300625
20
9.3803232188134498
10
-6.5556789341300679
20
5.4571067811865444
42
0.41421356237309503
10
-6.3056789341300714
20
5.2071067811865479
10
-4.8323036315802357
20
5.207106781186547
42
-0.99999999999999989
10
-4.8323036315802357
20
5.0197052063833976
10
-5.2435545729496429
20
5.0197052063833985
42
-0.1006411676348829
10
-5.3535533905932633
20
4.8535533905932722
10
-5.590990257669719
20
4.6161165235168262
42
0.19891236737965443
10
-5.7374368670764424
20
4.2625631329235567
10
-5.7374368670764442
20
0.96966991411009829
42
0.41421356237309498
10
-4.2374368670764451
20
-0.53033008588990305
10
-0.94454364826299753
20
-0.53033008588990271
42
0.19891236737965801
10
-0.59099025766972357
20
-0.38388347648317667
10
-0.35355339059327212
20
-0.14644660940672852
42
-0.19891236737965673
10
0
20
-3.9338611108765382e-15
10
11.067480821550763
20
-1.5473187036114387e-14
42
-0.19891236737965165
10
11.421034212144027
20
-0.14644660940673399
10
12.012024469813799
20
-0.7374368670764696
42
0.19891236737965465
10
12.365577860407068
20
-0.88388347648319221
10
15.936963468409834
20
-0.88388347648319554
42
0.19891236737965234
10
16.290516859003102
20
-0.73743686707647882
10
16.881507116672882
20
-0.14644660940673135
42
-0.10064116763488032
10
17.047658932463001
20
-0.036447791763115606
10
17.047658932463001
20
0.37480314960629296
42
-0.99999999999999989
10
17.235060507266152
20
0.37480314960629285
10
17.235060507266148
20
-1.0985721529434587
42
0.41421356237309892
10
17.485060507266148
20
-1.3485721529434556
0
LWPOLYLINE
5
101
100
AcDbEntity
8
INTERIOR_PROFILES
100
AcDbPolyline
90
32
70
1
43
0.0
10
13.281291402797462
20
13.926805600239005
42
0.41421356237288692
10
13.249795339805335
20
13.958301663231133
10
12.898155078845621
20
13.958301663231113
42
0.41421356237309503
10
12.701304685144855
20
13.761451269530349
10
12.701304685144844
20
11.669850485415319
42
0.41421356237288692
10
12.73280074813697
20
11.638354422423216
10
14.989755770411275
20
11.638354422423202
42
-0.41421356237309503
10
15.021251833403401
20
11.606858359431076
10
15.021251833403406
20
11.089863675213364
42
-0.41421356237319906
10
14.989755770411275
20
11.058367612221222
10
12.732800748136953
20
11.058367612221213
42
0.41421356237309503
10
12.701304685144834
20
11.026871549229094
10
12.701304685144828
20
10.675231195720027
42
0.41421356237309503
10
12.898155078845615
20
10.47838080201924
10
15.404388249904603
20
10.478380802019249
42
0.41421356237309709
10
15.601238643605383
20
10.675231195720025
10
15.601238643605384
20
12.186845169633038
42
0.41421356237309503
10
15.56974258061326
20
12.218341232625164
10
13.312787465789597
20
12.218341232625178
42
-0.41421356237309503
10
13.281291402797471
20
12.249837295617303
10
13.281291402797466
20
12.766831979835013
42
-0.41421356237319906
10
13.312787465789597
20
12.798328042827155
10
15.569742580613275
20
12.798328042827141
42
0.414213562373069
10
15.601238643605413
20
12.829824105819284
10
15.601238643605399
20
13.761451269530346
42
0.4142135623730992
10
15.40438824990461
20
13.958301663231133
10
15.052747896395539
20
13.958301663231147
42
0.41421356237309503
10
15.02125183340341
20
13.926805600239016
10
15.02125183340342
20
13.409810916021272
42
-0.41421356237288692
10
14.989755770411289
20
13.378314853029163
10
13.312787465789588
20
13.378314853029169
42
-0.41421356237309503
10
13.281291402797462
20
13.409810916021293
0
LINE
5
102
100
AcDbEntity
8
BEND
100
AcDbLine
10
17.235060507266144
20
-0.51142911470764929
30
-2.3466814240417455e-14
11
28.302541328816918
21
-0.51142911470768704
31
-3.5640125682026681e-14
0
LINE
5
103
100
AcDbEntity
8
BEND
100
AcDbLine
10
34.021077224711121
20
15.8123037341529
30
-5.7744187876825561e-15
11
34.021077224711128
21
20.2355201717798
31
1.0537854546306574e-15
0
LINE
5
104
100
AcDbEntity
8
BEND
100
AcDbLine
10
11.067480821550779
20
25.954056067674017
30
-3.6461866207054482e-14
11
2.7974123455122052e-14
21
25.954056067674017
31
-5.8597546775061631e-14
0
LINE
5
105
100
AcDbEntity
8
BEND
100
AcDbLine
10
-5.7185358958941821
20
9.6303232188134462
30
-2.9656576968481854e-16
11
-5.7185358958941874
21
5.2071067811865479
31
6.5033244112901048e-15
0
LINE
5
106
100
AcDbEntity
8
BEND
100
AcDbLine
10
28.302541328816918
20
0.16285696176407014
30
-1.171416419683236e-14
11
17.235060507266148
21
0.16285696176409672
31
1.0665134567265021e-14
0
LINE
5
107
100
AcDbEntity
8
BEND
100
AcDbLine
10
33.346791148239376
20
20.235520171779783
30
-5.2451481478353848e-16
11
33.346791148239369
21
15.812303734152879
31
-5.2451481478353848e-16
0
LINE
5
108
100
AcDbEntity
8
BEND
100
AcDbLine
10
3.3568948146146463e-14
20
25.279769991202254
30
-2.9950769790163485e-16
11
11.067480821550783
21
25.279769991202237
31
-5.89433238892585e-15
0
LINE
5
109
100
AcDbEntity
8
BEND
100
AcDbLine
10
-5.044249819422415
20
5.2071067811865701
30
-5.2451481478353848e-16
11
-5.0442498194224097
21
9.6303232188134675
31
-5.2451481478353848e-16
0
LINE
5
110
100
AcDbEntity
8
BEND_EXTENT
100
AcDbLine
10
2.5176711109609849e-14
20
26.166002255516204
30
-6.1543071601268512e-14
11
11.067480821550776
21
26.166002255516204
31
-5.5948246910244104e-14
0
LINE
5
111
100
AcDbEntity
8
BEND_EXTENT
100
AcDbLine
10
11.067480821550784
20
25.742109879831823
30
-2.2379298764097642e-14
11
2.7974123455122052e-14
21
25.742109879831819
31
-2.2379298764097642e-14
0
LINE
5
112
100
AcDbEntity
8
BEND_EXTENT
100
AcDbLine
10
28.302541328816911
20
-0.72337530254985805
30
-2.7974123455122052e-14
11
17.235060507266144
21
-0.7233753025498133
31
-5.5948246910244104e-15
0
LINE
5
113
100
AcDbEntity
8
BEND_EXTENT
100
AcDbLine
10
17.235060507266148
20
-0.2994829268654573
30
-1.1189649382048821e-14
11
28.302541328816918
21
-0.29948292686549371
31
-2.2379298764097642e-14
0
LINE
5
114
100
AcDbEntity
8
BEND_EXTENT
100
AcDbLine
10
-5.9304820837363668
20
5.2071067811865479
30
5.5948246910244104e-15
11
-5.9304820837363614
21
9.6303232188134462
31
0
0
LINE
5
115
100
AcDbEntity
8
BEND_EXTENT
100
AcDbLine
10
-5.5065897080519912
20
9.6303232188134462
30
0
11
-5.5065897080519974
21
5.207106781186547
31
0
0
LINE
5
116
100
AcDbEntity
8
BEND_EXTENT
100
AcDbLine
10
34.233023412553315
20
20.2355201717798
30
-5.5948246910244104e-15
11
34.233023412553308
21
15.8123037341529
31
-1.1189649382048821e-14
0
LINE
5
117
100
AcDbEntity
8
BEND_EXTENT
100
AcDbLine
10
33.809131036868934
20
15.8123037341529
30
-2.7974123455122052e-15
11
33.809131036868934
21
20.2355201717798
31
-2.7974123455122052e-15
0
LINE
5
118
100
AcDbEntity
8
BEND_EXTENT
100
AcDbLine
10
3.3568948146146463e-14
20
25.491716179044442
30
-5.5948246910244104e-15
11
11.067480821550783
21
25.491716179044417
31
-5.5948246910244104e-15
0
LINE
5
119
100
AcDbEntity
8
BEND_EXTENT
100
AcDbLine
10
33.558737336081535
20
20.235520171779783
30
-2.7974123455122052e-15
11
33.558737336081535
21
15.812303734152879
31
-2.7974123455122052e-15
0
LINE
5
120
100
AcDbEntity
8
BEND_EXTENT
100
AcDbLine
10
28.302541328816918
20
-0.049089226078074255
30
-2.2379298764097642e-14
11
17.235060507266152
21
-0.049089226078060266
31
1.1189649382048821e-14
0
LINE
5
121
100
AcDbEntity
8
BEND_EXTENT
100
AcDbLine
10
-5.256196007264597
20
5.2071067811865701
30
-2.7974123455122052e-15
11
-5.2561960072645917
21
9.6303232188134693
31
-2.7974123455122052e-15
0
LINE
5
122
100
AcDbEntity
8
BEND_EXTENT
100
AcDbLine
10
-4.8323036315802304
20
9.6303232188134444
30
0
11
-4.8323036315802357
21
5.207106781186547
31
0
0
LINE
5
123
100
AcDbEntity
8
BEND_EXTENT
100
AcDbLine
10
33.134844960397174
20
15.8123037341529
30
0
11
33.134844960397174
21
20.2355201717798
31
0
0
LINE
5
124
100
AcDbEntity
8
BEND_EXTENT
100
AcDbLine
10
17.235060507266152
20
0.37480314960629285
30
0
11
28.302541328816918
21
0.37480314960628169
31
0
0
LINE
5
125
100
AcDbEntity
8
BEND_EXTENT
100
AcDbLine
10
11.067480821550783
20
25.067823803360049
30
0
11
2.7974123455122052e-14
21
25.067823803360071
31
0
0
ENDSEC
0
SECTION
2
OBJECTS
0
DICTIONARY
5
C
100
AcDbDictionary
3
ACAD_GROUP
350
D
3
ACAD_MLINESTYLE
350
17
0
DICTIONARY
5
D
100
AcDbDictionary
0
DICTIONARY
5
1A
330
C
100
AcDbDictionary
0
DICTIONARY
5
17
100
AcDbDictionary
0
ENDSEC
0
EOF
