0
SECTION
2
HEADER
9
$INSUNITS
70
4
9
$ACADVER
1
AC1014
9
$HANDSEED
5
FFFF
0
ENDSEC
0
SECTION
2
TABLES
0
TABLE
2
VPORT
5
8
100
AcDbSymbolTable
0
ENDTAB
0
TABLE
2
LTYPE
5
5
100
AcDbSymbolTable
0
LTYPE
5
14
100
AcDbSymbolTableRecord
100
AcDbLinetypeTableRecord
2
BYBLOCK
70
0
0
LTYPE
5
15
100
AcDbSymbolTableRecord
100
AcDbLinetypeTableRecord
2
BYLAYER
70
0
0
ENDTAB
0
TABLE
2
LAYER
5
2
100
AcDbSymbolTable
70
2
0
LAYER
5
50
100
AcDbSymbolTableRecord
100
AcDbLayerTableRecord
2
0
70
0
6
CONTINUOUS
0
ENDTAB
0
TABLE
2
STYLE
5
3
100
AcDbSymbolTable
70
1
0
STYLE
5
11
100
AcDbSymbolTableRecord
100
AcDbTextStyleTableRecord
2
STANDARD
70
0
0
ENDTAB
0
TABLE
2
VIEW
5
6
100
AcDbSymbolTable
70
0
0
ENDTAB
0
TABLE
2
UCS
5
7
100
AcDbSymbolTable
70
0
0
ENDTAB
0
TABLE
2
APPID
5
9
100
AcDbSymbolTable
70
2
0
APPID
5
12
100
AcDbSymbolTableRecord
100
AcDbRegAppTableRecord
2
ACAD
70
0
0
ENDTAB
0
TABLE
2
DIMSTYLE
5
A
100
AcDbSymbolTable
70
1
0
ENDTAB
0
TABLE
2
BLOCK_RECORD
5
1
100
AcDbSymbolTable
70
1
0
BLOCK_RECORD
5
1F
100
AcDbSymbolTableRecord
100
AcDbBlockTableRecord
2
*MODEL_SPACE
0
BLOCK_RECORD
5
1B
100
AcDbSymbolTableRecord
100
AcDbBlockTableRecord
2
*PAPER_SPACE
0
ENDTAB
0
ENDSEC
0
SECTION
2
BLOCKS
0
BLOCK
5
20
100
AcDbEntity
100
AcDbBlockBegin
2
*MODEL_SPACE
0
ENDBLK
5
21
100
AcDbEntity
100
AcDbBlockEnd
0
BLOCK
5
1C
100
AcDbEntity
100
AcDbBlockBegin
2
*PAPER_SPACE
0
ENDBLK
5
1D
100
AcDbEntity
100
AcDbBlockEnd
0
ENDSEC
0
SECTION
2
ENTITIES
0
CIRCLE
5
100
100
AcDbEntity
8
0
100
AcDbCircle
10
1639.8249042090131
20
-2000.9700343607735
30
0
40
1.9999999999999574
210
0
220
-0
230
1
0
CIRCLE
5
101
100
AcDbEntity
8
0
100
AcDbCircle
10
1330.0248539687359
20
-2309.9844910522279
30
0
40
1.9999999999999929
210
0
220
-0
230
1
0
CIRCLE
5
102
100
AcDbEntity
8
0
100
AcDbCircle
10
1875.6212680430335
20
-2423.2687622996873
30
0
40
1.9999999999999574
210
0
220
-0
230
1
0
CIRCLE
5
103
100
AcDbEntity
8
0
100
AcDbCircle
10
1212.5185141641723
20
-2187.4723984656716
30
0
40
2.0000000000000284
210
0
220
-0
230
1
0
CIRCLE
5
104
100
AcDbEntity
8
0
100
AcDbCircle
10
1762.3369967955703
20
-2118.476374165336
30
0
40
1.9999999999999929
210
0
220
-0
230
1
0
CIRCLE
5
105
100
AcDbEntity
8
0
100
AcDbCircle
10
1428.7545185109591
20
-1997.4304326236836
30
0
40
1.9999999999999929
210
0
220
-0
230
1
0
CIRCLE
5
106
100
AcDbEntity
8
0
100
AcDbCircle
10
1452.5369465552931
20
-2427.4908308567906
30
0
40
2.0000000000000817
210
0
220
-0
230
1
0
CIRCLE
5
107
100
AcDbEntity
8
0
100
AcDbCircle
10
1663.6073322533468
20
-2431.0304325938805
30
0
40
1.9999999999999929
210
0
220
-0
230
1
0
CIRCLE
5
108
100
AcDbEntity
8
0
100
AcDbCircle
10
1216.7405827212726
20
-2005.1921029178766
30
0
40
2.0000000000000284
210
0
220
-0
230
1
0
CIRCLE
5
109
100
AcDbEntity
8
0
100
AcDbCircle
10
1880.1811765245091
20
-2240.7965977195981
30
0
40
1.9999999999999574
210
0
220
-0
230
1
0
LWPOLYLINE
5
110
100
AcDbEntity
8
0
100
AcDbPolyline
90
12
70
1
43
0.0
10
1213.7596123327107
20
-2211.3969189458676
42
-0.19891236737965845
10
1196.4789124270815
20
-2169.677618866398
10
1196.4789124270808
20
-2023.9304326087836
42
-0.41421356237309503
10
1235.4789124121794
20
-1984.9304326236845
10
1622.030124609739
20
-1984.9304326236827
42
-0.19891236737965753
10
1663.7494246892086
20
-2002.2111325293117
10
1878.602238431595
20
-2217.0639462716968
42
-0.19891236737965845
10
1895.8829383372247
20
-2258.7832463511663
10
1895.8829383372254
20
-2404.5304326087803
42
-0.41421356237309503
10
1856.8829383521268
20
-2443.5304325938796
10
1470.3317261545671
20
-2443.5304325938814
42
-0.19891236737965881
10
1428.6124260750976
20
-2426.2497326882517
0
CIRCLE
5
111
100
AcDbEntity
8
0
100
AcDbCircle
10
646.84414984182342
20
-1969.5424008187135
30
0
40
1.9999999999999574
210
-0
220
0
230
1
0
CIRCLE
5
112
100
AcDbEntity
8
0
100
AcDbCircle
10
956.64420008210209
20
-2278.5568575101665
30
0
40
1.9999999999999929
210
-0
220
0
230
1
0
CIRCLE
5
113
100
AcDbEntity
8
0
100
AcDbCircle
10
411.0477860078052
20
-2391.8411287576282
30
0
40
1.9999999999999574
210
-0
220
0
230
1
0
CIRCLE
5
114
100
AcDbEntity
8
0
100
AcDbCircle
10
1074.1505398866655
20
-2156.0447649236098
30
0
40
2.0000000000000284
210
-0
220
0
230
1
0
CIRCLE
5
115
100
AcDbEntity
8
0
100
AcDbCircle
10
524.33205725526693
20
-2087.0487406232764
30
0
40
1.9999999999999929
210
-0
220
0
230
1
0
CIRCLE
5
116
100
AcDbEntity
8
0
100
AcDbCircle
10
857.91453553987753
20
-1966.0027990816227
30
0
40
1.9999999999999929
210
-0
220
0
230
1
0
CIRCLE
5
117
100
AcDbEntity
8
0
100
AcDbCircle
10
834.1321074955456
20
-2396.0631973147297
30
0
40
2.0000000000000817
210
-0
220
0
230
1
0
CIRCLE
5
118
100
AcDbEntity
8
0
100
AcDbCircle
10
623.06172179749171
20
-2399.6027990518205
30
0
40
1.9999999999999929
210
-0
220
0
230
1
0
CIRCLE
5
119
100
AcDbEntity
8
0
100
AcDbCircle
10
1069.9284713295642
20
-1973.7644693758148
30
0
40
2.0000000000000284
210
-0
220
0
230
1
0
CIRCLE
5
120
100
AcDbEntity
8
0
100
AcDbCircle
10
406.4878775263287
20
-2209.3689641775391
30
0
40
1.9999999999999574
210
-0
220
0
230
1
0
LWPOLYLINE
5
121
100
AcDbEntity
8
0
100
AcDbPolyline
90
12
70
1
43
0.0
10
858.05662797574541
20
-2394.8220991461912
42
-0.19891236737965753
10
816.33732789627584
20
-2412.1027990518205
10
429.78611569871617
20
-2412.1027990518205
42
-0.41421356237309503
10
390.78611571361739
20
-2373.1027990667217
10
390.78611571361739
20
-2227.3556128091072
42
-0.19891236737965881
10
408.06681561924677
20
-2185.6363127296377
10
622.91962936163247
20
-1970.7834989872517
42
-0.19891236737965662
10
664.63892944110182
20
-1953.5027990816227
10
1051.1901416386615
20
-1953.5027990816227
42
-0.41421356237309503
10
1090.1901416237604
20
-1992.5027990667215
10
1090.1901416237604
20
-2138.2499853243357
42
-0.19891236737965801
10
1072.9094417181313
20
-2179.9692854038053
0
CIRCLE
5
122
100
AcDbEntity
8
0
100
AcDbCircle
10
-135.96518208457056
20
-2005.7504611380432
30
0
40
2.0000000000000262
210
0
220
-0
230
1
0
CIRCLE
5
123
100
AcDbEntity
8
0
100
AcDbCircle
10
261.1470197550571
20
-2490.9887908140486
30
0
40
2.0000000000000284
210
0
220
-0
230
1
0
CIRCLE
5
124
100
AcDbEntity
8
0
100
AcDbCircle
10
-350.76648577624258
20
-2496.7332687209246
30
0
40
2.0000000000000995
210
0
220
-0
230
1
0
CIRCLE
5
125
100
AcDbEntity
8
0
100
AcDbCircle
10
-533.07738392419822
20
-2490.9887908140486
30
0
40
2.0000000000000995
210
0
220
-0
230
1
0
CIRCLE
5
126
100
AcDbEntity
8
0
100
AcDbCircle
10
78.836121607102001
20
-2496.7332687209246
30
0
40
1.9999999999998863
210
0
220
-0
230
1
0
CIRCLE
5
127
100
AcDbEntity
8
0
100
AcDbCircle
10
125.35065592103884
20
-2009.290062875134
30
0
40
1.9999999999999929
210
0
220
-0
230
1
0
CIRCLE
5
128
100
AcDbEntity
8
0
100
AcDbCircle
10
-397.28102009017988
20
-2009.290062875134
30
0
40
2.0000000000000284
210
0
220
-0
230
1
0
CIRCLE
5
129
100
AcDbEntity
8
0
100
AcDbCircle
10
268.90869004924912
20
-2319.6768679943348
30
0
40
2.0000000000000284
210
0
220
-0
230
1
0
CIRCLE
5
130
100
AcDbEntity
8
0
100
AcDbCircle
10
-198.40172602564252
20
-2352.4423037825777
30
0
40
2.0000000000000995
210
0
220
-0
230
1
0
CIRCLE
5
131
100
AcDbEntity
8
0
100
AcDbCircle
10
-540.83905421839006
20
-2319.6768679943348
30
0
40
2.0000000000000284
210
0
220
-0
230
1
0
CIRCLE
5
132
100
AcDbEntity
8
0
100
AcDbCircle
10
-73.528638143498597
20
-2352.4423037825777
30
0
40
1.999999999999913
210
0
220
-0
230
1
0
CIRCLE
5
133
100
AcDbEntity
8
0
100
AcDbCircle
10
265.36908831215828
20
-2149.3084952662539
30
0
40
2.0000000000000284
210
0
220
-0
230
1
0
CIRCLE
5
134
100
AcDbEntity
8
0
100
AcDbCircle
10
-537.29945248129923
20
-2149.3084952662539
30
0
40
2.0000000000000284
210
0
220
-0
230
1
0
LWPOLYLINE
5
135
100
AcDbEntity
8
0
100
AcDbPolyline
90
20
70
1
43
0.0
10
-553.3390542183904
20
-2167.103274865528
42
-0.1989123673796587
10
-536.05835431276103
20
-2125.3839747860584
10
-421.20554057037521
20
-2010.5311610436725
42
-0.19891236737965753
10
-379.48624049090569
20
-1993.2504611380432
10
107.55587632176442
20
-1993.2504611380432
42
-0.19891236737965776
10
149.27517640123403
20
-2010.5311610436725
10
264.12799014361997
20
-2125.3839747860584
42
-0.19891236737965731
10
281.40869004924912
20
-2167.1032748655275
10
281.40869004924917
20
-2472.2504611231416
42
-0.41421356237309503
10
242.40869006415033
20
-2511.2504611082404
10
88.97723255907421
20
-2511.2504611082409
42
-0.19891236737965523
10
61.400068103335883
20
-2499.827625578881
10
-66.632940485655581
20
-2371.7946169898896
42
0.19891236737965542
10
-92.088784618908051
20
-2361.2504611082409
10
-179.84157955023312
20
-2361.2504611082409
42
0.19891236737965395
10
-205.29742368348565
20
-2371.7946169898896
10
-333.33043227247657
20
-2499.8276255788805
42
-0.19891236737965706
10
-360.90759672821503
20
-2511.2504611082409
10
-514.33905423329156
20
-2511.2504611082404
42
-0.41421356237309503
10
-553.33905421839006
20
-2472.250461123142
0
CIRCLE
5
136
100
AcDbEntity
8
0
100
AcDbCircle
10
-1039.7096215132478
20
-2479.2859294595319
30
0
40
1.9999999999999574
210
0
220
-0
230
1
0
CIRCLE
5
137
100
AcDbEntity
8
0
100
AcDbCircle
10
-767.31736733881462
20
-2180.3885511096205
30
0
40
2.0000000000000995
210
0
220
-0
230
1
0
CIRCLE
5
138
100
AcDbEntity
8
0
100
AcDbCircle
10
-1161.0382814989212
20
-2060.2725848397336
30
5.5511151231257827e-16
40
2.0000000000000284
210
0
220
-0
230
1
0
CIRCLE
5
139
100
AcDbEntity
8
0
100
AcDbCircle
10
-765.11734454005614
20
-2321.6563387018186
30
5.5511151231257827e-16
40
2.0000000000000284
210
0
220
-0
230
1
0
CIRCLE
5
140
100
AcDbEntity
8
0
100
AcDbCircle
10
-1167.6097464646205
20
-2351.3858045081593
30
0
40
1.9999999999998863
210
0
220
-0
230
1
0
CIRCLE
5
141
100
AcDbEntity
8
0
100
AcDbCircle
10
-911.77045890057809
20
-2481.5935214314522
30
0
40
2.0000000000000284
210
0
220
-0
230
1
0
CIRCLE
5
142
100
AcDbEntity
8
0
100
AcDbCircle
10
-894.1569239621856
20
-2053.7011202698282
30
0
40
2.0000000000000639
210
0
220
-0
230
1
0
CIRCLE
5
143
100
AcDbEntity
8
0
100
AcDbCircle
10
-1022.6801570746479
20
-2051.3935282979078
30
0
40
1.9999999999999929
210
0
220
-0
230
1
0
CIRCLE
5
144
100
AcDbEntity
8
0
100
AcDbCircle
10
-773.60800671193385
20
-2473.1028592595749
30
-5.5511151231257827e-16
40
2.0000000000000284
210
0
220
-0
230
1
0
CIRCLE
5
145
100
AcDbEntity
8
0
100
AcDbCircle
10
-1169.9173384365408
20
-2210.7466402478804
30
-5.5511151231257827e-16
40
1.9999999999998863
210
0
220
-0
230
1
0
LWPOLYLINE
5
146
100
AcDbEntity
8
0
100
AcDbPolyline
90
12
70
1
43
0.0
10
-905.75797221433322
20
-2038.8935282979078
42
-0.19891236737965742
10
-875.48319537783129
20
-2051.4337514614053
10
-765.15756770355392
20
-2161.7593791356826
42
-0.19891236737965801
10
-752.61734454005602
20
-2192.0341559721846
10
-752.61734454005591
20
-2451.2785214314522
42
-0.41421356237309598
10
-795.43234454005631
20
-2494.0935214314527
10
-1028.1085732611
20
-2494.0935214314522
42
-0.19891236737965801
10
-1058.383350097602
20
-2481.5532982679542
10
-1169.877115273043
20
-2370.0595330925134
42
-0.19891236737965615
10
-1182.4173384365408
20
-2339.7847562560119
10
-1182.4173384365404
20
-2081.7085282979074
42
-0.41421356237309503
10
-1139.6023384365405
20
-2038.8935282979073
0
CIRCLE
5
147
100
AcDbEntity
8
0
100
AcDbCircle
10
-1039.2882740060838
20
-1948.8224705993446
30
-5.5511151231257827e-16
40
1.9999999999999574
210
0
220
-0
230
1
0
CIRCLE
5
148
100
AcDbEntity
8
0
100
AcDbCircle
10
-766.89601983165073
20
-1649.925092249433
30
-5.5511151231257827e-16
40
2.0000000000000995
210
0
220
-0
230
1
0
CIRCLE
5
149
100
AcDbEntity
8
0
100
AcDbCircle
10
-1160.6169339917572
20
-1529.809125979546
30
0
40
2.0000000000000284
210
0
220
-0
230
1
0
CIRCLE
5
150
100
AcDbEntity
8
0
100
AcDbCircle
10
-764.69599703289214
20
-1791.1928798416311
30
-5.5511151231257827e-16
40
2.0000000000000284
210
0
220
-0
230
1
0
CIRCLE
5
151
100
AcDbEntity
8
0
100
AcDbCircle
10
-1167.1883989574565
20
-1820.922345647972
30
0
40
1.9999999999998863
210
0
220
-0
230
1
0
CIRCLE
5
152
100
AcDbEntity
8
0
100
AcDbCircle
10
-911.3491113934142
20
-1951.1300625712649
30
-5.5511151231257827e-16
40
2.0000000000000284
210
0
220
-0
230
1
0
CIRCLE
5
153
100
AcDbEntity
8
0
100
AcDbCircle
10
-893.7355764550216
20
-1523.2376614096406
30
-5.5511151231257827e-16
40
2.0000000000000639
210
0
220
-0
230
1
0
CIRCLE
5
154
100
AcDbEntity
8
0
100
AcDbCircle
10
-1022.2588095674839
20
-1520.9300694377202
30
0
40
1.9999999999999929
210
0
220
-0
230
1
0
CIRCLE
5
155
100
AcDbEntity
8
0
100
AcDbCircle
10
-773.18665920476997
20
-1942.6394003993871
30
5.5511151231257827e-16
40
2.0000000000000284
210
0
220
-0
230
1
0
CIRCLE
5
156
100
AcDbEntity
8
0
100
AcDbCircle
10
-1169.4959909293768
20
-1680.2831813876928
30
0
40
1.9999999999998863
210
0
220
-0
230
1
0
LWPOLYLINE
5
157
100
AcDbEntity
8
0
100
AcDbPolyline
90
12
70
1
43
0.0
10
-905.33662470716922
20
-1508.4300694526212
42
-0.19891236737965662
10
-875.0618478812039
20
-1520.970292611755
10
-764.73622020692676
20
-1631.295920286032
42
-0.19891236737965845
10
-752.19599704779341
20
-1661.5706971119973
10
-752.19599704779341
20
-1920.8150625712653
42
-0.41421356237308926
10
-795.01099703289242
20
-1963.630062556364
10
-1027.6872257539362
20
-1963.6300625563636
42
-0.19891236737963816
10
-1057.9620025799015
20
-1951.08983939723
10
-1169.4557677553421
20
-1839.5960742217894
42
-0.19891236737965801
10
-1181.9959909144757
20
-1809.3212973958243
10
-1181.9959909144754
20
-1551.2450694377198
42
-0.41421356237310086
10
-1139.1809909293765
20
-1508.430069452621
0
CIRCLE
5
158
100
AcDbEntity
8
0
100
AcDbCircle
10
-409.38483512552511
20
-1451.9886959457538
30
0
40
2.0000000000000284
210
0
220
-0
230
1
0
CIRCLE
5
159
100
AcDbEntity
8
0
100
AcDbCircle
10
256.80487501390388
20
-1762.3755010649543
30
0
40
2.0000000000000284
210
0
220
-0
230
1
0
CIRCLE
5
160
100
AcDbEntity
8
0
100
AcDbCircle
10
-210.50554106098772
20
-1795.1409368531974
30
0
40
2.0000000000000995
210
0
220
-0
230
1
0
CIRCLE
5
161
100
AcDbEntity
8
0
100
AcDbCircle
10
-362.87030081158775
20
-1939.4319017915441
30
0
40
2.0000000000000995
210
0
220
-0
230
1
0
CIRCLE
5
162
100
AcDbEntity
8
0
100
AcDbCircle
10
249.04320471971189
20
-1933.6874238846681
30
0
40
2.0000000000000284
210
0
220
-0
230
1
0
CIRCLE
5
163
100
AcDbEntity
8
0
100
AcDbCircle
10
-148.06899711991576
20
-1448.4490942086627
30
0
40
2.0000000000000262
210
0
220
-0
230
1
0
CIRCLE
5
164
100
AcDbEntity
8
0
100
AcDbCircle
10
-549.40326751664452
20
-1592.0071283368734
30
0
40
2.0000000000000284
210
0
220
-0
230
1
0
CIRCLE
5
165
100
AcDbEntity
8
0
100
AcDbCircle
10
253.26527327681305
20
-1592.0071283368729
30
0
40
2.0000000000000284
210
0
220
-0
230
1
0
CIRCLE
5
166
100
AcDbEntity
8
0
100
AcDbCircle
10
-85.632453178843804
20
-1795.1409368531974
30
0
40
1.999999999999913
210
0
220
-0
230
1
0
CIRCLE
5
167
100
AcDbEntity
8
0
100
AcDbCircle
10
-545.18119895954328
20
-1933.6874238846685
30
0
40
2.0000000000000995
210
0
220
-0
230
1
0
CIRCLE
5
168
100
AcDbEntity
8
0
100
AcDbCircle
10
66.732306571756794
20
-1939.4319017915441
30
0
40
1.9999999999998863
210
0
220
-0
230
1
0
CIRCLE
5
169
100
AcDbEntity
8
0
100
AcDbCircle
10
113.24684088569363
20
-1451.9886959457535
30
0
40
1.9999999999999929
210
0
220
-0
230
1
0
CIRCLE
5
170
100
AcDbEntity
8
0
100
AcDbCircle
10
-552.94286925373535
20
-1762.3755010649547
30
0
40
2.0000000000000284
210
0
220
-0
230
1
0
LWPOLYLINE
5
171
100
AcDbEntity
8
0
100
AcDbPolyline
90
20
70
1
43
0.0
10
76.873417523728861
20
-1953.9490941788604
42
-0.19891236737965823
10
49.296253067990165
20
-1942.5262586495001
10
-78.736755521000759
20
-1814.4932500605094
42
0.19891236737964715
10
-104.19259965425326
20
-1803.9490941788606
10
-191.94539458557841
20
-1803.9490941788606
42
0.19891236737964671
10
-217.40123871883085
20
-1814.4932500605094
10
-345.43424730782237
20
-1942.5262586495005
42
-0.19891236737965431
10
-373.01141176356055
20
-1953.9490941788606
10
-526.44286926863651
20
-1953.9490941788606
42
-0.41421356237309503
10
-565.44286925373535
20
-1914.9490941937618
10
-565.44286925373547
20
-1609.8019079361475
42
-0.19891236737965845
10
-548.16216934810609
20
-1568.0826078566779
10
-433.30935560572021
20
-1453.229794114292
42
-0.19891236737965731
10
-391.59005552625075
20
-1435.9490942086629
10
95.452061286419337
20
-1435.9490942086622
42
-0.19891236737965731
10
137.17136136588886
20
-1453.2297941142917
10
252.02417510827456
20
-1568.0826078566774
42
-0.19891236737965845
10
269.30487501390388
20
-1609.8019079361472
10
269.30487501390394
20
-1914.9490941937615
42
-0.41421356237309503
10
230.3048750288051
20
-1953.9490941788604
0
CIRCLE
5
172
100
AcDbEntity
8
0
100
AcDbCircle
10
645.85465649011758
20
-1458.1849811799539
30
0
40
1.9999999999999574
210
0
220
0
230
1
0
CIRCLE
5
173
100
AcDbEntity
8
0
100
AcDbCircle
10
955.65470673039624
20
-1767.1994378714066
30
0
40
1.9999999999999929
210
0
220
0
230
1
0
CIRCLE
5
174
100
AcDbEntity
8
0
100
AcDbCircle
10
410.0582926560993
20
-1880.4837091188685
30
0
40
1.9999999999999574
210
0
220
0
230
1
0
CIRCLE
5
175
100
AcDbEntity
8
0
100
AcDbCircle
10
1073.1610465349595
20
-1644.6873452848502
30
0
40
2.0000000000000284
210
0
220
0
230
1
0
CIRCLE
5
176
100
AcDbEntity
8
0
100
AcDbCircle
10
523.3425639035612
20
-1575.691320984517
30
0
40
1.9999999999999929
210
0
220
0
230
1
0
CIRCLE
5
177
100
AcDbEntity
8
0
100
AcDbCircle
10
856.92504218817157
20
-1454.645379442863
30
0
40
1.9999999999999929
210
0
220
0
230
1
0
CIRCLE
5
178
100
AcDbEntity
8
0
100
AcDbCircle
10
833.14261414383975
20
-1884.7057776759698
30
0
40
2.0000000000000817
210
0
220
0
230
1
0
CIRCLE
5
179
100
AcDbEntity
8
0
100
AcDbCircle
10
622.07222844578587
20
-1888.2453794130606
30
0
40
1.9999999999999929
210
0
220
0
230
1
0
CIRCLE
5
180
100
AcDbEntity
8
0
100
AcDbCircle
10
1068.9389779778583
20
-1462.4070497370551
30
0
40
2.0000000000000284
210
0
220
0
230
1
0
CIRCLE
5
181
100
AcDbEntity
8
0
100
AcDbCircle
10
405.49838417462286
20
-1698.0115445387792
30
0
40
1.9999999999999574
210
0
220
0
230
1
0
LWPOLYLINE
5
182
100
AcDbEntity
8
0
100
AcDbPolyline
90
12
70
1
43
0.0
10
1089.200648286956
20
-1626.8925656855756
42
-0.19891236737965973
10
1071.9199483769621
20
-1668.6118657755824
10
857.06713463457641
20
-1883.4646795179679
42
-0.19891236737965892
10
815.34783454456999
20
-1900.7453794279618
10
428.79662234701044
20
-1900.7453794279616
42
-0.41421356237309503
10
389.7966223470105
20
-1861.7453794279618
10
389.79662234701038
20
-1715.9981931703473
42
-0.19891236737965776
10
407.07732225700425
20
-1674.278893080341
10
621.9301359993899
20
-1459.4260793379553
42
-0.19891236737965753
10
663.64943608939609
20
-1442.1453794279616
10
1050.2006482869558
20
-1442.1453794279616
42
-0.41421356237309503
10
1089.2006482869558
20
-1481.1453794279619
0
CIRCLE
5
183
100
AcDbEntity
8
0
100
AcDbCircle
10
1593.9443094826379
20
-1455.5932290734854
30
0
40
1.9999999999999574
210
0
220
-0
230
1
0
CIRCLE
5
184
100
AcDbEntity
8
0
100
AcDbCircle
10
1284.1442592423605
20
-1764.6076857649396
30
0
40
1.9999999999999929
210
0
220
-0
230
1
0
CIRCLE
5
185
100
AcDbEntity
8
0
100
AcDbCircle
10
1829.7406733166579
20
-1877.891957012399
30
0
40
1.9999999999999574
210
0
220
-0
230
1
0
CIRCLE
5
186
100
AcDbEntity
8
0
100
AcDbCircle
10
1166.6379194377967
20
-1642.0955931783833
30
0
40
2.0000000000000284
210
0
220
-0
230
1
0
CIRCLE
5
187
100
AcDbEntity
8
0
100
AcDbCircle
10
1716.4564020691951
20
-1573.0995688780479
30
0
40
1.9999999999999929
210
0
220
-0
230
1
0
CIRCLE
5
188
100
AcDbEntity
8
0
100
AcDbCircle
10
1382.8739237845839
20
-1452.0536273363953
30
0
40
1.9999999999999929
210
0
220
-0
230
1
0
CIRCLE
5
189
100
AcDbEntity
8
0
100
AcDbCircle
10
1406.6563518289174
20
-1882.1140255695022
30
0
40
2.0000000000000817
210
0
220
-0
230
1
0
CIRCLE
5
190
100
AcDbEntity
8
0
100
AcDbCircle
10
1617.7267375269712
20
-1885.6536273065922
30
0
40
1.9999999999999929
210
0
220
-0
230
1
0
CIRCLE
5
191
100
AcDbEntity
8
0
100
AcDbCircle
10
1170.8599879948972
20
-1459.8152976305882
30
0
40
2.0000000000000284
210
0
220
-0
230
1
0
CIRCLE
5
192
100
AcDbEntity
8
0
100
AcDbCircle
10
1834.3005817981336
20
-1695.4197924323098
30
0
40
1.9999999999999574
210
0
220
-0
230
1
0
LWPOLYLINE
5
193
100
AcDbEntity
8
0
100
AcDbPolyline
90
12
70
1
43
0.0
10
1167.8790175957986
20
-1666.020113669116
42
-0.19891236737965859
10
1150.5983176858047
20
-1624.3008135791094
10
1150.5983176858037
20
-1478.5536273214952
42
-0.4142135623730972
10
1189.598317685804
20
-1439.553627321495
10
1576.1495298833634
20
-1439.5536273214932
42
-0.19891236737965845
10
1617.8688299733699
20
-1456.8343272314869
10
1832.7216437157563
20
-1671.6871409738715
42
-0.19891236737965859
10
1850.0023436257504
20
-1713.406441063878
10
1850.0023436257511
20
-1859.1536273214922
42
-0.41421356237309503
10
1811.0023436257511
20
-1898.1536273214924
10
1424.451131428192
20
-1898.1536273214942
42
-0.1989123673796602
10
1382.7318313381852
20
-1880.8729274115003
0
CIRCLE
5
194
100
AcDbEntity
8
0
100
AcDbCircle
10
1638.100713677245
20
-871.54873669092717
30
0
40
1.9999999999999574
210
0
220
-0
230
1
0
CIRCLE
5
195
100
AcDbEntity
8
0
100
AcDbCircle
10
1328.3006634369679
20
-1180.5631933823815
30
0
40
1.9999999999999929
210
0
220
-0
230
1
0
CIRCLE
5
196
100
AcDbEntity
8
0
100
AcDbCircle
10
1873.8970775112653
20
-1293.8474646298409
30
0
40
1.9999999999999574
210
0
220
-0
230
1
0
CIRCLE
5
197
100
AcDbEntity
8
0
100
AcDbCircle
10
1210.794323632404
20
-1058.0511007958253
30
0
40
2.0000000000000284
210
0
220
-0
230
1
0
CIRCLE
5
198
100
AcDbEntity
8
0
100
AcDbCircle
10
1760.6128062638022
20
-989.05507649548986
30
0
40
1.9999999999999929
210
0
220
-0
230
1
0
CIRCLE
5
199
100
AcDbEntity
8
0
100
AcDbCircle
10
1427.0303279791913
20
-868.00913495383725
30
0
40
1.9999999999999929
210
0
220
-0
230
1
0
CIRCLE
5
200
100
AcDbEntity
8
0
100
AcDbCircle
10
1450.8127560235248
20
-1298.0695331869442
30
0
40
2.0000000000000817
210
0
220
-0
230
1
0
CIRCLE
5
201
100
AcDbEntity
8
0
100
AcDbCircle
10
1661.883141721579
20
-1301.6091349240342
30
0
40
1.9999999999999929
210
0
220
-0
230
1
0
CIRCLE
5
202
100
AcDbEntity
8
0
100
AcDbCircle
10
1215.0163921895046
20
-875.77080524803023
30
0
40
2.0000000000000284
210
0
220
-0
230
1
0
CIRCLE
5
203
100
AcDbEntity
8
0
100
AcDbCircle
10
1878.456985992741
20
-1111.3753000497516
30
0
40
1.9999999999999574
210
0
220
-0
230
1
0
CIRCLE
5
204
100
AcDbEntity
8
0
100
AcDbCircle
10
1565.2453386721891
20
-1329.609134931485
30
0
40
1.9999999999999996
210
0
220
-0
230
1
0
CIRCLE
5
205
100
AcDbEntity
8
0
100
AcDbCircle
10
1362.2148769940732
20
-1254.0753866964692
30
0
40
2.0000000000000639
210
0
220
-0
230
1
0
CIRCLE
5
206
100
AcDbEntity
8
0
100
AcDbCircle
10
1184.9256967152046
20
-1068.7662369048994
30
0
40
1.9999999999999574
210
0
220
-0
230
1
0
CIRCLE
5
207
100
AcDbEntity
8
0
100
AcDbCircle
10
1179.2547218878622
20
-930.94593150334072
30
0
40
2.0000000000000284
210
0
220
-0
230
1
0
CIRCLE
5
208
100
AcDbEntity
8
0
100
AcDbCircle
10
1330.3925249298009
20
-840.00913494638723
30
0
40
1.9999999999999574
210
0
220
-0
230
1
0
CIRCLE
5
209
100
AcDbEntity
8
0
100
AcDbCircle
10
1648.8158497863187
20
-845.68010977372774
30
0
40
1.9999999999999574
210
0
220
-0
230
1
0
CIRCLE
5
210
100
AcDbEntity
8
0
100
AcDbCircle
10
1833.9482228799598
20
-1022.7925133546637
30
0
40
1.9999999999999929
210
0
220
-0
230
1
0
CIRCLE
5
211
100
AcDbEntity
8
0
100
AcDbCircle
10
1909.6587478129077
20
-1202.235541810127
30
0
40
2.0000000000000284
210
0
220
-0
230
1
0
CIRCLE
5
212
100
AcDbEntity
8
0
100
AcDbCircle
10
1855.1587478203589
20
-1329.6091349314838
30
0
40
1.9999999999999929
210
0
220
-0
230
1
0
CIRCLE
5
213
100
AcDbEntity
8
0
100
AcDbCircle
10
1909.6587478129077
20
-1238.6723383745307
30
0
40
2.0000000000000284
210
0
220
-0
230
1
0
CIRCLE
5
214
100
AcDbEntity
8
0
100
AcDbCircle
10
1887.4846496176256
20
-1076.328940092329
30
0
40
1.9999999999999574
210
0
220
-0
230
1
0
CIRCLE
5
215
100
AcDbEntity
8
0
100
AcDbCircle
10
1672.9853892711003
20
-861.82967974580549
30
0
40
1.9999999999999751
210
0
220
-0
230
1
0
CIRCLE
5
216
100
AcDbEntity
8
0
100
AcDbCircle
10
1427.030327979191
20
-840.00913494638667
30
0
40
2.0000000000000284
210
0
220
-0
230
1
0
CIRCLE
5
217
100
AcDbEntity
8
0
100
AcDbCircle
10
1179.2547218878619
20
-894.50913493893722
30
0
40
2.0000000000000284
210
0
220
-0
230
1
0
CIRCLE
5
218
100
AcDbEntity
8
0
100
AcDbCircle
10
1179.2547218878626
20
-1040.2563211965514
30
0
40
1.9999999999998863
210
0
220
-0
230
1
0
CIRCLE
5
219
100
AcDbEntity
8
0
100
AcDbCircle
10
1308.5016735584761
20
-1200.3621832608728
30
0
40
1.9999999999999929
210
0
220
-0
230
1
0
CIRCLE
5
220
100
AcDbEntity
8
0
100
AcDbCircle
10
1468.6075356227993
20
-1329.6091349314856
30
0
40
2.0000000000000462
210
0
220
-0
230
1
0
CIRCLE
5
221
100
AcDbEntity
8
0
100
AcDbCircle
10
1661.883141721579
20
-1329.6091349314847
30
0
40
1.9999999999999929
210
0
220
-0
230
1
0
CIRCLE
5
222
100
AcDbEntity
8
0
100
AcDbCircle
10
1415.9280804296695
20
-1307.7885901320653
30
0
40
2.0000000000000995
210
0
220
-0
230
1
0
CIRCLE
5
223
100
AcDbEntity
8
0
100
AcDbCircle
10
1201.0752666872829
20
-1092.935776389681
30
0
40
2.0000000000000995
210
0
220
-0
230
1
0
CIRCLE
5
224
100
AcDbEntity
8
0
100
AcDbCircle
10
1179.2547218878624
20
-967.38272806774432
30
0
40
1.9999999999999574
210
0
220
-0
230
1
0
CIRCLE
5
225
100
AcDbEntity
8
0
100
AcDbCircle
10
1233.7547218804111
20
-840.00913494638758
30
0
40
2.0000000000000284
210
0
220
-0
230
1
0
CIRCLE
5
226
100
AcDbEntity
8
0
100
AcDbCircle
10
1620.305934077971
20
-840.0091349463861
30
0
40
2.0000000000000018
210
0
220
-0
230
1
0
CIRCLE
5
227
100
AcDbEntity
8
0
100
AcDbCircle
10
1780.4117961422937
20
-969.25608661699812
30
0
40
2.0000000000000284
210
0
220
-0
230
1
0
CIRCLE
5
228
100
AcDbEntity
8
0
100
AcDbCircle
10
1909.6587478129074
20
-1165.7987452457235
30
0
40
2.0000000000000284
210
0
220
-0
230
1
0
CIRCLE
5
229
100
AcDbEntity
8
0
100
AcDbCircle
10
1893.6960673897574
20
-1313.6464545083325
30
0
40
2.0000000000000284
210
0
220
-0
230
1
0
CIRCLE
5
230
100
AcDbEntity
8
0
100
AcDbCircle
10
1909.6587478129077
20
-1275.1091349389342
30
0
40
2.0000000000000284
210
0
220
-0
230
1
0
CIRCLE
5
231
100
AcDbEntity
8
0
100
AcDbCircle
10
1909.6587478129072
20
-1129.36194868132
30
0
40
1.9999999999998863
210
0
220
-0
230
1
0
CIRCLE
5
232
100
AcDbEntity
8
0
100
AcDbCircle
10
1726.6985927066969
20
-915.54288318140175
30
0
40
2.0000000000000639
210
0
220
-0
230
1
0
CIRCLE
5
233
100
AcDbEntity
8
0
100
AcDbCircle
10
1523.6681310285808
20
-840.0091349463861
30
0
40
2.0000000000000062
210
0
220
-0
230
1
0
CIRCLE
5
234
100
AcDbEntity
8
0
100
AcDbCircle
10
1195.2174023110128
20
-855.97181536953849
30
0
40
1.9999999999999574
210
0
220
-0
230
1
0
CIRCLE
5
235
100
AcDbEntity
8
0
100
AcDbCircle
10
1179.2547218878624
20
-1003.8195246321479
30
0
40
1.9999999999998863
210
0
220
-0
230
1
0
CIRCLE
5
236
100
AcDbEntity
8
0
100
AcDbCircle
10
1254.7884701228795
20
-1146.6489798252769
30
0
40
2.0000000000000639
210
0
220
-0
230
1
0
CIRCLE
5
237
100
AcDbEntity
8
0
100
AcDbCircle
10
1440.0976199144516
20
-1323.9381601041437
30
0
40
2.0000000000000462
210
0
220
-0
230
1
0
CIRCLE
5
238
100
AcDbEntity
8
0
100
AcDbCircle
10
1758.520944770969
20
-1329.609134931484
30
0
40
2.0000000000000995
210
0
220
-0
230
1
0
LWPOLYLINE
5
239
100
AcDbEntity
8
0
100
AcDbPolyline
90
12
70
1
43
0.0
10
1190.1151115736229
20
-1103.8959315033408
42
-0.19891236737965765
10
1163.754721880412
20
-1040.2563211965517
10
1163.7547218804114
20
-894.50913493893722
42
-0.41421356237309503
10
1233.7547218804111
20
-824.509134938937
10
1620.305934077971
20
-824.5091349389354
42
-0.19891236737965706
10
1683.9455443847601
20
-850.86952463214573
10
1898.7983581271467
20
-1065.7223383745306
42
-0.19891236737965845
10
1925.1587478203578
20
-1129.36194868132
10
1925.1587478203583
20
-1275.1091349389342
42
-0.41421356237309387
10
1855.1587478203589
20
-1345.1091349389344
10
1468.6075356227991
20
-1345.1091349389364
42
-0.19891236737965859
10
1404.9679253160095
20
-1318.7487452457253
0
CIRCLE
5
240
100
AcDbEntity
8
0
100
AcDbCircle
10
619.10975818189695
20
-884.76048668340286
30
0
40
1.9999999999999574
210
-0
220
0
230
1
0
CIRCLE
5
241
100
AcDbEntity
8
0
100
AcDbCircle
10
928.90980842217687
20
-1193.7749433748545
30
0
40
1.9999999999999929
210
-0
220
0
230
1
0
CIRCLE
5
242
100
AcDbEntity
8
0
100
AcDbCircle
10
383.31339434788049
20
-1307.0592146223184
30
0
40
1.9999999999999574
210
-0
220
0
230
1
0
CIRCLE
5
243
100
AcDbEntity
8
0
100
AcDbCircle
10
1046.4161482267398
20
-1071.2628507882973
30
0
40
2.0000000000000284
210
-0
220
0
230
1
0
CIRCLE
5
244
100
AcDbEntity
8
0
100
AcDbCircle
10
496.59766559534097
20
-1002.2668264879665
30
0
40
1.9999999999999929
210
-0
220
0
230
1
0
CIRCLE
5
245
100
AcDbEntity
8
0
100
AcDbCircle
10
830.18014387995106
20
-881.22088494631112
30
0
40
1.9999999999999929
210
-0
220
0
230
1
0
CIRCLE
5
246
100
AcDbEntity
8
0
100
AcDbCircle
10
806.39771583562094
20
-1311.2812831794181
30
0
40
2.0000000000000817
210
-0
220
0
230
1
0
CIRCLE
5
247
100
AcDbEntity
8
0
100
AcDbCircle
10
595.32733013756695
20
-1314.8208849165098
30
0
40
1.9999999999999929
210
-0
220
0
230
1
0
CIRCLE
5
248
100
AcDbEntity
8
0
100
AcDbCircle
10
1042.1940796696376
20
-888.98255524050217
30
0
40
2.0000000000000284
210
-0
220
0
230
1
0
CIRCLE
5
249
100
AcDbEntity
8
0
100
AcDbCircle
10
378.7534858664032
20
-1124.5870500422293
30
0
40
1.9999999999999574
210
-0
220
0
230
1
0
CIRCLE
5
250
100
AcDbEntity
8
0
100
AcDbCircle
10
691.9651331869569
20
-1342.82088492396
30
0
40
1.9999999999999996
210
-0
220
0
230
1
0
CIRCLE
5
251
100
AcDbEntity
8
0
100
AcDbCircle
10
894.99559486507246
20
-1267.2871366889424
30
0
40
2.0000000000000639
210
-0
220
0
230
1
0
CIRCLE
5
252
100
AcDbEntity
8
0
100
AcDbCircle
10
1072.2847751439392
20
-1081.977986897371
30
0
40
1.9999999999999574
210
-0
220
0
230
1
0
CIRCLE
5
253
100
AcDbEntity
8
0
100
AcDbCircle
10
1077.9557499712805
20
-944.15768149581243
30
0
40
2.0000000000000284
210
-0
220
0
230
1
0
CIRCLE
5
254
100
AcDbEntity
8
0
100
AcDbCircle
10
926.81794692934079
20
-853.22088493886008
30
0
40
1.9999999999999574
210
-0
220
0
230
1
0
CIRCLE
5
255
100
AcDbEntity
8
0
100
AcDbCircle
10
608.39462207282315
20
-858.89185976620342
30
0
40
1.9999999999999574
210
-0
220
0
230
1
0
CIRCLE
5
256
100
AcDbEntity
8
0
100
AcDbCircle
10
423.26224897918382
20
-1036.0042633471407
30
0
40
1.9999999999999929
210
-0
220
0
230
1
0
CIRCLE
5
257
100
AcDbEntity
8
0
100
AcDbCircle
10
347.5517240462375
20
-1215.4472918026047
30
0
40
2.0000000000000284
210
-0
220
0
230
1
0
CIRCLE
5
258
100
AcDbEntity
8
0
100
AcDbCircle
10
402.05172403878737
20
-1342.8208849239613
30
0
40
1.9999999999999929
210
-0
220
0
230
1
0
CIRCLE
5
259
100
AcDbEntity
8
0
100
AcDbCircle
10
347.55172404623761
20
-1251.8840883670082
30
0
40
2.0000000000000284
210
-0
220
0
230
1
0
CIRCLE
5
260
100
AcDbEntity
8
0
100
AcDbCircle
10
369.72582224151842
20
-1089.5406900848068
30
0
40
1.9999999999999574
210
-0
220
0
230
1
0
CIRCLE
5
261
100
AcDbEntity
8
0
100
AcDbCircle
10
584.2250825880418
20
-875.04142973828152
30
0
40
1.9999999999999751
210
-0
220
0
230
1
0
CIRCLE
5
262
100
AcDbEntity
8
0
100
AcDbCircle
10
830.18014387995095
20
-853.22088493886054
30
0
40
2.0000000000000284
210
-0
220
0
230
1
0
CIRCLE
5
263
100
AcDbEntity
8
0
100
AcDbCircle
10
1077.9557499712805
20
-907.72088493140882
30
0
40
2.0000000000000284
210
-0
220
0
230
1
0
CIRCLE
5
264
100
AcDbEntity
8
0
100
AcDbCircle
10
1077.955749971281
20
-1053.4680711890232
30
0
40
1.9999999999998863
210
-0
220
0
230
1
0
CIRCLE
5
265
100
AcDbEntity
8
0
100
AcDbCircle
10
948.70879830066872
20
-1213.5739332533458
30
0
40
1.9999999999999929
210
-0
220
0
230
1
0
CIRCLE
5
266
100
AcDbEntity
8
0
100
AcDbCircle
10
788.60293623634675
20
-1342.8208849239595
30
0
40
2.0000000000000462
210
-0
220
0
230
1
0
CIRCLE
5
267
100
AcDbEntity
8
0
100
AcDbCircle
10
595.32733013756706
20
-1342.8208849239604
30
0
40
1.9999999999999929
210
-0
220
0
230
1
0
CIRCLE
5
268
100
AcDbEntity
8
0
100
AcDbCircle
10
841.28239142947621
20
-1321.000340124539
30
0
40
2.0000000000000995
210
-0
220
0
230
1
0
CIRCLE
5
269
100
AcDbEntity
8
0
100
AcDbCircle
10
1056.1352051718611
20
-1106.1475263821526
30
0
40
2.0000000000000995
210
-0
220
0
230
1
0
CIRCLE
5
270
100
AcDbEntity
8
0
100
AcDbCircle
10
1077.9557499712807
20
-980.59447806021592
30
0
40
1.9999999999999574
210
-0
220
0
230
1
0
CIRCLE
5
271
100
AcDbEntity
8
0
100
AcDbCircle
10
1023.4557499787308
20
-853.22088493885974
30
0
40
2.0000000000000284
210
-0
220
0
230
1
0
CIRCLE
5
272
100
AcDbEntity
8
0
100
AcDbCircle
10
636.90453778117114
20
-853.22088493886122
30
0
40
2.0000000000000018
210
-0
220
0
230
1
0
CIRCLE
5
273
100
AcDbEntity
8
0
100
AcDbCircle
10
476.79867571684923
20
-982.46783660947483
30
0
40
2.0000000000000284
210
-0
220
0
230
1
0
CIRCLE
5
274
100
AcDbEntity
8
0
100
AcDbCircle
10
347.55172404623738
20
-1179.0104952382012
30
0
40
2.0000000000000284
210
-0
220
0
230
1
0
CIRCLE
5
275
100
AcDbEntity
8
0
100
AcDbCircle
10
363.51440446938886
20
-1326.8582045008102
30
0
40
2.0000000000000284
210
-0
220
0
230
1
0
CIRCLE
5
276
100
AcDbEntity
8
0
100
AcDbCircle
10
347.55172404623778
20
-1288.3208849314119
30
0
40
2.0000000000000284
210
-0
220
0
230
1
0
CIRCLE
5
277
100
AcDbEntity
8
0
100
AcDbCircle
10
347.55172404623721
20
-1142.5736986737977
30
0
40
1.9999999999998863
210
-0
220
0
230
1
0
CIRCLE
5
278
100
AcDbEntity
8
0
100
AcDbCircle
10
530.51187915244543
20
-928.75463317387812
30
0
40
2.0000000000000639
210
-0
220
0
230
1
0
CIRCLE
5
279
100
AcDbEntity
8
0
100
AcDbCircle
10
733.54234083056099
20
-853.22088493886088
30
0
40
2.0000000000000062
210
-0
220
0
230
1
0
CIRCLE
5
280
100
AcDbEntity
8
0
100
AcDbCircle
10
1061.9930695481294
20
-869.18356536201043
30
0
40
1.9999999999999574
210
-0
220
0
230
1
0
CIRCLE
5
281
100
AcDbEntity
8
0
100
AcDbCircle
10
1077.955749971281
20
-1017.0312746246196
30
0
40
1.9999999999998863
210
-0
220
0
230
1
0
CIRCLE
5
282
100
AcDbEntity
8
0
100
AcDbCircle
10
1002.422001736265
20
-1159.8607298177492
30
0
40
2.0000000000000639
210
-0
220
0
230
1
0
CIRCLE
5
283
100
AcDbEntity
8
0
100
AcDbCircle
10
817.11285194469485
20
-1337.1499100966173
30
0
40
2.0000000000000462
210
-0
220
0
230
1
0
CIRCLE
5
284
100
AcDbEntity
8
0
100
AcDbCircle
10
498.68952708817721
20
-1342.8208849239606
30
0
40
2.0000000000000995
210
-0
220
0
230
1
0
LWPOLYLINE
5
285
100
AcDbEntity
8
0
100
AcDbPolyline
90
12
70
1
43
0.0
10
852.24254654314063
20
-1331.9604952381992
42
-0.1989123673796587
10
788.6029362363513
20
-1358.3208849314101
10
402.05172403879175
20
-1358.3208849314119
42
-0.41421356237309503
10
332.05172403879146
20
-1288.3208849314121
10
332.05172403879095
20
-1142.5736986737977
42
-0.19891236737965776
10
358.41211373200139
20
-1078.9340883670084
10
573.26492747438613
20
-864.08127462462176
42
-0.19891236737965812
10
636.90453778117535
20
-837.72088493141064
10
1023.455749978735
20
-837.72088493140916
42
-0.41421356237309503
10
1093.4557499787352
20
-907.72088493140882
10
1093.4557499787356
20
-1053.468071189023
42
-0.19891236737965812
10
1067.0953602855254
20
-1117.1076814958124
0
CIRCLE
5
286
100
AcDbEntity
8
0
100
AcDbCircle
10
-432.84777039995186
20
-862.31136236556245
30
0
40
2.0000000000000284
210
0
220
-0
230
1
0
CIRCLE
5
287
100
AcDbEntity
8
0
100
AcDbCircle
10
233.34193973947706
20
-1172.6981674847634
30
0
40
2.0000000000000284
210
0
220
-0
230
1
0
CIRCLE
5
288
100
AcDbEntity
8
0
100
AcDbCircle
10
-233.96847633541455
20
-1205.4636032730061
30
0
40
2.0000000000000995
210
0
220
-0
230
1
0
CIRCLE
5
289
100
AcDbEntity
8
0
100
AcDbCircle
10
-386.33323608601484
20
-1349.7545682113528
30
0
40
2.0000000000000995
210
0
220
-0
230
1
0
CIRCLE
5
290
100
AcDbEntity
8
0
100
AcDbCircle
10
225.58026944528493
20
-1344.0100903044772
30
0
40
2.0000000000000284
210
0
220
-0
230
1
0
CIRCLE
5
291
100
AcDbEntity
8
0
100
AcDbCircle
10
-171.53193239434259
20
-858.77176062847161
30
0
40
2.0000000000000262
210
0
220
-0
230
1
0
CIRCLE
5
292
100
AcDbEntity
8
0
100
AcDbCircle
10
-572.86620279107126
20
-1002.3297947566817
30
0
40
2.0000000000000284
210
0
220
-0
230
1
0
CIRCLE
5
293
100
AcDbEntity
8
0
100
AcDbCircle
10
229.80233800238622
20
-1002.3297947566823
30
0
40
2.0000000000000284
210
0
220
-0
230
1
0
CIRCLE
5
294
100
AcDbEntity
8
0
100
AcDbCircle
10
-109.09538845327077
20
-1205.4636032730061
30
0
40
1.999999999999913
210
0
220
-0
230
1
0
CIRCLE
5
295
100
AcDbEntity
8
0
100
AcDbCircle
10
-568.64413423397025
20
-1344.0100903044772
30
0
40
2.0000000000000995
210
0
220
-0
230
1
0
CIRCLE
5
296
100
AcDbEntity
8
0
100
AcDbCircle
10
43.269371297329684
20
-1349.7545682113528
30
0
40
1.9999999999998863
210
0
220
-0
230
1
0
CIRCLE
5
297
100
AcDbEntity
8
0
100
AcDbCircle
10
89.783905611266732
20
-862.31136236556245
30
0
40
1.9999999999999929
210
0
220
-0
230
1
0
CIRCLE
5
298
100
AcDbEntity
8
0
100
AcDbCircle
10
-576.40580452816221
20
-1172.6981674847634
30
0
40
2.0000000000000284
210
0
220
-0
230
1
0
CIRCLE
5
299
100
AcDbEntity
8
0
100
AcDbCircle
10
124.66858120512185
20
-852.59230542044088
30
0
40
2.0000000000000639
210
0
220
-0
230
1
0
CIRCLE
5
300
100
AcDbEntity
8
0
100
AcDbCircle
10
-525.15885286499974
20
-910.01871229163373
30
0
40
2.0000000000000284
210
0
220
-0
230
1
0
CIRCLE
5
301
100
AcDbEntity
8
0
100
AcDbCircle
10
-49.771403191175096
20
-830.77176062102103
30
0
40
1.9999999999999929
210
0
220
-0
230
1
0
CIRCLE
5
302
100
AcDbEntity
8
0
100
AcDbCircle
10
-604.40580453561279
20
-1248.984964049167
30
0
40
1.9999999999998863
210
0
220
-0
230
1
0
CIRCLE
5
303
100
AcDbEntity
8
0
100
AcDbCircle
10
-582.5852597361926
20
-967.44511916282647
30
0
40
1.9999999999999574
210
0
220
-0
230
1
0
CIRCLE
5
304
100
AcDbEntity
8
0
100
AcDbCircle
10
-604.40580453561279
20
-1096.4113709203596
30
0
40
1.9999999999998863
210
0
220
-0
230
1
0
CIRCLE
5
305
100
AcDbEntity
8
0
100
AcDbCircle
10
261.34193974692766
20
-1020.1245743559562
30
0
40
1.9999999999998863
210
0
220
-0
230
1
0
CIRCLE
5
306
100
AcDbEntity
8
0
100
AcDbCircle
10
206.84193975437822
20
-1379.7717606061199
30
0
40
1.9999999999999574
210
0
220
-0
230
1
0
CIRCLE
5
307
100
AcDbEntity
8
0
100
AcDbCircle
10
-49.143341614591805
20
-1299.7925758884733
30
0
40
2.0000000000000462
210
0
220
-0
230
1
0
CIRCLE
5
308
100
AcDbEntity
8
0
100
AcDbCircle
10
-604.4058045356129
20
-1325.2717606135705
30
0
40
1.9999999999998863
210
0
220
-0
230
1
0
CIRCLE
5
309
100
AcDbEntity
8
0
100
AcDbCircle
10
14.8731626799038
20
-1363.8090801829694
30
0
40
1.9999999999999574
210
0
220
-0
230
1
0
CIRCLE
5
310
100
AcDbEntity
8
0
100
AcDbCircle
10
53.410482249302191
20
-1379.7717606061199
30
0
40
1.9999999999999929
210
0
220
-0
230
1
0
CIRCLE
5
311
100
AcDbEntity
8
0
100
AcDbCircle
10
130.12621100184006
20
-1379.7717606061199
30
0
40
2.0000000000000995
210
0
220
-0
230
1
0
CIRCLE
5
312
100
AcDbEntity
8
0
100
AcDbCircle
10
-604.40580453561279
20
-1172.6981674847634
30
0
40
1.9999999999999574
210
0
220
-0
230
1
0
CIRCLE
5
313
100
AcDbEntity
8
0
100
AcDbCircle
10
-357.93702746858884
20
-1363.8090801829687
30
0
40
2.0000000000000639
210
0
220
-0
230
1
0
CIRCLE
5
314
100
AcDbEntity
8
0
100
AcDbCircle
10
182.09498807631491
20
-910.01871229163396
30
0
40
2.0000000000000284
210
0
220
-0
230
1
0
CIRCLE
5
315
100
AcDbEntity
8
0
100
AcDbCircle
10
100.49904172034033
20
-836.44273544836301
30
0
40
1.9999999999999574
210
0
220
-0
230
1
0
CIRCLE
5
316
100
AcDbEntity
8
0
100
AcDbCircle
10
71.989126011992397
20
-830.77176062102103
30
0
40
2.0000000000000284
210
0
220
-0
230
1
0
CIRCLE
5
317
100
AcDbEntity
8
0
100
AcDbCircle
10
-113.15984590908755
20
-1235.7760715939778
30
0
40
2.0000000000000551
210
0
220
-0
230
1
0
CIRCLE
5
318
100
AcDbEntity
8
0
100
AcDbCircle
10
-229.90401887959806
20
-1235.7760715939778
30
0
40
2.0000000000000373
210
0
220
-0
230
1
0
CIRCLE
5
319
100
AcDbEntity
8
0
100
AcDbCircle
10
-443.56290650902565
20
-836.44273544836301
30
0
40
1.9999999999999574
210
0
220
-0
230
1
0
CIRCLE
5
320
100
AcDbEntity
8
0
100
AcDbCircle
10
-415.05299080067755
20
-830.77176062102103
30
0
40
1.9999999999999929
210
0
220
-0
230
1
0
CIRCLE
5
321
100
AcDbEntity
8
0
100
AcDbCircle
10
-396.4743470379874
20
-1379.7717606061199
30
0
40
1.9999999999999929
210
0
220
-0
230
1
0
CIRCLE
5
322
100
AcDbEntity
8
0
100
AcDbCircle
10
-598.73482970827069
20
-991.61465864760794
30
0
40
2.0000000000000284
210
0
220
-0
230
1
0
CIRCLE
5
323
100
AcDbEntity
8
0
100
AcDbCircle
10
-473.19007579052538
20
-1379.7717606061199
30
0
40
1.9999999999999574
210
0
220
-0
230
1
0
CIRCLE
5
324
100
AcDbEntity
8
0
100
AcDbCircle
10
239.52139494750767
20
-967.44511916282704
30
0
40
1.9999999999999574
210
0
220
-0
230
1
0
CIRCLE
5
325
100
AcDbEntity
8
0
100
AcDbCircle
10
245.37925932377661
20
-1363.8090801829687
30
0
40
1.9999999999999574
210
0
220
-0
230
1
0
CIRCLE
5
326
100
AcDbEntity
8
0
100
AcDbCircle
10
-171.53193239434273
20
-1229.7717606061199
30
0
40
2.0000000000000111
210
0
220
-0
230
1
0
CIRCLE
5
327
100
AcDbEntity
8
0
100
AcDbCircle
10
261.34193974692766
20
-1325.2717606135705
30
0
40
2.0000000000000284
210
0
220
-0
230
1
0
CIRCLE
5
328
100
AcDbEntity
8
0
100
AcDbCircle
10
255.67096491958594
20
-991.61465864760862
30
0
40
2.0000000000000284
210
0
220
-0
230
1
0
CIRCLE
5
329
100
AcDbEntity
8
0
100
AcDbCircle
10
261.34193974692766
20
-1172.6981674847634
30
0
40
1.9999999999999574
210
0
220
-0
230
1
0
CIRCLE
5
330
100
AcDbEntity
8
0
100
AcDbCircle
10
-588.44312411246187
20
-1363.8090801829687
30
0
40
2.0000000000000284
210
0
220
-0
230
1
0
CIRCLE
5
331
100
AcDbEntity
8
0
100
AcDbCircle
10
-604.40580453561279
20
-1020.1245743559562
30
0
40
2.0000000000000284
210
0
220
-0
230
1
0
CIRCLE
5
332
100
AcDbEntity
8
0
100
AcDbCircle
10
-293.92052317409338
20
-1299.7925758884733
30
0
40
1.9999999999999929
210
0
220
-0
230
1
0
CIRCLE
5
333
100
AcDbEntity
8
0
100
AcDbCircle
10
-467.732445993807
20
-852.59230542044088
30
0
40
1.9999999999999929
210
0
220
-0
230
1
0
CIRCLE
5
334
100
AcDbEntity
8
0
100
AcDbCircle
10
-171.53193239434259
20
-830.77176062102103
30
0
40
2.0000000000000187
210
0
220
-0
230
1
0
CIRCLE
5
335
100
AcDbEntity
8
0
100
AcDbCircle
10
-293.29246159751006
20
-830.77176062102103
30
0
40
2.0000000000000284
210
0
220
-0
230
1
0
CIRCLE
5
336
100
AcDbEntity
8
0
100
AcDbCircle
10
-549.90580454306348
20
-1379.7717606061199
30
0
40
2.0000000000000284
210
0
220
-0
230
1
0
LWPOLYLINE
5
337
100
AcDbEntity
8
0
100
AcDbPolyline
90
20
70
1
43
0.0
10
53.410482249301893
20
-1395.2717606135702
42
-0.19891236737965859
10
3.9130075662435182
20
-1374.7692352966285
10
-124.12000102274716
20
-1246.7362267076378
42
0.1989123673796491
10
-127.65553492868008
20
-1245.2717606135705
10
-215.40832986000487
20
-1245.2717606135705
42
0.19891236737963863
10
-218.943863765938
20
-1246.7362267076376
10
-346.9768723549297
20
-1374.7692352966292
42
-0.19891236737965592
10
-396.47434703798763
20
-1395.2717606135705
10
-549.90580454306348
20
-1395.2717606135705
42
-0.41421356237309503
10
-619.90580454306348
20
-1325.2717606135705
10
-619.90580454306348
20
-1020.1245743559562
42
-0.19891236737965859
10
-593.54541484985259
20
-956.48496404916671
10
-478.69260110746677
20
-841.632150306781
42
-0.19891236737965776
10
-415.05299080067755
20
-815.27176061357045
10
71.98912601199244
20
-815.27176061357045
42
-0.19891236737965753
10
135.62873631878162
20
-841.632150306781
10
250.48155006116744
20
-956.48496404916682
42
-0.19891236737965823
10
276.84193975437825
20
-1020.1245743559562
10
276.84193975437825
20
-1325.2717606135705
42
-0.41421356237309503
10
206.84193975437822
20
-1395.2717606135705
0
CIRCLE
5
338
100
AcDbEntity
8
0
100
AcDbCircle
10
-1066.4004590857164
20
-1348.8088429673662
30
0
40
1.9999999999999574
210
0
220
-0
230
1
0
CIRCLE
5
339
100
AcDbEntity
8
0
100
AcDbCircle
10
-794.00820491128331
20
-1049.9114646174544
30
0
40
2.0000000000000995
210
0
220
-0
230
1
0
CIRCLE
5
340
100
AcDbEntity
8
0
100
AcDbCircle
10
-1187.72911907139
20
-929.79549834756756
30
0
40
2.0000000000000284
210
0
220
-0
230
1
0
CIRCLE
5
341
100
AcDbEntity
8
0
100
AcDbCircle
10
-791.80818211252472
20
-1191.1792522096525
30
0
40
2.0000000000000284
210
0
220
-0
230
1
0
CIRCLE
5
342
100
AcDbEntity
8
0
100
AcDbCircle
10
-1194.300584037089
20
-1220.9087180159936
30
0
40
1.9999999999998863
210
0
220
-0
230
1
0
CIRCLE
5
343
100
AcDbEntity
8
0
100
AcDbCircle
10
-938.46129647304667
20
-1351.1164349392861
30
0
40
2.0000000000000284
210
0
220
-0
230
1
0
CIRCLE
5
344
100
AcDbEntity
8
0
100
AcDbCircle
10
-920.84776153465418
20
-923.22403377766204
30
0
40
2.0000000000000639
210
0
220
-0
230
1
0
CIRCLE
5
345
100
AcDbEntity
8
0
100
AcDbCircle
10
-1049.3709946471165
20
-920.91644180574167
30
0
40
1.9999999999999929
210
0
220
-0
230
1
0
CIRCLE
5
346
100
AcDbEntity
8
0
100
AcDbCircle
10
-800.29884428440255
20
-1342.6257727674088
30
0
40
2.0000000000000284
210
0
220
-0
230
1
0
CIRCLE
5
347
100
AcDbEntity
8
0
100
AcDbCircle
10
-1196.6081760090092
20
-1080.2695537557142
30
0
40
1.9999999999998863
210
0
220
-0
230
1
0
CIRCLE
5
348
100
AcDbEntity
8
0
100
AcDbCircle
10
-1166.2931760090091
20
-892.91644180574156
30
0
40
2.0000000000000018
210
0
220
-0
230
1
0
CIRCLE
5
349
100
AcDbEntity
8
0
100
AcDbCircle
10
-836.05106400476973
20
-965.15932369798679
30
0
40
1.9999999999999929
210
0
220
-0
230
1
0
CIRCLE
5
350
100
AcDbEntity
8
0
100
AcDbCircle
10
-938.46129647304679
20
-1379.1164349392864
30
0
40
2.0000000000000284
210
0
220
-0
230
1
0
CIRCLE
5
351
100
AcDbEntity
8
0
100
AcDbCircle
10
-996.63035365330768
20
-1379.1164349392864
30
0
40
1.9999999999999396
210
0
220
-0
230
1
0
CIRCLE
5
352
100
AcDbEntity
8
0
100
AcDbCircle
10
-1224.6081760090092
20
-951.23144180574127
30
0
40
2.0000000000000462
210
0
220
-0
230
1
0
CIRCLE
5
353
100
AcDbEntity
8
0
100
AcDbCircle
10
-808.46965708620041
20
-992.74073061655611
30
0
40
1.9999999999998863
210
0
220
-0
230
1
0
CIRCLE
5
354
100
AcDbEntity
8
0
100
AcDbCircle
10
-763.80818211252472
20
-1255.9903435744695
30
0
40
2.0000000000000284
210
0
220
-0
230
1
0
CIRCLE
5
355
100
AcDbEntity
8
0
100
AcDbCircle
10
-863.45569422804238
20
-937.40114008412081
30
0
40
1.9999999999999929
210
0
220
-0
230
1
0
CIRCLE
5
356
100
AcDbEntity
8
0
100
AcDbCircle
10
-1224.6081760090092
20
-1080.2695557847935
30
0
40
2.0000000000000995
210
0
220
-0
230
1
0
CIRCLE
5
357
100
AcDbEntity
8
0
100
AcDbCircle
10
-1220.169210947405
20
-1231.6238541222156
30
0
40
1.9999999999999574
210
0
220
-0
230
1
0
CIRCLE
5
358
100
AcDbEntity
8
0
100
AcDbCircle
10
-1224.6081760090092
20
-1144.7886127743195
30
0
40
1.9999999999998863
210
0
220
-0
230
1
0
CIRCLE
5
359
100
AcDbEntity
8
0
100
AcDbCircle
10
-768.24714717412894
20
-1039.2408851216489
30
0
40
1.9999999999999574
210
0
220
-0
230
1
0
CIRCLE
5
360
100
AcDbEntity
8
0
100
AcDbCircle
10
-763.80818211252472
20
-1191.1792522096525
30
0
40
1.9999999999998863
210
0
220
-0
230
1
0
CIRCLE
5
361
100
AcDbEntity
8
0
100
AcDbCircle
10
-763.80818211252472
20
-1126.3681608448358
30
0
40
2.0000000000000995
210
0
220
-0
230
1
0
CIRCLE
5
362
100
AcDbEntity
8
0
100
AcDbCircle
10
-1107.8320844534574
20
-892.91644180574156
30
0
40
2.0000000000000773
210
0
220
-0
230
1
0
CIRCLE
5
363
100
AcDbEntity
8
0
100
AcDbCircle
10
-1207.5281079539027
20
-909.99650986084771
30
0
40
2.0000000000000551
210
0
220
-0
230
1
0
CIRCLE
5
364
100
AcDbEntity
8
0
100
AcDbCircle
10
-880.29223929278578
20
-1379.1164349392864
30
0
40
2.0000000000000284
210
0
220
-0
230
1
0
CIRCLE
5
365
100
AcDbEntity
8
0
100
AcDbCircle
10
-1077.1155951919388
20
-1374.6774698776821
30
0
40
1.9999999999999662
210
0
220
-0
230
1
0
CIRCLE
5
366
100
AcDbEntity
8
0
100
AcDbCircle
10
-1224.6081760090092
20
-1015.7504987952676
30
0
40
2.0000000000000995
210
0
220
-0
230
1
0
CIRCLE
5
367
100
AcDbEntity
8
0
100
AcDbCircle
10
-780.88825016763121
20
-1362.0363668841799
30
0
40
2.0000000000000284
210
0
220
-0
230
1
0
CIRCLE
5
368
100
AcDbEntity
8
0
100
AcDbCircle
10
-822.12318211252477
20
-1379.1164349392864
30
0
40
2.0000000000000284
210
0
220
-0
230
1
0
CIRCLE
5
369
100
AcDbEntity
8
0
100
AcDbCircle
10
-763.80818211252472
20
-1320.8014349392863
30
0
40
2.0000000000000284
210
0
220
-0
230
1
0
CIRCLE
5
370
100
AcDbEntity
8
0
100
AcDbCircle
10
-1123.9077840723223
20
-1334.1629255903194
30
0
40
1.9999999999999596
210
0
220
-0
230
1
0
CIRCLE
5
371
100
AcDbEntity
8
0
100
AcDbCircle
10
-1151.7812253661825
20
-1306.2894842964597
30
0
40
1.9999999999999729
210
0
220
-0
230
1
0
CIRCLE
5
372
100
AcDbEntity
8
0
100
AcDbCircle
10
-1179.6546666600427
20
-1278.4160430025991
30
0
40
2.0000000000000018
210
0
220
-0
230
1
0
CIRCLE
5
373
100
AcDbEntity
8
0
100
AcDbCircle
10
-990.90990134235369
20
-892.91644180574156
30
0
40
2.0000000000000284
210
0
220
-0
230
1
0
CIRCLE
5
374
100
AcDbEntity
8
0
100
AcDbCircle
10
-1049.3709928979056
20
-892.91644180574156
30
0
40
1.9999999999999929
210
0
220
-0
230
1
0
CIRCLE
5
375
100
AcDbEntity
8
0
100
AcDbCircle
10
-910.03576444863893
20
-897.25473921836726
30
0
40
2.0000000000000284
210
0
220
-0
230
1
0
LWPOLYLINE
5
376
100
AcDbEntity
8
0
100
AcDbPolyline
90
12
70
1
43
0.0
10
-769.92809505923958
20
-1009.361982426734
42
-0.19891236737965973
10
-748.30818211252472
20
-1061.557069480019
10
-748.30818211252472
20
-1320.8014349392863
42
-0.41421356237309331
10
-822.12318211252477
20
-1394.6164349392866
10
-1054.7994108335686
20
-1394.6164349392861
42
-0.19891236737965684
10
-1106.9944978868537
20
-1372.9965219925714
10
-1218.4882630622944
20
-1261.5027568171306
42
-0.19891236737965776
10
-1240.1081760090094
20
-1209.3076697638455
10
-1240.1081760090094
20
-951.23144180574127
42
-0.4142135623731007
10
-1166.2931760090089
20
-877.4164418057411
10
-932.44880978680158
20
-877.41644180574167
42
-0.19891236737965592
10
-880.25372273351695
20
-899.03635475245653
0
CIRCLE
5
377
100
AcDbEntity
8
0
100
AcDbCircle
10
-1064.8470228792935
20
-680.40047628516777
30
0
40
1.9999999999999574
210
0
220
-0
230
1
0
CIRCLE
5
378
100
AcDbEntity
8
0
100
AcDbCircle
10
-792.4547687048605
20
-381.50309793525605
30
0
40
2.0000000000000995
210
0
220
-0
230
1
0
CIRCLE
5
379
100
AcDbEntity
8
0
100
AcDbCircle
10
-1186.1756828649668
20
-261.38713166536934
30
0
40
2.0000000000000284
210
0
220
-0
230
1
0
CIRCLE
5
380
100
AcDbEntity
8
0
100
AcDbCircle
10
-790.25474590610179
20
-522.77088552745442
30
0
40
2.0000000000000284
210
0
220
-0
230
1
0
CIRCLE
5
381
100
AcDbEntity
8
0
100
AcDbCircle
10
-1192.7471478306661
20
-552.50035133379515
30
0
40
1.9999999999998863
210
0
220
-0
230
1
0
CIRCLE
5
382
100
AcDbEntity
8
0
100
AcDbCircle
10
-936.90786026662386
20
-682.70806825708814
30
0
40
2.0000000000000284
210
0
220
-0
230
1
0
CIRCLE
5
383
100
AcDbEntity
8
0
100
AcDbCircle
10
-919.29432532823114
20
-254.81566709546385
30
0
40
2.0000000000000639
210
0
220
-0
230
1
0
CIRCLE
5
384
100
AcDbEntity
8
0
100
AcDbCircle
10
-1047.8175584406936
20
-252.50807512354342
30
0
40
1.9999999999999929
210
0
220
-0
230
1
0
CIRCLE
5
385
100
AcDbEntity
8
0
100
AcDbCircle
10
-798.74540807797962
20
-674.21740608521054
30
0
40
2.0000000000000284
210
0
220
-0
230
1
0
CIRCLE
5
386
100
AcDbEntity
8
0
100
AcDbCircle
10
-1195.0547398025865
20
-411.86118707351613
30
0
40
1.9999999999998863
210
0
220
-0
230
1
0
CIRCLE
5
387
100
AcDbEntity
8
0
100
AcDbCircle
10
-1164.7397398025862
20
-224.50807512354331
30
0
40
2.0000000000000018
210
0
220
-0
230
1
0
CIRCLE
5
388
100
AcDbEntity
8
0
100
AcDbCircle
10
-834.49762779834691
20
-296.75095701578857
30
0
40
1.9999999999999929
210
0
220
-0
230
1
0
CIRCLE
5
389
100
AcDbEntity
8
0
100
AcDbCircle
10
-936.90786026662386
20
-710.70806825708814
30
0
40
2.0000000000000284
210
0
220
-0
230
1
0
CIRCLE
5
390
100
AcDbEntity
8
0
100
AcDbCircle
10
-995.07691744688486
20
-710.70806825708814
30
0
40
1.9999999999999396
210
0
220
-0
230
1
0
CIRCLE
5
391
100
AcDbEntity
8
0
100
AcDbCircle
10
-1223.0547398025863
20
-282.82307512354305
30
0
40
2.0000000000000462
210
0
220
-0
230
1
0
CIRCLE
5
392
100
AcDbEntity
8
0
100
AcDbCircle
10
-806.91622087977748
20
-324.33236393435789
30
0
40
1.9999999999998863
210
0
220
-0
230
1
0
CIRCLE
5
393
100
AcDbEntity
8
0
100
AcDbCircle
10
-762.2547459061019
20
-587.58197689227131
30
0
40
2.0000000000000284
210
0
220
-0
230
1
0
CIRCLE
5
394
100
AcDbEntity
8
0
100
AcDbCircle
10
-861.90225802161933
20
-268.99277340192259
30
0
40
1.9999999999999929
210
0
220
-0
230
1
0
CIRCLE
5
395
100
AcDbEntity
8
0
100
AcDbCircle
10
-1223.0547398025863
20
-411.8611891025954
30
0
40
2.0000000000000995
210
0
220
-0
230
1
0
CIRCLE
5
396
100
AcDbEntity
8
0
100
AcDbCircle
10
-1218.6157747409823
20
-563.21548744001745
30
0
40
1.9999999999999574
210
0
220
-0
230
1
0
CIRCLE
5
397
100
AcDbEntity
8
0
100
AcDbCircle
10
-1223.0547398025863
20
-476.38024609212141
30
0
40
1.9999999999998863
210
0
220
-0
230
1
0
CIRCLE
5
398
100
AcDbEntity
8
0
100
AcDbCircle
10
-766.6937109677059
20
-370.83251843945061
30
0
40
1.9999999999999574
210
0
220
-0
230
1
0
CIRCLE
5
399
100
AcDbEntity
8
0
100
AcDbCircle
10
-762.2547459061019
20
-522.77088552745442
30
0
40
1.9999999999998863
210
0
220
-0
230
1
0
CIRCLE
5
400
100
AcDbEntity
8
0
100
AcDbCircle
10
-762.2547459061019
20
-457.95979416263765
30
0
40
2.0000000000000995
210
0
220
-0
230
1
0
CIRCLE
5
401
100
AcDbEntity
8
0
100
AcDbCircle
10
-1106.2786482470344
20
-224.50807512354331
30
0
40
2.0000000000000773
210
0
220
-0
230
1
0
CIRCLE
5
402
100
AcDbEntity
8
0
100
AcDbCircle
10
-1205.9746717474798
20
-241.58814317864952
30
0
40
2.0000000000000551
210
0
220
-0
230
1
0
CIRCLE
5
403
100
AcDbEntity
8
0
100
AcDbCircle
10
-878.73880308636274
20
-710.70806825708826
30
0
40
2.0000000000000284
210
0
220
-0
230
1
0
CIRCLE
5
404
100
AcDbEntity
8
0
100
AcDbCircle
10
-1075.5621589855159
20
-706.26910319548392
30
0
40
1.9999999999999662
210
0
220
-0
230
1
0
CIRCLE
5
405
100
AcDbEntity
8
0
100
AcDbCircle
10
-1223.0547398025863
20
-347.3421321130694
30
0
40
2.0000000000000995
210
0
220
-0
230
1
0
CIRCLE
5
406
100
AcDbEntity
8
0
100
AcDbCircle
10
-779.3348139612084
20
-693.62800020198176
30
0
40
2.0000000000000284
210
0
220
-0
230
1
0
CIRCLE
5
407
100
AcDbEntity
8
0
100
AcDbCircle
10
-820.56974590610196
20
-710.70806825708826
30
0
40
2.0000000000000284
210
0
220
-0
230
1
0
CIRCLE
5
408
100
AcDbEntity
8
0
100
AcDbCircle
10
-762.2547459061019
20
-652.3930682570882
30
0
40
2.0000000000000284
210
0
220
-0
230
1
0
CIRCLE
5
409
100
AcDbEntity
8
0
100
AcDbCircle
10
-1122.3543478658996
20
-665.75455890812134
30
0
40
1.9999999999999596
210
0
220
-0
230
1
0
CIRCLE
5
410
100
AcDbEntity
8
0
100
AcDbCircle
10
-1150.2277891597598
20
-637.88111761426126
30
0
40
1.9999999999999729
210
0
220
-0
230
1
0
CIRCLE
5
411
100
AcDbEntity
8
0
100
AcDbCircle
10
-1178.1012304536198
20
-610.00767632040095
30
0
40
2.0000000000000018
210
0
220
-0
230
1
0
CIRCLE
5
412
100
AcDbEntity
8
0
100
AcDbCircle
10
-989.35646513593065
20
-224.50807512354331
30
0
40
2.0000000000000284
210
0
220
-0
230
1
0
CIRCLE
5
413
100
AcDbEntity
8
0
100
AcDbCircle
10
-1047.8175566914824
20
-224.50807512354331
30
0
40
1.9999999999999929
210
0
220
-0
230
1
0
CIRCLE
5
414
100
AcDbEntity
8
0
100
AcDbCircle
10
-908.48232824221611
20
-228.84637253616901
30
0
40
2.0000000000000284
210
0
220
-0
230
1
0
LWPOLYLINE
5
415
100
AcDbEntity
8
0
100
AcDbPolyline
90
282
70
1
43
0.0
10
-755.27862242651418
20
-374.22765621087945
10
-749.72583496739685
20
-372.41721689090048
42
-0.071292242755923774
10
-746.75474590610179
20
-393.14870279782053
10
-746.75474590610179
20
-406.85597882290142
10
-752.6295199043293
20
-406.85597882290142
42
0.41421356237311585
10
-753.62951990432919
20
-407.85597882290165
10
-753.6295199043293
20
-410.35597882290125
42
0.4142135623731783
10
-752.6295199043293
20
-411.35597882290131
10
-746.75474590610179
20
-411.35597882290153
10
-746.75474590610179
20
-446.0777970047194
10
-752.6295199043293
20
-446.0777970047194
42
0.41421356237311585
10
-753.62951990432919
20
-447.07779700471963
10
-753.6295199043293
20
-449.57779700471923
42
0.4142135623731783
10
-752.6295199043293
20
-450.57779700471929
10
-746.75474590610179
20
-450.57779700471951
10
-746.75474590610179
20
-485.29961518653795
10
-752.6295199043293
20
-485.29961518653761
42
0.41421356237311585
10
-753.62951990432919
20
-486.29961518653784
10
-753.6295199043293
20
-488.79961518653749
42
0.4142135623731783
10
-752.6295199043293
20
-489.79961518653749
10
-746.75474590610179
20
-489.79961518653784
10
-746.75474590610179
20
-524.52143336835593
10
-752.6295199043293
20
-524.52143336835593
42
0.41421356237311585
10
-753.62951990432919
20
-525.52143336835616
10
-753.6295199043293
20
-528.02143336835582
42
0.4142135623731783
10
-752.6295199043293
20
-529.02143336835582
10
-746.75474590610179
20
-529.02143336835604
10
-746.75474590610179
20
-563.74325155017436
10
-752.6295199043293
20
-563.74325155017436
42
0.41421356237303258
10
-753.62951990432919
20
-564.74325155017425
10
-753.6295199043293
20
-567.24325155017414
42
0.4142135623731783
10
-752.6295199043293
20
-568.24325155017436
10
-746.75474590610179
20
-568.24325155017436
10
-746.75474590610202
20
-602.96506973199234
10
-752.6295199043293
20
-602.96506973199234
42
0.41421356237303258
10
-753.62951990432919
20
-603.96506973199223
10
-753.6295199043293
20
-606.46506973199212
42
0.4142135623731783
10
-752.6295199043293
20
-607.46506973199234
10
-746.75474590610202
20
-607.46506973199234
10
-746.75474590610202
20
-642.18688791381055
10
-752.6295199043293
20
-642.18688791381055
42
0.4142135623730534
10
-753.62951990432919
20
-643.18688791381055
10
-753.6295199043293
20
-645.68688791381032
42
0.41421356237313667
10
-752.6295199043293
20
-646.68688791381055
10
-746.75474590610202
20
-646.68688791381055
10
-746.7547459061575
20
-652.3930682570882
42
-0.098587862211532248
10
-752.384377373402
20
-680.66690321204101
10
-757.70871972613133
20
-678.26637876759287
42
0.41421356237283691
10
-759.03136348897021
20
-678.76699186832354
10
-760.05890181660607
20
-681.04606294778546
42
0.41421356237305712
10
-759.55828871587551
20
-682.36870671062445
10
-754.23394636319267
20
-684.76923115504997
42
-0.11814014597576711
10
-776.11197615147773
20
-711.31811330115113
10
-779.485864272816
20
-706.55072218627981
42
0.41421356237291101
10
-780.87980574598646
20
-706.3121280342657
10
-782.92047527746706
20
-707.75631218571118
42
0.414213562373139
10
-783.15906942948118
20
-709.15025365888152
10
-779.78518130815496
20
-713.91764477373442
42
-0.1181401459758351
10
-812.09904336660338
20
-725.7204262040874
10
-812.59210951291448
20
-719.90080208625795
42
0.4142135623728877
10
-813.67296185947544
20
-718.98879429849853
10
-816.1640370273758
20
-719.19984999700068
42
0.41421356237292911
10
-817.07604481513499
20
-720.28070234356164
10
-816.58297866882424
20
-726.10032646139098
42
-0.013509959869694412
10
-820.56974590610196
20
-726.20806825708826
10
-851.30250742773137
20
-726.20806825708814
10
-851.3025074277316
20
-720.33329425886086
42
0.41421356237292856
10
-852.30250742773137
20
-719.33329425886075
10
-854.80250742773148
20
-719.33329425886075
42
0.41421356237292856
10
-855.8025074277316
20
-720.33329425886063
10
-855.8025074277316
20
-726.20806825708814
10
-890.52432560954969
20
-726.20806825708814
10
-890.52432560954981
20
-720.33329425886086
42
0.41421356237292856
10
-891.52432560954958
20
-719.33329425886075
10
-894.02432560954981
20
-719.33329425886075
42
0.41421356237292856
10
-895.02432560954981
20
-720.33329425886063
10
-895.02432560954981
20
-726.20806825708814
10
-929.74614379136801
20
-726.20806825708814
10
-929.74614379136779
20
-720.33329425886086
42
0.41421356237301177
10
-930.7461437913679
20
-719.33329425886075
10
-933.24614379136801
20
-719.33329425886075
42
0.41421356237292856
10
-934.24614379136779
20
-720.33329425886063
10
-934.24614379136779
20
-726.20806825708814
10
-968.96796197318622
20
-726.20806825708814
10
-968.96796197318611
20
-720.33329425886086
42
0.41421356237301177
10
-969.96796197318622
20
-719.33329425886075
10
-972.46796197318622
20
-719.33329425886075
42
0.4142135623731783
10
-973.46796197318611
20
-720.33329425886063
10
-973.46796197318611
20
-726.20806825708814
10
-1008.1897801550042
20
-726.20806825708814
10
-1008.1897801550043
20
-720.33329425886097
42
0.4142135623730534
10
-1009.1897801550042
20
-719.33329425886075
10
-1011.6897801550042
20
-719.33329425886075
42
0.4142135623731783
10
-1012.6897801550044
20
-720.33329425886063
10
-1012.6897801550044
20
-726.20806825708814
10
-1043.7642857305254
20
-726.20806825708814
10
-1043.7642857305254
20
-720.33329425886097
42
0.41421356237313667
10
-1044.7642857305254
20
-719.33329425886075
10
-1047.2642857305254
20
-719.33329425886075
42
0.4142135623731783
10
-1048.2642857305254
20
-720.33329425886063
10
-1048.2642857305254
20
-726.20806825708814
10
-1053.2459746271459
20
-726.20806825708905
42
-0.10106605656791517
10
-1082.1876738152541
20
-720.29765037865798
10
-1079.7350076145663
20
-714.99712515888393
42
0.41421356237309503
10
-1080.2226151122668
20
-713.66963168312338
10
-1082.4914913290927
20
-712.61977421054826
42
0.41421356237311535
10
-1083.8189848048528
20
-713.10738170824857
10
-1086.2716510055407
20
-718.40790692802261
42
-0.080555906711197278
10
-1105.4410616804307
20
-704.58815531037305
10
-1113.2105968681683
20
-696.81862012263582
10
-1109.0565043360832
20
-692.66452759055085
42
0.41421356237294787
10
-1109.0565043360832
20
-691.25031402817763
10
-1110.8242712890492
20
-689.48254707521141
42
0.41421356237315388
10
-1112.2384848514228
20
-689.48254707521119
10
-1116.3925773835078
20
-693.63663960729639
10
-1140.9446104749977
20
-669.08460651580629
10
-1136.7905179429129
20
-664.93051398372131
42
0.41421356237294787
10
-1136.7905179429126
20
-663.51630042134821
10
-1138.5582848958788
20
-661.74853346838188
42
0.41421356237315388
10
-1139.9724984582522
20
-661.74853346838165
10
-1144.1265909903373
20
-665.90262600046674
10
-1168.6786240818269
20
-641.35059290897686
10
-1164.5245315497421
20
-637.19650037689189
42
0.41421356237305085
10
-1164.5245315497423
20
-635.78228681451878
10
-1166.2922985027085
20
-634.01451986155234
42
0.41421356237306561
10
-1167.7065120650814
20
-634.01451986155223
10
-1171.8606045971665
20
-638.16861239363732
10
-1196.4126376886566
20
-613.61657930214733
10
-1192.2585451565717
20
-609.46248677006236
42
0.41421356237299201
10
-1192.2585451565715
20
-608.04827320768925
10
-1194.0263121095377
20
-606.28050625472281
42
0.41421356237312451
10
-1195.440525671911
20
-606.2805062547227
10
-1199.5946182039961
20
-610.4345987868079
10
-1216.9348268558667
20
-593.09439013492704
42
-0.034555203445973987
10
-1223.6260772927301
20
-585.40833005367722
10
-1218.8616237955605
20
-582.0302948302425
42
0.41421356237305612
10
-1218.6242426819972
20
-580.63614627039556
10
-1220.0702019898524
20
-578.5967341786328
42
0.41421356237308304
10
-1221.4643505496995
20
-578.3593530650694
10
-1226.2288040468588
20
-581.73738828849753
42
-0.11814014597573513
10
-1238.0596991465407
20
-549.43380873815033
10
-1232.2405062769708
20
-548.93567879104307
42
0.41421356237303103
10
-1231.3294393458696
20
-547.85403326359233
10
-1231.5426625913065
20
-545.3631426904027
42
0.4142135623731158
10
-1232.624308118757
20
-544.45207575930158
10
-1238.4435009883271
20
-544.95020570640884
42
-0.013727539529489501
10
-1238.5547398025865
20
-540.89930308164742
10
-1238.5547398025865
20
-510.23077221723713
10
-1232.6799658043592
20
-510.23077221723713
42
0.41421356237311585
10
-1231.679965804359
20
-509.2307722172369
10
-1231.6799658043592
20
-506.73077221723713
42
0.41421356237284529
10
-1232.679965804359
20
-505.73077221723725
10
-1238.5547398025865
20
-505.7307722172369
10
-1238.5547398025865
20
-471.00895403541915
10
-1232.6799658043592
20
-471.00895403541915
42
0.41421356237311585
10
-1231.679965804359
20
-470.00895403541892
10
-1231.6799658043592
20
-467.50895403541915
42
0.41421356237284529
10
-1232.679965804359
20
-466.50895403541926
10
-1238.5547398025865
20
-466.50895403541892
10
-1238.5547398025865
20
-431.7871358536006
10
-1232.6799658043592
20
-431.78713585360083
42
0.41421356237311585
10
-1231.679965804359
20
-430.7871358536006
10
-1231.6799658043592
20
-428.28713585360094
42
0.41421356237284529
10
-1232.679965804359
20
-427.28713585360094
10
-1238.5547398025865
20
-427.28713585360072
10
-1238.5547398025865
20
-392.56531767178262
10
-1232.679965804359
20
-392.56531767178262
42
0.41421356237311585
10
-1231.679965804359
20
-391.5653176717824
10
-1231.6799658043587
20
-389.06531767178262
42
0.41421356237292856
10
-1232.679965804359
20
-388.06531767178274
10
-1238.5547398025865
20
-388.0653176717824
10
-1238.5547398025865
20
-353.34349948996464
10
-1232.679965804359
20
-353.34349948996464
42
0.41421356237311585
10
-1231.679965804359
20
-352.34349948996442
10
-1231.6799658043587
20
-349.84349948996464
42
0.41421356237292856
10
-1232.679965804359
20
-348.84349948996476
10
-1238.5547398025865
20
-348.84349948996442
10
-1238.5547398025865
20
-314.12168130814609
10
-1232.679965804359
20
-314.12168130814632
42
0.41421356237310542
10
-1231.679965804359
20
-313.12168130814609
10
-1231.6799658043587
20
-310.62168130814649
42
0.4142135623730222
10
-1232.679965804359
20
-309.62168130814644
10
-1238.5547398025865
20
-309.62168130814621
10
-1238.5547398025865
20
-282.82307512354299
42
-0.026839956520820992
10
-1238.1299513178014
20
-274.91541562455313
10
-1232.3448576812727
20
-275.71780624890675
42
0.41421356237323048
10
-1231.2169553886865
20
-274.86467295429225
10
-1230.8734941412222
20
-272.38837847029225
42
0.41421356237298312
10
-1231.7266274358362
20
-271.26047617770621
10
-1237.5117210723652
20
-270.45808555335202
42
-0.11814014597561333
10
-1224.0042663403221
20
-238.81886942388306
10
-1219.4233795035982
20
-242.44193647909825
42
0.41421356237318957
10
-1218.0187069402136
20
-242.27793955938424
10
-1216.4678623856257
20
-240.31710270551187
42
0.41421356237294543
10
-1216.6318593053395
20
-238.91243014212776
10
-1221.2127461420637
20
-235.28936308691232
42
-0.11814014597561344
10
-1193.5360703341487
20
-214.85671893964124
10
-1191.422594409772
20
-220.30138225471762
42
0.41421356237291668
10
-1190.1284975682076
20
-220.87174474003135
10
-1187.7979234096101
20
-219.96707679471868
42
0.41421356237312196
10
-1187.2275609242961
20
-218.6729799531544
10
-1189.3410368486725
20
-213.22831663807804
42
-0.085150834744404227
10
-1164.7397398025862
20
-209.00807512354319
10
-1155.0994041222818
20
-209.00807512354319
10
-1155.0994041222821
20
-214.88284912177028
42
0.4142135623730222
10
-1154.0994041222821
20
-215.88284912177031
10
-1151.5994041222821
20
-215.88284912177031
42
0.4142135623730222
10
-1150.5994041222821
20
-214.88284912177036
10
-1150.5994041222821
20
-209.00807512354319
10
-1115.8775859404639
20
-209.00807512354319
10
-1115.8775859404641
20
-214.88284912177028
42
0.4142135623730222
10
-1114.8775859404641
20
-215.88284912177031
10
-1112.3775859404641
20
-215.88284912177031
42
0.4142135623730222
10
-1111.3775859404641
20
-214.88284912177036
10
-1111.3775859404636
20
-209.00807512354319
10
-1076.6557677586457
20
-209.00807512354319
10
-1076.6557677586459
20
-214.88284912177028
42
0.4142135623730222
10
-1075.6557677586457
20
-215.88284912177031
10
-1073.1557677586457
20
-215.88284912177031
42
0.4142135623730222
10
-1072.1557677586457
20
-214.88284912177036
10
-1072.1557677586454
20
-209.00807512354319
10
-1037.4339495768274
20
-209.00807512354348
10
-1037.4339495768274
20
-214.88284912177085
42
0.4142135623730222
10
-1036.4339495768274
20
-215.88284912177087
10
-1033.9339495768274
20
-215.88284912177087
42
0.4142135623730222
10
-1032.9339495768274
20
-214.88284912177093
10
-1032.9339495768272
20
-209.00807512354348
10
-998.21213139500912
20
-209.00807512354348
10
-998.21213139500924
20
-214.88284912177085
42
0.4142135623730222
10
-997.21213139500924
20
-215.88284912177087
10
-994.71213139500924
20
-215.88284912177087
42
0.4142135623730222
10
-993.71213139500924
20
-214.88284912177093
10
-993.71213139500901
20
-209.00807512354348
10
-958.99031321319114
20
-209.00807512354348
10
-958.99031321319114
20
-214.8828491217709
42
0.41421356237306384
10
-957.99031321319126
20
-215.88284912177087
10
-955.49031321319126
20
-215.88284912177087
42
0.4142135623730222
10
-954.49031321319126
20
-214.88284912177093
10
-954.49031321319126
20
-209.00807512354348
10
-930.89537358037887
20
-209.00807512352816
42
-0.037701685960459842
10
-919.81093034469041
20
-209.8450692371479
10
-920.86356710147743
20
-215.58990125868814
42
0.41421356237308943
10
-920.06017424514789
20
-216.75375688478582
10
-917.60111364211423
20
-217.2043353469958
42
0.41421356237321788
10
-916.43725801601681
20
-216.40094249066621
10
-915.3846212592249
20
-210.65611046910323
42
-0.11814014597537097
10
-884.36125640104456
20
-225.52359726082685
10
-888.17966566317477
20
-229.94297389156699
42
0.41421356237307216
10
-888.07676864726068
20
-231.35343913541973
10
-886.18506582255259
20
-232.98789942034273
42
0.41421356237317952
10
-884.77460057870019
20
-232.88500240442872
10
-880.95619131656986
20
-228.4656257736884
42
-0.010584694290826596
10
-878.70028652709379
20
-230.62798807025857
10
-856.35829354801353
20
-252.96998104933877
10
-860.51238608009851
20
-257.12407358142383
42
0.414213562373073
10
-860.51238608009862
20
-258.53828714379699
10
-858.74461912713241
20
-260.30605409676343
42
0.41421356237302148
10
-857.33040556475908
20
-260.30605409676309
10
-853.17631303267399
20
-256.15196156467834
10
-828.62427994118411
20
-280.70399465616833
10
-832.77837247326897
20
-284.85808718825336
42
0.41421356237313184
10
-832.77837247326886
20
-286.27230075062653
10
-831.01060552030265
20
-288.04006770359297
42
0.41421356237296264
10
-829.59639195792965
20
-288.04006770359263
10
-825.44229942584457
20
-283.88597517150788
10
-800.89026633435481
20
-308.43800826299787
10
-805.04435886643944
20
-312.59210079508262
42
0.41421356237300672
10
-805.04435886643955
20
-314.00631435745606
10
-803.27659191347323
20
-315.77408131042216
42
0.41421356237300672
10
-801.86237835110001
20
-315.77408131042193
10
-797.70828581901526
20
-311.61998877833707
10
-773.15625272752527
20
-336.1720218698274
10
-777.3103452596099
20
-340.32611440191215
42
0.41421356237300672
10
-777.31034525961013
20
-341.7403279642856
10
-775.54257830664369
20
-343.5080949172517
42
0.41421356237291845
10
-774.12836474427058
20
-343.50809491725147
10
-769.97427221218572
20
-339.35400238516661
10
-768.37465885281654
20
-340.95361574453591
42
-0.1103795748750417
10
-751.12075199554533
20
-368.13887533317245
10
-756.67353945466289
20
-369.94931465315165
42
0.41421356237289675
10
-757.31430046123592
20
-371.21003878334636
10
-756.53934655670912
20
-373.58689520430653
42
0.41421356237314061
0
CIRCLE
5
416
100
AcDbEntity
8
0
100
AcDbCircle
10
-422.24724043137456
20
-237.79428950986713
30
0
40
2.0000000000000284
210
0
220
-0
230
1
0
CIRCLE
5
417
100
AcDbEntity
8
0
100
AcDbCircle
10
243.9424697080544
20
-548.18109462906807
30
0
40
2.0000000000000284
210
0
220
-0
230
1
0
CIRCLE
5
418
100
AcDbEntity
8
0
100
AcDbCircle
10
-223.36794636683734
20
-580.9465304173109
30
0
40
2.0000000000000995
210
0
220
-0
230
1
0
CIRCLE
5
419
100
AcDbEntity
8
0
100
AcDbCircle
10
-375.73270611743749
20
-725.23749535565753
30
0
40
2.0000000000000995
210
0
220
-0
230
1
0
CIRCLE
5
420
100
AcDbEntity
8
0
100
AcDbCircle
10
236.18079941386227
20
-719.49301744878187
30
0
40
2.0000000000000284
210
0
220
-0
230
1
0
CIRCLE
5
421
100
AcDbEntity
8
0
100
AcDbCircle
10
-160.93140242576524
20
-234.25468777277629
30
0
40
2.0000000000000262
210
0
220
-0
230
1
0
CIRCLE
5
422
100
AcDbEntity
8
0
100
AcDbCircle
10
-562.26567282249403
20
-377.8127219009865
30
0
40
2.0000000000000284
210
0
220
-0
230
1
0
CIRCLE
5
423
100
AcDbEntity
8
0
100
AcDbCircle
10
240.40286797096357
20
-377.81272190098707
30
0
40
2.0000000000000284
210
0
220
-0
230
1
0
CIRCLE
5
424
100
AcDbEntity
8
0
100
AcDbCircle
10
-98.494858484693424
20
-580.9465304173109
30
0
40
1.999999999999913
210
0
220
-0
230
1
0
CIRCLE
5
425
100
AcDbEntity
8
0
100
AcDbCircle
10
-558.04360426539301
20
-719.49301744878187
30
0
40
2.0000000000000995
210
0
220
-0
230
1
0
CIRCLE
5
426
100
AcDbEntity
8
0
100
AcDbCircle
10
53.869901265907032
20
-725.23749535565753
30
0
40
1.9999999999998863
210
0
220
-0
230
1
0
CIRCLE
5
427
100
AcDbEntity
8
0
100
AcDbCircle
10
100.38443557984394
20
-237.79428950986713
30
0
40
1.9999999999999929
210
0
220
-0
230
1
0
CIRCLE
5
428
100
AcDbEntity
8
0
100
AcDbCircle
10
-565.80527455958486
20
-548.18109462906807
30
0
40
2.0000000000000284
210
0
220
-0
230
1
0
CIRCLE
5
429
100
AcDbEntity
8
0
100
AcDbCircle
10
135.2691111736992
20
-228.07523256474568
30
0
40
2.0000000000000639
210
0
220
-0
230
1
0
CIRCLE
5
430
100
AcDbEntity
8
0
100
AcDbCircle
10
-514.55832289642251
20
-285.50163943593844
30
0
40
2.0000000000000284
210
0
220
-0
230
1
0
CIRCLE
5
431
100
AcDbEntity
8
0
100
AcDbCircle
10
-39.170873222597749
20
-206.25468776532571
30
0
40
1.9999999999999929
210
0
220
-0
230
1
0
CIRCLE
5
432
100
AcDbEntity
8
0
100
AcDbCircle
10
-593.80527456703555
20
-624.4678911934717
30
0
40
1.9999999999998863
210
0
220
-0
230
1
0
CIRCLE
5
433
100
AcDbEntity
8
0
100
AcDbCircle
10
-571.98472976761536
20
-342.92804630713124
30
0
40
1.9999999999999574
210
0
220
-0
230
1
0
CIRCLE
5
434
100
AcDbEntity
8
0
100
AcDbCircle
10
-593.80527456703544
20
-471.89429806466433
30
0
40
1.9999999999998863
210
0
220
-0
230
1
0
CIRCLE
5
435
100
AcDbEntity
8
0
100
AcDbCircle
10
271.94246971550501
20
-395.60750150026092
30
0
40
1.9999999999998863
210
0
220
-0
230
1
0
CIRCLE
5
436
100
AcDbEntity
8
0
100
AcDbCircle
10
217.44246972295542
20
-755.25468775042452
30
0
40
1.9999999999999574
210
0
220
-0
230
1
0
CIRCLE
5
437
100
AcDbEntity
8
0
100
AcDbCircle
10
-38.542811646014599
20
-675.27550303277803
30
0
40
2.0000000000000462
210
0
220
-0
230
1
0
CIRCLE
5
438
100
AcDbEntity
8
0
100
AcDbCircle
10
-593.80527456703567
20
-700.7546877578751
30
0
40
1.9999999999998863
210
0
220
-0
230
1
0
CIRCLE
5
439
100
AcDbEntity
8
0
100
AcDbCircle
10
25.473692648481148
20
-739.29200732727406
30
0
40
1.9999999999999574
210
0
220
-0
230
1
0
CIRCLE
5
440
100
AcDbEntity
8
0
100
AcDbCircle
10
64.011012217879397
20
-755.25468775042452
30
0
40
1.9999999999999929
210
0
220
-0
230
1
0
CIRCLE
5
441
100
AcDbEntity
8
0
100
AcDbCircle
10
140.72674097041741
20
-755.25468775042452
30
0
40
2.0000000000000995
210
0
220
-0
230
1
0
CIRCLE
5
442
100
AcDbEntity
8
0
100
AcDbCircle
10
-593.80527456703544
20
-548.18109462906807
30
0
40
1.9999999999999574
210
0
220
-0
230
1
0
CIRCLE
5
443
100
AcDbEntity
8
0
100
AcDbCircle
10
-347.33649750001166
20
-739.2920073272735
30
0
40
2.0000000000000639
210
0
220
-0
230
1
0
CIRCLE
5
444
100
AcDbEntity
8
0
100
AcDbCircle
10
192.69551804489211
20
-285.50163943593873
30
0
40
2.0000000000000284
210
0
220
-0
230
1
0
CIRCLE
5
445
100
AcDbEntity
8
0
100
AcDbCircle
10
111.09957168891768
20
-211.92566259266769
30
0
40
1.9999999999999574
210
0
220
-0
230
1
0
CIRCLE
5
446
100
AcDbEntity
8
0
100
AcDbCircle
10
82.589655980569745
20
-206.25468776532571
30
0
40
2.0000000000000284
210
0
220
-0
230
1
0
CIRCLE
5
447
100
AcDbEntity
8
0
100
AcDbCircle
10
-102.5593159405102
20
-611.25899873828257
30
0
40
2.0000000000000551
210
0
220
-0
230
1
0
CIRCLE
5
448
100
AcDbEntity
8
0
100
AcDbCircle
10
-219.30348891102071
20
-611.25899873828257
30
0
40
2.0000000000000373
210
0
220
-0
230
1
0
CIRCLE
5
449
100
AcDbEntity
8
0
100
AcDbCircle
10
-432.9623765404483
20
-211.92566259266769
30
0
40
1.9999999999999574
210
0
220
-0
230
1
0
CIRCLE
5
450
100
AcDbEntity
8
0
100
AcDbCircle
10
-404.45246083210037
20
-206.25468776532571
30
0
40
1.9999999999999929
210
0
220
-0
230
1
0
CIRCLE
5
451
100
AcDbEntity
8
0
100
AcDbCircle
10
-385.87381706941005
20
-755.25468775042452
30
0
40
1.9999999999999929
210
0
220
-0
230
1
0
CIRCLE
5
452
100
AcDbEntity
8
0
100
AcDbCircle
10
-588.13429973969346
20
-367.09758579191271
30
0
40
2.0000000000000284
210
0
220
-0
230
1
0
CIRCLE
5
453
100
AcDbEntity
8
0
100
AcDbCircle
10
-462.58954582194815
20
-755.25468775042452
30
0
40
1.9999999999999574
210
0
220
-0
230
1
0
CIRCLE
5
454
100
AcDbEntity
8
0
100
AcDbCircle
10
250.12192491608502
20
-342.92804630713181
30
0
40
1.9999999999999574
210
0
220
-0
230
1
0
CIRCLE
5
455
100
AcDbEntity
8
0
100
AcDbCircle
10
255.97978929235396
20
-739.2920073272735
30
0
40
1.9999999999999574
210
0
220
-0
230
1
0
CIRCLE
5
456
100
AcDbEntity
8
0
100
AcDbCircle
10
-160.93140242576553
20
-605.25468775042452
30
0
40
2.0000000000000111
210
0
220
-0
230
1
0
CIRCLE
5
457
100
AcDbEntity
8
0
100
AcDbCircle
10
271.94246971550467
20
-700.7546877578751
30
0
40
2.0000000000000284
210
0
220
-0
230
1
0
CIRCLE
5
458
100
AcDbEntity
8
0
100
AcDbCircle
10
266.27149488816326
20
-367.09758579191327
30
0
40
2.0000000000000284
210
0
220
-0
230
1
0
CIRCLE
5
459
100
AcDbEntity
8
0
100
AcDbCircle
10
271.94246971550501
20
-548.18109462906807
30
0
40
1.9999999999999574
210
0
220
-0
230
1
0
CIRCLE
5
460
100
AcDbEntity
8
0
100
AcDbCircle
10
-577.84259414388464
20
-739.2920073272735
30
0
40
2.0000000000000284
210
0
220
-0
230
1
0
CIRCLE
5
461
100
AcDbEntity
8
0
100
AcDbCircle
10
-593.80527456703544
20
-395.60750150026092
30
0
40
2.0000000000000284
210
0
220
-0
230
1
0
CIRCLE
5
462
100
AcDbEntity
8
0
100
AcDbCircle
10
-283.3199932055162
20
-675.27550303277803
30
0
40
1.9999999999999929
210
0
220
-0
230
1
0
CIRCLE
5
463
100
AcDbEntity
8
0
100
AcDbCircle
10
-457.13191602522983
20
-228.07523256474568
30
0
40
1.9999999999999929
210
0
220
-0
230
1
0
CIRCLE
5
464
100
AcDbEntity
8
0
100
AcDbCircle
10
-160.93140242576524
20
-206.25468776532571
30
0
40
2.0000000000000187
210
0
220
-0
230
1
0
CIRCLE
5
465
100
AcDbEntity
8
0
100
AcDbCircle
10
-282.69193162893288
20
-206.25468776532571
30
0
40
2.0000000000000284
210
0
220
-0
230
1
0
CIRCLE
5
466
100
AcDbEntity
8
0
100
AcDbCircle
10
-539.30527457448625
20
-755.25468775042452
30
0
40
2.0000000000000284
210
0
220
-0
230
1
0
LWPOLYLINE
5
467
100
AcDbEntity
8
0
100
AcDbPolyline
90
257
70
1
43
0.0
10
-280.64808218202785
20
-694.52390223660939
10
-284.75269472405625
20
-690.41928969458115
42
0.41421356237303619
10
-286.16690828642948
20
-690.41928969458138
10
-287.93467523939563
20
-692.18705664754748
42
0.41421356237305823
10
-287.93467523939569
20
-693.60127020992036
10
-283.83006269736723
20
-697.70588275194893
10
-330.25778740292054
20
-744.13360745750208
10
-334.36239994494912
20
-740.02899491547385
42
0.41421356237303619
10
-335.77661350732228
20
-740.02899491547407
10
-337.54438046028849
20
-741.79676186844017
42
0.41421356237309503
10
-337.54438046028838
20
-743.21097543081305
10
-333.43976791826009
20
-747.31558797284163
10
-336.37634238635155
20
-750.25216244093326
42
-0.1989123673796587
10
-385.87381706941005
20
-770.7546877578751
10
-392.40172014061227
20
-770.7546877578751
10
-392.40172014061227
20
-764.94988903265198
42
0.4142135623730534
10
-393.40172014061227
20
-763.94988903265198
10
-395.90172014061227
20
-763.94988903265198
42
0.41421356237301177
10
-396.90172014061233
20
-764.94988903265198
10
-396.90172014061233
20
-770.7546877578751
10
-462.56043808933043
20
-770.7546877578751
10
-462.56043808933043
20
-764.94988903265198
42
0.4142135623730534
10
-463.56043808933038
20
-763.94988903265198
10
-466.06043808933038
20
-763.94988903265198
42
0.41421356237301177
10
-467.06043808933043
20
-764.94988903265198
10
-467.06043808933043
20
-770.7546877578751
10
-532.71915603804814
20
-770.7546877578751
10
-532.71915603804814
20
-764.94988903265198
42
0.41421356237294937
10
-533.71915603804814
20
-763.94988903265198
10
-536.21915603804814
20
-763.94988903265198
42
0.41421356237301177
10
-537.21915603804814
20
-764.94988903265198
10
-537.21915603804814
20
-770.7546877578751
10
-539.30527457448625
20
-770.7546877578751
42
-0.2310270456887388
10
-594.49201484023263
20
-743.81770784287437
10
-589.83241385747579
20
-740.41694390381917
42
0.41421356237317458
10
-589.61419266201312
20
-739.0196681580012
10
-591.08801084995753
20
-737.00029698140088
42
0.41421356237308282
10
-592.48528659577539
20
-736.78207578593845
10
-597.14488757853223
20
-740.18283972499364
42
-0.15070695146833701
10
-609.30527457448625
20
-700.7546877578751
10
-609.30527457448625
20
-676.97911327251984
10
-603.50047584926301
20
-676.97911327251984
42
0.41421356237311585
10
-602.5004758492629
20
-675.97911327251961
10
-602.5004758492629
20
-673.47911327251995
42
0.41421356237307422
10
-603.50047584926301
20
-672.47911327251995
10
-609.30527457448625
20
-672.47911327251995
10
-609.30527457448613
20
-606.82039532380156
10
-603.5004758492629
20
-606.82039532380156
42
0.41421356237313667
10
-602.5004758492629
20
-605.82039532380134
10
-602.5004758492629
20
-603.32039532380168
42
0.4142135623730534
10
-603.5004758492629
20
-602.32039532380168
10
-609.30527457448613
20
-602.32039532380168
10
-609.30527457448602
20
-536.66167737508385
10
-603.5004758492629
20
-536.66167737508385
42
0.41421356237313667
10
-602.50047584926278
20
-535.66167737508363
10
-602.50047584926278
20
-533.16167737508397
42
0.4142135623730534
10
-603.5004758492629
20
-532.16167737508397
10
-609.30527457448602
20
-532.16167737508397
10
-609.30527457448602
20
-466.50295942636615
10
-603.5004758492629
20
-466.50295942636615
42
0.41421356237313667
10
-602.50047584926278
20
-465.50295942636592
10
-602.50047584926278
20
-463.00295942636626
42
0.4142135623730534
10
-603.5004758492629
20
-462.00295942636626
10
-609.30527457448602
20
-462.00295942636626
10
-609.30527457448602
20
-396.34441694353382
10
-603.52640440955599
20
-396.44159202558671
42
0.41421356237309576
10
-602.50973255351482
20
-395.45854658557187
10
-602.46769953348223
20
-392.95889996550204
42
0.4142135623731148
10
-603.45074497349719
20
-391.94222810946098
10
-609.22659775921386
20
-391.84510376640424
42
-0.18443412390909686
10
-583.83229131929374
20
-332.86784809019412
10
-579.73395400661752
20
-336.96618540287011
42
0.41421356237308032
10
-578.31974044424453
20
-336.96618540287045
10
-576.55197349127786
20
-335.19841844990395
42
0.41421356237306561
10
-576.55197349127798
20
-333.7842048875309
10
-580.65658603330633
20
-329.67959234550267
10
-534.22886132775284
20
-283.25186763994896
10
-530.12424878572449
20
-287.35648018197736
42
0.41421356237300677
10
-528.7100352233515
20
-287.35648018197736
10
-526.94226827038494
20
-285.58871322901098
42
0.41421356237306561
10
-526.94226827038506
20
-284.17449966663781
10
-531.04688081241329
20
-280.06988712460952
10
-484.61915610686037
20
-233.64216241905652
10
-480.51454356483197
20
-237.74677496108478
42
0.414213562373073
10
-479.10033000245903
20
-237.74677496108467
10
-477.33256304949242
20
-235.97900800811843
42
0.41421356237306561
10
-477.33256304949259
20
-234.56479444574526
10
-481.43717559152083
20
-230.46018190371697
10
-468.09207113888954
20
-217.11507745108574
42
-0.13069679217380298
10
-428.07271858540912
20
-193.90951849862816
10
-426.69647551093851
20
-199.519853919996
42
0.41421356237304963
10
-425.48702797334454
20
-200.25281821231047
10
-423.05901318595915
20
-199.65721415571082
42
0.41421356237313778
10
-422.32604889364495
20
-198.44776661811665
10
-423.70229196811533
20
-192.83743119674884
42
-0.053940306389454719
10
-404.4524608321002
20
-190.75468775787513
10
-358.19368734863144
20
-190.75468775787513
10
-358.19368734863144
20
-196.55948648309831
42
0.4142135623730846
10
-357.19368734863139
20
-197.5594864830984
10
-354.69368734863139
20
-197.5594864830984
42
0.4142135623730846
10
-353.69368734863144
20
-196.55948648309831
10
-353.69368734863144
20
-190.75468775787513
10
-288.03496939991317
20
-190.75468775787513
10
-288.03496939991317
20
-196.55948648309831
42
0.41421356237307422
10
-287.03496939991328
20
-197.5594864830984
10
-284.53496939991328
20
-197.5594864830984
42
0.41421356237309503
10
-283.53496939991317
20
-196.55948648309831
10
-283.53496939991317
20
-190.75468775787513
10
-217.87625145119577
20
-190.75468775787513
10
-217.87625145119574
20
-196.55948648309831
42
0.41421356237311585
10
-216.87625145119569
20
-197.5594864830984
10
-214.37625145119569
20
-197.5594864830984
42
0.41421356237309503
10
-213.37625145119574
20
-196.55948648309831
10
-213.37625145119574
20
-190.75468775787513
10
-147.71753350247806
20
-190.75468775787513
10
-147.71753350247803
20
-196.55948648309831
42
0.41421356237303258
10
-146.71753350247812
20
-197.5594864830984
10
-144.21753350247812
20
-197.5594864830984
42
0.41421356237309503
10
-143.21753350247803
20
-196.55948648309831
10
-143.21753350247803
20
-190.75468775787513
10
-77.558815553759786
20
-190.75468775787513
10
-77.558815553759757
20
-196.55948648309831
42
0.41421356237305079
10
-76.558815553759842
20
-197.5594864830984
10
-74.058815553759842
20
-197.5594864830984
42
0.41421356237310025
10
-73.058815553759757
20
-196.55948648309831
10
-73.058815553759757
20
-190.75468775787513
10
-7.4000976050420775
20
-190.75468775787513
10
-7.4000976050420419
20
-196.55948648309831
42
0.41421356237305046
10
-6.4000976050421343
20
-197.5594864830984
10
-3.9000976050421348
20
-197.5594864830984
42
0.41421356237309975
10
-2.9000976050420491
20
-196.55948648309831
10
-2.9000976050420491
20
-190.75468775787513
10
55.81149884666857
20
-190.75468775787513
10
55.811498846668606
20
-196.55948648309831
42
0.41421356237305079
10
56.811498846668513
20
-197.5594864830984
10
59.311498846668513
20
-197.5594864830984
42
0.41421356237310025
10
60.311498846668599
20
-196.55948648309831
10
60.311498846668599
20
-190.75468775787513
10
82.589655980569816
20
-190.7546877578751
42
-0.12108755741348431
10
124.30964682843126
20
-201.00857585482146
10
121.50471416800784
20
-206.05855222216962
42
0.4142135623731264
10
121.89335398429975
20
-207.41831657425166
10
124.07885919476676
20
-208.6322222439891
42
0.41421356237312945
10
125.43862354684876
20
-208.24358242769719
10
128.24355620727206
20
-203.19360606034905
42
-0.063432203214037114
10
146.22926628735911
20
-217.11507745108591
10
176.53122717780263
20
-247.41703834152943
10
172.42661463577434
20
-251.52165088355773
42
0.41421356237303619
10
172.4266146357742
20
-252.93586444593075
10
174.19438158874044
20
-254.70363139889727
42
0.41421356237315388
10
175.60859515111375
20
-254.70363139889727
10
179.71320769314204
20
-250.59901885686898
10
226.14093239869547
20
-297.02674356242244
10
222.03631985666718
20
-301.13135610445056
42
0.41421356237306561
10
222.03631985666718
20
-302.54556966682355
10
223.80408680963328
20
-304.31333661979011
42
0.41421356237312451
10
225.21830037200658
20
-304.31333661979022
10
229.32291291403502
20
-300.20872407776199
10
261.08208002974482
20
-331.96789119347181
42
-0.057686746889039756
10
273.93793741221327
20
-348.18974719871574
10
268.95350599773406
20
-351.1095677436532
42
0.41421356237308021
10
268.59610093404751
20
-352.47787385722984
10
269.85972724640988
20
-354.63501282880884
42
0.41421356237297746
10
271.22803335998651
20
-354.9924178924955
10
276.21246477446584
20
-352.0725973475578
42
-0.12690002952119234
10
287.44246972295559
20
-395.60750150026092
10
287.44246972295559
20
-415.82485782721608
10
281.63767099773236
20
-415.82485782721608
42
0.41421356237309503
10
280.63767099773213
20
-416.82485782721596
10
280.6376709977323
20
-419.32485782721596
42
0.4142135623730846
10
281.63767099773236
20
-420.32485782721596
10
287.44246972295559
20
-420.32485782721619
10
287.44246972295559
20
-485.98357577593379
10
281.63767099773236
20
-485.98357577593379
42
0.41421356237309503
10
280.63767099773213
20
-486.98357577593367
10
280.6376709977323
20
-489.48357577593367
42
0.4142135623730846
10
281.63767099773236
20
-490.48357577593367
10
287.44246972295559
20
-490.4835757759339
10
287.44246972295559
20
-556.14229372465172
10
281.63767099773236
20
-556.14229372465172
42
0.41421356237312623
10
280.63767099773213
20
-557.14229372465195
10
280.6376709977323
20
-559.64229372465172
42
0.4142135623730846
10
281.63767099773236
20
-560.64229372465161
10
287.44246972295559
20
-560.64229372465161
10
287.44246972295559
20
-626.30101167336977
10
281.63767099773236
20
-626.30101167336977
42
0.41421356237309503
10
280.63767099773213
20
-627.30101167336966
10
280.6376709977323
20
-629.80101167336966
42
0.4142135623730846
10
281.63767099773236
20
-630.80101167336966
10
287.44246972295559
20
-630.80101167336989
10
287.44246972295525
20
-696.45972962208771
10
281.63767099773236
20
-696.45972962208771
42
0.41421356237310542
10
280.63767099773213
20
-697.45972962208793
10
280.6376709977323
20
-699.95972962208771
42
0.41421356237309503
10
281.63767099773236
20
-700.95972962208759
10
287.44216942112485
20
-700.95972962208771
42
-0.23888880057365058
10
258.67643783288725
20
-757.32110777814069
10
255.42998089721593
20
-752.55271244506275
42
0.41421356237288709
10
254.04059483466526
20
-752.28888225499657
10
251.97407451889418
20
-753.69582709560189
42
0.4142135623731274
10
251.71024432882817
20
-755.08521315815256
10
254.9567012644996
20
-759.85360849123037
42
-0.14234850614024122
10
217.44246972295542
20
-770.7546877578751
10
191.37573483694965
20
-770.7546877578751
10
191.37573483694973
20
-764.94988903265198
42
0.41421356237300139
10
190.3757348369497
20
-763.94988903265198
10
187.8757348369497
20
-763.94988903265198
42
0.4142135623730222
10
186.87573483694976
20
-764.94988903265198
10
186.87573483694976
20
-770.7546877578751
10
121.21701688823165
20
-770.7546877578751
10
121.21701688823163
20
-764.94988903265198
42
0.41421356237310542
10
120.21701688823171
20
-763.94988903265198
10
117.71701688823171
20
-763.94988903265198
42
0.4142135623730222
10
116.71701688823163
20
-764.94988903265198
10
116.71701688823163
20
-770.7546877578751
10
64.011012217879383
20
-770.7546877578751
42
-0.046291329184968324
10
51.132468900632944
20
-769.55979746657204
10
52.375483247656057
20
-763.92668180818373
42
0.41421356237313717
10
51.614452929108694
20
-762.73469487274679
10
49.173181361628707
20
-762.19599910163492
42
0.41421356237300433
10
47.981194426192104
20
-762.95702942018249
10
46.738180079168849
20
-768.59014507857091
42
-0.13482518469560786
10
14.513537534821381
20
-750.25216244093383
10
-5.3798933710832841
20
-730.35873153502916
10
-1.2752808290551392
20
-726.25411899300093
42
0.41421356237315926
10
-1.2752808290551343
20
-724.83990543062748
10
-3.0430477820213979
20
-723.07213847766161
42
0.41421356237311974
10
-4.4572613443943965
20
-723.07213847766161
10
-8.5618738864226884
20
-727.17675101968962
10
-54.989598591976403
20
-680.7490263141359
10
-50.884986049947969
20
-676.64441377210767
42
0.4142135623731576
10
-50.884986049947969
20
-675.23020020973422
10
-52.652753002914238
20
-673.46243325676835
42
0.41421356237314844
10
-54.066966565287373
20
-673.46243325676835
10
-58.171579107315807
20
-677.5670457987967
10
-104.5993038128691
20
-631.13932109324321
10
-100.49469127084066
20
-627.03470855121498
42
0.41421356237317591
10
-100.49469127084066
20
-625.62049498884153
10
-102.26245822380703
20
-623.85272803587577
42
0.41421356237317231
10
-103.67667178618007
20
-623.85272803587566
10
-107.7812843282085
20
-627.95734057790401
10
-113.51947105417005
20
-622.21915385194234
42
0.19891236737962717
10
-117.05500496010316
20
-620.7546877578751
10
-170.67171060054946
20
-620.7546877578751
10
-170.67171060054949
20
-614.94988903265198
42
0.41421356237297013
10
-171.6717106005494
20
-613.94988903265198
10
-174.1717106005494
20
-613.94988903265198
42
0.41421356237309503
10
-175.17171060054949
20
-614.94988903265198
10
-175.17171060054949
20
-620.7546877578751
10
-204.80779989142798
20
-620.7546877578751
42
0.19891236737965795
10
-208.34333379736094
20
-622.21915385194268
10
-231.03837696113487
20
-644.91419701571647
10
-235.14298950316328
20
-640.80958447368812
42
0.41421356237316131
10
-236.55720306553647
20
-640.80958447368812
10
-238.32497001850268
20
-642.57735142665456
42
0.41421356237316126
10
-238.32497001850271
20
-643.99156498902767
10
-234.22035747647428
20
-648.09617753105601
0
CIRCLE
5
468
100
AcDbEntity
8
0
100
AcDbCircle
10
616.26149843602275
20
-295.65349530829383
30
0
40
1.9999999999999574
210
0
220
0
230
1
0
CIRCLE
5
469
100
AcDbEntity
8
0
100
AcDbCircle
10
926.06154867630141
20
-604.66795199974672
30
0
40
1.9999999999999929
210
0
220
0
230
1
0
CIRCLE
5
470
100
AcDbEntity
8
0
100
AcDbCircle
10
380.46513460200447
20
-717.95222324720851
30
0
40
1.9999999999999574
210
0
220
0
230
1
0
CIRCLE
5
471
100
AcDbEntity
8
0
100
AcDbCircle
10
1043.5678884808647
20
-482.15585941319023
30
0
40
2.0000000000000284
210
0
220
0
230
1
0
CIRCLE
5
472
100
AcDbEntity
8
0
100
AcDbCircle
10
493.74940584946626
20
-413.15983511285697
30
0
40
1.9999999999999929
210
0
220
0
230
1
0
CIRCLE
5
473
100
AcDbEntity
8
0
100
AcDbCircle
10
827.33188413407674
20
-292.11389357120299
30
0
40
1.9999999999999929
210
0
220
0
230
1
0
CIRCLE
5
474
100
AcDbEntity
8
0
100
AcDbCircle
10
803.54945608974492
20
-722.17429180430986
30
0
40
2.0000000000000817
210
0
220
0
230
1
0
CIRCLE
5
475
100
AcDbEntity
8
0
100
AcDbCircle
10
592.47907039169093
20
-725.71389354140069
30
0
40
1.9999999999999929
210
0
220
0
230
1
0
CIRCLE
5
476
100
AcDbEntity
8
0
100
AcDbCircle
10
1039.3458199237634
20
-299.87556386539495
30
0
40
2.0000000000000284
210
0
220
0
230
1
0
CIRCLE
5
477
100
AcDbEntity
8
0
100
AcDbCircle
10
375.90522612052791
20
-535.48005866711935
30
0
40
1.9999999999999574
210
0
220
0
230
1
0
CIRCLE
5
478
100
AcDbEntity
8
0
100
AcDbCircle
10
689.11687344108077
20
-753.71389354885127
30
0
40
1.9999999999999996
210
0
220
0
230
1
0
CIRCLE
5
479
100
AcDbEntity
8
0
100
AcDbCircle
10
892.14733511919667
20
-678.18014531383471
30
0
40
2.0000000000000639
210
0
220
0
230
1
0
CIRCLE
5
480
100
AcDbEntity
8
0
100
AcDbCircle
10
1069.4365153980641
20
-492.87099552226391
30
0
40
1.9999999999999574
210
0
220
0
230
1
0
CIRCLE
5
481
100
AcDbEntity
8
0
100
AcDbCircle
10
1075.1074902254061
20
-355.05069012070533
30
0
40
2.0000000000000284
210
0
220
0
230
1
0
CIRCLE
5
482
100
AcDbEntity
8
0
100
AcDbCircle
10
923.9696871834667
20
-264.11389356375241
30
0
40
1.9999999999999574
210
0
220
0
230
1
0
CIRCLE
5
483
100
AcDbEntity
8
0
100
AcDbCircle
10
605.54636232694907
20
-269.78486839109439
30
0
40
1.9999999999999574
210
0
220
0
230
1
0
CIRCLE
5
484
100
AcDbEntity
8
0
100
AcDbCircle
10
420.41398923330894
20
-446.89727197203115
30
0
40
1.9999999999999929
210
0
220
0
230
1
0
CIRCLE
5
485
100
AcDbEntity
8
0
100
AcDbCircle
10
344.70346430036182
20
-626.34030042749475
30
0
40
2.0000000000000284
210
0
220
0
230
1
0
CIRCLE
5
486
100
AcDbEntity
8
0
100
AcDbCircle
10
399.20346429291124
20
-753.71389354885127
30
0
40
1.9999999999999929
210
0
220
0
230
1
0
CIRCLE
5
487
100
AcDbEntity
8
0
100
AcDbCircle
10
344.70346430036182
20
-662.77709699189825
30
0
40
2.0000000000000284
210
0
220
0
230
1
0
CIRCLE
5
488
100
AcDbEntity
8
0
100
AcDbCircle
10
366.8775624956433
20
-500.43369870969673
30
0
40
1.9999999999999574
210
0
220
0
230
1
0
CIRCLE
5
489
100
AcDbEntity
8
0
100
AcDbCircle
10
581.37682284216748
20
-285.93443836317238
30
0
40
1.9999999999999751
210
0
220
0
230
1
0
CIRCLE
5
490
100
AcDbEntity
8
0
100
AcDbCircle
10
827.33188413407674
20
-264.11389356375241
30
0
40
2.0000000000000284
210
0
220
0
230
1
0
CIRCLE
5
491
100
AcDbEntity
8
0
100
AcDbCircle
10
1075.1074902254061
20
-318.61389355630183
30
0
40
2.0000000000000284
210
0
220
0
230
1
0
CIRCLE
5
492
100
AcDbEntity
8
0
100
AcDbCircle
10
1075.1074902254061
20
-464.36107981391604
30
0
40
1.9999999999998863
210
0
220
0
230
1
0
CIRCLE
5
493
100
AcDbEntity
8
0
100
AcDbCircle
10
945.86053855479304
20
-624.46694187823812
30
0
40
1.9999999999999929
210
0
220
0
230
1
0
CIRCLE
5
494
100
AcDbEntity
8
0
100
AcDbCircle
10
785.7546764904705
20
-753.71389354885127
30
0
40
2.0000000000000462
210
0
220
0
230
1
0
CIRCLE
5
495
100
AcDbEntity
8
0
100
AcDbCircle
10
592.47907039169093
20
-753.71389354885127
30
0
40
1.9999999999999929
210
0
220
0
230
1
0
CIRCLE
5
496
100
AcDbEntity
8
0
100
AcDbCircle
10
838.43413168360019
20
-731.89334874943097
30
0
40
2.0000000000000995
210
0
220
0
230
1
0
CIRCLE
5
497
100
AcDbEntity
8
0
100
AcDbCircle
10
1053.2869454259862
20
-517.04053500704549
30
0
40
2.0000000000000995
210
0
220
0
230
1
0
CIRCLE
5
498
100
AcDbEntity
8
0
100
AcDbCircle
10
1075.1074902254061
20
-391.48748668510893
30
0
40
1.9999999999999574
210
0
220
0
230
1
0
CIRCLE
5
499
100
AcDbEntity
8
0
100
AcDbCircle
10
1020.6074902328567
20
-264.11389356375241
30
0
40
2.0000000000000284
210
0
220
0
230
1
0
CIRCLE
5
500
100
AcDbEntity
8
0
100
AcDbCircle
10
634.05627803529694
20
-264.11389356375241
30
0
40
2.0000000000000018
210
0
220
0
230
1
0
CIRCLE
5
501
100
AcDbEntity
8
0
100
AcDbCircle
10
473.95041597097463
20
-393.36084523436523
30
0
40
2.0000000000000284
210
0
220
0
230
1
0
CIRCLE
5
502
100
AcDbEntity
8
0
100
AcDbCircle
10
344.70346430036182
20
-589.90350386309115
30
0
40
2.0000000000000284
210
0
220
0
230
1
0
CIRCLE
5
503
100
AcDbEntity
8
0
100
AcDbCircle
10
360.66614472351273
20
-737.75121312570025
30
0
40
2.0000000000000284
210
0
220
0
230
1
0
CIRCLE
5
504
100
AcDbEntity
8
0
100
AcDbCircle
10
344.70346430036182
20
-699.21389355630185
30
0
40
2.0000000000000284
210
0
220
0
230
1
0
CIRCLE
5
505
100
AcDbEntity
8
0
100
AcDbCircle
10
344.70346430036182
20
-553.46670729868765
30
0
40
1.9999999999998863
210
0
220
0
230
1
0
CIRCLE
5
506
100
AcDbEntity
8
0
100
AcDbCircle
10
527.66361940657112
20
-339.6476417987688
30
0
40
2.0000000000000639
210
0
220
0
230
1
0
CIRCLE
5
507
100
AcDbEntity
8
0
100
AcDbCircle
10
730.6940810846869
20
-264.11389356375241
30
0
40
2.0000000000000062
210
0
220
0
230
1
0
CIRCLE
5
508
100
AcDbEntity
8
0
100
AcDbCircle
10
1059.1448098022552
20
-280.07657398690327
30
0
40
1.9999999999999574
210
0
220
0
230
1
0
CIRCLE
5
509
100
AcDbEntity
8
0
100
AcDbCircle
10
1075.1074902254061
20
-427.92428324951243
30
0
40
1.9999999999998863
210
0
220
0
230
1
0
CIRCLE
5
510
100
AcDbEntity
8
0
100
AcDbCircle
10
999.57374199038952
20
-570.75373844264175
30
0
40
2.0000000000000639
210
0
220
0
230
1
0
CIRCLE
5
511
100
AcDbEntity
8
0
100
AcDbCircle
10
814.2645921988186
20
-748.0429187215093
30
0
40
2.0000000000000462
210
0
220
0
230
1
0
CIRCLE
5
512
100
AcDbEntity
8
0
100
AcDbCircle
10
495.84126734230108
20
-753.71389354885127
30
0
40
2.0000000000000995
210
0
220
0
230
1
0
LWPOLYLINE
5
513
100
AcDbEntity
8
0
100
AcDbPolyline
90
252
70
1
43
0.0
10
497.54931481292158
20
-769.21389355630185
10
497.54931481292158
20
-763.33768891097282
42
0.41421356237319906
10
496.54931481292158
20
-762.33768891097316
10
494.04931481292158
20
-762.33768891097293
42
0.41421356237313667
10
493.04931481292158
20
-763.33768891097282
10
493.04931481292158
20
-769.21389355630185
10
443.13239173599845
20
-769.21389355630185
10
443.13239173599823
20
-763.3376889109727
42
0.41421356237315748
10
442.13239173599851
20
-762.33768891097316
10
439.63239173599851
20
-762.33768891097293
42
0.41421356237313667
10
438.63239173599851
20
-763.33768891097282
10
438.63239173599851
20
-769.21389355630185
10
399.2034642929155
20
-769.21389355630163
42
-0.037473268716175602
10
388.75504801762935
20
-768.42971976200647
10
389.81191172111471
20
-762.68611087206114
42
0.41421356237305412
10
389.00939161318456
20
-761.52165328315232
10
386.55066949213568
20
-761.06923143192887
42
0.41421356237300938
10
385.38621190322658
20
-761.87175153985879
10
384.32934819974139
20
-767.61536042980379
42
-0.18018482450680823
10
343.20714500741752
20
-741.21880072768545
10
347.98909404687424
20
-737.86634381485567
42
0.41421356237314105
10
348.23386864632562
20
-736.47347433229004
10
346.79875004243252
20
-734.42641922976793
42
0.41421356237315304
10
345.40588055986683
20
-734.18164463031655
10
340.62393152041057
20
-737.53410154314611
42
-0.14584404586628638
10
329.20346429291561
20
-699.21389355630185
10
329.20346429291561
20
-689.84779464426549
10
335.07966893823522
20
-689.84779464426549
42
0.41421356237326151
10
336.07966893823522
20
-688.8477946442656
10
336.07966893823522
20
-686.34779464426526
42
0.41421356237303258
10
335.07966893823527
20
-685.34779464426538
10
329.20346429291561
20
-685.34779464426538
10
329.20346429291561
20
-635.43087156734248
10
335.07966893823522
20
-635.43087156734248
42
0.41421356237321988
10
336.07966893823522
20
-634.43087156734225
10
336.07966893823522
20
-631.93087156734225
42
0.41421356237311585
10
335.07966893823527
20
-630.93087156734225
10
329.20346429291561
20
-630.93087156734225
10
329.20346429291556
20
-581.01394849041935
10
335.0796689382355
20
-581.01394849041935
42
0.41421356237309503
10
336.0796689382355
20
-580.01394849041947
10
336.0796689382355
20
-577.51394849041912
42
0.41421356237311585
10
335.07966893823556
20
-576.51394849041924
10
329.20346429291556
20
-576.51394849041924
10
329.20346429291556
20
-553.46670729868765
42
-0.074776258503860521
10
333.18468982645948
20
-526.9946382581129
10
338.72932064584666
20
-528.85395350828435
42
0.41421356237303586
10
339.99536900428717
20
-528.22377769623654
10
340.79020968727798
20
-525.85349748312592
42
0.41421356237304896
10
340.1600338752304
20
-524.58744912468558
10
334.6154030558431
20
-522.72813387451481
42
-0.10964715255870851
10
355.56385398612633
20
-489.82709699189843
10
363.05973052018368
20
-482.33122045784103
10
367.21483467253074
20
-486.48632461018821
42
0.41421356237312451
10
368.62904823490373
20
-486.48632461018803
10
370.39681518787012
20
-484.71855765722171
42
0.41421356237312451
10
370.39681518787012
20
-483.30434409484883
10
366.24171103552322
20
-479.14923994250148
10
401.5383058391825
20
-443.85264513884226
10
405.69340999152985
20
-448.00774929118916
42
0.41421356237306561
10
407.10762355390284
20
-448.00774929118904
10
408.87539050686928
20
-446.23998233822243
42
0.41421356237305096
10
408.87539050686928
20
-444.8257687758495
10
404.72028635452205
20
-440.67066462350272
10
440.01688115818177
20
-405.37406981984293
10
444.1719853105289
20
-409.52917397218994
42
0.41421356237315388
10
445.58619887290206
20
-409.52917397218994
10
447.35396582586839
20
-407.76140701922361
42
0.41421356237308032
10
447.35396582586844
20
-406.34719345685056
10
443.19886167352132
20
-402.19208930450338
10
478.49545647718071
20
-366.89549450084382
10
482.65056062952783
20
-371.05059865319095
42
0.41421356237315388
10
484.06477419190094
20
-371.05059865319095
10
485.83254114486726
20
-369.28283170022451
42
0.41421356237308032
10
485.83254114486738
20
-367.86861813785151
10
481.67743699252026
20
-363.71351398550428
10
516.9740317961797
20
-328.41691918184483
10
521.12913594852682
20
-332.57202333419184
42
0.41421356237315388
10
522.54334951090004
20
-332.57202333419184
10
524.31111646386637
20
-330.80425638122551
42
0.41421356237308032
10
524.31111646386637
20
-329.39004281885246
10
520.15601231151925
20
-325.23493866650529
10
555.45260711517881
20
-289.93834386284573
10
559.60771126752581
20
-294.09344801519285
42
0.41421356237311707
10
561.02192482989904
20
-294.09344801519285
10
562.78969178286525
20
-292.32568106222641
42
0.41421356237312451
10
562.78969178286548
20
-290.91146749985342
10
558.63458763051835
20
-286.75636334750618
10
570.41666772851204
20
-274.9742832495125
42
-0.092636719720328067
10
597.69459567813431
20
-256.28632796520407
10
599.92285064965972
20
-261.69325536482222
42
0.41421356237315277
10
601.22843959055126
20
-262.23679700758896
10
603.53985282012422
20
-261.28423788493279
42
0.4142135623730599
10
604.08339446289108
20
-259.97864894404131
10
601.85513949136543
20
-254.57172154442281
42
-0.091731154362522424
10
634.05627803530126
20
-248.6138935563018
10
651.04191201582489
20
-248.6138935563018
10
651.04191201582489
20
-254.49009820162931
42
0.4142135623731783
10
652.04191201582501
20
-255.49009820162922
10
654.54191201582489
20
-255.49009820162917
42
0.41421356237313667
10
655.54191201582501
20
-254.49009820162928
10
655.54191201582501
20
-248.6138935563018
10
703.72905971754471
20
-248.6138935563018
10
703.72905971754471
20
-254.49009820162931
42
0.4142135623731783
10
704.72905971754483
20
-255.49009820162922
10
707.22905971754471
20
-255.49009820162917
42
0.41421356237313667
10
708.22905971754483
20
-254.49009820162928
10
708.22905971754483
20
-248.6138935563018
10
758.14598279446795
20
-248.6138935563018
10
758.14598279446795
20
-254.49009820162931
42
0.41421356237307422
10
759.14598279446807
20
-255.49009820162922
10
761.64598279446795
20
-255.49009820162917
42
0.41421356237319906
10
762.64598279446795
20
-254.49009820162928
10
762.64598279446795
20
-248.6138935563018
10
812.56290587139108
20
-248.6138935563018
10
812.56290587139108
20
-254.49009820162931
42
0.41421356237307422
10
813.56290587139119
20
-255.49009820162922
10
816.06290587139097
20
-255.49009820162917
42
0.41421356237319906
10
817.06290587139108
20
-254.49009820162928
10
817.06290587139108
20
-248.6138935563018
10
866.97982894831421
20
-248.6138935563018
10
866.97982894831421
20
-254.49009820162931
42
0.41421356237313667
10
867.97982894831421
20
-255.49009820162922
10
870.47982894831432
20
-255.49009820162917
42
0.41421356237319906
10
871.47982894831432
20
-254.49009820162928
10
871.47982894831443
20
-248.6138935563018
10
921.39675202523733
20
-248.6138935563018
10
921.39675202523733
20
-254.49009820162928
42
0.41421356237313667
10
922.39675202523745
20
-255.49009820162922
10
924.89675202523745
20
-255.49009820162917
42
0.41421356237319906
10
925.89675202523733
20
-254.49009820162928
10
925.89675202523733
20
-248.6138935563018
10
975.81367510216046
20
-248.6138935563018
10
975.81367510216046
20
-254.49009820162928
42
0.41421356237313667
10
976.81367510216046
20
-255.49009820162922
10
979.31367510216046
20
-255.49009820162917
42
0.41421356237319906
10
980.31367510216046
20
-254.49009820162928
10
980.31367510216023
20
-248.6138935563018
10
1020.6074902328611
20
-248.61389355630183
42
-0.034380394729541783
10
1030.1999319548358
20
-249.27425798031607
10
1029.2141124949635
20
-255.03048625592783
42
0.41421356237311907
10
1030.0309584819693
20
-256.1849396475867
10
1032.4950827052999
20
-256.60694890340346
42
0.4142135623731068
10
1033.6495360969589
20
-255.79010291639804
10
1034.6353555568312
20
-250.03387464078565
42
-0.18018482450682921
10
1076.080555353916
20
-275.92034549485362
10
1071.3403916705877
20
-279.33162857072614
42
0.41421356237318829
10
1071.1128449689661
20
-280.72741598239787
10
1072.5731458565285
20
-282.75658362401458
42
0.4142135623732015
10
1073.9689332682001
20
-282.98413032563644
10
1078.7090969515289
20
-279.57284724976358
42
-0.14900006434994034
10
1090.607490232861
20
-318.61389355630183
10
1090.607490232861
20
-327.11510478073507
10
1084.7312855875246
20
-327.11510478073507
42
0.41421356237309503
10
1083.7312855875248
20
-328.11510478073512
10
1083.7312855875248
20
-330.61510478073512
42
0.41421356237307422
10
1084.7312855875248
20
-331.61510478073524
10
1090.607490232861
20
-331.61510478073512
10
1090.607490232861
20
-381.53202785765814
10
1084.7312855875246
20
-381.53202785765814
42
0.41421356237309503
10
1083.7312855875248
20
-382.53202785765825
10
1083.7312855875248
20
-385.03202785765825
42
0.41421356237307422
10
1084.7312855875248
20
-386.03202785765831
10
1090.607490232861
20
-386.03202785765814
10
1090.607490232861
20
-435.94895093458081
10
1084.731285587525
20
-435.94895093458081
42
0.41421356237301177
10
1083.7312855875252
20
-436.94895093458069
10
1083.7312855875252
20
-439.44895093458103
42
0.41421356237301177
10
1084.731285587525
20
-440.44895093458092
10
1090.607490232861
20
-440.44895093458092
10
1090.607490232861
20
-464.36107981391604
42
-0.072360788629936168
10
1086.8766818822319
20
-490.00531059130697
10
1081.3144395925401
20
-488.19936351739585
42
0.41421356237325285
10
1080.0545055032308
20
-488.8416765957287
10
1079.2824792395099
20
-491.21948555528041
42
0.41421356237314105
10
1079.9247923178423
20
-492.47941964458948
10
1085.487034607534
20
-494.28536671850048
42
-0.1120791473216935
10
1064.2471005396503
20
-528.00069012070526
10
1057.3627919544535
20
-534.88499870590215
10
1053.207687802098
20
-530.72989455354627
42
0.41421356237308032
10
1051.7934742397247
20
-530.72989455354627
10
1050.0257072867587
20
-532.49766150651294
42
0.4142135623729773
10
1050.0257072867587
20
-533.91187506888582
10
1054.180811439114
20
-538.06697922124147
10
1018.8842166354545
20
-573.36357402490091
10
1014.7291124830991
20
-569.20846987254504
42
0.41421356237302148
10
1013.3148989207258
20
-569.20846987254504
10
1011.5471319677596
20
-570.97623682551171
42
0.41421356237321272
10
1011.5471319677596
20
-572.39045038788458
10
1015.7022361201152
20
-576.54555454024046
10
980.40564131645533
20
-611.84214934390025
10
976.25053716410002
20
-607.68704519154437
42
0.41421356237302148
10
974.8363236017268
20
-607.68704519154437
10
973.06855664876048
20
-609.45481214451104
42
0.41421356237321272
10
973.06855664876048
20
-610.86902570688392
10
977.22366080111578
20
-615.02412985923957
10
941.92706599745645
20
-650.32072466289901
10
937.77196184510103
20
-646.16562051054302
42
0.41421356237303619
10
936.3577482827277
20
-646.16562051054314
10
934.58998132976149
20
-647.9333874635098
42
0.41421356237321272
10
934.58998132976149
20
-649.34760102588268
10
938.74508548211702
20
-653.50270517823856
10
903.44849067845735
20
-688.79929998189812
10
899.29338652610204
20
-684.64419582954235
42
0.41421356237303619
10
897.87917296372871
20
-684.64419582954247
10
896.11140601076249
20
-686.41196278250914
42
0.41421356237321272
10
896.11140601076249
20
-687.82617634488201
10
900.2665101631178
20
-691.98128049723766
10
864.96991535945835
20
-727.27787530089711
10
860.81481120710282
20
-723.12277114854112
42
0.4142135623729773
10
859.40059764472949
20
-723.12277114854123
10
857.63283069176327
20
-724.8905381015079
42
0.41421356237300672
10
857.63283069176305
20
-726.30475166388078
10
861.78793484411881
20
-730.45985581623665
10
849.39428679726439
20
-742.85350386309119
42
-0.090214171505769797
10
822.90582433495331
20
-761.18823230836324
10
820.62571321883843
20
-755.80296746611782
42
0.4142135623731113
10
819.31496128227377
20
-755.27199725905109
10
817.01280860273471
20
-756.24672442092333
42
0.4142135623731879
10
816.48183839566798
20
-757.55747635748764
10
818.76194951178286
20
-762.94274119973261
42
-0.094154374655099432
10
785.75467649047505
20
-769.21389355630185
10
769.63393019753698
20
-769.21389355630185
10
769.63393019753664
20
-763.33768891097282
42
0.41421356237313667
10
768.63393019753687
20
-762.33768891097316
10
766.13393019753687
20
-762.33768891097282
42
0.4142135623731783
10
765.13393019753698
20
-763.33768891097282
10
765.13393019753698
20
-769.21389355630185
10
715.21700712061386
20
-769.21389355630185
10
715.21700712061363
20
-763.33768891097282
42
0.41421356237313667
10
714.21700712061374
20
-762.33768891097316
10
711.71700712061374
20
-762.33768891097282
42
0.4142135623731783
10
710.71700712061386
20
-763.33768891097282
10
710.71700712061386
20
-769.21389355630185
10
660.80008404369084
20
-769.21389355630185
10
660.8000840436905
20
-763.33768891097282
42
0.41421356237313667
10
659.80008404369073
20
-762.33768891097316
10
657.30008404369084
20
-762.33768891097282
42
0.41421356237321988
10
656.30008404369073
20
-763.33768891097282
10
656.30008404369073
20
-769.21389355630185
10
606.38316096676772
20
-769.21389355630185
10
606.38316096676749
20
-763.3376889109727
42
0.41421356237315748
10
605.38316096676772
20
-762.33768891097316
10
602.88316096676772
20
-762.33768891097293
42
0.41421356237311585
10
601.88316096676772
20
-763.33768891097282
10
601.88316096676772
20
-769.21389355630185
10
551.96623788984459
20
-769.21389355630185
10
551.96623788984436
20
-763.33768891097282
42
0.41421356237307422
10
550.96623788984459
20
-762.33768891097316
10
548.46623788984448
20
-762.33768891097293
42
0.41421356237313667
10
547.46623788984471
20
-763.33768891097282
10
547.46623788984471
20
-769.21389355630185
0
CIRCLE
5
514
100
AcDbEntity
8
0
100
AcDbCircle
10
1619.3120426823668
20
-312.17601544536706
30
0
40
1.9999999999999574
210
0
220
-0
230
1
0
CIRCLE
5
515
100
AcDbEntity
8
0
100
AcDbCircle
10
1309.5119924420894
20
-621.19047213682143
30
0
40
1.9999999999999929
210
0
220
-0
230
1
0
CIRCLE
5
516
100
AcDbEntity
8
0
100
AcDbCircle
10
1855.1084065163868
20
-734.4747433842806
30
0
40
1.9999999999999574
210
0
220
-0
230
1
0
CIRCLE
5
517
100
AcDbEntity
8
0
100
AcDbCircle
10
1192.0056526375256
20
-498.67837955026516
30
0
40
2.0000000000000284
210
0
220
-0
230
1
0
CIRCLE
5
518
100
AcDbEntity
8
0
100
AcDbCircle
10
1741.8241352689238
20
-429.68235524992963
30
0
40
1.9999999999999929
210
0
220
-0
230
1
0
CIRCLE
5
519
100
AcDbEntity
8
0
100
AcDbCircle
10
1408.2416569843126
20
-308.63641370827708
30
0
40
1.9999999999999929
210
0
220
-0
230
1
0
CIRCLE
5
520
100
AcDbEntity
8
0
100
AcDbCircle
10
1432.0240850286461
20
-738.69681194138388
30
0
40
2.0000000000000817
210
0
220
-0
230
1
0
CIRCLE
5
521
100
AcDbEntity
8
0
100
AcDbCircle
10
1643.0944707267004
20
-742.23641367847392
30
0
40
1.9999999999999929
210
0
220
-0
230
1
0
CIRCLE
5
522
100
AcDbEntity
8
0
100
AcDbCircle
10
1196.2277211946262
20
-316.39808400247006
30
0
40
2.0000000000000284
210
0
220
-0
230
1
0
CIRCLE
5
523
100
AcDbEntity
8
0
100
AcDbCircle
10
1859.6683149978626
20
-552.00257880419144
30
0
40
1.9999999999999574
210
0
220
-0
230
1
0
CIRCLE
5
524
100
AcDbEntity
8
0
100
AcDbCircle
10
1546.4566676773106
20
-770.23641368592484
30
0
40
1.9999999999999996
210
0
220
-0
230
1
0
CIRCLE
5
525
100
AcDbEntity
8
0
100
AcDbCircle
10
1343.4262059991945
20
-694.70266545090908
30
0
40
2.0000000000000639
210
0
220
-0
230
1
0
CIRCLE
5
526
100
AcDbEntity
8
0
100
AcDbCircle
10
1166.1370257203262
20
-509.39351565933919
30
0
40
1.9999999999999574
210
0
220
-0
230
1
0
CIRCLE
5
527
100
AcDbEntity
8
0
100
AcDbCircle
10
1160.4660508929837
20
-371.5732102577806
30
0
40
2.0000000000000284
210
0
220
-0
230
1
0
CIRCLE
5
528
100
AcDbEntity
8
0
100
AcDbCircle
10
1311.6038539349229
20
-280.63641370082689
30
0
40
1.9999999999999574
210
0
220
-0
230
1
0
CIRCLE
5
529
100
AcDbEntity
8
0
100
AcDbCircle
10
1630.0271787914403
20
-286.30738852816762
30
0
40
1.9999999999999574
210
0
220
-0
230
1
0
CIRCLE
5
530
100
AcDbEntity
8
0
100
AcDbCircle
10
1815.1595518850811
20
-463.41979210910353
30
0
40
1.9999999999999929
210
0
220
-0
230
1
0
CIRCLE
5
531
100
AcDbEntity
8
0
100
AcDbCircle
10
1890.870076818029
20
-642.86282056456685
30
0
40
2.0000000000000284
210
0
220
-0
230
1
0
CIRCLE
5
532
100
AcDbEntity
8
0
100
AcDbCircle
10
1836.3700768254803
20
-770.23641368592371
30
0
40
1.9999999999999929
210
0
220
-0
230
1
0
CIRCLE
5
533
100
AcDbEntity
8
0
100
AcDbCircle
10
1890.870076818029
20
-679.29961712897034
30
0
40
2.0000000000000284
210
0
220
-0
230
1
0
CIRCLE
5
534
100
AcDbEntity
8
0
100
AcDbCircle
10
1868.6959786227471
20
-516.95621884676882
30
0
40
1.9999999999999574
210
0
220
-0
230
1
0
CIRCLE
5
535
100
AcDbEntity
8
0
100
AcDbCircle
10
1654.1967182762221
20
-302.45695850024549
30
0
40
1.9999999999999751
210
0
220
-0
230
1
0
CIRCLE
5
536
100
AcDbEntity
8
0
100
AcDbCircle
10
1408.2416569843124
20
-280.63641370082649
30
0
40
2.0000000000000284
210
0
220
-0
230
1
0
CIRCLE
5
537
100
AcDbEntity
8
0
100
AcDbCircle
10
1160.4660508929835
20
-335.13641369337705
30
0
40
2.0000000000000284
210
0
220
-0
230
1
0
CIRCLE
5
538
100
AcDbEntity
8
0
100
AcDbCircle
10
1160.4660508929842
20
-480.88359995099125
30
0
40
1.9999999999998863
210
0
220
-0
230
1
0
CIRCLE
5
539
100
AcDbEntity
8
0
100
AcDbCircle
10
1289.7130025635977
20
-640.98946201531271
30
0
40
1.9999999999999929
210
0
220
-0
230
1
0
CIRCLE
5
540
100
AcDbEntity
8
0
100
AcDbCircle
10
1449.8188646279209
20
-770.2364136859253
30
0
40
2.0000000000000462
210
0
220
-0
230
1
0
CIRCLE
5
541
100
AcDbEntity
8
0
100
AcDbCircle
10
1643.0944707267006
20
-770.2364136859245
30
0
40
1.9999999999999929
210
0
220
-0
230
1
0
CIRCLE
5
542
100
AcDbEntity
8
0
100
AcDbCircle
10
1397.1394094347911
20
-748.41586888650511
30
0
40
2.0000000000000995
210
0
220
-0
230
1
0
CIRCLE
5
543
100
AcDbEntity
8
0
100
AcDbCircle
10
1182.2865956924043
20
-533.56305514412065
30
0
40
2.0000000000000995
210
0
220
-0
230
1
0
CIRCLE
5
544
100
AcDbEntity
8
0
100
AcDbCircle
10
1160.4660508929837
20
-408.01000682218415
30
0
40
1.9999999999999574
210
0
220
-0
230
1
0
CIRCLE
5
545
100
AcDbEntity
8
0
100
AcDbCircle
10
1214.9660508855327
20
-280.63641370082735
30
0
40
2.0000000000000284
210
0
220
-0
230
1
0
CIRCLE
5
546
100
AcDbEntity
8
0
100
AcDbCircle
10
1601.5172630830923
20
-280.63641370082576
30
0
40
2.0000000000000018
210
0
220
-0
230
1
0
CIRCLE
5
547
100
AcDbEntity
8
0
100
AcDbCircle
10
1761.6231251474153
20
-409.88336537143795
30
0
40
2.0000000000000284
210
0
220
-0
230
1
0
CIRCLE
5
548
100
AcDbEntity
8
0
100
AcDbCircle
10
1890.870076818029
20
-606.42602400016335
30
0
40
2.0000000000000284
210
0
220
-0
230
1
0
CIRCLE
5
549
100
AcDbEntity
8
0
100
AcDbCircle
10
1874.9073963948786
20
-754.27373326277234
30
0
40
2.0000000000000284
210
0
220
-0
230
1
0
CIRCLE
5
550
100
AcDbEntity
8
0
100
AcDbCircle
10
1890.8700768180292
20
-715.73641369337395
30
0
40
2.0000000000000284
210
0
220
-0
230
1
0
CIRCLE
5
551
100
AcDbEntity
8
0
100
AcDbCircle
10
1890.8700768180288
20
-569.98922743575974
30
0
40
1.9999999999998863
210
0
220
-0
230
1
0
CIRCLE
5
552
100
AcDbEntity
8
0
100
AcDbCircle
10
1707.9099217118187
20
-356.17016193584163
30
0
40
2.0000000000000639
210
0
220
-0
230
1
0
CIRCLE
5
553
100
AcDbEntity
8
0
100
AcDbCircle
10
1504.8794600337023
20
-280.6364137008261
30
0
40
2.0000000000000062
210
0
220
-0
230
1
0
CIRCLE
5
554
100
AcDbEntity
8
0
100
AcDbCircle
10
1176.4287313161342
20
-296.59909412397838
30
0
40
1.9999999999999574
210
0
220
-0
230
1
0
CIRCLE
5
555
100
AcDbEntity
8
0
100
AcDbCircle
10
1160.466050892984
20
-444.4468033865877
30
0
40
1.9999999999998863
210
0
220
-0
230
1
0
CIRCLE
5
556
100
AcDbEntity
8
0
100
AcDbCircle
10
1235.9997991280011
20
-587.2762585797168
30
0
40
2.0000000000000639
210
0
220
-0
230
1
0
CIRCLE
5
557
100
AcDbEntity
8
0
100
AcDbCircle
10
1421.3089489195727
20
-764.56543885858332
30
0
40
2.0000000000000462
210
0
220
-0
230
1
0
CIRCLE
5
558
100
AcDbEntity
8
0
100
AcDbCircle
10
1739.7322737760901
20
-770.23641368592394
30
0
40
2.0000000000000995
210
0
220
-0
230
1
0
LWPOLYLINE
5
559
100
AcDbEntity
8
0
100
AcDbPolyline
90
252
70
1
43
0.0
10
1520.3565339977736
20
-779.86020904804718
10
1520.356533997774
20
-785.73641369337565
10
1470.4396109208508
20
-785.73641369337565
10
1470.4396109208508
20
-779.8602090480473
42
0.4142135623730534
10
1469.4396109208506
20
-778.86020904804718
10
1466.9396109208503
20
-778.86020904804752
42
0.41421356237326151
10
1465.9396109208506
20
-779.86020904804718
10
1465.9396109208506
20
-785.73641369337565
10
1449.8188646279207
20
-785.73641369337565
42
-0.094154374655120152
10
1416.811591606606
20
-779.46526133680379
10
1419.0917027227197
20
-774.07999649456247
42
0.41421356237307883
10
1418.5607325156527
20
-772.76924455799781
10
1416.2585798361135
20
-771.79451739612568
42
0.41421356237304047
10
1414.9478278995491
20
-772.32548760319241
10
1412.6677167834359
20
-777.71075244543454
42
-0.090214171505750312
10
1386.1792543211311
20
-759.37602400016522
10
1373.7856062742731
20
-746.98237595330716
10
1377.940710426624
20
-742.82727180095571
42
0.41421356237321272
10
1377.940710426624
20
-741.41305823858283
10
1376.1729434736581
20
-739.64529128561617
42
0.41421356237309503
10
1374.7587299112847
20
-739.64529128561617
10
1370.6036257589335
20
-743.80039543796761
10
1335.3070309552736
20
-708.50380063430805
10
1339.462135107625
20
-704.34869648195695
42
0.41421356237338935
10
1339.4621351076248
20
-702.93448291958407
10
1337.6943681546586
20
-701.1667159666174
42
0.41421356237309503
10
1336.2801545922855
20
-701.1667159666174
10
1332.1250504399345
20
-705.3218201189685
10
1296.8284556362744
20
-670.02522531530929
10
1300.9835597886258
20
-665.87012116295796
42
0.41421356237333051
10
1300.9835597886258
20
-664.45590760058508
10
1299.2157928356594
20
-662.68814064761841
42
0.41421356237309503
10
1297.8015792732863
20
-662.68814064761841
10
1293.6464751209351
20
-666.84324479996974
10
1258.3498803172754
20
-631.54664999631018
10
1262.5049844696264
20
-627.39154584395919
42
0.41421356237321272
10
1262.5049844696264
20
-625.97733228158631
10
1260.7372175166604
20
-624.20956532861965
42
0.41421356237303619
10
1259.3230039542868
20
-624.20956532861965
10
1255.1678998019361
20
-628.36466948097132
10
1219.8713049982759
20
-593.06807467731142
10
1224.0264091506274
20
-588.9129705249602
42
0.41421356237327167
10
1224.0264091506269
20
-587.49875696258732
10
1222.2586421976612
20
-585.73099000962065
42
0.4142135623729773
10
1220.8444286352878
20
-585.73099000962065
10
1216.6893244829366
20
-589.88609416197187
10
1181.392729679277
20
-554.58949935831265
10
1185.5478338316279
20
-550.43439520596166
42
0.4142135623729773
10
1185.5478338316279
20
-549.02018164358878
10
1183.7800668786617
20
-547.25241469062212
42
0.41421356237303619
10
1182.3658533162884
20
-547.25241469062212
10
1178.2107491639376
20
-551.40751884297345
10
1171.3264405787443
20
-544.52321025778065
42
-0.11207914732170013
10
1150.0865065108596
20
-510.80788685557366
10
1155.6487488005439
20
-509.00193978166527
42
0.4142135623730292
10
1156.2910618788762
20
-507.74200569235632
10
1155.5190356151556
20
-505.36419673280449
42
0.41421356237330537
10
1154.2591015258461
20
-504.72188365447181
10
1148.6968592361623
20
-506.52783072838054
42
-0.072360788629931255
10
1144.9660508855336
20
-480.88359995099125
10
1144.9660508855334
20
-456.97147107165677
10
1150.8422555308609
20
-456.97147107165677
42
0.41421356237301177
10
1151.8422555308609
20
-455.97147107165682
10
1151.8422555308609
20
-453.47147107165648
42
0.41421356237313667
10
1150.8422555308609
20
-452.47147107165659
10
1144.9660508855334
20
-452.47147107165659
10
1144.9660508855331
20
-402.55454799473387
10
1150.8422555308609
20
-402.55454799473398
42
0.41421356237307422
10
1151.8422555308609
20
-401.55454799473387
10
1151.8422555308609
20
-399.05454799473381
42
0.41421356237309503
10
1150.8422555308612
20
-398.05454799473381
10
1144.9660508855331
20
-398.05454799473381
10
1144.9660508855329
20
-348.13762491781074
10
1150.8422555308607
20
-348.13762491781091
42
0.41421356237307422
10
1151.8422555308607
20
-347.13762491781085
10
1151.8422555308607
20
-344.63762491781074
42
0.41421356237309503
10
1150.8422555308609
20
-343.63762491781074
10
1144.9660508855329
20
-343.63762491781074
10
1144.9660508855329
20
-335.13641369337705
42
-0.14900006434992083
10
1156.8644441668621
20
-296.09536738684324
10
1161.6046078501854
20
-299.50665046271217
42
0.41421356237314705
10
1163.0003952618567
20
-299.27910376109025
10
1164.4606961494194
20
-297.2499361194736
42
0.41421356237325346
10
1164.2331494477976
20
-295.85414870780187
10
1159.4929857644747
20
-292.44286563193305
42
-0.18018482450681866
10
1200.9381855615543
20
-266.55639477786235
10
1201.9240050214266
20
-272.31262305347354
42
0.41421356237311208
10
1203.0784584130856
20
-273.12946904047908
10
1205.5425826364162
20
-272.70745978466221
42
0.41421356237311907
10
1206.359428623422
20
-271.55300639300333
10
1205.3736091635496
20
-265.79677811739214
42
-0.034380394729571127
10
1214.9660508855325
20
-265.13641369337677
10
1255.2598660162248
20
-265.13641369337665
10
1255.2598660162248
20
-271.01261833870456
42
0.4142135623731783
10
1256.259866016225
20
-272.01261833870444
10
1258.759866016225
20
-272.01261833870444
42
0.41421356237313667
10
1259.759866016225
20
-271.01261833870456
10
1259.7598660162248
20
-265.13641369337665
10
1309.676789093148
20
-265.13641369337631
10
1309.676789093148
20
-271.01261833870416
42
0.41421356237295975
10
1310.6767890931478
20
-272.01261833870421
10
1313.1767890931478
20
-272.01261833870421
42
0.41421356237319906
10
1314.1767890931483
20
-271.01261833870421
10
1314.1767890931478
20
-265.13641369337631
10
1364.0937121700711
20
-265.1364136933762
10
1364.0937121700711
20
-271.01261833870399
42
0.41421356237316787
10
1365.0937121700713
20
-272.01261833870404
10
1367.5937121700713
20
-272.01261833870404
42
0.41421356237304302
10
1368.5937121700713
20
-271.0126183387041
10
1368.5937121700708
20
-265.1364136933762
10
1418.5106352469943
20
-265.13641369337591
10
1418.5106352469941
20
-271.0126183387037
42
0.41421356237304302
10
1419.5106352469943
20
-272.01261833870376
10
1422.0106352469943
20
-272.01261833870376
42
0.4142135623730846
10
1423.0106352469943
20
-271.01261833870382
10
1423.0106352469943
20
-265.13641369337591
10
1472.9275583239173
20
-265.13641369337563
10
1472.9275583239175
20
-271.01261833870342
42
0.41421356237306384
10
1473.9275583239173
20
-272.01261833870348
10
1476.4275583239173
20
-272.01261833870348
42
0.41421356237304302
10
1477.4275583239178
20
-271.01261833870353
10
1477.4275583239173
20
-265.13641369337563
10
1527.3444814008406
20
-265.13641369337552
10
1527.3444814008406
20
-271.01261833870325
42
0.41421356237318868
10
1528.3444814008408
20
-272.01261833870331
10
1530.8444814008408
20
-272.01261833870331
42
0.41421356237304302
10
1531.8444814008408
20
-271.01261833870342
10
1531.8444814008403
20
-265.13641369337552
10
1580.0316291025604
20
-265.13641369337518
10
1580.0316291025604
20
-271.01261833870296
42
0.41421356237318868
10
1581.0316291025606
20
-272.01261833870308
10
1583.5316291025606
20
-272.01261833870308
42
0.41421356237304302
10
1584.5316291025606
20
-271.01261833870308
10
1584.5316291025601
20
-265.13641369337518
10
1601.5172630830923
20
-265.13641369337512
42
-0.091731154362501371
10
1633.7184016270212
20
-271.09424168149332
10
1631.4901466554945
20
-276.50116908111505
42
0.41421356237295409
10
1632.033688298261
20
-277.80675802200648
10
1634.3451015278342
20
-278.75931714466265
42
0.41421356237305262
10
1635.6506904687258
20
-278.21577550189573
10
1637.8789454402524
20
-272.80884810227417
42
-0.092636719720349231
10
1665.1568733898819
20
-291.49680338658555
10
1676.9389534878715
20
-303.2788834845752
10
1672.7838493355205
20
-307.43398763692676
42
0.41421356237342621
10
1672.7838493355202
20
-308.84820119929987
10
1674.5516162884862
20
-310.61596815226613
42
0.41421356237321272
10
1675.9658298508593
20
-310.61596815226619
10
1680.120934003211
20
-306.46086399991475
10
1715.4175288068705
20
-341.75745880357408
10
1711.262424654519
20
-345.91256295592564
42
0.41421356237308032
10
1711.2624246545192
20
-347.32677651829874
10
1713.0301916074857
20
-349.09454347126507
42
0.41421356237322748
10
1714.4444051698588
20
-349.09454347126513
10
1718.59950932221
20
-344.93943931891363
10
1753.8961041258699
20
-380.23603412257302
10
1749.7409999735182
20
-384.39113827492457
42
0.41421356237308032
10
1749.7409999735187
20
-385.80535183729762
10
1751.5087669264849
20
-387.57311879026395
42
0.41421356237322748
10
1752.9229804888582
20
-387.57311879026406
10
1757.0780846412094
20
-383.41801463791273
10
1792.3746794448689
20
-418.71460944157195
10
1788.2195752925177
20
-422.86971359392345
42
0.41421356237308032
10
1788.2195752925179
20
-424.28392715629656
10
1789.9873422454839
20
-426.05169410926288
42
0.41421356237313917
10
1791.4015558078574
20
-426.05169410926294
10
1795.5566599602084
20
-421.8965899569115
10
1830.8532547638686
20
-457.19318476057111
10
1826.6981506115171
20
-461.34828891292244
42
0.41421356237333051
10
1826.6981506115171
20
-462.76250247529532
10
1828.4659175644833
20
-464.53026942826199
42
0.41421356237294787
10
1829.8801311268564
20
-464.53026942826227
10
1834.0352352792081
20
-460.37516527591066
10
1869.3318300828676
20
-495.67176007956959
10
1865.1767259305161
20
-499.82686423192149
42
0.41421356237338935
10
1865.1767259305163
20
-501.24107779429437
10
1866.9444928834823
20
-503.00884474726081
42
0.41421356237302148
10
1868.3587064458557
20
-503.00884474726104
10
1872.5138105982069
20
-498.85374059490914
10
1880.0096871322683
20
-506.34961712897081
42
-0.10964715255870199
10
1900.9581380625509
20
-539.25065401158486
10
1895.4135072431561
20
-541.10996926175835
42
0.41421356237293699
10
1894.7833314311083
20
-542.37601762019858
10
1895.5781721140993
20
-544.74629783330931
42
0.41421356237294371
10
1896.8442204725397
20
-545.37647364535701
10
1902.3888512919348
20
-543.51715839518295
42
-0.074776258503866447
10
1906.3700768254794
20
-569.98922743575974
10
1906.3700768254796
20
-593.0364686274919
10
1900.4938721801511
20
-593.0364686274919
42
0.41421356237303258
10
1899.4938721801514
20
-594.03646862749179
10
1899.4938721801511
20
-596.53646862749201
42
0.41421356237307422
10
1900.4938721801511
20
-597.53646862749201
10
1906.3700768254796
20
-597.53646862749201
10
1906.3700768254796
20
-647.45339170441503
10
1900.4938721801518
20
-647.45339170441503
42
0.41421356237292856
10
1899.4938721801518
20
-648.45339170441491
10
1899.4938721801518
20
-650.95339170441491
42
0.41421356237321988
10
1900.4938721801518
20
-651.95339170441514
10
1906.3700768254796
20
-651.95339170441514
10
1906.3700768254798
20
-701.87031478133804
10
1900.4938721801518
20
-701.87031478133804
42
0.41421356237292856
10
1899.493872180152
20
-702.87031478133804
10
1899.4938721801518
20
-705.37031478133827
42
0.41421356237301177
10
1900.493872180152
20
-706.37031478133827
10
1906.3700768254798
20
-706.37031478133827
10
1906.3700768254798
20
-715.73641369337395
42
-0.14584404586630578
10
1894.9496095979821
20
-754.05662168022275
10
1890.1676605585205
20
-750.70416476738933
42
0.41421356237328938
10
1888.7747910759549
20
-750.94893936684059
10
1887.3396724720619
20
-752.99599446936259
42
0.41421356237308132
10
1887.5844470715133
20
-754.38886395192844
10
1892.3663961109744
20
-757.74132086476186
42
-0.18018482450681808
10
1851.2441929186461
20
-784.13788056687736
10
1850.1873292151608
20
-778.39427167693191
42
0.41421356237333312
10
1849.0228716262516
20
-777.59175156900164
10
1846.5641495052027
20
-778.04417342022532
42
0.41421356237314355
10
1845.7616293972728
20
-779.20863100913402
10
1846.8184931007581
20
-784.95223989908027
42
-0.03747326871614625
10
1836.3700768254803
20
-785.73641369337429
10
1796.9411493823893
20
-785.73641369337429
10
1796.9411493823893
20
-779.86020904804593
42
0.4142135623730534
10
1795.9411493823891
20
-778.86020904804582
10
1793.4411493823886
20
-778.86020904804604
42
0.41421356237326151
10
1792.4411493823891
20
-779.86020904804582
10
1792.4411493823891
20
-785.73641369337429
10
1742.5242263054661
20
-785.73641369337452
10
1742.5242263054658
20
-779.86020904804616
42
0.41421356237297013
10
1741.5242263054661
20
-778.86020904804604
10
1739.0242263054661
20
-778.86020904804639
42
0.41421356237326151
10
1738.0242263054656
20
-779.86020904804604
10
1738.0242263054661
20
-785.73641369337452
10
1688.1073032285431
20
-785.73641369337474
10
1688.1073032285431
20
-779.8602090480465
42
0.41421356237297013
10
1687.1073032285431
20
-778.86020904804639
10
1684.6073032285426
20
-778.86020904804673
42
0.41421356237326151
10
1683.6073032285431
20
-779.86020904804627
10
1683.6073032285431
20
-785.73641369337474
10
1633.69038015162
20
-785.73641369337508
10
1633.6903801516198
20
-779.86020904804673
42
0.41421356237297013
10
1632.6903801516198
20
-778.86020904804673
10
1630.1903801516198
20
-778.86020904804695
42
0.41421356237326151
10
1629.1903801516196
20
-779.86020904804661
10
1629.1903801516198
20
-785.73641369337508
10
1579.2734570746966
20
-785.73641369337543
10
1579.273457074697
20
-779.86020904804707
42
0.4142135623730534
10
1578.2734570746968
20
-778.86020904804695
10
1575.7734570746966
20
-778.86020904804718
42
0.41421356237326151
10
1574.7734570746968
20
-779.86020904804695
10
1574.7734570746968
20
-785.73641369337543
10
1524.856533997774
20
-785.73641369337543
10
1524.8565339977736
20
-779.86020904804707
42
0.41421356237297013
10
1523.8565339977736
20
-778.86020904804695
10
1521.3565339977736
20
-778.86020904804718
42
0.41421356237334478
0
ENDSEC
0
SECTION
2
OBJECTS
0
DICTIONARY
5
C
100
AcDbDictionary
3
ACAD_GROUP
350
D
3
ACAD_MLINESTYLE
350
17
0
DICTIONARY
5
D
100
AcDbDictionary
0
DICTIONARY
5
1A
330
C
100
AcDbDictionary
0
DICTIONARY
5
17
100
AcDbDictionary
0
ENDSEC
0
EOF
