0
SECTION
2
HEADER
9
$INSUNITS
70
1
9
$ACADVER
1
AC1014
9
$HANDSEED
5
FFFF
0
ENDSEC
0
SECTION
2
TABLES
0
TABLE
2
VPORT
5
8
100
AcDbSymbolTable
0
ENDTAB
0
TABLE
2
LTYPE
5
5
100
AcDbSymbolTable
0
LTYPE
5
14
100
AcDbSymbolTableRecord
100
AcDbLinetypeTableRecord
2
BYBLOCK
70
0
0
LTYPE
5
15
100
AcDbSymbolTableRecord
100
AcDbLinetypeTableRecord
2
BYLAYER
70
0
0
ENDTAB
0
TABLE
2
LAYER
5
2
100
AcDbSymbolTable
70
2
0
LAYER
5
50
100
AcDbSymbolTableRecord
100
AcDbLayerTableRecord
2
0
70
0
6
CONTINUOUS
0
ENDTAB
0
TABLE
2
STYLE
5
3
100
AcDbSymbolTable
70
1
0
STYLE
5
11
100
AcDbSymbolTableRecord
100
AcDbTextStyleTableRecord
2
STANDARD
70
0
0
ENDTAB
0
TABLE
2
VIEW
5
6
100
AcDbSymbolTable
70
0
0
ENDTAB
0
TABLE
2
UCS
5
7
100
AcDbSymbolTable
70
0
0
ENDTAB
0
TABLE
2
APPID
5
9
100
AcDbSymbolTable
70
2
0
APPID
5
12
100
AcDbSymbolTableRecord
100
AcDbRegAppTableRecord
2
ACAD
70
0
0
ENDTAB
0
TABLE
2
DIMSTYLE
5
A
100
AcDbSymbolTable
70
1
0
ENDTAB
0
TABLE
2
BLOCK_RECORD
5
1
100
AcDbSymbolTable
70
1
0
BLOCK_RECORD
5
1F
100
AcDbSymbolTableRecord
100
AcDbBlockTableRecord
2
*MODEL_SPACE
0
BLOCK_RECORD
5
1B
100
AcDbSymbolTableRecord
100
AcDbBlockTableRecord
2
*PAPER_SPACE
0
ENDTAB
0
ENDSEC
0
SECTION
2
BLOCKS
0
BLOCK
5
20
100
AcDbEntity
100
AcDbBlockBegin
2
*MODEL_SPACE
0
ENDBLK
5
21
100
AcDbEntity
100
AcDbBlockEnd
0
BLOCK
5
1C
100
AcDbEntity
100
AcDbBlockBegin
2
*PAPER_SPACE
0
ENDBLK
5
1D
100
AcDbEntity
100
AcDbBlockEnd
0
ENDSEC
0
SECTION
2
ENTITIES
0
LWPOLYLINE
5
100
100
AcDbEntity
8
OUTER_PROFILES
100
AcDbPolyline
90
4
70
1
43
0.0
10
40.500000000000021
20
-5.5948246910244104e-15
10
40.5
20
37.000000000000021
10
0
20
37.000000000000007
10
0
20
0
0
LWPOLYLINE
5
101
100
AcDbEntity
8
INTERIOR_PROFILES
100
AcDbPolyline
90
8
70
1
43
0.0
10
36.500000000000014
20
5.6000000000000112
42
0.4142135623730962
10
36.850000000000023
20
5.2500000000000169
10
37.650000000000027
20
5.2500000000000115
42
0.41421356237308682
10
38.000000000000014
20
5.6000000000000174
10
38.000000000000014
20
6.4000000478714654
42
0.41421356237309037
10
37.65000000000002
20
6.7500000478714659
10
36.850000000000016
20
6.7500000478714623
42
0.41421356237309387
10
36.500000000000014
20
6.4000000478714654
0
LWPOLYLINE
5
102
100
AcDbEntity
8
INTERIOR_PROFILES
100
AcDbPolyline
90
8
70
1
43
0.0
10
4.0000000000000036
20
6.399999999999995
10
3.9999999999999982
20
5.5999999999999979
42
-0.41421356237309798
10
3.6499999999999928
20
5.2499999999999947
10
2.850000000000001
20
5.2499999999999911
42
-0.41421356237309798
10
2.499999999999992
20
5.5999999999999943
10
2.5000000000000018
20
6.399999999999995
42
-0.41421356237309503
10
2.8500000000000014
20
6.7499999999999947
10
3.6500000000000012
20
6.7499999999999982
42
-0.41421356237309503
0
LWPOLYLINE
5
103
100
AcDbEntity
8
INTERIOR_PROFILES
100
AcDbPolyline
90
8
70
1
43
0.0
10
36.500000000000014
20
8.6000000000000174
10
36.500000000000014
20
9.4000000478714618
42
-0.41421356237309387
10
36.850000000000016
20
9.7500000478714615
10
37.650000000000013
20
9.750000047871465
42
-0.41421356237309737
10
38.000000000000014
20
9.4000000478714583
10
38.000000000000014
20
8.6000000000000139
42
-0.4142135623730927
10
37.650000000000013
20
8.250000000000016
10
36.850000000000016
20
8.250000000000016
42
-0.4142135623730962
0
LWPOLYLINE
5
104
100
AcDbEntity
8
INTERIOR_PROFILES
100
AcDbPolyline
90
8
70
1
43
0.0
10
2.4999999999999973
20
8.5999999999999908
42
0.41421356237309093
10
2.850000000000001
20
8.2499999999999911
10
3.6499999999999946
20
8.2499999999999964
42
0.41421356237309387
10
3.9999999999999956
20
8.5999999999999961
10
3.9999999999999982
20
9.399999999999995
42
0.41421356237309209
10
3.649999999999995
20
9.7499999999999964
10
2.8499999999999956
20
9.7499999999999947
42
0.4142135623730962
10
2.499999999999996
20
9.3999999999999932
0
LWPOLYLINE
5
105
100
AcDbEntity
8
INTERIOR_PROFILES
100
AcDbPolyline
90
8
70
1
43
0.0
10
35.15000000000002
20
2.7500000000000244
42
0.41421356237309442
10
35.500000000000007
20
3.1000000000000218
10
35.500000000000014
20
3.9000000000000168
42
0.41421356237309154
10
35.15000000000002
20
4.2500000000000195
10
34.350000000000016
20
4.2500000000000213
42
0.4142135623730962
10
34.000000000000014
20
3.9000000000000159
10
34.000000000000014
20
3.1000000000000143
42
0.41421356237309559
10
34.350000000000023
20
2.7500000000000182
0
LWPOLYLINE
5
106
100
AcDbEntity
8
INTERIOR_PROFILES
100
AcDbPolyline
90
8
70
1
43
0.0
10
5.3499999999999934
20
4.2499999999999991
10
6.1499999999999977
20
4.25
42
-0.41421356237309326
10
6.5000000000000018
20
3.9000000000000008
10
6.5000000000000071
20
3.1000000000000019
42
-0.41421356237309559
10
6.1499999999999959
20
2.7499999999999933
10
5.3500000000000032
20
2.7499999999999982
42
-0.41421356237309476
10
5.0000000000000009
20
3.1000000000000001
10
4.9999999999999982
20
3.899999999999999
42
-0.41421356237308915
0
LWPOLYLINE
5
107
100
AcDbEntity
8
INTERIOR_PROFILES
100
AcDbPolyline
90
8
70
1
43
0.0
10
31.000000000000018
20
3.1000000000000179
10
31.000000000000018
20
3.9000000000000132
42
-0.41421356237309681
10
31.350000000000016
20
4.250000000000016
10
32.150000000000027
20
4.250000000000016
42
-0.41421356237309154
10
32.500000000000021
20
3.9000000000000146
10
32.500000000000021
20
3.1000000000000152
42
-0.41421356237309559
10
32.15000000000002
20
2.750000000000016
10
31.350000000000026
20
2.7500000000000155
42
-0.41421356237310064
0
CIRCLE
5
108
100
AcDbEntity
8
INTERIOR_PROFILES
100
AcDbCircle
10
-37.500000000000021
20
3.2500000000000191
30
0
40
0.99999999999999956
210
0
220
0
230
-1
0
LWPOLYLINE
5
109
100
AcDbEntity
8
INTERIOR_PROFILES
100
AcDbPolyline
90
8
70
1
43
0.0
10
9.4999999999999982
20
3.9000000000000021
42
0.4142135623730927
10
9.1500000000000004
20
4.25
10
8.3499999999999961
20
4.2499999999999964
42
0.41421356237308743
10
8.0000000000000053
20
3.9000000000000039
10
7.9999999999999982
20
3.1000000000000001
42
0.41421356237309681
10
8.350000000000005
20
2.7499999999999996
10
9.1499999999999986
20
2.7500000000000013
42
0.41421356237309537
10
9.5
20
3.1000000000000014
0
CIRCLE
5
110
100
AcDbEntity
8
INTERIOR_PROFILES
100
AcDbCircle
10
-2.999999999999996
20
3.2499999999999951
30
0
40
0.99999999999999956
210
0
220
0
230
-1
0
ENDSEC
0
SECTION
2
OBJECTS
0
DICTIONARY
5
C
100
AcDbDictionary
3
ACAD_GROUP
350
D
3
ACAD_MLINESTYLE
350
17
0
DICTIONARY
5
D
100
AcDbDictionary
0
DICTIONARY
5
1A
330
C
100
AcDbDictionary
0
DICTIONARY
5
17
100
AcDbDictionary
0
ENDSEC
0
EOF
