0
SECTION
2
HEADER
9
$INSUNITS
70
4
9
$ACADVER
1
AC1014
9
$HANDSEED
5
FFFF
0
ENDSEC
0
SECTION
2
TABLES
0
TABLE
2
VPORT
5
8
100
AcDbSymbolTable
0
ENDTAB
0
TABLE
2
LTYPE
5
5
100
AcDbSymbolTable
0
LTYPE
5
14
100
AcDbSymbolTableRecord
100
AcDbLinetypeTableRecord
2
BYBLOCK
70
0
0
LTYPE
5
15
100
AcDbSymbolTableRecord
100
AcDbLinetypeTableRecord
2
BYLAYER
70
0
0
ENDTAB
0
TABLE
2
LAYER
5
2
100
AcDbSymbolTable
70
2
0
LAYER
5
50
100
AcDbSymbolTableRecord
100
AcDbLayerTableRecord
2
0
70
0
6
CONTINUOUS
0
ENDTAB
0
TABLE
2
STYLE
5
3
100
AcDbSymbolTable
70
1
0
STYLE
5
11
100
AcDbSymbolTableRecord
100
AcDbTextStyleTableRecord
2
STANDARD
70
0
0
ENDTAB
0
TABLE
2
VIEW
5
6
100
AcDbSymbolTable
70
0
0
ENDTAB
0
TABLE
2
UCS
5
7
100
AcDbSymbolTable
70
0
0
ENDTAB
0
TABLE
2
APPID
5
9
100
AcDbSymbolTable
70
2
0
APPID
5
12
100
AcDbSymbolTableRecord
100
AcDbRegAppTableRecord
2
ACAD
70
0
0
ENDTAB
0
TABLE
2
DIMSTYLE
5
A
100
AcDbSymbolTable
70
1
0
ENDTAB
0
TABLE
2
BLOCK_RECORD
5
1
100
AcDbSymbolTable
70
1
0
BLOCK_RECORD
5
1F
100
AcDbSymbolTableRecord
100
AcDbBlockTableRecord
2
*MODEL_SPACE
0
BLOCK_RECORD
5
1B
100
AcDbSymbolTableRecord
100
AcDbBlockTableRecord
2
*PAPER_SPACE
0
ENDTAB
0
ENDSEC
0
SECTION
2
BLOCKS
0
BLOCK
5
20
100
AcDbEntity
100
AcDbBlockBegin
2
*MODEL_SPACE
0
ENDBLK
5
21
100
AcDbEntity
100
AcDbBlockEnd
0
BLOCK
5
1C
100
AcDbEntity
100
AcDbBlockBegin
2
*PAPER_SPACE
0
ENDBLK
5
1D
100
AcDbEntity
100
AcDbBlockEnd
0
ENDSEC
0
SECTION
2
ENTITIES
0
LWPOLYLINE
5
100
100
AcDbEntity
8
0
100
AcDbPolyline
90
12
70
1
43
0.0
10
1196.4789124270817
20
-2169.677618866398
42
0.19891236737966053
10
1213.7596123327107
20
-2211.396918945868
10
1428.6124260750976
20
-2426.2497326882522
42
0.1989123673796557
10
1470.3317261545671
20
-2443.530432593881
10
1856.8829383521268
20
-2443.5304325938801
42
0.41421356237308438
10
1895.8829383372256
20
-2404.5304326087803
10
1895.8829383372247
20
-2258.7832463511668
42
0.19891236737965476
10
1878.6022384315947
20
-2217.0639462716968
10
1663.7494246892084
20
-2002.211132529312
42
0.19891236737965107
10
1622.0301246097392
20
-1984.9304326236829
10
1235.4789124121796
20
-1984.9304326236845
42
0.41421356237309082
10
1196.4789124270808
20
-2023.9304326087838
0
CIRCLE
5
101
100
AcDbEntity
8
0
100
AcDbCircle
10
1875.6212680430331
20
-2423.2687622996873
30
0
40
1.9999999999999574
210
0
220
0
230
1
0
CIRCLE
5
102
100
AcDbEntity
8
0
100
AcDbCircle
10
1212.5185141641725
20
-2187.4723984656721
30
0
40
2.0000000000000284
210
0
220
0
230
1
0
CIRCLE
5
103
100
AcDbEntity
8
0
100
AcDbCircle
10
1639.8249042090133
20
-2000.9700343607733
30
0
40
1.9999999999999574
210
0
220
0
230
1
0
CIRCLE
5
104
100
AcDbEntity
8
0
100
AcDbCircle
10
1762.3369967955705
20
-2118.476374165336
30
0
40
1.9999999999999929
210
0
220
0
230
1
0
CIRCLE
5
105
100
AcDbEntity
8
0
100
AcDbCircle
10
1428.7545185109591
20
-1997.4304326236843
30
0
40
1.9999999999999929
210
0
220
0
230
1
0
CIRCLE
5
106
100
AcDbEntity
8
0
100
AcDbCircle
10
1452.5369465552933
20
-2427.4908308567906
30
0
40
2.0000000000000817
210
0
220
0
230
1
0
CIRCLE
5
107
100
AcDbEntity
8
0
100
AcDbCircle
10
1663.6073322533468
20
-2431.0304325938805
30
0
40
1.9999999999999929
210
0
220
0
230
1
0
CIRCLE
5
108
100
AcDbEntity
8
0
100
AcDbCircle
10
1216.7405827212724
20
-2005.1921029178768
30
0
40
2.0000000000000284
210
0
220
0
230
1
0
CIRCLE
5
109
100
AcDbEntity
8
0
100
AcDbCircle
10
1880.1811765245088
20
-2240.7965977195981
30
0
40
1.9999999999999574
210
0
220
0
230
1
0
CIRCLE
5
110
100
AcDbEntity
8
0
100
AcDbCircle
10
1330.0248539687359
20
-2309.9844910522279
30
0
40
1.9999999999999929
210
0
220
0
230
1
0
LWPOLYLINE
5
111
100
AcDbEntity
8
0
100
AcDbPolyline
90
12
70
1
43
0.0
10
664.63892944110171
20
-1953.5027990816229
42
0.19891236737965165
10
622.91962936163259
20
-1970.7834989872522
10
408.06681561924682
20
-2185.6363127296381
42
0.19891236737966064
10
390.78611571361739
20
-2227.3556128091072
10
390.78611571361733
20
-2373.1027990667217
42
0.41421356237309503
10
429.78611569871617
20
-2412.1027990518205
10
816.33732789627607
20
-2412.1027990518205
42
0.19891236737965132
10
858.05662797574553
20
-2394.8220991461912
10
1072.9094417181316
20
-2179.9692854038058
42
0.19891236737965282
10
1090.1901416237604
20
-2138.2499853243362
10
1090.1901416237606
20
-1992.5027990667213
42
0.41421356237309181
10
1051.1901416386615
20
-1953.5027990816229
0
CIRCLE
5
112
100
AcDbEntity
8
0
100
AcDbCircle
10
268.90869004924912
20
-2319.6768679943352
30
0
40
2.0000000000000284
210
0
220
0
230
1
0
CIRCLE
5
113
100
AcDbEntity
8
0
100
AcDbCircle
10
-540.83905421839006
20
-2319.6768679943352
30
0
40
2.0000000000000284
210
0
220
0
230
1
0
CIRCLE
5
114
100
AcDbEntity
8
0
100
AcDbCircle
10
265.36908831215828
20
-2149.3084952662539
30
0
40
2.0000000000000284
210
0
220
0
230
1
0
CIRCLE
5
115
100
AcDbEntity
8
0
100
AcDbCircle
10
-537.29945248129923
20
-2149.3084952662539
30
0
40
2.0000000000000284
210
0
220
0
230
1
0
LWPOLYLINE
5
116
100
AcDbEntity
8
0
100
AcDbPolyline
90
20
70
1
43
0.0
10
149.27517640123406
20
-2010.5311610436727
42
0.1989123673796564
10
107.55587632176443
20
-1993.2504611380432
10
-379.48624049090569
20
-1993.2504611380432
42
0.19891236737965615
10
-421.20554057037521
20
-2010.5311610436727
10
-536.05835431276091
20
-2125.3839747860588
42
0.19891236737965545
10
-553.3390542183904
20
-2167.103274865528
10
-553.33905421839017
20
-2472.250461123142
42
0.41421356237308971
10
-514.33905423329168
20
-2511.2504611082404
10
-360.90759672821503
20
-2511.2504611082409
42
0.1989123673796617
10
-333.33043227247657
20
-2499.8276255788805
10
-205.29742368348565
20
-2371.7946169898896
42
-0.19891236737964876
10
-179.84157955023312
20
-2361.2504611082409
10
-92.088784618908051
20
-2361.2504611082409
42
-0.19891236737965015
10
-66.632940485655581
20
-2371.7946169898896
10
61.400068103335954
20
-2499.8276255788815
42
0.19891236737966331
10
88.97723255907421
20
-2511.2504611082409
10
242.40869006415039
20
-2511.2504611082404
42
0.41421356237309476
10
281.40869004924917
20
-2472.2504611231416
10
281.40869004924923
20
-2167.1032748655275
42
0.19891236737965776
10
264.12799014361997
20
-2125.3839747860584
0
CIRCLE
5
117
100
AcDbEntity
8
0
100
AcDbCircle
10
-397.28102009017988
20
-2009.290062875134
30
0
40
2.0000000000000284
210
0
220
0
230
1
0
CIRCLE
5
118
100
AcDbEntity
8
0
100
AcDbCircle
10
1074.1505398866657
20
-2156.0447649236098
30
0
40
2.0000000000000284
210
0
220
0
230
1
0
CIRCLE
5
119
100
AcDbEntity
8
0
100
AcDbCircle
10
-73.528638143498597
20
-2352.4423037825777
30
0
40
1.999999999999913
210
0
220
0
230
1
0
CIRCLE
5
120
100
AcDbEntity
8
0
100
AcDbCircle
10
646.84414984182342
20
-1969.5424008187135
30
0
40
1.9999999999999574
210
0
220
0
230
1
0
CIRCLE
5
121
100
AcDbEntity
8
0
100
AcDbCircle
10
1069.9284713295642
20
-1973.7644693758148
30
0
40
2.0000000000000284
210
0
220
0
230
1
0
CIRCLE
5
122
100
AcDbEntity
8
0
100
AcDbCircle
10
834.13210749554582
20
-2396.0631973147297
30
0
40
2.0000000000000817
210
0
220
0
230
1
0
CIRCLE
5
123
100
AcDbEntity
8
0
100
AcDbCircle
10
-135.96518208457056
20
-2005.7504611380432
30
0
40
2.0000000000000262
210
0
220
0
230
1
0
CIRCLE
5
124
100
AcDbEntity
8
0
100
AcDbCircle
10
411.0477860078052
20
-2391.8411287576278
30
0
40
1.9999999999999574
210
0
220
0
230
1
0
CIRCLE
5
125
100
AcDbEntity
8
0
100
AcDbCircle
10
261.1470197550571
20
-2490.988790814049
30
0
40
2.0000000000000284
210
0
220
0
230
1
0
CIRCLE
5
126
100
AcDbEntity
8
0
100
AcDbCircle
10
78.836121607102001
20
-2496.733268720925
30
0
40
1.9999999999998863
210
0
220
0
230
1
0
CIRCLE
5
127
100
AcDbEntity
8
0
100
AcDbCircle
10
623.0617217974916
20
-2399.6027990518205
30
0
40
1.9999999999999929
210
0
220
0
230
1
0
CIRCLE
5
128
100
AcDbEntity
8
0
100
AcDbCircle
10
-350.76648577624263
20
-2496.733268720925
30
0
40
2.0000000000000995
210
0
220
0
230
1
0
CIRCLE
5
129
100
AcDbEntity
8
0
100
AcDbCircle
10
956.64420008210232
20
-2278.5568575101665
30
0
40
1.9999999999999929
210
0
220
0
230
1
0
CIRCLE
5
130
100
AcDbEntity
8
0
100
AcDbCircle
10
-533.07738392419822
20
-2490.988790814049
30
0
40
2.0000000000000995
210
0
220
0
230
1
0
CIRCLE
5
131
100
AcDbEntity
8
0
100
AcDbCircle
10
406.4878775263287
20
-2209.3689641775395
30
0
40
1.9999999999999574
210
0
220
0
230
1
0
CIRCLE
5
132
100
AcDbEntity
8
0
100
AcDbCircle
10
125.35065592103884
20
-2009.290062875134
30
0
40
1.9999999999999929
210
0
220
0
230
1
0
CIRCLE
5
133
100
AcDbEntity
8
0
100
AcDbCircle
10
-198.40172602564249
20
-2352.4423037825777
30
0
40
2.0000000000000995
210
0
220
0
230
1
0
CIRCLE
5
134
100
AcDbEntity
8
0
100
AcDbCircle
10
524.33205725526693
20
-2087.0487406232764
30
0
40
1.9999999999999929
210
0
220
0
230
1
0
CIRCLE
5
135
100
AcDbEntity
8
0
100
AcDbCircle
10
857.91453553987753
20
-1966.0027990816229
30
0
40
1.9999999999999929
210
0
220
0
230
1
0
CIRCLE
5
136
100
AcDbEntity
8
0
100
AcDbCircle
10
-552.94286925373535
20
-1762.375501064955
30
0
40
2.0000000000000284
210
0
220
0
230
1
0
LWPOLYLINE
5
137
100
AcDbEntity
8
0
100
AcDbPolyline
90
20
70
1
43
0.0
10
49.296253067990165
20
-1942.5262586495001
42
0.19891236737965143
10
76.873417523728875
20
-1953.9490941788606
10
230.30487502880507
20
-1953.9490941788606
42
0.41421356237308865
10
269.30487501390394
20
-1914.9490941937615
10
269.30487501390394
20
-1609.8019079361472
42
0.19891236737965823
10
252.02417510827459
20
-1568.0826078566774
10
137.17136136588894
20
-1453.2297941142915
42
0.1989123673796564
10
95.452061286419294
20
-1435.949094208662
10
-391.59005552625092
20
-1435.9490942086629
42
0.19891236737966297
10
-433.30935560572021
20
-1453.229794114292
10
-548.1621693481062
20
-1568.0826078566781
42
0.1989123673796617
10
-565.44286925373547
20
-1609.8019079361475
10
-565.44286925373558
20
-1914.9490941937611
42
0.41421356237309614
10
-526.44286926863651
20
-1953.9490941788608
10
-373.01141176356055
20
-1953.9490941788608
42
0.19891236737966297
10
-345.43424730782237
20
-1942.5262586495005
10
-217.40123871883088
20
-1814.4932500605094
42
-0.19891236737963747
10
-191.94539458557841
20
-1803.9490941788608
10
-104.19259965425327
20
-1803.9490941788606
42
-0.19891236737965626
10
-78.736755521000788
20
-1814.4932500605094
0
CIRCLE
5
138
100
AcDbEntity
8
0
100
AcDbCircle
10
66.732306571756808
20
-1939.4319017915439
30
0
40
1.9999999999998863
210
0
220
0
230
1
0
CIRCLE
5
139
100
AcDbEntity
8
0
100
AcDbCircle
10
-764.69599703289214
20
-1791.1928798416311
30
-5.5511151231257827e-16
40
2.0000000000000284
210
0
220
0
230
1
0
LWPOLYLINE
5
140
100
AcDbEntity
8
0
100
AcDbPolyline
90
12
70
1
43
0.0
10
-1139.1809909293765
20
-1508.430069452621
42
0.41421356237309992
10
-1181.9959909144754
20
-1551.2450694377196
10
-1181.9959909144754
20
-1809.3212973958248
42
0.19891236737966353
10
-1169.4557677553419
20
-1839.5960742217892
10
-1057.9620025799018
20
-1951.0898393972302
42
0.19891236737964046
10
-1027.6872257539362
20
-1963.6300625563645
10
-795.01099703289242
20
-1963.6300625563645
42
0.41421356237309598
10
-752.19599704779341
20
-1920.8150625712653
10
-752.19599704779341
20
-1661.5706971119973
42
0.19891236737966561
10
-764.73622020692676
20
-1631.295920286032
10
-875.0618478812039
20
-1520.970292611755
42
0.19891236737965245
10
-905.33662470716934
20
-1508.4300694526212
0
LWPOLYLINE
5
141
100
AcDbEntity
8
0
100
AcDbPolyline
90
12
70
1
43
0.0
10
-875.48319537783141
20
-2051.4337514614053
42
0.19891236737966042
10
-905.75797221433334
20
-2038.8935282979082
10
-1139.6023384365408
20
-2038.8935282979078
42
0.41421356237309798
10
-1182.4173384365406
20
-2081.7085282979078
10
-1182.4173384365406
20
-2339.7847562560119
42
0.19891236737965212
10
-1169.877115273043
20
-2370.059533092513
10
-1058.383350097602
20
-2481.5532982679547
42
0.1989123673796476
10
-1028.1085732611
20
-2494.0935214314522
10
-795.43234454005642
20
-2494.0935214314532
42
0.41421356237310281
10
-752.6173445400558
20
-2451.2785214314522
10
-752.61734454005602
20
-2192.0341559721846
42
0.19891236737965973
10
-765.15756770355392
20
-2161.7593791356826
0
CIRCLE
5
142
100
AcDbEntity
8
0
100
AcDbCircle
10
-1169.4959909293766
20
-1680.2831813876928
30
0
40
1.9999999999998863
210
0
220
0
230
1
0
CIRCLE
5
143
100
AcDbEntity
8
0
100
AcDbCircle
10
-1169.9173384365406
20
-2210.7466402478804
30
-5.5511151231257827e-16
40
1.9999999999998863
210
0
220
0
230
1
0
CIRCLE
5
144
100
AcDbEntity
8
0
100
AcDbCircle
10
256.80487501390388
20
-1762.3755010649547
30
0
40
2.0000000000000284
210
0
220
0
230
1
0
CIRCLE
5
145
100
AcDbEntity
8
0
100
AcDbCircle
10
113.24684088569364
20
-1451.9886959457538
30
0
40
1.9999999999999929
210
0
220
0
230
1
0
CIRCLE
5
146
100
AcDbEntity
8
0
100
AcDbCircle
10
-85.632453178843818
20
-1795.1409368531977
30
0
40
1.999999999999913
210
0
220
0
230
1
0
CIRCLE
5
147
100
AcDbEntity
8
0
100
AcDbCircle
10
249.04320471971189
20
-1933.6874238846681
30
0
40
2.0000000000000284
210
0
220
0
230
1
0
CIRCLE
5
148
100
AcDbEntity
8
0
100
AcDbCircle
10
-409.38483512552517
20
-1451.9886959457538
30
0
40
2.0000000000000284
210
0
220
0
230
1
0
CIRCLE
5
149
100
AcDbEntity
8
0
100
AcDbCircle
10
-1022.2588095674839
20
-1520.9300694377202
30
0
40
1.9999999999999929
210
0
220
0
230
1
0
CIRCLE
5
150
100
AcDbEntity
8
0
100
AcDbCircle
10
-766.89601983165073
20
-1649.9250922494332
30
-5.5511151231257827e-16
40
2.0000000000000995
210
0
220
0
230
1
0
CIRCLE
5
151
100
AcDbEntity
8
0
100
AcDbCircle
10
-1160.6169339917572
20
-1529.8091259795458
30
0
40
2.0000000000000284
210
0
220
0
230
1
0
CIRCLE
5
152
100
AcDbEntity
8
0
100
AcDbCircle
10
-1022.6801570746482
20
-2051.3935282979082
30
0
40
1.9999999999999929
210
0
220
0
230
1
0
CIRCLE
5
153
100
AcDbEntity
8
0
100
AcDbCircle
10
-911.34911139341443
20
-1951.1300625712647
30
-5.5511151231257827e-16
40
2.0000000000000284
210
0
220
0
230
1
0
CIRCLE
5
154
100
AcDbEntity
8
0
100
AcDbCircle
10
-549.40326751664452
20
-1592.0071283368736
30
0
40
2.0000000000000284
210
0
220
0
230
1
0
CIRCLE
5
155
100
AcDbEntity
8
0
100
AcDbCircle
10
253.26527327681305
20
-1592.0071283368729
30
0
40
2.0000000000000284
210
0
220
0
230
1
0
CIRCLE
5
156
100
AcDbEntity
8
0
100
AcDbCircle
10
-1167.6097464646205
20
-2351.3858045081597
30
0
40
1.9999999999998863
210
0
220
0
230
1
0
CIRCLE
5
157
100
AcDbEntity
8
0
100
AcDbCircle
10
-1039.7096215132476
20
-2479.2859294595319
30
0
40
1.9999999999999574
210
0
220
0
230
1
0
CIRCLE
5
158
100
AcDbEntity
8
0
100
AcDbCircle
10
-911.77045890057821
20
-2481.5935214314522
30
0
40
2.0000000000000284
210
0
220
0
230
1
0
CIRCLE
5
159
100
AcDbEntity
8
0
100
AcDbCircle
10
-1161.0382814989212
20
-2060.2725848397336
30
5.5511151231257827e-16
40
2.0000000000000284
210
0
220
0
230
1
0
CIRCLE
5
160
100
AcDbEntity
8
0
100
AcDbCircle
10
-773.60800671193374
20
-2473.1028592595749
30
-5.5511151231257827e-16
40
2.0000000000000284
210
0
220
0
230
1
0
CIRCLE
5
161
100
AcDbEntity
8
0
100
AcDbCircle
10
-773.18665920476985
20
-1942.6394003993871
30
5.5511151231257827e-16
40
2.0000000000000284
210
0
220
0
230
1
0
CIRCLE
5
162
100
AcDbEntity
8
0
100
AcDbCircle
10
-1167.1883989574565
20
-1820.9223456479722
30
0
40
1.9999999999998863
210
0
220
0
230
1
0
CIRCLE
5
163
100
AcDbEntity
8
0
100
AcDbCircle
10
-1039.2882740060836
20
-1948.8224705993448
30
-5.5511151231257827e-16
40
1.9999999999999574
210
0
220
0
230
1
0
CIRCLE
5
164
100
AcDbEntity
8
0
100
AcDbCircle
10
-765.11734454005614
20
-2321.6563387018186
30
5.5511151231257827e-16
40
2.0000000000000284
210
0
220
0
230
1
0
CIRCLE
5
165
100
AcDbEntity
8
0
100
AcDbCircle
10
-767.31736733881451
20
-2180.3885511096205
30
0
40
2.0000000000000995
210
0
220
0
230
1
0
CIRCLE
5
166
100
AcDbEntity
8
0
100
AcDbCircle
10
-894.15692396218572
20
-2053.7011202698277
30
0
40
2.0000000000000639
210
0
220
0
230
1
0
CIRCLE
5
167
100
AcDbEntity
8
0
100
AcDbCircle
10
-210.50554106098772
20
-1795.1409368531977
30
0
40
2.0000000000000995
210
0
220
0
230
1
0
CIRCLE
5
168
100
AcDbEntity
8
0
100
AcDbCircle
10
-362.87030081158775
20
-1939.4319017915439
30
0
40
2.0000000000000995
210
0
220
0
230
1
0
CIRCLE
5
169
100
AcDbEntity
8
0
100
AcDbCircle
10
-893.73557645502171
20
-1523.2376614096404
30
-5.5511151231257827e-16
40
2.0000000000000639
210
0
220
0
230
1
0
CIRCLE
5
170
100
AcDbEntity
8
0
100
AcDbCircle
10
-148.06899711991576
20
-1448.4490942086629
30
0
40
2.0000000000000262
210
0
220
0
230
1
0
CIRCLE
5
171
100
AcDbEntity
8
0
100
AcDbCircle
10
-545.18119895954328
20
-1933.6874238846688
30
0
40
2.0000000000000995
210
0
220
0
230
1
0
CIRCLE
5
172
100
AcDbEntity
8
0
100
AcDbCircle
10
1638.100713677245
20
-871.54873669092694
30
0
40
1.9999999999999574
210
0
220
0
230
1
0
LWPOLYLINE
5
173
100
AcDbEntity
8
0
100
AcDbPolyline
90
12
70
1
43
0.0
10
1811.0023436257516
20
-1898.1536273214929
42
0.41421356237310364
10
1850.0023436257516
20
-1859.1536273214922
10
1850.0023436257504
20
-1713.406441063878
42
0.19891236737965373
10
1832.7216437157565
20
-1671.6871409738715
10
1617.8688299733703
20
-1456.8343272314871
42
0.19891236737966145
10
1576.1495298833638
20
-1439.5536273214932
10
1189.598317685804
20
-1439.5536273214952
42
0.41421356237309503
10
1150.5983176858035
20
-1478.5536273214957
10
1150.5983176858044
20
-1624.3008135791094
42
0.19891236737965859
10
1167.8790175957986
20
-1666.020113669116
10
1382.7318313381852
20
-1880.8729274115008
42
0.19891236737966447
10
1424.4511314281922
20
-1898.1536273214945
0
CIRCLE
5
174
100
AcDbEntity
8
0
100
AcDbCircle
10
1328.3006634369679
20
-1180.5631933823815
30
0
40
1.9999999999999929
210
0
220
0
230
1
0
CIRCLE
5
175
100
AcDbEntity
8
0
100
AcDbCircle
10
1593.9443094826379
20
-1455.5932290734856
30
0
40
1.9999999999999574
210
0
220
0
230
1
0
CIRCLE
5
176
100
AcDbEntity
8
0
100
AcDbCircle
10
410.0582926560993
20
-1880.4837091188685
30
0
40
1.9999999999999574
210
0
220
0
230
1
0
LWPOLYLINE
5
177
100
AcDbEntity
8
0
100
AcDbPolyline
90
12
70
1
43
0.0
10
407.07732225700431
20
-1674.2788930803408
42
0.19891236737965892
10
389.79662234701038
20
-1715.9981931703476
10
389.79662234701044
20
-1861.7453794279613
42
0.41421356237309398
10
428.79662234701038
20
-1900.7453794279616
10
815.34783454457011
20
-1900.7453794279616
42
0.19891236737965406
10
857.06713463457641
20
-1883.4646795179683
10
1071.9199483769621
20
-1668.6118657755828
42
0.19891236737966492
10
1089.200648286956
20
-1626.8925656855756
10
1089.2006482869558
20
-1481.1453794279621
42
0.41421356237309931
10
1050.2006482869558
20
-1442.1453794279614
10
663.64943608939609
20
-1442.1453794279612
42
0.19891236737965556
10
621.9301359993899
20
-1459.4260793379553
0
CIRCLE
5
178
100
AcDbEntity
8
0
100
AcDbCircle
10
1617.7267375269712
20
-1885.6536273065922
30
0
40
1.9999999999999929
210
0
220
0
230
1
0
CIRCLE
5
179
100
AcDbEntity
8
0
100
AcDbCircle
10
1170.8599879948972
20
-1459.8152976305887
30
0
40
2.0000000000000284
210
0
220
0
230
1
0
CIRCLE
5
180
100
AcDbEntity
8
0
100
AcDbCircle
10
523.3425639035612
20
-1575.6913209845172
30
0
40
1.9999999999999929
210
0
220
0
230
1
0
CIRCLE
5
181
100
AcDbEntity
8
0
100
AcDbCircle
10
1873.8970775112653
20
-1293.8474646298409
30
0
40
1.9999999999999574
210
0
220
0
230
1
0
CIRCLE
5
182
100
AcDbEntity
8
0
100
AcDbCircle
10
1073.1610465349595
20
-1644.6873452848502
30
0
40
2.0000000000000284
210
0
220
0
230
1
0
CIRCLE
5
183
100
AcDbEntity
8
0
100
AcDbCircle
10
955.65470673039613
20
-1767.1994378714066
30
0
40
1.9999999999999929
210
0
220
0
230
1
0
CIRCLE
5
184
100
AcDbEntity
8
0
100
AcDbCircle
10
405.49838417462291
20
-1698.0115445387796
30
0
40
1.9999999999999574
210
0
220
0
230
1
0
CIRCLE
5
185
100
AcDbEntity
8
0
100
AcDbCircle
10
1829.7406733166576
20
-1877.8919570123992
30
0
40
1.9999999999999574
210
0
220
0
230
1
0
CIRCLE
5
186
100
AcDbEntity
8
0
100
AcDbCircle
10
1210.794323632404
20
-1058.0511007958253
30
0
40
2.0000000000000284
210
0
220
0
230
1
0
CIRCLE
5
187
100
AcDbEntity
8
0
100
AcDbCircle
10
1760.6128062638024
20
-989.05507649548997
30
0
40
1.9999999999999929
210
0
220
0
230
1
0
CIRCLE
5
188
100
AcDbEntity
8
0
100
AcDbCircle
10
1382.8739237845841
20
-1452.0536273363953
30
0
40
1.9999999999999929
210
0
220
0
230
1
0
CIRCLE
5
189
100
AcDbEntity
8
0
100
AcDbCircle
10
1068.9389779778585
20
-1462.4070497370553
30
0
40
2.0000000000000284
210
0
220
0
230
1
0
CIRCLE
5
190
100
AcDbEntity
8
0
100
AcDbCircle
10
1166.6379194377969
20
-1642.0955931783831
30
0
40
2.0000000000000284
210
0
220
0
230
1
0
CIRCLE
5
191
100
AcDbEntity
8
0
100
AcDbCircle
10
645.85465649011769
20
-1458.1849811799541
30
0
40
1.9999999999999574
210
0
220
0
230
1
0
CIRCLE
5
192
100
AcDbEntity
8
0
100
AcDbCircle
10
1716.4564020691955
20
-1573.0995688780481
30
0
40
1.9999999999999929
210
0
220
0
230
1
0
CIRCLE
5
193
100
AcDbEntity
8
0
100
AcDbCircle
10
833.14261414383964
20
-1884.7057776759698
30
0
40
2.0000000000000817
210
0
220
0
230
1
0
CIRCLE
5
194
100
AcDbEntity
8
0
100
AcDbCircle
10
856.92504218817157
20
-1454.645379442863
30
0
40
1.9999999999999929
210
0
220
0
230
1
0
CIRCLE
5
195
100
AcDbEntity
8
0
100
AcDbCircle
10
1284.1442592423605
20
-1764.6076857649396
30
0
40
1.9999999999999929
210
0
220
0
230
1
0
CIRCLE
5
196
100
AcDbEntity
8
0
100
AcDbCircle
10
1834.3005817981339
20
-1695.41979243231
30
0
40
1.9999999999999574
210
0
220
0
230
1
0
CIRCLE
5
197
100
AcDbEntity
8
0
100
AcDbCircle
10
622.07222844578587
20
-1888.2453794130606
30
0
40
1.9999999999999929
210
0
220
0
230
1
0
CIRCLE
5
198
100
AcDbEntity
8
0
100
AcDbCircle
10
1406.6563518289176
20
-1882.1140255695025
30
0
40
2.0000000000000817
210
0
220
0
230
1
0
CIRCLE
5
199
100
AcDbEntity
8
0
100
AcDbCircle
10
595.32733013756695
20
-1314.8208849165096
30
0
40
1.9999999999999929
210
0
220
0
230
1
0
LWPOLYLINE
5
200
100
AcDbEntity
8
0
100
AcDbPolyline
90
12
70
1
43
0.0
10
1925.1587478203587
20
-1275.1091349389344
10
1925.1587478203573
20
-1129.36194868132
42
0.19891236737965362
10
1898.7983581271467
20
-1065.7223383745306
10
1683.9455443847601
20
-850.86952463214573
42
0.19891236737966214
10
1620.3059340779712
20
-824.50913493893552
10
1233.7547218804111
20
-824.50913493893734
42
0.41421356237309626
10
1163.7547218804116
20
-894.50913493893722
10
1163.7547218804123
20
-1040.2563211965517
42
0.19891236737965673
10
1190.1151115736227
20
-1103.8959315033408
10
1404.9679253160095
20
-1318.7487452457253
42
0.19891236737966031
10
1468.6075356227993
20
-1345.1091349389364
10
1855.1587478203589
20
-1345.1091349389344
42
0.41421356237309387
0
CIRCLE
5
201
100
AcDbEntity
8
0
100
AcDbCircle
10
1042.1940796696376
20
-888.98255524050228
30
0
40
2.0000000000000284
210
0
220
0
230
1
0
CIRCLE
5
202
100
AcDbEntity
8
0
100
AcDbCircle
10
1440.0976199144518
20
-1323.9381601041437
30
0
40
2.0000000000000462
210
0
220
0
230
1
0
CIRCLE
5
203
100
AcDbEntity
8
0
100
AcDbCircle
10
378.7534858664032
20
-1124.5870500422293
30
0
40
1.9999999999999574
210
0
220
0
230
1
0
CIRCLE
5
204
100
AcDbEntity
8
0
100
AcDbCircle
10
1878.456985992741
20
-1111.3753000497516
30
0
40
1.9999999999999574
210
0
220
0
230
1
0
CIRCLE
5
205
100
AcDbEntity
8
0
100
AcDbCircle
10
1833.9482228799602
20
-1022.7925133546637
30
0
40
1.9999999999999929
210
0
220
0
230
1
0
CIRCLE
5
206
100
AcDbEntity
8
0
100
AcDbCircle
10
691.9651331869569
20
-1342.8208849239602
30
0
40
2
210
0
220
0
230
1
0
CIRCLE
5
207
100
AcDbEntity
8
0
100
AcDbCircle
10
1450.8127560235248
20
-1298.0695331869445
30
0
40
2.0000000000000817
210
0
220
0
230
1
0
CIRCLE
5
208
100
AcDbEntity
8
0
100
AcDbCircle
10
894.99559486507235
20
-1267.2871366889426
30
0
40
2.0000000000000639
210
0
220
0
230
1
0
CIRCLE
5
209
100
AcDbEntity
8
0
100
AcDbCircle
10
1427.0303279791913
20
-840.00913494638667
30
0
40
2.0000000000000284
210
0
220
0
230
1
0
CIRCLE
5
210
100
AcDbEntity
8
0
100
AcDbCircle
10
1179.2547218878619
20
-894.50913493893722
30
0
40
2.0000000000000284
210
0
220
0
230
1
0
CIRCLE
5
211
100
AcDbEntity
8
0
100
AcDbCircle
10
1179.2547218878626
20
-967.38272806774444
30
0
40
1.9999999999999574
210
0
220
0
230
1
0
CIRCLE
5
212
100
AcDbEntity
8
0
100
AcDbCircle
10
1909.6587478129074
20
-1165.7987452457235
30
0
40
2.0000000000000284
210
0
220
0
230
1
0
CIRCLE
5
213
100
AcDbEntity
8
0
100
AcDbCircle
10
1427.0303279791913
20
-868.00913495383725
30
0
40
1.9999999999999929
210
0
220
0
230
1
0
CIRCLE
5
214
100
AcDbEntity
8
0
100
AcDbCircle
10
1308.5016735584759
20
-1200.3621832608728
30
0
40
1.9999999999999929
210
0
220
0
230
1
0
CIRCLE
5
215
100
AcDbEntity
8
0
100
AcDbCircle
10
1362.2148769940734
20
-1254.0753866964692
30
0
40
2.0000000000000639
210
0
220
0
230
1
0
CIRCLE
5
216
100
AcDbEntity
8
0
100
AcDbCircle
10
1201.0752666872827
20
-1092.935776389681
30
0
40
2.0000000000000995
210
0
220
0
230
1
0
CIRCLE
5
217
100
AcDbEntity
8
0
100
AcDbCircle
10
1565.2453386721893
20
-1329.609134931485
30
0
40
2
210
0
220
0
230
1
0
CIRCLE
5
218
100
AcDbEntity
8
0
100
AcDbCircle
10
1620.3059340779712
20
-840.0091349463861
30
0
40
2.0000000000000018
210
0
220
0
230
1
0
CIRCLE
5
219
100
AcDbEntity
8
0
100
AcDbCircle
10
1909.6587478129072
20
-1129.36194868132
30
0
40
1.9999999999998863
210
0
220
0
230
1
0
CIRCLE
5
220
100
AcDbEntity
8
0
100
AcDbCircle
10
1179.2547218878626
20
-1003.819524632148
30
0
40
1.9999999999998863
210
0
220
0
230
1
0
CIRCLE
5
221
100
AcDbEntity
8
0
100
AcDbCircle
10
1780.4117961422935
20
-969.25608661699812
30
0
40
2.0000000000000284
210
0
220
0
230
1
0
CIRCLE
5
222
100
AcDbEntity
8
0
100
AcDbCircle
10
1195.2174023110126
20
-855.97181536953872
30
0
40
1.9999999999999574
210
0
220
0
230
1
0
CIRCLE
5
223
100
AcDbEntity
8
0
100
AcDbCircle
10
1887.4846496176256
20
-1076.328940092329
30
0
40
1.9999999999999574
210
0
220
0
230
1
0
CIRCLE
5
224
100
AcDbEntity
8
0
100
AcDbCircle
10
1415.9280804296695
20
-1307.7885901320653
30
0
40
2.0000000000000995
210
0
220
0
230
1
0
CIRCLE
5
225
100
AcDbEntity
8
0
100
AcDbCircle
10
1758.520944770969
20
-1329.609134931484
30
0
40
2.0000000000000995
210
0
220
0
230
1
0
CIRCLE
5
226
100
AcDbEntity
8
0
100
AcDbCircle
10
1330.3925249298006
20
-840.00913494638723
30
0
40
1.9999999999999574
210
0
220
0
230
1
0
CIRCLE
5
227
100
AcDbEntity
8
0
100
AcDbCircle
10
1648.8158497863187
20
-845.68010977372762
30
0
40
1.9999999999999574
210
0
220
0
230
1
0
CIRCLE
5
228
100
AcDbEntity
8
0
100
AcDbCircle
10
1855.1587478203589
20
-1329.6091349314838
30
0
40
1.9999999999999929
210
0
220
0
230
1
0
CIRCLE
5
229
100
AcDbEntity
8
0
100
AcDbCircle
10
1523.6681310285805
20
-840.0091349463861
30
0
40
2.0000000000000062
210
0
220
0
230
1
0
CIRCLE
5
230
100
AcDbEntity
8
0
100
AcDbCircle
10
1233.7547218804111
20
-840.00913494638758
30
0
40
2.0000000000000284
210
0
220
0
230
1
0
CIRCLE
5
231
100
AcDbEntity
8
0
100
AcDbCircle
10
1254.7884701228795
20
-1146.6489798252767
30
0
40
2.0000000000000639
210
0
220
0
230
1
0
CIRCLE
5
232
100
AcDbEntity
8
0
100
AcDbCircle
10
1661.883141721579
20
-1301.6091349240344
30
0
40
1.9999999999999929
210
0
220
0
230
1
0
CIRCLE
5
233
100
AcDbEntity
8
0
100
AcDbCircle
10
1672.9853892711005
20
-861.82967974580583
30
0
40
1.9999999999999751
210
0
220
0
230
1
0
CIRCLE
5
234
100
AcDbEntity
8
0
100
AcDbCircle
10
1909.6587478129084
20
-1275.1091349389344
30
0
40
2.0000000000000284
210
0
220
0
230
1
0
CIRCLE
5
235
100
AcDbEntity
8
0
100
AcDbCircle
10
1893.6960673897577
20
-1313.6464545083325
30
0
40
2.0000000000000284
210
0
220
0
230
1
0
CIRCLE
5
236
100
AcDbEntity
8
0
100
AcDbCircle
10
1661.883141721579
20
-1329.6091349314847
30
0
40
1.9999999999999929
210
0
220
0
230
1
0
CIRCLE
5
237
100
AcDbEntity
8
0
100
AcDbCircle
10
383.31339434788049
20
-1307.0592146223189
30
0
40
1.9999999999999574
210
0
220
0
230
1
0
CIRCLE
5
238
100
AcDbEntity
8
0
100
AcDbCircle
10
1468.6075356227993
20
-1329.6091349314856
30
0
40
2.0000000000000462
210
0
220
0
230
1
0
CIRCLE
5
239
100
AcDbEntity
8
0
100
AcDbCircle
10
928.90980842217687
20
-1193.7749433748545
30
0
40
1.9999999999999929
210
0
220
0
230
1
0
CIRCLE
5
240
100
AcDbEntity
8
0
100
AcDbCircle
10
1909.6587478129084
20
-1202.235541810127
30
0
40
2.0000000000000284
210
0
220
0
230
1
0
CIRCLE
5
241
100
AcDbEntity
8
0
100
AcDbCircle
10
1184.9256967152044
20
-1068.7662369048994
30
0
40
1.9999999999999574
210
0
220
0
230
1
0
CIRCLE
5
242
100
AcDbEntity
8
0
100
AcDbCircle
10
1179.2547218878622
20
-930.94593150334072
30
0
40
2.0000000000000284
210
0
220
0
230
1
0
CIRCLE
5
243
100
AcDbEntity
8
0
100
AcDbCircle
10
1215.0163921895046
20
-875.77080524803023
30
0
40
2.0000000000000284
210
0
220
0
230
1
0
CIRCLE
5
244
100
AcDbEntity
8
0
100
AcDbCircle
10
1179.2547218878626
20
-1040.2563211965514
30
0
40
1.9999999999998863
210
0
220
0
230
1
0
CIRCLE
5
245
100
AcDbEntity
8
0
100
AcDbCircle
10
1726.6985927066969
20
-915.54288318140163
30
0
40
2.0000000000000639
210
0
220
0
230
1
0
CIRCLE
5
246
100
AcDbEntity
8
0
100
AcDbCircle
10
619.10975818189695
20
-884.76048668340297
30
0
40
1.9999999999999574
210
0
220
0
230
1
0
CIRCLE
5
247
100
AcDbEntity
8
0
100
AcDbCircle
10
1046.4161482267398
20
-1071.2628507882973
30
0
40
2.0000000000000284
210
0
220
0
230
1
0
CIRCLE
5
248
100
AcDbEntity
8
0
100
AcDbCircle
10
1909.6587478129084
20
-1238.6723383745307
30
0
40
2.0000000000000284
210
0
220
0
230
1
0
CIRCLE
5
249
100
AcDbEntity
8
0
100
AcDbCircle
10
496.59766559534097
20
-1002.2668264879665
30
0
40
1.9999999999999929
210
0
220
0
230
1
0
CIRCLE
5
250
100
AcDbEntity
8
0
100
AcDbCircle
10
830.18014387995106
20
-881.220884946311
30
0
40
1.9999999999999929
210
0
220
0
230
1
0
CIRCLE
5
251
100
AcDbEntity
8
0
100
AcDbCircle
10
806.39771583562106
20
-1311.2812831794181
30
0
40
2.0000000000000817
210
0
220
0
230
1
0
CIRCLE
5
252
100
AcDbEntity
8
0
100
AcDbCircle
10
830.18014387995095
20
-853.22088493886042
30
0
40
2.0000000000000284
210
0
220
0
230
1
0
CIRCLE
5
253
100
AcDbEntity
8
0
100
AcDbCircle
10
347.55172404623715
20
-1142.5736986737975
30
0
40
1.9999999999998863
210
0
220
0
230
1
0
CIRCLE
5
254
100
AcDbEntity
8
0
100
AcDbCircle
10
636.90453778117126
20
-853.2208849388611
30
0
40
2.0000000000000018
210
0
220
0
230
1
0
CIRCLE
5
255
100
AcDbEntity
8
0
100
AcDbCircle
10
498.68952708817716
20
-1342.8208849239606
30
0
40
2.0000000000000995
210
0
220
0
230
1
0
LWPOLYLINE
5
256
100
AcDbEntity
8
0
100
AcDbPolyline
90
12
70
1
43
0.0
10
402.05172403879175
20
-1358.3208849314121
10
788.6029362363513
20
-1358.3208849314101
42
0.19891236737965545
10
852.24254654314052
20
-1331.9604952381994
10
1067.0953602855257
20
-1117.1076814958124
42
0.19891236737965776
10
1093.4557499787356
20
-1053.468071189023
10
1093.4557499787352
20
-907.7208849314087
42
0.4142135623730927
10
1023.4557499787352
20
-837.72088493140927
10
636.90453778117535
20
-837.72088493141041
42
0.19891236737965706
10
573.26492747438613
20
-864.08127462462176
10
358.41211373200139
20
-1078.9340883670084
42
0.1989123673796587
10
332.05172403879095
20
-1142.5736986737975
10
332.05172403879169
20
-1288.3208849314121
42
0.4142135623730977
0
CIRCLE
5
257
100
AcDbEntity
8
0
100
AcDbCircle
10
347.5517240462375
20
-1215.4472918026047
30
0
40
2.0000000000000284
210
0
220
0
230
1
0
CIRCLE
5
258
100
AcDbEntity
8
0
100
AcDbCircle
10
1077.955749971281
20
-980.59447806021603
30
0
40
1.9999999999999574
210
0
220
0
230
1
0
CIRCLE
5
259
100
AcDbEntity
8
0
100
AcDbCircle
10
584.22508258804191
20
-875.04142973828152
30
0
40
1.9999999999999751
210
0
220
0
230
1
0
CIRCLE
5
260
100
AcDbEntity
8
0
100
AcDbCircle
10
530.51187915244543
20
-928.75463317387812
30
0
40
2.0000000000000639
210
0
220
0
230
1
0
CIRCLE
5
261
100
AcDbEntity
8
0
100
AcDbCircle
10
-432.84777039995191
20
-862.31136236556256
30
0
40
2.0000000000000284
210
0
220
0
230
1
0
CIRCLE
5
262
100
AcDbEntity
8
0
100
AcDbCircle
10
-386.33323608601484
20
-1349.7545682113528
30
0
40
2.0000000000000995
210
0
220
0
230
1
0
CIRCLE
5
263
100
AcDbEntity
8
0
100
AcDbCircle
10
225.58026944528493
20
-1344.0100903044774
30
0
40
2.0000000000000284
210
0
220
0
230
1
0
CIRCLE
5
264
100
AcDbEntity
8
0
100
AcDbCircle
10
-171.53193239434259
20
-858.77176062847184
30
0
40
2.0000000000000262
210
0
220
0
230
1
0
CIRCLE
5
265
100
AcDbEntity
8
0
100
AcDbCircle
10
-109.09538845327077
20
-1205.4636032730059
30
0
40
1.999999999999913
210
0
220
0
230
1
0
CIRCLE
5
266
100
AcDbEntity
8
0
100
AcDbCircle
10
-572.86620279107126
20
-1002.3297947566817
30
0
40
2.0000000000000284
210
0
220
0
230
1
0
CIRCLE
5
267
100
AcDbEntity
8
0
100
AcDbCircle
10
-568.64413423397036
20
-1344.0100903044774
30
0
40
2.0000000000000995
210
0
220
0
230
1
0
CIRCLE
5
268
100
AcDbEntity
8
0
100
AcDbCircle
10
-576.40580452816221
20
-1172.6981674847634
30
0
40
2.0000000000000284
210
0
220
0
230
1
0
CIRCLE
5
269
100
AcDbEntity
8
0
100
AcDbCircle
10
-525.15885286499974
20
-910.01871229163373
30
0
40
2.0000000000000284
210
0
220
0
230
1
0
CIRCLE
5
270
100
AcDbEntity
8
0
100
AcDbCircle
10
1056.1352051718613
20
-1106.1475263821526
30
0
40
2.0000000000000995
210
0
220
0
230
1
0
CIRCLE
5
271
100
AcDbEntity
8
0
100
AcDbCircle
10
841.28239142947621
20
-1321.000340124539
30
0
40
2.0000000000000995
210
0
220
0
230
1
0
CIRCLE
5
272
100
AcDbEntity
8
0
100
AcDbCircle
10
-233.96847633541455
20
-1205.4636032730059
30
0
40
2.0000000000000995
210
0
220
0
230
1
0
CIRCLE
5
273
100
AcDbEntity
8
0
100
AcDbCircle
10
1023.4557499787309
20
-853.22088493885963
30
0
40
2.0000000000000284
210
0
220
0
230
1
0
CIRCLE
5
274
100
AcDbEntity
8
0
100
AcDbCircle
10
1002.422001736265
20
-1159.8607298177492
30
0
40
2.0000000000000639
210
0
220
0
230
1
0
CIRCLE
5
275
100
AcDbEntity
8
0
100
AcDbCircle
10
43.269371297329684
20
-1349.7545682113528
30
0
40
1.9999999999998863
210
0
220
0
230
1
0
CIRCLE
5
276
100
AcDbEntity
8
0
100
AcDbCircle
10
1072.2847751439392
20
-1081.977986897371
30
0
40
1.9999999999999574
210
0
220
0
230
1
0
CIRCLE
5
277
100
AcDbEntity
8
0
100
AcDbCircle
10
1061.9930695481294
20
-869.18356536201031
30
0
40
1.9999999999999574
210
0
220
0
230
1
0
CIRCLE
5
278
100
AcDbEntity
8
0
100
AcDbCircle
10
124.66858120512185
20
-852.59230542044111
30
0
40
2.0000000000000639
210
0
220
0
230
1
0
CIRCLE
5
279
100
AcDbEntity
8
0
100
AcDbCircle
10
-49.771403191175096
20
-830.77176062102103
30
0
40
1.9999999999999929
210
0
220
0
230
1
0
CIRCLE
5
280
100
AcDbEntity
8
0
100
AcDbCircle
10
608.39462207282327
20
-858.89185976620342
30
0
40
1.9999999999999574
210
0
220
0
230
1
0
CIRCLE
5
281
100
AcDbEntity
8
0
100
AcDbCircle
10
363.51440446938886
20
-1326.8582045008102
30
0
40
2.0000000000000284
210
0
220
0
230
1
0
CIRCLE
5
282
100
AcDbEntity
8
0
100
AcDbCircle
10
948.70879830066883
20
-1213.5739332533458
30
0
40
1.9999999999999929
210
0
220
0
230
1
0
CIRCLE
5
283
100
AcDbEntity
8
0
100
AcDbCircle
10
595.32733013756717
20
-1342.8208849239606
30
0
40
1.9999999999999929
210
0
220
0
230
1
0
CIRCLE
5
284
100
AcDbEntity
8
0
100
AcDbCircle
10
1077.9557499712803
20
-944.15768149581254
30
0
40
2.0000000000000284
210
0
220
0
230
1
0
CIRCLE
5
285
100
AcDbEntity
8
0
100
AcDbCircle
10
476.79867571684923
20
-982.46783660947494
30
0
40
2.0000000000000284
210
0
220
0
230
1
0
CIRCLE
5
286
100
AcDbEntity
8
0
100
AcDbCircle
10
229.80233800238625
20
-1002.3297947566824
30
0
40
2.0000000000000284
210
0
220
0
230
1
0
CIRCLE
5
287
100
AcDbEntity
8
0
100
AcDbCircle
10
-604.40580453561267
20
-1248.984964049167
30
0
40
1.9999999999998863
210
0
220
0
230
1
0
CIRCLE
5
288
100
AcDbEntity
8
0
100
AcDbCircle
10
-582.5852597361926
20
-967.44511916282647
30
0
40
1.9999999999999574
210
0
220
0
230
1
0
CIRCLE
5
289
100
AcDbEntity
8
0
100
AcDbCircle
10
-604.40580453561267
20
-1096.4113709203596
30
0
40
1.9999999999998863
210
0
220
0
230
1
0
CIRCLE
5
290
100
AcDbEntity
8
0
100
AcDbCircle
10
926.81794692934102
20
-853.22088493886031
30
0
40
1.9999999999999574
210
0
220
0
230
1
0
CIRCLE
5
291
100
AcDbEntity
8
0
100
AcDbCircle
10
733.5423408305611
20
-853.22088493886088
30
0
40
2.0000000000000062
210
0
220
0
230
1
0
CIRCLE
5
292
100
AcDbEntity
8
0
100
AcDbCircle
10
817.11285194469497
20
-1337.1499100966173
30
0
40
2.0000000000000462
210
0
220
0
230
1
0
CIRCLE
5
293
100
AcDbEntity
8
0
100
AcDbCircle
10
89.783905611266732
20
-862.31136236556256
30
0
40
1.9999999999999929
210
0
220
0
230
1
0
CIRCLE
5
294
100
AcDbEntity
8
0
100
AcDbCircle
10
347.55172404623772
20
-1251.8840883670082
30
0
40
2.0000000000000284
210
0
220
0
230
1
0
CIRCLE
5
295
100
AcDbEntity
8
0
100
AcDbCircle
10
423.26224897918388
20
-1036.0042633471407
30
0
40
1.9999999999999929
210
0
220
0
230
1
0
CIRCLE
5
296
100
AcDbEntity
8
0
100
AcDbCircle
10
788.60293623634675
20
-1342.8208849239595
30
0
40
2.0000000000000462
210
0
220
0
230
1
0
CIRCLE
5
297
100
AcDbEntity
8
0
100
AcDbCircle
10
347.55172404623772
20
-1288.3208849314121
30
0
40
2.0000000000000284
210
0
220
0
230
1
0
CIRCLE
5
298
100
AcDbEntity
8
0
100
AcDbCircle
10
233.34193973947706
20
-1172.6981674847634
30
0
40
2.0000000000000284
210
0
220
0
230
1
0
CIRCLE
5
299
100
AcDbEntity
8
0
100
AcDbCircle
10
1077.9557499712803
20
-907.7208849314087
30
0
40
2.0000000000000284
210
0
220
0
230
1
0
CIRCLE
5
300
100
AcDbEntity
8
0
100
AcDbCircle
10
347.55172404623744
20
-1179.0104952382012
30
0
40
2.0000000000000284
210
0
220
0
230
1
0
CIRCLE
5
301
100
AcDbEntity
8
0
100
AcDbCircle
10
369.72582224151842
20
-1089.5406900848068
30
0
40
1.9999999999999574
210
0
220
0
230
1
0
CIRCLE
5
302
100
AcDbEntity
8
0
100
AcDbCircle
10
1077.955749971281
20
-1053.4680711890232
30
0
40
1.9999999999998863
210
0
220
0
230
1
0
CIRCLE
5
303
100
AcDbEntity
8
0
100
AcDbCircle
10
402.05172403878743
20
-1342.8208849239613
30
0
40
1.9999999999999929
210
0
220
0
230
1
0
CIRCLE
5
304
100
AcDbEntity
8
0
100
AcDbCircle
10
1077.955749971281
20
-1017.0312746246196
30
0
40
1.9999999999998863
210
0
220
0
230
1
0
CIRCLE
5
305
100
AcDbEntity
8
0
100
AcDbCircle
10
-1187.7291190713902
20
-929.79549834756767
30
0
40
2.0000000000000284
210
0
220
0
230
1
0
CIRCLE
5
306
100
AcDbEntity
8
0
100
AcDbCircle
10
-800.29884428440255
20
-1342.6257727674088
30
0
40
2.0000000000000284
210
0
220
0
230
1
0
CIRCLE
5
307
100
AcDbEntity
8
0
100
AcDbCircle
10
-1196.6081760090092
20
-1080.2695537557142
30
0
40
1.9999999999998863
210
0
220
0
230
1
0
CIRCLE
5
308
100
AcDbEntity
8
0
100
AcDbCircle
10
-473.19007579052538
20
-1379.7717606061201
30
0
40
1.9999999999999574
210
0
220
0
230
1
0
CIRCLE
5
309
100
AcDbEntity
8
0
100
AcDbCircle
10
-1166.2931760090096
20
-892.91644180574156
30
0
40
2.0000000000000018
210
0
220
0
230
1
0
LWPOLYLINE
5
310
100
AcDbEntity
8
0
100
AcDbPolyline
90
20
70
1
43
0.0
10
3.9130075662435093
20
-1374.7692352966285
42
0.19891236737966111
10
53.410482249301907
20
-1395.2717606135705
10
206.84193975437825
20
-1395.2717606135702
42
0.41421356237309609
10
276.84193975437825
20
-1325.2717606135705
10
276.8419397543783
20
-1020.1245743559564
42
0.19891236737965939
10
250.48155006116744
20
-956.48496404916671
10
135.62873631878162
20
-841.632150306781
42
0.1989123673796557
10
71.989126011992468
20
-815.27176061357056
10
-415.05299080067772
20
-815.27176061357068
42
0.1989123673796557
10
-478.69260110746688
20
-841.632150306781
10
-593.54541484985248
20
-956.48496404916671
42
0.19891236737965765
10
-619.9058045430636
20
-1020.1245743559564
10
-619.90580454306371
20
-1325.2717606135702
42
0.41421356237309559
10
-549.9058045430636
20
-1395.2717606135705
10
-396.47434703798757
20
-1395.2717606135705
42
0.1989123673796564
10
-346.97687235492964
20
-1374.7692352966294
10
-218.943863765938
20
-1246.7362267076376
42
-0.19891236737964405
10
-215.40832986000487
20
-1245.2717606135705
10
-127.65553492868008
20
-1245.2717606135705
42
-0.19891236737965118
10
-124.12000102274718
20
-1246.7362267076378
0
CIRCLE
5
311
100
AcDbEntity
8
0
100
AcDbCircle
10
-836.05106400476984
20
-965.15932369798702
30
0
40
1.9999999999999929
210
0
220
0
230
1
0
CIRCLE
5
312
100
AcDbEntity
8
0
100
AcDbCircle
10
-794.00820491128343
20
-1049.9114646174544
30
0
40
2.0000000000000995
210
0
220
0
230
1
0
CIRCLE
5
313
100
AcDbEntity
8
0
100
AcDbCircle
10
100.49904172034033
20
-836.44273544836312
30
0
40
1.9999999999999574
210
0
220
0
230
1
0
CIRCLE
5
314
100
AcDbEntity
8
0
100
AcDbCircle
10
71.989126011992411
20
-830.77176062102103
30
0
40
2.0000000000000284
210
0
220
0
230
1
0
CIRCLE
5
315
100
AcDbEntity
8
0
100
AcDbCircle
10
-443.56290650902565
20
-836.44273544836312
30
0
40
1.9999999999999574
210
0
220
0
230
1
0
CIRCLE
5
316
100
AcDbEntity
8
0
100
AcDbCircle
10
-588.44312411246187
20
-1363.8090801829687
30
0
40
2.0000000000000284
210
0
220
0
230
1
0
CIRCLE
5
317
100
AcDbEntity
8
0
100
AcDbCircle
10
206.84193975437825
20
-1379.7717606061201
30
0
40
1.9999999999999574
210
0
220
0
230
1
0
CIRCLE
5
318
100
AcDbEntity
8
0
100
AcDbCircle
10
53.410482249302191
20
-1379.7717606061201
30
0
40
1.9999999999999929
210
0
220
0
230
1
0
CIRCLE
5
319
100
AcDbEntity
8
0
100
AcDbCircle
10
-113.15984590908757
20
-1235.7760715939778
30
0
40
2.0000000000000551
210
0
220
0
230
1
0
CIRCLE
5
320
100
AcDbEntity
8
0
100
AcDbCircle
10
239.5213949475077
20
-967.44511916282704
30
0
40
1.9999999999999574
210
0
220
0
230
1
0
CIRCLE
5
321
100
AcDbEntity
8
0
100
AcDbCircle
10
-604.40580453561302
20
-1325.2717606135705
30
0
40
1.9999999999998863
210
0
220
0
230
1
0
CIRCLE
5
322
100
AcDbEntity
8
0
100
AcDbCircle
10
-171.53193239434273
20
-1229.7717606061201
30
0
40
2.0000000000000111
210
0
220
0
230
1
0
CIRCLE
5
323
100
AcDbEntity
8
0
100
AcDbCircle
10
-604.40580453561267
20
-1020.1245743559564
30
0
40
2.0000000000000284
210
0
220
0
230
1
0
CIRCLE
5
324
100
AcDbEntity
8
0
100
AcDbCircle
10
261.34193974692766
20
-1325.2717606135705
30
0
40
2.0000000000000284
210
0
220
0
230
1
0
CIRCLE
5
325
100
AcDbEntity
8
0
100
AcDbCircle
10
261.34193974692766
20
-1172.6981674847634
30
0
40
1.9999999999999574
210
0
220
0
230
1
0
CIRCLE
5
326
100
AcDbEntity
8
0
100
AcDbCircle
10
-604.40580453561267
20
-1172.6981674847634
30
0
40
1.9999999999999574
210
0
220
0
230
1
0
CIRCLE
5
327
100
AcDbEntity
8
0
100
AcDbCircle
10
245.37925932377661
20
-1363.8090801829687
30
0
40
1.9999999999999574
210
0
220
0
230
1
0
CIRCLE
5
328
100
AcDbEntity
8
0
100
AcDbCircle
10
-293.92052317409338
20
-1299.7925758884733
30
0
40
1.9999999999999929
210
0
220
0
230
1
0
CIRCLE
5
329
100
AcDbEntity
8
0
100
AcDbCircle
10
-171.53193239434259
20
-830.77176062102103
30
0
40
2.0000000000000187
210
0
220
0
230
1
0
CIRCLE
5
330
100
AcDbEntity
8
0
100
AcDbCircle
10
-938.46129647304667
20
-1351.1164349392861
30
0
40
2.0000000000000284
210
0
220
0
230
1
0
CIRCLE
5
331
100
AcDbEntity
8
0
100
AcDbCircle
10
14.8731626799038
20
-1363.8090801829694
30
0
40
1.9999999999999574
210
0
220
0
230
1
0
CIRCLE
5
332
100
AcDbEntity
8
0
100
AcDbCircle
10
-467.732445993807
20
-852.59230542044111
30
0
40
1.9999999999999929
210
0
220
0
230
1
0
CIRCLE
5
333
100
AcDbEntity
8
0
100
AcDbCircle
10
-1049.3709946471165
20
-920.91644180574167
30
0
40
1.9999999999999929
210
0
220
0
230
1
0
CIRCLE
5
334
100
AcDbEntity
8
0
100
AcDbCircle
10
-549.9058045430636
20
-1379.7717606061201
30
0
40
2.0000000000000284
210
0
220
0
230
1
0
CIRCLE
5
335
100
AcDbEntity
8
0
100
AcDbCircle
10
-229.90401887959808
20
-1235.7760715939778
30
0
40
2.0000000000000373
210
0
220
0
230
1
0
CIRCLE
5
336
100
AcDbEntity
8
0
100
AcDbCircle
10
-598.73482970827069
20
-991.61465864760817
30
0
40
2.0000000000000284
210
0
220
0
230
1
0
CIRCLE
5
337
100
AcDbEntity
8
0
100
AcDbCircle
10
-49.143341614591812
20
-1299.7925758884733
30
0
40
2.0000000000000462
210
0
220
0
230
1
0
CIRCLE
5
338
100
AcDbEntity
8
0
100
AcDbCircle
10
255.67096491958594
20
-991.61465864760874
30
0
40
2.0000000000000284
210
0
220
0
230
1
0
CIRCLE
5
339
100
AcDbEntity
8
0
100
AcDbCircle
10
130.12621100184006
20
-1379.7717606061201
30
0
40
2.0000000000000995
210
0
220
0
230
1
0
CIRCLE
5
340
100
AcDbEntity
8
0
100
AcDbCircle
10
-357.93702746858878
20
-1363.8090801829687
30
0
40
2.0000000000000639
210
0
220
0
230
1
0
CIRCLE
5
341
100
AcDbEntity
8
0
100
AcDbCircle
10
182.09498807631488
20
-910.01871229163396
30
0
40
2.0000000000000284
210
0
220
0
230
1
0
CIRCLE
5
342
100
AcDbEntity
8
0
100
AcDbCircle
10
-415.05299080067772
20
-830.77176062102103
30
0
40
1.9999999999999929
210
0
220
0
230
1
0
CIRCLE
5
343
100
AcDbEntity
8
0
100
AcDbCircle
10
-396.4743470379874
20
-1379.7717606061201
30
0
40
1.9999999999999929
210
0
220
0
230
1
0
CIRCLE
5
344
100
AcDbEntity
8
0
100
AcDbCircle
10
-791.80818211252472
20
-1191.1792522096525
30
0
40
2.0000000000000284
210
0
220
0
230
1
0
CIRCLE
5
345
100
AcDbEntity
8
0
100
AcDbCircle
10
-920.84776153465418
20
-923.22403377766227
30
0
40
2.0000000000000639
210
0
220
0
230
1
0
CIRCLE
5
346
100
AcDbEntity
8
0
100
AcDbCircle
10
-1066.4004590857164
20
-1348.8088429673664
30
0
40
1.9999999999999574
210
0
220
0
230
1
0
CIRCLE
5
347
100
AcDbEntity
8
0
100
AcDbCircle
10
-1194.300584037089
20
-1220.9087180159936
30
0
40
1.9999999999998863
210
0
220
0
230
1
0
CIRCLE
5
348
100
AcDbEntity
8
0
100
AcDbCircle
10
261.34193974692766
20
-1020.1245743559564
30
0
40
1.9999999999998863
210
0
220
0
230
1
0
CIRCLE
5
349
100
AcDbEntity
8
0
100
AcDbCircle
10
-293.29246159751006
20
-830.77176062102103
30
0
40
2.0000000000000284
210
0
220
0
230
1
0
CIRCLE
5
350
100
AcDbEntity
8
0
100
AcDbCircle
10
-1106.2786482470342
20
-224.50807512354331
30
0
40
2.0000000000000773
210
0
220
0
230
1
0
LWPOLYLINE
5
351
100
AcDbEntity
8
0
100
AcDbPolyline
90
12
70
1
43
0.0
10
-932.44880978680158
20
-877.41644180574156
10
-1166.2931760090087
20
-877.4164418057411
42
0.41421356237310181
10
-1240.1081760090096
20
-951.23144180574116
10
-1240.1081760090096
20
-1209.3076697638455
42
0.19891236737965731
10
-1218.4882630622947
20
-1261.5027568171304
10
-1106.9944978868537
20
-1372.9965219925716
42
0.19891236737965512
10
-1054.7994108335686
20
-1394.6164349392859
10
-822.12318211252466
20
-1394.616434939287
42
0.41421356237309392
10
-748.30818211252461
20
-1320.8014349392865
10
-748.30818211252461
20
-1061.557069480019
42
0.19891236737966284
10
-769.92809505923969
20
-1009.3619824267341
10
-880.25372273351707
20
-899.03635475245665
42
0.19891236737965845
0
CIRCLE
5
352
100
AcDbEntity
8
0
100
AcDbCircle
10
-938.4612964730469
20
-1379.1164349392866
30
0
40
2.0000000000000284
210
0
220
0
230
1
0
CIRCLE
5
353
100
AcDbEntity
8
0
100
AcDbCircle
10
-762.25474590610179
20
-522.77088552745442
30
0
40
1.9999999999998863
210
0
220
0
230
1
0
CIRCLE
5
354
100
AcDbEntity
8
0
100
AcDbCircle
10
-1205.9746717474798
20
-241.58814317864952
30
0
40
2.0000000000000551
210
0
220
0
230
1
0
CIRCLE
5
355
100
AcDbEntity
8
0
100
AcDbCircle
10
-1049.3709928979056
20
-892.91644180574156
30
0
40
1.9999999999999929
210
0
220
0
230
1
0
CIRCLE
5
356
100
AcDbEntity
8
0
100
AcDbCircle
10
-1220.169210947405
20
-1231.6238541222156
30
0
40
1.9999999999999574
210
0
220
0
230
1
0
CIRCLE
5
357
100
AcDbEntity
8
0
100
AcDbCircle
10
-1151.7812253661825
20
-1306.2894842964597
30
0
40
1.9999999999999729
210
0
220
0
230
1
0
CIRCLE
5
358
100
AcDbEntity
8
0
100
AcDbCircle
10
-808.46965708620041
20
-992.74073061655599
30
0
40
1.9999999999998863
210
0
220
0
230
1
0
CIRCLE
5
359
100
AcDbEntity
8
0
100
AcDbCircle
10
-792.45476870486061
20
-381.50309793525605
30
0
40
2.0000000000000995
210
0
220
0
230
1
0
CIRCLE
5
360
100
AcDbEntity
8
0
100
AcDbCircle
10
-780.88825016763121
20
-1362.0363668841801
30
0
40
2.0000000000000284
210
0
220
0
230
1
0
CIRCLE
5
361
100
AcDbEntity
8
0
100
AcDbCircle
10
-1186.1756828649668
20
-261.38713166536934
30
0
40
2.0000000000000284
210
0
220
0
230
1
0
CIRCLE
5
362
100
AcDbEntity
8
0
100
AcDbCircle
10
-1123.9077840723223
20
-1334.1629255903194
30
0
40
1.99999999999996
210
0
220
0
230
1
0
CIRCLE
5
363
100
AcDbEntity
8
0
100
AcDbCircle
10
-1224.6081760090092
20
-951.23144180574116
30
0
40
2.0000000000000462
210
0
220
0
230
1
0
CIRCLE
5
364
100
AcDbEntity
8
0
100
AcDbCircle
10
-1192.7471478306661
20
-552.50035133379515
30
0
40
1.9999999999998863
210
0
220
0
230
1
0
CIRCLE
5
365
100
AcDbEntity
8
0
100
AcDbCircle
10
-798.74540807797939
20
-674.21740608521065
30
0
40
2.0000000000000284
210
0
220
0
230
1
0
CIRCLE
5
366
100
AcDbEntity
8
0
100
AcDbCircle
10
-910.03576444863882
20
-897.25473921836738
30
0
40
2.0000000000000284
210
0
220
0
230
1
0
CIRCLE
5
367
100
AcDbEntity
8
0
100
AcDbCircle
10
-1195.0547398025865
20
-411.86118707351613
30
0
40
1.9999999999998863
210
0
220
0
230
1
0
CIRCLE
5
368
100
AcDbEntity
8
0
100
AcDbCircle
10
-834.49762779834703
20
-296.75095701578857
30
0
40
1.9999999999999929
210
0
220
0
230
1
0
CIRCLE
5
369
100
AcDbEntity
8
0
100
AcDbCircle
10
-936.90786026662397
20
-710.70806825708814
30
0
40
2.0000000000000284
210
0
220
0
230
1
0
CIRCLE
5
370
100
AcDbEntity
8
0
100
AcDbCircle
10
-995.07691744688486
20
-710.70806825708814
30
0
40
1.99999999999994
210
0
220
0
230
1
0
CIRCLE
5
371
100
AcDbEntity
8
0
100
AcDbCircle
10
-1047.8175584406936
20
-252.50807512354342
30
0
40
1.9999999999999929
210
0
220
0
230
1
0
CIRCLE
5
372
100
AcDbEntity
8
0
100
AcDbCircle
10
-762.25474590610179
20
-587.58197689227131
30
0
40
2.0000000000000284
210
0
220
0
230
1
0
CIRCLE
5
373
100
AcDbEntity
8
0
100
AcDbCircle
10
-1077.1155951919388
20
-1374.6774698776821
30
0
40
1.9999999999999665
210
0
220
0
230
1
0
CIRCLE
5
374
100
AcDbEntity
8
0
100
AcDbCircle
10
-861.90225802161945
20
-268.99277340192259
30
0
40
1.9999999999999929
210
0
220
0
230
1
0
CIRCLE
5
375
100
AcDbEntity
8
0
100
AcDbCircle
10
-1223.0547398025865
20
-411.8611891025954
30
0
40
2.0000000000000995
210
0
220
0
230
1
0
CIRCLE
5
376
100
AcDbEntity
8
0
100
AcDbCircle
10
-1218.6157747409825
20
-563.21548744001745
30
0
40
1.9999999999999574
210
0
220
0
230
1
0
CIRCLE
5
377
100
AcDbEntity
8
0
100
AcDbCircle
10
-1107.8320844534574
20
-892.91644180574156
30
0
40
2.0000000000000773
210
0
220
0
230
1
0
CIRCLE
5
378
100
AcDbEntity
8
0
100
AcDbCircle
10
-822.12318211252466
20
-1379.1164349392866
30
0
40
2.0000000000000284
210
0
220
0
230
1
0
CIRCLE
5
379
100
AcDbEntity
8
0
100
AcDbCircle
10
-1224.6081760090092
20
-1080.2695557847937
30
0
40
2.0000000000000995
210
0
220
0
230
1
0
CIRCLE
5
380
100
AcDbEntity
8
0
100
AcDbCircle
10
-763.80818211252461
20
-1320.8014349392865
30
0
40
2.0000000000000284
210
0
220
0
230
1
0
CIRCLE
5
381
100
AcDbEntity
8
0
100
AcDbCircle
10
-1179.6546666600427
20
-1278.4160430025993
30
0
40
2.0000000000000018
210
0
220
0
230
1
0
CIRCLE
5
382
100
AcDbEntity
8
0
100
AcDbCircle
10
-1224.6081760090092
20
-1144.7886127743195
30
0
40
1.9999999999998863
210
0
220
0
230
1
0
CIRCLE
5
383
100
AcDbEntity
8
0
100
AcDbCircle
10
-996.63035365330757
20
-1379.1164349392866
30
0
40
1.99999999999994
210
0
220
0
230
1
0
CIRCLE
5
384
100
AcDbEntity
8
0
100
AcDbCircle
10
-763.80818211252461
20
-1255.9903435744695
30
0
40
2.0000000000000284
210
0
220
0
230
1
0
CIRCLE
5
385
100
AcDbEntity
8
0
100
AcDbCircle
10
-763.80818211252461
20
-1191.1792522096525
30
0
40
1.9999999999998863
210
0
220
0
230
1
0
CIRCLE
5
386
100
AcDbEntity
8
0
100
AcDbCircle
10
-1207.5281079539027
20
-909.9965098608476
30
0
40
2.0000000000000551
210
0
220
0
230
1
0
CIRCLE
5
387
100
AcDbEntity
8
0
100
AcDbCircle
10
-1224.6081760090092
20
-1015.7504987952677
30
0
40
2.0000000000000995
210
0
220
0
230
1
0
CIRCLE
5
388
100
AcDbEntity
8
0
100
AcDbCircle
10
-1064.8470228792937
20
-680.40047628516777
30
0
40
1.9999999999999574
210
0
220
0
230
1
0
CIRCLE
5
389
100
AcDbEntity
8
0
100
AcDbCircle
10
-936.90786026662397
20
-682.70806825708814
30
0
40
2.0000000000000284
210
0
220
0
230
1
0
CIRCLE
5
390
100
AcDbEntity
8
0
100
AcDbCircle
10
-790.2547459061019
20
-522.77088552745442
30
0
40
2.0000000000000284
210
0
220
0
230
1
0
CIRCLE
5
391
100
AcDbEntity
8
0
100
AcDbCircle
10
-990.90990134235381
20
-892.91644180574156
30
0
40
2.0000000000000284
210
0
220
0
230
1
0
CIRCLE
5
392
100
AcDbEntity
8
0
100
AcDbCircle
10
-763.80818211252461
20
-1126.3681608448358
30
0
40
2.0000000000000995
210
0
220
0
230
1
0
CIRCLE
5
393
100
AcDbEntity
8
0
100
AcDbCircle
10
-768.24714717412917
20
-1039.2408851216487
30
0
40
1.9999999999999574
210
0
220
0
230
1
0
CIRCLE
5
394
100
AcDbEntity
8
0
100
AcDbCircle
10
-919.29432532823125
20
-254.81566709546385
30
0
40
2.0000000000000639
210
0
220
0
230
1
0
CIRCLE
5
395
100
AcDbEntity
8
0
100
AcDbCircle
10
-880.29223929278601
20
-1379.1164349392866
30
0
40
2.0000000000000284
210
0
220
0
230
1
0
CIRCLE
5
396
100
AcDbEntity
8
0
100
AcDbCircle
10
-1164.7397398025862
20
-224.50807512354331
30
0
40
2.0000000000000018
210
0
220
0
230
1
0
CIRCLE
5
397
100
AcDbEntity
8
0
100
AcDbCircle
10
-863.45569422804238
20
-937.40114008412093
30
0
40
1.9999999999999929
210
0
220
0
230
1
0
CIRCLE
5
398
100
AcDbEntity
8
0
100
AcDbCircle
10
-1223.0547398025865
20
-282.82307512354305
30
0
40
2.0000000000000462
210
0
220
0
230
1
0
CIRCLE
5
399
100
AcDbEntity
8
0
100
AcDbCircle
10
-806.91622087977771
20
-324.33236393435789
30
0
40
1.9999999999998863
210
0
220
0
230
1
0
CIRCLE
5
400
100
AcDbEntity
8
0
100
AcDbCircle
10
-1223.0547398025865
20
-476.38024609212147
30
0
40
1.9999999999998863
210
0
220
0
230
1
0
CIRCLE
5
401
100
AcDbEntity
8
0
100
AcDbCircle
10
-766.6937109677059
20
-370.83251843945055
30
0
40
1.9999999999999574
210
0
220
0
230
1
0
CIRCLE
5
402
100
AcDbEntity
8
0
100
AcDbCircle
10
-762.25474590610179
20
-457.95979416263776
30
0
40
2.0000000000000995
210
0
220
0
230
1
0
LWPOLYLINE
5
403
100
AcDbEntity
8
0
100
AcDbPolyline
90
282
70
1
43
0.0
10
-759.55828871587551
20
-682.36870671062445
42
-0.41421356237304002
10
-760.05890181660618
20
-681.04606294778546
10
-759.03136348897033
20
-678.76699186832354
42
-0.4142135623728711
10
-757.70871972613145
20
-678.26637876759287
10
-752.38437737340189
20
-680.66690321204101
42
0.098587862211535954
10
-746.7547459061575
20
-652.3930682570882
10
-746.75474590610224
20
-646.68688791381055
10
-752.6295199043293
20
-646.68688791381078
42
-0.41421356237313667
10
-753.62951990432919
20
-645.68688791381032
10
-753.62951990432919
20
-643.18688791381066
42
-0.41421356237313667
10
-752.6295199043293
20
-642.18688791381055
10
-746.75474590610224
20
-642.18688791381055
10
-746.75474590610224
20
-607.46506973199234
10
-752.6295199043293
20
-607.46506973199246
42
-0.41421356237311585
10
-753.62951990432919
20
-606.46506973199212
10
-753.62951990432919
20
-603.96506973199212
42
-0.4142135623730534
10
-752.6295199043293
20
-602.96506973199234
10
-746.75474590610224
20
-602.96506973199234
10
-746.75474590610179
20
-568.24325155017436
10
-752.6295199043293
20
-568.24325155017448
42
-0.41421356237311585
10
-753.62951990432919
20
-567.24325155017414
10
-753.62951990432919
20
-564.74325155017436
42
-0.4142135623730534
10
-752.6295199043293
20
-563.74325155017436
10
-746.75474590610179
20
-563.74325155017436
10
-746.75474590610179
20
-529.02143336835604
10
-752.6295199043293
20
-529.02143336835593
42
-0.41421356237313667
10
-753.62951990432919
20
-528.02143336835582
10
-753.62951990432919
20
-525.52143336835616
42
-0.41421356237307422
10
-752.6295199043293
20
-524.52143336835593
10
-746.75474590610179
20
-524.52143336835593
10
-746.75474590610179
20
-489.79961518653784
10
-752.6295199043293
20
-489.79961518653761
42
-0.41421356237313667
10
-753.62951990432919
20
-488.79961518653749
10
-753.62951990432919
20
-486.29961518653778
42
-0.41421356237309503
10
-752.6295199043293
20
-485.29961518653761
10
-746.75474590610179
20
-485.29961518653806
10
-746.75474590610179
20
-450.57779700471946
10
-752.6295199043293
20
-450.5777970047194
42
-0.4142135623731783
10
-753.62951990432919
20
-449.57779700471917
10
-753.62951990432919
20
-447.07779700471968
42
-0.41421356237307422
10
-752.6295199043293
20
-446.07779700471946
10
-746.75474590610179
20
-446.07779700471946
10
-746.75474590610179
20
-411.35597882290153
10
-752.6295199043293
20
-411.35597882290136
42
-0.41421356237313667
10
-753.62951990432919
20
-410.35597882290125
10
-753.62951990432919
20
-407.85597882290176
42
-0.41421356237309503
10
-752.6295199043293
20
-406.85597882290153
10
-746.75474590610179
20
-406.85597882290153
10
-746.75474590610179
20
-393.14870279782053
42
0.071292242755928562
10
-749.72583496739674
20
-372.41721689090048
10
-755.2786224265144
20
-374.22765621087962
42
-0.41421356237302237
10
-756.53934655670912
20
-373.58689520430653
10
-757.31430046123569
20
-371.21003878334636
42
-0.41421356237281198
10
-756.67353945466289
20
-369.9493146531517
10
-751.12075199554522
20
-368.13887533317251
42
0.11037957487504406
10
-768.37465885281642
20
-340.95361574453597
10
-769.97427221218584
20
-339.35400238516661
10
-774.12836474427081
20
-343.50809491725147
42
-0.41421356237287432
10
-775.54257830664369
20
-343.5080949172517
10
-777.31034525961013
20
-341.7403279642856
42
-0.41421356237315388
10
-777.31034525960979
20
-340.32611440191209
10
-773.15625272752527
20
-336.17202186982746
10
-797.70828581901526
20
-311.61998877833707
10
-801.86237835110001
20
-315.77408131042193
42
-0.41421356237289642
10
-803.27659191347323
20
-315.77408131042216
10
-805.04435886643955
20
-314.00631435745618
42
-0.41421356237304352
10
-805.04435886643932
20
-312.59210079508262
10
-800.89026633435481
20
-308.43800826299787
10
-825.44229942584468
20
-283.88597517150788
10
-829.59639195792965
20
-288.04006770359274
42
-0.4142135623730141
10
-831.01060552030253
20
-288.04006770359297
10
-832.77837247326886
20
-286.27230075062647
42
-0.41421356237313184
10
-832.7783724732692
20
-284.85808718825342
10
-828.62427994118423
20
-280.70399465616839
10
-853.17631303267422
20
-256.1519615646784
10
-857.33040556475908
20
-260.30605409676309
42
-0.41421356237302881
10
-858.74461912713264
20
-260.30605409676343
10
-860.51238608009862
20
-258.53828714379694
42
-0.41421356237319806
10
-860.51238608009862
20
-257.12407358142389
10
-856.35829354801342
20
-252.9699810493388
10
-878.70028652709379
20
-230.62798807025854
42
0.010584694290797171
10
-880.95619131656986
20
-228.46562577368843
10
-884.7746005787003
20
-232.88500240442883
42
-0.41421356237315804
10
-886.18506582255259
20
-232.98789942034276
10
-888.07676864726091
20
-231.35343913541973
42
-0.4142135623731244
10
-888.17966566317477
20
-229.94297389156699
10
-884.36125640104456
20
-225.52359726082682
42
0.11814014597537052
10
-915.38462125922479
20
-210.65611046910328
10
-916.43725801601659
20
-216.40094249066621
42
-0.41421356237322537
10
-917.60111364211423
20
-217.2043353469958
10
-920.06017424514789
20
-216.75375688478584
42
-0.41421356237311552
10
-920.86356710147754
20
-215.58990125868814
10
-919.81093034469041
20
-209.8450692371479
42
0.037701685960461619
10
-930.89537358037887
20
-209.00807512352813
10
-954.49031321319126
20
-209.00807512354348
10
-954.49031321319126
20
-214.88284912177093
42
-0.4142135623728973
10
-955.49031321319137
20
-215.88284912177087
10
-957.99031321319137
20
-215.88284912177085
42
-0.41421356237300139
10
-958.99031321319126
20
-214.88284912177093
10
-958.99031321319126
20
-209.00807512354348
10
-993.71213139500912
20
-209.00807512354348
10
-993.71213139500935
20
-214.88284912177093
42
-0.4142135623730534
10
-994.71213139500946
20
-215.88284912177087
10
-997.21213139500946
20
-215.8828491217709
42
-0.41421356237295975
10
-998.21213139500946
20
-214.88284912177085
10
-998.21213139500946
20
-209.00807512354348
10
-1032.9339495768272
20
-209.00807512354348
10
-1032.9339495768274
20
-214.88284912177093
42
-0.41421356237300139
10
-1033.9339495768274
20
-215.88284912177087
10
-1036.4339495768274
20
-215.88284912177087
42
-0.41421356237299095
10
-1037.4339495768274
20
-214.88284912177085
10
-1037.4339495768274
20
-209.00807512354348
10
-1072.1557677586454
20
-209.00807512354319
10
-1072.1557677586457
20
-214.88284912177039
42
-0.41421356237301177
10
-1073.1557677586457
20
-215.88284912177033
10
-1075.6557677586457
20
-215.88284912177033
42
-0.41421356237295975
10
-1076.6557677586459
20
-214.88284912177028
10
-1076.6557677586457
20
-209.00807512354319
10
-1111.3775859404636
20
-209.00807512354319
10
-1111.3775859404641
20
-214.88284912177039
42
-0.41421356237301177
10
-1112.3775859404641
20
-215.88284912177033
10
-1114.8775859404641
20
-215.88284912177033
42
-0.4142135623730846
10
-1115.8775859404641
20
-214.88284912177028
10
-1115.8775859404641
20
-209.00807512354319
10
-1150.5994041222818
20
-209.00807512354319
10
-1150.5994041222818
20
-214.88284912177039
42
-0.4142135623730534
10
-1151.5994041222821
20
-215.88284912177033
10
-1154.0994041222821
20
-215.88284912177033
42
-0.41421356237295975
10
-1155.0994041222818
20
-214.88284912177028
10
-1155.0994041222818
20
-209.00807512354319
10
-1164.7397398025862
20
-209.00807512354316
42
0.085150834744404102
10
-1189.3410368486725
20
-213.22831663807804
10
-1187.2275609242959
20
-218.67297995315442
42
-0.41421356237302936
10
-1187.7979234096099
20
-219.96707679471871
10
-1190.1284975682076
20
-220.87174474003126
42
-0.41421356237296197
10
-1191.422594409772
20
-220.30138225471759
10
-1193.5360703341487
20
-214.85671893964127
42
0.11814014597561176
10
-1221.2127461420637
20
-235.28936308691232
10
-1216.6318593053395
20
-238.91243014212773
42
-0.41421356237297807
10
-1216.4678623856255
20
-240.31710270551187
10
-1218.0187069402136
20
-242.27793955938415
42
-0.41421356237315526
10
-1219.4233795035982
20
-242.44193647909825
10
-1224.0042663403219
20
-238.81886942388306
42
0.11814014597561176
10
-1237.5117210723652
20
-270.45808555335202
10
-1231.7266274358362
20
-271.26047617770621
42
-0.41421356237294926
10
-1230.8734941412222
20
-272.38837847029225
10
-1231.2169553886865
20
-274.86467295429225
42
-0.41421356237330836
10
-1232.344857681273
20
-275.71780624890675
10
-1238.1299513178014
20
-274.91541562455313
42
0.026839956520807548
10
-1238.5547398025865
20
-282.82307512354294
10
-1238.5547398025865
20
-309.62168130814621
10
-1232.679965804359
20
-309.62168130814655
42
-0.41421356237293894
10
-1231.6799658043587
20
-310.62168130814649
10
-1231.679965804359
20
-313.12168130814604
42
-0.4142135623730534
10
-1232.679965804359
20
-314.12168130814632
10
-1238.5547398025865
20
-314.12168130814609
10
-1238.5547398025865
20
-348.84349948996436
10
-1232.679965804359
20
-348.84349948996487
42
-0.41421356237299095
10
-1231.6799658043587
20
-349.84349948996459
10
-1231.679965804359
20
-352.34349948996442
42
-0.4142135623730534
10
-1232.679965804359
20
-353.34349948996464
10
-1238.5547398025865
20
-353.34349948996464
10
-1238.5547398025865
20
-388.0653176717824
10
-1232.6799658043592
20
-388.06531767178279
42
-0.41421356237286611
10
-1231.6799658043587
20
-389.06531767178251
10
-1231.679965804359
20
-391.56531767178245
42
-0.41421356237307422
10
-1232.679965804359
20
-392.56531767178251
10
-1238.5547398025865
20
-392.56531767178251
10
-1238.5547398025865
20
-427.28713585360083
10
-1232.679965804359
20
-427.28713585360094
42
-0.41421356237269963
10
-1231.6799658043592
20
-428.287135853601
10
-1231.679965804359
20
-430.7871358536006
42
-0.41421356237311585
10
-1232.6799658043592
20
-431.78713585360083
10
-1238.5547398025865
20
-431.78713585360066
10
-1238.5547398025865
20
-466.50895403541887
10
-1232.6799658043592
20
-466.50895403541915
42
-0.41421356237274126
10
-1231.6799658043592
20
-467.50895403541915
10
-1231.679965804359
20
-470.00895403541892
42
-0.41421356237309503
10
-1232.6799658043592
20
-471.00895403541921
10
-1238.5547398025865
20
-471.00895403541921
10
-1238.5547398025865
20
-505.73077221723685
10
-1232.679965804359
20
-505.7307722172373
42
-0.41421356237284529
10
-1231.6799658043592
20
-506.73077221723707
10
-1231.679965804359
20
-509.2307722172369
42
-0.41421356237311585
10
-1232.6799658043592
20
-510.23077221723713
10
-1238.5547398025865
20
-510.23077221723713
10
-1238.5547398025865
20
-540.89930308164742
42
0.013727539529513819
10
-1238.4435009883273
20
-544.95020570640895
10
-1232.624308118757
20
-544.45207575930158
42
-0.41421356237305534
10
-1231.5426625913065
20
-545.36314269040281
10
-1231.3294393458696
20
-547.85403326359233
42
-0.41421356237294987
10
-1232.2405062769708
20
-548.93567879104307
10
-1238.0596991465407
20
-549.43380873815033
42
0.11814014597573817
10
-1226.2288040468588
20
-581.73738828849741
10
-1221.4643505496995
20
-578.35935306506951
42
-0.41421356237305401
10
-1220.0702019898524
20
-578.59673417863269
10
-1218.6242426819972
20
-580.63614627039578
42
-0.41421356237297902
10
-1218.8616237955605
20
-582.0302948302425
10
-1223.6260772927299
20
-585.40833005367722
42
0.034555203445972425
10
-1216.9348268558667
20
-593.09439013492704
10
-1199.5946182039959
20
-610.4345987868079
10
-1195.440525671911
20
-606.2805062547227
42
-0.41421356237315388
10
-1194.0263121095377
20
-606.2805062547227
10
-1192.2585451565715
20
-608.04827320768925
42
-0.41421356237296264
10
-1192.2585451565715
20
-609.46248677006236
10
-1196.4126376886566
20
-613.61657930214722
10
-1171.8606045971665
20
-638.1686123936372
10
-1167.7065120650816
20
-634.01451986155212
42
-0.41421356237308032
10
-1166.2922985027085
20
-634.01451986155234
10
-1164.5245315497425
20
-635.78228681451878
42
-0.41421356237312451
10
-1164.5245315497421
20
-637.19650037689189
10
-1168.6786240818267
20
-641.35059290897686
10
-1144.1265909903373
20
-665.90262600046674
10
-1139.9724984582524
20
-661.74853346838165
42
-0.41421356237312451
10
-1138.5582848958788
20
-661.74853346838188
10
-1136.7905179429124
20
-663.51630042134798
42
-0.41421356237300677
10
-1136.7905179429131
20
-664.9305139837212
10
-1140.9446104749975
20
-669.0846065158064
10
-1116.3925773835076
20
-693.6366396072965
10
-1112.2384848514228
20
-689.48254707521119
42
-0.41421356237291845
10
-1110.8242712890492
20
-689.4825470752113
10
-1109.0565043360832
20
-691.25031402817763
42
-0.41421356237291845
10
-1109.0565043360832
20
-692.66452759055085
10
-1113.2105968681683
20
-696.81862012263582
10
-1105.4410616804307
20
-704.58815531037305
42
0.080555906711196723
10
-1086.2716510055407
20
-718.40790692802261
10
-1083.818984804853
20
-713.10738170824845
42
-0.41421356237318807
10
-1082.4914913290927
20
-712.61977421054826
10
-1080.2226151122668
20
-713.66963168312304
42
-0.41421356237309503
10
-1079.7350076145663
20
-714.99712515888393
10
-1082.1876738152541
20
-720.29765037865798
42
0.10106605656791383
10
-1053.2459746271461
20
-726.20806825708894
10
-1048.2642857305254
20
-726.20806825708814
10
-1048.2642857305254
20
-720.33329425886063
42
-0.4142135623731783
10
-1047.2642857305254
20
-719.33329425886075
10
-1044.7642857305254
20
-719.33329425886063
42
-0.41421356237313667
10
-1043.7642857305254
20
-720.33329425886097
10
-1043.7642857305254
20
-726.20806825708814
10
-1012.6897801550045
20
-726.20806825708814
10
-1012.6897801550044
20
-720.33329425886063
42
-0.4142135623731783
10
-1011.6897801550044
20
-719.33329425886075
10
-1009.1897801550044
20
-719.33329425886063
42
-0.41421356237313667
10
-1008.1897801550044
20
-720.33329425886097
10
-1008.1897801550043
20
-726.20806825708814
10
-973.46796197318599
20
-726.20806825708814
10
-973.46796197318599
20
-720.33329425886063
42
-0.4142135623731783
10
-972.46796197318633
20
-719.33329425886075
10
-969.96796197318633
20
-719.33329425886075
42
-0.4142135623730534
10
-968.96796197318599
20
-720.33329425886097
10
-968.96796197318622
20
-726.20806825708814
10
-934.24614379136801
20
-726.20806825708814
10
-934.24614379136801
20
-720.33329425886063
42
-0.41421356237297013
10
-933.2461437913679
20
-719.33329425886075
10
-930.7461437913679
20
-719.33329425886075
42
-0.41421356237301177
10
-929.74614379136801
20
-720.33329425886097
10
-929.74614379136801
20
-726.20806825708814
10
-895.02432560954969
20
-726.20806825708814
10
-895.02432560954969
20
-720.33329425886063
42
-0.41421356237292856
10
-894.02432560954981
20
-719.33329425886075
10
-891.52432560954958
20
-719.33329425886075
42
-0.41421356237292856
10
-890.52432560954969
20
-720.33329425886097
10
-890.52432560954969
20
-726.20806825708814
10
-855.8025074277316
20
-726.20806825708814
10
-855.8025074277316
20
-720.33329425886063
42
-0.41421356237288692
10
-854.80250742773148
20
-719.33329425886075
10
-852.30250742773137
20
-719.33329425886075
42
-0.41421356237284529
10
-851.30250742773171
20
-720.33329425886097
10
-851.30250742773137
20
-726.20806825708814
10
-820.56974590610207
20
-726.20806825708814
42
0.013509959869716622
10
-816.58297866882424
20
-726.10032646139098
10
-817.07604481513511
20
-720.28070234356153
42
-0.41421356237284268
10
-816.1640370273758
20
-719.1998499970008
10
-813.67296185947555
20
-718.98879429849853
42
-0.4142135623730121
10
-812.59210951291448
20
-719.90080208625795
10
-812.09904336660361
20
-725.7204262040874
42
0.11814014597583758
10
-779.78518130815496
20
-713.91764477373442
10
-783.15906942948106
20
-709.15025365888141
42
-0.41421356237316298
10
-782.92047527746718
20
-707.75631218571118
10
-780.87980574598657
20
-706.3121280342657
42
-0.41421356237282897
10
-779.48586427281612
20
-706.55072218627993
10
-776.11197615147785
20
-711.31811330115113
42
0.11814014597576226
10
-754.23394636319256
20
-684.76923115504997
0
CIRCLE
5
404
100
AcDbEntity
8
0
100
AcDbCircle
10
-1223.0547398025865
20
-347.34213211306945
30
0
40
2.0000000000000995
210
0
220
0
230
1
0
CIRCLE
5
405
100
AcDbEntity
8
0
100
AcDbCircle
10
-1150.2277891597596
20
-637.88111761426126
30
0
40
1.9999999999999729
210
0
220
0
230
1
0
CIRCLE
5
406
100
AcDbEntity
8
0
100
AcDbCircle
10
-762.25474590610179
20
-652.3930682570882
30
0
40
2.0000000000000284
210
0
220
0
230
1
0
CIRCLE
5
407
100
AcDbEntity
8
0
100
AcDbCircle
10
-1075.5621589855161
20
-706.26910319548392
30
0
40
1.9999999999999665
210
0
220
0
230
1
0
CIRCLE
5
408
100
AcDbEntity
8
0
100
AcDbCircle
10
-1122.3543478658996
20
-665.75455890812123
30
0
40
1.99999999999996
210
0
220
0
230
1
0
CIRCLE
5
409
100
AcDbEntity
8
0
100
AcDbCircle
10
-1047.8175566914824
20
-224.50807512354331
30
0
40
1.9999999999999929
210
0
220
0
230
1
0
CIRCLE
5
410
100
AcDbEntity
8
0
100
AcDbCircle
10
-878.73880308636274
20
-710.70806825708837
30
0
40
2.0000000000000284
210
0
220
0
230
1
0
CIRCLE
5
411
100
AcDbEntity
8
0
100
AcDbCircle
10
-989.35646513593053
20
-224.50807512354331
30
0
40
2.0000000000000284
210
0
220
0
230
1
0
CIRCLE
5
412
100
AcDbEntity
8
0
100
AcDbCircle
10
-908.48232824221611
20
-228.84637253616901
30
0
40
2.0000000000000284
210
0
220
0
230
1
0
CIRCLE
5
413
100
AcDbEntity
8
0
100
AcDbCircle
10
-1178.1012304536198
20
-610.00767632040095
30
0
40
2.0000000000000018
210
0
220
0
230
1
0
CIRCLE
5
414
100
AcDbEntity
8
0
100
AcDbCircle
10
-779.3348139612084
20
-693.62800020198176
30
0
40
2.0000000000000284
210
0
220
0
230
1
0
CIRCLE
5
415
100
AcDbEntity
8
0
100
AcDbCircle
10
-820.56974590610196
20
-710.70806825708837
30
0
40
2.0000000000000284
210
0
220
0
230
1
0
CIRCLE
5
416
100
AcDbEntity
8
0
100
AcDbCircle
10
-593.80527456703567
20
-700.7546877578751
30
0
40
1.9999999999998863
210
0
220
0
230
1
0
CIRCLE
5
417
100
AcDbEntity
8
0
100
AcDbCircle
10
25.473692648481151
20
-739.29200732727384
30
0
40
1.9999999999999574
210
0
220
0
230
1
0
CIRCLE
5
418
100
AcDbEntity
8
0
100
AcDbCircle
10
-514.55832289642251
20
-285.50163943593844
30
0
40
2.0000000000000284
210
0
220
0
230
1
0
CIRCLE
5
419
100
AcDbEntity
8
0
100
AcDbCircle
10
64.011012217879397
20
-755.25468775042452
30
0
40
1.9999999999999929
210
0
220
0
230
1
0
CIRCLE
5
420
100
AcDbEntity
8
0
100
AcDbCircle
10
140.72674097041741
20
-755.25468775042452
30
0
40
2.0000000000000995
210
0
220
0
230
1
0
CIRCLE
5
421
100
AcDbEntity
8
0
100
AcDbCircle
10
243.9424697080544
20
-548.18109462906807
30
0
40
2.0000000000000284
210
0
220
0
230
1
0
CIRCLE
5
422
100
AcDbEntity
8
0
100
AcDbCircle
10
217.44246972295542
20
-755.25468775042452
30
0
40
1.9999999999999574
210
0
220
0
230
1
0
CIRCLE
5
423
100
AcDbEntity
8
0
100
AcDbCircle
10
-160.93140242576524
20
-234.25468777277629
30
0
40
2.0000000000000262
210
0
220
0
230
1
0
CIRCLE
5
424
100
AcDbEntity
8
0
100
AcDbCircle
10
-422.24724043137456
20
-237.79428950986721
30
0
40
2.0000000000000284
210
0
220
0
230
1
0
CIRCLE
5
425
100
AcDbEntity
8
0
100
AcDbCircle
10
-375.73270611743749
20
-725.23749535565753
30
0
40
2.0000000000000995
210
0
220
0
230
1
0
CIRCLE
5
426
100
AcDbEntity
8
0
100
AcDbCircle
10
236.18079941386227
20
-719.49301744878187
30
0
40
2.0000000000000284
210
0
220
0
230
1
0
CIRCLE
5
427
100
AcDbEntity
8
0
100
AcDbCircle
10
-98.494858484693424
20
-580.9465304173109
30
0
40
1.999999999999913
210
0
220
0
230
1
0
CIRCLE
5
428
100
AcDbEntity
8
0
100
AcDbCircle
10
-223.36794636683734
20
-580.9465304173109
30
0
40
2.0000000000000995
210
0
220
0
230
1
0
CIRCLE
5
429
100
AcDbEntity
8
0
100
AcDbCircle
10
-558.0436042653929
20
-719.49301744878187
30
0
40
2.0000000000000995
210
0
220
0
230
1
0
CIRCLE
5
430
100
AcDbEntity
8
0
100
AcDbCircle
10
-562.26567282249403
20
-377.81272190098656
30
0
40
2.0000000000000284
210
0
220
0
230
1
0
CIRCLE
5
431
100
AcDbEntity
8
0
100
AcDbCircle
10
240.4028679709636
20
-377.81272190098713
30
0
40
2.0000000000000284
210
0
220
0
230
1
0
CIRCLE
5
432
100
AcDbEntity
8
0
100
AcDbCircle
10
53.869901265907032
20
-725.23749535565753
30
0
40
1.9999999999998863
210
0
220
0
230
1
0
CIRCLE
5
433
100
AcDbEntity
8
0
100
AcDbCircle
10
100.38443557984394
20
-237.79428950986721
30
0
40
1.9999999999999929
210
0
220
0
230
1
0
CIRCLE
5
434
100
AcDbEntity
8
0
100
AcDbCircle
10
-565.80527455958486
20
-548.18109462906807
30
0
40
2.0000000000000284
210
0
220
0
230
1
0
CIRCLE
5
435
100
AcDbEntity
8
0
100
AcDbCircle
10
135.2691111736992
20
-228.07523256474568
30
0
40
2.0000000000000639
210
0
220
0
230
1
0
CIRCLE
5
436
100
AcDbEntity
8
0
100
AcDbCircle
10
-39.170873222597749
20
-206.25468776532571
30
0
40
1.9999999999999929
210
0
220
0
230
1
0
CIRCLE
5
437
100
AcDbEntity
8
0
100
AcDbCircle
10
-593.80527456703567
20
-624.4678911934717
30
0
40
1.9999999999998863
210
0
220
0
230
1
0
CIRCLE
5
438
100
AcDbEntity
8
0
100
AcDbCircle
10
-571.98472976761536
20
-342.9280463071313
30
0
40
1.9999999999999574
210
0
220
0
230
1
0
CIRCLE
5
439
100
AcDbEntity
8
0
100
AcDbCircle
10
-593.80527456703533
20
-471.89429806466433
30
0
40
1.9999999999998863
210
0
220
0
230
1
0
CIRCLE
5
440
100
AcDbEntity
8
0
100
AcDbCircle
10
271.94246971550501
20
-395.60750150026087
30
0
40
1.9999999999998863
210
0
220
0
230
1
0
CIRCLE
5
441
100
AcDbEntity
8
0
100
AcDbCircle
10
-38.542811646014599
20
-675.27550303277803
30
0
40
2.0000000000000462
210
0
220
0
230
1
0
CIRCLE
5
442
100
AcDbEntity
8
0
100
AcDbCircle
10
-160.93140242576524
20
-206.25468776532571
30
0
40
2.0000000000000187
210
0
220
0
230
1
0
LWPOLYLINE
5
443
100
AcDbEntity
8
0
100
AcDbPolyline
90
257
70
1
43
0.0
10
-396.90172014061227
20
-764.94988903265198
42
-0.41421356237313667
10
-395.90172014061233
20
-763.94988903265187
10
-393.40172014061233
20
-763.94988903265187
42
-0.41421356237290774
10
-392.40172014061227
20
-764.94988903265198
10
-392.40172014061227
20
-770.7546877578751
10
-385.87381706941017
20
-770.7546877578751
42
0.19891236737966053
10
-336.37634238635155
20
-750.25216244093303
10
-333.43976791826009
20
-747.31558797284163
10
-337.54438046028844
20
-743.21097543081305
42
-0.41421356237312451
10
-337.54438046028849
20
-741.79676186844006
10
-335.77661350732222
20
-740.02899491547396
42
-0.41421356237310974
10
-334.36239994494912
20
-740.02899491547385
10
-330.25778740292048
20
-744.13360745750208
10
-283.83006269736723
20
-697.70588275194882
10
-287.93467523939574
20
-693.60127020992036
42
-0.41421356237303619
10
-287.93467523939563
20
-692.18705664754748
10
-286.16690828642948
20
-690.41928969458127
42
-0.41421356237292578
10
-284.75269472405625
20
-690.41928969458127
10
-280.64808218202785
20
-694.52390223660939
10
-234.22035747647428
20
-648.09617753105601
10
-238.32497001850271
20
-643.99156498902767
42
-0.41421356237319068
10
-238.32497001850271
20
-642.57735142665456
10
-236.55720306553647
20
-640.80958447368812
42
-0.41421356237315388
10
-235.14298950316331
20
-640.80958447368812
10
-231.03837696113487
20
-644.91419701571647
10
-208.34333379736094
20
-622.21915385194256
42
-0.19891236737968004
10
-204.80779989142803
20
-620.7546877578751
10
-175.17171060054946
20
-620.7546877578751
10
-175.17171060054949
20
-614.94988903265198
42
-0.41421356237311585
10
-174.1717106005494
20
-613.94988903265198
10
-171.6717106005494
20
-613.94988903265198
42
-0.4142135623730222
10
-170.67171060054946
20
-614.94988903265198
10
-170.67171060054946
20
-620.7546877578751
10
-117.05500496010316
20
-620.7546877578751
42
-0.19891236737960918
10
-113.51947105417005
20
-622.21915385194234
10
-107.7812843282085
20
-627.95734057790401
10
-103.67667178618008
20
-623.85272803587566
42
-0.41421356237318707
10
-102.26245822380704
20
-623.85272803587577
10
-100.49469127084066
20
-625.62049498884153
42
-0.41421356237316126
10
-100.49469127084066
20
-627.03470855121498
10
-104.5993038128691
20
-631.13932109324321
10
-58.171579107315814
20
-677.56704579879681
10
-54.066966565287373
20
-673.46243325676835
42
-0.41421356237314655
10
-52.652753002914245
20
-673.46243325676835
10
-50.884986049947969
20
-675.23020020973422
42
-0.41421356237315388
10
-50.884986049947969
20
-676.64441377210767
10
-54.989598591976403
20
-680.7490263141359
10
-8.5618738864226884
20
-727.17675101968962
10
-4.4572613443943965
20
-723.07213847766161
42
-0.41421356237317875
10
-3.0430477820213975
20
-723.07213847766161
10
-1.2752808290551367
20
-724.83990543062748
42
-0.41421356237315676
10
-1.2752808290551392
20
-726.25411899300093
10
-5.3798933710832841
20
-730.35873153502916
10
14.513537534821372
20
-750.25216244093372
42
0.13482518469561114
10
46.738180079168856
20
-768.59014507857091
10
47.981194426192097
20
-762.95702942018238
42
-0.41421356237294771
10
49.173181361628721
20
-762.19599910163481
10
51.614452929108694
20
-762.73469487274701
42
-0.4142135623732271
10
52.375483247656057
20
-763.92668180818362
10
51.132468900632873
20
-769.55979746657192
42
0.046291329184969546
10
64.011012217879383
20
-770.7546877578751
10
116.71701688823164
20
-770.7546877578751
10
116.71701688823165
20
-764.94988903265198
42
-0.4142135623730846
10
117.71701688823171
20
-763.94988903265187
10
120.21701688823171
20
-763.94988903265187
42
-0.41421356237311585
10
121.21701688823165
20
-764.94988903265198
10
121.21701688823165
20
-770.7546877578751
10
186.87573483694976
20
-770.7546877578751
10
186.87573483694985
20
-764.9498890326521
42
-0.41421356237311585
10
187.8757348369497
20
-763.94988903265187
10
190.3757348369497
20
-763.94988903265187
42
-0.41421356237285573
10
191.37573483694976
20
-764.94988903265198
10
191.37573483694962
20
-770.7546877578751
10
217.44246972295542
20
-770.7546877578751
42
0.14234850614024011
10
254.95670126449963
20
-759.85360849123026
10
251.71024432882814
20
-755.08521315815244
42
-0.41421356237314699
10
251.97407451889418
20
-753.69582709560177
10
254.04059483466528
20
-752.28888225499645
42
-0.41421356237303447
10
255.42998089721596
20
-752.55271244506275
10
258.6764378328873
20
-757.32110777814091
42
0.23888880057365128
10
287.44216942112479
20
-700.95972962208759
10
281.63767099773241
20
-700.95972962208759
42
-0.41421356237298057
10
280.6376709977323
20
-699.95972962208771
10
280.63767099773213
20
-697.45972962208782
42
-0.41421356237310542
10
281.63767099773241
20
-696.45972962208759
10
287.44246972295525
20
-696.45972962208759
10
287.44246972295565
20
-630.80101167336989
10
281.63767099773241
20
-630.80101167336943
42
-0.41421356237297013
10
280.6376709977323
20
-629.80101167336954
10
280.63767099773219
20
-627.30101167336954
42
-0.41421356237311585
10
281.63767099773241
20
-626.30101167336977
10
287.44246972295565
20
-626.30101167336977
10
287.44246972295565
20
-560.64229372465161
10
281.63767099773241
20
-560.64229372465161
42
-0.41421356237299095
10
280.6376709977323
20
-559.64229372465172
10
280.63767099773213
20
-557.14229372465206
42
-0.41421356237311585
10
281.63767099773241
20
-556.14229372465172
10
287.44246972295565
20
-556.14229372465172
10
287.44246972295565
20
-490.48357577593384
10
281.63767099773241
20
-490.48357577593367
42
-0.41421356237297013
10
280.6376709977323
20
-489.48357577593367
10
280.63767099773213
20
-486.98357577593367
42
-0.4142135623730534
10
281.63767099773241
20
-485.98357577593384
10
287.44246972295565
20
-485.98357577593384
10
287.44246972295565
20
-420.32485782721619
10
281.63767099773241
20
-420.32485782721608
42
-0.41421356237312623
10
280.6376709977323
20
-419.32485782721608
10
280.63767099773219
20
-416.82485782721608
42
-0.41421356237307422
10
281.63767099773241
20
-415.82485782721608
10
287.44246972295565
20
-415.82485782721608
10
287.44246972295571
20
-395.60750150026092
42
0.1269000295211927
10
276.21246477446584
20
-352.0725973475578
10
271.22803335998645
20
-354.9924178924955
42
-0.41421356237295948
10
269.85972724640988
20
-354.63501282880884
10
268.59610093404757
20
-352.47787385722984
42
-0.4142135623731093
10
268.95350599773411
20
-351.1095677436532
10
273.93793741221339
20
-348.18974719871585
42
0.057686746889038194
10
261.08208002974482
20
-331.96789119347181
10
229.32291291403504
20
-300.20872407776199
10
225.21830037200658
20
-304.31333661979022
42
-0.41421356237313917
10
223.8040868096333
20
-304.31333661979005
10
222.03631985666718
20
-302.54556966682355
42
-0.41421356237309503
10
222.03631985666718
20
-301.13135610445056
10
226.14093239869547
20
-297.02674356242244
10
179.71320769314201
20
-250.59901885686898
10
175.60859515111372
20
-254.70363139889727
42
-0.41421356237318335
10
174.19438158874041
20
-254.70363139889727
10
172.4266146357742
20
-252.93586444593075
42
-0.41421356237305085
10
172.42661463577434
20
-251.52165088355773
10
176.53122717780261
20
-247.41703834152943
10
146.2292662873592
20
-217.11507745108602
42
0.063432203214038779
10
128.24355620727206
20
-203.19360606034905
10
125.43862354684879
20
-208.24358242769722
42
-0.41421356237308549
10
124.07885919476676
20
-208.6322222439891
10
121.89335398429978
20
-207.41831657425166
42
-0.41421356237312079
10
121.50471416800785
20
-206.0585522221696
10
124.30964682843124
20
-201.00857585482143
42
0.12108755741348488
10
82.589655980569816
20
-190.7546877578751
10
60.311498846668606
20
-190.75468775787513
10
60.311498846668599
20
-196.55948648309831
42
-0.4142135623730846
10
59.311498846668513
20
-197.55948648309842
10
56.811498846668513
20
-197.55948648309845
42
-0.41421356237302737
10
55.811498846668606
20
-196.55948648309831
10
55.81149884666857
20
-190.75468775787513
10
-2.9000976050420486
20
-190.75468775787513
10
-2.9000976050420362
20
-196.55948648309831
42
-0.41421356237308871
10
-3.9000976050421352
20
-197.55948648309842
10
-6.4000976050421343
20
-197.55948648309842
42
-0.41421356237302837
10
-7.4000976050420428
20
-196.55948648309831
10
-7.4000976050420775
20
-190.75468775787513
10
-73.058815553759743
20
-190.75468775787513
10
-73.058815553759757
20
-196.55948648309831
42
-0.4142135623730846
10
-74.058815553759842
20
-197.55948648309842
10
-76.558815553759842
20
-197.55948648309845
42
-0.41421356237302737
10
-77.558815553759757
20
-196.55948648309831
10
-77.558815553759786
20
-190.75468775787513
10
-143.21753350247803
20
-190.75468775787513
10
-143.21753350247803
20
-196.55948648309831
42
-0.4142135623730846
10
-144.21753350247812
20
-197.55948648309842
10
-146.71753350247812
20
-197.55948648309842
42
-0.41421356237301699
10
-147.71753350247803
20
-196.55948648309831
10
-147.71753350247806
20
-190.75468775787513
10
-213.37625145119574
20
-190.75468775787513
10
-213.37625145119571
20
-196.55948648309831
42
-0.41421356237311585
10
-214.37625145119569
20
-197.55948648309842
10
-216.87625145119569
20
-197.55948648309842
42
-0.41421356237309503
10
-217.87625145119574
20
-196.55948648309831
10
-217.87625145119577
20
-190.75468775787513
10
-283.53496939991317
20
-190.75468775787513
10
-283.53496939991317
20
-196.55948648309831
42
-0.41421356237313667
10
-284.53496939991328
20
-197.55948648309842
10
-287.03496939991328
20
-197.55948648309842
42
-0.41421356237307422
10
-288.03496939991317
20
-196.55948648309831
10
-288.03496939991317
20
-190.75468775787513
10
-353.69368734863144
20
-190.75468775787513
10
-353.69368734863144
20
-196.55948648309831
42
-0.41421356237303258
10
-354.69368734863139
20
-197.55948648309842
10
-357.19368734863139
20
-197.5594864830984
42
-0.4142135623730534
10
-358.19368734863144
20
-196.55948648309831
10
-358.19368734863144
20
-190.75468775787513
10
-404.45246083210014
20
-190.75468775787522
42
0.053940306389454608
10
-423.70229196811522
20
-192.83743119674887
10
-422.32604889364495
20
-198.44776661811665
42
-0.41421356237316065
10
-423.05901318595915
20
-199.65721415571082
10
-425.48702797334442
20
-200.25281821231047
42
-0.41421356237306223
10
-426.69647551093851
20
-199.519853919996
10
-428.07271858540906
20
-193.90951849862816
42
0.13069679217380364
10
-468.09207113888959
20
-217.11507745108574
10
-481.43717559152088
20
-230.46018190371697
10
-477.33256304949265
20
-234.56479444574526
42
-0.41421356237303619
10
-477.33256304949236
20
-235.97900800811843
10
-479.10033000245897
20
-237.74677496108467
42
-0.41421356237305085
10
-480.51454356483202
20
-237.74677496108481
10
-484.61915610686043
20
-233.64216241905649
10
-531.04688081241329
20
-280.06988712460952
10
-526.94226827038506
20
-284.17449966663781
42
-0.4142135623730141
10
-526.94226827038494
20
-285.58871322901092
10
-528.7100352233515
20
-287.3564801819773
42
-0.41421356237303619
10
-530.12424878572449
20
-287.35648018197736
10
-534.22886132775284
20
-283.25186763994896
10
-580.65658603330633
20
-329.67959234550273
10
-576.55197349127809
20
-333.78420488753085
42
-0.41421356237308032
10
-576.55197349127786
20
-335.19841844990395
10
-578.31974044424453
20
-336.96618540287045
42
-0.41421356237309503
10
-579.73395400661752
20
-336.96618540287005
10
-583.83229131929374
20
-332.86784809019412
42
0.18443412390909708
10
-609.22659775921386
20
-391.84510376640418
10
-603.45074497349719
20
-391.94222810946093
42
-0.41421356237311585
10
-602.46769953348223
20
-392.95889996550216
10
-602.50973255351482
20
-395.45854658557198
42
-0.41421356237297025
10
-603.52640440955599
20
-396.44159202558683
10
-609.30527457448602
20
-396.34441694353376
10
-609.30527457448602
20
-462.00295942636643
10
-603.5004758492629
20
-462.00295942636643
42
-0.41421356237307422
10
-602.50047584926278
20
-463.00295942636637
10
-602.50047584926278
20
-465.50295942636603
42
-0.41421356237307422
10
-603.5004758492629
20
-466.50295942636626
10
-609.30527457448602
20
-466.50295942636626
10
-609.30527457448602
20
-532.16167737508397
10
-603.5004758492629
20
-532.16167737508397
42
-0.41421356237313667
10
-602.50047584926278
20
-533.16167737508397
10
-602.50047584926278
20
-535.66167737508363
42
-0.41421356237303258
10
-603.5004758492629
20
-536.66167737508408
10
-609.30527457448602
20
-536.66167737508408
10
-609.30527457448625
20
-602.32039532380168
10
-603.5004758492629
20
-602.32039532380168
42
-0.4142135623730534
10
-602.5004758492629
20
-603.32039532380168
10
-602.5004758492629
20
-605.82039532380122
42
-0.41421356237319906
10
-603.5004758492629
20
-606.82039532380168
10
-609.30527457448625
20
-606.82039532380168
10
-609.30527457448636
20
-672.47911327251995
10
-603.50047584926301
20
-672.47911327251984
42
-0.41421356237319906
10
-602.5004758492629
20
-673.47911327251995
10
-602.5004758492629
20
-675.97911327251961
42
-0.41421356237301177
10
-603.50047584926301
20
-676.97911327251995
10
-609.30527457448636
20
-676.97911327251995
10
-609.30527457448636
20
-700.7546877578751
42
0.15070695146833429
10
-597.14488757853223
20
-740.18283972499364
10
-592.48528659577551
20
-736.78207578593845
42
-0.41421356237316548
10
-591.08801084995753
20
-737.00029698140111
10
-589.61419266201324
20
-739.0196681580012
42
-0.41421356237320361
10
-589.83241385747579
20
-740.41694390381895
10
-594.49201484023263
20
-743.81770784287426
42
0.23102704568874044
10
-539.30527457448636
20
-770.7546877578751
10
-537.21915603804814
20
-770.7546877578751
10
-537.21915603804814
20
-764.94988903265198
42
-0.41421356237313667
10
-536.21915603804814
20
-763.94988903265187
10
-533.71915603804814
20
-763.94988903265187
42
-0.41421356237282447
10
-532.71915603804814
20
-764.94988903265198
10
-532.71915603804814
20
-770.7546877578751
10
-467.06043808933038
20
-770.7546877578751
10
-467.06043808933032
20
-764.94988903265198
42
-0.4142135623730534
10
-466.06043808933038
20
-763.94988903265187
10
-463.56043808933038
20
-763.94988903265187
42
-0.41421356237288692
10
-462.56043808933043
20
-764.94988903265198
10
-462.56043808933043
20
-770.7546877578751
10
-396.90172014061233
20
-770.7546877578751
0
CIRCLE
5
444
100
AcDbEntity
8
0
100
AcDbCircle
10
271.94246971550501
20
-548.18109462906807
30
0
40
1.9999999999999574
210
0
220
0
230
1
0
CIRCLE
5
445
100
AcDbEntity
8
0
100
AcDbCircle
10
-588.13429973969369
20
-367.09758579191282
30
0
40
2.0000000000000284
210
0
220
0
230
1
0
CIRCLE
5
446
100
AcDbEntity
8
0
100
AcDbCircle
10
-457.13191602522977
20
-228.07523256474568
30
0
40
1.9999999999999929
210
0
220
0
230
1
0
CIRCLE
5
447
100
AcDbEntity
8
0
100
AcDbCircle
10
-462.58954582194815
20
-755.25468775042452
30
0
40
1.9999999999999574
210
0
220
0
230
1
0
CIRCLE
5
448
100
AcDbEntity
8
0
100
AcDbCircle
10
250.12192491608502
20
-342.92804630713186
30
0
40
1.9999999999999574
210
0
220
0
230
1
0
CIRCLE
5
449
100
AcDbEntity
8
0
100
AcDbCircle
10
-385.87381706941017
20
-755.25468775042452
30
0
40
1.9999999999999929
210
0
220
0
230
1
0
CIRCLE
5
450
100
AcDbEntity
8
0
100
AcDbCircle
10
271.94246971550467
20
-700.7546877578751
30
0
40
2.0000000000000284
210
0
220
0
230
1
0
CIRCLE
5
451
100
AcDbEntity
8
0
100
AcDbCircle
10
192.69551804489211
20
-285.50163943593878
30
0
40
2.0000000000000284
210
0
220
0
230
1
0
CIRCLE
5
452
100
AcDbEntity
8
0
100
AcDbCircle
10
-432.9623765404483
20
-211.92566259266769
30
0
40
1.9999999999999574
210
0
220
0
230
1
0
CIRCLE
5
453
100
AcDbEntity
8
0
100
AcDbCircle
10
-102.5593159405102
20
-611.25899873828246
30
0
40
2.0000000000000551
210
0
220
0
230
1
0
CIRCLE
5
454
100
AcDbEntity
8
0
100
AcDbCircle
10
255.97978929235404
20
-739.29200732727372
30
0
40
1.9999999999999574
210
0
220
0
230
1
0
CIRCLE
5
455
100
AcDbEntity
8
0
100
AcDbCircle
10
-347.33649750001172
20
-739.29200732727372
30
0
40
2.0000000000000639
210
0
220
0
230
1
0
CIRCLE
5
456
100
AcDbEntity
8
0
100
AcDbCircle
10
-160.93140242576553
20
-605.25468775042452
30
0
40
2.0000000000000111
210
0
220
0
230
1
0
CIRCLE
5
457
100
AcDbEntity
8
0
100
AcDbCircle
10
111.09957168891769
20
-211.92566259266769
30
0
40
1.9999999999999574
210
0
220
0
230
1
0
CIRCLE
5
458
100
AcDbEntity
8
0
100
AcDbCircle
10
-593.80527456703533
20
-548.18109462906807
30
0
40
1.9999999999999574
210
0
220
0
230
1
0
CIRCLE
5
459
100
AcDbEntity
8
0
100
AcDbCircle
10
82.589655980569731
20
-206.25468776532571
30
0
40
2.0000000000000284
210
0
220
0
230
1
0
CIRCLE
5
460
100
AcDbEntity
8
0
100
AcDbCircle
10
266.27149488816332
20
-367.09758579191322
30
0
40
2.0000000000000284
210
0
220
0
230
1
0
CIRCLE
5
461
100
AcDbEntity
8
0
100
AcDbCircle
10
-593.80527456703533
20
-395.60750150026087
30
0
40
2.0000000000000284
210
0
220
0
230
1
0
CIRCLE
5
462
100
AcDbEntity
8
0
100
AcDbCircle
10
-404.45246083210037
20
-206.25468776532571
30
0
40
1.9999999999999929
210
0
220
0
230
1
0
CIRCLE
5
463
100
AcDbEntity
8
0
100
AcDbCircle
10
-282.69193162893288
20
-206.25468776532571
30
0
40
2.0000000000000284
210
0
220
0
230
1
0
CIRCLE
5
464
100
AcDbEntity
8
0
100
AcDbCircle
10
-219.30348891102074
20
-611.25899873828246
30
0
40
2.0000000000000373
210
0
220
0
230
1
0
CIRCLE
5
465
100
AcDbEntity
8
0
100
AcDbCircle
10
-283.3199932055162
20
-675.27550303277803
30
0
40
1.9999999999999929
210
0
220
0
230
1
0
CIRCLE
5
466
100
AcDbEntity
8
0
100
AcDbCircle
10
-539.30527457448636
20
-755.25468775042452
30
0
40
2.0000000000000284
210
0
220
0
230
1
0
CIRCLE
5
467
100
AcDbEntity
8
0
100
AcDbCircle
10
-577.84259414388464
20
-739.29200732727372
30
0
40
2.0000000000000284
210
0
220
0
230
1
0
CIRCLE
5
468
100
AcDbEntity
8
0
100
AcDbCircle
10
581.37682284216748
20
-285.93443836317238
30
0
40
1.9999999999999751
210
0
220
0
230
1
0
CIRCLE
5
469
100
AcDbEntity
8
0
100
AcDbCircle
10
1020.6074902328568
20
-264.11389356375241
30
0
40
2.0000000000000284
210
0
220
0
230
1
0
CIRCLE
5
470
100
AcDbEntity
8
0
100
AcDbCircle
10
1075.1074902254061
20
-355.05069012070533
30
0
40
2.0000000000000284
210
0
220
0
230
1
0
CIRCLE
5
471
100
AcDbEntity
8
0
100
AcDbCircle
10
344.70346430036182
20
-699.21389355630185
30
0
40
2.0000000000000284
210
0
220
0
230
1
0
CIRCLE
5
472
100
AcDbEntity
8
0
100
AcDbCircle
10
344.70346430036182
20
-553.46670729868765
30
0
40
1.9999999999998863
210
0
220
0
230
1
0
CIRCLE
5
473
100
AcDbEntity
8
0
100
AcDbCircle
10
344.70346430036182
20
-662.77709699189836
30
0
40
2.0000000000000284
210
0
220
0
230
1
0
CIRCLE
5
474
100
AcDbEntity
8
0
100
AcDbCircle
10
360.66614472351273
20
-737.75121312570013
30
0
40
2.0000000000000284
210
0
220
0
230
1
0
CIRCLE
5
475
100
AcDbEntity
8
0
100
AcDbCircle
10
616.26149843602275
20
-295.65349530829383
30
0
40
1.9999999999999574
210
0
220
0
230
1
0
CIRCLE
5
476
100
AcDbEntity
8
0
100
AcDbCircle
10
493.74940584946637
20
-413.15983511285697
30
0
40
1.9999999999999929
210
0
220
0
230
1
0
CIRCLE
5
477
100
AcDbEntity
8
0
100
AcDbCircle
10
380.46513460200453
20
-717.95222324720851
30
0
40
1.9999999999999574
210
0
220
0
230
1
0
CIRCLE
5
478
100
AcDbEntity
8
0
100
AcDbCircle
10
592.47907039169093
20
-725.71389354140081
30
0
40
1.9999999999999929
210
0
220
0
230
1
0
CIRCLE
5
479
100
AcDbEntity
8
0
100
AcDbCircle
10
1043.5678884808647
20
-482.15585941319029
30
0
40
2.0000000000000284
210
0
220
0
230
1
0
CIRCLE
5
480
100
AcDbEntity
8
0
100
AcDbCircle
10
1039.3458199237634
20
-299.87556386539495
30
0
40
2.0000000000000284
210
0
220
0
230
1
0
CIRCLE
5
481
100
AcDbEntity
8
0
100
AcDbCircle
10
689.11687344108077
20
-753.71389354885127
30
0
40
2
210
0
220
0
230
1
0
CIRCLE
5
482
100
AcDbEntity
8
0
100
AcDbCircle
10
892.14733511919678
20
-678.18014531383471
30
0
40
2.0000000000000639
210
0
220
0
230
1
0
CIRCLE
5
483
100
AcDbEntity
8
0
100
AcDbCircle
10
923.96968718346682
20
-264.11389356375241
30
0
40
1.9999999999999574
210
0
220
0
230
1
0
CIRCLE
5
484
100
AcDbEntity
8
0
100
AcDbCircle
10
375.90522612052803
20
-535.48005866711935
30
0
40
1.9999999999999574
210
0
220
0
230
1
0
CIRCLE
5
485
100
AcDbEntity
8
0
100
AcDbCircle
10
605.54636232694895
20
-269.78486839109439
30
0
40
1.9999999999999574
210
0
220
0
230
1
0
CIRCLE
5
486
100
AcDbEntity
8
0
100
AcDbCircle
10
420.41398923330894
20
-446.89727197203121
30
0
40
1.9999999999999929
210
0
220
0
230
1
0
CIRCLE
5
487
100
AcDbEntity
8
0
100
AcDbCircle
10
399.20346429291129
20
-753.71389354885127
30
0
40
1.9999999999999929
210
0
220
0
230
1
0
CIRCLE
5
488
100
AcDbEntity
8
0
100
AcDbCircle
10
827.33188413407674
20
-264.11389356375241
30
0
40
2.0000000000000284
210
0
220
0
230
1
0
CIRCLE
5
489
100
AcDbEntity
8
0
100
AcDbCircle
10
1075.1074902254061
20
-464.36107981391609
30
0
40
1.9999999999998863
210
0
220
0
230
1
0
CIRCLE
5
490
100
AcDbEntity
8
0
100
AcDbCircle
10
926.06154867630153
20
-604.66795199974683
30
0
40
1.9999999999999929
210
0
220
0
230
1
0
CIRCLE
5
491
100
AcDbEntity
8
0
100
AcDbCircle
10
1069.4365153980639
20
-492.87099552226402
30
0
40
1.9999999999999574
210
0
220
0
230
1
0
CIRCLE
5
492
100
AcDbEntity
8
0
100
AcDbCircle
10
1075.1074902254061
20
-318.61389355630183
30
0
40
2.0000000000000284
210
0
220
0
230
1
0
CIRCLE
5
493
100
AcDbEntity
8
0
100
AcDbCircle
10
592.47907039169093
20
-753.71389354885127
30
0
40
1.9999999999999929
210
0
220
0
230
1
0
CIRCLE
5
494
100
AcDbEntity
8
0
100
AcDbCircle
10
634.05627803529705
20
-264.11389356375241
30
0
40
2.0000000000000018
210
0
220
0
230
1
0
CIRCLE
5
495
100
AcDbEntity
8
0
100
AcDbCircle
10
344.70346430036182
20
-589.90350386309137
30
0
40
2.0000000000000284
210
0
220
0
230
1
0
CIRCLE
5
496
100
AcDbEntity
8
0
100
AcDbCircle
10
827.33188413407674
20
-292.11389357120299
30
0
40
1.9999999999999929
210
0
220
0
230
1
0
CIRCLE
5
497
100
AcDbEntity
8
0
100
AcDbCircle
10
803.54945608974504
20
-722.17429180430986
30
0
40
2.0000000000000817
210
0
220
0
230
1
0
CIRCLE
5
498
100
AcDbEntity
8
0
100
AcDbCircle
10
344.70346430036182
20
-626.34030042749475
30
0
40
2.0000000000000284
210
0
220
0
230
1
0
CIRCLE
5
499
100
AcDbEntity
8
0
100
AcDbCircle
10
785.75467649047039
20
-753.71389354885127
30
0
40
2.0000000000000462
210
0
220
0
230
1
0
CIRCLE
5
500
100
AcDbEntity
8
0
100
AcDbCircle
10
945.86053855479292
20
-624.46694187823812
30
0
40
1.9999999999999929
210
0
220
0
230
1
0
CIRCLE
5
501
100
AcDbEntity
8
0
100
AcDbCircle
10
838.4341316836003
20
-731.89334874943086
30
0
40
2.0000000000000995
210
0
220
0
230
1
0
CIRCLE
5
502
100
AcDbEntity
8
0
100
AcDbCircle
10
1053.2869454259862
20
-517.04053500704549
30
0
40
2.0000000000000995
210
0
220
0
230
1
0
CIRCLE
5
503
100
AcDbEntity
8
0
100
AcDbCircle
10
1075.1074902254061
20
-391.48748668510893
30
0
40
1.9999999999999574
210
0
220
0
230
1
0
CIRCLE
5
504
100
AcDbEntity
8
0
100
AcDbCircle
10
473.95041597097463
20
-393.36084523436517
30
0
40
2.0000000000000284
210
0
220
0
230
1
0
CIRCLE
5
505
100
AcDbEntity
8
0
100
AcDbCircle
10
366.8775624956433
20
-500.43369870969678
30
0
40
1.9999999999999574
210
0
220
0
230
1
0
LWPOLYLINE
5
506
100
AcDbEntity
8
0
100
AcDbPolyline
90
252
70
1
43
0.0
10
368.62904823490368
20
-486.48632461018798
42
-0.41421356237312451
10
367.21483467253074
20
-486.48632461018821
10
363.05973052018373
20
-482.33122045784103
10
355.56385398612639
20
-489.82709699189843
42
0.1096471525587093
10
334.61540305584316
20
-522.72813387451481
10
340.1600338752304
20
-524.58744912468558
42
-0.41421356237304896
10
340.79020968727798
20
-525.85349748312592
10
339.99536900428717
20
-528.22377769623654
42
-0.4142135623731148
10
338.72932064584666
20
-528.85395350828435
10
333.18468982645953
20
-526.9946382581129
42
0.074776258503861756
10
329.20346429291561
20
-553.46670729868765
10
329.20346429291561
20
-576.51394849041924
10
335.07966893823561
20
-576.51394849041924
42
-0.4142135623731783
10
336.0796689382355
20
-577.51394849041912
10
336.0796689382355
20
-580.01394849041947
42
-0.41421356237301177
10
335.0796689382355
20
-581.01394849041935
10
329.20346429291561
20
-581.01394849041935
10
329.20346429291561
20
-630.93087156734236
10
335.07966893823527
20
-630.93087156734236
42
-0.41421356237315748
10
336.07966893823516
20
-631.93087156734236
10
336.0796689382351
20
-634.43087156734236
42
-0.4142135623732407
10
335.07966893823516
20
-635.43087156734248
10
329.20346429291561
20
-635.43087156734248
10
329.20346429291561
20
-685.34779464426538
10
335.07966893823527
20
-685.34779464426549
42
-0.41421356237301177
10
336.07966893823516
20
-686.34779464426526
10
336.07966893823516
20
-688.84779464426572
42
-0.4142135623732407
10
335.07966893823516
20
-689.84779464426549
10
329.20346429291561
20
-689.84779464426549
10
329.20346429291561
20
-699.21389355630185
42
0.14584404586628674
10
340.62393152041062
20
-737.53410154314611
10
345.40588055986683
20
-734.18164463031644
42
-0.41421356237306611
10
346.79875004243252
20
-734.42641922976793
10
348.23386864632567
20
-736.47347433229004
42
-0.41421356237322804
10
347.9890940468743
20
-737.86634381485567
10
343.20714500741752
20
-741.21880072768568
42
0.18018482450681006
10
384.32934819974145
20
-767.61536042980401
10
385.38621190322652
20
-761.87175153985891
42
-0.41421356237309126
10
386.55066949213568
20
-761.06923143192876
10
389.00939161318462
20
-761.5216532831522
42
-0.41421356237299273
10
389.81191172111471
20
-762.68611087206114
10
388.75504801762935
20
-768.42971976200647
42
0.037473268716177267
10
399.20346429291556
20
-769.21389355630163
10
438.63239173599851
20
-769.21389355630185
10
438.63239173599851
20
-763.3376889109727
42
-0.41421356237315748
10
439.63239173599851
20
-762.33768891097316
10
442.13239173599851
20
-762.33768891097316
42
-0.41421356237319906
10
443.13239173599823
20
-763.33768891097282
10
443.13239173599857
20
-769.21389355630185
10
493.04931481292158
20
-769.21389355630185
10
493.04931481292158
20
-763.3376889109727
42
-0.41421356237315748
10
494.04931481292158
20
-762.33768891097316
10
496.54931481292158
20
-762.33768891097316
42
-0.41421356237319906
10
497.54931481292158
20
-763.33768891097282
10
497.54931481292158
20
-769.21389355630185
10
547.46623788984471
20
-769.21389355630185
10
547.46623788984471
20
-763.33768891097293
42
-0.41421356237299095
10
548.46623788984448
20
-762.33768891097316
10
550.96623788984459
20
-762.33768891097327
42
-0.41421356237307422
10
551.96623788984436
20
-763.33768891097282
10
551.96623788984459
20
-769.21389355630185
10
601.8831609667676
20
-769.21389355630185
10
601.8831609667676
20
-763.33768891097282
42
-0.41421356237297013
10
602.88316096676772
20
-762.33768891097316
10
605.38316096676772
20
-762.33768891097327
42
-0.41421356237303258
10
606.38316096676749
20
-763.33768891097282
10
606.3831609667676
20
-769.21389355630185
10
656.30008404369073
20
-769.21389355630185
10
656.30008404369073
20
-763.33768891097282
42
-0.41421356237309503
10
657.30008404369084
20
-762.3376889109727
10
659.80008404369073
20
-762.33768891097316
42
-0.41421356237313667
10
660.8000840436905
20
-763.33768891097282
10
660.80008404369084
20
-769.21389355630185
10
710.71700712061386
20
-769.21389355630185
10
710.71700712061386
20
-763.33768891097282
42
-0.41421356237313667
10
711.71700712061374
20
-762.3376889109727
10
714.21700712061374
20
-762.33768891097316
42
-0.41421356237313667
10
715.21700712061363
20
-763.33768891097282
10
715.21700712061386
20
-769.21389355630185
10
765.13393019753698
20
-769.21389355630185
10
765.13393019753698
20
-763.33768891097282
42
-0.41421356237334478
10
766.13393019753676
20
-762.3376889109727
10
768.63393019753687
20
-762.33768891097316
42
-0.41421356237313667
10
769.63393019753664
20
-763.33768891097282
10
769.63393019753698
20
-769.21389355630185
10
785.75467649047505
20
-769.21389355630185
42
0.094154374655096407
10
818.76194951178263
20
-762.94274119973284
10
816.48183839566798
20
-757.55747635748764
42
-0.4142135623731879
10
817.01280860273471
20
-756.24672442092333
10
819.31496128227366
20
-755.27199725905109
42
-0.41421356237290929
10
820.62571321883843
20
-755.80296746611782
10
822.90582433495331
20
-761.18823230836324
42
0.090214171505770241
10
849.39428679726461
20
-742.8535038630913
10
861.78793484411881
20
-730.45985581623654
10
857.63283069176305
20
-726.30475166388055
42
-0.41421356237280066
10
857.63283069176339
20
-724.8905381015079
10
859.4005976447296
20
-723.12277114854123
42
-0.41421356237312451
10
860.81481120710293
20
-723.12277114854112
10
864.96991535945835
20
-727.27787530089711
10
900.2665101631178
20
-691.98128049723766
10
896.11140601076261
20
-687.82617634488201
42
-0.41421356237321272
10
896.11140601076261
20
-686.41196278250914
10
897.87917296372871
20
-684.64419582954247
42
-0.41421356237285961
10
899.29338652610227
20
-684.64419582954235
10
903.44849067845735
20
-688.79929998189823
10
938.74508548211702
20
-653.50270517823856
10
934.58998132976171
20
-649.34760102588268
42
-0.41421356237321272
10
934.58998132976171
20
-647.9333874635098
10
936.3577482827277
20
-646.16562051054348
42
-0.41421356237312451
10
937.77196184510103
20
-646.16562051054302
10
941.92706599745634
20
-650.32072466289901
10
977.22366080111556
20
-615.02412985923968
10
973.06855664876048
20
-610.8690257068838
42
-0.41421356237330104
10
973.06855664876036
20
-609.45481214451104
10
974.83632360172692
20
-607.68704519154448
42
-0.41421356237315388
10
976.25053716410002
20
-607.68704519154437
10
980.40564131645522
20
-611.84214934390025
10
1015.7022361201153
20
-576.54555454024046
10
1011.5471319677596
20
-572.39045038788447
42
-0.41421356237321272
10
1011.5471319677596
20
-570.97623682551159
10
1013.3148989207257
20
-569.20846987254515
42
-0.41421356237306561
10
1014.7291124830992
20
-569.20846987254504
10
1018.8842166354544
20
-573.36357402490091
10
1054.180811439114
20
-538.06697922124158
10
1050.0257072867589
20
-533.91187506888571
42
-0.41421356237288909
10
1050.0257072867587
20
-532.49766150651294
10
1051.7934742397247
20
-530.72989455354627
42
-0.41421356237308032
10
1053.207687802098
20
-530.72989455354627
10
1057.3627919544535
20
-534.88499870590215
10
1064.2471005396505
20
-528.00069012070526
42
0.11207914732169058
10
1085.487034607534
20
-494.28536671850054
10
1079.9247923178425
20
-492.47941964458954
42
-0.41421356237318063
10
1079.2824792395099
20
-491.21948555528036
10
1080.0545055032308
20
-488.84167659572876
42
-0.41421356237329249
10
1081.3144395925401
20
-488.19936351739591
10
1086.8766818822321
20
-490.00531059130697
42
0.072360788629931144
10
1090.607490232861
20
-464.36107981391609
10
1090.607490232861
20
-440.44895093458086
10
1084.731285587525
20
-440.44895093458092
42
-0.41421356237307422
10
1083.7312855875252
20
-439.44895093458092
10
1083.7312855875252
20
-436.94895093458081
42
-0.41421356237292856
10
1084.731285587525
20
-435.94895093458092
10
1090.607490232861
20
-435.94895093458092
10
1090.607490232861
20
-386.03202785765808
10
1084.7312855875248
20
-386.03202785765831
42
-0.41421356237301177
10
1083.7312855875248
20
-385.03202785765836
10
1083.7312855875248
20
-382.53202785765831
42
-0.41421356237326151
10
1084.7312855875246
20
-381.53202785765808
10
1090.607490232861
20
-381.53202785765808
10
1090.607490232861
20
-331.61510478073518
10
1084.7312855875248
20
-331.61510478073529
42
-0.41421356237307422
10
1083.7312855875248
20
-330.61510478073512
10
1083.7312855875248
20
-328.11510478073512
42
-0.41421356237309503
10
1084.7312855875246
20
-327.11510478073507
10
1090.607490232861
20
-327.11510478073507
10
1090.607490232861
20
-318.61389355630183
42
0.14900006434994115
10
1078.7090969515289
20
-279.57284724976364
10
1073.9689332682001
20
-282.98413032563656
42
-0.41421356237328011
10
1072.5731458565283
20
-282.75658362401452
10
1071.1128449689661
20
-280.72741598239787
42
-0.41421356237312412
10
1071.3403916705877
20
-279.33162857072614
10
1076.0805553539162
20
-275.92034549485362
42
0.18018482450682785
10
1034.6353555568312
20
-250.03387464078565
10
1033.6495360969589
20
-255.79010291639804
42
-0.41421356237309326
10
1032.4950827053001
20
-256.60694890340341
10
1030.0309584819693
20
-256.1849396475867
42
-0.41421356237305224
10
1029.2141124949637
20
-255.03048625592785
10
1030.1999319548358
20
-249.27425798031609
42
0.034380394729546231
10
1020.6074902328612
20
-248.61389355630183
10
980.31367510216023
20
-248.6138935563018
10
980.31367510216046
20
-254.49009820162931
42
-0.41421356237313667
10
979.31367510216035
20
-255.49009820162922
10
976.81367510216035
20
-255.49009820162928
42
-0.41421356237310542
10
975.81367510216046
20
-254.49009820162931
10
975.81367510216046
20
-248.6138935563018
10
925.89675202523722
20
-248.6138935563018
10
925.89675202523722
20
-254.49009820162931
42
-0.4142135623732407
10
924.89675202523756
20
-255.49009820162922
10
922.39675202523756
20
-255.49009820162917
42
-0.41421356237310542
10
921.39675202523722
20
-254.49009820162931
10
921.39675202523722
20
-248.6138935563018
10
871.47982894831443
20
-248.6138935563018
10
871.47982894831432
20
-254.49009820162931
42
-0.41421356237313667
10
870.47982894831421
20
-255.49009820162922
10
867.97982894831421
20
-255.49009820162928
42
-0.41421356237310542
10
866.97982894831421
20
-254.49009820162931
10
866.97982894831421
20
-248.6138935563018
10
817.06290587139108
20
-248.6138935563018
10
817.06290587139108
20
-254.49009820162931
42
-0.41421356237323032
10
816.06290587139085
20
-255.49009820162922
10
813.56290587139142
20
-255.49009820162917
42
-0.41421356237310542
10
812.56290587139108
20
-254.49009820162931
10
812.56290587139108
20
-248.6138935563018
10
762.64598279446795
20
-248.6138935563018
10
762.64598279446795
20
-254.49009820162931
42
-0.41421356237312623
10
761.64598279446795
20
-255.49009820162922
10
759.14598279446795
20
-255.49009820162928
42
-0.4142135623730222
10
758.14598279446795
20
-254.49009820162931
10
758.14598279446795
20
-248.6138935563018
10
708.22905971754483
20
-248.6138935563018
10
708.22905971754471
20
-254.49009820162931
42
-0.41421356237331353
10
707.22905971754471
20
-255.49009820162922
10
704.72905971754471
20
-255.49009820162919
42
-0.41421356237315748
10
703.72905971754471
20
-254.49009820162931
10
703.72905971754471
20
-248.6138935563018
10
655.54191201582501
20
-248.6138935563018
10
655.54191201582489
20
-254.49009820162931
42
-0.41421356237331353
10
654.54191201582489
20
-255.49009820162922
10
652.04191201582512
20
-255.49009820162919
42
-0.41421356237319906
10
651.04191201582489
20
-254.49009820162931
10
651.04191201582489
20
-248.6138935563018
10
634.05627803530126
20
-248.61389355630183
42
0.091731154362522868
10
601.85513949136555
20
-254.57172154442281
10
604.08339446289119
20
-259.97864894404131
42
-0.41421356237307577
10
603.53985282012422
20
-261.28423788493285
10
601.22843959055126
20
-262.23679700758902
42
-0.4142135623731511
10
599.92285064965961
20
-261.69325536482222
10
597.69459567813442
20
-256.28632796520407
42
0.092636719720328067
10
570.41666772851192
20
-274.9742832495125
10
558.63458763051835
20
-286.75636334750618
10
562.78969178286548
20
-290.91146749985342
42
-0.41421356237315388
10
562.78969178286525
20
-292.32568106222635
10
561.02192482989904
20
-294.09344801519273
42
-0.41421356237311713
10
559.60771126752581
20
-294.09344801519285
10
555.45260711517881
20
-289.93834386284578
10
520.15601231151925
20
-325.23493866650529
10
524.31111646386637
20
-329.39004281885252
42
-0.41421356237312451
10
524.31111646386637
20
-330.80425638122557
10
522.54334951089982
20
-332.57202333419184
42
-0.41421356237318335
10
521.12913594852682
20
-332.57202333419184
10
516.9740317961797
20
-328.41691918184489
10
481.6774369925202
20
-363.71351398550422
10
485.83254114486743
20
-367.86861813785151
42
-0.41421356237306561
10
485.83254114486726
20
-369.28283170022451
10
484.06477419190094
20
-371.05059865319106
42
-0.41421356237318335
10
482.65056062952789
20
-371.050598653191
10
478.49545647718082
20
-366.89549450084382
10
443.19886167352132
20
-402.19208930450344
10
447.35396582586861
20
-406.3471934568505
42
-0.41421356237308032
10
447.35396582586844
20
-407.76140701922367
10
445.58619887290206
20
-409.52917397218994
42
-0.41421356237315388
10
444.1719853105289
20
-409.52917397218994
10
440.01688115818183
20
-405.37406981984299
10
404.7202863545221
20
-440.67066462350277
10
408.87539050686928
20
-444.82576877584961
42
-0.41421356237303619
10
408.87539050686934
20
-446.23998233822243
10
407.10762355390295
20
-448.00774929118904
42
-0.41421356237303619
10
405.69340999152985
20
-448.00774929118921
10
401.5383058391825
20
-443.85264513884238
10
366.24171103552322
20
-479.14923994250159
10
370.39681518787
20
-483.30434409484883
42
-0.41421356237312451
10
370.39681518787
20
-484.71855765722171
0
CIRCLE
5
507
100
AcDbEntity
8
0
100
AcDbCircle
10
999.57374199038952
20
-570.75373844264175
30
0
40
2.0000000000000639
210
0
220
0
230
1
0
CIRCLE
5
508
100
AcDbEntity
8
0
100
AcDbCircle
10
1059.1448098022552
20
-280.07657398690327
30
0
40
1.9999999999999574
210
0
220
0
230
1
0
CIRCLE
5
509
100
AcDbEntity
8
0
100
AcDbCircle
10
527.66361940657112
20
-339.6476417987688
30
0
40
2.0000000000000639
210
0
220
0
230
1
0
CIRCLE
5
510
100
AcDbEntity
8
0
100
AcDbCircle
10
730.6940810846869
20
-264.11389356375241
30
0
40
2.0000000000000062
210
0
220
0
230
1
0
CIRCLE
5
511
100
AcDbEntity
8
0
100
AcDbCircle
10
495.84126734230102
20
-753.71389354885127
30
0
40
2.0000000000000995
210
0
220
0
230
1
0
CIRCLE
5
512
100
AcDbEntity
8
0
100
AcDbCircle
10
1075.1074902254061
20
-427.92428324951243
30
0
40
1.9999999999998863
210
0
220
0
230
1
0
CIRCLE
5
513
100
AcDbEntity
8
0
100
AcDbCircle
10
814.26459219881872
20
-748.0429187215093
30
0
40
2.0000000000000462
210
0
220
0
230
1
0
CIRCLE
5
514
100
AcDbEntity
8
0
100
AcDbCircle
10
1741.8241352689236
20
-429.68235524992969
30
0
40
1.9999999999999929
210
0
220
0
230
1
0
CIRCLE
5
515
100
AcDbEntity
8
0
100
AcDbCircle
10
1449.8188646279209
20
-770.2364136859253
30
0
40
2.0000000000000462
210
0
220
0
230
1
0
CIRCLE
5
516
100
AcDbEntity
8
0
100
AcDbCircle
10
1311.6038539349231
20
-280.63641370082689
30
0
40
1.9999999999999574
210
0
220
0
230
1
0
CIRCLE
5
517
100
AcDbEntity
8
0
100
AcDbCircle
10
1643.0944707267006
20
-770.2364136859245
30
0
40
1.9999999999999929
210
0
220
0
230
1
0
CIRCLE
5
518
100
AcDbEntity
8
0
100
AcDbCircle
10
1397.1394094347916
20
-748.41586888650511
30
0
40
2.0000000000000995
210
0
220
0
230
1
0
CIRCLE
5
519
100
AcDbEntity
8
0
100
AcDbCircle
10
1890.870076818029
20
-642.86282056456685
30
0
40
2.0000000000000284
210
0
220
0
230
1
0
CIRCLE
5
520
100
AcDbEntity
8
0
100
AcDbCircle
10
1166.1370257203262
20
-509.39351565933924
30
0
40
1.9999999999999574
210
0
220
0
230
1
0
CIRCLE
5
521
100
AcDbEntity
8
0
100
AcDbCircle
10
1182.2865956924045
20
-533.56305514412077
30
0
40
2.0000000000000995
210
0
220
0
230
1
0
CIRCLE
5
522
100
AcDbEntity
8
0
100
AcDbCircle
10
1192.0056526375254
20
-498.67837955026522
30
0
40
2.0000000000000284
210
0
220
0
230
1
0
CIRCLE
5
523
100
AcDbEntity
8
0
100
AcDbCircle
10
1868.6959786227474
20
-516.95621884676882
30
0
40
1.9999999999999574
210
0
220
0
230
1
0
CIRCLE
5
524
100
AcDbEntity
8
0
100
AcDbCircle
10
1601.517263083093
20
-280.63641370082576
30
0
40
2.0000000000000018
210
0
220
0
230
1
0
CIRCLE
5
525
100
AcDbEntity
8
0
100
AcDbCircle
10
1890.870076818029
20
-606.42602400016335
30
0
40
2.0000000000000284
210
0
220
0
230
1
0
CIRCLE
5
526
100
AcDbEntity
8
0
100
AcDbCircle
10
1890.870076818029
20
-715.73641369337406
30
0
40
2.0000000000000284
210
0
220
0
230
1
0
CIRCLE
5
527
100
AcDbEntity
8
0
100
AcDbCircle
10
1890.870076818029
20
-569.98922743575963
30
0
40
1.9999999999998863
210
0
220
0
230
1
0
CIRCLE
5
528
100
AcDbEntity
8
0
100
AcDbCircle
10
1176.4287313161342
20
-296.59909412397838
30
0
40
1.9999999999999574
210
0
220
0
230
1
0
CIRCLE
5
529
100
AcDbEntity
8
0
100
AcDbCircle
10
1214.9660508855327
20
-280.63641370082735
30
0
40
2.0000000000000284
210
0
220
0
230
1
0
CIRCLE
5
530
100
AcDbEntity
8
0
100
AcDbCircle
10
1235.9997991280013
20
-587.2762585797168
30
0
40
2.0000000000000639
210
0
220
0
230
1
0
CIRCLE
5
531
100
AcDbEntity
8
0
100
AcDbCircle
10
1890.870076818029
20
-679.29961712897034
30
0
40
2.0000000000000284
210
0
220
0
230
1
0
CIRCLE
5
532
100
AcDbEntity
8
0
100
AcDbCircle
10
1421.3089489195727
20
-764.56543885858332
30
0
40
2.0000000000000462
210
0
220
0
230
1
0
LWPOLYLINE
5
533
100
AcDbEntity
8
0
100
AcDbPolyline
90
252
70
1
43
0.0
10
1470.4396109208508
20
-785.73641369337565
10
1520.356533997774
20
-785.73641369337565
10
1520.3565339977736
20
-779.86020904804718
42
-0.41421356237346962
10
1521.3565339977733
20
-778.86020904804707
10
1523.8565339977731
20
-778.86020904804684
42
-0.41421356237288692
10
1524.8565339977733
20
-779.86020904804718
10
1524.8565339977742
20
-785.73641369337554
10
1574.7734570746968
20
-785.73641369337554
10
1574.7734570746968
20
-779.86020904804695
42
-0.41421356237330315
10
1575.7734570746966
20
-778.86020904804707
10
1578.2734570746966
20
-778.86020904804707
42
-0.41421356237280366
10
1579.2734570746973
20
-779.86020904804718
10
1579.2734570746964
20
-785.73641369337554
10
1629.1903801516198
20
-785.73641369337508
10
1629.1903801516198
20
-779.86020904804661
42
-0.4142135623731783
10
1630.1903801516198
20
-778.86020904804695
10
1632.6903801516198
20
-778.86020904804673
42
-0.41421356237272045
10
1633.69038015162
20
-779.86020904804673
10
1633.69038015162
20
-785.73641369337508
10
1683.6073032285435
20
-785.73641369337474
10
1683.6073032285435
20
-779.86020904804627
42
-0.4142135623730534
10
1684.6073032285426
20
-778.86020904804684
10
1687.1073032285431
20
-778.86020904804627
42
-0.41421356237288692
10
1688.1073032285435
20
-779.86020904804661
10
1688.1073032285435
20
-785.73641369337474
10
1738.0242263054663
20
-785.73641369337452
10
1738.0242263054654
20
-779.86020904804616
42
-0.41421356237330315
10
1739.0242263054663
20
-778.86020904804639
10
1741.5242263054663
20
-778.86020904804627
42
-0.41421356237276202
10
1742.5242263054656
20
-779.86020904804616
10
1742.5242263054661
20
-785.73641369337452
10
1792.4411493823893
20
-785.7364136933744
10
1792.4411493823891
20
-779.86020904804593
42
-0.41421356237313667
10
1793.4411493823886
20
-778.86020904804627
10
1795.9411493823893
20
-778.8602090480457
42
-0.41421356237309503
10
1796.9411493823895
20
-779.86020904804593
10
1796.9411493823895
20
-785.7364136933744
10
1836.3700768254807
20
-785.7364136933744
42
0.037473268716154369
10
1846.8184931007581
20
-784.95223989908027
10
1845.7616293972731
20
-779.20863100913402
42
-0.41421356237334067
10
1846.5641495052027
20
-778.04417342022532
10
1849.0228716262523
20
-777.59175156900153
42
-0.414213562373136
10
1850.1873292151608
20
-778.39427167693202
10
1851.2441929186459
20
-784.13788056687736
42
0.18018482450681603
10
1892.3663961109744
20
-757.74132086476186
10
1887.5844470715133
20
-754.38886395192856
42
-0.41421356237309503
10
1887.3396724720615
20
-752.99599446936281
10
1888.7747910759549
20
-750.94893936684048
42
-0.41421356237352125
10
1890.1676605585205
20
-750.70416476738933
10
1894.9496095979819
20
-754.05662168022275
42
0.14584404586630284
10
1906.3700768254803
20
-715.73641369337406
10
1906.3700768254803
20
-706.37031478133838
10
1900.4938721801523
20
-706.37031478133849
42
-0.41421356237321988
10
1899.493872180152
20
-705.37031478133838
10
1899.493872180152
20
-702.87031478133815
42
-0.41421356237321988
10
1900.4938721801523
20
-701.87031478133815
10
1906.3700768254803
20
-701.87031478133815
10
1906.3700768254803
20
-651.95339170441525
10
1900.4938721801523
20
-651.95339170441548
42
-0.4142135623731783
10
1899.493872180152
20
-650.95339170441491
10
1899.493872180152
20
-648.45339170441491
42
-0.41421356237313667
10
1900.4938721801523
20
-647.45339170441514
10
1906.3700768254803
20
-647.45339170441514
10
1906.3700768254803
20
-597.53646862749201
10
1900.4938721801518
20
-597.53646862749213
42
-0.41421356237313667
10
1899.4938721801514
20
-596.53646862749201
10
1899.4938721801514
20
-594.03646862749179
42
-0.41421356237297013
10
1900.4938721801514
20
-593.0364686274919
10
1906.3700768254803
20
-593.0364686274919
10
1906.3700768254796
20
-569.98922743575963
42
0.074776258503855941
10
1902.3888512919348
20
-543.51715839518295
10
1896.84422047254
20
-545.37647364535678
42
-0.41421356237309503
10
1895.5781721140997
20
-544.7462978333092
10
1894.7833314311083
20
-542.37601762019858
42
-0.41421356237295681
10
1895.4135072431563
20
-541.10996926175835
10
1900.9581380625509
20
-539.25065401158486
42
0.10964715255870705
10
1880.0096871322685
20
-506.34961712897081
10
1872.5138105982069
20
-498.85374059490914
10
1868.3587064458561
20
-503.00884474726104
42
-0.414213562372786
10
1866.9444928834823
20
-503.00884474726081
10
1865.1767259305168
20
-501.24107779429431
42
-0.41421356237338935
10
1865.1767259305163
20
-499.82686423192149
10
1869.3318300828682
20
-495.67176007956965
10
1834.0352352792081
20
-460.37516527591066
10
1829.8801311268567
20
-464.53026942826239
42
-0.41421356237318335
10
1828.4659175644836
20
-464.53026942826205
10
1826.6981506115167
20
-462.76250247529532
42
-0.41421356237333051
10
1826.6981506115167
20
-461.34828891292244
10
1830.8532547638688
20
-457.19318476057111
10
1795.5566599602084
20
-421.8965899569115
10
1791.4015558078574
20
-426.051694109263
42
-0.41421356237333051
10
1789.9873422454843
20
-426.05169410926288
10
1788.2195752925179
20
-424.28392715629656
42
-0.4142135623729773
10
1788.2195752925177
20
-422.86971359392339
10
1792.3746794448687
20
-418.71460944157207
10
1757.0780846412094
20
-383.41801463791279
10
1752.9229804888585
20
-387.57311879026383
42
-0.41421356237343354
10
1751.5087669264847
20
-387.57311879026406
10
1749.7409999735189
20
-385.80535183729762
42
-0.41421356237293322
10
1749.7409999735187
20
-384.39113827492463
10
1753.8961041258701
20
-380.23603412257296
10
1718.59950932221
20
-344.93943931891363
10
1714.4444051698588
20
-349.0945434712653
42
-0.41421356237316864
10
1713.0301916074857
20
-349.09454347126507
10
1711.2624246545192
20
-347.32677651829874
42
-0.41421356237315388
10
1711.2624246545192
20
-345.91256295592558
10
1715.4175288068705
20
-341.75745880357408
10
1680.120934003211
20
-306.46086399991475
10
1675.9658298508593
20
-310.6159681522663
42
-0.41421356237337464
10
1674.5516162884862
20
-310.61596815226613
10
1672.7838493355205
20
-308.84820119929981
42
-0.41421356237341145
10
1672.7838493355207
20
-307.43398763692682
10
1676.9389534878715
20
-303.2788834845752
10
1665.1568733898821
20
-291.4968033865855
42
0.092636719720346206
10
1637.8789454402524
20
-272.80884810227417
10
1635.6506904687265
20
-278.21577550189585
42
-0.41421356237328638
10
1634.3451015278345
20
-278.75931714466265
10
1632.033688298261
20
-277.80675802200636
42
-0.41421356237313017
10
1631.4901466554943
20
-276.50116908111505
10
1633.7184016270214
20
-271.09424168149332
42
0.091731154362502829
10
1601.517263083093
20
-265.13641369337512
10
1584.5316291025601
20
-265.13641369337523
10
1584.5316291025608
20
-271.01261833870308
42
-0.41421356237306384
10
1583.5316291025606
20
-272.01261833870308
10
1581.0316291025606
20
-272.01261833870319
42
-0.41421356237309503
10
1580.0316291025604
20
-271.01261833870296
10
1580.0316291025604
20
-265.13641369337523
10
1531.8444814008408
20
-265.13641369337557
10
1531.8444814008408
20
-271.01261833870342
42
-0.41421356237303258
10
1530.8444814008408
20
-272.01261833870325
10
1528.3444814008408
20
-272.01261833870325
42
-0.41421356237319906
10
1527.3444814008406
20
-271.01261833870325
10
1527.3444814008406
20
-265.13641369337557
10
1477.4275583239173
20
-265.13641369337563
10
1477.4275583239178
20
-271.01261833870359
42
-0.41421356237280366
10
1476.4275583239173
20
-272.01261833870348
10
1473.9275583239173
20
-272.01261833870336
42
-0.41421356237292856
10
1472.9275583239175
20
-271.01261833870342
10
1472.9275583239175
20
-265.13641369337563
10
1423.0106352469945
20
-265.13641369337591
10
1423.0106352469948
20
-271.01261833870382
42
-0.41421356237304302
10
1422.0106352469948
20
-272.01261833870376
10
1419.5106352469948
20
-272.01261833870376
42
-0.41421356237295975
10
1418.5106352469941
20
-271.0126183387037
10
1418.5106352469948
20
-265.13641369337591
10
1368.5937121700708
20
-265.1364136933762
10
1368.5937121700715
20
-271.0126183387041
42
-0.41421356237304302
10
1367.5937121700713
20
-272.01261833870404
10
1365.0937121700713
20
-272.01261833870399
42
-0.41421356237293894
10
1364.0937121700713
20
-271.01261833870399
10
1364.0937121700713
20
-265.1364136933762
10
1314.1767890931478
20
-265.13641369337631
10
1314.1767890931485
20
-271.01261833870416
42
-0.41421356237295975
10
1313.1767890931478
20
-272.01261833870421
10
1310.6767890931478
20
-272.01261833870421
42
-0.41421356237279328
10
1309.676789093148
20
-271.01261833870416
10
1309.676789093148
20
-265.13641369337631
10
1259.7598660162248
20
-265.13641369337665
10
1259.759866016225
20
-271.01261833870456
42
-0.4142135623731783
10
1258.7598660162253
20
-272.01261833870444
10
1256.2598660162253
20
-272.01261833870439
42
-0.41421356237323032
10
1255.2598660162248
20
-271.01261833870456
10
1255.2598660162248
20
-265.13641369337665
10
1214.9660508855325
20
-265.13641369337682
42
0.034380394729569906
10
1205.3736091635494
20
-265.79677811739214
10
1206.3594286234222
20
-271.55300639300333
42
-0.41421356237321311
10
1205.5425826364162
20
-272.70745978466215
10
1203.0784584130854
20
-273.12946904047908
42
-0.41421356237314633
10
1201.9240050214266
20
-272.31262305347354
10
1200.9381855615545
20
-266.55639477786235
42
0.18018482450681969
10
1159.4929857644747
20
-292.44286563193305
10
1164.2331494477976
20
-295.85414870780187
42
-0.41421356237322204
10
1164.4606961494196
20
-297.2499361194736
10
1163.0003952618567
20
-299.27910376109031
42
-0.41421356237325346
10
1161.6046078501856
20
-299.50665046271217
10
1156.8644441668621
20
-296.09536738684324
42
0.1490000643499215
10
1144.9660508855327
20
-335.13641369337705
10
1144.9660508855327
20
-343.63762491781074
10
1150.8422555308607
20
-343.63762491781074
42
-0.41421356237307422
10
1151.8422555308607
20
-344.63762491781074
10
1151.8422555308607
20
-347.13762491781085
42
-0.41421356237301177
10
1150.8422555308607
20
-348.13762491781091
10
1144.9660508855327
20
-348.13762491781074
10
1144.9660508855334
20
-398.05454799473381
10
1150.8422555308612
20
-398.05454799473387
42
-0.41421356237311585
10
1151.8422555308607
20
-399.05454799473375
10
1151.8422555308607
20
-401.55454799473381
42
-0.41421356237319906
10
1150.8422555308607
20
-402.55454799473398
10
1144.9660508855334
20
-402.55454799473387
10
1144.9660508855334
20
-452.47147107165659
10
1150.8422555308607
20
-452.47147107165665
42
-0.41421356237299095
10
1151.8422555308607
20
-453.47147107165654
10
1151.8422555308607
20
-455.97147107165682
42
-0.41421356237303258
10
1150.8422555308607
20
-456.97147107165682
10
1144.9660508855334
20
-456.97147107165682
10
1144.9660508855334
20
-480.88359995099131
42
0.072360788629934711
10
1148.6968592361627
20
-506.52783072838054
10
1154.2591015258461
20
-504.72188365447187
42
-0.41421356237320045
10
1155.5190356151554
20
-505.36419673280449
10
1156.2910618788762
20
-507.74200569235632
42
-0.4142135623730292
10
1155.6487488005439
20
-509.00193978166527
10
1150.0865065108596
20
-510.80788685557366
42
0.11207914732169823
10
1171.3264405787445
20
-544.52321025778076
10
1178.2107491639376
20
-551.40751884297345
10
1182.3658533162884
20
-547.252414690622
42
-0.41421356237294787
10
1183.7800668786617
20
-547.252414690622
10
1185.5478338316279
20
-549.02018164358878
42
-0.4142135623729773
10
1185.5478338316279
20
-550.43439520596166
10
1181.392729679277
20
-554.58949935831276
10
1216.6893244829366
20
-589.88609416197187
10
1220.8444286352881
20
-585.73099000962088
42
-0.41421356237302148
10
1222.2586421976612
20
-585.73099000962077
10
1224.0264091506267
20
-587.49875696258732
42
-0.41421356237330104
10
1224.0264091506274
20
-588.9129705249602
10
1219.8713049982762
20
-593.06807467731142
10
1255.1678998019361
20
-628.36466948097132
10
1259.3230039542868
20
-624.20956532861976
42
-0.41421356237308032
10
1260.7372175166604
20
-624.20956532861965
10
1262.5049844696264
20
-625.97733228158643
42
-0.41421356237321272
10
1262.5049844696264
20
-627.39154584395931
10
1258.3498803172756
20
-631.54664999631007
10
1293.6464751209355
20
-666.84324479996974
10
1297.8015792732865
20
-662.68814064761841
42
-0.4142135623729773
10
1299.2157928356594
20
-662.68814064761841
10
1300.9835597886261
20
-664.45590760058508
42
-0.41421356237321272
10
1300.9835597886261
20
-665.87012116295796
10
1296.8284556362746
20
-670.02522531530917
10
1332.1250504399345
20
-705.3218201189685
10
1336.2801545922855
20
-701.16671596661729
42
-0.41421356237318335
10
1337.6943681546586
20
-701.1667159666174
10
1339.462135107625
20
-702.9344829195843
42
-0.41421356237341878
10
1339.462135107625
20
-704.34869648195695
10
1335.3070309552734
20
-708.50380063430816
10
1370.6036257589335
20
-743.80039543796772
10
1374.7587299112847
20
-739.64529128561605
42
-0.41421356237321272
10
1376.1729434736581
20
-739.64529128561617
10
1377.940710426624
20
-741.41305823858272
42
-0.41421356237312451
10
1377.940710426624
20
-742.82727180095571
10
1373.7856062742733
20
-746.98237595330716
10
1386.1792543211318
20
-759.37602400016522
42
0.090214171505746177
10
1412.6677167834359
20
-777.71075244543454
10
1414.9478278995493
20
-772.32548760319241
42
-0.41421356237313339
10
1416.2585798361135
20
-771.79451739612591
10
1418.5607325156527
20
-772.76924455799781
42
-0.41421356237300216
10
1419.0917027227194
20
-774.07999649456247
10
1416.811591606606
20
-779.46526133680391
42
0.094154374655122497
10
1449.8188646279209
20
-785.73641369337565
10
1465.9396109208506
20
-785.73641369337565
10
1465.9396109208506
20
-779.86020904804718
42
-0.4142135623731783
10
1466.9396109208506
20
-778.86020904804752
10
1469.439610920851
20
-778.86020904804741
42
-0.41421356237321988
10
1470.4396109208508
20
-779.86020904804718
0
CIRCLE
5
534
100
AcDbEntity
8
0
100
AcDbCircle
10
1343.4262059991945
20
-694.70266545090897
30
0
40
2.0000000000000639
210
0
220
0
230
1
0
CIRCLE
5
535
100
AcDbEntity
8
0
100
AcDbCircle
10
1160.4660508929835
20
-408.01000682218421
30
0
40
1.9999999999999574
210
0
220
0
230
1
0
CIRCLE
5
536
100
AcDbEntity
8
0
100
AcDbCircle
10
1546.4566676773106
20
-770.23641368592484
30
0
40
2
210
0
220
0
230
1
0
CIRCLE
5
537
100
AcDbEntity
8
0
100
AcDbCircle
10
1160.4660508929835
20
-371.5732102577806
30
0
40
2.0000000000000284
210
0
220
0
230
1
0
CIRCLE
5
538
100
AcDbEntity
8
0
100
AcDbCircle
10
1160.4660508929846
20
-480.88359995099131
30
0
40
1.9999999999998863
210
0
220
0
230
1
0
CIRCLE
5
539
100
AcDbEntity
8
0
100
AcDbCircle
10
1874.9073963948786
20
-754.27373326277234
30
0
40
2.0000000000000284
210
0
220
0
230
1
0
CIRCLE
5
540
100
AcDbEntity
8
0
100
AcDbCircle
10
1408.2416569843124
20
-280.63641370082644
30
0
40
2.0000000000000284
210
0
220
0
230
1
0
CIRCLE
5
541
100
AcDbEntity
8
0
100
AcDbCircle
10
1504.8794600337023
20
-280.6364137008261
30
0
40
2.0000000000000062
210
0
220
0
230
1
0
CIRCLE
5
542
100
AcDbEntity
8
0
100
AcDbCircle
10
1815.1595518850809
20
-463.41979210910353
30
0
40
1.9999999999999929
210
0
220
0
230
1
0
CIRCLE
5
543
100
AcDbEntity
8
0
100
AcDbCircle
10
1643.0944707267006
20
-742.23641367847381
30
0
40
1.9999999999999929
210
0
220
0
230
1
0
CIRCLE
5
544
100
AcDbEntity
8
0
100
AcDbCircle
10
1859.6683149978628
20
-552.00257880419133
30
0
40
1.9999999999999574
210
0
220
0
230
1
0
CIRCLE
5
545
100
AcDbEntity
8
0
100
AcDbCircle
10
1739.7322737760901
20
-770.23641368592394
30
0
40
2.0000000000000995
210
0
220
0
230
1
0
CIRCLE
5
546
100
AcDbEntity
8
0
100
AcDbCircle
10
1630.0271787914405
20
-286.30738852816762
30
0
40
1.9999999999999574
210
0
220
0
230
1
0
CIRCLE
5
547
100
AcDbEntity
8
0
100
AcDbCircle
10
1289.7130025635975
20
-640.98946201531271
30
0
40
1.9999999999999929
210
0
220
0
230
1
0
CIRCLE
5
548
100
AcDbEntity
8
0
100
AcDbCircle
10
1654.1967182762221
20
-302.45695850024549
30
0
40
1.9999999999999751
210
0
220
0
230
1
0
CIRCLE
5
549
100
AcDbEntity
8
0
100
AcDbCircle
10
1309.5119924420896
20
-621.19047213682154
30
0
40
1.9999999999999929
210
0
220
0
230
1
0
CIRCLE
5
550
100
AcDbEntity
8
0
100
AcDbCircle
10
1196.2277211946264
20
-316.39808400247006
30
0
40
2.0000000000000284
210
0
220
0
230
1
0
CIRCLE
5
551
100
AcDbEntity
8
0
100
AcDbCircle
10
1761.6231251474153
20
-409.883365371438
30
0
40
2.0000000000000284
210
0
220
0
230
1
0
CIRCLE
5
552
100
AcDbEntity
8
0
100
AcDbCircle
10
1707.9099217118189
20
-356.17016193584158
30
0
40
2.0000000000000639
210
0
220
0
230
1
0
CIRCLE
5
553
100
AcDbEntity
8
0
100
AcDbCircle
10
1160.466050892984
20
-444.4468033865877
30
0
40
1.9999999999998863
210
0
220
0
230
1
0
CIRCLE
5
554
100
AcDbEntity
8
0
100
AcDbCircle
10
1408.2416569843124
20
-308.63641370827708
30
0
40
1.9999999999999929
210
0
220
0
230
1
0
CIRCLE
5
555
100
AcDbEntity
8
0
100
AcDbCircle
10
1160.4660508929835
20
-335.13641369337705
30
0
40
2.0000000000000284
210
0
220
0
230
1
0
CIRCLE
5
556
100
AcDbEntity
8
0
100
AcDbCircle
10
1855.1084065163868
20
-734.47474338428083
30
0
40
1.9999999999999574
210
0
220
0
230
1
0
CIRCLE
5
557
100
AcDbEntity
8
0
100
AcDbCircle
10
1432.0240850286459
20
-738.69681194138411
30
0
40
2.0000000000000817
210
0
220
0
230
1
0
CIRCLE
5
558
100
AcDbEntity
8
0
100
AcDbCircle
10
1619.3120426823668
20
-312.17601544536706
30
0
40
1.9999999999999574
210
0
220
0
230
1
0
CIRCLE
5
559
100
AcDbEntity
8
0
100
AcDbCircle
10
1836.3700768254807
20
-770.23641368592371
30
0
40
1.9999999999999929
210
0
220
0
230
1
0
ENDSEC
0
SECTION
2
OBJECTS
0
DICTIONARY
5
C
100
AcDbDictionary
3
ACAD_GROUP
350
D
3
ACAD_MLINESTYLE
350
17
0
DICTIONARY
5
D
100
AcDbDictionary
0
DICTIONARY
5
1A
330
C
100
AcDbDictionary
0
DICTIONARY
5
17
100
AcDbDictionary
0
ENDSEC
0
EOF
