0
SECTION
2
HEADER
9
$INSUNITS
70
4
9
$ACADVER
1
AC1014
9
$HANDSEED
5
FFFF
0
ENDSEC
0
SECTION
2
TABLES
0
TABLE
2
VPORT
5
8
100
AcDbSymbolTable
0
ENDTAB
0
TABLE
2
LTYPE
5
5
100
AcDbSymbolTable
0
LTYPE
5
14
100
AcDbSymbolTableRecord
100
AcDbLinetypeTableRecord
2
BYBLOCK
70
0
0
LTYPE
5
15
100
AcDbSymbolTableRecord
100
AcDbLinetypeTableRecord
2
BYLAYER
70
0
0
ENDTAB
0
TABLE
2
LAYER
5
2
100
AcDbSymbolTable
70
2
0
LAYER
5
50
100
AcDbSymbolTableRecord
100
AcDbLayerTableRecord
2
0
70
0
6
CONTINUOUS
0
ENDTAB
0
TABLE
2
STYLE
5
3
100
AcDbSymbolTable
70
1
0
STYLE
5
11
100
AcDbSymbolTableRecord
100
AcDbTextStyleTableRecord
2
STANDARD
70
0
0
ENDTAB
0
TABLE
2
VIEW
5
6
100
AcDbSymbolTable
70
0
0
ENDTAB
0
TABLE
2
UCS
5
7
100
AcDbSymbolTable
70
0
0
ENDTAB
0
TABLE
2
APPID
5
9
100
AcDbSymbolTable
70
2
0
APPID
5
12
100
AcDbSymbolTableRecord
100
AcDbRegAppTableRecord
2
ACAD
70
0
0
ENDTAB
0
TABLE
2
DIMSTYLE
5
A
100
AcDbSymbolTable
70
1
0
ENDTAB
0
TABLE
2
BLOCK_RECORD
5
1
100
AcDbSymbolTable
70
1
0
BLOCK_RECORD
5
1F
100
AcDbSymbolTableRecord
100
AcDbBlockTableRecord
2
*MODEL_SPACE
0
BLOCK_RECORD
5
1B
100
AcDbSymbolTableRecord
100
AcDbBlockTableRecord
2
*PAPER_SPACE
0
ENDTAB
0
ENDSEC
0
SECTION
2
BLOCKS
0
BLOCK
5
20
100
AcDbEntity
100
AcDbBlockBegin
2
*MODEL_SPACE
0
ENDBLK
5
21
100
AcDbEntity
100
AcDbBlockEnd
0
BLOCK
5
1C
100
AcDbEntity
100
AcDbBlockBegin
2
*PAPER_SPACE
0
ENDBLK
5
1D
100
AcDbEntity
100
AcDbBlockEnd
0
ENDSEC
0
SECTION
2
ENTITIES
0
LWPOLYLINE
5
100
100
AcDbEntity
8
0
100
AcDbPolyline
90
257
70
1
43
0.0
10
-195.93090763979262
20
-162.00384617610669
10
-190.88093127244446
20
-159.19891351568344
42
0.063432203214036434
10
-204.80240266318134
20
-141.21320343559654
10
-235.10436355362472
20
-110.91124254515293
10
-239.20897609565301
20
-115.01585508718121
42
-0.41421356237302509
10
-240.62318965802609
20
-115.01585508718135
10
-242.39095661099256
20
-113.24808813421512
42
-0.41421356237314655
10
-242.39095661099265
20
-111.83387457184179
10
-238.28634406896427
20
-107.72926202981346
10
-284.71406877451761
20
-61.301537324260103
10
-288.81868131654585
20
-65.406149866288402
42
-0.41421356237306561
10
-290.2328948789189
20
-65.406149866288501
10
-292.0006618318854
20
-63.638382913322289
42
-0.41421356237313917
10
-292.00066183188545
20
-62.224169350948912
10
-287.89604928985716
20
-58.11955680892062
10
-319.65521640556716
20
-26.360389693210706
42
0.057686746889038638
10
-335.87707241081114
20
-13.50453231074229
10
-338.79689295574838
20
-18.488963725221367
42
-0.41421356237309381
10
-340.16519906932501
20
-18.846368788908038
10
-342.32233804090413
20
-17.582742476545569
42
-0.41421356237304385
10
-342.67974310459078
20
-16.214436362968847
10
-339.75992255965321
20
-11.230004948489825
42
0.12690002952119414
10
-383.29482671235633
20
-1.7763568394002505e-13
10
-403.51218303931148
20
-1.1102230246251565e-15
10
-403.51218303931148
20
-5.8047987252231801
42
-0.41421356237309698
10
-404.51218303931142
20
-6.8047987252231241
10
-407.01218303931142
20
-6.8047987252232298
42
-0.41421356237310508
10
-408.01218303931142
20
-5.804798725223181
10
-408.01218303931165
20
-2.2204460492503127e-15
10
-473.67090098802919
20
-1.1102230246251565e-15
10
-473.67090098802919
20
-5.8047987252231801
42
-0.41421356237309698
10
-474.67090098802913
20
-6.8047987252231241
10
-477.17090098802913
20
-6.8047987252232716
42
-0.41421356237305473
10
-478.17090098802919
20
-5.804798725223181
10
-478.17090098802942
20
-2.2204460492503127e-15
10
-543.82961893674724
20
-1.1102230246251565e-15
10
-543.82961893674724
20
-5.8047987252231801
42
-0.41421356237310253
10
-544.82961893674747
20
-6.8047987252234083
10
-547.32961893674712
20
-6.8047987252232218
42
-0.41421356237310281
10
-548.32961893674724
20
-5.804798725223181
10
-548.32961893674701
20
-2.2204460492503127e-15
10
-613.98833688546529
20
-1.1102230246251565e-15
10
-613.98833688546529
20
-5.8047987252231801
42
-0.41421356237309664
10
-614.98833688546506
20
-6.8047987252231241
10
-617.48833688546506
20
-6.8047987252232023
42
-0.41421356237307616
10
-618.48833688546529
20
-5.804798725223181
10
-618.48833688546529
20
-2.2204460492503127e-15
10
-684.14705483418311
20
-1.1102230246251565e-15
10
-684.14705483418311
20
-5.8047987252231801
42
-0.41421356237310253
10
-685.14705483418334
20
-6.8047987252234083
10
-687.64705483418322
20
-6.804798725223236
42
-0.41421356237296103
10
-688.64705483418322
20
-5.804798725223181
10
-688.64705483418322
20
-0.00030030183051366066
42
0.23888880057365069
10
-745.00843299023632
20
-28.766031890068042
10
-740.2400376571585
20
-32.012488825739482
42
-0.41421356237302792
10
-739.97620746709219
20
-33.401874888290116
10
-741.38315230769751
20
-35.468395204061103
42
-0.41421356237307949
10
-742.77253837024784
20
-35.732225394127397
10
-747.54093370332589
20
-32.485768458455915
42
0.14234850614024055
10
-758.44201296997073
20
-70
10
-758.44201296997062
20
-96.066734886005776
10
-752.6372142447475
20
-96.066734886005861
42
-0.41421356237323553
10
-751.63721424474761
20
-97.066734886005719
10
-751.63721424474738
20
-99.566734886005719
42
-0.41421356237299095
10
-752.6372142447475
20
-100.56673488600566
10
-758.44201296997062
20
-100.56673488600573
10
-758.44201296997062
20
-166.22545283472377
10
-752.6372142447475
20
-166.22545283472377
42
-0.41421356237301177
10
-751.63721424474727
20
-167.22545283472371
10
-751.63721424474761
20
-169.72545283472371
42
-0.41421356237299095
10
-752.6372142447475
20
-170.72545283472363
10
-758.44201296997062
20
-170.72545283472377
10
-758.44201296997062
20
-223.43145750507603
42
0.046291329184979781
10
-757.24712267866744
20
-236.31000082232248
10
-751.6140070202789
20
-235.06698647529936
42
-0.41421356237319096
10
-750.42202008484196
20
-235.82801679384661
10
-749.88332431373055
20
-238.26928836132669
42
-0.41421356237307694
10
-750.64435463227812
20
-239.4612752967636
10
-756.27747029066632
20
-240.70428964378638
42
0.13482518469561791
10
-737.93948765302855
20
-272.92893218813333
10
-718.04605674712445
20
-292.82236309403868
10
-713.94144420509645
20
-288.71775055201033
42
-0.41421356237303619
10
-712.52723064272288
20
-288.71775055201044
10
-710.7594636897569
20
-290.4855175049766
42
-0.414213562373073
10
-710.7594636897569
20
-291.89973106734999
10
-714.86407623178502
20
-296.00434360937805
10
-668.43635152623153
20
-342.43206831493183
10
-664.33173898420307
20
-338.32745577290336
42
-0.41421356237308032
10
-662.91752542182962
20
-338.32745577290336
10
-661.14975846886398
20
-340.09522272586958
42
-0.41421356237319806
10
-661.14975846886398
20
-341.50943628824274
10
-665.2543710108921
20
-345.61404883027109
10
-618.82664630533873
20
-392.04177353582452
10
-614.72203376331038
20
-387.93716099379606
42
-0.41421356237315388
10
-613.30782020093693
20
-387.93716099379606
10
-611.54005324797129
20
-389.70492794676227
42
-0.41421356237318335
10
-611.54005324797117
20
-391.1191415091356
10
-615.64466578999941
20
-395.22375405116406
10
-609.90647906403774
20
-400.96194077712533
42
-0.1989123673796438
10
-608.44201296997039
20
-404.4974746830585
10
-608.44201296997062
20
-458.11418032350491
10
-602.63721424474738
20
-458.11418032350491
42
-0.41421356237303258
10
-601.63721424474727
20
-459.11418032350491
10
-601.63721424474738
20
-461.6141803235048
42
-0.41421356237319906
10
-602.63721424474738
20
-462.61418032350485
10
-608.44201296997062
20
-462.61418032350491
10
-608.44201296997062
20
-492.25026961438346
42
-0.19891236737962636
10
-609.90647906403819
20
-495.78580352031634
10
-632.60152222781187
20
-518.48084668409024
10
-628.49690968578341
20
-522.58545922611881
42
-0.41421356237318335
10
-628.49690968578341
20
-523.99967278849192
10
-630.26467663874996
20
-525.76743974145802
42
-0.41421356237315388
10
-631.67889020112329
20
-525.76743974145825
10
-635.78350274315142
20
-521.66282719942967
10
-682.21122744870502
20
-568.09055190498327
10
-678.10661490667655
20
-572.19516444701162
42
-0.41421356237309503
10
-678.10661490667667
20
-573.60937800938495
10
-679.87438185964288
20
-575.37714496235117
42
-0.41421356237313917
10
-681.28859542201576
20
-575.37714496235117
10
-685.39320796404456
20
-571.2725324203227
10
-731.82093266959771
20
-617.70025712587596
10
-727.71632012756925
20
-621.80486966790431
42
-0.41421356237308032
10
-727.71632012756925
20
-623.21908323027765
10
-729.48408708053557
20
-624.98685018324375
42
-0.41421356237299201
10
-730.89830064290845
20
-624.98685018324386
10
-735.00291318493726
20
-620.8822376412154
10
-737.93948765302855
20
-623.81881210930703
42
0.19891236737965859
10
-758.44201296997062
20
-673.3162867923653
10
-758.44201296997062
20
-679.84418986356775
10
-752.6372142447475
20
-679.84418986356764
42
-0.41421356237276202
10
-751.63721424474727
20
-680.84418986356752
10
-751.63721424474761
20
-683.34418986356764
42
-0.41421356237292856
10
-752.6372142447475
20
-684.34418986356764
10
-758.44201296997062
20
-684.34418986356764
10
-758.44201296997062
20
-750.00290781228603
10
-752.6372142447475
20
-750.00290781228591
42
-0.41421356237276202
10
-751.63721424474727
20
-751.0029078122858
10
-751.63721424474772
20
-753.5029078122858
42
-0.41421356237284529
10
-752.6372142447475
20
-754.50290781228591
10
-758.44201296997062
20
-754.50290781228591
10
-758.44201296997062
20
-820.16162576100373
10
-752.6372142447475
20
-820.16162576100373
42
-0.41421356237292856
10
-751.63721424474761
20
-821.16162576100362
10
-751.63721424474761
20
-823.66162576100362
42
-0.41421356237288692
10
-752.6372142447475
20
-824.66162576100373
10
-758.44201296997062
20
-824.66162576100373
10
-758.44201296997062
20
-826.74774429744161
42
0.23102704568873481
10
-731.50503305496977
20
-881.93448456318833
10
-728.10426911591446
20
-877.27488358043104
42
-0.41421356237297874
10
-726.70699337009682
20
-877.0566623849686
10
-724.6876221934964
20
-878.53048057291301
42
-0.41421356237318685
10
-724.46940099803373
20
-879.92775631873087
10
-727.87016493708904
20
-884.5873573014876
42
0.15070695146833213
10
-688.44201296997062
20
-896.7477442974423
10
-664.66643848461547
20
-896.74774429744161
10
-664.66643848461547
20
-890.94294557221838
42
-0.41421356237309503
10
-663.66643848461524
20
-889.94294557221815
10
-661.16643848461536
20
-889.9429455722186
42
-0.41421356237284529
10
-660.16643848461524
20
-890.94294557221838
10
-660.16643848461536
20
-896.74774429744161
10
-594.50772053589708
20
-896.74774429744161
10
-594.50772053589708
20
-890.94294557221838
42
-0.41421356237313667
10
-593.50772053589696
20
-889.94294557221815
10
-591.00772053589696
20
-889.94294557221849
42
-0.41421356237297013
10
-590.00772053589696
20
-890.94294557221838
10
-590.00772053589696
20
-896.74774429744161
10
-524.34900258717926
20
-896.74774429744161
10
-524.34900258717937
20
-890.94294557221838
42
-0.41421356237311585
10
-523.34900258717903
20
-889.94294557221815
10
-520.84900258717937
20
-889.94294557221849
42
-0.41421356237288692
10
-519.84900258717926
20
-890.94294557221838
10
-519.84900258717948
20
-896.74774429744161
10
-454.19028463846161
20
-896.74774429744161
10
-454.19028463846166
20
-890.94294557221838
42
-0.41421356237311585
10
-453.19028463846138
20
-889.94294557221815
10
-450.69028463846166
20
-889.94294557221849
42
-0.4142135623730534
10
-449.69028463846166
20
-890.94294557221838
10
-449.69028463846172
20
-896.74774429744161
10
-384.03174215562927
20
-896.74774429744161
10
-384.12891723768217
20
-890.96887413251147
42
-0.41421356237330315
10
-383.14587179766727
20
-889.95220227647053
10
-380.64622517759744
20
-889.9101692564376
42
-0.41421356237321955
10
-379.62955332155622
20
-890.89321469645256
10
-379.53242897849975
20
-896.66906748216945
42
0.18443412390909811
10
-320.55517330228963
20
-871.27476104224957
10
-324.65351061496574
20
-867.176423729573
42
-0.41421356237305085
10
-324.65351061496608
20
-865.76221016720012
10
-322.88574366199975
20
-863.9944432142338
42
-0.41421356237315388
10
-321.47153009962636
20
-863.99444321423357
10
-317.36691755759819
20
-868.09905575626203
10
-270.93919285204447
20
-821.67133105070832
10
-275.04380539407288
20
-817.56671850867986
42
-0.41421356237291845
10
-275.04380539407288
20
-816.15250494630732
10
-273.27603844110661
20
-814.38473799334042
42
-0.41421356237310242
10
-271.86182487873333
20
-814.38473799334076
10
-267.75721233670509
20
-818.48935053536911
10
-221.32948763115195
20
-772.06162582981597
10
-225.43410017318018
20
-767.95701328778762
42
-0.41421356237315388
10
-225.4341001731801
20
-766.5427997254144
10
-223.66633322021386
20
-764.77503277244796
42
-0.4142135623731098
10
-222.25211965784064
20
-764.77503277244796
10
-218.1475071158124
20
-768.87964531447653
10
-204.80240266318131
20
-755.5345408618449
42
0.13069679217380298
10
-181.59684371072342
20
-715.5151883083646
10
-187.20717913209148
20
-714.13894523389445
42
-0.41421356237310519
10
-187.94014342440587
20
-712.92949769630002
10
-187.34453936780622
20
-710.50148290891468
42
-0.41421356237315049
10
-186.1350918302121
20
-709.76851861660043
10
-180.52475640884433
20
-711.14476169107093
42
0.053940306389455718
10
-178.44201296997053
20
-691.89493055505568
10
-178.44201296997056
20
-645.63615707158692
10
-184.24681169519371
20
-645.63615707158669
42
-0.41421356237297013
10
-185.24681169519383
20
-644.63615707158681
10
-185.24681169519394
20
-642.13615707158681
42
-0.41421356237309503
10
-184.24681169519371
20
-641.13615707158692
10
-178.44201296997056
20
-641.13615707158692
10
-178.44201296997056
20
-575.47743912286876
10
-184.24681169519371
20
-575.47743912286876
42
-0.41421356237303258
10
-185.24681169519383
20
-574.47743912286887
10
-185.24681169519383
20
-571.97743912286887
42
-0.41421356237312623
10
-184.24681169519371
20
-570.97743912286876
10
-178.44201296997056
20
-570.97743912286876
10
-178.44201296997056
20
-505.31872117415139
10
-184.24681169519371
20
-505.31872117415134
42
-0.41421356237297013
10
-185.24681169519383
20
-504.31872117415139
10
-185.24681169519386
20
-501.81872117415128
42
-0.41421356237315748
10
-184.24681169519371
20
-500.81872117415116
10
-178.44201296997056
20
-500.81872117415122
10
-178.44201296997056
20
-435.16000322543363
10
-184.24681169519371
20
-435.16000322543363
42
-0.41421356237303258
10
-185.24681169519383
20
-434.16000322543368
10
-185.24681169519386
20
-431.66000322543368
42
-0.41421356237309503
10
-184.24681169519371
20
-430.66000322543368
10
-178.44201296997056
20
-430.66000322543368
10
-178.44201296997056
20
-365.00128527671541
10
-184.24681169519371
20
-365.00128527671535
42
-0.41421356237297013
10
-185.24681169519383
20
-364.00128527671541
10
-185.24681169519386
20
-361.50128527671541
42
-0.41421356237309503
10
-184.24681169519371
20
-360.50128527671524
10
-178.44201296997056
20
-360.50128527671524
10
-178.44201296997056
20
-294.84256732799764
10
-184.24681169519371
20
-294.84256732799764
42
-0.41421356237313667
10
-185.24681169519383
20
-293.84256732799764
10
-185.24681169519386
20
-291.3425673279977
42
-0.4142135623730846
10
-184.24681169519371
20
-290.34256732799764
10
-178.44201296997056
20
-290.34256732799764
10
-178.44201296997056
20
-231.63097087628699
10
-184.24681169519371
20
-231.63097087628699
42
-0.4142135623730846
10
-185.24681169519383
20
-230.63097087628699
10
-185.24681169519386
20
-228.13097087628705
42
-0.41421356237309503
10
-184.24681169519371
20
-227.13097087628697
10
-178.44201296997056
20
-227.13097087628697
10
-178.44201296997039
20
-204.85281374238585
42
0.12108755741348465
10
-188.69590106691689
20
-163.13282289452422
10
-193.74587743426503
20
-165.9377555549477
42
-0.41421356237314155
10
-195.10564178634712
20
-165.54911573865581
10
-196.31954745608454
20
-163.36361052818873
42
-0.41421356237307183
0
CIRCLE
5
101
100
AcDbEntity
8
0
100
AcDbCircle
10
-742.94201296252015
20
-826.74774429744161
30
0
40
2.0000000000000284
210
0
220
0
230
1
0
CIRCLE
5
102
100
AcDbEntity
8
0
100
AcDbCircle
10
-193.94201297742114
20
-570.1344013518883
30
0
40
2.0000000000000284
210
0
220
0
230
1
0
CIRCLE
5
103
100
AcDbEntity
8
0
100
AcDbCircle
10
-662.96282824487366
20
-325.98528136896988
30
0
40
2.0000000000000462
210
0
220
0
230
1
0
CIRCLE
5
104
100
AcDbEntity
8
0
100
AcDbCircle
10
-225.48161472196256
20
-187.05803414311146
30
0
40
1.9999999999999929
210
0
220
0
230
1
0
CIRCLE
5
105
100
AcDbEntity
8
0
100
AcDbCircle
10
-707.18034266087727
20
-845.48607398834861
30
0
40
2.0000000000000995
210
0
220
0
230
1
0
CIRCLE
5
106
100
AcDbEntity
8
0
100
AcDbCircle
10
-712.92482056775282
20
-663.17517584039297
30
0
40
2.0000000000000995
210
0
220
0
230
1
0
CIRCLE
5
107
100
AcDbEntity
8
0
100
AcDbCircle
10
-225.48161472196256
20
-709.68971015432999
30
0
40
2.0000000000000284
210
0
220
0
230
1
0
CIRCLE
5
108
100
AcDbEntity
8
0
100
AcDbCircle
10
-726.9793325393689
20
-31.462680430601537
30
0
40
1.9999999999999574
210
0
220
0
230
1
0
LWPOLYLINE
5
109
100
AcDbEntity
8
0
100
AcDbPolyline
90
20
70
1
43
0.0
10
-244.40038242016456
20
-715.93656110486165
10
-359.25319616255052
20
-830.78937484724747
42
-0.19891236737965454
10
-383.29482671235633
20
-840.74774428254045
10
-688.44201296997062
20
-840.74774428254045
42
-0.41421356237306828
10
-702.44201295506957
20
-826.74774429744161
10
-702.44201295506957
20
-673.3162867923653
42
-0.1989123673796572
10
-698.34150789604553
20
-663.41679186629017
10
-570.30849930705449
20
-535.3837832772997
42
0.19891236737965673
10
-552.44201295506923
20
-492.25026961438346
10
-552.44201295506946
20
-404.49747468305816
42
0.19891236737965268
10
-570.30849930705449
20
-361.36396102014209
10
-698.34150789604564
20
-233.33095243115076
42
-0.19891236737973741
10
-702.44201295506957
20
-223.43145750507603
10
-702.44201295506957
20
-70
42
-0.41421356237307982
10
-688.44201296997062
20
-56.000000014901161
10
-383.29482671235633
20
-56.000000014901161
42
-0.19891236737966492
10
-359.25319616255052
20
-65.95836945019407
10
-244.40038242016468
20
-180.8111831925799
42
-0.1989123673796632
10
-234.4420129848717
20
-204.85281374238582
10
-234.44201298487175
20
-691.89493055505568
42
-0.19891236737965939
0
CIRCLE
5
110
100
AcDbEntity
8
0
100
AcDbCircle
10
-273.18896464803396
20
-94.746951678063368
30
0
40
2.0000000000000284
210
0
220
0
230
1
0
CIRCLE
5
111
100
AcDbEntity
8
0
100
AcDbCircle
10
-365.50004711308219
20
-849.70814254544973
30
0
40
2.0000000000000284
210
0
220
0
230
1
0
CIRCLE
5
112
100
AcDbEntity
8
0
100
AcDbCircle
10
-712.92482056775282
20
-233.57256845704828
30
0
40
1.9999999999998863
210
0
220
0
230
1
0
CIRCLE
5
113
100
AcDbEntity
8
0
100
AcDbCircle
10
-273.18896464803396
20
-802.00079261937833
30
0
40
2.0000000000000284
210
0
220
0
230
1
0
CIRCLE
5
114
100
AcDbEntity
8
0
100
AcDbCircle
10
-354.78491100400839
20
-21.170974834792414
30
0
40
2.0000000000000284
210
0
220
0
230
1
0
CIRCLE
5
115
100
AcDbEntity
8
0
100
AcDbCircle
10
-354.78491100400839
20
-875.57676946264905
30
0
40
2.0000000000000284
210
0
220
0
230
1
0
CIRCLE
5
116
100
AcDbEntity
8
0
100
AcDbCircle
10
-193.94201297742114
20
-204.85281374238582
30
0
40
2.0000000000000284
210
0
220
0
230
1
0
CIRCLE
5
117
100
AcDbEntity
8
0
100
AcDbCircle
10
-215.76255777684113
20
-152.17335854925639
30
0
40
2.0000000000000639
210
0
220
0
230
1
0
CIRCLE
5
118
100
AcDbEntity
8
0
100
AcDbCircle
10
-535.86841984116336
20
-43.500000014901154
30
0
40
2.0000000000000284
210
0
220
0
230
1
0
CIRCLE
5
119
100
AcDbEntity
8
0
100
AcDbCircle
10
-742.94201296252015
20
-70
30
0
40
1.9999999999999574
210
0
220
0
230
1
0
CIRCLE
5
120
100
AcDbEntity
8
0
100
AcDbCircle
10
-726.9793325393689
20
-634.7789672229668
30
0
40
2.0000000000000639
210
0
220
0
230
1
0
CIRCLE
5
121
100
AcDbEntity
8
0
100
AcDbCircle
10
-193.94201297742114
20
-448.37387214872081
30
0
40
2.0000000000000187
210
0
220
0
230
1
0
CIRCLE
5
122
100
AcDbEntity
8
0
100
AcDbCircle
10
-535.86841984116336
20
-15.500000007450581
30
0
40
1.9999999999999574
210
0
220
0
230
1
0
CIRCLE
5
123
100
AcDbEntity
8
0
100
AcDbCircle
10
-568.6338556294063
20
-385.93732820764893
30
0
40
1.999999999999913
210
0
220
0
230
1
0
CIRCLE
5
124
100
AcDbEntity
8
0
100
AcDbCircle
10
-365.50004711308219
20
-47.039601751991995
30
0
40
2.0000000000000284
210
0
220
0
230
1
0
CIRCLE
5
125
100
AcDbEntity
8
0
100
AcDbCircle
10
-726.97933253936969
20
-261.96877707447413
30
0
40
1.9999999999999574
210
0
220
0
230
1
0
CIRCLE
5
126
100
AcDbEntity
8
0
100
AcDbCircle
10
-598.94632395037809
20
-506.74595863397622
30
0
40
2.0000000000000373
210
0
220
0
230
1
0
CIRCLE
5
127
100
AcDbEntity
8
0
100
AcDbCircle
10
-193.94201297742114
20
-691.89493055505568
30
0
40
1.9999999999999929
210
0
220
0
230
1
0
CIRCLE
5
128
100
AcDbEntity
8
0
100
AcDbCircle
10
-742.94201296252015
20
-146.71572875253798
30
0
40
2.0000000000000995
210
0
220
0
230
1
0
CIRCLE
5
129
100
AcDbEntity
8
0
100
AcDbCircle
10
-215.76255777684113
20
-744.57438574818525
30
0
40
1.9999999999999929
210
0
220
0
230
1
0
CIRCLE
5
130
100
AcDbEntity
8
0
100
AcDbCircle
10
-535.86841984116336
20
-881.24774428999103
30
0
40
1.9999999999999574
210
0
220
0
230
1
0
CIRCLE
5
131
100
AcDbEntity
8
0
100
AcDbCircle
10
-383.29482671235633
20
-15.500000007450581
30
0
40
1.9999999999998863
210
0
220
0
230
1
0
CIRCLE
5
132
100
AcDbEntity
8
0
100
AcDbCircle
10
-459.58162327675979
20
-881.24774428999103
30
0
40
1.9999999999998863
210
0
220
0
230
1
0
CIRCLE
5
133
100
AcDbEntity
8
0
100
AcDbCircle
10
-598.94632395037809
20
-390.00178566346563
30
0
40
2.0000000000000551
210
0
220
0
230
1
0
CIRCLE
5
134
100
AcDbEntity
8
0
100
AcDbCircle
10
-330.61537151922693
20
-859.42719949057107
30
0
40
1.9999999999999574
210
0
220
0
230
1
0
CIRCLE
5
135
100
AcDbEntity
8
0
100
AcDbCircle
10
-193.94201297742114
20
-326.61334294555326
30
0
40
1.9999999999999929
210
0
220
0
230
1
0
CIRCLE
5
136
100
AcDbEntity
8
0
100
AcDbCircle
10
-688.44201296997062
20
-15.500000007450581
30
0
40
2.0000000000000284
210
0
220
0
230
1
0
CIRCLE
5
137
100
AcDbEntity
8
0
100
AcDbCircle
10
-742.94201296252015
20
-750.03201554490363
30
0
40
1.9999999999999574
210
0
220
0
230
1
0
CIRCLE
5
138
100
AcDbEntity
8
0
100
AcDbCircle
10
-742.94201296252015
20
-673.3162867923653
30
0
40
1.9999999999999929
210
0
220
0
230
1
0
CIRCLE
5
139
100
AcDbEntity
8
0
100
AcDbCircle
10
-199.61298780476312
20
-720.4048462634039
30
0
40
1.9999999999999574
210
0
220
0
230
1
0
CIRCLE
5
140
100
AcDbEntity
8
0
100
AcDbCircle
10
-535.86841984116336
20
-853.24774428254045
30
0
40
2.0000000000000284
210
0
220
0
230
1
0
CIRCLE
5
141
100
AcDbEntity
8
0
100
AcDbCircle
10
-221.9420129848717
20
-448.37387214872081
30
0
40
2.0000000000000262
210
0
220
0
230
1
0
CIRCLE
5
142
100
AcDbEntity
8
0
100
AcDbCircle
10
-199.61298780476312
20
-176.34289803403786
30
0
40
1.9999999999999574
210
0
220
0
230
1
0
CIRCLE
5
143
100
AcDbEntity
8
0
100
AcDbCircle
10
-383.29482671235633
20
-881.24774428999103
30
0
40
2.0000000000000284
210
0
220
0
230
1
0
CIRCLE
5
144
100
AcDbEntity
8
0
100
AcDbCircle
10
-707.18034266087727
20
-51.261670309093219
30
0
40
2.0000000000000284
210
0
220
0
230
1
0
CIRCLE
5
145
100
AcDbEntity
8
0
100
AcDbCircle
10
-726.9793325393689
20
-865.28506386684001
30
0
40
2.0000000000000284
210
0
220
0
230
1
0
CIRCLE
5
146
100
AcDbEntity
8
0
100
AcDbCircle
10
-688.44201296997062
20
-881.24774428999103
30
0
40
1.9999999999998863
210
0
220
0
230
1
0
CIRCLE
5
147
100
AcDbEntity
8
0
100
AcDbCircle
10
-742.94201296252015
20
-223.43145750507603
30
0
40
1.9999999999999929
210
0
220
0
230
1
0
CIRCLE
5
148
100
AcDbEntity
8
0
100
AcDbCircle
10
-568.6338556294063
20
-510.81041608979285
30
0
40
2.0000000000000995
210
0
220
0
230
1
0
CIRCLE
5
149
100
AcDbEntity
8
0
100
AcDbCircle
10
-592.94201296252004
20
-448.37387214872086
30
0
40
2.0000000000000111
210
0
220
0
230
1
0
CIRCLE
5
150
100
AcDbEntity
8
0
100
AcDbCircle
10
-612.15521640556722
20
-881.24774428999103
30
0
40
1.9999999999998863
210
0
220
0
230
1
0
CIRCLE
5
151
100
AcDbEntity
8
0
100
AcDbCircle
10
-662.96282824487366
20
-570.76246292847156
30
0
40
1.9999999999999929
210
0
220
0
230
1
0
CIRCLE
5
152
100
AcDbEntity
8
0
100
AcDbCircle
10
-330.61537151922693
20
-37.320544806870473
30
0
40
1.9999999999999574
210
0
220
0
230
1
0
LWPOLYLINE
5
153
100
AcDbEntity
8
0
100
AcDbPolyline
90
20
70
1
43
0.0
10
-688.44201296997062
20
-835.74774428254045
10
-383.29482671235633
20
-835.74774428254045
42
0.19891236737965765
10
-362.78873006848323
20
-827.25384094131471
10
-247.93591632609724
20
-712.40102719892889
42
0.19891236737965776
10
-239.4420129848717
20
-691.89493055505568
10
-239.4420129848717
20
-204.85281374238582
42
0.19891236737965662
10
-247.93591632609747
20
-184.34671709851258
10
-362.78873006848312
20
-69.493903356126822
42
0.19891236737965892
10
-383.29482671235633
20
-61.000000014901104
10
-688.44201296997062
20
-61.000000014901175
42
0.41421356237309903
10
-697.44201295506957
20
-70
10
-697.44201295506957
20
-223.43145750507603
42
0.19891236737966378
10
-694.80597399011288
20
-229.7954185252182
10
-566.77296540112161
20
-357.82842711420938
42
-0.19891236737965282
10
-547.44201295506923
20
-404.49747468305793
10
-547.44201295506946
20
-492.25026961438346
42
-0.19891236737965187
10
-566.77296540112161
20
-538.91931718323224
10
-694.80597399011231
20
-666.95232577222305
42
0.19891236737963747
10
-697.44201295506923
20
-673.3162867923653
10
-697.44201295506969
20
-826.74774429744161
42
0.41421356237306733
0
LWPOLYLINE
5
154
100
AcDbEntity
8
0
100
AcDbPolyline
90
32
70
1
43
0.0
10
-490.31962193644148
20
-405.40337308511369
42
-0.41421356237308893
10
-483.56602456734976
20
-398.64977571602185
10
-471.50185074641655
20
-398.64977571602128
42
-0.41421356237309503
10
-470.42127516736173
20
-399.73035129507605
10
-470.42127516736002
20
-477.16258403807927
42
0.41421356237305651
10
-469.3406995883052
20
-478.2431596171341
10
-451.60350397733481
20
-478.24315961713421
42
0.41421356237307577
10
-450.5229283982797
20
-477.16258403807922
10
-450.52292839828078
20
-399.73035129507622
42
-0.41421356237299878
10
-449.44235281922687
20
-398.64977571602168
10
-377.68313869105123
20
-398.64977571602026
42
-0.41421356237308582
10
-370.92954132195922
20
-405.40337308511221
10
-370.92954132195894
20
-417.46754373083718
42
-0.41421356237292173
10
-372.0101169010141
20
-418.54811930989172
10
-389.74731251198392
20
-418.54811930989172
42
0.41421356237309503
10
-390.82788809103903
20
-419.62869488894682
10
-390.82788809103823
20
-477.16258403807853
42
0.41421356237294094
10
-389.74731251198392
20
-478.24315961713347
10
-372.01011690101234
20
-478.24315961713302
42
-0.41421356237305651
10
-370.92954132195763
20
-479.32373519618801
10
-370.9295413219578
20
-491.38790901712133
42
-0.41421356237309198
10
-377.68313869105009
20
-498.14150638621402
10
-409.64565928106452
20
-498.14150638621413
42
-0.41421356237301804
10
-410.72623486011929
20
-497.06093080715937
10
-410.7262348601202
20
-419.62869488894739
42
0.4142135623732684
10
-411.80681043917593
20
-418.54811930989229
10
-429.54400605014632
20
-418.54811930989285
42
0.41421356237315282
10
-430.62458162920109
20
-419.62869488894768
10
-430.62458162919967
20
-497.06093080715931
42
-0.41421356237309503
10
-431.70515720825478
20
-498.14150638621442
10
-483.56602456734862
20
-498.14150638621499
42
-0.41421356237309503
10
-490.31962193644085
20
-491.38790901712292
0
ENDSEC
0
SECTION
2
OBJECTS
0
DICTIONARY
5
C
100
AcDbDictionary
3
ACAD_GROUP
350
D
3
ACAD_MLINESTYLE
350
17
0
DICTIONARY
5
D
100
AcDbDictionary
0
DICTIONARY
5
1A
330
C
100
AcDbDictionary
0
DICTIONARY
5
17
100
AcDbDictionary
0
ENDSEC
0
EOF
