0
SECTION
2
HEADER
9
$INSUNITS
70
4
9
$ACADVER
1
AC1014
9
$HANDSEED
5
FFFF
0
ENDSEC
0
SECTION
2
TABLES
0
TABLE
2
VPORT
5
8
100
AcDbSymbolTable
0
ENDTAB
0
TABLE
2
LTYPE
5
5
100
AcDbSymbolTable
0
LTYPE
5
14
100
AcDbSymbolTableRecord
100
AcDbLinetypeTableRecord
2
BYBLOCK
70
0
0
LTYPE
5
15
100
AcDbSymbolTableRecord
100
AcDbLinetypeTableRecord
2
BYLAYER
70
0
0
ENDTAB
0
TABLE
2
LAYER
5
2
100
AcDbSymbolTable
70
2
0
LAYER
5
50
100
AcDbSymbolTableRecord
100
AcDbLayerTableRecord
2
0
70
0
6
CONTINUOUS
0
ENDTAB
0
TABLE
2
STYLE
5
3
100
AcDbSymbolTable
70
1
0
STYLE
5
11
100
AcDbSymbolTableRecord
100
AcDbTextStyleTableRecord
2
STANDARD
70
0
0
ENDTAB
0
TABLE
2
VIEW
5
6
100
AcDbSymbolTable
70
0
0
ENDTAB
0
TABLE
2
UCS
5
7
100
AcDbSymbolTable
70
0
0
ENDTAB
0
TABLE
2
APPID
5
9
100
AcDbSymbolTable
70
2
0
APPID
5
12
100
AcDbSymbolTableRecord
100
AcDbRegAppTableRecord
2
ACAD
70
0
0
ENDTAB
0
TABLE
2
DIMSTYLE
5
A
100
AcDbSymbolTable
70
1
0
ENDTAB
0
TABLE
2
BLOCK_RECORD
5
1
100
AcDbSymbolTable
70
1
0
BLOCK_RECORD
5
1F
100
AcDbSymbolTableRecord
100
AcDbBlockTableRecord
2
*MODEL_SPACE
0
BLOCK_RECORD
5
1B
100
AcDbSymbolTableRecord
100
AcDbBlockTableRecord
2
*PAPER_SPACE
0
ENDTAB
0
ENDSEC
0
SECTION
2
BLOCKS
0
BLOCK
5
20
100
AcDbEntity
100
AcDbBlockBegin
2
*MODEL_SPACE
0
ENDBLK
5
21
100
AcDbEntity
100
AcDbBlockEnd
0
BLOCK
5
1C
100
AcDbEntity
100
AcDbBlockBegin
2
*PAPER_SPACE
0
ENDBLK
5
1D
100
AcDbEntity
100
AcDbBlockEnd
0
ENDSEC
0
SECTION
2
ENTITIES
0
LWPOLYLINE
5
100
100
AcDbEntity
8
0
100
AcDbPolyline
90
282
70
1
43
0.0
10
-38.183318323805679
20
-108.99473159880571
10
-39.951085276772005
20
-107.22696464583939
42
-0.414213562373073
10
-39.951085276771934
20
-105.81275108346618
10
-35.796992744687003
20
-101.65865855138122
10
-60.349025836176928
20
-77.106625459891234
10
-64.503118368261951
20
-81.26071799197635
42
-0.41421356237305268
10
-65.917331930635072
20
-81.260717991976179
10
-67.685098883601412
20
-79.49295103900981
42
-0.41421356237308032
10
-67.685098883601341
20
-78.078737476636633
10
-63.531006351516403
20
-73.924644944551702
10
-88.083039443006314
20
-49.372611853061855
10
-92.237131975091401
20
-53.526704385146957
42
-0.41421356237305645
10
-93.651345537464451
20
-53.5267043851468
10
-95.419112490430805
20
-51.758937432180439
42
-0.41421356237309503
10
-95.419112490430734
20
-50.344723869807275
10
-91.265019958345789
20
-46.190631337722323
10
-115.81705304983586
20
-21.638598246232199
10
-119.97114558192089
20
-25.792690778317422
42
-0.41421356237306561
10
-121.38535914429406
20
-25.792690778317283
10
-123.15312609726044
20
-24.024923825350903
42
-0.41421356237308588
10
-123.15312609726028
20
-22.610710262977733
10
-118.99903356517534
20
-18.456617730892795
10
-126.7685687529127
20
-10.687082543155569
42
0.080555906711203981
10
-145.93797942780282
20
3.1326690744941543
10
-148.39064562849052
20
-2.1678561452799712
42
-0.41421356237308604
10
-149.71813910425101
20
-2.6554636429803602
10
-151.98701532107685
20
-1.605606170405208
42
-0.4142135623731556
10
-152.47462281877716
20
-0.2781126946445367
10
-150.02195661808938
20
5.0224125251294085
42
0.10106605656792235
10
-178.96365580619778
20
10.932830403559599
10
-183.94534470281803
20
10.93283040355959
10
-183.94534470281803
20
5.0580564053321364
42
-0.41421356237303225
10
-184.94534470281792
20
4.0580564053321924
10
-187.44534470281803
20
4.0580564053321879
42
-0.41421356237304952
10
-188.44534470281803
20
5.0580564053322599
10
-188.44534470281792
20
10.93283040355959
10
-219.51985027833922
20
10.932830403559585
10
-219.51985027833922
20
5.0580564053321284
42
-0.41421356237303225
10
-220.51985027833922
20
4.0580564053321844
10
-223.01985027833928
20
4.0580564053321577
42
-0.414213562373004
10
-224.01985027833919
20
5.0580564053322519
10
-224.01985027833919
20
10.93283040355958
10
-258.74166846015726
20
10.932830403559574
10
-258.74166846015726
20
5.0580564053321204
42
-0.41421356237304691
10
-259.74166846015737
20
4.0580564053321764
10
-262.24166846015743
20
4.0580564053321764
42
-0.4142135623730635
10
-263.24166846015726
20
5.0580564053322608
10
-263.24166846015737
20
10.932830403559572
10
-297.96348664197569
20
10.932830403559565
10
-297.96348664197569
20
5.0580564053321133
42
-0.41421356237303225
10
-298.96348664197546
20
4.0580564053321684
10
-301.46348664197552
20
4.0580564053321657
42
-0.41421356237308493
10
-302.46348664197563
20
5.0580564053322519
10
-302.46348664197546
20
10.932830403559565
10
-337.18530482379373
20
10.932830403559484
10
-337.18530482379373
20
5.0580564053321044
42
-0.41421356237299517
10
-338.18530482379373
20
4.0580564053321595
10
-340.68530482379373
20
4.0580564053321471
42
-0.41421356237304657
10
-341.68530482379367
20
5.0580564053322083
10
-341.68530482379373
20
10.932830403559484
10
-376.40712300561205
20
10.932830403559477
10
-376.40712300561205
20
5.0580564053320938
42
-0.41421356237302642
10
-377.40712300561194
20
4.0580564053321497
10
-379.90712300561205
20
4.0580564053321542
42
-0.41421356237310447
10
-380.90712300561211
20
5.0580564053322004
10
-380.90712300561194
20
10.932830403559477
10
-411.63988452724146
20
10.932830403559631
42
0.013509959869671316
10
-415.62665176451958
20
10.825088607862464
10
-415.13358561820837
20
5.0054644900329972
42
-0.41421356237301465
10
-416.04559340596779
20
3.9246121434719794
10
-418.53666857386804
20
3.7135564449699059
42
-0.41421356237310841
10
-419.61752092042906
20
4.6255642327293689
10
-420.11058706674021
20
10.44518835055872
42
0.11814014597563495
10
-452.42444912519971
20
-1.3575930797774438
10
-449.05056100386224
20
-6.1249841946471006
42
-0.41421356237314005
10
-449.28915515587647
20
-7.5189256678175918
10
-451.32982468735713
20
-8.9631098192630443
42
-0.41421356237306817
10
-452.7237661605277
20
-8.7245156672488697
10
-456.09765428186569
20
-3.9571245523775334
42
0.11814014597562775
10
-477.97568407019298
20
-30.506006698458059
10
-472.6513417174682
20
-32.906531142904186
42
-0.41421356237310086
10
-472.15072861673775
20
-34.2291749057432
10
-473.17826694437315
20
-36.508245985205107
42
-0.41421356237310308
10
-474.50091070721243
20
-37.00885908593559
10
-479.82525305994136
20
-34.608334641487588
42
0.098587862211496041
10
-485.45488452723657
20
-62.882169596440392
10
-485.45488452724157
20
-68.588349939718029
10
-479.58011052901452
20
-68.5883499397181
42
-0.41421356237311063
10
-478.58011052901441
20
-69.588349939718171
10
-478.58011052901452
20
-72.088349939718185
42
-0.41421356237303519
10
-479.58011052901452
20
-73.088349939718114
10
-485.45488452724157
20
-73.088349939718043
10
-485.45488452724157
20
-107.81016812153629
10
-479.58011052901452
20
-107.81016812153639
42
-0.41421356237311063
10
-478.58011052901441
20
-108.81016812153646
10
-478.58011052901463
20
-111.31016812153646
42
-0.4142135623730378
10
-479.58011052901452
20
-112.31016812153638
10
-485.45488452724157
20
-112.31016812153628
10
-485.45488452724157
20
-147.03198630335424
10
-479.58011052901452
20
-147.03198630335439
42
-0.41421356237313667
10
-478.58011052901441
20
-148.03198630335439
10
-478.58011052901463
20
-150.53198630335439
42
-0.41421356237301699
10
-479.58011052901452
20
-151.53198630335439
10
-485.45488452724157
20
-151.53198630335427
10
-485.45488452724157
20
-186.25380448517245
10
-479.58011052901441
20
-186.25380448517288
42
-0.41421356237309503
10
-478.58011052901429
20
-187.25380448517282
10
-478.58011052901418
20
-189.75380448517245
42
-0.41421356237311585
10
-479.58011052901441
20
-190.75380448517276
10
-485.45488452724157
20
-190.75380448517276
10
-485.45488452724157
20
-225.47562266699089
10
-479.58011052901441
20
-225.47562266699111
42
-0.41421356237313667
10
-478.58011052901429
20
-226.47562266699106
10
-478.58011052901418
20
-228.97562266699083
42
-0.41421356237313667
10
-479.58011052901441
20
-229.97562266699103
10
-485.45488452724157
20
-229.97562266699072
10
-485.45488452724157
20
-264.69744084880909
10
-479.58011052901441
20
-264.69744084880938
42
-0.41421356237311585
10
-478.58011052901429
20
-265.69744084880926
10
-478.58011052901418
20
-268.19744084880904
42
-0.41421356237312623
10
-479.58011052901441
20
-269.19744084880926
10
-485.45488452724157
20
-269.19744084880926
10
-485.45488452724157
20
-303.91925903062707
10
-479.58011052901441
20
-303.91925903062736
42
-0.41421356237309503
10
-478.58011052901429
20
-304.9192590306273
10
-478.58011052901418
20
-307.41925903062707
42
-0.41421356237313667
10
-479.58011052901441
20
-308.41925903062725
10
-485.45488452724157
20
-308.41925903062725
10
-485.45488452724157
20
-322.12653505570802
42
0.071292242755928673
10
-482.48379546594663
20
-342.85802096262807
10
-476.93100800682913
20
-341.04758164264928
42
-0.41421356237306883
10
-475.67028387663424
20
-341.68834264922214
10
-474.89532997210745
20
-344.06519907018236
42
-0.41421356237287782
10
-475.53609097868076
20
-345.32592320037702
10
-481.08887843779831
20
-347.13636252035622
42
0.11037957487504654
10
-463.83497158052683
20
-374.32162210899287
10
-462.23535822115764
20
-375.921235468362
10
-458.08126568907301
20
-371.76714293627708
42
-0.4142135623729773
10
-456.66705212669996
20
-371.76714293627685
10
-454.89928517373352
20
-373.53490988924301
42
-0.41421356237312451
10
-454.89928517373357
20
-374.9491234516164
10
-459.05337770581838
20
-379.10321598370115
10
-434.50134461432816
20
-403.65524907519153
10
-430.34725208224347
20
-399.50115654310684
42
-0.41421356237293316
10
-428.93303851987042
20
-399.50115654310645
10
-427.16527156690398
20
-401.2689234960726
42
-0.41421356237318335
10
-427.16527156690398
20
-402.68313705844605
10
-431.31936409898884
20
-406.83722959053085
10
-406.76733100749914
20
-431.38926268202084
10
-402.61323847541411
20
-427.23517014993598
42
-0.41421356237303619
10
-401.19902491304089
20
-427.23517014993558
10
-399.4312579600745
20
-429.00293710290208
42
-0.41421356237310974
10
-399.4312579600745
20
-430.41715066527524
10
-403.58535049215948
20
-434.57124319736039
10
-379.03331740066926
20
-459.12327628885038
10
-374.87922486858423
20
-454.96918375676557
42
-0.4142135623729773
10
-373.46501130621118
20
-454.96918375676512
10
-371.69724435324491
20
-456.73695070973162
42
-0.41421356237300672
10
-371.69724435324491
20
-458.15116427210478
10
-375.85133688533
20
-462.30525680418987
10
-353.50934390624911
20
-484.64724978327035
42
0.010584694290875229
10
-351.25343911677328
20
-486.80961207984018
10
-347.43502985464323
20
-482.39023544909981
42
-0.41421356237300699
10
-346.02456461079078
20
-482.28733843318565
10
-344.13286178608269
20
-483.9217987181089
42
-0.41421356237307927
10
-344.0299647701687
20
-485.33226396196164
10
-347.84837403229864
20
-489.75164059270179
42
0.11814014597570947
10
-316.82500917411181
20
-504.61912738439366
10
-315.77237241732644
20
-498.87429536286231
42
-0.4142135623731788
10
-314.60851679122919
20
-498.07090250653289
10
-312.14945618819547
20
-498.52148096874282
42
-0.414213562373136
10
-311.34606333186582
20
-499.68533659484052
10
-312.39870008865307
20
-505.4301686163808
42
0.037701685960551679
10
-301.31425685296449
20
-506.26716272997908
10
-277.71931722015222
20
-506.26716272998516
10
-277.71931722015222
20
-500.39238873175771
42
-0.41421356237313667
10
-276.71931722015222
20
-499.39238873175771
10
-274.21931722015211
20
-499.39238873175771
42
-0.41421356237292856
10
-273.21931722015228
20
-500.39238873175753
10
-273.21931722015216
20
-506.26716272998516
10
-238.49749903833427
20
-506.26716272998516
10
-238.49749903833427
20
-500.39238873175771
42
-0.41421356237307422
10
-237.49749903833418
20
-499.39238873175771
10
-234.99749903833433
20
-499.39238873175771
42
-0.41421356237299095
10
-233.99749903833424
20
-500.39238873175753
10
-233.99749903833438
20
-506.26716272998516
10
-199.275680856516
20
-506.26716272998516
10
-199.275680856516
20
-500.39238873175771
42
-0.41421356237307422
10
-198.27568085651592
20
-499.39238873175771
10
-195.77568085651606
20
-499.39238873175771
42
-0.4142135623730222
10
-194.775680856516
20
-500.39238873175753
10
-194.77568085651609
20
-506.26716272998516
10
-160.05386267469785
20
-506.26716272998527
10
-160.05386267469783
20
-500.39238873175827
42
-0.41421356237316265
10
-159.05386267469783
20
-499.39238873175839
10
-156.55386267469774
20
-499.39238873175839
42
-0.41421356237308982
10
-155.55386267469783
20
-500.39238873175833
10
-155.55386267469783
20
-506.2671627299855
10
-120.83204449287962
20
-506.26716272998527
10
-120.83204449287959
20
-500.39238873175827
42
-0.41421356237313667
10
-119.83204449287956
20
-499.39238873175839
10
-117.33204449287952
20
-499.39238873175844
42
-0.41421356237291296
10
-116.3320444928796
20
-500.39238873175827
10
-116.33204449287958
20
-506.26716272998527
10
-81.61022631106151
20
-506.26716272998527
10
-81.610226311061496
20
-500.39238873175827
42
-0.41421356237313667
10
-80.610226311061481
20
-499.39238873175839
10
-78.110226311061524
20
-499.39238873175844
42
-0.41421356237288953
10
-77.110226311061538
20
-500.39238873175827
10
-77.110226311061481
20
-506.26716272998527
10
-67.469890630757163
20
-506.26716272998527
42
0.085150834744409251
10
-42.868593584670691
20
-502.04692121545065
10
-44.9820695090473
20
-496.6022579003743
42
-0.4142135623731511
10
-44.411707023733371
20
-495.30816105880996
10
-42.081132865135615
20
-494.40349311349723
42
-0.41421356237301921
10
-40.787036023571453
20
-494.97385559881087
10
-38.673560099194766
20
-500.41851891388723
42
0.11814014597561727
10
-10.996884291279855
20
-479.98587476661606
10
-15.577771128003725
20
-476.36280771140082
42
-0.41421356237304274
10
-15.741768047717724
20
-474.95813514801682
10
-14.190923493129642
20
-472.99729829414434
42
-0.41421356237315377
10
-12.786250929745322
20
-472.83330137443039
10
-8.2053640930212701
20
-476.45636842964558
42
0.11814014597561603
10
5.3020906390210865
20
-444.81715230017642
10
-0.48300299750696496
20
-444.01476167582217
42
-0.4142135623731093
10
-1.3361362921213904
20
-442.8868593832363
10
-0.99267504465666578
20
-440.41056489923625
42
-0.41421356237319562
10
0.13522724792922491
20
-439.55743160462168
10
5.9203208844581487
20
-440.35982222897536
42
0.026839956520818883
10
6.3451093692426896
20
-432.45216272998567
10
6.3451093692429605
20
-405.65355654538229
10
0.47033537101550571
20
-405.653556545382
42
-0.41421356237318951
10
-0.52966462898447353
20
-404.65355654538206
10
-0.52966462898444777
20
-402.15355654538246
42
-0.41421356237307694
10
0.47033537101557554
20
-401.15355654538206
10
6.3451093692429597
20
-401.1535565453824
10
6.3451093692429517
20
-366.43173836356402
10
0.47033537101549683
20
-366.43173836356362
42
-0.41421356237315826
10
-0.52966462898448241
20
-365.43173836356391
10
-0.52966462898448508
20
-362.93173836356408
42
-0.41421356237310614
10
0.47033537101556666
20
-361.93173836356391
10
6.3451093692429508
20
-361.93173836356391
10
6.3451093692429428
20
-327.20992018174604
10
0.47033537101548795
20
-327.20992018174576
42
-0.41421356237318951
10
-0.5296646289844914
20
-326.20992018174582
10
-0.52966462898456124
20
-323.70992018174616
42
-0.41421356237312573
10
0.47033537101555778
20
-322.70992018174587
10
6.3451093692429419
20
-322.70992018174587
10
6.3451093692429339
20
-287.98810199992784
10
0.47033537101562117
20
-287.98810199992761
42
-0.41421356237302576
10
-0.52966462898435807
20
-286.98810199992761
10
-0.529664628984305
20
-284.48810199992795
42
-0.41421356237313134
10
0.47033537101569101
20
-283.48810199992772
10
6.345109369242933
20
-283.48810199992795
10
6.345109369242925
20
-248.7662838181096
10
0.47033537101561229
20
-248.76628381810932
42
-0.41421356237302576
10
-0.52966462898436695
20
-247.76628381810937
10
-0.52966462898439581
20
-245.26628381810966
42
-0.41421356237311402
10
0.47033537101568323
20
-244.26628381810943
10
6.3451093692429241
20
-244.26628381810943
10
6.3451093692429863
20
-209.54446563629162
10
0.4703353710156033
20
-209.54446563629125
42
-0.41421356237304058
10
-0.52966462898437583
20
-208.54446563629139
10
-0.52966462898441913
20
-206.04446563629165
42
-0.41421356237312845
10
0.47033537101567324
20
-205.04446563629145
10
6.3451093692429863
20
-205.04446563629145
10
6.3451093692429064
20
-174.37593477188116
42
0.013727539529471845
10
6.2338705549836337
20
-170.32503214711997
10
0.41467768541363803
20
-170.82316209422697
42
-0.41421356237303475
10
-0.66696784203702464
20
-169.91209516312597
10
-0.8801910874737795
20
-167.42120458993625
42
-0.41421356237307344
10
0.030875843627284905
20
-166.33955906248545
10
5.8500687131972695
20
-165.84142911537822
42
0.11814014597559115
10
-5.9808263864727458
20
-133.53784956502307
10
-10.745279883644123
20
-136.91588478845915
42
-0.41421356237306889
10
-12.13942844349118
20
-136.67850367489578
10
-13.585387751346067
20
-134.63909158313297
42
-0.4142135623730584
10
-13.348006637782852
20
-133.24494302328603
10
-8.5835531406132297
20
-129.86690779985142
42
0.034555203445940527
10
-15.274803577470838
20
-122.18084771859553
10
-32.615012229347514
20
-104.84063906672064
10
-36.76910476143253
20
-108.99473159880587
42
-0.41421356237305917
0
LWPOLYLINE
5
101
100
AcDbEntity
8
0
100
AcDbPolyline
90
12
70
1
43
0.0
10
-191.69996109946243
20
-222.05306361159745
42
0.41421356237308449
10
-195.64490261199091
20
-218.10812209906899
10
-211.28258912332089
20
-218.10812209906842
10
-211.28258912332089
20
-198.29010445952363
10
-187.66170951003136
20
-198.29010445952366
42
-0.41421356237310364
10
-171.88194345991764
20
-214.06987050963792
10
-171.88194345991718
20
-281.51803345669418
42
-0.41421356237309503
10
-187.66170951003133
20
-297.29779950680836
10
-211.28258912332089
20
-297.29779950680796
10
-211.28258912332089
20
-277.47978186726255
10
-195.64490261199097
20
-277.47978186726255
42
0.41421356237310031
10
-191.6999610994624
20
-273.53484035473406
0
LWPOLYLINE
5
102
100
AcDbEntity
8
0
100
AcDbPolyline
90
12
70
1
43
0.0
10
-234.02117035720227
20
-273.53484035473417
42
0.41421356237309243
10
-230.07622884467381
20
-277.4797818672626
10
-214.43854233334378
20
-277.47978186726255
10
-214.43854233334378
20
-297.29779950680796
10
-238.05942194663328
20
-297.29779950680802
42
-0.41421356237309309
10
-253.83918799674703
20
-281.51803345669424
10
-253.83918799674748
20
-214.06987050963792
42
-0.41421356237309503
10
-238.05942194663328
20
-198.29010445952377
10
-214.4385423333438
20
-198.29010445952363
10
-214.4385423333438
20
-218.10812209906842
10
-230.07622884467384
20
-218.10812209906845
42
0.41421356237308976
10
-234.02117035720283
20
-222.05306361159745
0
LWPOLYLINE
5
103
100
AcDbEntity
8
0
100
AcDbPolyline
90
13
70
1
43
0.0
10
-268.15514093267313
20
-272.1298942321921
10
-268.15514093267313
20
-280.01977725724896
10
-279.6764141940053
20
-283.25859005065041
42
0.24620758484912886
10
-289.88369026124582
20
-292.89920007727983
10
-291.39586848651726
20
-297.29779950680853
10
-303.01450948372747
20
-297.29779950680853
42
-0.41421356237308976
10
-306.95945099625646
20
-293.35285799427953
10
-306.95945099625601
20
-202.23504597205209
42
-0.41421356237308449
10
-303.01450948372747
20
-198.2901044595236
10
-291.25175255914252
20
-198.29010445952363
42
-0.41421356237312146
10
-287.30681104661431
20
-202.23504597205149
10
-287.3068110466146
20
-268.18495271966373
10
-272.10008244520162
20
-268.18495271966367
42
-0.41421356237310564
0
CIRCLE
5
104
100
AcDbEntity
8
0
100
AcDbCircle
10
-167.36260755405002
20
-34.874761568360796
30
0
40
1.9999999999999574
210
0
220
0
230
1
0
CIRCLE
5
105
100
AcDbEntity
8
0
100
AcDbCircle
10
-441.95488452724163
20
-192.5043523260743
30
5.5511151231257827e-16
40
2.0000000000000284
210
0
220
0
230
1
0
CIRCLE
5
106
100
AcDbEntity
8
0
100
AcDbCircle
10
-46.033947568376476
20
-453.88810618815916
30
0
40
2.0000000000000284
210
0
220
0
230
1
0
CIRCLE
5
107
100
AcDbEntity
8
0
100
AcDbCircle
10
-39.462482602677326
20
-162.77488651973343
30
0
40
1.9999999999998863
210
0
220
0
230
1
0
CIRCLE
5
108
100
AcDbEntity
8
0
100
AcDbCircle
10
-295.30177016671962
20
-32.56716959644038
30
0
40
2.0000000000000284
210
0
220
0
230
1
0
CIRCLE
5
109
100
AcDbEntity
8
0
100
AcDbCircle
10
-312.91530510511228
20
-460.45957075806479
30
0
40
2.0000000000000639
210
0
220
0
230
1
0
CIRCLE
5
110
100
AcDbEntity
8
0
100
AcDbCircle
10
-184.39207199264985
20
-462.7671627299851
30
0
40
1.9999999999999929
210
0
220
0
230
1
0
CIRCLE
5
111
100
AcDbEntity
8
0
100
AcDbCircle
10
-433.46422235536397
20
-41.057831768318174
30
0
40
2.0000000000000284
210
0
220
0
230
1
0
CIRCLE
5
112
100
AcDbEntity
8
0
100
AcDbCircle
10
-439.75486172848292
20
-333.77213991827256
30
0
40
2.0000000000000995
210
0
220
0
230
1
0
CIRCLE
5
113
100
AcDbEntity
8
0
100
AcDbCircle
10
-237.13271298645876
20
-4.5671695964403929
30
0
40
1.99999999999994
210
0
220
0
230
1
0
CIRCLE
5
114
100
AcDbEntity
8
0
100
AcDbCircle
10
-465.51591946563752
20
-344.442719414078
30
0
40
1.9999999999999574
210
0
220
0
230
1
0
CIRCLE
5
115
100
AcDbEntity
8
0
100
AcDbCircle
10
-9.1548906307570377
20
-303.4140487509332
30
0
40
2.0000000000000995
210
0
220
0
230
1
0
CIRCLE
5
116
100
AcDbEntity
8
0
100
AcDbCircle
10
-295.30177016671962
20
-4.5671695964404062
30
0
40
2.0000000000000284
210
0
220
0
230
1
0
CIRCLE
5
117
100
AcDbEntity
8
0
100
AcDbCircle
10
-469.95488452724152
20
-257.31544369089102
30
0
40
2.0000000000000995
210
0
220
0
230
1
0
CIRCLE
5
118
100
AcDbEntity
8
0
100
AcDbCircle
10
-9.154890630757075
20
-432.45216272998533
30
0
40
2.0000000000000462
210
0
220
0
230
1
0
CIRCLE
5
119
100
AcDbEntity
8
0
100
AcDbCircle
10
-67.469890630757135
20
-490.76716272998522
30
0
40
2.0000000000000018
210
0
220
0
230
1
0
CIRCLE
5
120
100
AcDbEntity
8
0
100
AcDbCircle
10
-397.71200263499679
20
-418.52428083774015
30
5.5511151231257827e-16
40
1.9999999999999929
210
0
220
0
230
1
0
CIRCLE
5
121
100
AcDbEntity
8
0
100
AcDbCircle
10
-9.1548906307570519
20
-238.89499176140717
30
0
40
1.9999999999998863
210
0
220
0
230
1
0
CIRCLE
5
122
100
AcDbEntity
8
0
100
AcDbCircle
10
-37.154890630757066
20
-303.41405078001236
30
0
40
1.9999999999998863
210
0
220
0
230
1
0
CIRCLE
5
123
100
AcDbEntity
8
0
100
AcDbCircle
10
-370.30737241172403
20
-446.28246445160596
30
5.5511151231257827e-16
40
1.9999999999999929
210
0
220
0
230
1
0
CIRCLE
5
124
100
AcDbEntity
8
0
100
AcDbCircle
10
-469.95488452724152
20
-192.5043523260743
30
5.5511151231257827e-16
40
1.9999999999998863
210
0
220
0
230
1
0
CIRCLE
5
125
100
AcDbEntity
8
0
100
AcDbCircle
10
-125.93098218630897
20
-490.76716272998522
30
0
40
2.0000000000000773
210
0
220
0
230
1
0
CIRCLE
5
126
100
AcDbEntity
8
0
100
AcDbCircle
10
-425.29340955356599
20
-390.94287391917078
30
0
40
1.9999999999998863
210
0
220
0
230
1
0
CIRCLE
5
127
100
AcDbEntity
8
0
100
AcDbCircle
10
-469.9548845272418
20
-127.69326096125738
30
0
40
2.0000000000000284
210
0
220
0
230
1
0
CIRCLE
5
128
100
AcDbEntity
8
0
100
AcDbCircle
10
-13.593855692361277
20
-152.0597504135111
30
0
40
1.9999999999999574
210
0
220
0
230
1
0
CIRCLE
5
129
100
AcDbEntity
8
0
100
AcDbCircle
10
-156.64747144782757
20
-9.0061346580447257
30
0
40
1.9999999999999665
210
0
220
0
230
1
0
CIRCLE
5
130
100
AcDbEntity
8
0
100
AcDbCircle
10
-109.85528256744402
20
-49.520678945407219
30
0
40
1.99999999999996
210
0
220
0
230
1
0
CIRCLE
5
131
100
AcDbEntity
8
0
100
AcDbCircle
10
-242.85316529741266
20
-490.76716272998522
30
5.5511151231257827e-16
40
2.0000000000000284
210
0
220
0
230
1
0
CIRCLE
5
132
100
AcDbEntity
8
0
100
AcDbCircle
10
-323.72730219112725
20
-486.42886531735945
30
0
40
2.0000000000000284
210
0
220
0
230
1
0
CIRCLE
5
133
100
AcDbEntity
8
0
100
AcDbCircle
10
-26.234958685863567
20
-473.68709467487918
30
0
40
2.0000000000000551
210
0
220
0
230
1
0
CIRCLE
5
134
100
AcDbEntity
8
0
100
AcDbCircle
10
-353.47082734698057
20
-4.5671695964402765
30
0
40
2.0000000000000284
210
0
220
0
230
1
0
CIRCLE
5
135
100
AcDbEntity
8
0
100
AcDbCircle
10
-452.87481647213519
20
-21.64723765154687
30
0
40
2.0000000000000284
210
0
220
0
230
1
0
CIRCLE
5
136
100
AcDbEntity
8
0
100
AcDbCircle
10
-81.981841273583797
20
-77.394120239267323
30
0
40
1.9999999999999729
210
0
220
0
230
1
0
CIRCLE
5
137
100
AcDbEntity
8
0
100
AcDbCircle
10
-54.108399979723565
20
-105.26756153312763
30
0
40
2.0000000000000018
210
0
220
0
230
1
0
CIRCLE
5
138
100
AcDbEntity
8
0
100
AcDbCircle
10
-184.3920737418608
20
-490.76716272998522
30
5.5511151231257827e-16
40
1.9999999999999929
210
0
220
0
230
1
0
CIRCLE
5
139
100
AcDbEntity
8
0
100
AcDbCircle
10
-469.9548845272418
20
-62.882169596440427
30
0
40
2.0000000000000284
210
0
220
0
230
1
0
CIRCLE
5
140
100
AcDbEntity
8
0
100
AcDbCircle
10
-411.63988452724163
20
-4.5671695964402907
30
0
40
2.0000000000000284
210
0
220
0
230
1
0
CIRCLE
5
141
100
AcDbEntity
8
0
100
AcDbCircle
10
-9.1548906307570181
20
-367.93310574045915
30
0
40
2.0000000000000995
210
0
220
0
230
1
0
ENDSEC
0
SECTION
2
OBJECTS
0
DICTIONARY
5
C
100
AcDbDictionary
3
ACAD_GROUP
350
D
3
ACAD_MLINESTYLE
350
17
0
DICTIONARY
5
D
100
AcDbDictionary
0
DICTIONARY
5
1A
330
C
100
AcDbDictionary
0
DICTIONARY
5
17
100
AcDbDictionary
0
ENDSEC
0
EOF
