0
SECTION
2
HEADER
9
$INSUNITS
70
4
9
$ACADVER
1
AC1014
9
$HANDSEED
5
FFFF
0
ENDSEC
0
SECTION
2
TABLES
0
TABLE
2
VPORT
5
8
100
AcDbSymbolTable
0
ENDTAB
0
TABLE
2
LTYPE
5
5
100
AcDbSymbolTable
0
LTYPE
5
14
100
AcDbSymbolTableRecord
100
AcDbLinetypeTableRecord
2
BYBLOCK
70
0
0
LTYPE
5
15
100
AcDbSymbolTableRecord
100
AcDbLinetypeTableRecord
2
BYLAYER
70
0
0
ENDTAB
0
TABLE
2
LAYER
5
2
100
AcDbSymbolTable
70
2
0
LAYER
5
50
100
AcDbSymbolTableRecord
100
AcDbLayerTableRecord
2
0
70
0
6
CONTINUOUS
0
ENDTAB
0
TABLE
2
STYLE
5
3
100
AcDbSymbolTable
70
1
0
STYLE
5
11
100
AcDbSymbolTableRecord
100
AcDbTextStyleTableRecord
2
STANDARD
70
0
0
ENDTAB
0
TABLE
2
VIEW
5
6
100
AcDbSymbolTable
70
0
0
ENDTAB
0
TABLE
2
UCS
5
7
100
AcDbSymbolTable
70
0
0
ENDTAB
0
TABLE
2
APPID
5
9
100
AcDbSymbolTable
70
2
0
APPID
5
12
100
AcDbSymbolTableRecord
100
AcDbRegAppTableRecord
2
ACAD
70
0
0
ENDTAB
0
TABLE
2
DIMSTYLE
5
A
100
AcDbSymbolTable
70
1
0
ENDTAB
0
TABLE
2
BLOCK_RECORD
5
1
100
AcDbSymbolTable
70
1
0
BLOCK_RECORD
5
1F
100
AcDbSymbolTableRecord
100
AcDbBlockTableRecord
2
*MODEL_SPACE
0
BLOCK_RECORD
5
1B
100
AcDbSymbolTableRecord
100
AcDbBlockTableRecord
2
*PAPER_SPACE
0
ENDTAB
0
ENDSEC
0
SECTION
2
BLOCKS
0
BLOCK
5
20
100
AcDbEntity
100
AcDbBlockBegin
2
*MODEL_SPACE
0
ENDBLK
5
21
100
AcDbEntity
100
AcDbBlockEnd
0
BLOCK
5
1C
100
AcDbEntity
100
AcDbBlockBegin
2
*PAPER_SPACE
0
ENDBLK
5
1D
100
AcDbEntity
100
AcDbBlockEnd
0
ENDSEC
0
SECTION
2
ENTITIES
0
LWPOLYLINE
5
100
100
AcDbEntity
8
0
100
AcDbPolyline
90
14
70
1
43
0.0
10
-135.80334315412398
20
31.699755108608869
42
0.41421356237310042
10
-119.85306865390392
20
47.650029608828682
10
-119.85306865390413
20
88.134155153868576
42
0.41421356237309681
10
-125.93317845399241
20
94.214264953956857
10
-132.9674041750927
20
94.214264953956771
10
-132.96740417509341
20
50.249172979863779
42
-0.41421356237304002
10
-138.40248652515868
20
44.814090629797583
10
-163.81816062799811
20
44.814090629798073
42
-0.41421356237309553
10
-169.25324297806395
20
50.249172979863779
10
-169.25324297806395
20
94.214264953956771
10
-176.28746869916472
20
94.214264953956771
42
0.41421356237308904
10
-182.36757849925289
20
88.134155153868576
10
-182.3675784992524
20
47.650029608828682
42
0.41421356237309997
10
-166.4173039990327
20
31.699755108609232
0
LWPOLYLINE
5
101
100
AcDbEntity
8
0
100
AcDbPolyline
90
22
70
1
43
0.0
10
-55.888526306317637
20
55.050891600643439
10
-73.649850363299976
20
76.218013354782684
42
0.4663076581556494
10
-74.900068539168458
20
76.218013354782443
10
-92.661392596150321
20
55.050891600644221
42
-0.70020757379661702
10
-95.86856808722159
20
56.218208188922318
10
-95.868564457972951
20
94.214264953956771
10
-102.9027941536846
20
94.214264953956771
42
0.41421356237309587
10
-108.98290395377281
20
88.134155153868576
10
-108.98290395377273
20
37.779864908697782
42
0.4142135623731526
10
-102.9027941536846
20
31.69975510860845
10
-95.982239550841086
20
31.699755108608866
42
0.22169466264243212
10
-95.357130462906298
20
31.991248263495287
10
-75.666112982286506
20
55.458089087857523
42
-0.46630765815498421
10
-72.88380592018072
20
55.458089087856244
10
-53.19278843956198
20
31.991248263494683
42
0.22169466264297086
10
-52.567679351627426
20
31.69975510860845
10
-45.647124748783483
20
31.699755108607942
42
0.41421356237309481
10
-39.567014948694847
20
37.779864908696581
10
-39.567014948695494
20
88.134155153868576
42
0.4142135623730942
10
-45.647124748783476
20
94.214264953956572
10
-52.681354444495554
20
94.214264953956771
10
-52.68135081524661
20
56.218208188922603
42
-0.70020757379670762
0
LWPOLYLINE
5
102
100
AcDbEntity
8
0
100
AcDbPolyline
90
14
70
1
43
0.0
10
-206.35207872057251
20
46.630112589815475
42
-0.41421356237309076
10
-208.16810068059041
20
44.814090629797583
10
-249.34401900267787
20
44.814090629797583
10
-249.3440190026779
20
41.069919808740565
42
0.41421358523750423
10
-239.97385357107433
20
31.699755108609274
10
-209.18801769960325
20
31.699755108608869
42
0.41421356237309392
10
-193.23774319938343
20
47.650029608828682
10
-193.23774319938408
20
78.263990453737321
42
0.41421356237310825
10
-209.18801769960385
20
94.214264953956487
10
-239.97385353204174
20
94.214264953956786
42
0.41421356237309725
10
-249.34401823217343
20
84.844100253825019
10
-249.34401900267787
20
81.099929432768491
10
-208.16810068059041
20
81.099929432768988
42
-0.41421356237301199
10
-206.35207872057251
20
79.283907472750528
0
LWPOLYLINE
5
103
100
AcDbEntity
8
0
100
AcDbPolyline
90
6
70
1
43
0.0
10
-156.93973960905538
20
63.072739551046851
10
-145.28090686001659
20
63.072739551048187
42
0.51203900383886725
10
-141.07395515862748
20
68.911927607262712
10
-147.63599485145392
20
88.572971593781503
42
0.72046860982867
10
-154.58465161761725
20
88.572971593781418
10
-161.14669131044494
20
68.911927607262967
42
0.51203900383895984
0
LWPOLYLINE
5
104
100
AcDbEntity
8
0
100
AcDbPolyline
90
16
70
1
43
0.0
10
-266.29429279094086
20
94.214264953956246
10
-273.32851845349342
20
94.214264953956771
10
-273.32851845349342
20
69.514177791877785
10
-307.17807160298253
20
69.514177791877714
10
-307.17807160298253
20
94.214264953956643
10
-314.21229732408267
20
94.214264953956658
42
0.41421356237309764
10
-320.29240712417078
20
88.134155153868505
10
-320.29240712417044
20
37.779864908696439
42
0.41421356237310275
10
-314.21229732408267
20
31.699755108608741
10
-307.17807160298253
20
31.699755108608656
10
-307.17807160298253
20
56.399842270687159
10
-273.32851845349342
20
56.399842270687301
10
-273.32851845349342
20
31.699755108608869
10
-266.29429273239327
20
31.699755108608869
42
0.41421356237309848
10
-260.21418293230562
20
37.779864908696581
10
-260.21418370280963
20
88.134155153868576
42
0.41421352807647793
0
LWPOLYLINE
5
105
100
AcDbEntity
8
0
100
AcDbPolyline
90
16
70
1
43
0.0
10
-368.52745297430653
20
31.699755108608731
10
-361.22638108228489
20
31.699755108608713
42
0.41421356237309914
10
-355.14627128219706
20
37.779864908696439
10
-355.14627128219672
20
88.134155153868505
42
0.41421356237308904
10
-361.22638108228438
20
94.21426495395616
10
-368.26060680338492
20
94.214264953956643
10
-368.26060680338566
20
55.986999009045846
42
-0.70020753820973547
10
-371.46778229445653
20
54.819682594228141
10
-404.52376182288725
20
94.214264953956643
10
-411.82483371491054
20
94.214264953956643
42
0.41421356237309165
10
-417.90494351499859
20
88.134155153868505
10
-417.90494351499819
20
37.779864908696439
42
0.41421356237308904
10
-411.82483371491054
20
31.69975510860877
10
-404.79060799380977
20
31.699755108608656
10
-404.7906079938104
20
69.927021053519951
42
-0.70020753820981985
10
-401.58343250273839
20
71.094337468337656
0
LWPOLYLINE
5
106
100
AcDbEntity
8
0
100
AcDbPolyline
90
5
70
1
43
0.0
10
-483.06937749204445
20
63.149457472346242
42
0.41421356237310275
10
-476.9892676919568
20
57.069347672258566
10
-454.83286960417377
20
57.069347672258608
10
-454.83286960417377
20
68.419391437328798
10
-483.06937749204445
20
68.419391437328798
0
LWPOLYLINE
5
107
100
AcDbEntity
8
0
100
AcDbPolyline
90
14
70
1
43
0.0
10
-434.8552180152177
20
31.699755108607839
42
0.41421356237309681
10
-428.77510821512891
20
37.779864908696439
10
-428.77510821513044
20
88.134155153868505
42
0.41421356237310614
10
-434.85521801521764
20
94.214264953955649
10
-480.61705794634179
20
94.214264953956587
42
0.41421356237310192
10
-486.69716774642978
20
88.134155153868448
10
-486.69716774643001
20
81.099929432768349
10
-443.70546569633518
20
81.099929432769272
42
-0.41421356237281859
10
-441.88944373631773
20
79.283907472750371
10
-441.88944373631773
20
46.63011258981534
42
-0.41421356237310941
10
-443.70546569633575
20
44.814090629797505
10
-486.69716774643001
20
44.814090629797505
10
-486.69716774642995
20
37.779864908696439
42
0.41421356237308904
10
-480.6170579463423
20
31.69975510860877
0
LWPOLYLINE
5
108
100
AcDbEntity
8
0
100
AcDbPolyline
90
6
70
1
43
0.0
10
-338.19679754540283
20
31.69975510860877
10
-331.16257182430212
20
31.699755108608727
10
-331.16257182430269
20
88.134155153868505
42
0.41421356237310275
10
-337.24268162438983
20
94.214264953955649
10
-344.27690734549054
20
94.214264953956643
10
-344.27690734549049
20
37.779864908696439
42
0.41421356237308904
0
LINE
5
109
100
AcDbEntity
8
0
100
AcDbLine
10
-454.83286960417377
20
57.069347672258608
30
0
11
-476.9892676919568
21
57.069347672258566
31
0
0
ENDSEC
0
SECTION
2
OBJECTS
0
DICTIONARY
5
C
100
AcDbDictionary
3
ACAD_GROUP
350
D
3
ACAD_MLINESTYLE
350
17
0
DICTIONARY
5
D
100
AcDbDictionary
0
DICTIONARY
5
1A
330
C
100
AcDbDictionary
0
DICTIONARY
5
17
100
AcDbDictionary
0
ENDSEC
0
EOF
