0
SECTION
2
HEADER
9
$INSUNITS
70
4
9
$ACADVER
1
AC1014
9
$HANDSEED
5
FFFF
0
ENDSEC
0
SECTION
2
TABLES
0
TABLE
2
VPORT
5
8
100
AcDbSymbolTable
0
ENDTAB
0
TABLE
2
LTYPE
5
5
100
AcDbSymbolTable
0
LTYPE
5
14
100
AcDbSymbolTableRecord
100
AcDbLinetypeTableRecord
2
BYBLOCK
70
0
0
LTYPE
5
15
100
AcDbSymbolTableRecord
100
AcDbLinetypeTableRecord
2
BYLAYER
70
0
0
ENDTAB
0
TABLE
2
LAYER
5
2
100
AcDbSymbolTable
70
2
0
LAYER
5
50
100
AcDbSymbolTableRecord
100
AcDbLayerTableRecord
2
0
70
0
6
CONTINUOUS
0
ENDTAB
0
TABLE
2
STYLE
5
3
100
AcDbSymbolTable
70
1
0
STYLE
5
11
100
AcDbSymbolTableRecord
100
AcDbTextStyleTableRecord
2
STANDARD
70
0
0
ENDTAB
0
TABLE
2
VIEW
5
6
100
AcDbSymbolTable
70
0
0
ENDTAB
0
TABLE
2
UCS
5
7
100
AcDbSymbolTable
70
0
0
ENDTAB
0
TABLE
2
APPID
5
9
100
AcDbSymbolTable
70
2
0
APPID
5
12
100
AcDbSymbolTableRecord
100
AcDbRegAppTableRecord
2
ACAD
70
0
0
ENDTAB
0
TABLE
2
DIMSTYLE
5
A
100
AcDbSymbolTable
70
1
0
ENDTAB
0
TABLE
2
BLOCK_RECORD
5
1
100
AcDbSymbolTable
70
1
0
BLOCK_RECORD
5
1F
100
AcDbSymbolTableRecord
100
AcDbBlockTableRecord
2
*MODEL_SPACE
0
BLOCK_RECORD
5
1B
100
AcDbSymbolTableRecord
100
AcDbBlockTableRecord
2
*PAPER_SPACE
0
ENDTAB
0
ENDSEC
0
SECTION
2
BLOCKS
0
BLOCK
5
20
100
AcDbEntity
100
AcDbBlockBegin
2
*MODEL_SPACE
0
ENDBLK
5
21
100
AcDbEntity
100
AcDbBlockEnd
0
BLOCK
5
1C
100
AcDbEntity
100
AcDbBlockBegin
2
*PAPER_SPACE
0
ENDBLK
5
1D
100
AcDbEntity
100
AcDbBlockEnd
0
ENDSEC
0
SECTION
2
ENTITIES
0
LWPOLYLINE
5
100
100
AcDbEntity
8
0
100
AcDbPolyline
90
12
70
1
43
0.0
10
81.490387743578125
20
478.27139656098575
42
-0.4142135623730982
10
62.462093630670317
20
459.24310244807856
10
33.978461930439252
20
459.24310244807856
10
33.978461930439252
20
483.14098960194656
10
52.835427061483529
20
483.14098960194656
42
0.41421356237309342
10
57.592500589710198
20
487.89806313017323
10
57.592500589710468
20
549.9782223804666
42
0.41421356237309392
10
52.835427061483529
20
554.73529590869362
10
33.978461930439252
20
554.73529590869418
10
33.978461930439252
20
578.63318306256167
10
62.462093630670317
20
578.63318306256235
42
-0.41421356237310392
10
81.490387743578111
20
559.60488894965374
0
LWPOLYLINE
5
101
100
AcDbEntity
8
0
100
AcDbPolyline
90
13
70
1
43
0.0
10
-76.63800441108981
20
578.63318306256167
10
-62.453687759701339
20
578.6331830625611
42
-0.41421356237310158
10
-57.696614231475223
20
573.87610953433523
10
-57.696614231475223
20
494.34931437609379
10
-39.359326884888745
20
494.3493143760935
42
-0.41421356237308876
10
-34.602253356661791
20
489.59224084786661
10
-34.602253356661791
20
480.07809379141293
10
-48.495372904541597
20
476.1725173580387
42
0.24620758484913394
10
-60.803987017213714
20
464.54722694296152
10
-62.62747235471592
20
459.24310244807833
10
-76.63800441108981
20
459.24310244807833
42
-0.41421356237309453
10
-81.395077939316764
20
464.00017597630585
10
-81.395077939316792
20
573.876109534335
42
-0.41421356237308793
0
LWPOLYLINE
5
102
100
AcDbEntity
8
0
100
AcDbPolyline
90
12
70
1
43
0.0
10
97.057308851967505
20
328.40591874742694
10
311.91012259435308
20
543.25873248981247
42
0.19891236737966192
10
320.40402593994321
20
563.76482914422252
10
320.4040259399431
20
709.51201540183661
42
0.41421356237310197
10
311.40402593994321
20
718.51201540183649
10
-75.147186257616625
20
718.51201540183683
42
0.19891236737965534
10
-95.653282912026583
20
710.01811205624665
10
-310.50609665441209
20
495.16529831386083
42
0.19891236737965776
10
-319.00000000000227
20
474.65920165945084
10
-319.00000000000227
20
328.91201540183658
42
0.41421356237310081
10
-310.00000000000227
20
319.9120154018367
10
76.551212197557263
20
319.91201540183653
42
0.19891236737966228
0
LWPOLYLINE
5
103
100
AcDbEntity
8
0
100
AcDbPolyline
90
252
70
1
43
0.0
10
-322.65279480078215
20
267.05667752620963
10
-320.19407267973315
20
266.60425567498612
42
-0.41421356237304013
10
-319.39155257180306
20
265.4397980860773
10
-320.44841627528854
20
259.69618919613202
42
0.037473268716174936
10
-310.00000000000239
20
258.91201540183681
10
-270.57107255691926
20
258.91201540183653
10
-270.57107255691926
20
264.78822004716562
42
-0.41421356237310542
10
-269.57107255691926
20
265.78822004716551
10
-267.07107255691926
20
265.78822004716528
42
-0.41421356237312623
10
-266.0710725569196
20
264.78822004716562
10
-266.07107255691938
20
258.91201540183653
10
-216.15414947999625
20
258.91201540183653
10
-216.15414947999625
20
264.78822004716562
42
-0.41421356237313667
10
-215.15414947999628
20
265.78822004716551
10
-212.65414947999628
20
265.78822004716534
42
-0.41421356237309503
10
-211.65414947999614
20
264.78822004716562
10
-211.65414947999625
20
258.91201540183653
10
-161.73722640307321
20
258.91201540183653
10
-161.73722640307321
20
264.78822004716562
42
-0.41421356237312623
10
-160.73722640307327
20
265.78822004716551
10
-158.23722640307327
20
265.78822004716528
42
-0.41421356237309503
10
-157.23722640307346
20
264.78822004716568
10
-157.23722640307324
20
258.91201540183653
10
-107.32030332615011
20
258.91201540183653
10
-107.32030332615014
20
264.78822004716562
42
-0.41421356237312623
10
-106.32030332615014
20
265.78822004716551
10
-103.82030332615014
20
265.78822004716528
42
-0.41421356237310542
10
-102.82030332615037
20
264.78822004716562
10
-102.8203033261501
20
258.91201540183653
10
-52.903380249227041
20
258.91201540183653
10
-52.903380249227041
20
264.78822004716562
42
-0.41421356237312362
10
-51.903380249227034
20
265.78822004716551
10
-49.403380249227027
20
265.78822004716523
42
-0.41421356237309503
10
-48.403380249227254
20
264.78822004716562
10
-48.403380249227027
20
258.91201540183653
10
1.5135428276960017
20
258.91201540183653
10
1.5135428276959932
20
264.78822004716562
42
-0.41421356237312351
10
2.5135428276959981
20
265.78822004716551
10
5.013542827696007
20
265.78822004716523
42
-0.4142135623730957
10
6.0135428276957814
20
264.78822004716562
10
6.0135428276960035
20
258.91201540183653
10
55.930465904619062
20
258.91201540183653
10
55.930465904619062
20
264.78822004716562
42
-0.41421356237312362
10
56.930465904619069
20
265.78822004716551
10
59.430465904619076
20
265.78822004716528
42
-0.41421356237309503
10
60.430465904618856
20
264.78822004716562
10
60.430465904619062
20
258.91201540183653
10
76.551212197557248
20
258.91201540183658
42
0.094154374655099321
10
109.55848521886517
20
265.18316775840583
10
107.27837410275015
20
270.56843260065085
42
-0.41421356237311141
10
107.80934430981688
20
271.87918453721517
10
110.11149698935598
20
272.85391169908735
42
-0.41421356237315993
10
111.42224892592054
20
272.32294149202062
10
113.70236004203559
20
266.93767664977514
42
0.090214171505769561
10
140.19082250434673
20
285.27240509504747
10
152.58447055120101
20
297.66605314190173
10
148.4293663988453
20
301.8211572942576
42
-0.41421356237309137
10
148.42936639884542
20
303.23537085663054
10
150.1971333518116
20
305.00313780959721
42
-0.41421356237304352
10
151.61134691418494
20
305.00313780959732
10
155.76645106654053
20
300.84803365724127
10
191.06304587019997
20
336.14462846090078
10
186.90794171784458
20
340.29973261325637
42
-0.41421356237312451
10
186.90794171784458
20
341.71394617562925
10
188.67570867081076
20
343.48171312859591
42
-0.41421356237302148
10
190.08992223318415
20
343.48171312859608
10
194.24502638553946
20
339.32660897624032
10
229.54162118919922
20
374.62320377989982
10
225.38651703684363
20
378.7783079322557
42
-0.41421356237299944
10
225.38651703684366
20
380.19252149462852
10
227.1542839898099
20
381.96028844759519
42
-0.41421356237299201
10
228.56849755218326
20
381.9602884475953
10
232.72360170453865
20
377.80518429523943
10
268.02019650819807
20
413.10177909889887
10
263.86509235584265
20
417.25688325125452
42
-0.41421356237312451
10
263.86509235584265
20
418.6710968136274
10
265.63285930880886
20
420.43886376659401
42
-0.41421356237299201
10
267.04707287118231
20
420.43886376659407
10
271.20217702353762
20
416.28375961423814
10
306.49877182719729
20
451.58035441789792
10
302.3436676748417
20
455.73545857025385
42
-0.41421356237313184
10
302.3436676748417
20
457.14967213262668
10
304.11143462780797
20
458.91743908559334
42
-0.41421356237296997
10
305.52564819018141
20
458.91743908559334
10
309.68075234253672
20
454.76233493323753
10
344.97734714619628
20
490.05892973689697
10
340.82224299384075
20
494.21403388925256
42
-0.41421356237312451
10
340.82224299384075
20
495.62824745162544
10
342.5900099468069
20
497.39601440459211
42
-0.41421356237296264
10
344.00422350918035
20
497.39601440459228
10
348.15932766153571
20
493.24091025223623
10
355.04363624673249
20
500.12521883743312
42
0.11207914732169395
10
376.28357031461638
20
533.8405422396379
10
370.72132802492445
20
535.64648931354895
42
-0.41421356237311485
10
370.07901494659217
20
536.90642340285785
10
370.85104121031299
20
539.28423236240974
42
-0.41421356237329249
10
372.11097529962251
20
539.92654544074253
10
377.67321758931422
20
538.12059836683159
42
0.072360788629939513
10
381.4040259399431
20
563.7648291442224
10
381.40402593994315
20
587.67695802355752
10
375.52782129460724
20
587.67695802355752
42
-0.41421356237315748
10
374.52782129460741
20
588.6769580235574
10
374.52782129460741
20
591.17695802355775
42
-0.41421356237313667
10
375.52782129460746
20
592.17695802355763
10
381.40402593994315
20
592.17695802355763
10
381.40402593994315
20
642.09388110048042
10
375.52782129460707
20
642.09388110047985
42
-0.4142135623732407
10
374.52782129460724
20
643.09388110048008
10
374.52782129460735
20
645.59388110048019
42
-0.41421356237315748
10
375.52782129460695
20
646.59388110048008
10
381.40402593994315
20
646.59388110048008
10
381.40402593994315
20
696.51080417740332
10
375.52782129460707
20
696.5108041774032
42
-0.4142135623732407
10
374.52782129460724
20
697.51080417740309
10
374.52782129460718
20
700.01080417740343
42
-0.4142135623730534
10
375.52782129460695
20
701.01080417740332
10
381.40402593994315
20
701.01080417740332
10
381.40402593994327
20
709.51201540183672
42
0.14900006434994126
10
369.50563265861086
20
748.5530617083748
10
364.76546897528237
20
745.14177863250166
42
-0.41421356237322815
10
363.36968156361087
20
745.36932533412369
10
361.90938067604827
20
747.3984929757404
42
-0.41421356237315315
10
362.13692737767013
20
748.79428038741196
10
366.87709106099817
20
752.20556346328465
42
0.18018482450683174
10
325.43189126391337
20
778.09203431735273
10
324.44607180404103
20
772.33580604173994
42
-0.41421356237294443
10
323.29161841238204
20
771.51896005473475
10
320.82749418905132
20
771.94096931055151
42
-0.41421356237309503
10
320.01064820204567
20
773.09542270221061
10
320.99646766191813
20
778.85165097782215
42
0.034380394729553121
10
311.40402593994327
20
779.51201540183672
10
271.11021080924246
20
779.51201540183672
10
271.11021080924269
20
773.63581075650904
42
-0.41421356237294937
10
270.11021080924263
20
772.63581075650904
10
267.61021080924263
20
772.63581075650904
42
-0.4142135623730222
10
266.61021080924246
20
773.63581075650904
10
266.61021080924257
20
779.51201540183672
10
216.69328773231962
20
779.51201540183672
10
216.69328773231962
20
773.63581075650904
42
-0.41421356237294937
10
215.69328773231959
20
772.63581075650904
10
213.19328773231959
20
772.63581075650904
42
-0.41421356237307422
10
212.19328773231948
20
773.63581075650904
10
212.19328773231956
20
779.51201540183672
10
162.27636465539658
20
779.51201540183672
10
162.27636465539655
20
773.63581075650904
42
-0.41421356237295975
10
161.27636465539649
20
772.63581075650904
10
158.77636465539643
20
772.63581075650904
42
-0.41421356237312623
10
157.77636465539641
20
773.63581075650904
10
157.77636465539646
20
779.51201540183672
10
107.85944157847325
20
779.51201540183672
10
107.85944157847331
20
773.63581075650904
42
-0.41421356237296497
10
106.85944157847324
20
772.63581075650904
10
104.35944157847324
20
772.63581075650904
42
-0.41421356237311585
10
103.35944157847322
20
773.63581075650904
10
103.35944157847324
20
779.51201540183672
10
53.442518501550182
20
779.51201540183672
10
53.442518501550254
20
773.63581075650904
42
-0.41421356237296758
10
52.442518501550175
20
772.63581075650904
10
49.942518501550175
20
772.63581075650904
42
-0.41421356237312362
10
48.942518501550119
20
773.63581075650904
10
48.942518501550182
20
779.51201540183672
10
-0.97440457537302905
20
779.51201540183672
10
-0.97440457537309177
20
773.63581075650904
42
-0.41421356237300905
10
-1.9744045753730255
20
772.63581075650904
10
-4.4744045753730335
20
772.63581075650904
42
-0.41421356237312529
10
-5.474404575373093
20
773.63581075650904
10
-5.4744045753730308
20
779.51201540183672
10
-53.661552277092852
20
779.51201540183672
10
-53.661552277092916
20
773.63581075650904
42
-0.41421356237300916
10
-54.661552277092852
20
772.63581075650904
10
-57.161552277092866
20
772.63581075650904
42
-0.41421356237312362
10
-58.161552277092923
20
773.63581075650904
10
-58.161552277092873
20
779.51201540183672
10
-75.147186257616596
20
779.51201540183672
42
0.091731154362521411
10
-107.34832480155241
20
773.55418741371534
10
-105.12006983002671
20
768.14726001409679
42
-0.41421356237304413
10
-105.6636114727936
20
766.84167107320559
10
-107.97502470236658
20
765.88911195054948
42
-0.41421356237314905
10
-109.28061364325815
20
766.4326535933161
10
-111.50886861478348
20
771.83958099293432
42
0.092636719720326832
10
-138.78679656440573
20
753.15162570862583
10
-150.56887666239953
20
741.36954561063226
10
-146.41377251005241
20
737.21444145828502
42
-0.41421356237326434
10
-146.41377251005255
20
735.80022789591169
10
-148.18153946301885
20
734.03246094294559
42
-0.41421356237314655
10
-149.59575302539196
20
734.03246094294559
10
-153.75085717773902
20
738.18756509529283
10
-189.04745198139858
20
702.89097029163327
10
-184.8923478290514
20
698.7358661392858
42
-0.41421356237306561
10
-184.89234782905154
20
697.32165257691258
10
-186.6601147820179
20
695.55388562394671
42
-0.41421356237319806
10
-188.07432834439098
20
695.55388562394671
10
-192.22943249673816
20
699.70898977629361
10
-227.52602730039763
20
664.41239497263427
10
-223.37092314805057
20
660.2572908202867
42
-0.41421356237305085
10
-223.37092314805059
20
658.84307725791359
10
-225.13869010101689
20
657.07531030494749
42
-0.41421356237315388
10
-226.55290366339005
20
657.07531030494749
10
-230.70800781573709
20
661.2304144572945
10
-266.00460261939645
20
625.93381965363506
10
-261.84949846704922
20
621.77871550128793
42
-0.41421356237310236
10
-261.84949846704956
20
620.36450193891471
10
-263.61726542001583
20
618.59673498594839
42
-0.41421356237319806
10
-265.03147898238893
20
618.59673498594839
10
-269.186583134736
20
622.75183913829551
10
-304.48317793839578
20
587.45524433463561
10
-300.32807378604849
20
583.30014018228906
42
-0.41421356237311713
10
-300.32807378604861
20
581.88592661991595
10
-302.09584073901499
20
580.1181596669494
42
-0.41421356237303619
10
-303.51005430138804
20
580.11815966694928
10
-307.66515845373522
20
584.27326381929606
10
-342.96175325739466
20
548.97666901563696
10
-338.80664910504771
20
544.82156486328961
42
-0.41421356237312451
10
-338.80664910504771
20
543.40735130091673
10
-340.57441605801409
20
541.63958434795052
42
-0.41421356237313917
10
-341.98862962038709
20
541.63958434795018
10
-346.14373377273415
20
545.79468850029753
10
-353.63961030679155
20
538.29881196624001
42
0.10964715255870783
10
-374.58806123707473
20
505.39777508362369
10
-369.04343041768743
20
503.53845983345286
42
-0.41421356237307533
10
-368.41325460564002
20
502.27241147501252
10
-369.20809528863066
20
499.90213126190184
42
-0.41421356237298318
10
-370.47414364707117
20
499.27195544985403
10
-376.01877446645835
20
501.13127070002554
42
0.07477625850385862
10
-380.00000000000227
20
474.65920165945079
10
-380.00000000000227
20
451.6119604677192
10
-374.12379535468233
20
451.6119604677192
42
-0.41421356237319906
10
-373.12379535468233
20
450.61196046771926
10
-373.12379535468233
20
448.11196046771897
42
-0.41421356237303258
10
-374.12379535468233
20
447.11196046771903
10
-380.00000000000227
20
447.11196046771903
10
-380.00000000000222
20
397.19503739079613
10
-374.12379535468256
20
397.19503739079607
42
-0.41421356237311585
10
-373.12379535468261
20
396.19503739079619
10
-373.12379535468267
20
393.69503739079619
42
-0.4142135623732407
10
-374.12379535468256
20
392.69503739079596
10
-380.00000000000222
20
392.69503739079596
10
-380.00000000000222
20
342.77811431387306
10
-374.12379535468256
20
342.778114313873
42
-0.41421356237311585
10
-373.12379535468261
20
341.77811431387312
10
-373.12379535468256
20
339.27811431387278
42
-0.4142135623731783
10
-374.12379535468256
20
338.27811431387289
10
-380.00000000000222
20
338.27811431387289
10
-380.00000000000222
20
328.91201540183658
42
0.14584404586628513
10
-368.57953277250726
20
290.59180741499239
10
-363.79758373305106
20
293.94426432782177
42
-0.41421356237307461
10
-362.40471425048526
20
293.69948972837045
10
-360.9695956465921
20
291.6524346258484
42
-0.41421356237310103
10
-361.2143702460437
20
290.2595651432826
10
-365.99631928550036
20
286.90710823045293
42
0.1801848245068087
10
-324.87411609317638
20
260.5105485283346
10
-323.8172523896913
20
266.25415741827959
42
-0.41421356237314433
0
LWPOLYLINE
5
104
100
AcDbEntity
8
0
100
AcDbPolyline
90
12
70
1
43
0.0
10
30.172803107857575
20
483.14098960194656
10
30.172803107857575
20
459.24310244807856
10
1.689171407626525
20
459.24310244807862
42
-0.41421356237309043
10
-17.339122705281294
20
478.27139656098575
10
-17.339122705281312
20
559.60488894965374
42
-0.41421356237309648
10
1.6891714076265263
20
578.6331830625611
10
30.172803107857575
20
578.63318306256167
10
30.172803107857575
20
554.73529590869418
10
11.315837976813318
20
554.73529590869418
42
0.41421356237309709
10
6.5587644485857961
20
549.9782223804666
10
6.5587644485860563
20
487.89806313017323
42
0.41421356237308343
10
11.315837976813318
20
483.14098960194605
0
CIRCLE
5
105
100
AcDbEntity
8
0
100
AcDbCircle
10
105.06112790590082
20
280.08299023662914
30
0
40
2.0000000000000462
210
0
220
0
230
1
0
CIRCLE
5
106
100
AcDbEntity
8
0
100
AcDbCircle
10
349.94134550933717
20
748.049334971235
30
0
40
1.9999999999999574
210
0
220
0
230
1
0
CIRCLE
5
107
100
AcDbEntity
8
0
100
AcDbCircle
10
-364.49999999255601
20
474.65920165945084
30
0
40
1.9999999999998863
210
0
220
0
230
1
0
CIRCLE
5
108
100
AcDbEntity
8
0
100
AcDbCircle
10
-364.49999999255601
20
328.91201540183653
30
0
40
2.0000000000000284
210
0
220
0
230
1
0
CIRCLE
5
109
100
AcDbEntity
8
0
100
AcDbCircle
10
-348.53731956940516
20
290.37469583243819
30
0
40
2.0000000000000284
210
0
220
0
230
1
0
CIRCLE
5
110
100
AcDbEntity
8
0
100
AcDbCircle
10
344.08348113306823
20
511.08537395109295
30
0
40
2.0000000000000995
210
0
220
0
230
1
0
CIRCLE
5
111
100
AcDbEntity
8
0
100
AcDbCircle
10
214.76622289054887
20
764.01201539438591
30
0
40
1.9999999999999574
210
0
220
0
230
1
0
CIRCLE
5
112
100
AcDbEntity
8
0
100
AcDbCircle
10
21.49061679176906
20
764.01201539438591
30
0
40
2.0000000000000062
210
0
220
0
230
1
0
CIRCLE
5
113
100
AcDbEntity
8
0
100
AcDbCircle
10
290.37027769747175
20
457.37217051549663
30
0
40
2.0000000000000639
210
0
220
0
230
1
0
CIRCLE
5
114
100
AcDbEntity
8
0
100
AcDbCircle
10
76.5512121975528
20
274.41201540928716
30
0
40
2.0000000000000462
210
0
220
0
230
1
0
CIRCLE
5
115
100
AcDbEntity
8
0
100
AcDbCircle
10
365.9040259324882
20
563.7648291442224
30
0
40
1.9999999999998863
210
0
220
0
230
1
0
CIRCLE
5
116
100
AcDbEntity
8
0
100
AcDbCircle
10
182.94387082627881
20
349.94576364430367
30
0
40
2.0000000000000639
210
0
220
0
230
1
0
CIRCLE
5
117
100
AcDbEntity
8
0
100
AcDbCircle
10
-20.086590851837048
20
274.41201540928716
30
0
40
2
210
0
220
0
230
1
0
CIRCLE
5
118
100
AcDbEntity
8
0
100
AcDbCircle
10
118.12841984115894
20
764.01201539438591
30
0
40
2.0000000000000284
210
0
220
0
230
1
0
CIRCLE
5
119
100
AcDbEntity
8
0
100
AcDbCircle
10
330.14235563084554
20
728.25034509274349
30
0
40
2.0000000000000284
210
0
220
0
230
1
0
CIRCLE
5
120
100
AcDbEntity
8
0
100
AcDbCircle
10
-116.7243939012269
20
302.41201541673774
30
0
40
1.9999999999999929
210
0
220
0
230
1
0
CIRCLE
5
121
100
AcDbEntity
8
0
100
AcDbCircle
10
94.345991796827121
20
305.95161715382852
30
0
40
2.0000000000000817
210
0
220
0
230
1
0
CIRCLE
5
122
100
AcDbEntity
8
0
100
AcDbCircle
10
118.12841984115894
20
736.01201538693545
30
0
40
1.9999999999999929
210
0
220
0
230
1
0
CIRCLE
5
123
100
AcDbEntity
8
0
100
AcDbCircle
10
-364.49999999255601
20
365.34881196624008
30
0
40
2.0000000000000284
210
0
220
0
230
1
0
CIRCLE
5
124
100
AcDbEntity
8
0
100
AcDbCircle
10
365.9040259324882
20
636.63842227302951
30
0
40
1.9999999999999574
210
0
220
0
230
1
0
CIRCLE
5
125
100
AcDbEntity
8
0
100
AcDbCircle
10
365.9040259324882
20
600.2016257086259
30
0
40
1.9999999999998863
210
0
220
0
230
1
0
CIRCLE
5
126
100
AcDbEntity
8
0
100
AcDbCircle
10
-116.7243939012269
20
274.41201540928716
30
0
40
1.9999999999999929
210
0
220
0
230
1
0
CIRCLE
5
127
100
AcDbEntity
8
0
100
AcDbCircle
10
236.65707426187527
20
403.65896707990032
30
0
40
1.9999999999999929
210
0
220
0
230
1
0
CIRCLE
5
128
100
AcDbEntity
8
0
100
AcDbCircle
10
-310.00000000000654
20
274.41201540928716
30
0
40
1.9999999999999929
210
0
220
0
230
1
0
CIRCLE
5
129
100
AcDbEntity
8
0
100
AcDbCircle
10
-288.78947505960889
20
581.22863698610729
30
0
40
1.9999999999999929
210
0
220
0
230
1
0
CIRCLE
5
130
100
AcDbEntity
8
0
100
AcDbCircle
10
-103.65710196596882
20
758.34104056704405
30
0
40
1.9999999999999574
210
0
220
0
230
1
0
CIRCLE
5
131
100
AcDbEntity
8
0
100
AcDbCircle
10
-333.29823817238997
20
492.64585029101914
30
0
40
1.9999999999999574
210
0
220
0
230
1
0
CIRCLE
5
132
100
AcDbEntity
8
0
100
AcDbCircle
10
365.9040259324882
20
709.51201540183672
30
0
40
2.0000000000000284
210
0
220
0
230
1
0
CIRCLE
5
133
100
AcDbEntity
8
0
100
AcDbCircle
10
-75.147186257620859
20
764.01201539438591
30
0
40
2.0000000000000018
210
0
220
0
230
1
0
CIRCLE
5
134
100
AcDbEntity
8
0
100
AcDbCircle
10
365.9040259324882
20
673.07521883743323
30
0
40
2.0000000000000284
210
0
220
0
230
1
0
CIRCLE
5
135
100
AcDbEntity
8
0
100
AcDbCircle
10
-213.36219695061675
20
274.41201540928716
30
0
40
2.0000000000000995
210
0
220
0
230
1
0
CIRCLE
5
136
100
AcDbEntity
8
0
100
AcDbCircle
10
-181.53984488634683
20
688.47826715936947
30
0
40
2.0000000000000639
210
0
220
0
230
1
0
CIRCLE
5
137
100
AcDbEntity
8
0
100
AcDbCircle
10
-364.49999999255601
20
438.22240509504718
30
0
40
2.0000000000000284
210
0
220
0
230
1
0
CIRCLE
5
138
100
AcDbEntity
8
0
100
AcDbCircle
10
-235.25304832194325
20
634.76506372377332
30
0
40
2.0000000000000284
210
0
220
0
230
1
0
CIRCLE
5
139
100
AcDbEntity
8
0
100
AcDbCircle
10
311.40402593993883
20
764.01201539438591
30
0
40
2.0000000000000284
210
0
220
0
230
1
0
CIRCLE
5
140
100
AcDbEntity
8
0
100
AcDbCircle
10
129.23066739068236
20
296.23256020870741
30
0
40
2.0000000000000995
210
0
220
0
230
1
0
CIRCLE
5
141
100
AcDbEntity
8
0
100
AcDbCircle
10
-127.8266414507503
20
742.19147059496618
30
0
40
1.9999999999999751
210
0
220
0
230
1
0
CIRCLE
5
142
100
AcDbEntity
8
0
100
AcDbCircle
10
-342.32590179727453
20
527.69221024844171
30
0
40
1.9999999999999574
210
0
220
0
230
1
0
CIRCLE
5
143
100
AcDbEntity
8
0
100
AcDbCircle
10
-364.49999999255601
20
401.78560853064369
30
0
40
2.0000000000000284
210
0
220
0
230
1
0
CIRCLE
5
144
100
AcDbEntity
8
0
100
AcDbCircle
10
360.23305110514627
20
535.25491343587441
30
0
40
1.9999999999999574
210
0
220
0
230
1
0
LWPOLYLINE
5
145
100
AcDbEntity
8
0
100
AcDbPolyline
90
12
70
1
43
0.0
10
-99.188816817959264
20
713.55364596217942
42
-0.19891236737966239
10
-75.147186257616596
20
723.51201540183683
10
311.40402593994327
20
723.51201540183649
42
-0.41421356237310253
10
325.4040259399431
20
709.51201540183672
10
325.40402593994321
20
563.76482914422252
42
-0.1989123673796595
10
315.44565650028574
20
539.72319858387982
10
100.59284275790017
20
324.87038484149423
42
-0.1989123673796617
10
76.551212197557277
20
314.91201540183653
10
-310.00000000000227
20
314.91201540183653
42
-0.41421356237309059
10
-324.00000000000216
20
328.91201540183653
10
-324.00000000000239
20
474.65920165945084
42
-0.1989123673796595
10
-314.04163056034491
20
498.70083221979348
0
CIRCLE
5
146
100
AcDbEntity
8
0
100
AcDbCircle
10
-92.941965856895081
20
732.47241364984461
30
0
40
1.9999999999999574
210
0
220
0
230
1
0
CIRCLE
5
147
100
AcDbEntity
8
0
100
AcDbCircle
10
216.85808438338358
20
423.45795695839172
30
0
40
1.9999999999999929
210
0
220
0
230
1
0
CIRCLE
5
148
100
AcDbEntity
8
0
100
AcDbCircle
10
-328.73832969091347
20
310.17368571092987
30
0
40
1.9999999999999574
210
0
220
0
230
1
0
CIRCLE
5
149
100
AcDbEntity
8
0
100
AcDbCircle
10
-215.45405844345157
20
614.96607384528147
30
0
40
1.9999999999999929
210
0
220
0
230
1
0
CIRCLE
5
150
100
AcDbEntity
8
0
100
AcDbCircle
10
334.36442418794684
20
545.97004954494821
30
0
40
2.0000000000000284
210
0
220
0
230
1
0
ENDSEC
0
SECTION
2
OBJECTS
0
DICTIONARY
5
C
100
AcDbDictionary
3
ACAD_GROUP
350
D
3
ACAD_MLINESTYLE
350
17
0
DICTIONARY
5
D
100
AcDbDictionary
0
DICTIONARY
5
1A
330
C
100
AcDbDictionary
0
DICTIONARY
5
17
100
AcDbDictionary
0
ENDSEC
0
EOF
