0
SECTION
2
HEADER
9
$INSUNITS
70
1
9
$ACADVER
1
AC1014
9
$HANDSEED
5
FFFF
0
ENDSEC
0
SECTION
2
TABLES
0
TABLE
2
VPORT
5
8
100
AcDbSymbolTable
0
ENDTAB
0
TABLE
2
LTYPE
5
5
100
AcDbSymbolTable
0
LTYPE
5
14
100
AcDbSymbolTableRecord
100
AcDbLinetypeTableRecord
2
BYBLOCK
70
0
0
LTYPE
5
15
100
AcDbSymbolTableRecord
100
AcDbLinetypeTableRecord
2
BYLAYER
70
0
0
ENDTAB
0
TABLE
2
LAYER
5
2
100
AcDbSymbolTable
70
2
0
LAYER
5
50
100
AcDbSymbolTableRecord
100
AcDbLayerTableRecord
2
0
70
0
6
CONTINUOUS
0
ENDTAB
0
TABLE
2
STYLE
5
3
100
AcDbSymbolTable
70
1
0
STYLE
5
11
100
AcDbSymbolTableRecord
100
AcDbTextStyleTableRecord
2
STANDARD
70
0
0
ENDTAB
0
TABLE
2
VIEW
5
6
100
AcDbSymbolTable
70
0
0
ENDTAB
0
TABLE
2
UCS
5
7
100
AcDbSymbolTable
70
0
0
ENDTAB
0
TABLE
2
APPID
5
9
100
AcDbSymbolTable
70
2
0
APPID
5
12
100
AcDbSymbolTableRecord
100
AcDbRegAppTableRecord
2
ACAD
70
0
0
ENDTAB
0
TABLE
2
DIMSTYLE
5
A
100
AcDbSymbolTable
70
1
0
ENDTAB
0
TABLE
2
BLOCK_RECORD
5
1
100
AcDbSymbolTable
70
1
0
BLOCK_RECORD
5
1F
100
AcDbSymbolTableRecord
100
AcDbBlockTableRecord
2
*MODEL_SPACE
0
BLOCK_RECORD
5
1B
100
AcDbSymbolTableRecord
100
AcDbBlockTableRecord
2
*PAPER_SPACE
0
ENDTAB
0
ENDSEC
0
SECTION
2
BLOCKS
0
BLOCK
5
20
100
AcDbEntity
100
AcDbBlockBegin
2
*MODEL_SPACE
0
ENDBLK
5
21
100
AcDbEntity
100
AcDbBlockEnd
0
BLOCK
5
1C
100
AcDbEntity
100
AcDbBlockBegin
2
*PAPER_SPACE
0
ENDBLK
5
1D
100
AcDbEntity
100
AcDbBlockEnd
0
ENDSEC
0
SECTION
2
ENTITIES
0
LWPOLYLINE
5
100
100
AcDbEntity
8
OUTER_PROFILES
100
AcDbPolyline
90
4
70
1
43
0.0
10
-2.2379298764097642e-14
20
37.000000000000007
10
0
20
0
10
41
20
0
10
40.999999999999979
20
37.000000000000021
0
LWPOLYLINE
5
101
100
AcDbEntity
8
INTERIOR_PROFILES
100
AcDbPolyline
90
8
70
1
43
0.0
10
5.2499999999999831
20
3.1000000000000005
42
0.41421356237309476
10
5.5999999999999845
20
2.75
10
6.3999999999999773
20
2.7499999999999947
42
0.4142135623730977
10
6.749999999999992
20
3.1000000000000019
10
6.749999999999984
20
3.8999999999999999
42
0.41421356237309503
10
6.3999999999999826
20
4.2500000000000009
10
5.5999999999999845
20
4.2500000000000009
42
0.41421356237309503
10
5.2499999999999831
20
3.8999999999999999
0
LWPOLYLINE
5
102
100
AcDbEntity
8
INTERIOR_PROFILES
100
AcDbPolyline
90
8
70
1
43
0.0
10
32.399999999999999
20
2.7500000000000164
10
31.600000000000001
20
2.7500000000000155
42
-0.41421356237309709
10
31.249999999999996
20
3.1000000000000192
10
31.249999999999996
20
3.9000000000000155
42
-0.41421356237309503
10
31.600000000000001
20
4.250000000000016
10
32.400000000000013
20
4.250000000000016
42
-0.41421356237309037
10
32.750000000000007
20
3.9000000000000159
10
32.750000000000007
20
3.1000000000000165
42
-0.4142135623731012
0
LWPOLYLINE
5
103
100
AcDbEntity
8
INTERIOR_PROFILES
100
AcDbPolyline
90
8
70
1
43
0.0
10
35.399999999999999
20
2.750000000000024
42
0.41421356237310003
10
35.749999999999993
20
3.1000000000000227
10
35.75
20
3.9000000000000181
42
0.41421356237309503
10
35.399999999999999
20
4.2500000000000195
10
34.600000000000001
20
4.2500000000000213
42
0.41421356237309503
10
34.25
20
3.9000000000000172
10
34.25
20
3.1000000000000156
42
0.41421356237309709
10
34.600000000000009
20
2.7500000000000178
0
LWPOLYLINE
5
104
100
AcDbEntity
8
INTERIOR_PROFILES
100
AcDbPolyline
90
8
70
1
43
0.0
10
9.749999999999984
20
3.9000000000000021
42
0.41421356237309503
10
9.3999999999999844
20
4.2500000000000018
10
8.5999999999999801
20
4.2499999999999964
42
0.41421356237308798
10
8.2499999999999911
20
3.9000000000000039
10
8.249999999999984
20
3.1000000000000001
42
0.4142135623730927
10
8.5999999999999854
20
2.7500000000000004
10
9.3999999999999844
20
2.7500000000000022
42
0.41421356237309304
10
9.7499999999999858
20
3.100000000000001
0
CIRCLE
5
105
100
AcDbEntity
8
INTERIOR_PROFILES
100
AcDbCircle
10
-37.750000000000007
20
3.2500000000000182
30
0
40
0.99999999999999956
210
0
220
0
230
-1
0
CIRCLE
5
106
100
AcDbEntity
8
INTERIOR_PROFILES
100
AcDbCircle
10
-3.2499999999999813
20
3.2499999999999964
30
0
40
0.99999999999999956
210
0
220
0
230
-1
0
ENDSEC
0
SECTION
2
OBJECTS
0
DICTIONARY
5
C
100
AcDbDictionary
3
ACAD_GROUP
350
D
3
ACAD_MLINESTYLE
350
17
0
DICTIONARY
5
D
100
AcDbDictionary
0
DICTIONARY
5
1A
330
C
100
AcDbDictionary
0
DICTIONARY
5
17
100
AcDbDictionary
0
ENDSEC
0
EOF
