0
SECTION
2
HEADER
9
$INSUNITS
70
1
9
$ACADVER
1
AC1014
9
$HANDSEED
5
FFFF
0
ENDSEC
0
SECTION
2
TABLES
0
TABLE
2
VPORT
5
8
100
AcDbSymbolTable
0
ENDTAB
0
TABLE
2
LTYPE
5
5
100
AcDbSymbolTable
0
LTYPE
5
14
100
AcDbSymbolTableRecord
100
AcDbLinetypeTableRecord
2
BYBLOCK
70
0
0
LTYPE
5
15
100
AcDbSymbolTableRecord
100
AcDbLinetypeTableRecord
2
BYLAYER
70
0
0
ENDTAB
0
TABLE
2
LAYER
5
2
100
AcDbSymbolTable
70
2
0
LAYER
5
50
100
AcDbSymbolTableRecord
100
AcDbLayerTableRecord
2
0
70
0
6
CONTINUOUS
0
ENDTAB
0
TABLE
2
STYLE
5
3
100
AcDbSymbolTable
70
1
0
STYLE
5
11
100
AcDbSymbolTableRecord
100
AcDbTextStyleTableRecord
2
STANDARD
70
0
0
ENDTAB
0
TABLE
2
VIEW
5
6
100
AcDbSymbolTable
70
0
0
ENDTAB
0
TABLE
2
UCS
5
7
100
AcDbSymbolTable
70
0
0
ENDTAB
0
TABLE
2
APPID
5
9
100
AcDbSymbolTable
70
2
0
APPID
5
12
100
AcDbSymbolTableRecord
100
AcDbRegAppTableRecord
2
ACAD
70
0
0
ENDTAB
0
TABLE
2
DIMSTYLE
5
A
100
AcDbSymbolTable
70
1
0
ENDTAB
0
TABLE
2
BLOCK_RECORD
5
1
100
AcDbSymbolTable
70
1
0
BLOCK_RECORD
5
1F
100
AcDbSymbolTableRecord
100
AcDbBlockTableRecord
2
*MODEL_SPACE
0
BLOCK_RECORD
5
1B
100
AcDbSymbolTableRecord
100
AcDbBlockTableRecord
2
*PAPER_SPACE
0
ENDTAB
0
ENDSEC
0
SECTION
2
BLOCKS
0
BLOCK
5
20
100
AcDbEntity
100
AcDbBlockBegin
2
*MODEL_SPACE
0
ENDBLK
5
21
100
AcDbEntity
100
AcDbBlockEnd
0
BLOCK
5
1C
100
AcDbEntity
100
AcDbBlockBegin
2
*PAPER_SPACE
0
ENDBLK
5
1D
100
AcDbEntity
100
AcDbBlockEnd
0
ENDSEC
0
SECTION
2
ENTITIES
0
LWPOLYLINE
5
100
100
AcDbEntity
8
OUTER_PROFILES
100
AcDbPolyline
90
4
70
1
43
0.0
10
41
20
36.499999999999986
10
0
20
36.499999999999957
10
0
20
0
10
41
20
0
0
LWPOLYLINE
5
101
100
AcDbEntity
8
INTERIOR_PROFILES
100
AcDbPolyline
90
8
70
1
43
0.0
10
4.2499999999999867
20
6.149999999999995
42
0.41421356237309503
10
3.8999999999999866
20
6.4999999999999991
10
3.0999999999999868
20
6.4999999999999956
42
0.41421356237309559
10
2.7499999999999871
20
6.1499999999999959
10
2.7499999999999774
20
5.3499999999999961
42
0.4142135623730977
10
3.0999999999999854
20
4.9999999999999929
10
3.8999999999999795
20
4.9999999999999956
42
0.4142135623730962
10
4.2499999999999805
20
5.3499999999999979
0
LWPOLYLINE
5
102
100
AcDbEntity
8
INTERIOR_PROFILES
100
AcDbPolyline
90
8
70
1
43
0.0
10
37.100000000000001
20
6.5000000478714446
10
37.900000000000006
20
6.5000000478714446
42
-0.41421356237309037
10
38.25
20
6.1500000478714441
10
38.25
20
5.349999999999997
42
-0.41421356237309154
10
37.900000000000006
20
4.999999999999992
10
37.100000000000001
20
4.9999999999999973
42
-0.41421356237309154
10
36.75
20
5.3499999999999917
10
36.75
20
6.1500000478714458
42
-0.41421356237309387
0
LWPOLYLINE
5
103
100
AcDbEntity
8
INTERIOR_PROFILES
100
AcDbPolyline
90
8
70
1
43
0.0
10
36.75
20
8.3499999999999979
10
36.75
20
9.1500000478714423
42
-0.41421356237309503
10
37.100000000000001
20
9.5000000478714419
10
37.900000000000006
20
9.5000000478714455
42
-0.4142135623730927
10
38.25
20
9.1500000478714387
10
38.25
20
8.3499999999999925
42
-0.4142135623730927
10
37.899999999999999
20
7.9999999999999964
10
37.100000000000001
20
7.9999999999999964
42
-0.41421356237309737
0
LWPOLYLINE
5
104
100
AcDbEntity
8
INTERIOR_PROFILES
100
AcDbPolyline
90
8
70
1
43
0.0
10
35.399999999999999
20
2.5000000000000058
10
34.600000000000001
20
2.5
42
-0.41421356237309126
10
34.25
20
2.8499999999999965
10
34.25
20
3.6499999999999986
42
-0.4142135623730962
10
34.600000000000001
20
4.0000000000000009
10
35.400000000000006
20
4.0000000000000009
42
-0.41421356237309154
10
35.750000000000007
20
3.6499999999999986
10
35.749999999999993
20
2.8499999999999974
42
-0.4142135623730942
0
LWPOLYLINE
5
105
100
AcDbEntity
8
INTERIOR_PROFILES
100
AcDbPolyline
90
8
70
1
43
0.0
10
3.0999999999999868
20
9.4999999999999982
10
3.8999999999999853
20
9.4999999999999982
42
-0.4142135623730927
10
4.2499999999999893
20
9.1499999999999968
10
4.2499999999999805
20
8.3499999999999961
42
-0.41421356237309387
10
3.8999999999999795
20
7.9999999999999964
10
3.0999999999999854
20
7.9999999999999938
42
-0.41421356237309181
10
2.7499999999999827
20
8.3499999999999943
10
2.7499999999999871
20
9.149999999999995
42
-0.4142135623730962
0
LWPOLYLINE
5
106
100
AcDbEntity
8
INTERIOR_PROFILES
100
AcDbPolyline
90
8
70
1
43
0.0
10
6.749999999999984
20
3.6499999999999986
42
0.4142135623730927
10
6.3999999999999844
20
3.9999999999999982
10
5.5999999999999801
20
3.9999999999999982
42
0.41421356237309037
10
5.2499999999999831
20
3.6499999999999986
10
5.2499999999999885
20
2.8500000000000001
42
0.41421356237309476
10
5.5999999999999881
20
2.4999999999999978
10
6.3999999999999773
20
2.4999999999999925
42
0.41421356237309886
10
6.749999999999992
20
2.850000000000001
0
LWPOLYLINE
5
107
100
AcDbEntity
8
INTERIOR_PROFILES
100
AcDbPolyline
90
8
70
1
43
0.0
10
8.5999999999999801
20
3.9999999999999942
10
9.3999999999999844
20
3.9999999999999996
42
-0.41421356237309387
10
9.7499999999999822
20
3.6499999999999999
10
9.7499999999999858
20
2.8499999999999988
42
-0.41421356237309886
10
9.399999999999979
20
2.4999999999999987
10
8.5999999999999908
20
2.4999999999999973
42
-0.41421356237309709
10
8.249999999999984
20
2.8499999999999979
10
8.2499999999999911
20
3.6500000000000021
42
-0.41421356237308743
0
LWPOLYLINE
5
108
100
AcDbEntity
8
INTERIOR_PROFILES
100
AcDbPolyline
90
8
70
1
43
0.0
10
31.600000000000001
20
3.9999999999999996
10
32.400000000000013
20
3.9999999999999996
42
-0.41421356237309154
10
32.750000000000007
20
3.6499999999999972
10
32.750000000000007
20
2.8499999999999979
42
-0.41421356237309537
10
32.400000000000006
20
2.4999999999999991
10
31.600000000000009
20
2.4999999999999991
42
-0.41421356237310064
10
31.249999999999996
20
2.8500000000000014
10
31.249999999999996
20
3.6499999999999972
42
-0.4142135623730962
0
CIRCLE
5
109
100
AcDbEntity
8
INTERIOR_PROFILES
100
AcDbCircle
10
-3.2499999999999813
20
2.999999999999996
30
0
40
0.99999999999999956
210
0
220
0
230
-1
0
CIRCLE
5
110
100
AcDbEntity
8
INTERIOR_PROFILES
100
AcDbCircle
10
-37.750000000000007
20
2.9999999999999982
30
0
40
0.99999999999999956
210
0
220
0
230
-1
0
ENDSEC
0
SECTION
2
OBJECTS
0
DICTIONARY
5
C
100
AcDbDictionary
3
ACAD_GROUP
350
D
3
ACAD_MLINESTYLE
350
17
0
DICTIONARY
5
D
100
AcDbDictionary
0
DICTIONARY
5
1A
330
C
100
AcDbDictionary
0
DICTIONARY
5
17
100
AcDbDictionary
0
ENDSEC
0
EOF
