0
SECTION
2
HEADER
9
$INSUNITS
70
1
9
$ACADVER
1
AC1014
9
$HANDSEED
5
FFFF
0
ENDSEC
0
SECTION
2
TABLES
0
TABLE
2
VPORT
5
8
100
AcDbSymbolTable
0
ENDTAB
0
TABLE
2
LTYPE
5
5
100
AcDbSymbolTable
0
LTYPE
5
14
100
AcDbSymbolTableRecord
100
AcDbLinetypeTableRecord
2
BYBLOCK
70
0
0
LTYPE
5
15
100
AcDbSymbolTableRecord
100
AcDbLinetypeTableRecord
2
BYLAYER
70
0
0
ENDTAB
0
TABLE
2
LAYER
5
2
100
AcDbSymbolTable
70
2
0
LAYER
5
50
100
AcDbSymbolTableRecord
100
AcDbLayerTableRecord
2
0
70
0
6
CONTINUOUS
0
ENDTAB
0
TABLE
2
STYLE
5
3
100
AcDbSymbolTable
70
1
0
STYLE
5
11
100
AcDbSymbolTableRecord
100
AcDbTextStyleTableRecord
2
STANDARD
70
0
0
ENDTAB
0
TABLE
2
VIEW
5
6
100
AcDbSymbolTable
70
0
0
ENDTAB
0
TABLE
2
UCS
5
7
100
AcDbSymbolTable
70
0
0
ENDTAB
0
TABLE
2
APPID
5
9
100
AcDbSymbolTable
70
2
0
APPID
5
12
100
AcDbSymbolTableRecord
100
AcDbRegAppTableRecord
2
ACAD
70
0
0
ENDTAB
0
TABLE
2
DIMSTYLE
5
A
100
AcDbSymbolTable
70
1
0
ENDTAB
0
TABLE
2
BLOCK_RECORD
5
1
100
AcDbSymbolTable
70
1
0
BLOCK_RECORD
5
1F
100
AcDbSymbolTableRecord
100
AcDbBlockTableRecord
2
*MODEL_SPACE
0
BLOCK_RECORD
5
1B
100
AcDbSymbolTableRecord
100
AcDbBlockTableRecord
2
*PAPER_SPACE
0
ENDTAB
0
ENDSEC
0
SECTION
2
BLOCKS
0
BLOCK
5
20
100
AcDbEntity
100
AcDbBlockBegin
2
*MODEL_SPACE
0
ENDBLK
5
21
100
AcDbEntity
100
AcDbBlockEnd
0
BLOCK
5
1C
100
AcDbEntity
100
AcDbBlockBegin
2
*PAPER_SPACE
0
ENDBLK
5
1D
100
AcDbEntity
100
AcDbBlockEnd
0
ENDSEC
0
SECTION
2
ENTITIES
0
LWPOLYLINE
5
100
100
AcDbEntity
8
OUTER_PROFILES
100
AcDbPolyline
90
4
70
1
43
0.0
10
-2.7974123455122052e-14
20
37.000000000000007
10
0
20
0
10
41
20
0
10
40.999999999999972
20
37.000000000000014
0
LWPOLYLINE
5
101
100
AcDbEntity
8
INTERIOR_PROFILES
100
AcDbPolyline
90
8
70
1
43
0.0
10
4.2499999999999805
20
6.3999999999999968
42
0.41421356237309503
10
3.8999999999999808
20
6.7499999999999991
10
3.0999999999999819
20
6.7499999999999982
42
0.41421356237309559
10
2.7499999999999813
20
6.3999999999999986
10
2.7499999999999716
20
5.5999999999999961
42
0.41421356237309798
10
3.0999999999999805
20
5.2499999999999938
10
3.8999999999999742
20
5.2499999999999973
42
0.4142135623730962
10
4.2499999999999751
20
5.5999999999999996
0
LWPOLYLINE
5
102
100
AcDbEntity
8
INTERIOR_PROFILES
100
AcDbPolyline
90
8
70
1
43
0.0
10
36.75
20
5.600000000000013
42
0.4142135623730962
10
37.100000000000001
20
5.2500000000000187
10
37.900000000000006
20
5.2500000000000142
42
0.41421356237308682
10
38.25
20
5.6000000000000192
10
38.25
20
6.4000000478714663
42
0.41421356237309037
10
37.899999999999999
20
6.7500000478714677
10
37.099999999999994
20
6.750000047871465
42
0.41421356237309387
10
36.75
20
6.400000047871468
0
LWPOLYLINE
5
103
100
AcDbEntity
8
INTERIOR_PROFILES
100
AcDbPolyline
90
8
70
1
43
0.0
10
36.75
20
8.6000000000000192
10
36.749999999999993
20
9.4000000478714636
42
-0.41421356237309503
10
37.099999999999994
20
9.7500000478714615
10
37.899999999999991
20
9.7500000478714686
42
-0.41421356237309737
10
38.25
20
9.4000000478714618
10
38.249999999999993
20
8.6000000000000156
42
-0.4142135623730927
10
37.899999999999991
20
8.2500000000000178
10
37.099999999999994
20
8.2500000000000178
42
-0.41421356237309737
0
LWPOLYLINE
5
104
100
AcDbEntity
8
INTERIOR_PROFILES
100
AcDbPolyline
90
8
70
1
43
0.0
10
3.8999999999999742
20
8.2499999999999964
10
3.099999999999981
20
8.2499999999999947
42
-0.4142135623730927
10
2.7499999999999774
20
8.5999999999999943
10
2.7499999999999756
20
9.3999999999999968
42
-0.4142135623730962
10
3.0999999999999757
20
9.7499999999999964
10
3.8999999999999746
20
9.7499999999999982
42
-0.41421356237309093
10
4.2499999999999778
20
9.3999999999999986
10
4.2499999999999751
20
8.5999999999999961
42
-0.41421356237309387
0
LWPOLYLINE
5
105
100
AcDbEntity
8
INTERIOR_PROFILES
100
AcDbPolyline
90
8
70
1
43
0.0
10
35.399999999999999
20
2.7500000000000266
10
34.600000000000001
20
2.75000000000002
42
-0.41421356237309592
10
34.25
20
3.1000000000000165
10
34.25
20
3.9000000000000186
42
-0.4142135623730962
10
34.599999999999994
20
4.2500000000000213
10
35.399999999999999
20
4.2500000000000213
42
-0.41421356237309154
10
35.75
20
3.9000000000000186
10
35.749999999999986
20
3.1000000000000241
42
-0.41421356237309914
0
LWPOLYLINE
5
106
100
AcDbEntity
8
INTERIOR_PROFILES
100
AcDbPolyline
90
8
70
1
43
0.0
10
6.7499999999999813
20
3.9000000000000021
10
6.749999999999992
20
3.1000000000000036
42
-0.4142135623730942
10
6.3999999999999773
20
2.7499999999999956
10
5.5999999999999828
20
2.7500000000000004
42
-0.41421356237309442
10
5.2499999999999831
20
3.1000000000000019
10
5.2499999999999778
20
3.9000000000000012
42
-0.41421356237309037
10
5.5999999999999748
20
4.2500000000000009
10
6.3999999999999782
20
4.2500000000000018
42
-0.4142135623730927
0
LWPOLYLINE
5
107
100
AcDbEntity
8
INTERIOR_PROFILES
100
AcDbPolyline
90
8
70
1
43
0.0
10
32.399999999999999
20
2.7500000000000182
10
31.600000000000001
20
2.7500000000000178
42
-0.41421356237309592
10
31.249999999999996
20
3.1000000000000201
10
31.249999999999996
20
3.9000000000000159
42
-0.4142135623730962
10
31.600000000000001
20
4.2500000000000187
10
32.400000000000006
20
4.2500000000000178
42
-0.41421356237309154
10
32.75
20
3.9000000000000168
10
32.75
20
3.100000000000017
42
-0.41421356237309559
0
LWPOLYLINE
5
108
100
AcDbEntity
8
INTERIOR_PROFILES
100
AcDbPolyline
90
8
70
1
43
0.0
10
9.399999999999979
20
2.7500000000000036
10
8.5999999999999854
20
2.7500000000000031
42
-0.41421356237309798
10
8.2499999999999769
20
3.1000000000000019
10
8.249999999999984
20
3.9000000000000061
42
-0.41421356237308743
10
8.5999999999999748
20
4.2499999999999982
10
9.3999999999999808
20
4.2500000000000036
42
-0.4142135623730927
10
9.7499999999999769
20
3.9000000000000048
10
9.7499999999999805
20
3.1000000000000036
42
-0.4142135623730942
0
CIRCLE
5
109
100
AcDbEntity
8
INTERIOR_PROFILES
100
AcDbCircle
10
-3.2499999999999756
20
3.2499999999999973
30
0
40
0.99999999999999956
210
0
220
0
230
-1
0
LWPOLYLINE
5
110
100
AcDbEntity
8
INTERIOR_PROFILES
100
AcDbPolyline
90
6
70
1
43
0.0
10
35.749999999999986
20
32.466466440848393
10
35.749999999999993
20
5.7500000000000178
42
-0.4142135535754628
10
35.2500000150185
20
5.250000000000016
42
-0.41421356237309709
10
34.750000015018493
20
5.7500000000000124
10
34.750000015018479
20
32.466466440848386
42
-0.41421355357546402
10
35.249999999999986
20
32.966466440848386
42
-0.41421356237309176
0
CIRCLE
5
111
100
AcDbEntity
8
INTERIOR_PROFILES
100
AcDbCircle
10
-37.75
20
3.2500000000000204
30
0
40
0.99999999999999956
210
0
220
0
230
-1
0
ENDSEC
0
SECTION
2
OBJECTS
0
DICTIONARY
5
C
100
AcDbDictionary
3
ACAD_GROUP
350
D
3
ACAD_MLINESTYLE
350
17
0
DICTIONARY
5
D
100
AcDbDictionary
0
DICTIONARY
5
1A
330
C
100
AcDbDictionary
0
DICTIONARY
5
17
100
AcDbDictionary
0
ENDSEC
0
EOF
