0
SECTION
2
HEADER
9
$INSUNITS
70
1
9
$ACADVER
1
AC1014
9
$HANDSEED
5
FFFF
0
ENDSEC
0
SECTION
2
TABLES
0
TABLE
2
VPORT
5
8
100
AcDbSymbolTable
0
ENDTAB
0
TABLE
2
LTYPE
5
5
100
AcDbSymbolTable
0
LTYPE
5
14
100
AcDbSymbolTableRecord
100
AcDbLinetypeTableRecord
2
BYBLOCK
70
0
0
LTYPE
5
15
100
AcDbSymbolTableRecord
100
AcDbLinetypeTableRecord
2
BYLAYER
70
0
0
ENDTAB
0
TABLE
2
LAYER
5
2
100
AcDbSymbolTable
70
2
0
LAYER
5
50
100
AcDbSymbolTableRecord
100
AcDbLayerTableRecord
2
0
70
0
6
CONTINUOUS
0
ENDTAB
0
TABLE
2
STYLE
5
3
100
AcDbSymbolTable
70
1
0
STYLE
5
11
100
AcDbSymbolTableRecord
100
AcDbTextStyleTableRecord
2
STANDARD
70
0
0
ENDTAB
0
TABLE
2
VIEW
5
6
100
AcDbSymbolTable
70
0
0
ENDTAB
0
TABLE
2
UCS
5
7
100
AcDbSymbolTable
70
0
0
ENDTAB
0
TABLE
2
APPID
5
9
100
AcDbSymbolTable
70
2
0
APPID
5
12
100
AcDbSymbolTableRecord
100
AcDbRegAppTableRecord
2
ACAD
70
0
0
ENDTAB
0
TABLE
2
DIMSTYLE
5
A
100
AcDbSymbolTable
70
1
0
ENDTAB
0
TABLE
2
BLOCK_RECORD
5
1
100
AcDbSymbolTable
70
1
0
BLOCK_RECORD
5
1F
100
AcDbSymbolTableRecord
100
AcDbBlockTableRecord
2
*MODEL_SPACE
0
BLOCK_RECORD
5
1B
100
AcDbSymbolTableRecord
100
AcDbBlockTableRecord
2
*PAPER_SPACE
0
ENDTAB
0
ENDSEC
0
SECTION
2
BLOCKS
0
BLOCK
5
20
100
AcDbEntity
100
AcDbBlockBegin
2
*MODEL_SPACE
0
ENDBLK
5
21
100
AcDbEntity
100
AcDbBlockEnd
0
BLOCK
5
1C
100
AcDbEntity
100
AcDbBlockBegin
2
*PAPER_SPACE
0
ENDBLK
5
1D
100
AcDbEntity
100
AcDbBlockEnd
0
ENDSEC
0
SECTION
2
ENTITIES
0
LWPOLYLINE
5
100
100
AcDbEntity
8
OUTER_PROFILES
100
AcDbPolyline
90
104
70
1
43
0.0
10
-11.019139430843122
20
9.9138565861093859
42
0.41421356237309476
10
-12.51913943084312
20
8.4138565861093841
10
-12.519139430843119
20
5.1209633672959356
42
0.19891236737965914
10
-12.372692821436392
20
4.7674099767026608
10
-12.135255954359936
20
4.5299731096262148
42
-0.19891236737965454
10
-11.988809344953214
20
4.1764197190329462
10
-11.988809344953216
20
-0.24679671859396335
42
-0.19891236737965742
10
-12.135255954359943
20
-0.60035010918723619
10
-12.72624621202967
20
-1.1913403668569782
42
0.19891236737965823
10
-12.872692821436399
20
-1.5448937574502537
10
-12.872692821436393
20
-5.1306723872551094
42
0.1989123673796564
10
-12.72624621202967
20
-5.4842257778483807
10
-12.135255954359939
20
-6.0752160355181246
42
-0.10064116763488222
10
-12.02525713671632
20
-6.2413678513082491
10
-11.614006195346914
20
-6.2413678513082491
42
-0.99999999999999989
10
-11.614006195346914
20
-6.4287694261113977
10
-14.087381497896658
20
-6.4287694261114297
42
0.41421356237309503
10
-14.337381497896656
20
-6.6787694261114288
10
-14.337381497896661
20
-10.601985863738312
42
0.41421356237309503
10
-14.08738149789666
20
-10.851985863738312
10
-11.614006195346914
20
-10.851985863738303
42
-0.99999999999999989
10
-11.614006195346914
20
-11.039387438541452
10
-12.02525713671632
20
-11.039387438541452
42
-0.10064116763488222
10
-12.135255954359939
20
-11.205539254331576
10
-12.372692821436392
20
-11.44297612140803
42
0.19891236737965962
10
-12.519139430843119
20
-11.796529512001305
10
-12.51913943084312
20
-15.089422730814752
42
0.41421356237309503
10
-11.01913943084312
20
-16.589422730814753
10
-7.72624621202967
20
-16.589422730814753
42
0.19891236737965834
10
-7.372692821436396
20
-16.442976121408023
10
-7.1352559543599483
20
-16.205539254331569
42
-0.1989123673796587
10
-6.7817025637666726
20
-16.059092644924839
10
2.2787102369280525
20
-16.059092644924835
42
-0.19891236737965234
10
2.6322636275213185
20
-16.205539254331551
10
3.2232538851911063
20
-16.796529512001314
42
0.19891236737965176
10
3.5768072757843723
20
-16.94297612140803
10
7.148192883787134
20
-16.94297612140803
42
0.19891236737965315
10
7.5017462743804009
20
-16.79652951200131
10
8.0927365320501874
20
-16.205539254331544
42
-0.10064116763487438
10
8.2588883478403012
20
-16.095540436687934
10
8.2588883478403048
20
-15.684289495318524
42
-0.99999999999999989
10
8.4462899226434551
20
-15.684289495318524
10
8.4462899226434729
20
-18.15766479786835
42
0.41421356237309342
10
8.6962899226434711
20
-18.40766479786835
10
17.256702723338048
20
-18.40766479786836
42
0.41421356237309503
10
17.506702723338048
20
-18.157664797868364
10
17.506702723338179
20
-15.684289495318538
42
-0.99999999999999989
10
17.69410429814133
20
-15.684289495318538
10
17.69410429814133
20
-16.095540436687951
42
-0.10064116763488144
10
17.860256113931452
20
-16.205539254331569
10
18.09769298100791
20
-16.442976121408027
42
0.19891236737965695
10
18.451246371601179
20
-16.589422730814753
10
21.744139590414626
20
-16.589422730814746
42
0.41421356237309503
10
23.244139590414626
20
-15.089422730814746
10
23.244139590414626
20
-11.796529512001301
42
0.19891236737965845
10
23.097692981007899
20
-11.442976121408027
10
22.860256113931445
20
-11.205539254331573
42
-0.19891236737965903
10
22.713809504524718
20
-10.851985863738298
10
22.713809504524722
20
-6.4287694261114057
42
-0.19891236737965662
10
22.860256113931445
20
-6.0752160355181335
10
23.451246371601176
20
-5.4842257778483914
42
0.19891236737965845
10
23.597692981007903
20
-5.1306723872551165
10
23.597692981007899
20
-1.5448937574502601
42
0.1989123673796564
10
23.451246371601176
20
-1.1913403668569884
10
22.860256113931445
20
-0.60035010918724485
42
-0.10064116763488246
10
22.750257296287824
20
-0.43419829339711924
10
22.339006354918421
20
-0.43419829339712029
42
-0.99999999999999989
10
22.339006354918421
20
-0.24679671859397107
10
24.812381657468357
20
-0.2467967185939389
42
0.41421356237309293
10
25.062381657468354
20
0.0032032814060610117
10
25.062381657468361
20
3.9264197190329537
42
0.41421356237309587
10
24.812381657468361
20
4.1764197190329542
10
22.339006354918421
20
4.1764197190329266
42
-0.99999999999999989
10
22.339006354918421
20
4.3638212938360761
10
22.750257296287824
20
4.3638212938360752
42
-0.10064116763488279
10
22.860256113931445
20
4.5299731096262024
10
23.097692981007903
20
4.7674099767026474
42
0.1989123673796557
10
23.244139590414626
20
5.1209633672959196
10
23.244139590414626
20
8.413856586109377
42
0.41421356237309503
10
21.744139590414626
20
9.913856586109377
10
18.451246371601176
20
9.9138565861093699
42
0.19891236737965545
10
18.097692981007906
20
9.7674099767026483
10
17.860256113931452
20
9.529973109626205
42
-0.19891236737965592
10
17.506702723338179
20
9.3835265002194816
10
8.4462899226434498
20
9.3835265002194781
42
-0.19891236737965257
10
8.0927365320501821
20
9.5299731096261961
10
7.5017462743804106
20
10.120963367295934
42
0.1989123673796557
10
7.1481928837871411
20
10.267409976702655
10
3.5768072757843732
20
10.267409976702652
42
0.19891236737965132
10
3.2232538851911086
20
10.120963367295934
10
2.63226362752133
20
9.5299731096261873
42
-0.10064116763487942
10
2.4661118117312091
20
9.4199742919825713
10
2.46611181173121
20
9.0087233506131632
42
-0.99999999999999989
10
2.2787102369280601
20
9.0087233506131632
10
2.2787102369280605
20
11.48209865316298
42
0.41421356237309093
10
2.0287102369280618
20
11.732098653162979
10
-6.531702563766812
20
11.73209865316301
42
0.41421356237309664
10
-6.7817025637668138
20
11.482098653163009
10
-6.7817025637666788
20
9.0087233506131597
42
-0.99999999999999989
10
-6.9691041385698274
20
9.0087233506131597
10
-6.9691041385698274
20
9.4199742919825802
42
-0.10064116763487976
10
-7.1352559543599501
20
9.5299731096261961
10
-7.3726928214363925
20
9.7674099767026519
42
0.19891236737966181
10
-7.7262462120296718
20
9.9138565861093824
0
LWPOLYLINE
5
101
100
AcDbEntity
8
INTERIOR_PROFILES
100
AcDbPolyline
90
12
70
1
43
0.0
10
1.7677165354330726
20
-2.5353971532528852
10
1.7677165354330722
20
-3.2109877044340012
10
2.5055118110236263
20
-3.2109877044340021
42
-0.41421356237307838
10
2.7023622047244129
20
-3.4078380981347776
10
2.7023622047244138
20
-5.0409089642765084
42
-0.41421356237307838
10
2.5055118110236263
20
-5.2377593579772848
10
1.7677165354330715
20
-5.2377593579772848
10
1.7677165354330711
20
-5.9133499091584127
10
2.5905511811023612
20
-5.9133499091584127
42
0.4142135623731022
10
3.377952755905508
20
-5.1259483343552628
10
3.377952755905508
20
-3.3227987280560343
42
0.4142135623731022
10
2.5905511811023612
20
-2.5353971532528847
0
LWPOLYLINE
5
102
100
AcDbEntity
8
INTERIOR_PROFILES
100
AcDbPolyline
90
16
70
1
43
0.0
10
6.5849912911527397
20
-2.1888202795195615
42
0.41421356237309503
10
6.742471606113372
20
-2.0313399645589296
10
6.7424716061133703
20
-0.82622185432270667
42
0.41421356237309243
10
6.5849912911527397
20
-0.66874153936207459
10
6.4046763305228245
20
-0.66874153936208569
10
6.4046763305228245
20
-1.259883271645525
10
5.6184952281606204
20
-1.259883271645525
10
5.6184952281606204
20
-0.66874153936208569
10
5.4381802675307052
20
-0.66874153936208569
42
0.41421356237307455
10
5.2806999525700729
20
-0.82622185432270689
10
5.2806999710103755
20
-2.0313399645589301
42
0.41421352807648293
10
5.4381802675306998
20
-2.1888202795195624
10
5.6184952281606204
20
-2.1888202795195619
10
5.6184952281606204
20
-1.5976785472361226
10
6.4046763305228245
20
-1.5976785472361226
10
6.4046763305228245
20
-2.1888202795195615
0
LWPOLYLINE
5
103
100
AcDbEntity
8
INTERIOR_PROFILES
100
AcDbPolyline
90
5
70
1
43
0.0
10
9.9384660089815746
20
-1.5714772671409658
10
10.638176896856017
20
-1.5714772671409651
10
10.63817689685602
20
-1.433386711555503
42
0.41421356237309764
10
10.480696581895387
20
-1.2759063965948707
10
9.9384660089815746
20
-1.2759063965948716
0
LWPOLYLINE
5
104
100
AcDbEntity
8
INTERIOR_PROFILES
100
AcDbPolyline
90
22
70
1
43
0.0
10
0.81849657784790197
20
-1.2416190432919885
10
0.34723580425082473
20
-0.67999232330895287
42
0.22169466264287255
10
0.32310842021558239
20
-0.66874153936207592
10
0.15748031496063039
20
-0.66874153936207947
42
0.41421356237309503
10
3.4967654318902565e-16
20
-0.82622185432270945
10
0
20
-2.0313399645589323
42
0.41421356237309653
10
0.15748031496063014
20
-2.1888202795195615
10
0.33779537185703834
20
-2.1888202795195646
10
0.33779528385604146
20
-1.267502651728613
42
-0.70020757379669618
10
0.39341873088341112
20
-1.2472573696749651
10
0.81849657784790586
20
-1.7538454209271226
42
0.46630765815549152
10
0.86675134591838743
20
-1.7538454209271226
10
1.2918291928828798
20
-1.2472573696749771
42
-0.70020757379657417
10
1.3474526399102498
20
-1.267502651728613
10
1.3474525519092548
20
-2.1888202795195641
10
1.5277676088056571
20
-2.1888202795195633
42
0.41421356237311585
10
1.6852479237662892
20
-2.0313399645589203
10
1.6852479237662874
20
-0.82622185432273121
42
0.41421356237311618
10
1.5277676088056571
20
-0.66874153936208991
10
1.3621395035507022
20
-0.66874153936208702
42
0.22169466264250376
10
1.3380121195154573
20
-0.6799923233089753
10
0.8667513459183791
20
-1.2416190432920025
42
-0.46630765815502973
0
LWPOLYLINE
5
105
100
AcDbEntity
8
INTERIOR_PROFILES
100
AcDbPolyline
90
14
70
1
43
0.0
10
2.3773739080182588
20
-1.006536814952651
10
2.9856416245536921
20
-1.0065368149526557
42
-0.41421356237309592
10
3.1037518607741648
20
-1.1246470511731279
10
3.1037518607741648
20
-2.1888202795195633
10
3.2840668214040791
20
-2.1888202795195628
42
0.41421356237309503
10
3.4415471363647114
20
-2.031339964558931
10
3.4415471363647199
20
-1.0624423267636618
42
0.41421356237309814
10
3.0478463489631409
20
-0.66874153936208713
10
2.31516918360881
20
-0.66874153936208713
42
0.41421356237309803
10
1.9214683962072314
20
-1.062442326763662
10
1.9214683962072332
20
-2.0313399645589314
42
0.41421356237309503
10
2.0789487111678651
20
-2.1888202795195637
10
2.2592636717977865
20
-2.1888202795195637
10
2.2592636717977892
20
-1.1246470511731279
42
-0.41421356237302132
0
LWPOLYLINE
5
106
100
AcDbEntity
8
INTERIOR_PROFILES
100
AcDbPolyline
90
6
70
1
43
0.0
10
7.1361723935149453
20
-2.1888202795195615
10
7.3164873541448587
20
-2.1888202795195615
10
7.3164873541448605
20
-0.82622185432271722
42
0.41421356237309503
10
7.1590070391842282
20
-0.66874153936208502
10
6.9786920785543076
20
-0.66874153936208502
10
6.9786920785543129
20
-2.0313399645589181
42
0.41421356237311585
0
LWPOLYLINE
5
107
100
AcDbEntity
8
INTERIOR_PROFILES
100
AcDbPolyline
90
14
70
1
43
0.0
10
7.6848425196850387
20
-5.404895415503403
42
0.41421356237309503
10
8.196653543307086
20
-5.9167064391254494
10
10.213188976377952
20
-5.9167064391254502
42
0.41421356237309426
10
10.725
20
-5.4048954155034012
10
10.725
20
-5.1566670690467147
10
8.4763779527559038
20
-5.1566670690467138
42
-0.41421356237286089
10
8.4448818897637778
20
-5.1251710060545843
10
8.4448818897637619
20
-3.3302891162908175
42
-0.41421356237309503
10
8.4763779527559038
20
-3.2987930532986751
10
10.724999999999998
20
-3.2987930532986858
10
10.724999999999998
20
-3.0505647068419885
42
0.41421356237309426
10
10.213188976377952
20
-2.5387536832199409
10
8.1966535433070824
20
-2.5387536832199151
42
0.41421356237309387
10
7.6848425196850112
20
-3.0505647068419899
0
LWPOLYLINE
5
108
100
AcDbEntity
8
INTERIOR_PROFILES
100
AcDbPolyline
90
12
70
1
43
0.0
10
1.6102362204724419
20
-5.9133499091584127
10
1.6102362204724421
20
-5.2377593579772848
10
0.87244094488188806
20
-5.2377593579772848
42
-0.41421356237309709
10
0.67559055118109923
20
-5.0409089642764977
10
0.67559055118110134
20
-3.4078380981347784
42
-0.41421356237307838
10
0.87244094488188872
20
-3.2109877044340021
10
1.6102362204724427
20
-3.2109877044340012
10
1.6102362204724432
20
-2.5353971532528852
10
0.78740157480314932
20
-2.5353971532528852
42
0.41421356237310253
10
2.7974123455122052e-15
20
-3.3227987280560356
10
2.7974123455122052e-15
20
-5.1259483343552628
42
0.4142135623731022
10
0.78740157480314921
20
-5.9133499091584127
0
LWPOLYLINE
5
109
100
AcDbEntity
8
INTERIOR_PROFILES
100
AcDbPolyline
90
16
70
1
43
0.0
10
3.8503775020708693
20
-3.0472081768749359
10
3.8503775020708679
20
-5.4015388855363602
42
0.41421356237309309
10
4.3621885256929165
20
-5.9133499091584119
10
4.6104168721496093
20
-5.9133499091584119
10
4.610416872149619
20
-3.8042153396924228
42
-0.70020753820995685
10
4.6660403191769788
20
-3.7839700606471793
10
6.4528021646990901
20
-5.913349909158411
10
6.7010305111557829
20
-5.9133499091584065
42
0.41421356237309542
10
7.2128415347778301
20
-5.4015388855363584
10
7.2128415347778345
20
-3.0472081768749346
42
0.41421356237309503
10
6.7010305111557829
20
-2.535397153252883
10
6.4528021646990901
20
-2.535397153252883
10
6.4528021646990874
20
-4.6445317227188605
42
-0.70020753820972526
10
6.3971787176717205
20
-4.6647770017641053
10
4.6104168721496102
20
-2.5353971532528838
10
4.3621885256929165
20
-2.5353971532528883
42
0.4142135623730952
0
LWPOLYLINE
5
110
100
AcDbEntity
8
INTERIOR_PROFILES
100
AcDbPolyline
90
14
70
1
43
0.0
10
9.4723116741585915
20
-0.66874153936207315
42
0.41421356237309537
10
9.3148313591979601
20
-0.82622185432270545
10
9.3148313591979619
20
-2.0313399645589172
42
0.41421356237311585
10
9.4723116741585915
20
-2.1888202795195593
10
10.567519685039361
20
-2.1888202795195597
42
0.41421356237311585
10
10.724999999999993
20
-2.0313399645589167
10
10.724999999999998
20
-1.851025003929007
10
9.6841226977806301
20
-1.8510250039290119
42
-0.41421356237279588
10
9.6526266347885041
20
-1.8195289409368769
10
9.6526266347884881
20
-1.0380328779447785
42
-0.41421356237310153
10
9.6841226977806318
20
-1.006536814952637
10
10.724999999999998
20
-1.0065368149526477
10
10.725000000000001
20
-0.82622185432270456
42
0.41421356237309503
10
10.56751968503937
20
-0.66874153936207248
0
LWPOLYLINE
5
111
100
AcDbEntity
8
INTERIOR_PROFILES
100
AcDbPolyline
90
14
70
1
43
0.0
10
4.0470589473883312
20
-1.8510250039290099
42
-0.41421356237280238
10
4.0155628843962088
20
-1.8195289409368791
10
4.0155628843961999
20
-1.0380328779447814
42
-0.41421356237309503
10
4.0470589473883312
20
-1.0065368149526503
10
5.0444794985694399
20
-1.0065368149526503
10
5.0444794985694399
20
-0.90496201180302904
42
0.41421358523750529
10
4.8082590076881893
20
-0.66874153936208836
10
4.0714683962072291
20
-0.66874153936208647
42
0.41421356237309764
10
3.6777676088056506
20
-1.0624423267636611
10
3.6777676088056506
20
-1.7951194921179878
42
0.41421356237309764
10
4.0714683962072291
20
-2.1888202795195628
10
4.8082590076881795
20
-2.1888202795195624
42
0.41421356237309503
10
5.0444794801291222
20
-1.9525998070786197
10
5.044479498569447
20
-1.8510250039290099
0
LWPOLYLINE
5
112
100
AcDbEntity
8
INTERIOR_PROFILES
100
AcDbPolyline
90
6
70
1
43
0.0
10
2.9330568047022116
20
-1.5750870842812812
42
0.512039003838895
10
2.8210218930591719
20
-1.4195842488840811
10
2.5419936231407219
20
-1.419584248884082
42
0.5120390038388698
10
2.4299587114976768
20
-1.5750870842812925
10
2.5870065585711086
20
-2.0456305088621876
42
0.72046860982864136
10
2.7760089576287719
20
-2.0456305088621876
0
LWPOLYLINE
5
113
100
AcDbEntity
8
INTERIOR_PROFILES
100
AcDbPolyline
90
16
70
1
43
0.0
10
7.8904839376820677
20
-0.66874153936208502
10
7.71016897705218
20
-0.66874153936208502
42
0.41421356237309503
10
7.5526886620915485
20
-0.82622185432271722
10
7.5526886620915423
20
-2.0313399645589292
42
0.41421356237309764
10
7.7101689770521764
20
-2.1888202795195615
10
7.890483937682097
20
-2.1888202795195615
10
7.8904839376820997
20
-1.2619691746204962
42
-0.70020753820959025
10
7.9461073847094665
20
-1.2417238955752632
10
8.7408156111664663
20
-2.188820279519561
10
8.921130571796386
20
-2.1888202795195606
42
0.41421356237309503
10
9.0786108867570192
20
-2.0313399645589283
10
9.0786108867570299
20
-0.82622185432270523
42
0.41421356237309243
10
8.9211305717963878
20
-0.66874153936206193
10
8.7408156111664663
20
-0.66874153936208436
10
8.740815611166461
20
-1.595592644261161
42
-0.70020753820996762
10
8.6851921641390977
20
-1.6158379233064044
0
LWPOLYLINE
5
114
100
AcDbEntity
8
INTERIOR_PROFILES
100
AcDbPolyline
90
6
70
1
43
0.0
10
0
20
-0.22539370078739801
42
0.41421356237310036
10
0.19685039370078877
20
-0.42224409448818256
10
10.528149606299213
20
-0.42224409448818045
42
0.41421356237309731
10
10.725000000000001
20
-0.22539370078739296
10
10.725
20
4.8954716046463587e-15
10
0
20
0
0
LWPOLYLINE
5
115
100
AcDbEntity
8
INTERIOR_PROFILES
100
AcDbPolyline
90
6
70
1
43
0.0
10
0
20
-6.7591841972359461
10
10.725
20
-6.7591841972359399
10
10.724999999999998
20
-6.5337904964485327
42
0.41421356237310125
10
10.528149606299209
20
-6.3369401027477474
10
0.19685039370078736
20
-6.3369401027477492
42
0.41421356237309703
10
-1.3987061727561026e-15
20
-6.5337904964485363
0
LWPOLYLINE
5
116
100
AcDbEntity
8
INTERIOR_PROFILES
100
AcDbPolyline
90
5
70
1
43
0.0
10
9.0824558511322415
20
-4.5616403009137922
10
10.530280741946649
20
-4.5616403009137914
10
10.530280741946649
20
-4.4056308450536505
42
0.41421356237309265
10
10.018469718324601
20
-3.8938198214315984
10
9.0824558511322415
20
-3.8938198214315984
0
LINE
5
117
100
AcDbEntity
8
BEND
100
AcDbLine
10
8.4462899226434711
20
-17.070521759632463
30
1.4058733375741121e-13
11
17.506702723338048
21
-17.070521759632481
31
1.3754825090505898e-13
0
LINE
5
118
100
AcDbEntity
8
BEND
100
AcDbLine
10
23.725238619232467
20
-0.24679671859394867
30
-4.2239245774079735e-13
11
23.725238619232474
21
4.1764197190329497
31
-4.187981764683036e-13
0
LINE
5
119
100
AcDbEntity
8
BEND
100
AcDbLine
10
2.2787102369280556
20
10.394955614927069
30
3.5688257695686097e-14
11
-6.7817025637668182
21
10.394955614927108
31
6.5883880903324573e-14
0
LINE
5
120
100
AcDbEntity
8
BEND
100
AcDbLine
10
-13.000238459660769
20
-6.4287694261114208
30
3.7432719419090305e-13
11
-13.000238459660771
21
-10.851985863738308
31
3.8416493755399451e-13
0
LINE
5
121
100
AcDbEntity
8
BEND
100
AcDbLine
10
17.506702723338133
20
-15.896235683160723
30
-8.9167518513201438e-15
11
8.4462899226434036
21
-15.896235683160713
31
7.8677222217530875e-15
0
LINE
5
122
100
AcDbEntity
8
BEND
100
AcDbLine
10
22.550952542760644
20
4.1764197190329266
30
-7.0877584020431917e-14
11
22.550952542760644
21
-0.24679671859397107
31
-7.0877584020431361e-14
0
LINE
5
123
100
AcDbEntity
8
BEND
100
AcDbLine
10
-6.7817025637667507
20
9.2206695384553612
30
-1.9634532215656707e-14
11
2.2787102369279815
21
9.2206695384553452
31
1.3934415930490309e-14
0
LINE
5
124
100
AcDbEntity
8
BEND
100
AcDbLine
10
-11.825952383189057
20
-10.851985863738308
30
6.4705598717583101e-14
11
-11.825952383189057
21
-6.4287694261114048
31
6.4705598717583328e-14
0
LINE
5
125
100
AcDbEntity
8
BEND_EXTENT
100
AcDbLine
10
17.506702723338051
20
-17.282467947474665
30
1.3707320493009805e-13
11
8.4462899226434747
21
-17.28246794747465
31
1.5385767900317128e-13
0
LINE
5
126
100
AcDbEntity
8
BEND_EXTENT
100
AcDbLine
10
8.4462899226434427
20
-16.858575571790286
30
1.6784474073073231e-14
11
17.506702723338169
21
-16.858575571790308
31
-5.5948246910244104e-15
0
LINE
5
127
100
AcDbEntity
8
BEND_EXTENT
100
AcDbLine
10
-6.7817025637668165
20
10.606901802769304
30
7.5530133328829539e-14
11
2.2787102369280556
21
10.606901802769272
31
8.6719782710878367e-14
0
LINE
5
128
100
AcDbEntity
8
BEND_EXTENT
100
AcDbLine
10
2.2787102369280818
20
10.183009427084894
30
-2.2379298764097642e-14
11
-6.7817025637666557
21
10.183009427084933
31
-3.3568948146146463e-14
0
LINE
5
129
100
AcDbEntity
8
BEND_EXTENT
100
AcDbLine
10
23.937184807074662
20
4.1764197190329506
30
-4.7835751108258712e-13
11
23.937184807074654
21
-0.2467967185939256
31
-4.7835751108258712e-13
0
LINE
5
130
100
AcDbEntity
8
BEND_EXTENT
100
AcDbLine
10
23.513292431390283
20
-0.24679671859397034
30
-3.5806878022556227e-13
11
23.51329243139029
21
4.1764197190329266
31
-3.5806878022556227e-13
0
LINE
5
131
100
AcDbEntity
8
BEND_EXTENT
100
AcDbLine
10
-13.212184647502955
20
-10.851985863738314
30
4.3639632589990403e-13
11
-13.212184647502955
21
-6.4287694261114323
31
4.3080150120887958e-13
0
LINE
5
132
100
AcDbEntity
8
BEND_EXTENT
100
AcDbLine
10
-12.788292271818596
20
-6.4287694261113986
30
3.2449983207941581e-13
11
-12.788292271818593
21
-10.851985863738298
31
3.2449983207941581e-13
0
LINE
5
133
100
AcDbEntity
8
BEND_EXTENT
100
AcDbLine
10
17.50670272333813
20
-16.108181871002905
30
-5.5948246910244104e-15
11
8.4462899226434036
21
-16.108181871002895
31
1.1189649382048821e-14
0
LINE
5
134
100
AcDbEntity
8
BEND_EXTENT
100
AcDbLine
10
-12.037898571031194
20
-10.851985863738303
30
1.1749131851151262e-13
11
-12.037898571031198
21
-6.4287694261113986
31
1.1749131851151262e-13
0
LINE
5
135
100
AcDbEntity
8
BEND_EXTENT
100
AcDbLine
10
-6.7817025637667481
20
9.4326157262975219
30
-4.4758597528195284e-14
11
2.2787102369279841
21
9.4326157262975165
31
-1.1189649382048821e-14
0
LINE
5
136
100
AcDbEntity
8
BEND_EXTENT
100
AcDbLine
10
22.762898730602892
20
4.1764197190329266
30
-1.3147838023907365e-13
11
22.762898730602888
21
-0.24679671859397107
31
-1.3147838023907365e-13
0
LINE
5
137
100
AcDbEntity
8
BEND_EXTENT
100
AcDbLine
10
-11.614006195346914
20
-6.4287694261113977
30
8.3922370365366157e-15
11
-11.614006195346914
21
-10.851985863738303
31
8.3922370365366157e-15
0
LINE
5
138
100
AcDbEntity
8
BEND_EXTENT
100
AcDbLine
10
22.339006354918421
20
-0.24679671859397107
30
-8.3922370365366157e-15
11
22.339006354918421
21
4.1764197190329266
31
-8.3922370365366157e-15
0
LINE
5
139
100
AcDbEntity
8
BEND_EXTENT
100
AcDbLine
10
2.2787102369280601
20
9.0087233506131632
30
0
11
-6.7817025637666788
21
9.0087233506131597
31
5.5948246910244104e-15
0
LINE
5
140
100
AcDbEntity
8
BEND_EXTENT
100
AcDbLine
10
8.4462899226434551
20
-15.684289495318524
30
0
11
17.506702723338179
21
-15.684289495318538
31
-5.5948246910244104e-15
0
ENDSEC
0
SECTION
2
OBJECTS
0
DICTIONARY
5
C
100
AcDbDictionary
3
ACAD_GROUP
350
D
3
ACAD_MLINESTYLE
350
17
0
DICTIONARY
5
D
100
AcDbDictionary
0
DICTIONARY
5
1A
330
C
100
AcDbDictionary
0
DICTIONARY
5
17
100
AcDbDictionary
0
ENDSEC
0
EOF
